<svg xmlns="http://www.w3.org/2000/svg" width="118" height="30" fill="none" viewBox="0 0 118 30"><path fill="#3c8bd9" d="M11.096 3.751c.315-.827.748-1.589 1.392-2.206C15.06-.963 19.316-.333 21.062 2.82c1.313 2.39 2.705 4.727 4.058 7.09 2.258 3.927 4.543 7.853 6.775 11.792 1.878 3.296-.157 7.459-3.887 8.023-2.284.342-4.425-.709-5.607-2.757-1.982-3.453-3.978-6.907-5.961-10.347a1.2 1.2 0 0 0-.145-.21c-.21-.171-.302-.42-.433-.644-.88-1.55-1.786-3.086-2.665-4.622-.565-.998-1.156-1.983-1.72-2.98a5.44 5.44 0 0 1-.723-2.89c.04-.525.105-1.05.342-1.523"/><path fill="#fabc04" d="M11.095 3.751c-.118.473-.223.946-.25 1.445-.039 1.103.237 2.127.789 3.085 1.444 2.482 2.889 4.977 4.32 7.472.131.223.236.446.368.657a660 660 0 0 1-2.377 4.083c-1.103 1.904-2.206 3.821-3.322 5.725-.053 0-.066-.026-.08-.065-.012-.105.027-.197.053-.302.539-1.97.092-3.716-1.26-5.213-.827-.906-1.878-1.419-3.086-1.59-1.576-.222-2.968.185-4.215 1.17-.223.17-.368.42-.63.551-.053 0-.08-.026-.092-.066.63-1.09 1.247-2.18 1.877-3.27 2.6-4.516 5.2-9.033 7.814-13.537.026-.053.065-.092.091-.145"/><path fill="#34a852" d="M1.365 20.743c.25-.223.486-.46.749-.67 3.19-2.521 7.983-.696 8.68 3.296.17.959.078 1.878-.21 2.797a1.4 1.4 0 0 1-.053.223c-.118.21-.223.434-.355.644-1.168 1.93-2.889 2.888-5.147 2.744C2.442 29.593.407 27.65.052 25.076a5.26 5.26 0 0 1 .722-3.493c.132-.236.29-.446.434-.683.065-.052.04-.157.157-.157"/><path fill="#fabc04" d="M1.365 20.743c-.052.052-.052.144-.144.158-.013-.093.04-.145.092-.21z"/><path fill="#e1c025" d="M10.53 26.39c-.052-.093 0-.158.053-.224l.053.052z"/><path fill="#fff" d="M42.858 9.003c-3.69 0-6.76 2.971-6.76 6.629s3.07 6.596 6.76 6.596c1.992 0 3.462-.653 4.637-1.861 1.209-1.209 1.568-2.874 1.568-4.213 0-.424-.033-.816-.098-1.143h-6.107v1.796h4.343c-.13 1.013-.457 1.764-.98 2.286-.62.62-1.632 1.339-3.363 1.339-2.677 0-4.767-2.155-4.767-4.8s2.09-4.8 4.767-4.8c1.437 0 2.515.554 3.266 1.306l1.273-1.274c-1.077-1.045-2.514-1.861-4.539-1.861m11.07 4.735c-2.318 0-4.245 1.796-4.245 4.31 0 2.482 1.894 4.31 4.245 4.31s4.246-1.828 4.246-4.31-1.927-4.31-4.246-4.31m0 6.923c-1.273 0-2.383-1.078-2.383-2.613s1.11-2.612 2.383-2.612c1.274 0 2.384 1.045 2.384 2.612 0 1.535-1.11 2.613-2.384 2.613m9.21-6.923c-2.352 0-4.246 1.796-4.246 4.31 0 2.482 1.894 4.31 4.245 4.31 2.319 0 4.245-1.828 4.245-4.31s-1.894-4.31-4.245-4.31m0 6.923c-1.274 0-2.385-1.078-2.385-2.613s1.11-2.612 2.384-2.612 2.384 1.045 2.384 2.612c0 1.535-1.078 2.613-2.384 2.613m9.175-6.923c-2.122 0-4.05 1.861-4.05 4.278 0 2.383 1.928 4.245 4.05 4.245 1.013 0 1.796-.457 2.22-.98h.066v.62c0 1.633-.849 2.515-2.253 2.515-1.143 0-1.829-.817-2.123-1.502l-1.632.685c.457 1.143 1.698 2.515 3.755 2.515 2.188 0 4.016-1.306 4.016-4.441v-7.641H74.6v.685h-.065c-.425-.522-1.209-.98-2.22-.98m.163 6.857c-1.273 0-2.35-1.077-2.35-2.58 0-1.502 1.077-2.612 2.35-2.612s2.254 1.11 2.254 2.612-.98 2.58-2.254 2.58m5.258-11.07h1.861V22.13h-1.861zm6.858 4.213c-2.221 0-4.082 1.73-4.082 4.31 0 2.417 1.828 4.31 4.277 4.31a4.27 4.27 0 0 0 3.592-1.893l-1.469-.98c-.49.718-1.176 1.176-2.123 1.176-.98 0-1.665-.425-2.09-1.307l5.78-2.383-.196-.49c-.359-.947-1.469-2.743-3.69-2.743m-2.221 4.18c-.065-1.666 1.306-2.515 2.253-2.515.751 0 1.404.36 1.6.914zm9.371 4.017 4.31-11.462h1.666l4.311 11.462h-1.633l-1.11-3.102h-4.8l-1.111 3.102zm3.233-4.474h3.82l-1.86-5.16h-.066zm8.556 3.527c-.719-.816-1.078-1.796-1.078-2.971 0-1.143.359-2.123 1.078-2.972.751-.816 1.6-1.208 2.645-1.208.588 0 1.11.13 1.567.359.49.261.849.555 1.111.98h.065l-.065-1.078v-3.625h1.469v11.462h-1.404v-1.077h-.065a3 3 0 0 1-1.111.98c-.49.26-1.012.358-1.567.358-1.045 0-1.927-.391-2.645-1.208m4.637-.914c.49-.523.718-1.208.718-2.057 0-.817-.228-1.503-.718-2.025q-.686-.784-1.764-.784t-1.763.784c-.49.522-.718 1.208-.718 2.025 0 .816.228 1.502.718 2.024q.735.784 1.763.784a2.11 2.11 0 0 0 1.764-.751m8.947 1.404c-.588.457-1.339.718-2.253.718-.784 0-1.47-.196-2.09-.62-.588-.425-1.012-.947-1.274-1.633l1.306-.555c.196.457.458.849.85 1.11a2.05 2.05 0 0 0 1.208.392q.686 0 1.175-.294c.327-.196.458-.457.458-.718 0-.49-.392-.882-1.143-1.11l-1.339-.327c-1.535-.392-2.286-1.11-2.286-2.22 0-.719.294-1.274.882-1.731.587-.425 1.338-.653 2.22-.653.686 0 1.306.163 1.894.49.555.326.947.783 1.176 1.338l-1.307.556a1.84 1.84 0 0 0-.718-.784 2.2 2.2 0 0 0-1.143-.294c-.392 0-.718.098-1.045.294-.294.196-.457.424-.457.718 0 .457.425.784 1.274.947l1.175.294c1.568.392 2.319 1.176 2.319 2.351.032.686-.294 1.274-.882 1.73"/></svg>