<svg xmlns="http://www.w3.org/2000/svg" width="1646" height="253" fill="none" viewBox="0 0 1646 253"><path fill="#fff" d="M1055.88 252.999V0h36.65v252.999z"/><path fill="#fff" fill-rule="evenodd" d="M960.284 104.615c3.943 5.027 5.586 10.168 5.586 14.986v15.438c-13.129-6.848-28.917-10.841-45.901-10.841-45.634 0-82.628 28.832-82.628 64.399l.107 3.316c2.143 32.929 36.021 59.335 78.271 61.003l4.25.081c16.984 0 32.772-3.993 45.901-10.84V253h36.65V122.565l.07-2.964c0-15.877-6.418-30.504-17.211-42.164-15.111-16.325-38.793-26.836-65.414-26.836-30.63 0-57.368 13.918-71.639 34.593l32.18 18.617c6.985-8.688 19.835-16.41 39.459-16.41 17.231 0 30.872 6.836 38.49 15.066zm.793 72.473c3.681 4.376 4.797 8.353 4.797 11.509s-1.116 7.134-4.797 11.509l-1.739 1.905c-7.418 7.48-21.331 14.186-39.369 14.186-34.476 0-45.905-20.428-45.905-27.6s11.429-27.6 45.905-27.6c18.038 0 31.951 6.707 39.369 14.187zm642.613-72.473c3.94 5.027 5.58 10.168 5.58 14.986v15.438c-13.13-6.848-28.91-10.841-45.9-10.841-45.63 0-82.63 28.832-82.63 64.399l.11 3.316c2.14 32.929 36.02 59.335 78.27 61.003l4.25.081c16.99 0 32.77-3.993 45.9-10.84V253h36.65V122.565l.08-2.964c0-15.877-6.43-30.504-17.22-42.164-15.11-16.325-38.79-26.836-65.41-26.836-30.63 0-57.37 13.918-71.64 34.593l32.18 18.617c6.98-8.688 19.83-16.41 39.46-16.41 17.23 0 30.87 6.836 38.49 15.066zm.79 72.473c3.68 4.376 4.8 8.353 4.8 11.509s-1.12 7.134-4.8 11.509l-1.74 1.905c-7.42 7.48-21.33 14.186-39.37 14.186-34.47 0-45.9-20.428-45.9-27.6s11.43-27.6 45.9-27.6c18.04 0 31.95 6.707 39.37 14.187z" clip-rule="evenodd"/><path fill="#fff" d="M1149.5 50.6V253h36.72V119.601c0-11.787 14-32.2 45.9-32.2 17.24 0 30.88 6.836 38.49 15.066l1.83 2.148c3.95 5.027 5.59 10.168 5.59 14.986V253h36.72V119.601c0-11.787 14-32.2 45.91-32.2 17.23 0 30.87 6.836 38.49 15.066l1.83 2.148c3.94 5.027 5.58 10.168 5.58 14.986V253h36.73V119.601c0-15.877-6.43-30.504-17.22-42.164-15.11-16.325-38.79-26.836-65.41-26.836-25.96 0-49.12 9.994-64.27 25.626-15.15-15.633-38.31-25.626-64.27-25.626-16.98 0-32.77 4.28-45.9 11.619V50.6zM727.171 87.4c-43.637 0-73.447 31.782-73.447 64.4s29.81 64.4 73.447 64.4c23.078 0 43.016-9.287 56.189-23l25.974 26.028C789.159 239.955 759.822 253 727.171 253 666.325 253 617 207.691 617 151.8c0-55.89 49.325-101.2 110.171-101.2 32.652 0 61.986 13.047 82.161 33.775L783.36 110.4c-13.173-13.713-33.111-23-56.189-23"/><path fill="url(#a)" d="M505 142.847c-5.552 0-11.829.065-19.166 2.587-6.885 2.366-15.702 7.276-25.138 18.378l-.915 1.093c-14.598 17.726-28.18 29.486-41.927 36.672-14.137 7.391-27.124 9.252-39.104 9.252-11.979 0-24.966-1.861-39.104-9.251-13.317-6.961-26.48-18.214-40.562-35.026l-1.365-1.645c-9.78-11.876-18.946-17.029-26.053-19.471-6.42-2.207-12.029-2.532-17.05-2.58l-2.116-.007c-5.552 0-11.829.065-19.166 2.587-6.885 2.366-15.702 7.276-25.138 18.378l-.915 1.093c-14.598 17.726-28.18 29.485-41.927 36.671-14.138 7.39-27.125 9.251-39.104 9.251s-24.966-1.86-39.103-9.25c-13.318-6.961-26.481-18.215-40.563-35.027l-1.365-1.645c-9.78-11.876-18.946-17.029-26.053-19.471-7.337-2.522-13.614-2.587-19.166-2.587v-38.846c6.102 0 17.934-.066 31.791 4.696 14.087 4.841 29.201 14.255 43.414 31.514l1.172 1.411c12.028 14.357 21.385 21.671 28.765 25.528 7.228 3.779 13.664 4.831 21.108 4.831 7.443 0 13.879-1.052 21.107-4.831 7.619-3.982 17.344-11.647 29.938-26.94l.667-.803c14.018-16.748 28.88-25.945 42.747-30.711 13.857-4.762 25.689-4.696 31.791-4.696l2.55.007c6.542.052 17.116.523 29.241 4.689 14.087 4.842 29.201 14.255 43.414 31.514l1.172 1.412c12.027 14.357 21.385 21.67 28.765 25.527 7.228 3.779 13.664 4.831 21.108 4.831 7.443 0 13.879-1.052 21.107-4.831 7.619-3.982 17.344-11.647 29.938-26.94l.667-.804c14.018-16.748 28.88-25.945 42.747-30.711C487.066 103.934 498.898 104 505 104z"/><defs><linearGradient id="a" x1="0" x2="505" y1="159.772" y2="159.772" gradientUnits="userSpaceOnUse"><stop stop-color="#ffb600"/><stop offset=".332" stop-color="#fff200"/><stop offset=".721" stop-color="#9aeba3"/><stop offset="1" stop-color="#00f4ee"/></linearGradient></defs></svg>