<svg xmlns="http://www.w3.org/2000/svg" width="505" height="107" fill="none" viewBox="0 0 505 107"><path fill="url(#a)" d="M505 38.847c-5.552 0-11.829.065-19.166 2.587-6.885 2.366-15.702 7.276-25.138 18.378l-.915 1.093c-14.598 17.726-28.18 29.486-41.927 36.672-14.137 7.391-27.124 9.252-39.104 9.252-11.979 0-24.966-1.861-39.104-9.251-13.317-6.961-26.48-18.214-40.562-35.026l-1.365-1.645c-9.78-11.876-18.946-17.029-26.053-19.47-6.42-2.208-12.029-2.533-17.05-2.58l-2.116-.008c-5.552 0-11.829.065-19.166 2.587-6.885 2.366-15.702 7.276-25.138 18.378l-.915 1.093c-14.598 17.726-28.18 29.485-41.927 36.671-14.138 7.39-27.125 9.251-39.104 9.251s-24.966-1.86-39.103-9.25c-13.318-6.961-26.481-18.215-40.563-35.027l-1.365-1.645c-9.78-11.876-18.946-17.029-26.053-19.47C11.829 38.913 5.552 38.848 0 38.848V.003c6.102 0 17.934-.066 31.791 4.696C45.878 9.54 60.992 18.954 75.205 36.213l1.172 1.411c12.028 14.357 21.385 21.671 28.765 25.528 7.228 3.779 13.664 4.831 21.108 4.831 7.443 0 13.879-1.052 21.107-4.831 7.619-3.982 17.344-11.647 29.938-26.94l.667-.803c14.018-16.748 28.88-25.945 42.747-30.71C234.566-.065 246.398.001 252.5.001l2.55.007c6.542.052 17.116.523 29.241 4.689 14.087 4.842 29.201 14.255 43.414 31.514l1.172 1.412c12.027 14.357 21.385 21.67 28.765 25.527 7.228 3.78 13.664 4.831 21.108 4.831 7.443 0 13.879-1.052 21.107-4.83 7.619-3.983 17.344-11.648 29.938-26.941l.667-.804c14.018-16.748 28.88-25.945 42.747-30.71C487.066-.067 498.898-.001 505-.001z"/><defs><linearGradient id="a" x1="0" x2="505" y1="55.772" y2="55.772" gradientUnits="userSpaceOnUse"><stop stop-color="#ffb600"/><stop offset=".332" stop-color="#fff200"/><stop offset=".721" stop-color="#9aeba3"/><stop offset="1" stop-color="#00f4ee"/></linearGradient></defs></svg>