<svg xmlns="http://www.w3.org/2000/svg" width="96" height="20" fill="none" viewBox="0 0 96 20"><g clip-path="url(#a)"><path fill="#0081fb" d="M3.145 12.755c0 1.112.244 1.966.563 2.483.419.676 1.042.963 1.678.963.82 0 1.571-.204 3.017-2.204 1.159-1.603 2.524-3.853 3.442-5.264l1.555-2.39c1.081-1.66 2.332-3.505 3.766-4.755C18.336.568 19.599 0 20.87 0c2.133 0 4.166 1.236 5.721 3.555 1.703 2.54 2.529 5.74 2.529 9.04 0 1.963-.387 3.405-1.045 4.544-.636 1.102-1.875 2.203-3.96 2.203V16.2c1.785 0 2.23-1.641 2.23-3.519 0-2.675-.623-5.644-1.998-7.766-.975-1.504-2.239-2.424-3.629-2.424-1.504 0-2.714 1.134-4.074 3.157-.723 1.074-1.465 2.383-2.299 3.86l-.917 1.626c-1.843 3.268-2.31 4.012-3.232 5.24-1.615 2.152-2.994 2.967-4.81 2.967-2.154 0-3.516-.933-4.36-2.338C.339 15.857 0 14.354 0 12.642z"/><path fill="url(#b)" d="M2.48 3.777C3.922 1.554 6.003 0 8.39 0c1.382 0 2.756.41 4.191 1.58 1.57 1.282 3.243 3.391 5.33 6.868l.748 1.247c1.807 3.01 2.835 4.558 3.436 5.288.774.938 1.316 1.218 2.02 1.218 1.785 0 2.23-1.641 2.23-3.519l2.775-.087c0 1.963-.387 3.405-1.045 4.544-.636 1.102-1.875 2.203-3.96 2.203-1.297 0-2.445-.282-3.715-1.48-.976-.92-2.117-2.553-2.995-4.021l-2.612-4.363c-1.31-2.189-2.512-3.821-3.208-4.56-.749-.795-1.71-1.755-3.246-1.755-1.242 0-2.298.871-3.18 2.205z"/><path fill="url(#c)" d="M8.34 3.163c-1.243 0-2.298.871-3.182 2.205-1.248 1.885-2.013 4.692-2.013 7.387 0 1.112.244 1.966.563 2.483l-2.681 1.765C.338 15.859 0 14.356 0 12.644c0-3.114.855-6.36 2.48-8.866C3.922 1.554 6.003 0 8.39 0z"/><path fill="#fff" d="M35.234.612h3.639l6.186 11.192L51.247.611h3.559v18.39h-2.968V4.906l-5.426 9.76h-2.785l-5.425-9.76v14.095h-2.968zm28.872 6.856c-2.128 0-3.41 1.602-3.717 3.586h7.224c-.149-2.043-1.328-3.586-3.507-3.586m-6.66 4.716c0-4.174 2.698-7.212 6.712-7.212 3.948 0 6.306 3 6.306 7.435v.815H60.389c.357 2.158 1.79 3.612 4.098 3.612 1.842 0 2.994-.562 4.085-1.59l1.577 1.932c-1.486 1.366-3.375 2.154-5.767 2.154-4.346 0-6.936-3.169-6.936-7.146m16.617-4.452H71.33v-2.43h2.732v-4.02h2.864v4.02h4.15v2.43h-4.15v6.16c0 2.103.672 2.85 2.325 2.85.754 0 1.186-.065 1.825-.17v2.403a8.5 8.5 0 0 1-2.377.328q-4.638 0-4.637-5.07zm19.073 2.363c-.575-1.452-1.858-2.521-3.744-2.521-2.45 0-4.019 1.738-4.019 4.57 0 2.762 1.444 4.585 3.902 4.585 1.932 0 3.311-1.124 3.861-2.522zM96 19.002h-2.811v-1.918c-.786 1.129-2.216 2.246-4.532 2.246-3.724 0-6.213-3.118-6.213-7.185 0-4.106 2.548-7.173 6.371-7.173 1.89 0 3.372.756 4.374 2.09v-1.76h2.81z"/></g><defs><linearGradient id="b" x1="6.177" x2="26.228" y1="11.848" y2="12.861" gradientUnits="userSpaceOnUse"><stop stop-color="#0064e1"/><stop offset=".4" stop-color="#0064e1"/><stop offset=".83" stop-color="#0073ee"/><stop offset="1" stop-color="#0082fb"/></linearGradient><linearGradient id="c" x1="4.557" x2="4.557" y1="14.076" y2="6.684" gradientUnits="userSpaceOnUse"><stop stop-color="#0082fb"/><stop offset="1" stop-color="#0064e0"/></linearGradient><clipPath id="a"><path fill="#fff" d="M0 0h96v19.342H0z"/></clipPath></defs></svg>