<svg width="210" height="51" viewBox="0 0 210 51" fill="none" xmlns="http://www.w3.org/2000/svg">
<path d="M42.7851 50.4952H40.0131C39.7032 50.4952 39.4523 50.4239 39.2629 50.2788C39.0736 50.1337 38.9284 49.9492 38.8301 49.7229L37.92 47.037H32.0612L31.1511 49.7229C31.0724 49.9197 30.9347 50.0992 30.733 50.2566C30.5313 50.414 30.2829 50.4952 29.9877 50.4952H27.196L33.1606 35.0857H36.8205L42.7851 50.4952ZM37.1059 44.6044L35.6793 40.3837C35.5735 40.1156 35.4604 39.8008 35.3398 39.4368C35.2193 39.0727 35.1013 38.6817 34.9807 38.2586C34.875 38.689 34.7618 39.0875 34.6413 39.454C34.5208 39.8205 34.4077 40.1378 34.3019 40.4059L32.8851 44.6044H37.1059Z" fill="black"/>
<path d="M67.9766 35.0857V50.4952H64.8258V41.6332C64.8258 41.4291 64.8307 41.2077 64.8405 40.9666C64.8504 40.7281 64.8701 40.4846 64.8996 40.2361L60.8068 48.1586C60.6789 48.4045 60.5091 48.5915 60.2952 48.7194C60.0787 48.8473 59.8352 48.9088 59.5597 48.9088H59.0727C58.7972 48.9088 58.5537 48.8448 58.3373 48.7194C58.1209 48.5915 57.9511 48.4045 57.8232 48.1586L53.7304 40.2165C53.7526 40.4698 53.7698 40.7182 53.7821 40.9617C53.7968 41.2052 53.8042 41.4291 53.8042 41.6332V50.4952H50.6534V35.0857H53.3812C53.5361 35.0857 53.6714 35.0882 53.7895 35.0955C53.9075 35.1029 54.0108 35.1226 54.1018 35.1595C54.1928 35.1939 54.2765 35.2505 54.3503 35.3243C54.424 35.3981 54.4954 35.5014 54.5667 35.6366L58.5316 43.4533C58.6718 43.7214 58.8071 43.9994 58.9399 44.2896C59.0703 44.5798 59.1957 44.875 59.3162 45.1775C59.4368 44.8676 59.5622 44.5651 59.6926 44.2675C59.8229 43.9723 59.9631 43.6894 60.1107 43.4213L64.0658 35.6366C64.1371 35.5038 64.2084 35.3981 64.2822 35.3243C64.356 35.2505 64.4396 35.1964 64.5306 35.1595C64.6216 35.125 64.7274 35.1029 64.843 35.0955C64.9586 35.0882 65.0963 35.0857 65.2513 35.0857H67.979H67.9766Z" fill="black"/>
<path d="M81.2068 37.8356V41.4315H86.0498V44.0756H81.2068V47.7454H87.5305V50.4952H77.6108V35.0857H87.5305V37.8356H81.2068Z" fill="black"/>
<path d="M109.087 50.4952H105.85C105.25 50.4952 104.819 50.2689 104.558 49.8188L101.998 45.3448C101.878 45.1554 101.745 45.0152 101.597 44.9266C101.45 44.8381 101.238 44.7938 100.963 44.7938H100.052V50.4952H96.4786V35.0857H101.491C102.606 35.0857 103.555 35.2013 104.342 35.43C105.129 35.6588 105.771 35.9785 106.268 36.3868C106.765 36.7951 107.126 37.2797 107.353 37.8356C107.579 38.3914 107.692 38.999 107.692 39.6557C107.692 40.1574 107.626 40.6297 107.49 41.0724C107.358 41.5176 107.158 41.9284 106.898 42.3047C106.637 42.681 106.315 43.018 105.931 43.3156C105.547 43.6107 105.105 43.8542 104.603 44.0461C104.836 44.1666 105.053 44.3167 105.259 44.4962C105.464 44.6758 105.648 44.8897 105.81 45.1357L109.089 50.4977L109.087 50.4952ZM101.494 42.3293C101.981 42.3293 102.394 42.2678 102.736 42.1448C103.078 42.0218 103.358 41.8497 103.577 41.6307C103.796 41.4118 103.953 41.156 104.052 40.8633C104.15 40.5707 104.199 40.2558 104.199 39.9164C104.199 39.24 103.978 38.7112 103.538 38.3299C103.097 37.9487 102.414 37.7593 101.491 37.7593H100.052V42.3293H101.491H101.494Z" fill="black"/>
<path d="M120.58 50.4952H116.984V35.0857H120.58V50.4952Z" fill="black"/>
<path d="M140.678 46.5082C140.762 46.5082 140.848 46.5229 140.931 46.5549C141.015 46.5869 141.096 46.641 141.175 46.7197L142.592 48.2102C141.972 49.0219 141.195 49.6319 140.26 50.0451C139.325 50.4583 138.221 50.6649 136.944 50.6649C135.774 50.6649 134.726 50.4657 133.799 50.0672C132.871 49.6688 132.084 49.1178 131.44 48.4168C130.795 47.7158 130.299 46.882 129.954 45.9203C129.61 44.9586 129.435 43.9133 129.435 42.7843C129.435 41.6553 129.622 40.578 129.996 39.6163C130.37 38.6546 130.894 37.8232 131.573 37.1247C132.251 36.4262 133.061 35.8851 134.005 35.4964C134.95 35.1078 135.99 34.9135 137.124 34.9135C137.702 34.9135 138.246 34.9652 138.757 35.066C139.269 35.1693 139.746 35.3095 140.191 35.4891C140.636 35.6686 141.045 35.8851 141.418 36.1384C141.792 36.3917 142.124 36.6672 142.412 36.9624L141.207 38.5808C141.128 38.6792 141.037 38.7702 140.931 38.8514C140.826 38.9325 140.678 38.9719 140.486 38.9719C140.358 38.9719 140.24 38.9448 140.127 38.8883C140.014 38.8317 139.893 38.7628 139.768 38.6817C139.64 38.6005 139.502 38.5119 139.35 38.416C139.197 38.3201 139.018 38.2315 138.811 38.1504C138.602 38.0692 138.361 38.0003 138.081 37.9438C137.803 37.8872 137.476 37.8601 137.102 37.8601C136.509 37.8601 135.968 37.9684 135.478 38.1873C134.989 38.4062 134.566 38.7259 134.209 39.1441C133.853 39.5647 133.577 40.0787 133.385 40.6887C133.191 41.2987 133.095 41.9948 133.095 42.7769C133.095 43.5591 133.203 44.2675 133.417 44.8824C133.631 45.4948 133.924 46.0113 134.295 46.4319C134.664 46.8525 135.097 47.1698 135.592 47.3887C136.086 47.6076 136.615 47.7158 137.178 47.7158C137.503 47.7158 137.798 47.7011 138.066 47.6691C138.334 47.6371 138.585 47.5855 138.816 47.5092C139.05 47.4354 139.266 47.3371 139.473 47.2141C139.677 47.0911 139.886 46.9337 140.098 46.7443C140.181 46.673 140.275 46.6164 140.373 46.5697C140.472 46.5229 140.575 46.5008 140.681 46.5008L140.678 46.5082Z" fill="black"/>
<path d="M164.996 50.4952H162.224C161.914 50.4952 161.664 50.4239 161.474 50.2788C161.285 50.1337 161.14 49.9492 161.041 49.7229L160.131 47.037H154.272L153.362 49.7229C153.284 49.9197 153.146 50.0992 152.944 50.2566C152.742 50.414 152.494 50.4952 152.199 50.4952H149.407L155.372 35.0857H159.032L164.996 50.4952ZM159.317 44.6044L157.89 40.3837C157.785 40.1156 157.672 39.8008 157.551 39.4368C157.431 39.0727 157.312 38.6817 157.192 38.2586C157.086 38.689 156.973 39.0875 156.853 39.454C156.732 39.8205 156.619 40.1378 156.513 40.4059L155.096 44.6044H159.317Z" fill="black"/>
<path d="M181.702 38.2168C181.596 38.3865 181.486 38.512 181.37 38.598C181.254 38.6817 181.104 38.7259 180.92 38.7259C180.758 38.7259 180.583 38.6743 180.396 38.5735C180.209 38.4701 179.998 38.357 179.761 38.2291C179.525 38.1012 179.255 37.9881 178.952 37.8848C178.65 37.7815 178.303 37.7323 177.917 37.7323C177.248 37.7323 176.748 37.8749 176.421 38.1602C176.094 38.4455 175.929 38.8317 175.929 39.3187C175.929 39.6286 176.028 39.8869 176.225 40.091C176.421 40.2952 176.682 40.4723 177.002 40.6199C177.322 40.7674 177.688 40.9027 178.101 41.0282C178.514 41.1511 178.935 41.2889 179.365 41.4414C179.796 41.5939 180.217 41.771 180.63 41.9751C181.043 42.1793 181.409 42.44 181.729 42.7573C182.049 43.0746 182.31 43.4607 182.506 43.9157C182.703 44.3708 182.802 44.9193 182.802 45.5612C182.802 46.2745 182.679 46.9411 182.43 47.5609C182.184 48.1807 181.825 48.7218 181.358 49.1843C180.888 49.6467 180.31 50.0082 179.624 50.2739C178.938 50.537 178.155 50.6699 177.282 50.6699C176.803 50.6699 176.316 50.6207 175.816 50.5223C175.319 50.4239 174.837 50.2837 174.372 50.1041C173.908 49.9246 173.47 49.7106 173.061 49.4647C172.653 49.2187 172.297 48.9432 171.994 48.6407L173.052 46.9706C173.135 46.8501 173.248 46.7492 173.384 46.6681C173.521 46.5869 173.671 46.5451 173.834 46.5451C174.045 46.5451 174.259 46.6115 174.473 46.7468C174.687 46.8796 174.931 47.0296 175.204 47.192C175.474 47.3543 175.787 47.5019 176.138 47.6371C176.49 47.7724 176.906 47.8388 177.386 47.8388C178.035 47.8388 178.539 47.6962 178.898 47.4109C179.257 47.1255 179.437 46.673 179.437 46.0507C179.437 45.6916 179.338 45.3989 179.142 45.1726C178.945 44.9463 178.684 44.7594 178.364 44.6118C178.045 44.4642 177.678 44.3339 177.27 44.2207C176.862 44.1076 176.441 43.9822 176.011 43.8444C175.58 43.7067 175.16 43.537 174.751 43.3377C174.343 43.136 173.976 42.8729 173.657 42.5433C173.337 42.2161 173.076 41.8054 172.879 41.3159C172.683 40.8265 172.584 40.2214 172.584 39.5032C172.584 38.9252 172.7 38.3619 172.934 37.811C173.167 37.26 173.509 36.7705 173.959 36.3401C174.409 35.9097 174.963 35.5653 175.619 35.3095C176.276 35.0513 177.026 34.9234 177.873 34.9234C178.345 34.9234 178.805 34.9603 179.252 35.0341C179.7 35.1078 180.126 35.2185 180.526 35.3612C180.927 35.5063 181.304 35.6785 181.653 35.8802C182.002 36.0819 182.315 36.3081 182.59 36.5615L181.702 38.2217V38.2168Z" fill="black"/>
<path d="M68.2471 0.144318H66.1146V21.8013H68.2471V0.144318Z" fill="black"/>
<path d="M90.2779 4.57164C90.1549 4.77087 90.0024 4.95042 89.8204 5.098C89.6335 5.22098 89.4121 5.28247 89.1883 5.27263C88.9374 5.26279 88.6914 5.19147 88.475 5.06111L87.5969 4.58148C87.2206 4.39209 86.8295 4.23467 86.4261 4.11415C85.9613 3.96657 85.4742 3.89525 84.9848 3.90262C84.2494 3.84113 83.5164 4.04774 82.9236 4.48801C82.4612 4.88893 82.2079 5.4817 82.2325 6.09169C82.2202 6.48769 82.3678 6.87139 82.6432 7.1567C82.9581 7.46416 83.3221 7.71258 83.7205 7.89459C84.2174 8.11104 84.7241 8.29797 85.243 8.45784C85.8161 8.62264 86.4138 8.82187 86.9992 9.03093C87.5944 9.24492 88.1774 9.49088 88.7455 9.76882C89.3063 10.0443 89.8204 10.4083 90.2681 10.8461C90.7403 11.3036 91.1191 11.8472 91.3798 12.4498C91.6676 13.1754 91.8078 13.9526 91.7906 14.7348C91.7955 15.6793 91.6208 16.6189 91.274 17.4994C90.942 18.3455 90.4353 19.1129 89.786 19.7475C89.0997 20.4091 88.2807 20.9207 87.3854 21.2479C86.3474 21.634 85.248 21.821 84.1411 21.7988C83.4623 21.7939 82.7834 21.7275 82.1144 21.5996C81.4356 21.4643 80.769 21.2675 80.1221 21.0142C79.4925 20.7756 78.8849 20.4829 78.3069 20.1361C77.7633 19.8115 77.264 19.4179 76.8188 18.9653L78.2823 16.6238C78.5258 16.2598 78.9341 16.0384 79.3719 16.0384C79.6892 16.0458 79.9967 16.1442 80.2623 16.3188L81.2708 16.9288C81.6815 17.1698 82.112 17.374 82.5596 17.5388C83.1155 17.738 83.7033 17.8315 84.2936 17.8192C85.0389 17.861 85.7768 17.6568 86.3892 17.2338C86.9082 16.7492 87.1788 16.0556 87.1271 15.3472C87.137 14.9193 86.9918 14.5036 86.7164 14.1765C86.4187 13.8469 86.0547 13.5837 85.6513 13.4041C85.1594 13.1803 84.6503 13.0008 84.1288 12.8655C83.5656 12.7007 82.9581 12.5384 82.3825 12.3391C81.7873 12.1497 81.2093 11.9136 80.6485 11.6357C80.0852 11.3627 79.5736 10.9937 79.1383 10.5461C78.6734 10.0541 78.3069 9.47859 78.061 8.84892C77.7683 8.04217 77.6281 7.18868 77.6502 6.33027C77.6502 5.52351 77.8175 4.7266 78.1421 3.98871C78.4643 3.22131 78.9489 2.53016 79.5589 1.96198C80.2353 1.33232 81.0322 0.847776 81.9004 0.532945C82.8818 0.166461 83.9222 -0.013091 84.97 0.00658599C85.6144 0.00412637 86.2564 0.0533188 86.891 0.159082C87.4887 0.259927 88.0765 0.412423 88.6472 0.616572C89.1883 0.803503 89.7097 1.04455 90.2041 1.32986C90.6714 1.59796 91.1068 1.91525 91.5052 2.27928L90.2754 4.5741L90.2779 4.57164Z" fill="black"/>
<path d="M106.054 17.6666C106.664 17.6765 107.269 17.5609 107.835 17.3272C108.346 17.128 108.799 16.8058 109.158 16.3901C109.537 15.9547 109.82 15.4431 109.989 14.8897C110.184 14.2404 110.28 13.564 110.27 12.8876V0.237762H115.223V12.8876C115.238 14.1149 115.022 15.3349 114.591 16.4836C113.785 18.6529 112.075 20.3624 109.906 21.1691C107.426 22.0423 104.723 22.0423 102.246 21.1691C101.167 20.7682 100.185 20.141 99.3663 19.3293C98.562 18.5275 97.9421 17.5609 97.5511 16.4958C97.1108 15.3447 96.887 14.1223 96.8943 12.8876V0.237762H101.836V12.8876C101.828 13.5664 101.927 14.2428 102.128 14.8897C102.296 15.4431 102.576 15.9572 102.947 16.3999C103.309 16.8205 103.767 17.1452 104.283 17.3493C104.844 17.5732 105.446 17.6814 106.052 17.6666H106.054Z" fill="black"/>
<path d="M132.839 12.9688C133.026 13.3746 133.203 13.7657 133.366 14.1396C133.53 13.719 133.705 13.2959 133.892 12.8974C134.079 12.499 134.266 12.0882 134.455 11.7267L139.938 0.985506C140.016 0.82563 140.117 0.678053 140.243 0.552613C140.331 0.451768 140.444 0.37552 140.57 0.331247C140.708 0.272216 140.855 0.24516 141.003 0.250079H145.337V21.5651H140.981V9.30148C140.981 8.7038 140.981 8.05937 141.074 7.36822L135.417 18.3307C135.26 18.653 135.011 18.9211 134.704 19.1031C134.399 19.2826 134.049 19.3761 133.695 19.3736H133.016C132.657 19.3785 132.306 19.2851 131.998 19.1031C131.693 18.9186 131.445 18.6505 131.285 18.3307L125.606 7.34362C125.606 7.69535 125.677 8.03478 125.699 8.36191C125.721 8.68904 125.699 9.01863 125.699 9.29902V21.5627H121.343V0.250079H125.689C125.837 0.24762 125.984 0.274676 126.122 0.331247C126.25 0.380439 126.366 0.456687 126.461 0.552613C126.582 0.680513 126.68 0.82563 126.754 0.985506L132.247 11.8201C132.48 12.1842 132.667 12.5703 132.844 12.9688H132.839Z" fill="black"/>
<path d="M163.267 12.9688C163.442 13.3795 163.619 13.7878 163.784 14.1396C163.949 13.719 164.123 13.2959 164.31 12.8974C164.497 12.499 164.684 12.0882 164.883 11.7267L170.353 0.985506C170.435 0.82809 170.538 0.682972 170.658 0.552613C170.762 0.454228 170.885 0.37798 171.022 0.331247C171.16 0.274676 171.308 0.24516 171.455 0.250079H175.801V21.5651H171.433V9.30148C171.433 8.7038 171.433 8.05937 171.527 7.36822L165.869 18.3307C165.712 18.6505 165.469 18.9186 165.166 19.1031C164.856 19.2826 164.504 19.3761 164.148 19.3736H163.469C163.115 19.3785 162.765 19.2851 162.46 19.1031C162.151 18.9211 161.902 18.653 161.747 18.3307L156.068 7.34362C156.068 7.69535 156.139 8.03478 156.149 8.36191C156.161 8.68904 156.149 9.01863 156.149 9.29902V21.5627H151.781V0.250079H156.127C156.274 0.24516 156.425 0.272216 156.56 0.331247C156.69 0.37552 156.806 0.451768 156.899 0.552613C157.022 0.680513 157.126 0.82563 157.204 0.985506L162.697 11.8201C162.896 12.1842 163.083 12.5703 163.27 12.9688H163.267Z" fill="black"/>
<path d="M187.63 21.5651H182.651V0.237762H187.63V21.5651Z" fill="black"/>
<path d="M210 0.237762V4.16086H204.003V21.5651H199.05V4.16086H193.053V0.237762H210Z" fill="black"/>
<path d="M13.4689 4.57176C13.3459 4.7759 13.1885 4.953 13.0016 5.09811C12.8195 5.2211 12.6006 5.28259 12.3817 5.27275C12.1259 5.26537 11.8751 5.19158 11.6561 5.06122L10.7781 4.58159C10.4214 4.39712 10.0476 4.23971 9.66631 4.11427C9.20144 3.96669 8.71444 3.89536 8.22497 3.90274C7.48709 3.84125 6.7492 4.05032 6.15151 4.48813C5.69156 4.89151 5.44314 5.48181 5.47266 6.0918C5.46036 6.4878 5.60794 6.8715 5.88342 7.15682C6.19579 7.46673 6.55981 7.71515 6.96073 7.8947C7.45511 8.11361 7.96426 8.30054 8.48324 8.45796C9.05633 8.62275 9.65402 8.82198 10.2296 9.03105C10.8297 9.24257 11.4151 9.48854 11.9857 9.76893C12.5465 10.0469 13.0581 10.4109 13.5082 10.8462C13.9633 11.3062 14.3273 11.8522 14.5733 12.4499C14.8709 13.173 15.016 13.9503 14.9939 14.7349C14.9988 15.6794 14.8241 16.619 14.4773 17.4995C14.1404 18.3432 13.6337 19.1081 12.9893 19.7476C12.2932 20.4068 11.4668 20.9184 10.5641 21.248C9.52612 21.6341 8.42666 21.8211 7.31983 21.7989C6.63852 21.7965 5.96212 21.7276 5.29311 21.5997C4.60933 21.4644 3.93785 21.2701 3.29097 21.0143C2.66131 20.7733 2.05378 20.4806 1.47577 20.1362C0.937116 19.8066 0.442732 19.4131 0 18.9655L1.46347 16.6239C1.57416 16.4443 1.73157 16.2992 1.92096 16.2033C2.11282 16.0902 2.33172 16.0336 2.55309 16.0385C2.86792 16.0459 3.17291 16.1418 3.43117 16.3189L4.43962 16.9289C4.85775 17.1871 5.30294 17.4036 5.76289 17.5733C6.31877 17.7725 6.90662 17.866 7.49693 17.8537C8.23727 17.898 8.9727 17.6914 9.58269 17.2683C10.1164 16.7936 10.3944 16.0951 10.3329 15.3818C10.3378 14.9563 10.1927 14.5406 9.92211 14.211C9.62204 13.879 9.25556 13.6158 8.8448 13.4387C8.35779 13.2099 7.85357 13.0255 7.33459 12.8877C6.7615 12.7229 6.16381 12.5606 5.58826 12.3614C4.99057 12.172 4.40518 11.9359 3.84193 11.6579C3.29097 11.3726 2.79167 10.9963 2.36616 10.5462C1.89637 10.0567 1.52988 9.48116 1.28884 8.84904C0.986308 8.04966 0.833812 7.19863 0.84365 6.34268C0.84611 5.53839 1.0109 4.74147 1.32328 4.00112C1.65041 3.23126 2.13741 2.54257 2.75232 1.9744C3.42625 1.34227 4.22563 0.857728 5.09388 0.545357C6.09248 0.164115 7.15504 -0.0203562 8.22252 0.00178035C8.84234 0.00178035 9.46216 0.0534324 10.0722 0.154277C10.6748 0.255121 11.2651 0.407618 11.8406 0.611766C12.3793 0.801157 12.9007 1.0422 13.3976 1.32506C13.8624 1.59561 14.2978 1.91291 14.6987 2.27447L13.4689 4.5693V4.57176Z" fill="black"/>
<path d="M18.6218 21.5651V0.237777H26.468C27.7323 0.2181 28.9965 0.355839 30.2288 0.648533C31.1413 0.86498 32.0022 1.26344 32.7597 1.81931C33.3894 2.28664 33.8838 2.91138 34.1888 3.63451C34.4864 4.37978 34.6364 5.17424 34.634 5.97607C34.634 6.44832 34.5676 6.91811 34.4347 7.37068C34.2921 7.82079 34.0732 8.24384 33.7903 8.62508C33.4583 9.03584 33.0623 9.39248 32.6195 9.68026C32.1202 10.0369 31.5767 10.3271 31.0036 10.546C32.1891 10.7625 33.2787 11.343 34.1199 12.2088C34.8258 13.0229 35.1997 14.0731 35.1628 15.148C35.1726 16.0187 34.998 16.882 34.6463 17.6789C34.2847 18.4636 33.7583 19.1572 33.0992 19.718C32.349 20.3403 31.4807 20.8076 30.5461 21.088C29.4442 21.4323 28.2931 21.5971 27.137 21.5799L18.6218 21.5676V21.5651ZM23.5657 9.21047H26.1433C26.6377 9.21785 27.1321 9.1785 27.6191 9.09241C28.0348 9.04322 28.4357 8.90302 28.7899 8.68165C29.0974 8.4898 29.3409 8.21433 29.4934 7.88474C29.6704 7.47398 29.7541 7.03125 29.7393 6.5836C29.7492 6.15316 29.6827 5.72519 29.5401 5.31935C29.4245 4.9996 29.2228 4.71921 28.9547 4.51014C28.6595 4.29123 28.3201 4.14365 27.9585 4.07724C27.4838 3.9764 27.0018 3.92967 26.5172 3.93705H23.5657V9.20801V9.21047ZM23.5657 12.5236V17.8413H27.0805C27.6167 17.8487 28.1479 17.7577 28.6497 17.5707C29.026 17.4404 29.363 17.219 29.6336 16.9263C29.8574 16.668 30.0197 16.3655 30.1132 16.0359C30.1968 15.7063 30.2411 15.3694 30.2411 15.0275C30.2485 14.6708 30.1968 14.3142 30.0886 13.9723C29.9877 13.6648 29.8057 13.3894 29.5622 13.1754C29.272 12.9442 28.9375 12.7769 28.5784 12.6835C28.0692 12.5556 27.5453 12.4965 27.0214 12.5088L23.5657 12.5211V12.5236Z" fill="black"/>
<path d="M53.3246 16.0482C53.4451 16.0482 53.5656 16.0728 53.6763 16.1196C53.8066 16.1663 53.9222 16.2425 54.0157 16.3409L55.9711 18.4021C55.1225 19.5114 54.0059 20.387 52.7269 20.9429C51.2732 21.5455 49.7089 21.8357 48.1348 21.7988C46.6418 21.8234 45.1586 21.5455 43.7788 20.9798C42.5539 20.4682 41.4495 19.7057 40.5345 18.744C39.622 17.7232 38.9259 16.5279 38.4857 15.2292C37.9937 13.8346 37.7478 12.3637 37.7601 10.883C37.7453 9.38265 38.0257 7.89458 38.5791 6.50244C39.1153 5.20376 39.9122 4.02806 40.9207 3.04667C41.9291 2.06774 43.1245 1.3028 44.4355 0.798575C45.867 0.254999 47.3895 -0.0155594 48.9218 0.00165798C49.6794 -0.00326126 50.437 0.0680678 51.1822 0.213185C51.8586 0.346005 52.5227 0.540315 53.1622 0.798575C53.7574 1.03716 54.3256 1.33477 54.8594 1.68896C55.3636 2.02593 55.826 2.41947 56.2417 2.85974L54.5667 5.08569C54.4535 5.22097 54.3281 5.34641 54.1928 5.45956C54.0083 5.57762 53.7919 5.63419 53.573 5.62435C53.4008 5.62681 53.2335 5.58746 53.0811 5.50629L52.5768 5.22589L52.0037 4.85203C51.7652 4.70937 51.5143 4.58885 51.2536 4.48801C50.9264 4.36503 50.5895 4.27156 50.2451 4.20761C49.7975 4.12152 49.3424 4.08217 48.8874 4.08955C48.0437 4.07971 47.2075 4.23713 46.4278 4.55688C45.7022 4.86925 45.0553 5.33658 44.5314 5.92689C43.978 6.55163 43.5549 7.27968 43.2893 8.06921C42.9818 8.97927 42.8318 9.93361 42.8441 10.8929C42.8294 11.8841 42.9818 12.8679 43.2893 13.81C43.5377 14.5921 43.9362 15.3202 44.4601 15.9523C45.4636 17.0985 46.9197 17.7478 48.4422 17.7331C48.853 17.7355 49.2637 17.7134 49.672 17.6617C50.0262 17.6224 50.3755 17.5461 50.7149 17.4404C51.0297 17.3346 51.3323 17.1919 51.6176 17.0198C51.925 16.8353 52.2153 16.6238 52.4834 16.3877C52.6014 16.2893 52.7293 16.2056 52.8695 16.1417C53.0122 16.0777 53.1696 16.0458 53.327 16.0482H53.3246Z" fill="black"/>
</svg>
