<svg xmlns="http://www.w3.org/2000/svg" width="115" height="19" fill="none" viewBox="0 0 115 19"><path fill="#25f4ee" d="M8.582 7.608v-.696a5 5 0 0 0-.73-.052c-2.982 0-5.41 2.423-5.41 5.401 0 1.827.915 3.444 2.31 4.422A5.37 5.37 0 0 1 3.3 13.005c0-2.935 2.358-5.33 5.283-5.397"/><path fill="#25f4ee" d="M8.71 15.472a2.47 2.47 0 0 0 2.466-2.374l.005-11.76h2.152a4 4 0 0 1-.07-.744h-2.94l-.004 11.76a2.47 2.47 0 0 1-3.613 2.09 2.47 2.47 0 0 0 2.003 1.028M17.353 5.33v-.654c-.82 0-1.586-.243-2.227-.661a4.1 4.1 0 0 0 2.227 1.315"/><path fill="#fe2c55" d="M15.126 4.015a4.06 4.06 0 0 1-1.005-2.677h-.788a4.1 4.1 0 0 0 1.793 2.677M7.853 9.794a2.47 2.47 0 0 0-2.471 2.467c0 .947.538 1.77 1.325 2.183a2.45 2.45 0 0 1-.468-1.439A2.47 2.47 0 0 1 8.71 10.54c.254 0 .498.042.73.114V7.657a5 5 0 0 0-.73-.053l-.128.004v2.3a2.5 2.5 0 0 0-.73-.114"/><path fill="#fe2c55" d="M17.353 5.33v2.28a7 7 0 0 1-4.09-1.312v5.963c0 2.978-2.427 5.4-5.41 5.4a5.4 5.4 0 0 1-3.1-.978 5.4 5.4 0 0 0 3.957 1.723c2.983 0 5.41-2.423 5.41-5.4V7.041a7 7 0 0 0 4.09 1.313V5.421q-.441-.001-.857-.091"/><path fill="#fff" d="M13.264 12.261V6.298a7 7 0 0 0 4.09 1.312V5.33a4.1 4.1 0 0 1-2.228-1.315 4.1 4.1 0 0 1-1.793-2.676H11.18l-.005 11.76a2.468 2.468 0 0 1-4.47 1.346 2.47 2.47 0 0 1-1.324-2.184 2.47 2.47 0 0 1 2.47-2.467c.255 0 .5.042.73.114v-2.3c-2.925.068-5.283 2.462-5.283 5.397 0 1.42.553 2.713 1.453 3.678.88.616 1.948.979 3.1.979 2.984 0 5.412-2.423 5.412-5.401"/><path fill="#fff" fill-rule="evenodd" d="M24.57 3.101h9.179l-.843 2.647h-2.38l.004 9.23v.553h-2.972V5.747H24.92l-.348.006zm24.217 0h9.391l-.842 2.647h-2.594l.005 9.23v.56h-2.972V5.746h-2.638l-.348.006zM34.31 7.326v-.27h2.943v.27l.005 7.425-.009.78h-2.922v-.423zm4.11-3.674v-.586h2.91v.51l.004 5.28 2.94-2.882h3.509L44.097 9.58l4.128 5.952h-3.239l-2.755-4.127-.873.853.002 3.28-2.929-.006v-.265z" clip-rule="evenodd"/><mask id="a" width="11" height="13" x="69" y="3" maskUnits="userSpaceOnUse" style="mask-type:luminance"><path fill="#fff" fill-rule="evenodd" d="M69.57 3.066h9.805v12.471h-9.806z" clip-rule="evenodd"/></mask><g mask="url(#a)"><path fill="#fff" fill-rule="evenodd" d="M69.57 3.652v-.586h2.909v.51l.004 5.28 2.94-2.882h3.509L75.247 9.58l4.128 5.952h-3.24l-2.754-4.127-.873.853.001 3.28-2.928-.006v-.265z" clip-rule="evenodd"/></g><path fill="#fff" fill-rule="evenodd" d="M68.216 8.459a5.1 5.1 0 0 0-1.074-1.605 5 5 0 0 0-1.596-1.072 5 5 0 0 0-1.96-.39l-.061.002v-.001h-.642l.05.002q.127.004.255.013a5 5 0 0 1 .491.06q.008 0 .015.002.22.037.43.094l.038.01.097.028a3 3 0 0 1 .165.052l.106.037.063.023q.086.032.17.068.916.39 1.595 1.072.679.683 1.074 1.605.396.921.396 1.994 0 .71-.18 1.361-.178.652-.505 1.215a5 5 0 0 1-3.198 2.364l-.077.017a5 5 0 0 1-.393.067 5 5 0 0 1-.573.042h-.004.602l.093.001a5 5 0 0 0 3.553-1.469 5 5 0 0 0 .781-1.022 5.15 5.15 0 0 0 .685-2.576q0-1.073-.396-1.994m-6.031 7.024-.074-.01a6 6 0 0 1-.372-.063l-.073-.015a4.97 4.97 0 0 1-3.217-2.366 5.14 5.14 0 0 1-.688-2.577 5.1 5.1 0 0 1 .685-2.58q.325-.56.781-1.018a5 5 0 0 1 1.016-.783 5 5 0 0 1 1.49-.569l.096-.018a5 5 0 0 1 .854-.09l.035-.001h-.692a5.1 5.1 0 0 0-2.56.678 5 5 0 0 0-1.016.783 5.03 5.03 0 0 0-1.287 2.233q-.18.656-.18 1.365a5.1 5.1 0 0 0 .688 2.577 5 5 0 0 0 1.8 1.809q.559.328 1.207.505a5.1 5.1 0 0 0 1.435.177h.604l-.003-.002a6 6 0 0 1-.529-.035" clip-rule="evenodd"/><path fill="#fff" fill-rule="evenodd" d="M62.83 12.915h.034l.062-.001-.03-.001zm.104-4.917-.072-.001h-.03l.076.002z" clip-rule="evenodd"/><path fill="#fff" fill-rule="evenodd" d="M65.153 11.116q-.088.315-.246.59a2.43 2.43 0 0 1-1.455 1.124 2.4 2.4 0 0 1-.526.084l-.062.002-.034-.001h-.028a2.6 2.6 0 0 1-.657-.085 2.42 2.42 0 0 1-1.707-1.714 2.5 2.5 0 0 1-.088-.662 2.5 2.5 0 0 1 .712-1.747q.222-.225.493-.38a2.46 2.46 0 0 1 1.244-.33h.063l.072.001-.026.001q.445.018.843.187a2.4 2.4 0 0 1 1.297 1.3q.191.447.192.968 0 .345-.087.662m2.28-2.658a4.97 4.97 0 0 0-2.84-2.745l-.062-.022a5 5 0 0 0-.272-.09q-.048-.015-.097-.028l-.037-.01a5 5 0 0 0-.43-.094l-.015-.002a6 6 0 0 0-.747-.072l-.13-.003-.12.002a5.1 5.1 0 0 0-2.44.676 5 5 0 0 0-1.016.784 5 5 0 0 0-.781 1.018 5.1 5.1 0 0 0-.685 2.58q0 .71.18 1.362.181.652.508 1.215a4.98 4.98 0 0 0 3.217 2.366l.073.015q.07.016.141.028l.086.014q.072.012.145.021l.074.01a5 5 0 0 0 .53.035l.094.002.093-.002a5 5 0 0 0 .573-.041q.088-.012.175-.026l.096-.017a5 5 0 0 0 .401-.091 5 5 0 0 0 2.215-1.292q.456-.46.782-1.022.325-.563.505-1.215t.18-1.361q0-1.072-.396-1.995M37.264 4.593c0 .823-.663 1.491-1.48 1.491-.818 0-1.48-.668-1.48-1.491s.662-1.492 1.48-1.492c.817 0 1.48.668 1.48 1.492m54.029-1.475 5.643 12.484h-1.932l-1.886-4.121h-5.171l-1.868 4.121h-1.946L89.78 3.118zM90.55 5.71l-2.051 4.543h4.087z" clip-rule="evenodd"/><path fill="#fff" fill-rule="evenodd" d="M87.687 10.045h5.888v1.781h-5.888z" clip-rule="evenodd"/><path fill="#fff" d="M113.393 8.598a2.1 2.1 0 0 0-.794-.833 2.3 2.3 0 0 0-1.223-.327 3 3 0 0 0-.647.072q-.309.069-.543.222a1.15 1.15 0 0 0-.363.373 1 1 0 0 0-.13.52c0 .35.134.604.416.788q.48.315 1.566.543 1.658.34 2.474 1.016c.565.47.851 1.107.851 1.892q.001.841-.331 1.435a2.86 2.86 0 0 1-.854.957q-.522.367-1.174.525a5.5 5.5 0 0 1-1.285.153q-1.076 0-2.09-.45a3.94 3.94 0 0 1-1.688-1.431l-.128-.189 1.44-1.075.132.23q.317.55.944.93.622.377 1.371.377.403 0 .767-.074.343-.069.594-.238.244-.164.391-.42.141-.242.142-.632c0-.391-.178-.672-.56-.873q-.66-.346-1.932-.654-.414-.1-.878-.249a3.2 3.2 0 0 1-.909-.463 2.6 2.6 0 0 1-.704-.785q-.285-.49-.284-1.195 0-.761.299-1.315a2.64 2.64 0 0 1 .798-.9 3.5 3.5 0 0 1 1.111-.514q.611-.165 1.261-.165a4.4 4.4 0 0 1 1.942.453q.955.46 1.439 1.307l.104.182-1.396 1.057z"/><path fill="#fff" fill-rule="evenodd" d="M106.346 3.155h-1.766v3.998a4.7 4.7 0 0 0-2.991-1.066c-2.629 0-4.76 2.149-4.76 4.8s2.131 4.799 4.76 4.799a4.72 4.72 0 0 0 2.991-1.066v1.011h1.766v-4.608l.002-.137-.002-.137zm-1.766 7.623v.217c-.058 1.617-1.375 2.91-2.991 2.91-1.653 0-2.993-1.352-2.993-3.019s1.34-3.018 2.993-3.018c1.616 0 2.933 1.293 2.991 2.91" clip-rule="evenodd"/></svg>