<svg xmlns="http://www.w3.org/2000/svg" width="200" height="200" fill="none" viewBox="0 0 176 209"><path fill="#000" d="M75.2 0c-7 .3-21.5 5-27.4 8.6-9 6-12.8 12-13.5 14.3-12.4 1-26 8.8-22.9 49.6.7 5.7 1.4 26.2 2 31.7-6-1.9-11 .1-12.7 6.5-3 10.2 4.3 22.6 12 29 2.4 2 5 3.1 7.8 4.4 4.7 22.2 13.1 41.3 32.8 54a60 60 0 0 0 68.3-1.2 71 71 0 0 0 26-36c2-5.5 2.8-10.1 4.2-15.6 9-3 16.3-7.5 20.5-16.4a23 23 0 0 0 2-16.9 13 13 0 0 0-6.5-7.7c-3-1.4-5.5-1.3-8.8-1 5.9-15.9 13.3-52.4-4-70.6A105 105 0 0 0 75.2 0"/><path fill="#beb5a8" d="M138.7 48.5C140 51.3 141 54 137 59c-34 17.7-81.4-6.3-100.8-20.5-8 6.6-13.3 20-15.3 29.9a143 143 0 0 0-1.8 40.4l1.7 16.4c.2 1.5.7 4.7-2 3.8-.7-.2-.9-1.4-1-2l-2.6-13-1-5.4c-4.2-1.3-8-1.7-9.4 3.5-1.5 5.4.8 11.6 3.4 16.3a29 29 0 0 0 11.7 11.8c-.1-1.9-.9-5.7 0-7 2.1-1 2.4 2.3 2.7 3.6q2.5 13.5 7.6 26.1c1 2.2 2 4.8 3.2 6.8.8-.5 2.8-1.4 3.4-.5 0 1.3-1.2 1.9-2.1 2.6q.8 1.8 2 3.5c.6-1 1.7-2.5 3-2.2 1.3 1.1-.6 3.3-1.5 4.2a19 19 0 0 0 2.6 3.7c.7-1 2.5-3.3 3.9-2.5.8 1.3-1.3 3.6-2 4.7q1.2 1.6 2.7 3c.6-1.1 2.2-4 3.7-2.8 1.2.9-1 3.7-1.6 4.9l3.7 3.2c.3-.8 3-7.4 4.7-4 .3.6-1.8 4.3-2.3 5.6a19 19 0 0 0 3.5 2.3c.4-1.5 1.4-5.4 3.2-5.6 1.6 1-.2 5.5-.7 7 1.6 1 2.7 1.7 4.5 2.3.2-1.1.6-4.7 2.3-4.3 1.3 1.2.5 3.7.3 5.3q1.8.8 3.8 1.4c.1-1.1 0-3.6 1.6-3.6 1.4.9 1 2.9 1 4.2l1.8.5c0-1 0-3.6 1.6-3.3 1.1 1 .9 2.4.9 3.8q2.5.6 4.8.7c-.2-1-.7-3 .1-3.7 1.7-.1 2.3 2.6 2.7 3.9l3.6-.1c-.4-1-1.7-4.3-.2-4.8 1.9.4 2.7 3 3.4 4.5l3.7-.5c-.7-1-2.6-3-1.8-4.2 1.9-1 4.2 2.1 5 3.6l3.4-1c-1-1.8-3.2-4.2-1.7-5.8 1.9-.6 4 3.3 4.7 4.7l4.2-1.5c-1-1.6-3.8-5-3.5-6.5q.7-.9 1.8-.3a13 13 0 0 1 4.3 5.3q1.9-.7 3.6-2l-.7-1.9c-.4-1-3-5-.6-5.3 1.8-.3 3.6 4.4 3.9 5.7l3-2.3q-1.2-2.6-2-5.3c-.4-1-1.2-2.9-.3-3.7 2.6-.9 4 5.2 4.6 7v.2l3-2.7c-1.1-1.2-1.3-2.4-1.9-4-.4-.8-2-2.6-.5-3.3 1.8-.9 3.6 2.9 4 4.2l.4 1.1c14.7-15.2 19.3-36.7 22.3-56.8.1-.8.6-2.3 1.3-2.6 3.2.5.6 12.8.6 15.3 7-2.8 13.1-6.9 16.3-14.3 2.6-6 4-15.8-3.6-19.1-2.2-1-5.2-.6-7.5.4-.4 1.8-2.2 10.9-3.3 11.7a2 2 0 0 1-1.7.2q-.7-.2-1.3-.8c-.4-1.2.4-7.7.4-9.6l.9-24.4c0-4.5-1-8.3-2-12.6a50 50 0 0 0-12-24.1"/><path fill="#000" d="M54 104.2q5-.3 9.2 1.9c3.9 2 6 6-.6 3.8l-3-.7c3.4 7.7-5.8 12.9-11 7.5-1.4-2.3-1.3-3.3-1-5.9-1.6.6-2.7 1-4.2 2-1.8.9-3.5 2.5-5.4 3q-1.2.3-1.4-1 .2-2 1.5-3.4a24 24 0 0 1 16-7.2m56.5 3h3.3a24 24 0 0 1 16.7 6.7c.7.7 1.6 2 1.5 3q0 .6-.4.7c-1.3.2-2.6-.8-3.5-1.6q-3-2.3-6.5-3.4c0 1.8 0 2.5-.6 4.3-1.7 3.3-5.4 4.3-8.8 3.3q-2.5-.8-3.8-3.3c-1-2-.8-3.5-.1-5.4q-2.8.3-5.3 1.1c-.9.3-3.1.8-3.3-.3l.3-.6a16 16 0 0 1 10.5-4.5m-1.3-16.8c7.6-1 19.6 2.8 24.6 8.9 3.2 3.7.6 5-2.8 2.9l-3.5-1.7a58 58 0 0 0-26.8-2.8c-2 .2-2.9-2.5-1.8-3.9.8-.9 3.2-1.6 4.3-2a24 24 0 0 1 6-1.4m-33.8 19.8h.7c2.3 1.6.9 15 .4 17.9-.7 5.2-4.2 11.7 2.2 14.9a15 15 0 0 0 6.5 1.5c1.5.1 3.6-.2 4.8.5.6 1-1.8 2-2.6 2.3l-.8.3c-3.4 1-8 .5-11-1.3a10 10 0 0 1-4.7-6c-1.6-6.3 3.5-18.5 3.5-25.5 0-1 .4-3.7 1-4.6M53.2 89.5c3 0 11 .8 12.3 4.5.5 1.4-.8 2.8-2.3 2.8-1.8 0-3.7-.6-5.5-.8q-7.7-.9-15 .8-2.7.6-5.1 1.7c-.9.3-4 2-4.4 2-1.3-.8.6-3 1.4-3.8 4.3-4.9 12.4-6.9 18.6-7.2m45.6 77h.4c1 0 1.9.3 1.8 1.5-.6 1.3-2.6 1.8-3.8 2.3a35 35 0 0 1-19.7 2l-8.6-2c-1.5-.3-3.2-.1-3.9-1.7.3-3.4 13.2-.8 15.1-.6q2.5.3 5.2.2c4.2-.1 9.2-1.2 13.5-1.7m-21 10 4.6.5c1.7.1 5.4-.9 6.5.5.1 1-1 1.3-1.8 1.6a14 14 0 0 1-8.2 0c-1.7-.4-4.2-1.7-1-2.6m7.4-19.9c1.6-.2 2 .4 3.4 1.4.9.6 2.8 2.2 2.9 3.4q0 .5-.6.9c-2.5 0-8.6-3-5.7-5.7m-11.2.3c2 .4 1.3 1.8.2 2.8a17 17 0 0 1-5.4 3.2q-.9.1-1.2-.6c0-1.8 4.9-4.8 6.4-5.4m53.4 16.5c1.4-.1 2 .1 3.1 1 1.2 1.1 2.8 3.6 1.4 5-.3.1-1.3.2-1.5 0q-1.5-2.4-3.4-4.6c-.5-.4 0-1 .4-1.4m-61.1-15.2q1-.2 1.5.7c0 1.8-3.1 3.4-4.6 4q-.9.1-1.3-.5c-.4-1.5 3.3-3.6 4.4-4.2m31.3.2c1.4.2 4.1 1.5 4.5 3-.2.8-.1.5-.6 1.1-1.5 0-6.1-2-4-4m-4.3-.3c1.4.4 5 2.9 2.9 4.6-1.7-.4-5.2-3-3-4.6m40.7 10.4c2.2-.1 4.2 3 2.7 4.5-2 .2-2.7-1.9-3.3-3.5zm-72.9-10q.8 0 1.2.6c.2 1.6-2.6 3-4 3.5q-1 .1-1-.8c.3-1.2 2.7-2.6 3.8-3.3m15.4 0c.6 0 .7 0 1.2.3.9 1.4-1.8 3.1-2.8 3.7q-1.1.2-1.3-.7c.3-1.2 2-2.5 2.9-3.3m65.2-8c1.6.4 1.7 2.1 1.7 3.6q0 .6-.6.8c-2.3-.1-2.5-3.1-1.1-4.4"/><path fill="#000" d="M102.5 158.6c1 .5 3 2 2.8 3.3-.2.5-.4.5-.8.8-1.5-.6-3.8-2.5-2-4m3.5.7c1.3.1 3.1 1.6 2.1 3.1-1.8.3-3.4-1.4-2.1-3m32.7-2.4c1.3.4 1.8 1.7 1.7 3q-.2.4-.8.7c-1.4-.7-2.5-2.4-.9-3.7m-2.7 5.7c1.6-.1 3 1 2 2.7-1.4 0-3-1.1-2-2.7"/></svg>