<svg xmlns="http://www.w3.org/2000/svg" width="200" height="200" fill="none" viewBox="0 0 181 208"><path fill="#000" d="M149 160c-2.7 4.2-5.3 9-8.6 13.2A83 83 0 0 1 90 205.8a56 56 0 0 1-54.3-18.5 81 81 0 0 1-18.1-34 5 5 0 0 0-3-3.5A25 25 0 0 1 .5 130.2a22 22 0 0 1 2.8-16.3q3.2-4.9 9-6.3l.9-.3c-.8-13.4-2-26.8 2.7-40.3l-3.4 3.5-1.4 1.3c-1.4 1.2-3 .8-3.2-1q-.4-3.4 0-6.7.8-7 5.7-13.2l-7 2.4q-1.2.5-2.2.7c-.5 0-1.4 0-1.7-.4s-.4-1.5-.1-2q2-3.2 4.5-6a79 79 0 0 1 24.8-17.2L17 25.2q-1.7-.1-2-1.8.1-1.7 1.7-2.2a80 80 0 0 1 19.6-5.8c5.3-.9 10.6-1.3 15.9-2h.7q-2.2-3-4.1-6.1a17 17 0 0 1-1.6-3.5q-.8-2.3 1.6-2.6 4-.4 7.9-.1 18.4 2 35.1 9.5l1 .3-3.6-5.3q-1-1.3-1.7-2.8C86.7 1.3 87.5.1 89 0l2 .2a76 76 0 0 1 25.6 12.2q4.8 3.6 9.7 7.6l-2.6-6.5c-.4-1-1.1-2.2 0-3.2 1-1 2.2-.4 3.3.1q12.1 5.5 16.9 18l.3 1a18 18 0 0 1 11.7-1.1q1.7.2 1.8 1.9c0 1-1 1.3-1.8 1.7l-6.8 2.7-.4.3q3.7 1.2 7 2.7 8.5 4.2 12.8 12.8l.6 1.4q.7 1.5-.5 2.4-1 .4-2.3 0c-1.3-.3-2.6-1-4-1.3q3.9 4.5 5.8 10c2.6 6.3 3 13 2.7 19.8q-.6 10.8-3.5 21.5 4.3 1.1 7.2 4.3c5 5.2 6.6 11.5 5.8 18.5a31 31 0 0 1-14 23q-1 .7-.7 1.9c1 7.4-5.5 13.2-12.3 11-1.8-.6-3.2-2-4.5-2.8M71 10.8v1q.3.7.8 1.2l1.4-1q-.6-.7-1.2-1-.5-.2-1-.1L70.8 9l-2.7-.2.6 2.2zM57.4 8.3l-.3-2q-.6-.1-1.4-.5l-1.6 1.3 1.1 1.4zv1q-.5 1.3.6 1.9.9.2 1.8 0c.2-1.7.2-2.9-1.8-2.5q-.3 0-.6-.4m91.8 78 .7 2.9-3.1-1c-.1-2-.1-2-2.8-2.6v-1.2c-.3-.5-.8-1.3-1.1-1.3q-2.3 0-1.7-2.1l-1.1-.6-1.2-.6-.3.6Q137 82.9 140 83q1 0 1 1c.1.7.6 1.7 1 1.9 2 .4 2.2.8 1.4 2.8-2.2-.3-2.2-.3-2.3-2.6-1.2-.6-3.6 0-3-2.6q-1.2-.3-1.7-.7-1-1.9-1.6-3.9l-2.3-7.8L130 63q-.3 4.3-.2 8.5c0 1.1-.1 2.1-1.4 2.4-1 .3-1.7-.4-2.2-1.3a32 32 0 0 1-4.7-19c0-.6.3-1.1-.7-1.3q-4.5-1.2-9-2-16-1.9-31.9 1.3l-9.7 1.7c-.6.1-1.3-.5-2-.8q.4-1 1-1.8.4-.4 1.2-.6 10.2-4.5 21.5-5.3l3-.3-.9-.3-1-.2a89 89 0 0 0-51.3 12c-1 .6-1.9 1.1-2.8.2s-.4-2 .3-2.8l.2-.4q-3 1.5-5.5 3.2A77 77 0 0 0 20 70a83 83 0 0 0-2.4 21.9l1.1 37.3a94 94 0 0 0 6.4 30.8l2.7 6 1.9-2.8q.5-.5 1.3-.3c.3.1.6 1 .5 1q-1.2 1.7-2.9 3.7l1.5 2.8q1.4-2.3 2.9-4.2.6-.4 1.7-.4 0 1-.2 1.8l-3 4.6v.7l1.8 2.8 1.1-2.4 2-3.3c.2-.3 1-.2 1.5-.3q.2.7.1 1.4-1.6 3.3-3.5 6.5 1.3 1.5 2.2 3l3.3-7.3c.3-.7.8-1.4 1.7-.8s.4 1.2 0 2l-2 4.4q-.7 1.6-1.3 3.6l3 3.5 2.9-7.3q.5-.6 1.6-1c0 .7.4 1.3.3 1.9l-1.1 2.5-2 5.4 3.6 3q1.1-4.2 2.4-8 .5-.7 1.6-1c.1.6.5 1.3.3 1.9l-2.1 7.9q-.1.6.3 1l3.7 2.3v-1.8l.9-5.6c0-.4.8-.6 1.2-1q.6 1 .7 1.6l-1.1 7.9 3.9 1.8-.1-2.7.2-3.3c0-.4.7-.8 1-.8s1 .6 1 1v6.7l7.5 2.3c-2-3.2-2.3-6.3-2-9.5 0-.5.8-.9 1.3-1.3.2.5.8 1 .8 1.5q-.3 4.9 2 9.5l3.9.5-.5-1.2q-.9-4-1.6-8.2c0-.5.7-1.6 1.1-1.7 1.1-.1 1 1 1 1.7q-.1 4 1.7 8l.4 1.6h5.1l-1.1-2.7-1.5-5c0-.5.6-1 .9-1.5.3.4.9.7 1 1.1q.7 1.8 1 3.6l2 4.4 8-1.3-2.4-5.9-1.8-4.5c-.1-.4.5-1 .7-1.5q.8.2 1.2.6l3.8 8.3c.3.6 0 1.5 0 2.2 2.2-.7 5-.7 7.3-2.4l-1.2-2.2c1 .2 2.4-.1 2 2.1 4-1.6 7.7-3.2 11-5.8l-.1.1 1.2-.4 9.8-7.2q2.2-1.7 4-3.7l-1.5-1.3-6.5-9.5q-.6-1-.8-2.1.1-.7.9-1.2c.3-.1 1 .2 1.2.6l7.9 12.5a87 87 0 0 0 14.6-19.3q-.8-.1-1.4-.5-3.3-2.8-6.3-5.8c-.3-.2-.4-.9-.2-1.1q.4-.6 1-.5.8.1 1.3.7l6.5 6.2 2.9-7q.6-1.8 2.6-1.5 3.5.2 7 0l.1-.4-1.3-1q-.3-.4-.2-.9.3-.4 1-.5.5 0 1 .4c2.5 1.3 4 5.4 2.8 8a5 5 0 0 1-4.2 2.6q-2.5-.3-3.1-2.7c-.3-1.1-1-.7-1.7-.7-.8 2.6-.3 3.8 2 5.1s6 1 8-.9c2.9-2.6 3-7.8.3-10.8-1.3-1.4-2.7-2.7-4.9-2.4q-.7 0-1-.6c-.1-.3 0-1 .3-1.2q.6-.5 1.6-.5 3.9.2 6.3 3.3l1.7-1.2c8.3-6 12.6-17.5 10.1-27.2-1.2-4.8-3.6-8.6-8.5-10.2-5.3-1.7-10 0-14.2 3.2q-1.1 1.2-2.5 2.1c-.5.4-1.4.2-2.1.3l.2-2 .5-.8-.4.1c-.4-.6-1.4-1.5-1.2-1.9 1-1.8 2-.7 2.9.4l.8-1.2q-1.6-1.3-.3-2.5 1.7-1 2.3 1.2l1.3-1q-.9-1-1.3-2c0-.1.7-.8 1.1-1 1.6-.4 1.5 1 2 2l2.7-1 .1-.5-1.7-.6q-.8-.4-1.1-.9c0-.5.3-1.3.6-1.5q1.4-.5 1.9 1l.7 1.9 4 .2q-1-.7-1.2-1.1c0-.6 0-1.7.3-1.8 2-.4 1.1-2.1 1.6-3l-2.2-1c-.2-.3 0-1.4.3-1.5q1-.3 2.6-.4l-.6-3.2c-2.2.2-2.4 0-2.7-2.4l-2.8-.7c.2-2.6-.5-3.1-3-2.3.1 1-.4 2.6 1.4 2.7q1.6 0 1.4 1.4 0 1.6 1.6 1.4c1.3-.3 1.5.3 1.4 1.3v1.7l-1.5-.3q-1.3 0-1.2-1.3 0-1.7-1.6-1.5-1.5 0-1.3-1.3c.3-1.4-.7-1.7-1.6-1.8l-1.5.6c.1-1 1-2.3-.3-3q-1.3-.2-2.8.1l.8-2.8c1.8-.6 2.3-.4 2.3 1q0 1.6 1.6 1.6c.8 0 1.4-.1 1.5-1.2q0-1.6-1.5-1.7-.7-.2-1.5 0l.2-2.6c-1 0-2-.3-2.6 0-.3.3 0 1.6-.1 2.4v.6l-3.1-.6c-.2-.8 0-2-.6-2.3-.6-.5-1.7-.3-2.8-.4l.5-1.7-.3-.4q-.9-.5-1.8-.5c-.3 0-.7 1-.6 1.4q0 1.4 1.6 1.3.5.2.9 1l.4 1.7h.7q2-.3 1.9 1.7c0 .4.7 1 1.2 1.3zm11.5-8.6-2.6-.2c-.6 2.4-.4 2.6 1.8 3q.5.3.8 1v1.7c-1.3-.1-3 .3-2.6-2q-.2-.4-.8-.7l-2.2-.2.4 3.4q2.7-1.3 2.5 1.3c0 .3.7 1 1 1 1.8-.2 2 .8 2 2.1l.5 1.2c2-1 2.4.5 2.7 2.1 2-2.5-1-3.6-.7-5.5-1.2 0-2.4.3-2.5-1.4q0-1.3 1.3-1.3c1.9-.2 1.2 1.4 1.5 2.3l1.6.4V83l-.3.3q-1-.8-1.3-1.7c-.3-1.3.8-1.3 1.8-1.3v-2.9c-1.8 0-2 0-2-2.2-2.6-1.1-3.1-.7-2.9 2.1zM15.7 146c-2.2-11.5-2-22.8-2-34.3l-.9.1-1 .4a12 12 0 0 0-6.7 8.5c-1.7 6.3 0 12.1 3 17.7q2.6 4.6 7.7 7.6M65.3 13h3.1c0-2.1-1.5-2-3-2V9l-2.6-.4.1-1.6-2.8-.4q-.2 2.3 1.8 2.3c.3 0 .7.7.9 1l.1 1.2 2.4.4zm100.3 61.8v-2.2q-1.7-.7-1.9-1.2c.2-1.4-1-1.5-1.7-2-1.5 1.3-1.6 1.5-.4 3l1-.3 1-.1c.4 3 .4 3 2 2.8M37.8 36l.4-.1c-.5-1.1-1-2.3.4-3.1q.2-.4 0-1.3l-3 1.4q-.4.4-.5 1 .1.5.8.8.6.2 1.3.1zm113.9 42.8q1.1 1.5 1.8 1.8c.9 0 2-.3 1.7-1.5-.1-.6-.9-1.2-1.5-1.4-.4-.1-1 .6-2 1.1m-5-.6c-.4 1.7.5 2.3 1.4 2.3.5 0 1.3-1 1.5-1.6.1-1-.8-1.2-1.7-1.2zM32.4 34.6c-.5 2.3-.4 2.6.5 2.5.7 0 1.8-.4 2-1q.6-1.5-2.5-1.5M161 73c-1-.7-1.9-1.7-2.8-.3q-.8 1.3.5 2.2 1.4.6 2.3-1.9m-3 2.8c-.4-.2-1-.8-1.7-.9-.3 0-1 .8-1 1.3-.1.7-.1 1.6 1 1.5 1 0 1.8-.2 1.7-1.9m-6.5 2 1-1.6c-.6-.3-1.1-.9-1.7-1-.3 0-1 .6-1.1 1-.1.7.1 1.5 1.8 1.5m2-2.6h.5c.4-.5 1.1-1.1 1-1.7 0-.5-.8-1-1.3-1.5q-.8.8-1.1 1.5c0 .6.6 1.2.9 1.7m-2.3-2.6q.8-1 1-2c0-.2-.7-1-.9-1q-1 .4-2.2 1.2zm7-1.6-.4-.6c-.9 0-2-1.3-2.5.3-.2.3.6 1 .9 1.6zM26.6 37v.5l3.9.5-1.3-1-.3-1.7zm33.5-25.5-.1 1.9 2.5-.5c-.5-2-.6-2-2.4-1.4M43 35.3c-.4-2.1-1.7-.9-2.6-1.2l-.4 1.8zm96.4 42.1.3.2q.8-.9 1.1-1.9c0-.3-.7-.8-1.1-1.3l-.4.2zM23.2 39.2l.2.5 3-.6-.8-1.6zm134.2 115-2.8.4c1 1.5 1.6 1.4 2.8-.4m4.6-87 1.4-1.8-.5-.5-1.3 1.8z"/><path fill="#000" d="m52.5 4 4-.5c6.7 1.3 20.2 4 21 4 1 0 2.5 5 2 7s-7 3.5-8 3.5-13-2.5-15-5-4-3.5-4-6zM27 33.5c3.2-2 8.7-3.8 11-4.5l6 .5c1 1.3 3.1 4.2 3.5 5 .5 1-3.5 5-5 6s-19 4-22 3-2-1-2.5-4 5-3.5 9-6"/><path fill="#beb5a8" d="m99.2 194.8 1.2 2.1c-2.2 1.8-5 1.8-7.2 2.4v-2.2l-3.9-8.2q-.3-.5-1.2-.7c-.2.5-.8 1.1-.6 1.6q.6 2.3 1.7 4.4l2.4 5.9-8 1.4-1.9-4.4-1-3.6q-.4-.7-1-1.2-.8.8-1 1.5l1.5 5 1.1 2.7h-5l-.5-1.6a18 18 0 0 1-1.7-8c0-.7.1-1.8-1-1.6-.4 0-1.2 1.2-1 1.7q.6 4 1.6 8.2 0 .4.4 1.1l-4-.5q-2-4.5-1.9-9.5-.2-.7-.8-1.5c-.4.4-1.2.8-1.3 1.3-.3 3.2 0 6.3 2 9.5l-7.5-2.3v-6.7c0-.4-.6-1-.9-1s-1 .5-1 .8q-.4 1.6-.3 3.3l.1 2.7-3.9-1.8 1.2-7.8-.7-1.6c-.5.3-1.2.6-1.3 1l-.9 5.6v1.8l-3.7-2.4q-.3-.3-.3-1l2.2-7.9q0-1-.4-2c-.5.4-1.4.7-1.5 1.1q-1.4 4-2.5 8l-3.5-3 2-5.4 1-2.5q0-.8-.3-1.8c-.5.3-1.4.5-1.6 1q-1.4 3.3-2.8 7.2l-3.1-3.5 1.3-3.6 2-4.4c.4-.7.9-1.4 0-2-.8-.5-1.4.1-1.7.8l-3.2 7.3-2.2-3L38 171l-.2-1.4q-.9 0-1.5.3l-2 3.3-1 2.5-1.8-2.9q-.2-.3 0-.7l2.9-4.6q.3-.8.3-1.8c-.6.1-1.5 0-1.8.4l-2.8 4.2-1.6-2.8 3-3.6c0-.2-.3-1-.6-1q-.7-.3-1.3.2-1 1.2-1.9 2.8l-2.6-6q-5.8-14.9-6.5-30.8l-1-37.3A83 83 0 0 1 20.5 69q5.8-7.2 13.3-12.9 2.5-1.8 5.5-3.2 0 .3-.2.4c-.7.9-1.1 1.9-.2 2.8.8 1 1.8.4 2.7 0A88 88 0 0 1 92.9 44l1 .1.9.3-3 .3A63 63 0 0 0 70.4 50q-.8.2-1.2.6l-1 1.9c.7.3 1.4.9 2 .8l9.8-1.8q15.7-3.1 31.7-1.3c3.1.4 6 1.4 9.1 2 1 .2.8.8.8 1.4q-.6 10.2 4.7 19c.5.8 1 1.6 2.2 1.3s1.3-1.3 1.3-2.4q0-4.3.3-8.6l2.6 8.3 2.2 7.7q.6 2.1 1.7 3.9.5.5 1.7.7c-.7 2.6 1.7 2 2.9 2.7 0 2.3 0 2.3 2.4 2.5l.4 1.6c.1.3.2.9.4 1 .6 0 1.4.2 1.8-.2.3-.2.3-1.2.2-1.7-.2-.3-1-.5-1.4-.6l-1.4-.1c.7-2 .5-2.3-1.4-2.8-.5-.2-1-1.2-1-1.8q-.1-1-1.1-1.1-2.7-.1-1.4-2.6l.3-.6 1.2.7 1.2.5q-.7 2 1.6 2c.4 0 .8.9 1 1.4v1.2c2.8.6 2.8.6 2.9 2.6l3.2 1c-.1.8-.9 2.3.4 2.3 2.3-.2 2.3 1.1 2.3 2.7v.1l3 .6-.1.6q-.7 2 1.6 1.9c.4 0 1.1.7 1.3 1.3.4 1.6.8 1.9 2.6 1.6-.1-1.3.3-3-2-2.8-.3 0-.8-.7-1-1.2-.6-1.9-.5-1.9-2.5-1.4l-.3-1.8c-.1-1-.3-1.7-1.6-1.4q-.7-.2-1.2-.9-.2-.8-.1-1.7h-.1q.8-.5 1.5-.5c.9 0 1.9.3 1.6 1.7q-.2 1.5 1.3 1.3 1.7-.2 1.6 1.5 0 1.4 1.2 1.4l1.5.2V93c0-1-.1-1.6-1.4-1.3q-1.6.3-1.6-1.4c0-1-.2-1.4-1.4-1.4-1.8 0-1.2-1.6-1.5-2.7 2.6-.8 3.3-.3 3.1 2.4l2.8.6c.3 2.4.5 2.6 2.7 2.4l.6 3.3q-1.5 0-2.6.3c-.3.1-.5 1.3-.3 1.5l2.2 1c-.5.9.4 2.6-1.6 3-.3.1-.4 1.2-.3 1.8q.2.5 1.1 1.2l-3.9-.3-.7-2q-.5-1.3-1.9-.9-.5.5-.6 1.6c0 .3.7.6 1.1.8l1.7.7v.4l-2.8 1c-.5-.9-.4-2.4-2-1.9-.4.2-1.2.8-1 1q.2 1 1.2 2l-1.3 1q-.6-2.3-2.3-1.3-1.4 1.2.3 2.6l-.8 1.2c-.9-1.2-1.9-2.3-2.9-.4-.2.3.8 1.2 1.2 1.9l.4-.1q-.4.4-.5.8l-.2 1.9q1.2.1 2.1-.2 1.4-1 2.5-2.1c4.2-3.3 8.9-5 14.2-3.3 5 1.6 7.3 5.5 8.5 10.2a27 27 0 0 1-10.1 27.2l-1.7 1.2a8 8 0 0 0-6.3-3.2 3 3 0 0 0-1.6.5q-.5.5-.3 1.1t1 .7c2.2-.3 3.6.9 4.9 2.3a8 8 0 0 1-.3 10.9 7 7 0 0 1-8 .8c-2.3-1.3-2.8-2.4-2-5 .6 0 1.4-.5 1.7.7a3 3 0 0 0 3 2.6c1.8.1 3.6-1 4.3-2.6 1.1-2.5-.3-6.7-2.7-8q-.6-.4-1.1-.3-.7 0-1 .5c-.1.1 0 .7.2.9l1.3 1v.4h-7.1q-2-.3-2.6 1.5l-3 6.9-6.4-6.1q-.5-.5-1.2-.8-.8 0-1.1.5c-.2.3 0 1 .2 1.2q3 3 6.3 5.7.6.4 1.4.6-6 10.6-14.6 19.2l-7.9-12.5c-.2-.3-1-.7-1.2-.5-.4.1-.9.8-.9 1.1q.1 1.2.8 2.1l6.5 9.5q.5.7 1.5 1.3-1.8 2-4 3.8l-9.8 7.1-1.2.4q-.2-1.2-.8-2.3-3.1-4-6.5-8c-.2-.3-1-.2-1.5-.3q-.2.8-.1 1.6l1.1 1.5q2.7 3 4.9 6.2 1 2 3 1.3c-3.3 2.6-7 4.2-11 5.8.4-2.3-1-2-2-2l-.1-.7-3.7-5.9q-.5-.3-1.4-.5c0 .6-.4 1.2-.2 1.6q1.2 1.7 2.7 3.2 1.3 1.3 2.7 2.3M138.6 97l2.1.2q.6-2.7-.6-2.8c-.5 0-1.4.1-1.5.4zl-1-.4q-.7.2-.9.6 0 .7.6 1c.2.2.8 0 1-.3q.2-.3.3-1m-39 15.5L99 114a11 11 0 0 0-.4 9.2c1.5 3.5 4.6 4.7 7.7 3q3-2 3.1-5.4v-5.2l3.6 2.7c.4.3 1.3.6 1.5.4q.5-.8.5-1.6-.5-1.4-1.5-2.2-2.2-2-4.8-3.5c-7.3-3.5-14.5-4-21.5.6q-3.4 2.2-5 5.8-.1 1 .2 2.2l1.9-.8.2-.3q4.3-5.3 11-6.1 1.9-.2 4.2-.2m-45.7 5 1.8 2c.4.3 1.2.5 1.4.3.3-.3.6-1.2.4-1.5q-.8-1.8-2.2-3.2a18 18 0 0 0-20.3-4.3q-5.6 2.1-8.2 7.7c-.2.5.2 1.3.3 2 .6-.2 1.5-.3 1.8-.8q4.1-5.1 10.6-6.2h4.6c-1.5 3.8-1.9 5.6-1.6 8 .3 3 2.5 5.7 5 5.9 2.9.2 5.3-1.8 6-5.2zM119.3 99q-.4-.6-1.3-1.2c-8.1-5-17-6.4-26.2-5a22 22 0 0 0-12.6 5.8c-.6.6-1.2 1.3-.4 2 .3.4 1.4.3 1.9 0a28 28 0 0 1 12.5-4.3c8.4-.9 16.5.2 24 4.2 1 .6 2.1 0 2.1-1.5m-50.2 76c6 0 12.2-2 17.6-6q4.2-3.1 8-7 .3-.6.2-1.9-1 0-2 .3-.5.3-1 .9a38 38 0 0 1-16.6 9.5 23 23 0 0 1-17.9-1.7c-.7-.4-1.5-1-2.2 0s0 1.6.8 2.2q5.5 3.9 13 3.6m-13.4-35.4a9 9 0 0 0 2.6 5.5q2.7 2.8 6.6 3.3 1.6.2 2-1.3 0-1.5-1.5-1.7l-.3-.1q-7-2.2-4.7-9.1 1.2-3.3 2.2-6.7l3.5-12.8c.1-.6-.4-1.4-.6-2q-1 .3-1.5 1l-7 18.8zM42 94.7q-8.9 0-15.4 3.6-2.4 1.4-4.4 3.2c-.3.3-.1 1.2-.2 1.8q1 .1 1.8-.1a32 32 0 0 1 28.5-2.7l3.4 1.6c.5.2 1.4 0 1.8-.3.3-.3 0-1.2-.2-1.7q-.6-.9-1.5-1.3A24 24 0 0 0 42 94.7m80.6 86.8q-.1-.6-.5-1.1l-2.6-2.6q-2.3-3.1-4.4-6.4-.6-.7-1.3-.7c-.3 0-.6.7-.8 1.2l.4 1 7.6 9.7q1.6.8 1.6-1.1m-16.6 12-.7-1.3-3.5-5-3-3.9q-.8-.3-1.8-.4l-.1 1.8q.2.6.6 1l6 7.5q.3.7 1 .8.7-.1 1.5-.5m8.8-9.3q0 .6.3.9.6.7 1.4 1c.2.1.8-.3.8-.4l-.8-1.6q-.2-.3-.6-.4-2-1.2-3.8-2.8-1.8-2.2-3.5-4.6-.7-.4-1.7-.6c0 .6-.3 1.3 0 1.8q1.2 2.3 3 4c1.4 1.2 2.5 3.2 5 2.7m18.5-12.4q.5-.8.6-1.5-.1-.5-.7-1l-7-7.8c-.2-.3-1-.5-1.3-.4-.3.2-.5 1-.5 1.4q.1.6.7 1.1l6.7 7.3zm-1.8-11.1 1 .6 3.4 3.6c.7.7 1.3 2 2.3 1s-.2-1.8-1-2.5q-1.5-1.5-3.5-3-1.8-1.2-3.8-2.1c-.5-.3-1.1 0-1.7.1q.1.8.4 1.4c.8.8 1.5 1.7 2.9.9m-73.2.5q.6-.4 1.4-1.4l2.7-4.3q.2-.7.2-1.6c-.5 0-1.4-.2-1.6 0l-4 5.6c-.6.8 0 1.7 1.3 1.7m27.5-3.4q.8-.5 1.2-1.1c.1-.3-.3-1-.7-1.2l-3.7-3.4q-.9-1.1-1.9-.4-1 1 .1 2l4 3.6zm-6.5-.4q0-.3-.3-.7-2-2.2-4.2-4.2c-.2-.3-1-.3-1.3-.1s-.5 1-.3 1.2q2.1 2.6 4.5 5c.7.5 1.7-.2 1.6-1.2m59-10.8q-.7.4-1 .8 0 .6.2 1 2.2 2.1 4.7 4.1c.3.3 1.1 0 1.7-.1q0-1-.4-1.6-1.8-1.8-4-3.4zm-82.5 10.2c-.3-.3-.5-1-.8-1q-.8 0-1.4.5-1.4 1.7-2.6 3.6c-.4.7-.9 1.5.1 1.9.5.2 1.4-.3 1.8-.7q1.4-1.5 2.5-3.4zm39-1.1q0-.5-.2-.6l-4.2-3.7c-.2-.1-1.1.3-1.4.7-.2.2 0 1 .3 1.4l3.5 2.9c.3.2 1 .3 1.2.2q.6-.3.8-.9m-50 7q.3.6.8 1c.3.2 1 0 1.1-.3l2.7-4.2.2-1.4h-1.4q-2.7 1.5-3.4 4.9m56.8-6.1-.1-.7-3.9-3.4c-.1-.2-1 .1-1 .4-.2.3-.2 1 0 1.2q1.5 1.7 3.1 3 .6.4 1.2.2t.7-.7M141 91.3c-.5-1 .6-2.7-1.4-2.7-1.3 0-1.5-.6-1.6-1.6q0-.8-.3-1.1-.7-.5-1.5-.3c-.2 0-.6.6-.6.8q.3 1 1 1.6c1 .5 1.9 1 1.6 2.4q.2.5.9.9zm-72 63.9 2 4.1c.2.3 1.2 0 1.8.1l-.2-1.5-1.6-3.2-1-.8zm74.9-10.7q-2-1.6-4.2-3c-.7-.4-1.4.7-.8 1.2l3.2 3c.6.5 1.6-.1 1.8-1.2M63.7 159l1.2 1.5q.9-.6 1.2-1.1.4-1.5.5-3.1c0-.4-.3-1-.5-1s-1 .2-1 .5q-.8 1.4-1.4 3.2m23.6 37.6q-.6-1.4-1.3-2.3-.4-.5-1.1-.7c-.2.5-.7 1-.6 1.4q.4 1.2 1.1 2.3.5.3 1 .2.5-.3.9-.9m67.9-96.4c.3-2.8 0-3.2-2.6-2.5-.2 2.4 0 2.6 2.6 2.5m-8.3-7.2q-.5 1.4 1 1.3c.8 0 1.8.4 1.7-1-.1-1-.3-1.7-1.5-1.7q-1.6 0-1.2 1.4m2.4 7.2.5-.5c-.3-.7-.4-1.7-.9-2.2-.3-.3-1.5-.2-1.9 0-.3.4-.3 1.7 0 2q1 .5 2.3.7m-5-.2-.5.6q.2 1.2.8 2.2c.1.3 1.3.2 1.7-.1s.4-1.5.1-1.8q-.9-.6-2-.9m-.7-5.7c-.2-1.2.8-2.5-1-2.7q-1.5-.3-1.6 1.4c0 1.8 1.4 1.1 2.6 1.3m8.9 8.8c-.4-1.2.3-2.8-1.6-2.8q-1.3 0-1.2 1.5c.3 1.9 1.7 1 2.8 1.3m-8.8-4.4q.3-1.5-1.3-1.4-1.4 0-1.4 1.2 0 1.4 1.4 1.6 1.4.1 1.3-1.4m.3-2.3c.3.1.8.7 1.4.7q1.4.1 1.2-1.4 0-1.3-1.2-1.2c-1 0-1.6.3-1.4 1.9m8.1.9.4-.4q-.2-1.2-.8-2.2c-.2-.2-1.4 0-1.7.3-.3.4-.3 1.6 0 1.7q.9.5 2.1.6m-2.7 8.4.4-.5q-.3-1.2-1-2c-.3-.3-1.3-.2-1.7.2-.3.2-.3 1.4 0 1.6q1 .5 2.3.7m-8.6-.8q1.3 1.1 2 1.3 1.4.2 1.2-1.2-.4-1-1.3-1.5c-.4-.1-1 .7-1.9 1.4m6.4 2.2q-.9-1.2-1.6-1.4c-.9-.2-1.5.5-1.3 1.3q.3.8 1.4 1.3c.2.1.8-.6 1.5-1.2M26.5 160.8l1.3 1.6q.8-.8 1.1-1.7c0-.4-.7-.9-1-1.3zm110.3-70q-1 1.4-1.1 1.9c0 .5.7 1 1.2 1.2.2.1 1.1-.7 1.1-1q-.1-.8-1.2-2m-74 102.9-.7.3.7 1.7c.3-.3.9-.7.8-.8q-.2-.7-.9-1.2M15.8 146q-5-3-7.7-7.7a23 23 0 0 1-3-17.7 12 12 0 0 1 7.7-8.8l.8-.1c0 11.4-.1 22.8 2.2 34.2"/><path fill="#beb5a8" d="M160.7 77.8v-.3c-.2-2.9.3-3.3 3-2.2 0 2.2 0 2.2 2 2.2v2.9c-1 0-2.2 0-2 1.4.2.6 1 1 1.4 1.6l.3-.3V86l-1.5-.4c-.4-.9.3-2.5-1.6-2.3q-1.2 0-1.2 1.4c0 1.6 1.2 1.4 2.4 1.4-.3 1.8 2.7 3 .7 5.4-.3-1.6-.7-3-2.7-2l-.4-1.2c0-1.4-.2-2.4-2-2.1-.3 0-1-.7-1-1 0-2-.8-2.2-2.6-1.4l-.3-3.4q1.3 0 2.1.3c.3 0 .9.5.8.7-.3 2.2 1.3 1.8 2.7 2v-1.9q-.3-.6-.8-.8c-2.3-.5-2.4-.7-1.9-3q1.4 0 2.6.2-.1.8.1 1.5.7.8 1.6 1.2c.3.2 1.1 0 1.2-.3.5-1.1-.5-2.4-1.7-2.4zM150 83.5l-.8 2.8q-.7 0-1.3-.2c-.5-.4-1.3-1-1.2-1.3 0-1.6-.7-1.8-2-1.7h-.6l-.4-1.7q-.3-.8-1-1-1.4 0-1.5-1.3c-.1-.5.3-1.4.6-1.5l1.8.6.3.3-.5 1.8q1.6-.2 2.8.4c.5.3.4 1.5.6 2.2z"/><path fill="#beb5a8" d="m150 83.6-.1-.6c0-.8-.3-2 .1-2.3.6-.4 1.6-.1 2.6-.1l-.2 2.5h1.5c.9.3 1.6.6 1.5 1.8 0 1.1-.7 1.2-1.5 1.2q-1.6 0-1.6-1.5c0-1.5-.5-1.7-2.4-1m15.6-8.9c-1.6.2-1.6.2-2-2.8l-1 .1-1 .4c-1.2-1.6-1.1-1.8.4-3 .8.4 1.8.5 1.7 2 0 .2 1 .6 1.8 1.2zM150 89.2l-.8-3v.1c1 0 2-.4 2.8 0 1.2.6.4 1.9.3 2.9zm1.7-10.4c1-.5 1.6-1.2 2-1 .6 0 1.4.7 1.5 1.3.3 1.2-.8 1.6-1.6 1.5-.6 0-1-.9-2-1.8m-5-.6q.5-.3 1.3-.4c.8-.1 1.8 0 1.6 1.1 0 .6-1 1.6-1.5 1.6-.8 0-1.7-.6-1.4-2.3M161 73q-1 2.5-2.3 1.9-1.3-.9-.5-2.2c.9-1.4 1.8-.4 2.8.3m-3 2.8c0 1.7-.7 1.9-1.6 2-1.2 0-1.2-.9-1.1-1.6 0-.5.7-1.3 1-1.3.6.1 1.3.7 1.7.9m-6.5 1.9c-1.7 0-2-.8-1.9-1.6 0-.3.9-.9 1.2-.8q.9.2 1.6 1zm2-2.5c-.3-.5-1-1.1-1-1.7.1-.5.8-1 1.2-1.5.5.6 1.3 1 1.4 1.5s-.7 1.2-1 1.8zm-2.3-2.6-2-1.8q1.1-.9 2.1-1.1c.3 0 1 .7 1 1zm6.9-1.6-2 1.3c-.2-.6-1-1.3-.8-1.6.6-1.6 1.6-.4 2.5-.3zm-18.7 6.4v-2.8l.3-.2c.4.5 1.2 1 1.2 1.3q-.3 1-1.1 1.9zm18 76.8c-1.2 1.9-1.7 2-2.8.4zm4.6-87-.4-.5 1.3-1.8.5.6z"/><path fill="#000" d="M99.7 112.6q-2.4 0-4.2.2-6.8 1-11.1 6.2l-.2.2-1.9.8c0-.7-.4-1.6-.1-2.1a13 13 0 0 1 5-5.9c7-4.5 14.2-4.1 21.4-.6q2.6 1.5 4.8 3.5 1 .9 1.5 2.2c.2.4-.1 1.3-.5 1.6-.2.2-1.1 0-1.5-.3l-3.5-2.8v5.2q-.2 3.5-3.2 5.3c-3 1.8-6.2.6-7.6-2.8a11 11 0 0 1 1.1-10.7m.6 4.2q1 1.6 2 2c1 .2 1.5-.8 1.4-1.6 0-.6-.7-1.5-1.3-1.7-.4-.1-1.1.7-2.1 1.3m-46.4.8-.4 4.7c-.7 3.4-3.1 5.4-6 5.2-2.5-.2-4.7-2.8-5-6-.3-2.3 0-4.1 1.6-7.9q-2.5-.2-4.6 0-6.5 1-10.7 6.2c-.3.5-1.2.6-1.8.8 0-.7-.4-1.5-.2-2q2.5-5.7 8.2-7.7a18 18 0 0 1 20.3 4.3q1.4 1.4 2.2 3.2c.2.3 0 1.2-.4 1.5-.2.2-1 0-1.4-.3zm-9.1.4c1 .8 1.8 1.6 2.2 1.5q1.1-.5 1.3-1.7c0-.5-.9-1.4-1.4-1.4q-.7.2-2.1 1.6m74.5-18.9c0 1.5-1 2-2.1 1.5-7.5-4-15.6-5-24-4.2a28 28 0 0 0-12.5 4.3c-.5.3-1.5.3-1.9 0-.8-.6-.2-1.4.4-2a23 23 0 0 1 12.6-5.8q14-2.3 26.2 5c.6.3 1 1 1.3 1.2M69 175c-5.2 0-9.3-.9-13-3.6-.8-.6-1.5-1.2-.8-2.2s1.5-.4 2.2 0a23 23 0 0 0 17.9 1.7q9.5-2.7 16.6-9.5.4-.6 1-.9l2-.3q.2 1.2-.3 2-3.8 3.7-8 7c-5.3 4-11.5 6-17.5 5.8m-13.4-35.4q.5-2.4 1.4-5l7-18.8c.1-.5 1-.7 1.4-1 .2.6.7 1.4.6 2q-1.5 6.5-3.5 12.8-1 3.4-2.2 6.7c-1.6 4.5.1 7.8 4.7 9l.3.2q1.7.2 1.5 1.7-.4 1.5-2 1.3-4-.5-6.5-3.3a9 9 0 0 1-2.7-5.6M42 94.7c4.4 0 9.5 1 14 4l1.4 1.3c.3.5.5 1.5.2 1.8a2 2 0 0 1-1.8.3l-3.4-1.7a32 32 0 0 0-28.5 2.7q-.8.3-1.8.2c0-.6-.1-1.5.2-1.8q2-1.9 4.4-3.2 6.6-3.6 15.4-3.6m80.6 86.8q-.1 1.9-1.6 1.1-.3 0-.5-.3l-7.1-9.5q-.4-.5-.4-1 .3-.8.8-1.1.7 0 1.3.7l4.4 6.4q1.2 1.4 2.6 2.6l.5 1M106 193.5q-.8.5-1.4.5-.6-.1-1-.7l-6-7.6q-.4-.4-.6-1l.1-1.7q1 0 1.8.4l3 3.8 3.6 5zm9-9.3c-2.6.5-3.6-1.5-5-2.7q-1.8-1.7-3-4c-.3-.5 0-1.2 0-1.8q1 .1 1.7.6 1.7 2.4 3.5 4.6 1.7 1.5 3.8 2.8l.6.4.8 1.6s-.6.5-.8.5l-1.4-1.1zm-2.8 6.8q-2 .9-3-1.2-2.2-3.2-4.9-6.2c-.3-.5-1-1-1.1-1.6q-.2-.7.1-1.5c.5 0 1.3 0 1.5.3l6.5 8q.5 1 .8 2.3m21.3-19.3-1.5-.9-6.7-7.2q-.6-.6-.7-1.2 0-.8.5-1.3c.3-.2 1.1 0 1.4.3l7 7.9q.4.4.6 1zm-1.8-11.1c-1.4.9-2.2-.1-3-.9l-.3-1.4c.6 0 1.2-.3 1.6-.1q2 .9 4 2.2 1.8 1.4 3.4 3c.8.7 2 1.6 1 2.5-1 1-1.7-.4-2.3-1l-3.5-3.7q-.3-.4-1-.6m-73.1.5c-1.3 0-2-1-1.4-1.7q2-2.9 4.1-5.5c.2-.3 1 0 1.6 0l-.2 1.5-2.7 4.3zm27.5-3.4q-.8-.2-1-.5l-4-3.7q-1.1-1-.1-2 1-.7 1.9.5l3.7 3.3c.3.3.8 1 .7 1.2q-.5.7-1.2 1.2m-6.5-.4c0 1-1 1.7-1.6 1.1q-2.3-2.3-4.5-4.9c-.2-.1 0-1 .3-1.2s1.1-.2 1.3 0l4.2 4.3q.3.3.3.7m58.9-10.8 1.4.8 4 3.4q.3.6.3 1.6c-.6 0-1.4.4-1.7.1l-4.7-4q-.3-.6-.2-1.1.3-.4 1-.8m-82.5 10.2-.5.9q-1 1.7-2.4 3.4c-.4.4-1.3.8-1.8.7-1-.4-.5-1.2-.1-1.9q1.1-1.8 2.6-3.7c.2-.3 1-.4 1.4-.4s.5.7.8 1m39.1-1.1-.8.9q-.8 0-1.2-.2-1.9-1.4-3.5-3c-.3-.2-.6-1-.4-1.3.3-.4 1.2-.8 1.4-.7l4.3 3.7zm-50.1 7c.6-2.2 1.5-4 3.5-4.9h1.3l-.1 1.4-2.7 4.2c-.3.2-1 .5-1.2.3q-.6-.4-.8-1m105-73.5h2.4q0 1 .2 1.7c.2.4.8 1 1.1.9 1.4-.3 1.5.4 1.6 1.4q0 .9.4 1.8l-2.9-.6v-.1c0-1.6 0-2.9-2.4-2.8-1.2 0-.5-1.5-.4-2.3m-48.2 67.4q-.1.4-.6.7-.7.2-1.2-.1l-3-3q-.5-.7-.2-1.3c0-.3.9-.6 1-.4q2 1.5 4 3.4zM141 91.3h-2q-.6-.3-.8-1c.3-1.4-.6-1.7-1.6-2.3q-.7-.6-1-1.5c0-.3.4-.9.6-1q.8 0 1.5.4.4.4.4 1.2c0 1 .2 1.6 1.5 1.6 2 0 1 1.5 1.4 2.6"/><path fill="#000" d="M155.6 95c2-.6 2-.6 2.5 1.4.2.4.7 1 1 1 2.3 0 1.8 1.6 2 3-1.9.2-2.2-.1-2.7-1.7-.1-.5-.9-1.3-1.3-1.3q-2.3.2-1.5-1.9zm-56.4 99.8q-1.6-1-2.7-2.2c-1-1-2-2-2.7-3.2q-.1-.6.2-1.6 1 .2 1.4.5l3.7 6zM69 155.2l1-1.3 1 .8q1 1.5 1.6 3.1.3.7.2 1.6c-.6 0-1.6.2-1.8-.1zm74.9-10.7c-.2 1-1.2 1.7-1.8 1.2q-1.8-1.3-3.3-3c-.5-.5.2-1.6.9-1.2q2.2 1.3 4.2 3M63.7 159l1.3-3.2q.4-.5 1.1-.5c.2 0 .5.6.5 1q0 1.5-.5 3c0 .5-.7.8-1.2 1.2zm23.6 37.6-.8 1c-.3 0-.9 0-1-.2q-.8-1.1-1.2-2.4l.6-1.3q.8.2 1.2.6z"/><path fill="#000" d="M155.2 100.2c-2.6 0-2.8-.1-2.6-2.5 2.5-.7 3-.3 2.6 2.5M147 93q-.5-1.5 1-1.4c1.3 0 1.5.7 1.6 1.7 0 1.4-1 1-1.7 1q-1.5.1-1-1.3m2.4 7.2q-1.3-.2-2.3-.8c-.3-.2-.3-1.5 0-1.8.4-.3 1.6-.4 2 0s.5 1.4.8 2.1zm-5-.2q1.2.3 2 1c.4.2.3 1.3 0 1.6-.4.4-1.6.5-1.8.2q-.5-1-.8-2.3.5-.2.6-.5m-.8-11.4 1.4.2q1 0 1.4.6c.2.5.1 1.4-.2 1.7q-.7.4-1.8 0-.3-.2-.4-.9zm.1 5.7c-1.2-.2-2.5.5-2.6-1.3q0-1.7 1.6-1.4c1.8.2.8 1.6 1 2.7m8.9 8.7c-1.1-.2-2.6.7-2.7-1.2q-.3-1.6 1.1-1.5c2 0 1.2 1.5 1.6 2.8m-8.8-4.4q.1 1.4-1.3 1.4-1.4-.1-1.3-1.6 0-1.4 1.3-1.2 1.6 0 1.3 1.4"/><path fill="#000" d="M144 96.4c-.2-1.6.5-2 1.4-2q1.3 0 1.2 1.3 0 1.6-1.2 1.4c-.6 0-1.1-.6-1.4-.7m8.1.9q-1.2-.2-2.2-.6c-.2-.1-.2-1.3.1-1.7s1.5-.5 1.7-.3q.6 1 .8 2.2zm-2.7 8.4q-1.3-.2-2.4-.7c-.2-.1-.2-1.4.1-1.6.4-.4 1.4-.5 1.7-.3q.7 1 1 2 0 .4-.4.6m-10.8-8.6v-2.2c.1-.3 1-.4 1.5-.4q1.2.1.7 2.8zm2.2 7.9c1-.8 1.6-1.6 2-1.5.5.2 1 1 1.2 1.5q.2 1.3-1.3 1.2-.7-.2-1.9-1.3m6.4 2.1q-1.1 1.2-1.5 1.4-1-.5-1.4-1.4-.2-1.4 1.3-1.3.7.3 1.6 1.4M26.5 160.8l1.4-1.4c.3.4 1 1 1 1.3 0 .6-.7 1.1-1 1.7zm110.3-69.9q1 1.2 1.2 2c0 .3-.9 1.1-1.1 1q-.9-.4-1.2-1.2.1-.6 1.1-1.8m1.8 6.1q0 .6-.3 1c-.2.3-.8.5-1 .4l-.6-1c0-.3.6-.7.9-.7l1 .4m-75.9 96.6q.6.5 1 1.2l-.9.8-.7-1.7zm98-116h1.2c1.2 0 2.2 1.4 1.7 2.5 0 .2-.9.5-1.2.3q-1-.4-1.6-1.2zm-60.4 39.1c1-.6 1.7-1.4 2.1-1.3.6.2 1.3 1.1 1.3 1.8.1.8-.5 1.8-1.5 1.5-.6-.2-1-1-2-2M44.8 118c1-.8 1.6-1.7 2.1-1.6s1.5 1 1.5 1.4c0 .7-.8 1.6-1.4 1.7-.4.1-1.2-.7-2.2-1.5"/></svg>