<svg width="200" height="200" viewBox="0 0 181 208" fill="none" xmlns="http://www.w3.org/2000/svg">
<path d="M148.931 160.083C146.261 164.224 143.68 168.965 140.44 173.165C127.448 189.878 111.035 201.76 89.9713 205.841C68.5476 210.012 50.3945 203.291 35.692 187.328C26.7505 177.636 21.1095 166.024 17.5989 153.392C17.1188 151.652 16.3687 150.602 14.6284 149.791C6.37699 145.891 2.14626 138.96 0.465976 130.198C-0.644214 124.407 0.195927 118.946 3.34647 113.935C5.44683 110.635 8.50735 108.564 12.288 107.604C12.558 107.544 12.8581 107.454 13.1882 107.334C12.378 93.8918 11.2678 80.4795 15.9486 67.0072C14.5984 68.3274 13.5482 69.3776 12.498 70.4578C12.048 70.9079 11.5979 71.388 11.1178 71.808C9.70756 73.0082 8.11729 72.5882 7.93726 70.7579C7.69722 68.5375 7.57719 66.2571 7.84724 64.0667C8.44734 59.3259 10.3677 55.0652 13.5782 50.9245C10.9978 51.8246 8.7774 52.5747 6.55702 53.3249C5.8369 53.5649 5.14678 53.925 4.42665 54.015C3.85655 54.075 2.9564 53.955 2.68636 53.5649C2.3563 53.1148 2.26629 52.0947 2.56634 51.6746C3.97658 49.5742 5.35681 47.3839 7.09711 45.5535C14.1483 38.2323 22.4297 32.6813 31.9114 28.3906C29.1209 27.8205 26.4804 27.2804 23.87 26.7103C21.5896 26.2302 19.2792 25.7201 16.9988 25.1801C16.0386 24.97 15.1385 24.58 15.0485 23.4098C14.9284 22.2095 15.7086 21.6094 16.6688 21.1894C22.9398 18.3689 29.541 16.5386 36.3221 15.3984C41.573 14.5282 46.9139 14.0782 52.1948 13.448C52.4349 13.418 52.6449 13.388 52.945 13.358C51.5047 11.2577 50.0345 9.33735 48.7743 7.297C48.0841 6.21681 47.634 4.9566 47.214 3.75639C46.7039 2.28614 47.214 1.29597 48.7743 1.17595C51.4147 0.965916 54.0852 0.785884 56.6956 1.08594C68.8777 2.43617 80.6097 5.61671 91.8316 10.5976C92.0416 10.6876 92.2517 10.7476 92.7618 10.9276C91.4415 9.00729 90.2713 7.327 89.1611 5.64672C88.5611 4.74656 87.9309 3.8164 87.4509 2.82623C86.7007 1.32598 87.4209 0.0957645 89.1011 0.00574908C89.7312 -0.0242561 90.3914 0.0657584 91.0215 0.215784C100.473 2.43616 108.815 6.96694 116.736 12.4279C120.006 14.6783 123.007 17.3187 126.398 19.9592C125.467 17.6788 124.657 15.6084 123.817 13.5381C123.397 12.4879 122.677 11.3477 123.727 10.3275C124.807 9.27734 125.977 9.93745 127.058 10.4475C135.009 14.2282 140.89 19.9892 143.951 28.3906C144.041 28.6607 144.161 28.9307 144.311 29.3208C147.521 27.9705 150.792 27.3404 154.242 27.9105C154.842 28.0005 155.412 28.1206 156.013 28.2706C157.003 28.5106 157.843 28.9907 157.783 30.1609C157.753 31.2711 156.883 31.5411 155.983 31.8712C153.702 32.7113 151.452 33.6715 149.201 34.5717C149.051 34.6317 148.901 34.8117 148.841 34.8717C151.182 35.7719 153.582 36.492 155.773 37.6022C161.383 40.4527 165.854 44.5634 168.585 50.3844C168.795 50.8344 168.945 51.3145 169.155 51.7646C169.545 52.6648 169.605 53.6849 168.705 54.165C168.075 54.4951 167.114 54.4651 166.394 54.255C165.074 53.895 163.814 53.2649 162.464 52.8748C165.074 55.8153 166.814 59.2359 168.225 62.8065C170.775 69.2276 171.255 75.8887 170.865 82.6999C170.445 89.9311 169.425 97.1024 167.415 104.244C170.295 104.874 172.605 106.404 174.556 108.474C179.537 113.665 181.217 120.026 180.407 126.987C179.297 136.769 174.646 144.54 166.454 150.061C165.674 150.572 165.614 151.082 165.704 151.892C166.664 159.303 160.183 165.124 153.372 162.874C151.632 162.304 150.222 160.923 148.931 160.083ZM71.0981 10.7476C71.0681 11.0776 70.888 11.4677 71.008 11.7378C71.2181 12.1878 71.5781 12.5479 71.9082 12.938C72.3883 12.5779 72.8384 12.2178 73.3184 11.8278C72.9284 11.4677 72.5383 11.0476 72.0882 10.8076C71.8182 10.6576 71.4281 10.7776 71.0681 10.7776C70.978 10.2375 70.918 9.66741 70.798 8.97729C70.0779 8.91728 69.2077 8.85726 68.0975 8.76725C68.3376 9.6674 68.5176 10.3275 68.6977 10.9576C69.6278 10.8376 70.3779 10.7776 71.0981 10.7476ZM57.3557 8.31717C57.2657 7.68706 57.1757 7.05696 57.0557 6.33683C56.7256 6.21681 56.2155 6.00678 55.7354 5.82675C55.1953 6.27682 54.6853 6.66689 54.1452 7.11696C54.5352 7.62705 54.9253 8.13714 55.2254 8.52721C56.0355 8.43719 56.6956 8.37718 57.3557 8.31717C57.3857 8.64723 57.5057 9.03729 57.3857 9.30734C57.0557 10.1475 57.2657 10.8676 58.0158 11.1677C58.5559 11.3777 59.246 11.1977 59.7861 11.1977C59.9962 9.51738 59.9662 8.34718 58.0158 8.73724C57.8358 8.79725 57.5957 8.4672 57.3557 8.31717ZM149.231 86.2405C149.471 87.2307 149.682 88.2208 149.922 89.181C148.901 88.8509 147.851 88.5209 146.771 88.1908C146.651 86.1505 146.651 86.1505 143.951 85.6404C143.951 85.2203 144.071 84.7402 143.921 84.3802C143.68 83.8701 143.23 83.12 142.87 83.09C141.34 83.06 140.83 82.3998 141.22 80.9596C140.8 80.7796 140.44 80.6295 140.08 80.4495C139.69 80.2695 139.33 80.0294 138.88 79.8194C138.73 80.0594 138.64 80.2095 138.55 80.3895C137.649 82.0398 138.13 82.9699 139.96 82.9699C140.77 82.9699 140.86 83.36 141.01 84.0501C141.13 84.7102 141.55 85.7304 142.03 85.8504C143.981 86.3305 144.221 86.6606 143.44 88.6709L143.47 88.6409C141.16 88.4309 141.16 88.4309 141.07 86.1205C139.87 85.4604 137.469 86.0305 138.13 83.51C137.439 83.21 136.659 83.15 136.449 82.7599C135.789 81.5597 135.219 80.2395 134.799 78.9193C133.989 76.3388 133.299 73.7284 132.519 71.1479C131.678 68.3874 130.808 65.657 129.938 62.8965C129.668 65.777 129.638 68.5975 129.668 71.448C129.668 72.4981 129.578 73.5183 128.348 73.8484C127.208 74.1484 126.638 73.3683 126.127 72.4981C122.647 66.6771 121.027 60.3761 121.447 53.5949C121.477 52.9348 121.657 52.3647 120.667 52.1547C117.636 51.5246 114.666 50.5644 111.605 50.1743C100.953 48.8241 90.3614 49.4842 79.8296 51.4646C76.589 52.0647 73.3484 52.7248 70.1079 53.2349C69.5078 53.3249 68.7877 52.7248 68.0975 52.4247C68.4276 51.7946 68.6676 51.1345 69.0877 50.5944C69.3278 50.2643 69.8378 50.1443 70.2579 49.9643C77.1291 46.8738 84.3603 45.2535 91.8316 44.7134C92.6718 44.6534 93.4819 44.5334 94.7421 44.3833C94.172 44.1733 94.052 44.1133 93.902 44.0833C93.5719 44.0233 93.2118 43.9633 92.8518 43.9333C84.0303 43.5432 75.2688 43.9033 66.6273 45.8836C57.7458 47.924 49.4344 51.4045 41.573 55.9953C40.6729 56.5054 39.7127 57.0155 38.8425 56.0853C37.9424 55.1252 38.3625 54.165 39.1126 53.2649C39.2026 53.1749 39.2326 53.0248 39.2926 52.9048C37.3423 53.805 35.512 54.8851 33.7717 56.1154C28.7008 59.746 24.5001 64.3068 20.4494 69.0176C20.2394 69.2576 20.0893 69.5877 19.9993 69.9177C18.199 77.0889 17.4789 84.4102 17.6289 91.7614C17.869 104.214 18.349 116.636 18.7091 129.058C19.0392 139.71 21.3195 149.941 25.1302 159.873C25.9103 161.913 26.8705 163.864 27.7707 165.904C28.4908 164.794 28.9709 163.864 29.661 163.054C29.901 162.784 30.5911 162.694 30.9812 162.814C31.2512 162.904 31.6113 163.714 31.4913 163.864C30.6511 165.034 29.691 166.144 28.6108 167.464C28.9709 168.124 29.541 169.205 30.1411 170.315C31.1312 168.785 31.9414 167.344 32.9615 166.084C33.2616 165.724 34.1317 165.814 34.7318 165.694C34.6418 166.294 34.7318 166.984 34.4618 167.494C33.5316 169.085 32.4515 170.585 31.4913 172.115C31.4013 172.265 31.4913 172.595 31.5813 172.805C32.0914 173.705 32.6615 174.546 33.3216 175.626C33.7417 174.636 34.0117 173.886 34.4018 173.195C35.0319 172.055 35.662 170.915 36.4121 169.895C36.6222 169.595 37.3723 169.685 37.8524 169.565C37.9124 170.045 38.2124 170.645 38.0324 171.005C36.9222 173.165 35.722 175.266 34.5218 177.456C35.3019 178.536 36.0521 179.526 36.7422 180.517C37.8524 177.936 38.9025 175.566 39.9527 173.195C40.2828 172.475 40.8229 171.815 41.693 172.385C42.5632 172.925 42.1131 173.645 41.753 174.336C41.0029 175.806 40.2828 177.276 39.6527 178.776C39.1726 179.887 38.8425 181.057 38.3625 182.377C39.2926 183.397 40.3728 184.627 41.483 185.858C42.4432 183.307 43.3133 180.937 44.3035 178.596C44.5135 178.146 45.3237 177.966 45.8637 177.666C45.9838 178.266 46.3138 178.926 46.1638 179.496C45.9538 180.367 45.4137 181.117 45.0836 181.957C44.4235 183.697 43.8234 185.467 43.1333 187.358C44.2735 188.318 45.5337 189.398 46.6739 190.358C47.514 187.628 48.2341 184.987 49.1343 182.407C49.2843 181.927 50.1245 181.717 50.6646 181.357C50.8146 182.017 51.1747 182.707 51.0246 183.277C50.3945 185.948 49.5844 188.558 48.8943 191.198C48.8043 191.499 48.9543 192.039 49.1943 192.219C50.3045 192.999 51.5047 193.689 52.8849 194.529C52.8849 193.719 52.8249 193.209 52.8849 192.729C53.155 190.868 53.365 188.978 53.7851 187.118C53.8751 186.728 54.6252 186.488 55.0453 186.188C55.2854 186.698 55.7954 187.268 55.7354 187.748C55.4354 190.388 54.9853 193.029 54.5952 195.579C56.0655 196.239 57.1757 196.749 58.4959 197.38C58.4359 196.359 58.3759 195.519 58.3759 194.679C58.4059 193.599 58.4359 192.489 58.6159 191.408C58.6759 191.048 59.306 190.598 59.6661 190.598C59.9662 190.598 60.5062 191.198 60.5062 191.559C60.5963 193.719 60.5363 195.909 60.5363 198.28C62.8466 198.97 65.3371 199.72 68.1276 200.56C66.1172 197.38 65.7571 194.289 66.1172 191.108C66.1772 190.628 66.9274 190.208 67.3774 189.758C67.6475 190.268 68.2176 190.778 68.1876 191.288C67.9475 194.619 68.7577 197.71 70.1079 200.8C71.3681 200.95 72.6583 201.13 74.0986 201.31C73.8885 200.77 73.7385 200.47 73.6485 200.14C73.0784 197.41 72.4183 194.709 71.9982 191.949C71.9082 191.409 72.6583 190.298 73.1384 190.238C74.2486 190.058 74.0686 191.138 74.0686 191.859C74.1286 194.619 74.4586 197.32 75.7789 199.84C76.0189 200.29 76.0789 200.86 76.2289 201.46C77.8492 201.46 79.4695 201.46 81.2998 201.46C80.9097 200.5 80.4897 199.66 80.1896 198.76C79.6495 197.109 79.1094 195.429 78.7494 193.749C78.6594 193.329 79.2895 192.759 79.5895 192.279C79.9496 192.669 80.4897 192.969 80.6397 193.449C81.0598 194.619 81.2698 195.849 81.6899 197.019C82.2 198.43 82.8601 199.81 83.5502 201.43C85.9506 201.01 88.531 200.56 91.5616 200.05C90.6914 197.92 89.9113 196.059 89.1611 194.199C88.5611 192.729 87.8709 191.258 87.4209 189.728C87.3008 189.308 87.8709 188.678 88.111 188.168C88.501 188.378 89.1011 188.498 89.2812 188.828C90.6014 191.559 91.9216 194.319 93.0918 197.109C93.3619 197.74 93.1218 198.61 93.1218 199.3C95.2822 198.64 98.1327 198.64 100.353 196.899C99.933 196.119 99.5429 195.429 99.1829 194.739L99.1529 194.769C100.173 194.949 101.613 194.589 101.133 196.809C105.154 195.219 108.875 193.599 112.145 191.048L112.085 191.108C112.475 190.958 112.955 190.898 113.285 190.658C116.586 188.318 119.886 185.978 123.097 183.547C124.567 182.407 125.827 181.027 127.148 179.797C126.488 179.226 125.947 178.926 125.617 178.476C123.427 175.326 121.237 172.175 119.106 168.965C118.716 168.365 118.386 167.614 118.326 166.894C118.296 166.504 118.776 165.874 119.166 165.724C119.466 165.604 120.186 165.934 120.397 166.264C123.037 170.405 125.617 174.546 128.258 178.776C133.989 172.955 139.03 166.654 142.9 159.543C142.36 159.363 141.79 159.303 141.46 159.003C139.33 157.113 137.229 155.192 135.159 153.242C134.919 153.002 134.829 152.342 134.979 152.072C135.159 151.772 135.729 151.532 136.089 151.592C136.539 151.652 136.959 152.012 137.319 152.342C139.42 154.292 141.49 156.272 143.77 158.463C144.761 156.122 145.781 153.842 146.651 151.532C147.161 150.211 147.941 149.911 149.291 150.001C151.632 150.151 153.972 150.031 156.343 150.031C156.373 149.881 156.373 149.731 156.403 149.581C155.983 149.251 155.503 148.981 155.142 148.621C154.932 148.411 154.782 147.901 154.902 147.721C155.082 147.451 155.502 147.241 155.863 147.211C156.223 147.211 156.643 147.391 156.973 147.571C159.433 148.891 160.843 153.032 159.703 155.582C159.013 157.143 157.183 158.283 155.472 158.163C153.822 158.043 152.772 157.083 152.382 155.522C152.082 154.352 151.362 154.802 150.702 154.772C149.892 157.383 150.372 158.583 152.652 159.903C154.962 161.223 158.683 160.833 160.663 159.033C163.574 156.393 163.754 151.232 160.993 148.171C159.703 146.761 158.263 145.531 156.103 145.831C155.803 145.861 155.232 145.501 155.112 145.201C154.992 144.871 155.142 144.21 155.382 144.03C155.833 143.73 156.463 143.52 157.033 143.52C159.643 143.52 161.684 144.811 163.334 146.761C163.934 146.341 164.444 145.981 164.984 145.591C173.296 139.59 177.616 128.128 175.126 118.376C173.926 113.635 171.495 109.765 166.574 108.174C161.263 106.494 156.643 108.234 152.442 111.445C151.572 112.105 150.852 113.005 149.922 113.545C149.351 113.875 148.511 113.695 147.791 113.755C147.851 113.125 147.851 112.495 147.971 111.895C148.031 111.595 148.301 111.325 148.481 111.025C148.361 111.055 148.211 111.115 148.091 111.145C147.671 110.485 146.741 109.554 146.921 109.224C147.911 107.364 148.871 108.504 149.772 109.645C150.072 109.194 150.342 108.834 150.612 108.444C149.531 107.664 149.441 106.554 150.312 105.894C151.272 105.174 152.262 105.654 152.562 107.064C153.222 106.614 153.702 106.254 153.852 106.164C153.342 105.384 152.832 104.844 152.622 104.184C152.562 103.974 153.252 103.343 153.702 103.193C155.292 102.683 155.202 104.184 155.653 105.114C156.613 104.754 157.513 104.424 158.413 104.094C158.443 103.944 158.473 103.763 158.503 103.613C157.933 103.403 157.363 103.223 156.823 102.953C156.403 102.743 155.713 102.413 155.683 102.113C155.653 101.603 155.953 100.763 156.343 100.583C157.183 100.193 157.873 100.643 158.203 101.543C158.473 102.293 158.773 103.013 158.923 103.493C160.393 103.583 161.474 103.643 162.824 103.733C162.254 103.193 161.714 102.923 161.684 102.593C161.624 101.993 161.744 100.883 161.954 100.823C164.024 100.373 163.124 98.6626 163.574 97.7325C162.704 97.3424 161.954 97.1624 161.413 96.7123C161.203 96.5323 161.413 95.3921 161.714 95.272C162.374 94.972 163.184 95.032 164.264 94.912C164.114 93.9518 163.934 92.8116 163.724 91.7014C161.474 91.8815 161.293 91.7014 161.023 89.271C160.123 89.061 159.163 88.851 158.233 88.6109C158.443 86.0005 157.723 85.4604 155.142 86.2705C155.322 87.3507 154.812 88.941 156.613 88.971C157.753 89.001 158.023 89.391 157.993 90.3512C157.963 91.4614 158.563 92.0015 159.583 91.7614C160.873 91.4614 161.053 92.0615 160.993 93.0817C160.963 93.6518 160.993 94.1919 160.993 94.762C160.453 94.6719 159.973 94.5519 159.493 94.5219C158.683 94.4319 158.173 94.1018 158.263 93.2017C158.383 92.0015 157.813 91.5514 156.673 91.6714C155.653 91.7915 155.262 91.3114 155.442 90.3512C155.683 89.001 154.692 88.7309 153.762 88.6109C153.312 88.5509 152.772 88.971 152.292 89.181C152.412 88.1608 153.222 86.8706 151.962 86.2405C151.242 85.8804 150.132 86.2705 149.201 86.3005C149.441 85.3703 149.712 84.4402 149.952 83.51C151.812 82.9099 152.262 83.09 152.322 84.5602C152.382 85.6404 152.892 86.0905 153.882 86.0905C154.662 86.0905 155.322 86.0005 155.412 84.9203C155.502 83.7201 154.752 83.36 153.882 83.15C153.432 83.0299 152.952 83.12 152.382 83.12C152.442 82.3398 152.502 81.6497 152.592 80.5995C151.662 80.5995 150.642 80.3295 150.012 80.6896C149.651 80.9296 149.922 82.1598 149.892 82.9699C149.892 83.18 149.952 83.36 149.982 83.57C148.901 83.36 147.791 83.18 146.771 82.9699C146.621 82.2198 146.711 81.0496 146.201 80.6896C145.571 80.2395 144.461 80.4195 143.41 80.2995C143.59 79.6694 143.74 79.1293 143.891 78.5592C143.801 78.4392 143.71 78.2591 143.62 78.2291C143.02 77.9891 142.36 77.599 141.76 77.659C141.49 77.689 141.1 78.6492 141.16 79.1293C141.25 79.9694 141.7 80.5395 142.78 80.4495C143.05 80.4195 143.5 80.9896 143.68 81.3797C143.921 81.8898 143.951 82.5199 144.071 83.09C144.371 83.12 144.581 83.18 144.761 83.15C146.021 82.9699 146.741 83.27 146.651 84.8002C146.621 85.2203 147.431 85.7604 147.941 86.0905C148.301 86.2405 148.811 86.1805 149.231 86.2405ZM160.723 77.719C159.853 77.629 158.983 77.539 158.113 77.479C157.543 79.8794 157.693 80.0594 159.943 80.5395C160.243 80.5995 160.633 81.0796 160.693 81.4097C160.813 81.9798 160.723 82.5799 160.723 83.18C159.373 83.06 157.723 83.51 158.113 81.2296C158.143 81.0496 157.603 80.6295 157.273 80.5395C156.673 80.3895 156.013 80.3895 155.142 80.2995C155.262 81.4697 155.382 82.4899 155.503 83.6901C157.303 82.9399 158.143 83.18 158.023 85.0103C157.993 85.3403 158.743 86.0905 159.043 86.0305C160.843 85.7604 160.993 86.8106 161.023 88.1308C161.023 88.4909 161.324 88.8209 161.504 89.301C163.454 88.3409 163.904 89.7511 164.204 91.4014C166.124 88.911 163.184 87.7708 163.484 85.9405C162.254 85.9405 161.113 86.1505 161.023 84.5302C160.963 83.57 161.534 83.3 162.284 83.21C164.174 82.9999 163.514 84.5902 163.844 85.4904C164.324 85.6104 164.804 85.7004 165.404 85.8504C165.404 84.8603 165.404 83.9901 165.404 83.09C165.284 83.18 165.194 83.27 165.074 83.36C164.624 82.8199 163.874 82.3398 163.754 81.7397C163.484 80.3895 164.624 80.3595 165.644 80.3595C165.644 79.3393 165.644 78.4392 165.644 77.509C163.784 77.509 163.664 77.419 163.604 75.3186C160.993 74.1784 160.483 74.5685 160.723 77.419C160.753 77.569 160.723 77.659 160.723 77.719ZM15.7686 145.921C13.4582 134.429 13.6082 123.087 13.6382 111.625C13.1882 111.685 12.9781 111.685 12.8281 111.745C12.498 111.865 12.168 111.985 11.8379 112.105C8.08728 113.725 6.04693 116.816 5.08677 120.566C3.43649 126.897 5.02675 132.718 8.14729 138.269C9.88758 141.42 12.318 143.94 15.7686 145.921ZM65.187 12.878C66.2672 12.878 67.2874 12.878 68.3376 12.878C68.3376 10.7776 66.7773 10.9276 65.3671 10.8676C65.3671 10.2075 65.3671 9.6374 65.3671 8.88727C64.4669 8.73725 63.6268 8.61722 62.6666 8.4672C62.6966 8.04712 62.7566 7.59705 62.8467 6.87693C61.9165 6.75691 60.9863 6.66689 60.0262 6.54687C59.9062 8.07713 60.4162 8.76725 61.7665 8.82726C62.0965 8.85727 62.4566 9.45737 62.6666 9.84743C62.8467 10.1775 62.7866 10.5976 62.8467 10.9876C63.6868 11.1077 64.4369 11.2277 65.2471 11.3777C65.2171 11.7378 65.2171 11.9178 65.2171 12.0978C65.187 12.3079 65.187 12.5479 65.187 12.878ZM165.524 74.7185C165.494 73.8484 165.434 72.9782 165.434 72.5282C164.594 71.9581 163.634 71.598 163.634 71.2979C163.754 69.8877 162.674 69.7677 161.894 69.2876C160.363 70.5778 160.333 70.7579 161.504 72.3481C161.834 72.2281 162.134 72.1081 162.494 72.0181C162.794 71.9281 163.124 71.9281 163.454 71.868C163.874 74.9586 163.874 74.9586 165.524 74.7185ZM37.7624 36.0119C37.9124 35.9819 38.0624 35.9219 38.2124 35.8919C37.6723 34.7517 37.2223 33.6415 38.6325 32.8014C38.8125 32.6813 38.6625 31.9912 38.6625 31.4811C37.5223 31.9912 36.5622 32.3513 35.662 32.8614C35.3619 33.0414 35.0919 33.5515 35.1219 33.8815C35.1519 34.1816 35.542 34.5717 35.872 34.6917C36.2621 34.8717 36.7422 34.8117 37.1923 34.8417C37.3423 35.2318 37.5523 35.6218 37.7624 36.0119ZM151.662 78.8292C152.532 79.6694 152.982 80.4795 153.522 80.5695C154.392 80.6896 155.473 80.2695 155.202 79.0993C155.082 78.5292 154.302 77.8991 153.672 77.719C153.252 77.599 152.652 78.2591 151.662 78.8292ZM146.621 78.1691C146.321 79.8794 147.161 80.5395 148.061 80.5095C148.601 80.5095 149.441 79.5494 149.561 78.8892C149.742 77.8691 148.751 77.689 147.941 77.749C147.371 77.8391 146.861 78.1091 146.621 78.1691ZM32.4514 34.5717C32.0314 36.9121 32.0914 37.2121 32.9915 37.1221C33.7117 37.0321 34.7919 36.672 34.9719 36.1619C35.392 35.0217 34.6418 34.6017 32.4514 34.5717ZM160.993 73.0082C160.033 72.3181 159.103 71.328 158.173 72.7082C157.663 73.4883 157.843 74.3885 158.743 74.8986C159.553 75.3486 160.453 74.5985 160.993 73.0082ZM157.963 75.7987C157.573 75.5887 156.943 75.0486 156.253 74.8986C156.013 74.8385 155.352 75.7087 155.262 76.2188C155.172 76.8789 155.172 77.8091 156.343 77.719C157.273 77.689 158.083 77.509 157.963 75.7987ZM151.482 77.749C151.692 77.419 152.082 76.8189 152.472 76.2488C151.932 75.8887 151.392 75.3486 150.822 75.2586C150.492 75.1986 149.712 75.7987 149.682 76.1288C149.561 76.9089 149.832 77.749 151.482 77.749ZM153.462 75.2286C153.642 75.2286 153.822 75.2286 154.032 75.2286C154.392 74.6585 155.112 74.0584 155.052 73.5183C154.992 72.9782 154.182 72.4982 153.702 72.0181C153.312 72.4982 152.622 72.9782 152.592 73.4583C152.592 74.0584 153.162 74.6585 153.462 75.2286ZM151.152 72.5882C151.632 71.808 152.112 71.268 152.232 70.6678C152.292 70.3978 151.542 69.6177 151.302 69.6777C150.612 69.8277 149.982 70.3078 149.141 70.7579C149.892 71.448 150.402 71.8981 151.152 72.5882ZM158.113 70.9679C157.993 70.7879 157.903 70.6078 157.783 70.4278C156.913 70.3078 155.893 69.0776 155.262 70.6678C155.112 71.0279 155.863 71.748 156.193 72.2881C156.823 71.838 157.483 71.418 158.113 70.9679ZM26.6605 36.9121C26.6905 37.0921 26.7505 37.2721 26.7805 37.4522C28.0407 37.6322 29.3309 37.8122 30.5911 37.9922C30.1411 37.5122 29.571 37.3621 29.3309 37.0021C29.0609 36.642 29.1209 36.0419 28.9709 35.3218C28.0407 35.9819 27.3506 36.432 26.6605 36.9121ZM60.2062 11.5277C60.1462 12.0678 60.1162 12.6379 60.0562 13.358C60.9863 13.178 61.7965 13.058 62.6066 12.908C62.0965 10.9576 62.0365 10.9276 60.2062 11.5277ZM42.9532 35.2918C42.6232 33.1614 41.303 34.4216 40.4328 34.0916C40.2828 34.6917 40.1928 35.1718 39.9827 35.9219C41.0929 35.6819 42.0231 35.4718 42.9532 35.2918ZM139.36 77.419C139.48 77.479 139.63 77.539 139.75 77.599C140.14 76.9989 140.74 76.3988 140.83 75.7387C140.89 75.3786 140.11 74.8986 139.69 74.4485C139.57 74.5085 139.45 74.5685 139.33 74.6285C139.36 75.5587 139.36 76.4888 139.36 77.419ZM23.2099 39.2225C23.2699 39.4025 23.3299 39.5525 23.3899 39.7325C24.3501 39.5225 25.3402 39.3125 26.4204 39.1024C26.1204 38.5023 25.9103 38.1123 25.6103 37.5122C24.7401 38.1423 23.96 38.6824 23.2099 39.2225ZM157.393 154.202C156.343 154.352 155.503 154.472 154.602 154.592C155.653 156.122 156.163 156.032 157.393 154.202ZM162.014 67.2473C162.554 66.5871 163.004 66.0471 163.394 65.4469C163.424 65.4169 163.034 65.0869 162.854 64.8768C162.434 65.477 162.014 66.077 161.594 66.6772C161.594 66.7072 161.684 66.7672 162.014 67.2473Z" fill="black"/>
<path d="M52.5006 4L56.5006 3.5C63.1672 4.83333 76.7006 7.5 77.5006 7.5C78.5006 7.5 80.0006 12.5 79.5006 14.5C79.0006 16.5 72.5006 18 71.5006 18C70.5006 18 58.5006 15.5 56.5006 13C54.5006 10.5 52.5006 9.5 52.5006 7V4Z" fill="black"/>
<path d="M27.0006 33.5C30.2006 31.5 35.6672 29.6667 38.0006 29L44 29.5C45 30.8333 47.1 33.7 47.5 34.5C48 35.5 44 39.5 42.5 40.5C41 41.5 23.5 44.5 20.5 43.5C17.5 42.5 18.5006 42.5 18.0006 39.5C17.5006 36.5 23.0006 36 27.0006 33.5Z" fill="black"/>
<path d="M99.2138 194.77C99.5739 195.46 99.964 196.15 100.384 196.93C98.1637 198.67 95.3132 198.67 93.1528 199.33C93.1528 198.64 93.3928 197.8 93.1228 197.14C91.9526 194.349 90.6324 191.589 89.3121 188.859C89.1621 188.528 88.562 188.408 88.142 188.198C87.9019 188.739 87.3318 189.339 87.4518 189.759C87.9019 191.289 88.592 192.729 89.1921 194.229C89.9423 196.09 90.7224 197.95 91.5925 200.08C88.562 200.621 85.9816 201.071 83.5812 201.461C82.8911 199.84 82.2309 198.46 81.7208 197.05C81.3008 195.88 81.0907 194.65 80.6707 193.479C80.4906 193.029 79.9806 192.699 79.6205 192.309C79.3204 192.819 78.6903 193.359 78.7803 193.779C79.1404 195.49 79.6805 197.14 80.2206 198.79C80.5206 199.66 80.9107 200.501 81.3308 201.491C79.5005 201.491 77.8802 201.491 76.2599 201.491C76.1099 200.891 76.0499 200.35 75.8098 199.87C74.5196 197.35 74.1596 194.65 74.0995 191.889C74.0695 191.169 74.2496 190.089 73.1694 190.269C72.6893 190.359 71.9392 191.469 72.0292 191.979C72.4493 194.74 73.1094 197.44 73.6795 200.17C73.7395 200.501 73.9195 200.831 74.1296 201.341C72.6893 201.161 71.3991 200.981 70.1389 200.831C68.8186 197.74 68.0085 194.65 68.2185 191.319C68.2485 190.839 67.7085 190.299 67.4084 189.789C66.9583 190.239 66.2082 190.629 66.1482 191.139C65.7881 194.319 66.1482 197.41 68.1585 200.591C65.368 199.75 62.9076 199 60.5672 198.31C60.5672 195.91 60.5972 193.749 60.5372 191.589C60.5372 191.229 59.9971 190.629 59.6971 190.629C59.337 190.629 58.7069 191.079 58.6469 191.439C58.4369 192.519 58.4369 193.599 58.4069 194.71C58.3769 195.55 58.4669 196.36 58.5269 197.41C57.2067 196.81 56.0965 196.3 54.6262 195.61C55.0163 193.059 55.4664 190.419 55.7664 187.778C55.8264 187.298 55.3163 186.728 55.0763 186.218C54.6262 186.518 53.8761 186.758 53.8161 187.148C53.426 189.009 53.186 190.869 52.9159 192.759C52.8559 193.239 52.9159 193.749 52.9159 194.559C51.5357 193.719 50.3355 193.029 49.2253 192.249C48.9853 192.099 48.8652 191.529 48.9252 191.229C49.6154 188.588 50.4255 185.978 51.0556 183.308C51.2056 182.737 50.8156 182.017 50.6955 181.387C50.1855 181.717 49.3453 181.957 49.1653 182.437C48.2651 185.018 47.515 187.658 46.7049 190.389C45.5647 189.429 44.3045 188.348 43.1643 187.388C43.8544 185.498 44.4545 183.728 45.1146 181.987C45.4446 181.147 45.9847 180.367 46.1948 179.527C46.3148 178.987 46.0147 178.327 45.8947 177.697C45.3546 177.997 44.5145 178.177 44.3345 178.627C43.3143 180.937 42.4741 183.338 41.514 185.888C40.4038 184.628 39.3236 183.428 38.3934 182.407C38.8735 181.087 39.2036 179.917 39.6837 178.807C40.3438 177.307 41.0639 175.806 41.784 174.366C42.1441 173.676 42.5942 172.956 41.724 172.416C40.8539 171.876 40.3138 172.506 39.9837 173.226C38.9035 175.596 37.8834 177.967 36.7732 180.547C36.053 179.557 35.3329 178.567 34.5528 177.487C35.753 175.326 36.9532 173.196 38.0634 171.035C38.2434 170.675 37.9734 170.075 37.8834 169.595C37.3733 169.685 36.6531 169.625 36.4431 169.925C35.663 170.945 35.0329 172.086 34.4328 173.226C34.0427 173.916 33.8027 174.666 33.3526 175.656C32.6925 174.606 32.1224 173.736 31.6123 172.836C31.4923 172.656 31.4323 172.296 31.5223 172.146C32.5124 170.585 33.5626 169.085 34.4928 167.525C34.7628 167.045 34.7028 166.325 34.7628 165.725C34.1627 165.845 33.2626 165.755 32.9925 166.115C31.9723 167.375 31.1622 168.815 30.172 170.345C29.5719 169.235 29.0018 168.155 28.6418 167.495C29.752 166.145 30.6821 165.064 31.5223 163.894C31.6423 163.714 31.2822 162.934 31.0122 162.844C30.6221 162.724 29.932 162.784 29.692 163.084C29.0318 163.864 28.5217 164.794 27.8016 165.935C26.9015 163.894 25.9413 161.914 25.1612 159.904C21.3505 150.002 19.0701 139.74 18.7401 129.088C18.35 116.666 17.8699 104.214 17.6599 91.7919C17.5099 84.4407 18.23 77.1194 20.0303 69.9482C20.1203 69.6181 20.2703 69.2881 20.4804 69.048C24.5311 64.3372 28.7018 59.7764 33.8027 56.1458C35.5129 54.9156 37.3433 53.8354 39.3236 52.9353C39.2636 53.0553 39.2336 53.2053 39.1436 53.2953C38.3934 54.1655 37.9734 55.1556 38.8735 56.1158C39.7437 57.046 40.7338 56.5359 41.604 56.0258C49.4653 51.405 57.7767 47.9544 66.6583 45.9141C75.2997 43.9337 84.0613 43.5737 92.8828 43.9637C93.2428 43.9937 93.5729 44.0537 93.9329 44.1138C94.083 44.1438 94.203 44.2038 94.7731 44.4138C93.5429 44.5638 92.7027 44.6838 91.8626 44.7439C84.3613 45.284 77.1601 46.9042 70.2889 49.9948C69.8688 50.1748 69.3587 50.2948 69.1187 50.6249C68.6986 51.165 68.4586 51.8551 68.1285 52.4552C68.7886 52.7552 69.5088 53.3553 70.1389 53.2653C73.4094 52.7852 76.62 52.0951 79.8605 51.495C90.3923 49.5447 100.984 48.8846 111.636 50.2048C114.696 50.5949 117.667 51.555 120.698 52.1851C121.688 52.3952 121.508 52.9653 121.478 53.6254C121.088 60.4065 122.678 66.7076 126.158 72.5286C126.669 73.3988 127.239 74.1789 128.379 73.8788C129.609 73.5488 129.699 72.5586 129.699 71.4784C129.669 68.6279 129.699 65.8075 129.969 62.927C130.839 65.6574 131.709 68.4179 132.55 71.1784C133.33 73.7588 134.02 76.3693 134.83 78.9497C135.25 80.2699 135.82 81.5602 136.48 82.7904C136.69 83.1804 137.47 83.2705 138.16 83.5405C137.5 86.0609 139.901 85.4908 141.101 86.1509C141.191 88.4613 141.191 88.4613 143.501 88.6714C143.651 89.2115 143.771 89.7216 143.921 90.2617C144.012 90.5917 144.132 91.1918 144.312 91.2218C144.912 91.3118 145.722 91.4619 146.112 91.1318C146.442 90.8618 146.442 89.9316 146.262 89.4215C146.112 89.0915 145.392 88.9114 144.912 88.7914C144.462 88.6714 143.951 88.7014 143.471 88.6714C144.222 86.661 143.981 86.361 142.061 85.8509C141.581 85.7309 141.161 84.7107 141.041 84.0506C140.891 83.3605 140.801 82.9704 139.991 82.9704C138.161 82.9404 137.68 82.0402 138.581 80.39C138.671 80.2099 138.761 80.0599 138.911 79.8199C139.331 80.0599 139.721 80.2699 140.111 80.45C140.471 80.63 140.831 80.78 141.251 80.9601C140.861 82.4003 141.371 83.0604 142.901 83.0904C143.261 83.0904 143.711 83.8706 143.951 84.3806C144.132 84.7407 143.981 85.2508 143.981 85.6409C146.682 86.1509 146.682 86.1509 146.802 88.1913C147.882 88.5514 148.932 88.8814 149.953 89.1815L149.923 89.1215C149.863 89.9916 149.142 91.4919 150.373 91.4619C152.743 91.3418 152.743 92.6021 152.683 94.2223C152.683 94.2823 152.803 94.3724 152.773 94.3424C153.793 94.5224 154.693 94.7024 155.623 94.8824C155.623 95.0925 155.654 95.3025 155.593 95.4825C155.173 96.8928 155.563 97.4929 157.154 97.3729C157.574 97.3429 158.324 98.123 158.474 98.6631C158.924 100.253 159.254 100.553 161.084 100.283C160.964 98.9931 161.444 97.3729 159.134 97.4629C158.804 97.4629 158.294 96.8028 158.144 96.3227C157.544 94.4324 157.604 94.4024 155.593 94.8824C155.473 94.3123 155.323 93.7422 155.263 93.1421C155.173 92.152 154.993 91.4318 153.673 91.7019C153.343 91.7619 152.683 91.2218 152.503 90.8017C152.293 90.2916 152.383 89.6615 152.353 89.0614L152.293 89.1215C152.773 88.9114 153.313 88.4913 153.763 88.5514C154.663 88.6714 155.684 88.9414 155.443 90.2917C155.263 91.2518 155.653 91.7319 156.674 91.6119C157.814 91.4619 158.384 91.9419 158.264 93.1421C158.174 94.0723 158.684 94.3724 159.494 94.4624C159.974 94.5224 160.484 94.6124 160.994 94.7024C160.994 94.1323 160.964 93.5622 160.994 93.0221C161.054 92.0019 160.874 91.3718 159.584 91.7019C158.594 91.9419 157.964 91.4018 157.994 90.2917C158.024 89.3315 157.754 88.9414 156.614 88.9114C154.843 88.8514 155.353 87.2611 155.143 86.211C157.724 85.4008 158.444 85.9409 158.234 88.5514C159.164 88.7614 160.124 89.0014 161.024 89.2115C161.324 91.6419 161.474 91.8219 163.725 91.6419C163.905 92.7521 164.085 93.8923 164.265 94.8524C163.215 94.9725 162.405 94.9124 161.715 95.2125C161.444 95.3325 161.234 96.4727 161.414 96.6527C161.955 97.1328 162.735 97.3129 163.575 97.6729C163.125 98.6031 164.025 100.313 161.955 100.763C161.715 100.823 161.625 101.934 161.685 102.534C161.715 102.864 162.255 103.134 162.825 103.674C161.444 103.584 160.364 103.524 158.924 103.434C158.744 102.984 158.474 102.234 158.204 101.484C157.874 100.583 157.184 100.133 156.344 100.523C155.954 100.703 155.684 101.544 155.684 102.054C155.684 102.354 156.374 102.654 156.824 102.894C157.364 103.164 157.934 103.344 158.504 103.554C158.474 103.704 158.444 103.884 158.414 104.034C157.514 104.364 156.584 104.694 155.654 105.054C155.173 104.124 155.293 102.624 153.703 103.134C153.253 103.284 152.533 103.914 152.623 104.124C152.833 104.784 153.343 105.354 153.853 106.104C153.703 106.224 153.193 106.554 152.563 107.005C152.263 105.594 151.273 105.114 150.313 105.834C149.442 106.494 149.532 107.605 150.613 108.385C150.343 108.775 150.103 109.135 149.772 109.585C148.902 108.445 147.912 107.305 146.922 109.165C146.742 109.495 147.672 110.425 148.092 111.085C148.212 111.055 148.362 110.995 148.482 110.965C148.302 111.265 148.032 111.535 147.972 111.835C147.852 112.435 147.852 113.066 147.792 113.696C148.512 113.636 149.352 113.816 149.923 113.486C150.853 112.946 151.573 112.045 152.443 111.385C156.644 108.145 161.264 106.434 166.575 108.115C171.526 109.675 173.927 113.576 175.127 118.316C177.617 128.038 173.297 139.53 164.985 145.531C164.475 145.921 163.935 146.281 163.335 146.701C161.685 144.751 159.674 143.461 157.034 143.461C156.464 143.461 155.834 143.641 155.383 143.971C155.113 144.151 154.993 144.811 155.113 145.141C155.233 145.441 155.804 145.801 156.104 145.771C158.264 145.471 159.704 146.701 160.994 148.112C163.755 151.172 163.575 156.333 160.664 158.973C158.684 160.774 154.963 161.194 152.653 159.844C150.373 158.523 149.923 157.353 150.703 154.713C151.333 154.743 152.083 154.293 152.383 155.463C152.773 156.993 153.823 157.983 155.473 158.103C157.184 158.223 159.014 157.053 159.704 155.523C160.844 153.002 159.434 148.832 156.974 147.511C156.614 147.331 156.224 147.121 155.864 147.151C155.533 147.151 155.083 147.391 154.903 147.661C154.783 147.841 154.963 148.352 155.143 148.562C155.503 148.952 155.984 149.222 156.404 149.522C156.374 149.672 156.374 149.822 156.344 149.972C154.003 149.972 151.633 150.092 149.292 149.942C147.942 149.852 147.162 150.152 146.652 151.472C145.782 153.783 144.762 156.063 143.771 158.403C141.491 156.243 139.421 154.263 137.32 152.282C136.96 151.952 136.54 151.622 136.09 151.532C135.73 151.472 135.16 151.712 134.98 152.012C134.83 152.282 134.92 152.942 135.16 153.182C137.23 155.133 139.331 157.053 141.461 158.943C141.791 159.243 142.361 159.273 142.901 159.483C139.031 166.625 133.99 172.896 128.259 178.717C125.618 174.486 123.038 170.315 120.397 166.205C120.187 165.875 119.467 165.545 119.167 165.665C118.777 165.845 118.297 166.475 118.327 166.835C118.387 167.555 118.717 168.275 119.107 168.905C121.238 172.116 123.428 175.266 125.618 178.417C125.948 178.867 126.489 179.167 127.149 179.737C125.858 180.967 124.568 182.377 123.098 183.488C119.887 185.948 116.587 188.258 113.286 190.599C112.956 190.839 112.506 190.899 112.086 191.049C111.846 190.269 111.786 189.339 111.306 188.708C109.206 185.978 107.045 183.338 104.825 180.727C104.555 180.397 103.835 180.487 103.325 180.367C103.265 180.907 102.994 181.507 103.175 181.957C103.385 182.527 103.955 182.978 104.345 183.488C105.965 185.558 107.795 187.508 109.176 189.729C110.016 191.079 110.796 191.469 112.176 190.989C108.906 193.569 105.155 195.16 101.164 196.75C101.644 194.529 100.204 194.89 99.1838 194.71C99.1538 194.499 99.1838 194.289 99.0938 194.139C97.8936 192.159 96.6934 190.149 95.4032 188.198C95.1931 187.898 94.503 187.898 94.023 187.748C93.9329 188.258 93.6029 188.949 93.8129 189.279C94.593 190.419 95.4932 191.499 96.4834 192.489C97.2935 193.419 98.3137 194.049 99.2138 194.77ZM138.581 97.0728C139.301 97.1328 140.021 97.1928 140.741 97.2528C141.071 95.4525 140.891 94.6124 140.051 94.5224C139.571 94.4624 138.671 94.6424 138.611 94.8824C138.431 95.5726 138.581 96.3527 138.611 97.1028C138.251 96.9528 137.89 96.6527 137.53 96.7128C137.23 96.7428 136.72 97.1328 136.72 97.3429C136.75 97.7029 137.02 98.183 137.32 98.363C137.5 98.4831 138.07 98.273 138.281 98.033C138.521 97.8229 138.521 97.4029 138.581 97.0728ZM99.6939 112.615C99.3339 113.306 99.1238 113.636 98.9738 113.966C97.5336 116.996 97.2935 120.117 98.6137 123.237C100.054 126.688 103.175 127.858 106.295 126.118C108.335 124.978 109.236 123.027 109.446 120.807C109.596 119.217 109.476 117.566 109.476 115.586C110.796 116.636 111.816 117.566 112.956 118.346C113.376 118.646 114.276 118.917 114.456 118.707C114.847 118.316 115.147 117.506 114.997 117.056C114.697 116.246 114.156 115.406 113.496 114.866C111.966 113.606 110.406 112.255 108.665 111.385C101.434 107.875 94.203 107.425 87.1818 111.985C84.9614 113.426 83.2511 115.406 82.2309 117.836C81.9909 118.436 82.321 119.247 82.381 119.967C83.0111 119.727 83.6412 119.457 84.2713 119.187C84.3613 119.157 84.3913 119.037 84.4513 118.947C87.3018 115.346 91.0824 113.426 95.5532 112.796C96.7834 112.645 98.1037 112.675 99.6939 112.615ZM53.9061 117.566C54.6562 118.436 55.1063 119.097 55.7064 119.607C56.0665 119.877 56.9066 120.117 57.1166 119.907C57.4467 119.577 57.7467 118.737 57.5367 118.376C56.9366 117.236 56.2765 116.066 55.3463 115.196C49.4653 109.615 42.6542 108.085 35.0329 110.875C31.2522 112.255 28.5218 114.926 26.8415 118.556C26.6014 119.097 26.9615 119.907 27.0515 120.597C27.6816 120.357 28.5518 120.297 28.8818 119.847C31.5523 116.276 35.2129 114.386 39.5036 113.636C40.9739 113.366 42.5342 113.606 44.0944 113.606C42.5942 117.386 42.2341 119.187 42.4741 121.557C42.7742 124.678 44.9946 127.318 47.485 127.498C50.3655 127.708 52.7959 125.698 53.486 122.307C53.7261 120.927 53.7261 119.487 53.9061 117.566ZM119.317 99.1432C119.017 98.8431 118.567 98.243 117.967 97.8829C109.866 92.9021 101.074 91.4919 91.7726 92.9021C87.0318 93.6222 82.711 95.2725 79.2004 98.6931C78.6003 99.2932 78.0002 100.043 78.7803 100.733C79.1404 101.063 80.2206 101.003 80.7007 100.673C84.5413 98.213 88.7421 96.8628 93.2128 96.4127C101.554 95.5426 109.656 96.5627 117.157 100.613C118.267 101.214 119.347 100.643 119.317 99.1432ZM69.0587 175.026C75.0597 175.086 81.2708 173.166 86.7017 169.175C89.5522 167.075 92.0726 164.584 94.6531 162.154C95.0131 161.794 94.8331 160.864 94.9231 160.204C94.263 160.294 93.5429 160.294 92.9128 160.504C92.5227 160.624 92.2527 161.104 91.9226 161.404C87.1518 165.905 81.6908 169.205 75.2998 170.855C69.1487 172.446 63.1477 172.536 57.4467 169.205C56.6966 168.755 55.8864 168.215 55.2263 169.175C54.5362 170.165 55.2263 170.825 56.0365 171.396C59.6971 174.096 63.8678 175.056 69.0587 175.026ZM55.6764 139.65C55.8564 141.9 56.8766 143.671 58.3168 145.201C60.0872 147.091 62.2475 148.262 64.858 148.502C65.8181 148.592 66.7183 148.262 66.8683 147.151C67.0483 146.071 66.2982 145.651 65.3681 145.471C65.278 145.441 65.188 145.411 65.068 145.381C60.5072 144.121 58.7669 140.76 60.3572 136.29C61.1373 134.069 61.9775 131.879 62.6076 129.628C63.8378 125.368 65.008 121.077 66.0582 116.786C66.2082 116.186 65.6681 115.406 65.4581 114.716C64.948 115.076 64.1979 115.346 64.0178 115.826C61.6474 122.067 59.337 128.338 57.0566 134.639C56.5165 136.26 56.1565 137.97 55.6764 139.65ZM42.0541 94.6724C36.083 94.8224 31.1622 95.8726 26.6614 98.333C25.1012 99.1732 23.6909 100.313 22.3407 101.484C22.0106 101.784 22.1907 102.684 22.1307 103.314C22.7008 103.284 23.4209 103.434 23.871 103.164C32.9925 97.7629 42.5041 96.7728 52.4358 100.463C53.606 100.883 54.6262 101.664 55.7964 102.084C56.3365 102.264 57.2067 102.144 57.5967 101.784C57.8668 101.544 57.6567 100.553 57.3867 100.073C57.0866 99.5332 56.4865 99.1732 55.9464 98.7831C51.5057 95.6326 46.4348 94.7924 42.0541 94.6724ZM122.678 181.477C122.558 181.237 122.468 180.697 122.168 180.367C121.358 179.467 120.307 178.747 119.587 177.787C118.057 175.716 116.677 173.496 115.207 171.396C114.937 171.005 114.306 170.585 113.946 170.675C113.586 170.765 113.256 171.396 113.106 171.876C113.016 172.116 113.286 172.536 113.466 172.806C115.837 175.956 118.237 179.137 120.638 182.257C120.758 182.407 120.938 182.527 121.118 182.617C122.018 183.128 122.678 182.767 122.678 181.477ZM106.055 193.479C105.725 192.819 105.635 192.459 105.425 192.189C104.255 190.509 103.115 188.829 101.914 187.178C100.954 185.858 99.964 184.538 98.8238 183.338C98.4937 182.978 97.7136 183.068 97.1135 182.948C97.0535 183.548 96.9335 184.148 96.9935 184.718C97.0235 185.078 97.3835 185.408 97.6236 185.708C99.5739 188.228 101.524 190.749 103.505 193.239C103.775 193.569 104.195 194.019 104.525 194.019C105.035 194.079 105.515 193.719 106.055 193.479ZM114.907 184.238C115.027 184.628 115.027 184.928 115.177 185.078C115.627 185.498 116.077 185.888 116.617 186.158C116.767 186.248 117.427 185.768 117.427 185.738C117.217 185.168 116.947 184.628 116.617 184.088C116.497 183.908 116.197 183.848 115.987 183.728C114.696 182.797 113.286 182.017 112.206 180.907C110.886 179.527 109.926 177.787 108.665 176.316C108.335 175.896 107.555 175.866 106.955 175.656C106.955 176.286 106.715 177.036 106.985 177.487C107.855 178.927 108.725 180.487 109.986 181.537C111.396 182.707 112.476 184.688 114.907 184.238ZM133.42 171.756C133.66 171.185 133.96 170.765 133.96 170.315C133.96 169.985 133.6 169.625 133.33 169.325C131.019 166.715 128.739 164.074 126.368 161.494C126.098 161.194 125.288 160.954 125.018 161.134C124.688 161.344 124.478 162.034 124.508 162.514C124.538 162.904 124.928 163.294 125.198 163.624C127.419 166.055 129.639 168.485 131.889 170.885C132.159 171.215 132.61 171.336 133.42 171.756ZM131.589 160.684C131.889 160.894 132.279 161.044 132.52 161.314C133.72 162.514 134.86 163.744 136.03 164.944C136.66 165.575 137.32 166.895 138.251 165.995C139.271 165.034 138.101 164.134 137.35 163.444C136.21 162.394 135.07 161.344 133.84 160.444C132.64 159.574 131.289 158.883 129.969 158.253C129.549 158.043 128.889 158.343 128.349 158.403C128.469 158.883 128.409 159.513 128.709 159.814C129.459 160.594 130.239 161.524 131.589 160.684ZM58.3769 161.194C58.7069 160.894 59.337 160.474 59.7571 159.844C60.7473 158.433 61.6474 156.963 62.4876 155.463C62.7276 155.043 62.6376 154.443 62.6976 153.933C62.1575 153.933 61.3474 153.723 61.1073 153.993C59.6671 155.763 58.2868 157.593 57.0266 159.483C56.4565 160.294 57.0266 161.164 58.3769 161.194ZM85.8916 157.833C86.3116 157.443 86.9117 157.143 87.0918 156.663C87.2118 156.393 86.7617 155.763 86.4317 155.463C85.2014 154.323 83.8812 153.302 82.711 152.102C82.0809 151.472 81.5408 151.112 80.8207 151.712C80.1006 152.312 80.2506 153.002 80.9107 153.632C82.2309 154.833 83.5212 156.093 84.8414 157.293C85.0514 157.473 85.4115 157.593 85.8916 157.833ZM79.4405 157.383C79.3505 157.233 79.2904 156.933 79.0804 156.723C77.7302 155.283 76.3799 153.843 74.9397 152.462C74.6996 152.222 73.9195 152.192 73.6495 152.402C73.3494 152.612 73.1094 153.452 73.2594 153.632C74.6996 155.313 76.1699 157.023 77.8202 158.523C78.4803 159.123 79.5005 158.403 79.4405 157.383ZM138.311 146.581C137.98 146.881 137.56 147.061 137.44 147.361C137.32 147.661 137.38 148.202 137.59 148.412C139.121 149.822 140.651 151.232 142.301 152.522C142.631 152.792 143.411 152.462 143.981 152.402C143.891 151.832 143.981 151.082 143.621 150.752C142.391 149.552 141.011 148.472 139.661 147.361C139.301 147.091 138.821 146.911 138.311 146.581ZM55.8864 156.753C55.6464 156.453 55.4063 155.883 55.1363 155.853C54.6562 155.793 53.9661 155.943 53.6961 156.273C52.7659 157.413 51.9558 158.703 51.1156 159.934C50.6655 160.594 50.2155 161.404 51.2356 161.794C51.6857 161.974 52.6159 161.524 53.0359 161.104C53.9661 160.084 54.6862 158.883 55.4664 157.713C55.6164 157.443 55.7064 157.173 55.8864 156.753ZM94.9231 155.703C94.8331 155.403 94.8331 155.223 94.7431 155.133C93.3628 153.873 91.9826 152.582 90.5124 151.442C90.3023 151.292 89.4022 151.712 89.1021 152.102C88.9221 152.342 89.1321 153.152 89.4322 153.452C90.5424 154.503 91.7426 155.463 92.9428 156.393C93.2428 156.603 93.8129 156.693 94.143 156.573C94.503 156.453 94.7131 155.973 94.9231 155.703ZM44.8746 162.694C45.0846 162.994 45.3246 163.534 45.7147 163.744C45.9547 163.864 46.6449 163.624 46.8249 163.354C47.7851 162.004 48.6852 160.594 49.5253 159.153C49.7354 158.793 49.6454 158.253 49.6754 157.803C49.2253 157.803 48.7152 157.623 48.3251 157.803C46.4348 158.733 45.5347 160.504 44.8746 162.694ZM101.674 156.573C101.644 156.213 101.674 156.003 101.584 155.913C100.324 154.743 99.0938 153.572 97.7436 152.492C97.5636 152.342 96.7534 152.612 96.6334 152.852C96.4834 153.182 96.5434 153.873 96.7834 154.143C97.7436 155.223 98.7638 156.213 99.844 157.173C100.114 157.383 100.684 157.413 101.044 157.293C101.374 157.203 101.524 156.753 101.674 156.573ZM140.981 91.3118C140.531 90.2617 141.611 88.6114 139.601 88.6414C138.311 88.6714 138.131 88.0113 138.04 87.0211C138.01 86.601 137.98 86.0309 137.71 85.8509C137.29 85.5808 136.69 85.4908 136.21 85.5508C135.97 85.5808 135.55 86.211 135.61 86.421C135.82 86.9911 136.12 87.6812 136.57 87.9513C137.56 88.5213 138.491 88.9414 138.221 90.3517C138.16 90.5917 138.701 91.1318 139.061 91.2518C139.571 91.4318 140.171 91.3118 140.981 91.3118ZM69.0587 155.163C69.6888 156.543 70.2289 158.013 71.009 159.333C71.189 159.604 72.1792 159.393 72.8093 159.423C72.7493 158.883 72.8093 158.313 72.5993 157.863C72.1192 156.783 71.5791 155.763 70.979 154.743C70.769 154.383 70.2889 154.203 69.9288 153.933C69.7188 154.233 69.4788 154.563 69.0587 155.163ZM143.861 144.511C142.481 143.461 141.161 142.291 139.661 141.42C139.031 141.06 138.311 142.171 138.851 142.741C139.841 143.791 140.891 144.781 142.061 145.651C142.721 146.191 143.711 145.591 143.861 144.511ZM63.7178 158.973C64.1078 159.453 64.5279 159.964 64.948 160.474C65.3681 160.114 65.9982 159.814 66.1482 159.363C66.4482 158.373 66.5082 157.323 66.5683 156.273C66.5983 155.943 66.2982 155.373 66.1182 155.343C65.7581 155.313 65.158 155.493 65.008 155.793C64.5279 156.693 64.2279 157.713 63.7178 158.973ZM87.2718 196.6C86.8217 195.73 86.5217 194.95 86.0416 194.259C85.8016 193.929 85.2615 193.839 84.8714 193.629C84.6614 194.079 84.1813 194.62 84.2713 194.98C84.5113 195.82 84.9614 196.6 85.4415 197.32C85.5915 197.53 86.1916 197.65 86.4617 197.5C86.8217 197.38 87.0318 196.93 87.2718 196.6ZM155.173 100.193C155.503 97.3729 155.143 97.0128 152.623 97.7029C152.413 100.073 152.563 100.253 155.173 100.193ZM146.922 92.9621C146.742 93.8023 146.802 94.4924 147.972 94.3424C148.662 94.2523 149.712 94.7024 149.592 93.2922C149.502 92.302 149.322 91.5819 148.062 91.6119C146.952 91.6119 146.682 92.0019 146.922 92.9621ZM149.322 100.163C149.472 100.013 149.622 99.8633 149.772 99.7133C149.502 98.9631 149.412 98.033 148.902 97.5229C148.572 97.1928 147.372 97.2528 147.042 97.5829C146.712 97.943 146.682 99.1732 147.012 99.4432C147.612 99.9233 148.542 99.9533 149.322 100.163ZM144.342 100.013C144.162 100.193 143.981 100.373 143.771 100.553C144.012 101.334 144.102 102.204 144.552 102.834C144.732 103.074 145.902 102.984 146.262 102.654C146.592 102.324 146.682 101.244 146.412 100.943C145.902 100.433 145.062 100.313 144.342 100.013ZM143.621 94.2823C143.441 93.1421 144.402 91.8219 142.601 91.5519C141.611 91.4018 140.981 91.8519 141.011 92.9621C141.071 94.7924 142.421 94.1323 143.621 94.2823ZM152.503 103.074C152.143 101.874 152.833 100.343 150.883 100.283C149.833 100.253 149.652 100.913 149.742 101.784C149.983 103.674 151.393 102.744 152.503 103.074ZM143.711 98.7231C143.861 97.7329 143.351 97.3129 142.361 97.2828C141.521 97.2528 141.041 97.5529 141.041 98.453C141.041 99.3532 141.371 100.013 142.361 100.073C143.261 100.103 143.831 99.7733 143.711 98.7231ZM143.981 96.3527C144.282 96.5327 144.792 97.0728 145.392 97.1328C146.292 97.2528 146.652 96.5927 146.622 95.7226C146.592 94.9124 146.292 94.4024 145.392 94.4624C144.462 94.5224 143.831 94.8224 143.981 96.3527ZM152.143 97.2828C152.263 97.1328 152.383 96.9828 152.533 96.8628C152.293 96.1427 152.173 95.2725 151.723 94.7324C151.513 94.4924 150.343 94.6724 150.043 95.0025C149.712 95.3925 149.682 96.5627 149.923 96.7428C150.523 97.1328 151.393 97.1328 152.143 97.2828ZM149.442 105.654C149.562 105.504 149.712 105.354 149.833 105.174C149.532 104.484 149.352 103.614 148.842 103.134C148.542 102.864 147.492 103.044 147.102 103.374C146.802 103.644 146.802 104.844 147.042 104.994C147.732 105.414 148.632 105.474 149.442 105.654ZM140.831 104.934C141.761 105.564 142.211 106.104 142.751 106.224C143.561 106.404 144.192 105.834 143.981 105.024C143.831 104.424 143.231 103.674 142.721 103.524C142.331 103.404 141.731 104.214 140.831 104.934ZM147.192 107.095C146.502 106.434 146.142 105.804 145.632 105.684C144.732 105.474 144.132 106.194 144.312 106.975C144.432 107.515 145.122 108.085 145.692 108.325C145.872 108.445 146.472 107.725 147.192 107.095ZM26.4814 160.804C27.0515 161.464 27.4416 161.914 27.8316 162.364C28.2217 161.824 28.8218 161.284 28.9118 160.714C28.9718 160.324 28.2217 159.844 27.8316 159.393C27.4716 159.784 27.0815 160.174 26.4814 160.804ZM136.81 90.8618C136.21 91.7319 135.58 92.272 135.67 92.6621C135.79 93.1721 136.39 93.7422 136.9 93.9223C137.14 94.0123 138.01 93.2322 138.01 92.8421C138.01 92.302 137.44 91.7919 136.81 90.8618ZM62.7276 193.689C62.5176 193.809 62.3075 193.929 62.0975 194.049C62.3375 194.59 62.5776 195.16 62.8176 195.7C63.0877 195.43 63.6578 195.04 63.6278 194.86C63.4777 194.439 63.0577 194.079 62.7276 193.689Z" fill="#BEB5A8"/>
<path d="M15.7721 145.918C12.3515 143.938 9.92112 141.417 8.12082 138.297C5.00028 132.776 3.41001 126.925 5.06029 120.594C6.05046 116.813 8.0608 113.753 11.8114 112.132C12.1415 111.982 12.4716 111.862 12.8016 111.772C12.9816 111.712 13.1917 111.712 13.6118 111.652C13.6118 123.084 13.4617 134.456 15.7721 145.918Z" fill="#BEB5A8"/>
<path d="M160.693 77.7501C160.723 77.6601 160.753 77.5401 160.753 77.45C160.513 74.5995 161.023 74.2095 163.633 75.3497C163.693 77.45 163.783 77.5401 165.674 77.5401C165.674 78.4702 165.674 79.3704 165.674 80.3905C164.653 80.4205 163.483 80.4206 163.783 81.7708C163.903 82.3709 164.654 82.851 165.104 83.3911C165.224 83.301 165.314 83.211 165.434 83.121C165.434 83.9912 165.434 84.8613 165.434 85.8815C164.834 85.7315 164.353 85.6414 163.873 85.5214C163.543 84.6213 164.173 83.031 162.313 83.241C161.563 83.331 160.993 83.6011 161.053 84.5613C161.143 86.1515 162.283 85.9715 163.513 85.9715C163.213 87.8018 166.184 88.942 164.233 91.4324C163.933 89.7821 163.483 88.3719 161.533 89.3321C161.323 88.882 161.053 88.5219 161.053 88.1619C161.023 86.8416 160.873 85.7915 159.073 86.0615C158.772 86.0915 158.022 85.3714 158.052 85.0413C158.172 83.181 157.332 82.941 155.532 83.7211C155.412 82.5509 155.292 81.5307 155.172 80.3305C156.072 80.4205 156.702 80.4206 157.302 80.5706C157.632 80.6606 158.172 81.0807 158.142 81.2607C157.752 83.5411 159.403 83.091 160.753 83.211C160.753 82.6109 160.843 81.9808 160.723 81.4407C160.633 81.1107 160.273 80.6306 159.973 80.5706C157.692 80.0905 157.572 79.9405 158.142 77.5101C158.983 77.5701 159.853 77.6601 160.693 77.7501C160.753 78.2602 160.573 78.9203 160.843 79.3104C161.173 79.8204 161.803 80.2705 162.403 80.5106C162.733 80.6606 163.513 80.4506 163.633 80.2105C164.143 79.1003 163.123 77.7501 161.893 77.7801C161.473 77.8101 161.083 77.7801 160.693 77.7501Z" fill="#BEB5A8"/>
<path d="M149.954 83.5122C149.714 84.4424 149.443 85.3725 149.203 86.3027L149.233 86.2727C148.783 86.2127 148.273 86.2727 147.943 86.0626C147.433 85.7326 146.623 85.1925 146.653 84.7724C146.743 83.2422 146.023 82.9721 144.763 83.1221C144.583 83.1521 144.373 83.0921 144.073 83.0621C143.953 82.492 143.923 81.8919 143.682 81.3518C143.502 80.9618 143.052 80.3917 142.782 80.4217C141.732 80.5417 141.252 79.9416 141.162 79.1014C141.102 78.5914 141.522 77.6612 141.762 77.6312C142.362 77.5712 142.992 77.9612 143.622 78.2013C143.742 78.2613 143.803 78.4113 143.893 78.5313C143.743 79.1014 143.592 79.6715 143.412 80.2716C144.433 80.3617 145.543 80.1816 146.203 80.6617C146.713 81.0218 146.623 82.192 146.773 82.9421C147.793 83.1221 148.873 83.3322 149.984 83.5422L149.954 83.5122Z" fill="#BEB5A8"/>
<path d="M149.978 83.569C149.948 83.359 149.888 83.1789 149.888 82.9689C149.888 82.1888 149.618 80.9286 150.008 80.6885C150.608 80.2984 151.628 80.5985 152.588 80.5985C152.498 81.6787 152.438 82.3388 152.378 83.1189C152.918 83.1189 153.429 83.0289 153.879 83.1489C154.779 83.359 155.499 83.719 155.409 84.9192C155.349 85.9994 154.659 86.0894 153.879 86.0894C152.888 86.0894 152.348 85.6094 152.318 84.5592C152.258 83.0589 151.838 82.9089 149.948 83.509L149.978 83.569Z" fill="#BEB5A8"/>
<path d="M165.524 74.7173C163.874 74.9274 163.874 74.9274 163.454 71.8968C163.124 71.9569 162.794 71.9569 162.494 72.0469C162.164 72.1369 161.834 72.2569 161.503 72.3769C160.333 70.7867 160.363 70.6066 161.894 69.3164C162.674 69.7665 163.724 69.9165 163.634 71.3267C163.604 71.6268 164.594 71.9869 165.434 72.557C165.434 72.977 165.494 73.8472 165.524 74.7173Z" fill="#BEB5A8"/>
<path d="M149.923 89.182C149.683 88.1918 149.473 87.2017 149.233 86.2415L149.203 86.3015C150.133 86.2715 151.213 85.8815 151.964 86.2415C153.224 86.8716 152.414 88.1618 152.294 89.182L152.354 89.122C151.544 89.122 150.733 89.122 149.923 89.122V89.182Z" fill="#BEB5A8"/>
<path d="M151.664 78.8315C152.654 78.2614 153.284 77.6013 153.704 77.7213C154.305 77.8713 155.085 78.5314 155.235 79.1015C155.505 80.2717 154.425 80.6918 153.554 80.5718C152.984 80.5118 152.534 79.7016 151.664 78.8315Z" fill="#BEB5A8"/>
<path d="M146.618 78.1682C146.888 78.0782 147.399 77.8381 147.909 77.7781C148.749 77.6881 149.709 77.8681 149.529 78.9183C149.409 79.5484 148.569 80.5386 148.029 80.5386C147.159 80.5386 146.288 79.8785 146.618 78.1682Z" fill="#BEB5A8"/>
<path d="M160.99 73.0097C160.45 74.57 159.55 75.3501 158.74 74.9C157.839 74.3899 157.629 73.4898 158.17 72.7097C159.1 71.3294 160.03 72.3496 160.99 73.0097Z" fill="#BEB5A8"/>
<path d="M157.963 75.7967C158.083 77.507 157.273 77.657 156.373 77.747C155.203 77.8371 155.203 76.9069 155.293 76.2468C155.353 75.7367 156.013 74.8966 156.283 74.9266C156.943 75.0466 157.573 75.5867 157.963 75.7967Z" fill="#BEB5A8"/>
<path d="M151.479 77.7487C149.829 77.7487 149.589 76.9086 149.649 76.1284C149.679 75.7684 150.459 75.1983 150.789 75.2583C151.389 75.3783 151.899 75.9184 152.439 76.2485C152.079 76.8186 151.689 77.4187 151.479 77.7487Z" fill="#BEB5A8"/>
<path d="M153.464 75.2274C153.164 74.6573 152.594 74.0572 152.594 73.4871C152.624 72.977 153.314 72.527 153.704 72.0469C154.184 72.557 154.964 73.007 155.054 73.5471C155.114 74.0572 154.394 74.6873 154.034 75.2574C153.854 75.2274 153.644 75.2274 153.464 75.2274Z" fill="#BEB5A8"/>
<path d="M151.152 72.5896C150.402 71.8994 149.922 71.4494 149.172 70.7592C150.012 70.3092 150.642 69.8291 151.332 69.6791C151.572 69.6191 152.322 70.3992 152.262 70.6692C152.112 71.2693 151.602 71.8094 151.152 72.5896Z" fill="#BEB5A8"/>
<path d="M158.112 70.9663C157.482 71.4164 156.822 71.8665 156.192 72.2865C155.862 71.7464 155.112 71.0263 155.262 70.6663C155.892 69.076 156.912 70.3062 157.782 70.4262C157.902 70.6062 158.022 70.7863 158.112 70.9663Z" fill="#BEB5A8"/>
<path d="M139.359 77.4197C139.359 76.4896 139.359 75.5594 139.359 74.6293C139.479 74.5692 139.599 74.5092 139.719 74.4492C140.11 74.8693 140.89 75.3794 140.86 75.7394C140.77 76.3996 140.17 76.9697 139.779 77.5998C139.629 77.5397 139.509 77.4797 139.359 77.4197Z" fill="#BEB5A8"/>
<path d="M157.392 154.203C156.162 156.063 155.682 156.123 154.602 154.593C155.502 154.473 156.312 154.353 157.392 154.203Z" fill="#BEB5A8"/>
<path d="M162.014 67.2466C161.654 66.7666 161.594 66.7066 161.594 66.7066C162.014 66.1065 162.434 65.5064 162.854 64.9062C163.034 65.1163 163.424 65.4163 163.394 65.4763C163.004 66.0464 162.554 66.5865 162.014 67.2466Z" fill="#BEB5A8"/>
<path d="M99.6953 112.615C98.1051 112.675 96.7848 112.645 95.4946 112.825C91.0238 113.485 87.2432 115.376 84.3927 118.976C84.3327 119.066 84.2727 119.156 84.2127 119.216C83.5826 119.486 82.9525 119.726 82.3223 119.997C82.2623 119.276 81.9323 118.436 82.1723 117.866C83.2225 115.436 84.9028 113.455 87.1232 112.015C94.1444 107.484 101.406 107.904 108.607 111.415C110.377 112.285 111.907 113.635 113.438 114.896C114.098 115.436 114.638 116.276 114.938 117.086C115.088 117.536 114.788 118.376 114.398 118.736C114.188 118.946 113.288 118.676 112.898 118.376C111.787 117.596 110.737 116.666 109.417 115.616C109.417 117.596 109.537 119.216 109.387 120.837C109.207 123.087 108.277 125.007 106.236 126.148C103.116 127.888 99.9954 126.718 98.5551 123.267C97.2649 120.147 97.4749 117.026 98.9152 113.996C99.1252 113.605 99.3053 113.275 99.6953 112.615ZM100.295 116.846C101.136 117.716 101.586 118.556 102.216 118.736C103.236 119.036 103.836 118.046 103.746 117.236C103.686 116.576 102.996 115.736 102.426 115.496C102.006 115.376 101.256 116.216 100.295 116.846Z" fill="black"/>
<path d="M53.9024 117.566C53.7223 119.486 53.7223 120.927 53.4523 122.307C52.7622 125.667 50.3618 127.678 47.4513 127.498C44.9908 127.318 42.7705 124.677 42.4404 121.557C42.2004 119.186 42.5604 117.386 44.0607 113.605C42.5004 113.605 40.9402 113.395 39.4699 113.635C35.2092 114.385 31.5485 116.276 28.8481 119.846C28.518 120.296 27.6479 120.356 27.0178 120.597C26.9278 119.906 26.5677 119.096 26.8077 118.556C28.488 114.926 31.2185 112.225 34.9991 110.875C42.6504 108.114 49.4616 109.615 55.3126 115.196C56.2428 116.066 56.9029 117.236 57.503 118.376C57.683 118.736 57.413 119.576 57.0829 119.906C56.8729 120.116 56.0327 119.876 55.6727 119.606C55.1026 119.126 54.6525 118.436 53.9024 117.566ZM44.7808 118.016C45.831 118.766 46.5511 119.636 46.9712 119.516C47.5713 119.336 48.2914 118.436 48.3214 117.836C48.3514 117.326 47.4213 116.366 46.9112 116.366C46.3711 116.336 45.801 117.176 44.7808 118.016Z" fill="black"/>
<path d="M119.315 99.1416C119.345 100.642 118.295 101.182 117.185 100.612C109.653 96.5611 101.582 95.5409 93.2405 96.4111C88.7697 96.8612 84.569 98.2114 80.7283 100.672C80.2482 100.972 79.168 101.032 78.808 100.732C78.0278 100.072 78.5979 99.2916 79.2281 98.6915C82.7387 95.2709 87.0894 93.6206 91.8002 92.9005C101.102 91.4902 109.893 92.9005 117.995 97.8813C118.565 98.2414 118.985 98.8415 119.315 99.1416Z" fill="black"/>
<path d="M69.0619 175.026C63.841 175.056 59.7003 174.096 56.0097 171.395C55.2296 170.825 54.5094 170.195 55.1996 169.175C55.8597 168.215 56.6698 168.755 57.4199 169.205C63.1209 172.535 69.1219 172.445 75.273 170.855C81.6641 169.205 87.125 165.904 91.8958 161.403C92.2259 161.103 92.4959 160.623 92.886 160.503C93.5161 160.293 94.2062 160.293 94.8964 160.203C94.8363 160.863 95.0164 161.823 94.6263 162.153C92.0459 164.584 89.4954 167.074 86.6749 169.175C81.274 173.195 75.093 175.116 69.0619 175.026Z" fill="black"/>
<path d="M55.6797 139.649C56.1298 137.969 56.4898 136.259 57.0899 134.638C59.3403 128.337 61.6807 122.066 64.0511 115.825C64.2311 115.345 65.0113 115.075 65.4914 114.715C65.7014 115.405 66.2415 116.185 66.0915 116.785C65.0113 121.106 63.8711 125.367 62.6409 129.627C61.9808 131.878 61.1706 134.068 60.3905 136.289C58.8002 140.759 60.5105 144.12 65.1013 145.38C65.1913 145.41 65.2813 145.44 65.4013 145.47C66.3315 145.65 67.0516 146.07 66.9016 147.15C66.7216 148.261 65.8514 148.591 64.8913 148.501C62.3108 148.231 60.1204 147.09 58.3501 145.2C56.8799 143.64 55.8897 141.899 55.6797 139.649Z" fill="black"/>
<path d="M42.0559 94.6719C46.4367 94.7919 51.5075 95.632 55.9483 98.7526C56.4884 99.1126 57.0885 99.5027 57.3885 100.043C57.6586 100.523 57.8686 101.513 57.5986 101.753C57.2085 102.113 56.3384 102.263 55.7983 102.053C54.6281 101.663 53.6079 100.883 52.4377 100.433C42.476 96.7422 32.9644 97.7324 23.8728 103.133C23.4227 103.403 22.7326 103.253 22.1325 103.283C22.1925 102.653 21.9825 101.753 22.3425 101.453C23.6928 100.283 25.103 99.1426 26.6633 98.3025C31.164 95.8421 36.0549 94.8219 42.0559 94.6719Z" fill="black"/>
<path d="M122.677 181.478C122.677 182.768 122.047 183.128 121.117 182.618C120.937 182.528 120.757 182.408 120.637 182.258C118.236 179.107 115.836 175.957 113.465 172.806C113.255 172.536 113.015 172.116 113.105 171.876C113.255 171.426 113.585 170.766 113.946 170.676C114.306 170.586 114.936 171.036 115.206 171.396C116.706 173.496 118.056 175.717 119.587 177.787C120.307 178.747 121.357 179.467 122.167 180.367C122.467 180.697 122.557 181.238 122.677 181.478Z" fill="black"/>
<path d="M106.056 193.478C105.516 193.718 105.036 194.078 104.555 194.048C104.195 194.048 103.775 193.598 103.535 193.268C101.555 190.778 99.6046 188.257 97.6543 185.737C97.4142 185.437 97.0542 185.107 97.0242 184.747C96.9642 184.177 97.0842 183.577 97.1442 182.977C97.7143 183.097 98.5244 183.007 98.8545 183.367C99.9647 184.567 100.955 185.887 101.945 187.207C103.145 188.858 104.315 190.538 105.456 192.218C105.636 192.458 105.726 192.818 106.056 193.478Z" fill="black"/>
<path d="M114.909 184.238C112.449 184.688 111.368 182.707 109.988 181.537C108.728 180.487 107.858 178.927 106.988 177.487C106.718 177.036 106.958 176.256 106.958 175.656C107.528 175.866 108.308 175.926 108.668 176.316C109.898 177.787 110.888 179.527 112.209 180.907C113.289 182.017 114.729 182.797 115.989 183.728C116.199 183.878 116.499 183.908 116.619 184.088C116.949 184.598 117.219 185.168 117.429 185.738C117.459 185.768 116.799 186.248 116.619 186.158C116.079 185.888 115.629 185.498 115.179 185.078C115.059 184.928 115.029 184.628 114.909 184.238Z" fill="black"/>
<path d="M112.172 191.079C110.792 191.559 110.012 191.169 109.171 189.819C107.791 187.598 105.991 185.648 104.341 183.578C103.951 183.067 103.38 182.617 103.17 182.047C102.99 181.597 103.26 180.997 103.32 180.457C103.83 180.577 104.551 180.487 104.821 180.817C107.041 183.428 109.231 186.068 111.302 188.798C111.782 189.399 111.842 190.329 112.082 191.139C112.142 191.109 112.172 191.079 112.172 191.079Z" fill="black"/>
<path d="M133.422 171.756C132.642 171.336 132.162 171.215 131.892 170.915C129.642 168.515 127.421 166.085 125.201 163.654C124.901 163.324 124.511 162.934 124.511 162.544C124.481 162.064 124.691 161.374 125.021 161.164C125.291 160.984 126.101 161.194 126.371 161.524C128.741 164.104 131.022 166.745 133.332 169.355C133.602 169.655 133.962 170.015 133.962 170.345C133.962 170.765 133.632 171.185 133.422 171.756Z" fill="black"/>
<path d="M131.591 160.685C130.241 161.555 129.431 160.595 128.68 159.845C128.38 159.545 128.44 158.915 128.32 158.435C128.86 158.375 129.521 158.075 129.941 158.285C131.291 158.915 132.611 159.635 133.811 160.475C135.071 161.375 136.182 162.425 137.322 163.475C138.072 164.166 139.242 165.066 138.222 166.026C137.292 166.926 136.632 165.606 136.002 164.976C134.831 163.775 133.691 162.545 132.491 161.345C132.281 161.045 131.891 160.865 131.591 160.685Z" fill="black"/>
<path d="M58.3731 161.195C57.0529 161.165 56.4828 160.294 57.0229 159.484C58.2831 157.594 59.6633 155.764 61.1036 153.993C61.3136 153.723 62.1538 153.933 62.6939 153.933C62.6338 154.443 62.7239 155.043 62.4838 155.464C61.6437 156.964 60.7135 158.434 59.7533 159.844C59.3333 160.444 58.6732 160.894 58.3731 161.195Z" fill="black"/>
<path d="M85.8898 157.833C85.4098 157.593 85.0497 157.473 84.8096 157.263C83.4894 156.063 82.1992 154.803 80.879 153.602C80.2189 152.972 80.0688 152.282 80.789 151.682C81.5091 151.082 82.0492 151.442 82.6793 152.072C83.8495 153.272 85.1997 154.292 86.3999 155.433C86.73 155.733 87.18 156.363 87.06 156.633C86.91 157.143 86.3099 157.443 85.8898 157.833Z" fill="black"/>
<path d="M79.438 157.383C79.468 158.403 78.4478 159.123 77.8177 158.523C76.1674 157.023 74.7272 155.343 73.2569 153.632C73.1069 153.452 73.3469 152.612 73.647 152.402C73.947 152.192 74.6972 152.222 74.9372 152.462C76.3774 153.812 77.7277 155.283 79.0779 156.723C79.2879 156.933 79.378 157.233 79.438 157.383Z" fill="black"/>
<path d="M138.314 146.582C138.854 146.882 139.304 147.062 139.664 147.362C141.015 148.472 142.395 149.553 143.625 150.753C143.955 151.083 143.865 151.833 143.985 152.403C143.415 152.463 142.635 152.763 142.305 152.523C140.655 151.233 139.124 149.823 137.594 148.412C137.384 148.232 137.324 147.662 137.444 147.362C137.564 147.092 137.984 146.882 138.314 146.582Z" fill="black"/>
<path d="M55.886 156.752C55.706 157.172 55.616 157.442 55.4359 157.682C54.6558 158.822 53.9057 160.022 53.0055 161.072C52.6154 161.523 51.6853 161.943 51.2052 161.763C50.215 161.402 50.6651 160.562 51.0852 159.902C51.9253 158.672 52.7355 157.412 53.6656 156.242C53.9357 155.912 54.6258 155.762 55.1059 155.822C55.4059 155.882 55.646 156.452 55.886 156.752Z" fill="black"/>
<path d="M94.9201 155.702C94.7101 155.972 94.5 156.452 94.17 156.572C93.8399 156.692 93.2698 156.602 92.9698 156.392C91.7396 155.462 90.5693 154.502 89.4592 153.452C89.1591 153.182 88.9491 152.341 89.1291 152.101C89.3992 151.711 90.3293 151.291 90.5394 151.441C92.0096 152.581 93.3898 153.872 94.7701 155.132C94.8301 155.222 94.8301 155.402 94.9201 155.702Z" fill="black"/>
<path d="M44.875 162.694C45.5351 160.473 46.4053 158.733 48.3556 157.803C48.7156 157.623 49.2557 157.803 49.7058 157.803C49.6758 158.253 49.7658 158.793 49.5558 159.153C48.7156 160.593 47.8155 162.003 46.8553 163.354C46.6453 163.624 45.9852 163.894 45.7451 163.744C45.3251 163.534 45.115 162.994 44.875 162.694Z" fill="black"/>
<path d="M149.891 89.1523C150.701 89.1523 151.511 89.1523 152.322 89.1523C152.352 89.7524 152.232 90.3826 152.472 90.8926C152.652 91.3127 153.312 91.8528 153.642 91.7928C154.962 91.5228 155.142 92.2129 155.232 93.233C155.292 93.8031 155.442 94.3732 155.562 94.9733L155.592 94.9433C154.692 94.7633 153.762 94.5833 152.742 94.4032C152.772 94.4332 152.652 94.3432 152.652 94.2832C152.712 92.6629 152.712 91.4027 150.341 91.5228C149.111 91.5228 149.801 89.9925 149.891 89.1523Z" fill="black"/>
<path d="M101.676 156.572C101.556 156.752 101.376 157.202 101.076 157.292C100.716 157.412 100.116 157.412 99.8759 157.172C98.7957 156.242 97.7755 155.222 96.8154 154.142C96.5753 153.872 96.4853 153.182 96.6654 152.852C96.7854 152.582 97.5955 152.342 97.7755 152.492C99.0958 153.572 100.356 154.742 101.616 155.912C101.676 156.002 101.616 156.212 101.676 156.572Z" fill="black"/>
<path d="M140.98 91.3113C140.139 91.3113 139.569 91.4313 139.089 91.2812C138.729 91.1612 138.189 90.6511 138.249 90.3811C138.519 88.9408 137.559 88.5508 136.599 87.9807C136.119 87.7106 135.819 87.0205 135.639 86.4504C135.579 86.2404 135.999 85.6103 136.239 85.5803C136.719 85.5203 137.349 85.6103 137.739 85.8803C138.009 86.0604 138.039 86.6304 138.069 87.0505C138.159 88.0407 138.339 88.7008 139.629 88.6708C141.61 88.6108 140.559 90.2311 140.98 91.3113Z" fill="black"/>
<path d="M155.563 94.9112C157.544 94.4312 157.514 94.4312 158.114 96.3515C158.264 96.8016 158.774 97.4917 159.104 97.4917C161.414 97.4017 160.934 98.9919 161.054 100.312C159.224 100.582 158.864 100.252 158.444 98.6919C158.294 98.1518 157.544 97.3717 157.124 97.4017C155.533 97.5217 155.143 96.9216 155.563 95.5113C155.623 95.3313 155.593 95.1213 155.593 94.9112C155.593 94.8812 155.563 94.9112 155.563 94.9112Z" fill="black"/>
<path d="M99.2118 194.771C98.2817 194.051 97.2915 193.421 96.4814 192.581C95.4912 191.59 94.591 190.51 93.8109 189.37C93.6009 189.07 93.9309 188.35 94.0209 187.84C94.501 187.99 95.1911 187.96 95.4012 188.29C96.6914 190.24 97.8916 192.221 99.0918 194.231C99.1818 194.381 99.1518 194.621 99.1818 194.801C99.1818 194.831 99.2118 194.771 99.2118 194.771Z" fill="black"/>
<path d="M69.0625 155.163C69.4826 154.562 69.7226 154.232 69.9627 153.902C70.3227 154.172 70.8028 154.352 71.0128 154.712C71.6129 155.703 72.153 156.753 72.6331 157.833C72.8432 158.283 72.7831 158.883 72.8431 159.393C72.213 159.393 71.1929 159.603 71.0428 159.303C70.2327 157.983 69.6926 156.543 69.0625 155.163Z" fill="black"/>
<path d="M143.857 144.511C143.707 145.561 142.717 146.192 142.057 145.681C140.916 144.811 139.836 143.821 138.846 142.771C138.306 142.201 139.026 141.061 139.656 141.451C141.157 142.291 142.477 143.461 143.857 144.511Z" fill="black"/>
<path d="M63.7188 158.974C64.2288 157.684 64.5289 156.694 65.009 155.794C65.159 155.524 65.7291 155.344 66.1192 155.344C66.2992 155.344 66.5992 155.944 66.5692 156.274C66.5092 157.324 66.4192 158.374 66.1492 159.364C66.0291 159.815 65.369 160.115 64.949 160.475C64.5289 159.965 64.1088 159.454 63.7188 158.974Z" fill="black"/>
<path d="M87.2707 196.601C87.0006 196.931 86.8206 197.381 86.4906 197.531C86.2205 197.651 85.6204 197.561 85.4704 197.351C84.9903 196.631 84.5102 195.851 84.3002 195.01C84.2102 194.65 84.6902 194.11 84.9003 193.66C85.2903 193.87 85.8605 193.96 86.0705 194.29C86.5206 194.92 86.8506 195.731 87.2707 196.601Z" fill="black"/>
<path d="M155.175 100.195C152.564 100.255 152.384 100.075 152.624 97.7041C155.145 97.014 155.535 97.3741 155.175 100.195Z" fill="black"/>
<path d="M146.918 92.9635C146.678 92.0033 146.948 91.6133 148.028 91.6133C149.318 91.6133 149.468 92.3034 149.558 93.2936C149.678 94.7038 148.658 94.2537 147.938 94.3438C146.798 94.4938 146.708 93.8037 146.918 92.9635Z" fill="black"/>
<path d="M149.321 100.165C148.541 99.9547 147.611 99.9247 147.041 99.4446C146.711 99.1745 146.711 97.9443 147.071 97.5843C147.401 97.2542 148.601 97.1942 148.931 97.5243C149.441 98.0343 149.531 98.9645 149.801 99.7146C149.621 99.8647 149.471 100.015 149.321 100.165Z" fill="black"/>
<path d="M144.342 100.012C145.032 100.282 145.903 100.432 146.383 100.912C146.653 101.182 146.563 102.292 146.233 102.622C145.903 102.952 144.702 103.072 144.522 102.802C144.072 102.202 143.982 101.302 143.742 100.522C143.982 100.372 144.162 100.192 144.342 100.012Z" fill="black"/>
<path d="M143.469 88.6422C143.949 88.6722 144.459 88.6422 144.909 88.7623C145.389 88.8823 146.139 89.0323 146.259 89.3924C146.469 89.9025 146.439 90.8326 146.109 91.1027C145.719 91.4027 144.909 91.2827 144.309 91.1927C144.129 91.1627 144.009 90.5626 143.919 90.2325C143.769 89.7224 143.649 89.1823 143.499 88.6422C143.499 88.6122 143.469 88.6422 143.469 88.6422Z" fill="black"/>
<path d="M143.619 94.2806C142.419 94.1306 141.069 94.7907 141.009 92.9604C140.979 91.8802 141.579 91.4301 142.599 91.5501C144.399 91.8202 143.409 93.1704 143.619 94.2806Z" fill="black"/>
<path d="M152.501 103.075C151.391 102.775 149.95 103.675 149.77 101.755C149.68 100.885 149.86 100.225 150.91 100.255C152.831 100.315 152.141 101.845 152.501 103.075Z" fill="black"/>
<path d="M143.711 98.7235C143.831 99.7737 143.261 100.104 142.391 100.074C141.4 100.044 141.07 99.3536 141.07 98.4535C141.07 97.5533 141.55 97.2533 142.391 97.2833C143.351 97.3133 143.861 97.7334 143.711 98.7235Z" fill="black"/>
<path d="M143.983 96.3526C143.833 94.7923 144.463 94.4923 145.363 94.4623C146.263 94.4323 146.563 94.9123 146.594 95.7225C146.624 96.6226 146.263 97.2827 145.363 97.1327C144.793 97.0727 144.283 96.5326 143.983 96.3526Z" fill="black"/>
<path d="M152.14 97.282C151.39 97.132 150.52 97.132 149.92 96.7419C149.65 96.5619 149.71 95.3617 150.04 95.0016C150.34 94.6416 151.51 94.4615 151.72 94.7316C152.17 95.2717 152.29 96.1418 152.531 96.862C152.38 97.012 152.26 97.132 152.14 97.282Z" fill="black"/>
<path d="M149.441 105.655C148.631 105.475 147.73 105.385 147.04 104.995C146.8 104.875 146.8 103.645 147.1 103.375C147.49 103.045 148.541 102.865 148.841 103.135C149.351 103.615 149.531 104.455 149.831 105.175C149.711 105.355 149.561 105.505 149.441 105.655Z" fill="black"/>
<path d="M138.642 97.1038C138.612 96.3537 138.462 95.5735 138.642 94.8834C138.702 94.6434 139.602 94.4633 140.082 94.5233C140.922 94.6134 141.102 95.4235 140.772 97.2538C140.052 97.1938 139.332 97.1338 138.612 97.0738L138.642 97.1038Z" fill="black"/>
<path d="M140.828 104.933C141.728 104.213 142.358 103.433 142.718 103.523C143.259 103.673 143.829 104.423 143.979 105.023C144.189 105.833 143.559 106.403 142.748 106.223C142.208 106.073 141.758 105.563 140.828 104.933Z" fill="black"/>
<path d="M147.194 107.093C146.474 107.693 145.873 108.443 145.693 108.353C145.123 108.083 144.463 107.543 144.313 107.003C144.133 106.223 144.733 105.503 145.633 105.713C146.114 105.803 146.504 106.463 147.194 107.093Z" fill="black"/>
<path d="M26.4766 160.805C27.0767 160.175 27.4667 159.785 27.8568 159.395C28.2469 159.845 28.967 160.325 28.937 160.715C28.847 161.315 28.2469 161.825 27.8568 162.365C27.4367 161.915 27.0467 161.465 26.4766 160.805Z" fill="black"/>
<path d="M136.808 90.8633C137.408 91.7934 137.978 92.3035 138.008 92.8436C138.008 93.2337 137.138 94.0138 136.898 93.9238C136.388 93.7438 135.788 93.1737 135.668 92.6636C135.608 92.2735 136.238 91.7634 136.808 90.8633Z" fill="black"/>
<path d="M138.58 97.0731C138.49 97.4032 138.52 97.8232 138.31 98.0333C138.07 98.2733 137.53 98.4833 137.35 98.3633C137.05 98.1533 136.78 97.7032 136.75 97.3431C136.75 97.1331 137.26 96.743 137.56 96.713C137.89 96.683 138.28 96.9831 138.64 97.1331C138.64 97.1031 138.58 97.0731 138.58 97.0731Z" fill="black"/>
<path d="M62.7239 193.688C63.0539 194.078 63.474 194.438 63.624 194.858C63.684 195.008 63.1139 195.398 62.8139 195.698C62.5738 195.158 62.3338 194.588 62.0938 194.048C62.3038 193.958 62.5138 193.808 62.7239 193.688Z" fill="black"/>
<path d="M160.692 77.7477C161.082 77.7477 161.502 77.8077 161.892 77.7777C163.122 77.7477 164.142 79.0979 163.632 80.2081C163.512 80.4482 162.732 80.6582 162.402 80.5082C161.802 80.2681 161.202 79.8481 160.842 79.308C160.572 78.9479 160.752 78.2878 160.692 77.7477Z" fill="black"/>
<path d="M100.289 116.846C101.279 116.186 102.029 115.376 102.419 115.526C103.02 115.736 103.68 116.606 103.74 117.266C103.83 118.076 103.23 119.067 102.209 118.767C101.579 118.556 101.129 117.716 100.289 116.846Z" fill="black"/>
<path d="M44.7812 118.014C45.8014 117.174 46.3715 116.334 46.9416 116.364C47.4517 116.364 48.3819 117.324 48.3519 117.834C48.3219 118.464 47.6017 119.365 47.0016 119.515C46.5516 119.635 45.8314 118.764 44.7812 118.014Z" fill="black"/>
</svg>
