<svg xmlns="http://www.w3.org/2000/svg" width="200" height="200" fill="none" viewBox="0 0 240 220"><path fill="#beb5a8" d="M72 15c17-6.3 33-2.7 38.9 0 15.8-10.4 26-6 48.9 1.5S200.3 59.8 204 76s9 18 17.1 25.8 5.8 11 2.2 20.7 3.6 14 11.6 19.9c6.4 4.7 1.3 14.3-2 18.5-3.2.8-9.1 3.9-7.4 10 1.8 6-.7 7.6-2.2 7.6q.7.5 3.6 5.3c2.4 4-2 13.2-9.5 17.3a13 13 0 0 1-13.4 0c-1.8 2.3-6.5 7-10.7 8-5.3 1.2-9.4-7-13.6-2.6a20 20 0 0 1-18.5 4.3c-5.1-1.9-6.5-19.4-6.1-21.6.3-1.8-2-4.3-3.2-5.4a62 62 0 0 1-61.8 16.3l-2.4 10.7c-1.8 1.3-7 4-13.4 4.9-8 1-10.4-9.2-12-7.8a19 19 0 0 1-17.7-1.4c-6.7-4.7-12.6-1.8-16.9 0s-9.1-5.4-9-6.4c.2-1 3.1-2 3.1-3s1.5-5.3 0-7.9c-1.2-2-5-5.6-6.6-7.1-8.9-1-11.7-3.4-12.8-7.7-1-4.2 5.6-9.8 9.7-13.5 4.1-3.8-2.5-12-6.6-16.7S1.4 130 6.8 126.5s10.5-7.6 2.9-17.8c-7.7-10.2 3.2-25.2 7.6-28 4.4-3 10.2-14.3 14.8-21S50.8 22.8 72 15"/><path fill="#000" d="M162.9 96.8a28 28 0 0 1-7-8.6h.3c-1-1.3-3-2.2-1.9-4.5.1-.1-.7-1-.9-1-1.2.3-1.5-.5-1.9-1.2q-.4-1.3-1.2-2.6a24 24 0 0 1-4.3-9l.9-2-2.1-.5-.4.4-2.1-8.4c-.2-.6.4-1.2.5-1.9q.1-1-.1-1.4c-1.5-1-4.3.4-4.6 2.2-.2 1.4-1.3 2.8.4 4.1v.3q1.1 6.9 4.2 13.2l.6 1.6-.4.3c-3-1.8-6.5-3-8.3-6.4-3.6-1.5-5.3-4.7-7.2-7.6q-2.8-4.6-5.3-9.4l.8-.1.9-1.7-2.4-.8q-1.5-4.3-2.9-9.2h.6l1-1.3-2-1.2-1-2.6c-.2-.5-1-1.2-1.4-1-.5 0-1.2.8-1.3 1.4q-.3 1.8-.1 3.8 1.6 13.2 8.4 24.6a33 33 0 0 0 21 16.1c2 .5 3 1.5 4 3a91 91 0 0 0 25.9 28.6c2.4 1.5 3.9 1.7 6.2.2a7 7 0 0 1 5.7-1.3c4 .7 5.8 3.7 6.6 7.2q2.9 13.4-6.6 23-4.7 5-11.4 7.2-1.4.3-2.8 0c-1.9-.2-2.8.3-3.6 2q-1 3-2.4 5.8a70 70 0 0 1-34.9 36.8A46 46 0 0 1 103 199a48 48 0 0 1-30.4-18 79 79 0 0 1-14.8-28.7q-7.6-26-4.7-53 .3-4.3 4.2-5.9 10-4.1 16.6-12.9A54 54 0 0 0 82 60.1q1.6-7 3.5-14.1c.2-.6.2-1.6 1.4-1.2.2 0 .6-.7 1-1.1l-1.2-.7c2-4 4.5-7.4 9.4-7.6 2.2 0 4.6.7 6.9 1.3s2.6.6 3.9-1.4c.1-.3.6-.3.7-.5l.7-1.1q-.7-.4-1.3-.5c-.4-.1-.9.3-1.2.2q-4.2-1.6-8.6-3.5l-1-1.1-2 2A19 19 0 0 0 80.3 45q-1 4.6-2.2 9c-.1.7-.8 1-1 1.6q-.6.9-.5 1.8c0 .3.6.7.5 1l-2.3 9.7q-1.4-.5-2-.5c-.2 0-.6.7-.5.9q.6.7 1.8 1.6c-1.7 2.7-3.3 5.8-5.5 8.5a41 41 0 0 1-14.3 10.8c-1.1.5-2 1.3-3.4.7-.2-.1-.9 0-1 .3-1.1 2-3.2 2-5.1 2.4q-1.9.3-1.8 2 .2 1.9 2 1.8t3.8-.3L47.6 109c-1-.1-2 0-1.9 1.5q.1 2.3-2.3 2.4-1 .1-1.7.8-.4.5-1 .8c-3 1-4.4 3.7-6.5 5.7q-.4.6-.1 1.4 1 2.7 3.5.1 1.8-2.4 5-3.6-.7 3.5-1.7 6.3a30 30 0 0 1-7 10.2c-.4.4-.6 1.7-.3 2.1.4.5 1.6.9 2.2.6q5-2.6 7.5-7.8 1.6-3.9 2.8-8.1l1.1-3.4h.6v7c.8 7.8 1.4 15.7 3.6 23.4l2.8 9.2c1 3 1.5 6.1 3.3 8.9 1.5 2.3 2.5 5 3.2 6.6l-.9 2.1c0 .3.4 1 .6 1l2-.8 1.2 3.5.7.9q1.3 1 2.3 2.1 5 6.6 11.4 11.5l5.3 4.6c.3.3 1 .1 1.3.3.8.5 2 1 2 1.6q.6 2.4.2 4.8a7 7 0 0 1-1.6 3.7q-2.7 2.3-6 4.1c-.3.3-1 .5-1.2.3-1.2-1.4-1.9-.8-3.5 0-2.6 1.3-7.2-2.3-7.4-5.3q0-2.6.3-5c0-1.3-.1-2.5-1.6-2.8q-2-.3-2.8 2l-.6 2.7h-2.2q-.3.8-.1 2.5-1.6.5-4 .8-4.5.6-8.3-2-4-3-1.7-7.5.3-.4 0-.9-.5-.4-.8-.4c-1.2.9-3.3.7-3.6 2.7q-.1.5-.6.8-1.4 1.1 0 2.2.4.3.5.8 2.4 7.9 10.7 8.4c3.5.2 7 0 10.3-2 1.1 3.9 4 5.7 7.6 7.1a10 10 0 0 0 9.8.2l3.3-1.7 2.1-1.4v.8l-.5 2c-.3 1.6 1 3.1 2.6 3.1 1.3 0 2.5-1 2.6-2.3l2-15.2.2-.9c23.2 8 42.4 0 59.9-15.2q.1 4 .7 7.5l3.3 14.6c.3 1.4 1 3 2.5 3.3l2.3.6q.3 0 .5.3 5.2 2.6 10.6.8c4.7-1.7 8.8-3.3 11.5-7.5q4 6.2 10.8 5.2a15 15 0 0 0 10.2-6.6c2.5 3.2 5.2 3.9 7 1.8-2.2 0-3.2-1.3-3.5-3v-3q.2-1 0-2.3-.1-.6-.7-1l-1.2.8-1 1.7-3-4.5 2.1-.4c.2 0 .2-1 0-1.2l-1.7-.3c-.1-.7 0-1.8-.5-2.4s-1.4-1-2.2-1.4c-.2-.1-.8 0-.8.2q-.3.6-.1 1.3l.3 1.1-.8 5.1q-.2 1.5 1.3 2 2 .6 1.8 3 0 2-2 2.1-.5 0-1 .5c-1.9 2.5-4.3 2.8-7.1 1.9q-3-.8-4-3.5l1.4-1.7-1.9-1v-4.6q0-2.5-2.1-2.5-2.3 0-2.4 2.3l-.6 4q-.2.5-.6.8c-2 .8-2 .9-.7 2.7l-3 3.2-2.9 2.6c-1-.4-1.8-.9-2-.6q-.6.6-1 1.9.2 0 0 0l-2.6.9q-2.4.7-2.8-1.9c0-.4-.8-1-1.2-1q-2.7 0-2.7-2.7c0-.4-.6-1.3-.9-1.3-1.3 0-1.7-.9-2-1.8q-.7-1.8-1.2-3.8c-.3-1.4-1.1-2.8.1-4.3.1-.2-.3-1-.6-1.3-1-1.2-1-4.8.3-5.8q.5-.4.4-1.2-.1-.4-.7-.7l-1.2-.3c.2-1.4 0-3 .8-4 1.2-2 3-3.5 4.6-5.3l.5-.9 1.3-3.3.4.4 2-.1-.7-2.3 5.2-11 .7-.6c1.6-.6 1.7-.8.8-1.8l10.3-3.7q.5.8 1.2 1.2c.1.1 1-.5 1-.6q-.2-.7-.8-1.7c1-.5 2-2.3 4-1.8q.5-.2.8-.9.3-2.7 3-3 .8-.3 1-1c-.5-1.9 1-2.7 1.6-3.8q1 .4 1.8.5c.2 0 .6-.8.5-.9l-1.4-1.2q1.2-3.6 2.1-7.8c1-5.4 1-10.7-1.3-16a13 13 0 0 0-18-6.2c-.5.3-1.6.3-2.1 0-4.7-3.2-9.5-6.3-12.2-11.7z"/><path fill="#000" d="m222.9 168.4-1.4-1.7 1.8-1 .3.4c.7-3.4 3.5-4.4 5.5-5.4l.3-2.6 2.3.6c.7-.8 2.3-1.5 1.3-3.4-.1-.3.4-1.1.6-1.1 1.5 0 1.5-1 1.5-2v-3.7l-2.2-1 .8-1.8.6-.2-6.5-6-.1.4-2.2.2.1-2.1-1.8-2-.1.5-2.1-.3.9-2.1a14 14 0 0 1-1.8-8.8l.9-5c.2-.6.9-1.1 1.2-1.7 2-4.1 1.2-9.2-2-12.5-1.7-1.7-3.7-3.1-5.3-5-2.5-2.7-4.6-5.7-7.2-8.4a8 8 0 0 1-2-4.4c-.4-2.3-1.5-4.5-2.4-6.8-1.4-3.5-2-7.1-3.3-10.6q-.6-1.3-1.4-2.4-.4-.4-.4-.8c.2-3.7-2-6.6-3.1-9.9l-2-4.2-2.4-.6.7-1.8h.4A75 75 0 0 0 159 18.4l-2 .5-.3-2c-5-2.5-10.6-4.7-16.6-5.5-6.3-1-12.7-1-18.9 1.1l-4.5 2.2-2 .4c.1-.8-.1-2 .2-2.3 2-1.4 4.1-3 6.4-3.9a38 38 0 0 1 22.1-.9 81 81 0 0 1 55.2 45.6c4 8.1 6.6 16.8 9.2 25.5l2.2 6.4q3 8 9.7 13.3 2.2 1.7 4.2 3.7c5 5 5.6 11 3 17.4q-1 2.4-1.8 4.9-1.2 4.8 2.2 8.5 2.2 2.2 4.7 4.2c3 2.4 5.9 4.9 6.8 8.8 1.7 7-1 13.6-7.3 17.5l-3.2 2.2c-1.7 1.3-1.8 3 0 4.1q2.4 1.2 5.1 1.7c.4.1 1-.2 1.3 0q1 .6 1.5 1.4c.1.3-.6 1.2-1 1.4a9.6 9.6 0 0 1-12.3-6.3M81.4 13v2.1c0 .2-1 .4-1 .3q-.6-.7-1.3-2-4 1.5-8.3 3.4-.6.4-.8 1.3c0 1-.7 1.6-1.5 1-1.1-.9-1.8-.2-2.6.3A65 65 0 0 0 43.7 42c-.5.7-1.3 1.5-.3 2.5l-1 1.4q-.8.5-1.4 1.1l-5.3 11.4q-.2.6 0 1 .5 1.5-1 1.9-.7.1-1.2.8-1.5 2-3.1 3.8l-6 5-.8 1.8-2-1.6q-1.4.1-3.4-.5a9 9 0 0 1-3.1-2.2c-.4-.4-.2-1.3-.2-2 .5 0 1.2-.3 1.7 0 3.4 1.3 6.2 0 8.8-2 3.7-2.6 5.6-6.7 7.5-10.7 2.3-4.7 4.2-9.7 6.9-14.2A63 63 0 0 1 81.7 9a36 36 0 0 1 22.4 2 19 19 0 0 0-10.3-7.4c-2.8-.8-5.7-1-8.5-1.4q-1-.3-1.7-.8.7-.6 1.6-1Q98-1.7 106.6 8q1 1.3 1.8 2.9c.6 1 .7 2.2-.4 2.8-.6.4-1.6.1-2.6.1-1 1.9-1 1.7-3.4.7q-3.5-1.5-7.4-2-6.8-.8-13.2.6m-66.8 97.1c1.4 2.6 2.5 5.1 1.9 8.2a10 10 0 0 1-3.5 5.7l-4.4 3.6a11 11 0 0 0-4.1 6.3q-1.2 5.7 2.8 9.9l4.5 4.5 3.9 5.1q.2.5 0 1.2l-.4 7.6q-.7.6-1.3 1.7-2.5 4.2-6.9 6.5a5 5 0 0 0-2.6 4.4q-.1 3 2.6 4.5l2.7 1.2q.2-.4.6-.6l1.4-.2c.1 0 .4.7.3.8q-.6.6-1.2.8H6.1q-4.6-.6-5.7-5c-1-4.1.5-7.7 4.2-9.9 3-1.7 5.5-3.9 6.3-7.5.8-3.7-.8-6.5-3.3-9-2.3-2.3-4.9-4.4-6.2-7.5a14 14 0 0 1 2-15.3q2-2.2 4.6-4.2l1.5-1.2c4-3.2 4.2-6.2.6-9.8A16 16 0 0 1 5 98.6a25 25 0 0 1 3.4-10.2 29 29 0 0 1 10.3-11.5l.7-.4c.9-.4 1.8-1.1 2.6 0 .8 1-.2 1.7-1 2.3-3.9 3-6.3 7-8.7 10.7l.7 2-1.5.4q-.5.2-.7.5a14 14 0 0 0 .3 14.3l.3.3zm61.7 2.5q-6 .5-10.5 5-.5.8-1 1.1c-1 .2-2.2.6-2.8.1s-.4-1.7-.5-2.6l.4-.8c7.4-8.6 20.6-10 28.4-1.4q1 1 1.4 2.4c.2.5 0 1.5-.4 1.6s-1.4 0-1.8-.3q-1-1.1-1.9-2.4l-.3.4q-.2 2.2-.6 4.3-1.2 4.7-5.9 4.5a5.4 5.4 0 0 1-5-5.3q.1-3 .5-6.6m65.3 2.5c-.2 1.6 0 3.2-.4 4.6q-1.3 4.8-6 4.5c-2.7-.2-4.8-2.5-5-5.4q-.6-3.5 1.4-6.8a15 15 0 0 0-9.3 2.6q-1.7 1.2-3.3 2.6c-.9.8-1.8 1.3-2.8.4s-.7-2 0-2.9q4.1-4.6 10-6c8.2-1.8 15.4.1 21 6.5l1.5 1.2.5 1q-.4.9-1 .8-2-.3-3.5-1l-2.7-1.9zm-38.9 3.8c0 6-2.3 11.2-4.3 16.3l-2.3 5.5q-.5 1.2 0 2.2a8 8 0 0 0 6.7 4.7c1.2.1 2.4 0 2.5 1.6.2 1.2-.9 2-2.5 2.1l-2-.2q-5-1.5-8-5.7a6 6 0 0 1-.4-5.8q3-6.7 5.3-13.9c.9-2.8.8-6 1-9 .1-1.1.2-2.2 1.6-2.4q2-.2 2.1 1.8zm2 52.2q-6.8.1-12.3-3.8c-.9-.6-2.2-1.4-1.4-2.6.4-.5 2.2-.5 3 0 9.2 5 17.6 3 25.7-2.3l2-1.9c.8-.5 2-1.1 2.5-.9.9.5 1.6 1.7 1.8 2.6 0 .5-1 1.4-1.7 2l-5.1 2.8a28 28 0 0 1-14.5 4M215 199c6-1.1 11-7.7 9.9-13.3-.2-1-.8-2-1-2.6l-2.1-.3.4-1.8q-.7-1.2-1-2.8c0-.5.4-1.4.9-1.7.3-.2 1.3.1 1.7.5 2.3 2.3 4.7 4.8 5.2 8.3 1.3 7.4-4 15-12 16.8q-1.6.4-3.3.3c-.6 0-1.2-.7-1.7-1.2l1.3-1.5q.8-.5 1.7-.7m-63.9-97-1.8-.8a33 33 0 0 0-28-1.4q-1.7.7-3.3 1-1-.2-2.1-.7c.4-.7.6-1.7 1.1-2q9-4.6 19-4.2 7.6.4 14.1 4.2l2 1.4q.4.8.3 1.5-.4.7-1.3 1M26 193.1l1.3 1.4-1.5 1.2q-1.6 3.7-5.6 5.3a3 3 0 0 1-1.9.2q-1-.5-1.9-1.2l1.6-1.5c2.7-1.5 4.6-4.7 1.3-7.5q-1.8-1.6-3.4-3.3a9 9 0 0 1-1.8-11.2q.3-.4.7-.5.6 0 1 .5.6 1.2.7 2.6a7 7 0 0 0 2.3 5.2l2.9 2.7q3 2.4 4.3 6.1"/><path fill="#000" d="m36.8 192.1 1.5 5.5q.1.3 0 .8c-1.7 5.6-7.6 9-13.5 7.6-1-.2-2-1.3-3.2-2.2l1-.4c3.5 1 6.3-.5 8.9-2.3q2.8-2.2 1.8-6-1.3-4.5-1.8-9c-.3-2 1-3.6 3-4.5-1.3 3.4.4 6.2 1.6 8.9l2.1-.5s.4.9.3 1zM75 94a31 31 0 0 1 15.2 4c1 .5 2.4 1.1 1.7 2.4-.6 1.4-2 .7-3 .2q-14-6.2-28 .3c-1 .4-2.3 1.4-3 0s.7-2 1.7-2.6c4.9-3 10.3-4 15.4-4.2m-27.3 40.3-1.2 1.3q-.8-.8-1.1-1.6c-.1-.4.5-.9.9-1.3zm-.5 7q.6.8.7 1.4c0 .3-.8.9-1 .8q-.8-.3-1.2-1.1.1-.7.5-1.6zm-3.2-2.7q-1.2.8-1.6.8c-.4-.1-.8-.8-.8-1.2s.7-1 .8-1zm-9.6-8.7c-.3-.5-.9-1-.8-1.3s.7-.7 1-1q.8.6 1 1.3 0 .7-.4 1.4zm184.2 50-1-1.6c0-.3.7-1 1-1q.8.3 1 1-.1.5-1 1.5M163.1 45.4q-1 .9-1.5 1c-.3 0-.8-.6-1-1 0-.2.6-.9 1-.9q.5 0 1.5.9M189.3 156q-1 1-1.5 1.1-.6-.2-1.1-1c.3-.2.6-.8 1-.8q.5.1 1.6.8m-11.7 50.2h-1.2q-.6-.5-.6-1.2c0-.3.7-.7 1-.6q.7.1 1 .9zM157.4 70.7q.9.8 1 1.4c.1.3-.5 1-.8.9q-.8-.2-1.1-.8.1-.5 1-1.5m26.8 37q-.9-.9-1-1.5c0-.3.6-1 .9-.9q.8.3 1 1 0 .4-1 1.4m-3.8 87.7q-.8-1-.8-1.5c0-.4.6-1 1-.9q.7.3 1 1-.2.6-1.2 1.4m-9.9-12.7q-1 .8-1.5.8-.6-.4-.8-1.2c0-.2.7-.8 1-.7q.5.2 1.3 1.1M44 83.4q-.7.8-1.2 1-.6-.2-1.1-1c.3-.2.6-.8 1-.9q.5.2 1.4.9M32.6 71.8q-1.1.8-1.6.9c-.3 0-.6-.7-1-1l1.2-1zm99.6-57.7q-.9 1-1.3 1-.7-.1-1-1s.5-.8.8-.8q.5.1 1.5.8M205 102l-1.5.8c-.3 0-.6-.6-1-.9.4-.3.7-.9 1.1-1l1.3 1m-57.4-87.6q-.9.9-1.5.9c-.3 0-.9-.7-.8-1q.3-.6 1-.9.4.1 1.3 1m23 160.6q-1 .9-1.4 1-.6-.3-1-1 .3-.6.8-.9.5.1 1.6.9M23.3 108.2q.9 1 1 1.4-.3.7-1 1c-.3 0-1-.6-1-.9s.6-.8 1-1.5m36.3-39.7q-1.1.8-1.6.8-.6-.2-.8-1c0-.3.6-.9.9-.8q.5.1 1.5 1m18.6-50.1q-1 .8-1.3.8-.6-.2-1-.8.4-.6 1-1 .3.1 1.3 1M23.4 88.3q-.9-.9-.9-1.3.5-.6 1.1-1l.8 1q-.1.6-1 1.3M155 68.4q-1 .8-1.4.8-.6-.3-1-1l1-.8q.6.1 1.3 1M26.3 174q-.9-1-1-1.3.1-.8.9-1c.2-.2 1 .4 1 .7q-.1.5-1 1.6m181.1-47 .9 1.6q-.2.6-1 1l-1-1q.2-.7 1-1.6m-44.3-58.7q-1 .9-1.4.9-.6-.3-1-1c.3-.3.6-.9 1-.9zm26.9-11.8c-.7.4-1 1-1.5 1-.3 0-1-.7-.9-1q.3-.7 1-1 .4.1 1.4 1M66.7 22.1q-1 .9-1.4.9-.7-.4-1-1.1c0-.1.6-.8.8-.8q.7.2 1.6 1m129.5 58.6q-.9-.8-1-1.4.2-.5.8-1 .8.4 1 1-.1.5-.8 1.4M56.6 170.5c.5.5 1.1 1 1 1.2q-.2.5-.8 1.1-.7-.4-1-1zm148.5-83.9q-1 .8-1.6.9-.4-.2-1-1l1.3-.8q.4.1 1.3 1M117 22.1q-1 .9-1.5.9c-.3 0-.6-.6-1-1l1-.8q.6.1 1.4 1M51.7 60.5q-.9.8-1.4.8-.5-.2-.9-1c.3-.2.6-.8 1-.8q.4.1 1.3 1M50.6 172c-.8.4-1.2 1-1.5.9q-.7-.2-1-1c0-.2.6-.9 1-.9q.4.1 1.5 1m139.1-1q-.9 1-1.5 1c-.3 0-.9-.5-.9-.8q.2-.8.8-1 .5.1 1.6.8m-3.8-110.5c-.7.4-1.2 1-1.4.9q-.6-.4-1-1 .5-.6 1-.8.6 0 1.4 1M201 175q-.8.9-1.5 1-.6-.2-.8-1c0-.3.5-1 .8-1q.5.1 1.6 1M161.6 23.5q-.9-.9-1-1.3.2-.7.9-1c.2-.2 1 .4 1 .7zM173 169.8q.8.9.8 1.3-.3.6-1 1l-.8-1q.1-.5 1-1.3M53 177c-.5-.6-1.1-1-1-1.2q.2-.7.8-1.2.8.4 1 1 0 .5-.8 1.3m140.4-78.5-1.3 1q-.7-.4-1.1-1 .5-.6 1-.9.5.2 1.4.9m17.5 81.7c-.4-.8-1-1.2-.9-1.6 0-.3.7-.8 1-.8s1 .6.9 1q-.1.4-1 1.4m-184.6-1.5q.9 1 .9 1.4l-1 1q-.7-.6-.8-1.1 0-.5 1-1.3M143.9 26q-1 .7-1.6.9c-.3 0-.9-.7-.8-1q.2-.6 1-1zm17.5 155c.4.8 1 1.2.9 1.6s-.6.7-1 1q-.6-.6-.9-1.2.1-.4 1-1.3m58.8-56.7q-1 .8-1.6.9c-.3 0-1-.7-.9-1 .2-.3.6-.9 1-1q.5.2 1.5 1.1m-198.7-.2q1-.7 1.4-.8.6.2 1 .8c-.3.3-.7.9-1 1q-.5-.1-1.4-1m189.3 63.7q-.7-1-.8-1.7.2-.6 1-.7c.3 0 .9.5.9.8q-.1.7-1 1.6m7.7-3.1q.8 1 .9 1.5-.2.4-1 1l-1-1.2q.2-.4 1.1-1.3m-11.3-16.1q-.9-1-1-1.5.2-.7 1-1c.2 0 .9.6.9 1q-.1.4-1 1.5m.1-46.5q-.9-.9-1-1.3.2-.5.8-1 .8.4 1 1 0 .4-.8 1.3m-14 68q-.9.8-1.3.9c-.4 0-.7-.6-1-.9q.4-.7 1-1 .4.1 1.3 1m-148-1c.4.6 1 1 .8 1.3q-.3.6-1 1-.6-.5-.8-1 .1-.5 1-1.3m1.1-108q-.7-1.1-.8-1.6c0-.3.8-.9 1-.8q.8.4.9 1-.1.5-1 1.4m118.5 114q-.8-1-.8-1.4.4-.5 1.2-.9c.2.4.7.7.7 1q-.1.6-1 1.3m47.2-1.2q-.9.9-1.3 1-.7-.2-1-1c0-.2.5-1 .8-.9q.5 0 1.5.9M161.4 62.2q-.9-1-1-1.5.4-.7 1.2-.9c.2 0 .8.6.8.9q-.1.5-1 1.5m-.2 136.8q-.8-.9-.8-1.3.3-.8 1-1c.3 0 1 .6 1 1zm20.6-35.3-1.4.8q-.6-.4-1-1 .6-.6 1.1-.8.5.1 1.3 1M115.4 28.5q.9.9 1 1.2-.2.6-.9 1.2-.6-.5-.9-1 .1-.4.8-1.4M77.5 205.1q-1 .9-1.4.9-.6-.3-1-1 .5-.6 1-.8.5.1 1.4 1m91.7-1.4c.4.7 1 1.1.8 1.4q-.3.6-1 1c-.3-.3-.9-.6-.9-1s.6-.8 1-1.4m41.9-41.9q.9.8.9 1.4c0 .4-.6.7-.9 1q-.6-.5-1-1.1.1-.4 1-1.3M38.7 65.5c-.4-.6-1-1.1-.8-1.4.1-.4.7-.6 1-1q.6.5.8 1.1-.1.4-1 1.3m30.7-33.3c.4.7 1 1.1.9 1.4-.1.4-.7.7-1 1-.3-.3-.9-.6-.8-1q0-.4 1-1.4M45.3 162.3q-.9-.9-1-1.3.5-.6 1.1-1 .6.4.8 1-.1.5-1 1.3M176.7 85l-1-1.4q.4-.7 1.1-1c.2 0 .8.6.8.8q0 .5-1 1.5m11.8-3.9q-.9-1.1-1-1.6c0-.3.7-1 1-.9q.8.2 1 1-.1.4-1 1.5m8.7 74.9q-.9.9-1.3 1-.6-.3-1.1-1c.3-.3.6-.9.9-.9q.5 0 1.5.9m13.9-1.8q.8 1 .9 1.6-.2.4-1 .8-.6-.5-.8-1 0-.6 1-1.4m15.2-.4.9 1.5q-.2.6-1 1-.6-.5-.9-1 .1-.5 1-1.5m-163-89.1q-1 .8-1.5.8-.6-.2-.8-1c0-.2.6-.8.9-.8q.5.1 1.4 1m153 48.4c-.6.4-1 1-1.4.9s-.7-.7-1-1q.5-.6 1-.8.5 0 1.4.9M55.7 41.1q-.9 1-1.3 1.1-.6-.1-1.2-.9.4-.6.9-1zm-3.9 42.6-1.3 1q-.6-.4-1-1 .5-.7 1-1zm178.2 66q.9.9 1 1.3-.1.8-1 1c-.2.2-.9-.4-.9-.7q0-.7.9-1.6M78.5 41.4q-.9.9-1.3.9c-.4-.1-.7-.7-1-1q.5-.6 1-.8.5 0 1.3 1M32.6 110c-.8.4-1.3 1-1.6.8-.4 0-.8-.7-.9-1s.7-.8 1-.8q.5.1 1.5 1m10.8 40.2q-1 .9-1.4 1-.6-.3-1.2-1c.3-.3.7-.9 1-.9q.5.1 1.6 1M143.8 41.5q-1 .9-1.5 1c-.3 0-1-.8-.9-1q.3-.7 1-1 .6.1 1.4 1m14.1-1.4c.4.7 1 1.1.8 1.4q-.2.7-1 1c-.2 0-.9-.7-.9-1zm16.4 39.6q-.8.9-1.4 1c-.3 0-1-.7-.9-1q.3-.7 1-1 .4.1 1.3 1m7.8-38.3q-.8.8-1.2 1l-1.1-1 1-1q.6.1 1.3 1m17.6 47.8q.8 1 1 1.6-.2.4-1 1l-.9-1.1q0-.4.9-1.5m-140.1-44q-1 .8-1.5.8-.4-.2-1-1l1.2-.8q.4.1 1.3 1m152.8 102.5q-1 .9-1.4 1-.5-.2-1-.8.4-.8 1-1 .3 0 1.4.8M44.2 98.8c-.8.4-1.2 1-1.6.9s-.8-.7-.8-1.1c0-.2.6-.9 1-.8q.4.1 1.4 1m183.4 48.6c-.6.4-1 1-1.3.9q-.6-.4-1-1c.3-.3.7-.9 1-.9q.5.1 1.3 1m-188.7-36q-.9-.9-1-1.3.3-.6 1-1 .6.4.8 1-.1.4-.8 1.3m161.9 33q-.9.8-1.3.8-.6-.3-1-1 .5-.6 1-.8.5.1 1.3 1m-34-79.9q-1.1.8-1.6.9-.5-.2-1-1 .6-.6 1.2-.8.4 0 1.4.9m15.3 15.1q-1 .9-1.5 1-.6-.3-.8-1.2c0-.2.5-.8.8-.8q.7.1 1.5 1m26.5 64.5q-.8.8-1.4.8c-.4 0-.6-.6-1-.9l1.1-1q.4.2 1.3 1.1m-42.1-64.2q-1 .7-1.5.8c-.3 0-1-.7-.9-.9q.4-.7 1.1-1 .4.1 1.3 1M26.5 144q-.9-.9-1-1.5c-.1-.3.5-.8.8-.8q.8.1 1 .7-.1.5-.8 1.6m20-40.1c-.4-.6-1-1-.9-1.3q.4-.8 1-1c.6-.2 1 .6 1 1q-.2.5-1.1 1.3M38.8 78q.9 1.1 1 1.6-.2.4-1 .9-.6-.4-.9-1 .1-.5 1-1.4m11.5-26.8q.8.9.9 1.3c0 .4-.6.7-.8 1-.4-.3-1-.6-1-1q0-.4.9-1.3m-35.3 79c.4.7 1 1.2.8 1.4q-.3.7-1 1c-.2 0-.9-.7-.8-.9q.1-.5 1-1.5M139.9 14.1q-.9 1-1.3 1-.7-.2-1.2-.9c.3-.3.6-.9.9-.9q.5.1 1.6.8m-3.9 4.1c-.6.4-1 1-1.4.8q-.6-.3-1-1 .5-.6 1-.8.5.1 1.5 1m13.8-1.5q.9.9 1 1.3-.2.6-.8 1c-.4-.2-1-.5-1-.9-.2-.3.4-.7.8-1.4m38.5 56.5q-.9-1-.9-1.4.4-.7 1-1c.3 0 1 .6 1 1zM154.8 76c-.6.4-1 1-1.4.9q-.6-.3-1-1 .4-.6 1-.8.6.1 1.4.8M42.6 61.7q-.9-1-1-1.5c0-.3.7-1 1-.9q.7.4 1 1c0 .3-.6.7-1 1.4m-8.8 109.2q.9 1 .9 1.4-.3.6-1 1c-.3-.3-.9-.6-.9-1q.1-.4 1-1.4M155.2 22c-.6.4-1 1-1.2 1q-.7-.2-1-1c.2-.2.5-.8.9-.9q.4.1 1.3.8m38.2 84c-.7.4-1 1-1.4 1s-.7-.6-1-.9q.4-.6 1-1zm19 65q-.9.9-1.3 1-.7-.2-1-.9c-.1-.2.5-1 .8-1q.5.1 1.5.9M136.2 26c-.7.4-1.1 1-1.4.8q-.6-.4-1-1c.3-.3.7-.9 1-.9s.7.6 1.4 1m22.9.1q-.9.7-1.3.8c-.4 0-.7-.6-1-.9l1.1-.9q.3.1 1.2 1m-80.8-.1q-1 .9-1.4 1-.5-.2-1-.8.4-.6 1-1 .4.1 1.4.8m121.2 93.7q.9 1 1 1.5-.2.8-1 1c-.3-.1-1-.6-1-1q.1-.5 1-1.5M27.6 165q-1 .9-1.6 1c-.3 0-.5-.7-.8-1q.5-.6 1-.9.6.1 1.4 1M155 60.8c-.7.4-1.1 1-1.4.8q-.6-.4-1-1 .5-.5 1.1-.8.4.1 1.3 1M49.1 166c-.4-.7-1-1.1-.9-1.4q.3-.7 1-.9c.3 0 .9.6.9 1q-.1.4-1 1.2m144.3 1.4q-.9.9-1.3 1-.6-.3-1-1c.3-.3.6-.9 1-.9q.4.1 1.3 1M124.7 29.8q-.9.9-1.3 1c-.3 0-.7-.6-1-.8q.3-.8 1-1 .3 0 1.3.8m80.1 87.2q-.9.9-1.3 1-.5-.2-1-.8c.3-.3.5-1 1-1zm-28.5-24.3c-.4-.7-1-1.1-.9-1.4s.6-.9.9-.9 1 .5 1 .8q-.1.5-1 1.5m28.4 63.1c-.6.4-1 1-1.3.9q-.6-.3-1-1 .4-.7 1-.9.4.1 1.3 1M155.2 53.1q-.9.9-1.5.9c-.3 0-.9-.8-.8-1q.3-.6 1-.9.4.1 1.3 1m-17.4 16.7c-.4-.7-1-1.1-.8-1.4q.3-.7 1-1c.2 0 .9.6.8.8q-.1.7-1 1.6m31.5-18.1c.4.7 1 1.1.9 1.4q-.3.6-1 1c-.3-.3-1-.6-1-.9zm-7.5-15.5c.4.7 1 1 .9 1.5 0 .3-.6.6-.9 1q-.6-.5-1-1.2.1-.4 1-1.3M38.8 55l.9 1.5c0 .3-.7.8-.9.7q-.7-.4-1-1 .1-.3 1-1.2M35 92.4c-.4-.7-1-1-1-1.4q.4-.7 1-1c.3 0 1 .6 1 .9q-.1.5-1 1.5m129-50.7q1-1 1.4-1 .6.2 1.2.9c-.3.3-.6.9-1 .9q-.5-.1-1.5-.8m35.5 58c-.4-.7-1-1.1-.9-1.4q.4-.6 1-1c.3.2 1 .6 1 .9s-.6.7-1 1.5M62 58q-.9-.9-1-1.3c0-.3.6-.6.9-1q.6.4 1 1-.1.4-1 1.4M212.4 140q-.9.9-1.4 1-.6-.4-1-1c.2-.3.5-1 .8-1q.7.1 1.6 1M28.7 106c-.7.4-1.1 1-1.4.8q-.6-.1-1-.9l1-.8q.5.1 1.4 1m149.4 68.7q-.8.9-1.4 1c-.3 0-.6-.6-1-.9q.4-.6 1-.9.4.1 1.4.8m-36-127c.4.6 1 1 .9 1.4l-.8 1q-.8-.5-1-1 0-.4.9-1.4M208.6 175c-.7.4-1.2 1-1.4.8q-.5-.3-1-1 .6-.6 1.1-.8.4.1 1.3 1M44 68q-.9.9-1.3 1-.6-.4-1-1c.2-.3.6-1 .9-1zm-2.4 88c.4.5 1 1 .9 1.2q-.4.7-1.1 1-.6-.5-.8-1 .1-.5 1-1.3m-15.4.1c.4.7 1 1.1.9 1.4q-.4.6-1 1-.6-.5-.8-1 0-.5.9-1.3m147.2-85.3c.2.4.7.8.6 1.1s-.6.7-1 1q-.6-.5-.9-1.2.1-.6.5-1.4zm8.6 107.9c-.8.4-1.2 1-1.6.9q-.4-.2-1-1l1.2-1q.4.2 1.3 1.1m7.7.1q-1 .8-1.4.8-.5-.2-1-1 .5-.6 1.1-.8.4 0 1.3 1M54.4 81.4q-.9-1-1-1.5c0-.3.6-.7.9-1q.6.4 1 1 0 .4-.9 1.5m106.6.9q.9 1 .9 1.4-.3.7-1 1c-.3 0-1-.7-.9-1q.1-.5 1-1.4m38.5 78.9q-.9-1.1-1-1.6.3-.6 1-.9c.3 0 1 .6 1 1q-.1.4-1 1.5M173 50.7q-.8-1-.8-1.4c0-.4.6-.7.9-1q.6.5.9 1.1-.1.4-1 1.3m-38.3-18.4q.9.9 1 1.3-.3.7-1 1c-.2 0-1-.5-1-.8q.1-.5 1-1.5m43.4 150.3q-.9.9-1.3.9-.6-.3-1-1 .5-.6 1.1-.9.4.1 1.2 1m6.2 1.5-.9-1.6q.2-.6 1-.8c.3 0 .9.5.9.8q0 .5-1 1.6m-137.6-.8q-1.1.7-1.6.8c-.3 0-.9-.7-.8-1q.4-.7 1.1-.9.3.1 1.3 1m126 4.6q-.7-1.1-.8-1.6c0-.3.7-.8 1-.8s1 .6.9.9q-.1.5-1 1.5m15.3-.1q-.8-.9-.8-1.3.2-.6.8-1 .7.4 1 1-.1.4-1 1.3m4.9-35.5q-.8.8-1.2 1-.6-.3-1.2-1 .5-.6 1.2-.9.4 0 1.3.9M39.2 161q-1.1.9-1.6 1c-.3 0-.8-.7-.8-1s.5-.9.8-.9q.5 0 1.6 1m6.1-6.1c-.2-.4-.7-.8-.6-1.2s.7-.9 1-.8q.6.3 1 1-.1.6-.6 1.4zm-9.9-5q-.9.8-1.5.9c-.3 0-1-.7-.8-1q.1-.6 1-.9.4.1 1.3 1m4.9-47.5q-1 .8-1.5.9-.4-.2-1-1 .6-.6 1.2-.9.4.1 1.3 1M220.1 132q-1 .9-1.5 1-.4-.2-1-1l1.2-.9q.4.1 1.3 1M173 192.5q.7 1 .8 1.5c0 .3-.7.6-1 1q-.6-.7-.8-1.2 0-.4 1-1.3M22.3 159.9q1 .9 1 1.2 0 .8-.9 1.1c-.1 0-.9-.5-1-.8q.1-.5 1-1.5M132 45.4c-.6.4-1 1-1.3.9q-.7-.3-1-1 .3-.6 1-.8.4 0 1.3.9M42.8 194.2q-.9.9-1.3 1c-.3 0-.7-.5-1-.7q.3-.8.9-1c.3-.2.7.3 1.4.7m7.6 0c-.7.4-1.1 1-1.4.9q-.6-.4-1-1 .4-.6 1-.8.5 0 1.4.9m17.9 2.1q.9.9 1 1.3-.3.7-1 1-.6-.2-.9-1 0-.3.9-1.3M150 43q-.7-1-.8-1.6.1-.5.9-.9.6.5 1 1.1-.1.4-1 1.4m47.4 21q-1.1.8-1.5.9-.4-.2-1-1 .5-.6 1.2-.9.3.1 1.3 1m-32.2 136q.7.8.8 1.4-.2.4-1 1l-.9-1.1c0-.3.6-.7 1-1.3m-95.4 5.1q-1 .9-1.4 1c-.4 0-.7-.6-1.1-.9.3-.3.5-1 .8-1q.7.1 1.7 1M172.5 89c-.4-.7-1-1.2-.8-1.5q.2-.6 1-1c.2.3.8.6.8.9q-.1.5-1 1.6m-20.9-55.2q-1 .7-1.6.8c-.3 0-.5-.7-.8-1q.5-.6 1.2-.9zm17.6 28.4q-.9-1-1-1.4c0-.3.6-.9.9-1s.9.6 1 1zM78.5 209q1-.9 1.4-1 .7.3 1 1c0 .2-.6.8-.8.8q-.6 0-1.6-.9M177 51.6c.4.7 1 1.1.9 1.4l-1 1q-.8-.6-1-1 .2-.5 1-1.4m35.5 57.7c-.6.4-1 1-1.3.9q-.6-.4-1-1 .5-.6 1-.8.5.2 1.3.9m-179.7-7.1q-1 .9-1.4 1-.7-.3-1-1c0-.2.5-.9.8-1q.6.2 1.6 1m36.9-44q-.9-1-1-1.3.2-.6 1-1c.2.2.8.5.8.9q-.1.4-.8 1.4m66-1.3-1.3 1q-.6-.4-1-1.1.4-.6 1-.8.3 0 1.3.9m45-1.5q.9.9 1 1.3-.2.6-1 1-.6-.5-.8-.9 0-.5.8-1.4m-15.2 3q-.9-1-1-1.4c.1-.4.6-1 1-1 .3 0 .8.6.9 1q-.1.4-1 1.4m9.1-1.5q-1 .9-1.3 1-.5-.3-1.1-1 .4-.6 1-.8.4.1 1.4.8M59.5 60.7c-.7.4-1.1 1-1.4.9q-.6-.4-1-1.1.5-.6 1-.7t1.4.9m86.5-1.3c.3.6.8 1 .7 1.3 0 .3-.6.6-.9 1q-.6-.5-1-1.1l1.1-1.2M36.4 106.1q-.9 1-1.3 1-.6-.2-1-1 .4-.6 1-.8.4.1 1.3.8m10.2-43.3c.4.6 1 1.1.9 1.4q-.4.5-1.1 1-.6-.7-.8-1.2.1-.4 1-1.2M182 64.2q-.7.9-1.3 1-.5-.2-1-.8.3-.6 1-1 .3 0 1.4.8m-126.5.3q-1 .8-1.5.8c-.3-.1-.6-.7-.9-1l1-.8q.5.1 1.4 1m115.9-.1q1-.7 1.4-.8.6.2 1 .8c-.3.3-.6.9-1 1q-.4-.1-1.4-1m22.1 3.5c-.6.4-1.1 1-1.3.9q-.6-.4-1-1 .4-.6 1-.9.4.1 1.3 1m-141.9.2q-.8.9-1.2 1-.6-.3-1.1-1c.3-.2.6-.8 1-.8q.4.1 1.3.8m116.1.1q1-.9 1.4-1 .8.3 1 1c0 .2-.6 1-.8 1zm4.4 28.3c-.4-.6-1-1.1-.9-1.4l1.1-1q.6.7.8 1.2-.1.4-1 1.2M67 68.6q-.9.8-1.3.8c-.4 0-.6-.6-1-1l1-.8q.5.1 1.4 1m129 1.6q.8 1 .8 1.4l-.8 1q-.7-.5-1-1.2zm-14.5 24.9c-.6.4-1 1-1.3.9q-.6-.4-1-1 .4-.6 1-.8.5 0 1.3.9M164.2 94q1 .9 1.1 1.2-.3.6-1 1.1-.6-.4-.8-1l.7-1.4M73.3 46.5q-.7-1-.8-1.4.2-.6 1-.8c.2 0 .8.5.8.9q-.1.4-1 1.3m-46 53.3q-.9-1-1-1.3.5-.6 1.1-1 .6.4.8 1 0 .4-1 1.3m-3.7-19q-.9-1-1-1.4.4-.7 1.1-1c.2 0 .8.6.8.9q-.1.5-1 1.5M157 78.4q1 .9 1.2 1.3-.2.7-1 1c-.1.1-.8-.4-.9-.7q.1-.5.8-1.6m51.6 27.3q-1 .8-1.4.8-.6-.4-1-1.1l1-.8q.6.2 1.4 1m-180-22.4q-.9.9-1.3.9-.6-.2-1-.9.4-.6 1-1 .4.1 1.3 1m6.4 16.8-1-1.4c0-.4.6-1 1-1 .2 0 .8.5.9.9q-.1.4-.9 1.4m-11.7.9q.9.9 1 1.2-.2.6-.9 1.2l-1-1q0-.5.9-1.4m146.8-17.1q-.9.7-1.3.8-.6-.2-1-1l1.1-.9zm14.2 1.3-.9-1.6c0-.3.7-.8 1-.8s1 .6 1 .9zm14.9 42.4q.9 1 1 1.6-.2.6-1 .8-.7-.2-1-.8.1-.5 1-1.6M32 131.8q-1 .9-1.4 1c-.4 0-.7-.6-1-.9q.4-.6.9-.8.5.1 1.5.7m172.7.6q-.9.9-1.3 1c-.3 0-.7-.5-1-.7q.4-.8.9-1.1.4.1 1.4.8m7.7-.2q-1 .9-1.4 1-.5-.2-1-.8.4-.8 1-1 .4 0 1.4.8m-3.9 4.2q-.8.7-1.4.8-.5-.2-.9-1c.4-.2.7-.8 1.1-.9q.4.2 1.2 1m-3.7 4q-1.1.8-1.6.8c-.3 0-.6-.6-1-.9q.6-.6 1.2-.9.4.1 1.4 1m13.9 8.7q-.9-.9-1-1.5c0-.3.6-1 .8-.8q.9.1 1 .9 0 .4-.8 1.4m-21.7-.9q-.9.9-1.3 1-.5-.2-1.1-.9.4-.6 1-.8.4 0 1.4.7m11.5 3.6q-.9.9-1.3 1-.6-.3-1-1 .4-.6 1-.9.4 0 1.3.9m-186.1 3.4q-.8-.8-.8-1.4l.8-1 1 1q-.1.5-1 1.4m158.6 1.6q-.9.8-1.3.8-.7-.2-1-1 .4-.6 1-.8.4.1 1.4 1m-145.9.5q-.9.9-1.3 1-.6-.3-1-1 .4-.6 1-.8.4.1 1.3.8m188.7 1.8q-1 1-1.6 1-.4-.2-1-.9.6-.6 1.2-.9.4 0 1.4.9m-15.3.5c-.7.4-1.1 1-1.4.8q-.5-.3-1-1 .6-.6 1.1-.8.4.1 1.3 1m-165.7 5.1q-1 .8-1.6.9-.4-.2-.9-1 .6-.6 1.1-.8.4 0 1.4 1m171.9 3.7q-.9-1.1-1-1.6c0-.3.7-.9 1-.8s.8.6.9 1q0 .4-1 1.4m-28.9-1.1c-.6.4-1 1-1.3.8q-.6-.2-1-1 .5-.5 1-.7.5 0 1.3 1m13.8 1.3-1-1.4q.4-.6 1-1 .8.5.9 1-.1.4-1 1.4m-177.1 1.4c-.4-.6-1-1-.9-1.2 0-.4.6-.8.8-1q.8.3 1 1 0 .3-.9 1.2m158.2-.5q.9 1 .9 1.4-.1.5-.9 1-.6-.4-1-1 .1-.4 1-1.4M31.1 85.6q.9.8 1 1.4c0 .3-.6 1-.8.9q-.7-.3-1-1 0-.3.8-1.3m154.7 89.3c-.6.4-1 1-1.4.9q-.5-.3-1-1c.4-.3.7-.9 1-.9s.8.6 1.4 1m7.5.1c-.6.4-1 1-1.2.9q-.7-.4-1.1-1 .5-.6 1-.9.5.1 1.3 1M97.5 14.5q-.9.9-1.3 1-.9-.3-1-1c-.1-.3.5-1 .8-1q.5.2 1.5 1m46.3 3.7q-1 .7-1.5.8-.8-.3-1-1c0-.3.7-.9 1-.9zm72.4 110.2q-.9.9-1.3 1-.6-.4-1.1-1c.3-.3.6-1 1-1q.4.1 1.4 1M37.6 174.7q.9.8 1 1.2-.3.7-1 1c-.2 0-.9-.6-.9-1q0-.4.9-1.2M196 85.6q.9.8.9 1.4-.2.4-1 1l-.8-1q.1-.6 1-1.4m-8.1 18q-.7-1-.8-1.4.3-.5 1-1 .6.6.9 1.2zM40.2 87.3c-.7.4-1 1-1.4.8q-.5-.3-1-1 .6-.6 1.1-.8.5 0 1.3 1m126.4 91.4q-1 .8-1.6.9c-.3 0-.8-.7-.8-1s.6-.8 1-.8q.4 0 1.4.9m6.2-1.4q.9.9 1 1.3-.3.6-1 1-.6-.4-.8-1 .1-.4.8-1.3M26.6 129.5c-.4-.7-1-1-.9-1.4s.6-.9 1-.8q.6.1.8.9 0 .3-.9 1.3M124.7 22q-.9.9-1.3 1-.5-.2-1-.7.3-.8.9-1.1.3 0 1.4.8m21.6-1.3q.7.9.8 1.3c0 .4-.6.7-.9 1q-.6-.5-1-1.1c0-.2.6-.7 1-1.2M50.4 179.2q-.9.9-1.2 1-.6-.2-1.2-1l1-.8q.5.1 1.4.8m6.3-1.4q.9.9 1 1.3-.4.6-1 1-.7-.4-1-1zm-25.9-54.5q.8.8 1 1.4c.2.6-.8 1-1 .9q-.8-.3-1-1 0-.4 1-1.3m149.4-34.6q-.8-1-.8-1.4.4-.6 1.1-1 .6.6.8 1.1-.1.5-1 1.3M127 27.3c-.3-.6-.9-1-.8-1.3s.6-.7.9-1q.6.4 1 1l-1 1.3m22.9-2.9q1 1 1 1.5c0 .3-.6 1-.8 1q-.7-.4-1-1 0-.5.9-1.5m-90.9 5.5q-.9.8-1.3.8c-.4 0-.9-.6-.9-.9s.6-.8.9-.8q.4 0 1.3.9M214.7 181q.9 1 1 1.3-.2.6-.8 1.1-.7-.4-1-1 0-.3.8-1.3M25.5 120.8q1-.7 1.4-.8.6.2 1 .8c-.3.3-.6.9-1 1q-.4-.1-1.4-1m167.8 61.8q-.8.8-1.2 1l-1.1-1 1-1q.6.1 1.3 1m6.3 1.4q-.7-.8-.9-1.5.2-.4 1-.8.6.4.8 1 0 .4-1 1.4m7.6-.1q-.7-1-.8-1.6c0-.2.8-.8 1-.7q.5.3.8 1-.1.5-1 1.3M88.7 31.3 87.5 30q.2-.6.8-1 .8.3 1 .8 0 .4-.6 1.5M52.8 181.6q.9 1 1 1.5c0 .3-.7 1-.9.9q-.7-.3-1-1 .1-.4 1-1.4m7.7-.1 1 1.3q-.3.6-.9 1-.7-.4-1-1 0-.3.9-1.3m-38.1.8q.9 1 1 1.4c0 .4-.6 1-1 1-.3 0-1-.6-1-.8zm7.6-.1q1 .9 1 1.2-.3.7-1 1c-.3 0-1-.6-1-.8q.1-.6 1-1.4m5.5-39.2q-1 .7-1.4.8-.6-.4-1-1.1.6-.6 1.2-.7.4.1 1.2 1m103-111.8q-.8-1-.8-1.4.2-.8 1-.8.5.1.8 1-.1.3-1 1.2m42 153.8c.4.6 1 1 .9 1.3s-.7.7-1 1q-.6-.4-1-1zM154 31.2q-.9-1-1-1.4l1.1-1 .8 1q-.1.6-1 1.4m9.2-1.2c-.7.3-1.1.9-1.4.8q-.7-.3-1-1c0-.2.6-.9 1-.8q.4 0 1.4 1M49 188.1c-.4-.6-1-1-.9-1.3q.4-.6 1.1-1 .6.5.8 1-.1.5-1 1.3m6.5-154.5c-.7.4-1.1 1-1.4.9-.4-.1-.6-.7-1-1l1-.8q.5.1 1.4 1M170.4 190q-.9.9-1.3 1-.6-.3-1-1 .4-.6 1-.8zm40.6-71.7-1-1.3q.4-.6 1.1-1 .6.4.9 1-.1.4-1 1.3m-2.5 71.8q-.7.9-1.2 1-.6-.2-1-.7.3-.8.9-1.1.3 0 1.3.8M35.1 164.8c-.6.4-1 1-1.3 1q-.6-.3-1-1 .4-.7 1-1 .4.1 1.3 1M51.7 37.2q-.9.9-1.3 1c-.4 0-.7-.6-1-.9q.4-.6.9-.9.4.1 1.4.8m14.1 156.9q-1 .7-1.5.7-.5-.2-.8-1l1-.8q.4.2 1.3 1.1m6.4-1.6c.4.6 1 1 .9 1.4l-.8 1q-.8-.5-1-1 0-.5.9-1.4M59.5 37.4q-1 .9-1.4.9c-.4 0-1-.6-1-.9s.5-1 .8-1q.7.2 1.6 1m141.5 76c-.7.4-1.2 1-1.4.9q-.6-.3-1-1.1.5-.6 1.1-.7.4 0 1.3 1m-47-77.3c.4.6 1 1 .9 1.3q-.2.6-.8 1-.8-.4-1-1 0-.4.9-1.3m35.6 157.9q-1 .7-1.7.8c-.3 0-.8-.6-.7-1 0-.3.6-.9.9-.8q.5.1 1.5 1M27.2 92.2q-.7-1-.8-1.5c0-.3.8-1 1-.8q.7.3.9 1zm99.6-49.3q-.9-.9-1-1.3.2-.6 1-1.1.5.4.8 1-.1.5-.8 1.4m46.3.1q-.9-1-1-1.4.2-.6.8-1 .8.4 1 1-.1.4-.8 1.3M192 89.6q.8.9.8 1.3-.2.6-.9 1l-1-1q.2-.5 1.1-1.3M76 196.2q.9.9 1 1.3-.1.7-.9 1c-.3 0-.9-.6-1-1q.1-.3 1-1.3m94.6-150.7c-.6.4-1 1-1.3.9q-.6-.4-1-1 .5-.7 1-.9.5.1 1.3 1M53 196.5q.6.8.7 1.4-.2.4-.9 1-.6-.5-1-1.2zM169.8 91.4c-.6.4-1 1-1.3.9q-.6-.4-1-1 .5-.6 1-.8.5 0 1.3.9m6.3 6q1 .8 1.1 1.4c0 .2-.6.8-.9.8q-.7-.2-1-.8.1-.4.8-1.4M172.8 200q.9.9 1 1.3c0 .4-.6.7-.9 1q-.6-.3-1-.9zM159 49.3q-.9.9-1.3.9-.6-.2-1-1c.3-.2.6-.8 1-.8q.5.1 1.4 1M32.7 94.7q-1 .9-1.6 1c-.3 0-.9-.7-.8-1s.6-.9 1-1q.4.1 1.4 1m7.6.1q-.9.9-1.3 1c-.4 0-.7-.6-1-.8q.4-.8 1-1c.2-.2.7.4 1.3.8m12.5 112q-.7-1.2-.8-1.7c0-.3.7-.8 1-.7.3 0 .9.6.9.9q-.1.5-1 1.5M138 54.4q-.7-.9-.8-1.4l1-1 .9 1.2zm25-1.3-1.4 1q-.6-.4-1.1-1c.3-.3.6-.9 1-.9q.4.1 1.4 1m18.9 49.2q-1.2.7-1.7.8-.5-.2-.9-.8.5-.7 1.2-1 .4.1 1.4 1m10.5-28.3c.4.6 1 1 .8 1.3q-.2.6-1 1-.6-.5-.8-1 .1-.5 1-1.3M73.1 28.5l1 1.3c-.1.3-.6.9-1 .9q-.6-.2-.9-.9zM55.7 87.7q-.9.8-1.2.8-.6-.4-1-1 .5-.6.9-.8.4.1 1.3 1M20 165.3q-1 .9-1.4.9-.6-.2-.8-1c0-.2.6-.8.9-.8q.4.1 1.3 1m168.2-79.6c.4.6 1 1 .9 1.4l-.8 1q-.7-.4-1-1 0-.4.9-1.4m-37.1-21.4q-.9.9-1.3 1c-.4-.1-.7-.7-1-1q.4-.6 1-.9.4.1 1.3 1m27.1 102.8c-.7.4-1.2 1-1.6 1-.3 0-.6-.7-1-1l1.2-.9q.4 0 1.4.9M135.4 64.6q-1 .8-1.4.8c-.4 0-.7-.6-1-.9l1.1-.9q.4.1 1.3 1M84.5 24.7q1 .9 1 1.2-.3.6-1 1-.6-.4-.8-.9.1-.4.8-1.3m116.5 81q-.9.9-1.3 1-.6-.2-1-1 .4-.5.9-.8.6.1 1.4.8M37.5 167q.9 1 1 1.4-.3.8-1 1-.6-.2-.9-1 .1-.4 1-1.3m7.6 2.6q-.9-.8-1-1.4l1.1-1 .8 1q-.1.6-1 1.4m163.5-71.6c-.6.4-1 1-1.3.9q-.6-.4-1-1.1.6-.6 1.1-.8.5.1 1.2 1m-96.9-73.5q.9.8 1 1.2-.3.6-1 1-.6-.3-.9-.9zm106.8 144.8q.9.8 1 1.5-.2.4-.9 1l-1-1.1q.1-.5 1-1.4m-6.2-44.8c-.7.4-1.1 1-1.4.9q-.6-.4-1-1 .6-.7 1-.8.6 0 1.4.9m-24-61.9q.8 1 .9 1.5c0 .3-.7 1-1 .9q-.7-.3-.9-1 .1-.4 1-1.4m-50-42.1q.9.9 1 1.3-.2.6-.8 1-.6-.4-1-.9.1-.4.8-1.4m57.4 149.1q.9 1 1 1.4c0 .3-.5 1-.8 1s-1-.6-1-.9q.1-.4.8-1.5M132.3 22l-1.3 1c-.4 0-1-.6-1-1 0-.2.5-.8.9-.9q.4.1 1.4.8m-27.3.2q-1 .7-1.6.8-.4-.1-.7-.9.6-.6 1.2-.8.3 0 1.2 1M48 87.3c-.7.4-1 1-1.4.9q-.7-.2-.9-1c0-.1.5-.8.8-.8q.5 0 1.5.9m-6.6 86.2q-.9-.9-1-1.3.3-.7 1-1c.3 0 1 .5 1 .8q-.1.5-1 1.5m59.9-155.1q-1 .8-1.5.8-.6-.2-.8-1c0-.2.6-.8 1-.8q.3.1 1.3 1m-11.6-3.9-1.3 1q-.7-.4-1-1.1c0-.2.7-.9 1-.9q.4.1 1.3 1m96.3 61q-1 .9-1.3 1-.6-.2-1.1-.8.4-.7 1-1 .4.1 1.4.8M67 60.7l-1.3 1c-.3-.1-.9-.7-.9-1q.2-.6 1-.9zm125 .9q-.8-1-.8-1.4.2-.4.9-1l.8 1q0 .4-.9 1.4m-34.4-3.3q-.9-.8-1-1.3l.8-1q.7.4 1 1 0 .4-.8 1.3M147.3 53q-.9.9-1.3 1l-1-.8q.4-.8 1-1c.2-.2.7.4 1.3.8M32.5 79.3q-.9 1-1.3 1-.6-.2-1-1 .4-.6 1-.8.4.1 1.3.8M186 53q-1.1.6-1.5.6-.6-.2-1-.8c.4-.3.7-.9 1.2-1l1.2 1.1M63.3 72.3q-.9.8-1.4.9c-.2 0-.8-.5-.8-.7q.2-.8.8-1 .4 0 1.4.8m2.6-20.9q.8.9.8 1.4-.2.6-.8 1-.7-.6-1-1.1.1-.4 1-1.3M55.7 72q-.9 1-1.3 1c-.4 0-.7-.6-1.1-.9q.4-.6 1-.8.4.1 1.4.8m126.4-.3q-.9.9-1.3 1-.6-.3-1-1 .3-.6 1-.8.4.1 1.3.8M42.5 51.1q.9 1 1 1.4c0 .4-.6.7-.9 1-.3-.3-.9-.6-1-1q.1-.4 1-1.4M48 72c-.7.4-1.2 1-1.5.9l-1-1q.6-.7 1.1-.8.5 0 1.3 1M199.4 138q-.8-1-.9-1.4.2-.5 1-1l.9 1q-.1.4-1 1.3m4 42.1c-.4-.5-1-.9-.9-1.2q.2-.5.8-1 .8.4 1 1 0 .3-1 1.3M165.5 48q.8.9.8 1.4c0 .3-.7.8-1 .8s-.8-.6-.8-1q.1-.5 1-1.2M14.8 137.8q1 .9 1 1.3c0 .4-.6.7-.9 1q-.6-.3-.8-1 0-.3.7-1.3m120.8-88.5q-.9.8-1.3.8c-.4 0-1-.6-.9-.9s.6-.8 1-.8q.4 0 1.2.9M42.7 179.6c-.6.4-1 1-1.3.9q-.5-.3-1-1 .6-.7 1-.9.6.1 1.3 1M220 139.8c-.6.4-1.1 1-1.4.8q-.5-.3-1-1 .6-.6 1.2-.8.4.2 1.2 1M20 180.3q-.9.8-1.4.8-.6-.2-.8-1c0-.2.6-.7 1-.7zM183 68l1.5-.9q.5.2 1 .8c-.3.3-.6.9-1 1q-.5-.2-1.4-.9m12.8 40.3q.7 1 .8 1.4c0 .3-.7.9-1 .9s-.8-.7-.8-1q.1-.4 1-1.3m7.5-12.6q-.8-1-.8-1.4c0-.4.7-.9 1-.8s.8.6.8.9q-.1.4-1 1.3M12.5 143q-.9.9-1.3.9c-.3 0-.9-.5-.9-.9 0-.3.5-.9.9-.9q.4 0 1.3 1m156.6-68.7q.9.9 1 1.3-.3.6-1 1-.6-.4-.9-1 .1-.3 1-1.3m-8.7 18.4q-.7-1-.8-1.5c0-.3.6-.9 1-.9.2 0 .9.6.8.9q-.1.5-1 1.5m11.8 11q-.9-.8-1-1.4.3-.6 1-.8.6.2.9.8-.1.6-.9 1.4m51.7 9.1c-.6.4-1 1-1.3.9s-.8-.6-1.1-.9c.3-.3.6-.9 1-1q.5.1 1.4 1m-193 5.8c-.4-.6-1-1-1-1.3s.6-.7.8-1q.8.4 1.1 1zm19.5-44.1q.8 1 .8 1.4-.2.5-1 1l-.8-1q.1-.5 1-1.4m154.1 73.3q-.9.9-1.3 1-.7-.2-1-.8c0-.3.6-.9.9-1q.4.1 1.4.8M35 66.5q.9 1 .9 1.5c0 .3-.7.6-1 1q-.6-.6-.8-1.1.1-.5 1-1.4M20 150q-.7 1-1.2 1-.6-.2-1-.8l.9-1zm7.5-.2q-.9.9-1.3 1-.6-.3-1-1 .4-.6 1-.9zm-8-60.3q.9.9 1 1.3-.3.6-1 1.1-.6-.4-.8-1 .1-.4.8-1.4m147 96.7q-1 .9-1.4.9-.6-.3-1-1 .5-.6 1-.8.5.1 1.4 1m-30.7-145q-.9.9-1.3 1-.6-.1-1-.9.4-.6.9-.9.4.1 1.4.8m72.7 71.7q-.9.9-1.3 1c-.4 0-.7-.6-1-.8.3-.4.6-1 1-1q.4 0 1.3.8m4.8 38.3c.6-.4 1-1 1.3-.8.4 0 .7.6 1 1-.3.2-.6.8-1 .8q-.4-.1-1.3-1m-54.4-87q-1 .9-1.5 1-.4-.2-1-1c.4-.2.7-.8 1-.8q.5.1 1.4.8m11.7-26.7c-.6.4-1 1-1.3.8q-.5-.3-1-1 .5-.6 1.1-.8.5.1 1.2 1m-112.3 149q-1 .9-1.4 1c-.3 0-.6-.6-1-.9q.4-.6 1-.9.4.1 1.4.8m-16.7 1.7q-.9-.7-1-1.2.2-.5.8-1 .8.3 1 .9 0 .3-.8 1.3m159.3-36.4q-.9.9-1.3 1-.6-.3-1-1 .3-.6 1-.8.4.1 1.3.8m21.6 36.7q.9.9.9 1.3-.3.6-1 1-.6-.4-.8-1 .1-.5 1-1.3M69.7 190q-.9.9-1.3 1-.6-.2-1-.8.4-.7.9-1 .4.1 1.4.8m93 0q-.9.9-1.3 1-.6-.4-1-1 .4-.6 1-.9.5.1 1.3 1m15.6-114.3q-.9.7-1.5.8-.5-.3-.8-1 .4-.6 1-.8.5.1 1.3 1m-.2 114.2q-.9.9-1.3 1-.6-.3-1.1-1 .4-.6 1-.8.5.1 1.4.8M147.7 37.5q-.8.9-1.4 1-.6-.4-1-1l1-.8q.6.1 1.4.8M220 155.2q-.9.9-1.3 1-.6-.3-1-1 .4-.6 1-.9.4.1 1.2 1m-5.2 36.1c-.4-.6-1-1-.8-1.4q.2-.7 1-.8c.2 0 .8.6.8 1q-.2.4-1 1.2M123 38.9c-.4-.6-1-1-.9-1.3s.7-.7 1-1q.8.6.9 1-.1.6-1 1.3M52.9 191.8q-.9-.9-1-1.3.2-.5.8-1c.3.3.9.5 1 1q0 .3-.8 1.3M166 87.6c-.6.4-1 1-1.3.8-.4 0-.7-.6-1-1l1-.8q.5.1 1.3 1m12.4-50.1q-.9.8-1.3.8-.6-.2-1-.8c.3-.4.6-1 1-1q.4.1 1.3 1M73.3 38.8q-.9-1-.9-1.4c0-.3.6-.9 1-.8q.6.2.9.8zM65.6 36q.9 1 1 1.4c0 .3-.6.9-.8.9-.4-.1-1-.5-1-.8q0-.5.8-1.4m134.2 40.6c-.4-.6-1-1.1-.8-1.4q.2-.5 1-1 .6.6.8 1.1-.1.4-1 1.3M36.5 83.3q-1 .8-1.4.8-.6-.2-1-.8.4-.7.9-1 .4.1 1.5 1m-.1 30.3q-1.1.9-1.6 1-.5-.2-.9-1 .5-.6 1.1-.8.4.1 1.4.8m138.1-80q-.9.9-1.3 1-.7-.2-.9-1 .2-.6.8-.8.5.1 1.4.8m44.1 158.9q.8 1 .9 1.5c0 .3-.8 1-1 .9q-.6-.3-1-1 .2-.6 1-1.4M50.8 157.3q-1 .9-1.3 1-.6-.2-1-.8.3-.6.9-.9.4 0 1.4.7m142.8-74.1q-.8.9-1.4 1l-1-1 1-.9q.6.1 1.4 1m-137 112.2q-.8-1-.8-1.4c0-.3.5-.9.8-.9s1 .5 1 .8q-.1.5-1 1.5M157.8 32.3q.8.9.9 1.3-.2.6-.8 1-.7-.4-1-1 .1-.4 1-1.3m3.4 45q-.9-.9-.9-1.3c0-.4.6-1 .9-1q.7.2 1 .9c0 .3-.6.7-1 1.4m32 82.4q-.9.9-1.3 1-.6-.3-1-1 .4-.6.9-.9.6.2 1.4.9M169 196.3q.9.9 1 1.3c0 .4-.6.7-.9 1q-.6-.4-1-1 .1-.3 1-1.3m7.5 2.7q-.7-.9-.8-1.3.2-.7 1-.9.6.2.8 1-.1.4-1 1.3m15.4-2.7q.8.8.8 1.4-.3.5-1 1-.6-.6-.8-1.1 0-.4 1-1.3M143.8 33.7q-.9.9-1.3.9-.6-.3-1-1l1-.8q.4.1 1.3 1M127 35.1q-.9-1-.9-1.4c0-.4.6-.7.9-1l.9 1q-.1.4-1 1.4M56.8 200.2c.4.5 1 1 .8 1.3 0 .4-.6.6-1 1l-.8-1q.1-.6 1-1.3m24.5 1.1-1.3 1c-.4 0-1-.6-1-1 0-.2.6-.8.9-.9q.4 0 1.4.9m38-166.3q-.8-.7-.9-1.2.2-.6.8-1 .7.4 1 1 0 .4-.9 1.3m50.2-3.8q-.9-.9-1-1.5c-.1-.2.5-.8.8-.8q.7.2 1 .8-.1.4-.8 1.5m-120.4 169q.8.9.8 1.3c0 .4-.6 1-1 .9q-.5-.2-.8-1 .1-.4 1-1.2m169.5-35.8q-.9-1.1-1-1.6c0-.3.7-.8 1-.8s.8.6.9 1q0 .4-.9 1.4m-15.3.3q-.8-1-.9-1.4.2-.6 1-1l.9 1q-.1.4-1 1.4M146.2 28.5q1 .9 1 1.2-.2.8-.8 1-.7-.2-1-.9zm-38.3 0q.7.9.8 1.4c0 .3-.7.9-1 .8s-.7-.6-.8-1q.1-.3 1-1.2m89.2 135.1c-.6.4-1 1-1.3.9q-.6-.4-1-1 .5-.6 1-.9.5.1 1.3 1m-5.7 43-.4-.6.3-1.5 1.3.4-.7 1.4zM73.6 209q-.9.8-1.3.8-.7-.2-1.1-1 .4-.5 1-.8.5.1 1.4 1m100-44.9q-1 .8-1.4.8c-.4 0-.7-.6-1-.9l1-.8q.6.1 1.4 1M22 94.6q1-.9 1.5-.9l1 .8c-.3.3-.6.9-1 1q-.5-.1-1.4-1m13.2 85.3q-1 .8-1.4.8-.6-.2-1-.8c.4-.3.7-.9 1-.9q.4 0 1.4.9m162-85.2q-1 .7-1.4.8-.5-.1-.9-1c0-.1.6-.7.9-.7q.5.2 1.4.9M19.8 99.9q-.9-.9-1-1.3.2-.6.8-1 .7.4 1 .9-.1.4-.8 1.4m165.8-1.4q-.9.9-1.3 1-.6-.2-1-.8.3-.7.9-1 .4.1 1.4.8m-18.7-64.8-1.4.9c-.3 0-.8-.6-.9-.9s.5-.9.9-1q.4.1 1.4 1m30.3 68.4c-.6.4-1.1 1-1.3.9q-.6-.4-1-1 .5-.6 1-.8.5 0 1.3.9m19 57.2q-1 .8-1.4.8-.5-.2-1-1l1-.8q.6.1 1.4 1m-11.4-49.9q-1 .9-1.4 1l-1-1c.4-.2.6-.8 1-.8q.4.1 1.4.8m-184 3.9q-.9.9-1.3 1c-.3 0-.7-.6-1-.9q.4-.6 1-1 .4.1 1.3 1m7.7.1q-.9.8-1.4.8c-.4-.1-.7-.7-1-1q.5-.6 1-.8.6.1 1.4 1m190.3 4.6q-.9-.9-1-1.3c0-.4.6-1 .9-1 .3.1.9.6.9 1zm-195.6.2q-.9-.8-1-1.2c0-.3.6-1 .8-1 .4.2 1 .5 1 1q.1.4-.8 1.2m181.6 6.5q-1 .8-1.5.8-.5-.2-.9-.8.6-.8 1-.9t1.4.9M20.3 128q-.9.9-1.4.9c-.3 0-.8-.6-.8-1 0-.2.6-.7.9-.8q.5.1 1.3 1M123.1 15.7q-.8-.9-.8-1.3c0-.4.6-.7.9-1q.5.4.8 1 0 .4-.9 1.3M31.4 161.1q-.9.9-1.5 1-.4-.2-1-1 .5-.6 1.1-.9.4 0 1.4 1m23.4 0q-1.1.7-1.7.8-.4-.2-.9-1l1-.8q.6.1 1.6 1m36.1-143q.8-.7 1.4-.8l.9 1-1 .8q-.6-.1-1.3-1m29.8-.1q-.9.9-1.3 1-.6-.2-1-.8.4-.7.9-1 .5.1 1.4.8m6.3-1.3q.9 1 1 1.4-.4.7-1 .8-.6-.2-.8-.8.1-.6.8-1.4m-52.6 5.4q-1 .8-1.5.8c-.3 0-.5-.6-.8-.9q.4-.6 1-.8.4.1 1.3 1m115.2 141.3q-1 .9-1.4.9-.5-.4-1-1.1.6-.6 1.1-.8c.3 0 .7.6 1.3 1M97.5 22.2q-1 .7-1.4.8-.5-.2-1-.8.5-.6 1-.8.4.1 1.4.8M196 187.8q-.9-.8-1-1.4c-.1-.3.5-.9.8-.9q.6.2 1 .9-.1.4-.8 1.4m7.2-2.8q1 1 1 1.4-.2.6-.8.9c-.2 0-.9-.5-.9-.8q.1-.5.7-1.5M92.3 24.7q.8 1 .8 1.4c0 .3-.6.9-.9.8s-.8-.6-.9-.9q.1-.4 1-1.3m74.6 1.1q-1 .9-1.4 1-.5-.2-1-.8.3-.6.8-1 .5.1 1.6.8m-86.2 2.7q.9 1 1 1.4c-.1.3-.7.9-1 .9s-.8-.6-.8-1zM64.4 187.8l-1-1.1q.4-.8 1-1c.3 0 1 .5 1 .9q-.1.4-1 1.2M81 38.9q-1-.9-1-1.4.2-.6.8-.8c.3 0 1 .5 1 .8q0 .4-.9 1.4m57.6 0q-.8-1-.8-1.4.2-.6 1-.8c.2 0 .8.6.8.9q-.1.5-1 1.3m-76.6 3.7c-.4-.6-1-1-.9-1.4s.7-.8 1-.8.8.6.8 1q-.1.4-1 1.2m-31.4 95.3q.8.9.9 1.3-.2.6-1 .8-.6-.3-.8-1 0-.3 1-1.1m19.7-94.2q1 .9 1 1.1-.3.7-1 1.1-.5-.4-.8-1zm17 1.5q-1 .8-1.4.8c-.3 0-.7-.6-.8-1 0-.2.6-.8.9-.7q.4 0 1.3.9M177 43.9q.9 1 .9 1.4c-.1.4-.7.6-1 1l-.8-1q.1-.5 1-1.4m7.1 144.9q1 .9 1 1.2-.1.8-.8 1-.6-.2-.9-.8.1-.6.7-1.4M18.6 144q-.7-.9-.7-1.3c0-.4.6-.9.9-.8q.6.2.9.8c0 .4-.6.7-1 1.3m166-97.5q-1-.9-1-1.3.3-.6 1-1 .6.4.8 1-.1.4-.8 1.3m-38.6.1c-.4-.5-1-1-.9-1.2q.3-.6 1-1c.3 0 .8.7.9 1q-.1.5-1 1.2m7.8-2.6q.9.9 1 1.3-.3.6-.9 1-.7-.4-1-1 0-.3.9-1.3M46.6 50q-.9-.9-1-1.2.2-.6.8-1.1c.4.3 1 .6 1 1q-.1.4-.8 1.4M31.4 168.5q-.9.9-1.3 1c-.4 0-.7-.5-1-.7.2-.4.4-1 .8-1q.5 0 1.5.7m198.8-26.6q.7.8.8 1.4-.2.5-1 1c-.2-.4-.8-.8-.8-1.2q.1-.3 1-1.2m-14 1.9c-.7.4-1 1-1.4.8q-.5-.2-1-.8l1-1q.4.1 1.4 1m-162-96.3q.9.9 1 1.3-.1.6-.9 1c-.2 0-.8-.5-.9-.8q.1-.5.8-1.5m15.5 2.8q-.9-.9-1-1.3c0-.4.6-.7.8-1q.8.4 1 .9-.1.4-.8 1.4m-47.1 94.6q.8.9.8 1.3c0 .3-.6.6-.9 1l-1-1.1q.2-.4 1-1.2m9.2 1.2q-.9.9-1.3 1-.7-.3-1.2-1l1-.8q.5.1 1.5.8m171.8 26.4q-.9-.9-1-1.3c0-.4.6-.7.9-1l.9.9q-.1.4-.8 1.4M15 145.2q.8.9.8 1.3-.1.8-.9.9-.6-.1-.9-.9.1-.4 1-1.3M78.6 49q-1 .9-1.4.9c-.4 0-.6-.6-1-1l1-.8q.5.1 1.4 1m48.1 1.6q-.9-1-1-1.4.2-.6 1-.9c.2 0 .8.5.8.8q-.1.4-.8 1.5m23.3-.1q-.9-.9-1-1.3.3-.6 1-1 .5.4.8 1-.1.4-.8 1.3M62 197.8q-1 .7-1.4.8-.5-.2-1-.8.5-.7 1-1 .4.1 1.4 1M180.6 47.7q.9.9 1 1.3-.2.6-.8 1-.7-.3-1-1 0-.4.8-1.3M20 172.9q-.9.8-1.4.8c-.3 0-.6-.6-.9-.9l1-.8q.5 0 1.4.9M58.2 51.5c.4.6 1 1 .8 1.3 0 .4-.6.6-1 1-.2-.4-.8-.7-.8-1s.6-.8 1-1.3M74.7 53q-1 .6-1.5.7c-.3 0-.8-.6-.7-1q.2-.6 1-.7.4 0 1.2 1m-19.1 3.7q-1 .8-1.4.8-.5-.2-.9-1l1-.7q.5.1 1.3 1m95.6 0q-.9.9-1.3 1-.6-.3-1-1 .4-.6 1-.8.4.1 1.3.8M177 69.5q-.9-.9-1-1.3c0-.3.5-1 .8-1s1 .6 1 1q-.1.4-.8 1.3m-138.3.9q.9 1 1 1.3-.2.6-.8 1-.8-.3-1-.9.1-.4.8-1.4M215 199q-.5-.1-.9-.4-.3-.7-.1-1.3c0-.2.8-.3 1.1-.2q.4.4.3 1.2zM166.7 72q-1 .8-1.4.9c-.3 0-.9-.6-.9-.9s.6-.9.9-.9q.4.1 1.4.8M72.3 202.6q-.9-.9-1-1.3c0-.3.6-.9 1-.9.3 0 .8.6.8.9q-.1.4-.8 1.3M70.7 72.4q-.8.8-1.4.9c-.3 0-.9-.5-.8-.7q.1-.8.8-1 .3 0 1.4.8M30 174.9q.9.9.9 1.3c0 .3-.6 1-.9 1s-.8-.6-.9-1q.1-.4 1-1.3M151 72.1q-.9.9-1.4.9c-.3 0-.6-.6-1-.9l1-.8q.6.1 1.4.8M27.2 74.2q.9.9 1 1.2-.2.8-1 1c-.3 0-.8-.6-.9-.9q.1-.4 1-1.3m168.3 126q.9 1 1 1.3c0 .4-.6.7-.9 1q-.6-.4-1-.9zM42.8 74.4q.7.9.7 1.3-.2.6-.9 1l-.9-1.1c0-.3.6-.7 1-1.2m-12.4 78.2q.6.6.7 1c0 .4-.7 1-.9.9q-.7-.3-1-1 .1-.6.5-1.3zm53.4 51.1q.9.9 1 1.3-.2.7-.8 1c-.3 0-1-.5-1-.9q.1-.4.8-1.4M58.2 74.8c.4.7 1 1 .9 1.4q-.2.7-1 .8-.6-.2-.8-.9.1-.4 1-1.3m142.9 8.3q-1 .9-1.5.9-.5-.4-1-1.1.6-.6 1.2-.8.4.1 1.3 1M19.5 84.8q-.6-1-.7-1.5c0-.3.6-.8.8-.7q.8.2.9.9-.1.4-1 1.3m37.3-1q.9-.8 1.4-.8.4.2 1 1c-.4.2-.7.7-1 .7q-.5 0-1.4-.9m-39.7 3.5q-.9.8-1.3.8-.7-.2-.9-1c0-.2.6-.8 1-.8q.4.1 1.2 1M44 91q-.7.9-1.2 1-.5-.2-1-.8c.3-.3.5-.9 1-1q.4 0 1.3.8m-6.4 91c.4.6 1 1 .9 1.4q-.2.6-1 .8-.6-.2-.8-.8 0-.6.9-1.4m86.5-136.5q-.9.7-1.3.8-.5-.2-1-1l1-.8q.5.1 1.3 1M46.4 57.9q-.7-1-.8-1.4c0-.3.6-.7.9-1l.8 1q0 .4-.9 1.4m176 94.7q-.8-.9-.8-1.3c0-.4.6-.9.9-.9q.6.2.9 1-.1.4-1 1.2M11.2 107l-.2-.4q0-.6.2-.9.5-.4 1.1-.3c.3 0 .4.6.5.9zm177.3-59.6q.7 1 .8 1.4-.3.6-1 .8c-.3 0-.8-.6-.8-.9q.1-.4 1-1.3m-11.8 12q.9.9 1 1.3c0 .3-.6.9-.9.9q-.6-.1-.9-.9.1-.4.8-1.3m-109-33.5q1-.8 1.5-.8.4.2.9 1l-1 .8q-.5-.1-1.4-1M27.8 135.4q-1 .7-1.5.7-.4-.2-1-1l1.1-.7q.5.1 1.4 1m112-90.1q-1 .8-1.4.9-.6-.2-1-.8.4-.7 1-1zM39.6 146.4q-1 .8-1.5.9-.5-.2-1-.8.4-.6 1-.8.4 0 1.5.7M70.9 41.2q-1 .9-1.3 1-.7-.1-1-1c0-.2.6-.7.8-.8q.5.1 1.5.8M42.8 105q.7 1 .7 1.5c0 .3-.6.8-1 .8q-.5-.2-.7-1 .1-.4 1-1.2m83.6-49.6q.9 1 1 1.3c0 .3-.5 1-.7 1q-.8-.3-1-.9-.1-.3.7-1.4m-113 43.1c-.7.4-1 1-1.4.9s-.7-.6-1-.9q.4-.6 1-.8.4 0 1.4.8m197.8 1.8q.8.8.8 1.4c0 .3-.7.8-1 .8s-.8-.6-.8-1q.1-.3 1-1.2M80.6 23.6c-.4-.7-1-1.1-.9-1.4q.3-.6 1-.8c.3 0 .8.6.8.9q0 .3-.9 1.3M184 92.5q-.8-.8-.8-1.4.2-.4 1-1 .6.7.8 1.2 0 .3-1 1.2m-28-4.3q-.1-.7.4-1.2c.1-.2.8-.1 1.1 0l.1 1.1H156zm60.2 86.6-1.5.8q-.5-.4-.9-1 .6-.7 1-.7t1.4.9M46.1 148.3q-.9-.9-1-1.3c0-.4.7-.8 1-.9s.9.6.9.8q-.2.5-.9 1.4m-33.4-20q-1 .7-1.5.7c-.3 0-.6-.6-1-.9q.6-.6 1.1-.7t1.4.9m33.9 47.4q-1 .9-1.4.9-.5-.2-1-1l1-.8q.5.1 1.4 1M77 35q-.8-.9-.8-1.4.1-.6 1-.8s.7.5.7.8l-.9 1.5M22.5 175l.9 1.3c0 .4-.6 1-.9 1q-.6-.2-.9-1 0-.3.9-1.3M67 76.3l-1.4 1c-.3-.1-.7-.7-.8-1 0-.2.5-.8.8-.8q.5 0 1.4.8M15.8 96.1q-.7-.9-.8-1.3.3-.7 1-.8c.3 0 .8.6.8.9q-.1.5-1 1.2m116.6-66.2q-1 .8-1.4.8c-.4 0-.6-.6-1-.9l1-.9q.4.1 1.4 1m-96 45.7q-1 .8-1.4.8-.5-.2-1-1l1-.7q.5 0 1.4.9m160.8 103.1c-.6.4-1 1-1.3.9s-.7-.6-1-.8q.3-.7.9-1 .4.1 1.4.9M65.5 31.2q-.9-1-.9-1.4.2-.6 1-.8c.1 0 .7.5.7.8q-.1.4-.8 1.4m55.4-5.1q-1.1.7-1.5.7-.5-.2-1-1l1.1-.7q.5.1 1.4 1m-19.6-.2-1.4 1c-.4.2-.6-.6-1-1l1-.8q.4.1 1.4.8M70.8 64.6q-1 .9-1.4 1c-.4-.1-.6-.7-1-1q.4-.6 1-.8.4.1 1.4.8m147.8 43.2q.9.9 1 1.3c-.1.3-.6 1-.9 1s-.9-.6-1-.9q.1-.4.9-1.4m-88.2-53.4-.9-1.4c0-.3.7-.8.8-.8q.7.2 1 .9 0 .3-.9 1.3M14.6 110.2q0-.4.3-.7l1.2-.5q.4.8.4 1.1-.5.5-1.2.5zm200.3 24.5q.7.8.8 1.4c0 .3-.6.8-.8.8q-.7-.2-1-.9.1-.4 1-1.3M62 47.5q.9 1 1 1.4c0 .3-.6.9-.9.9q-.6-.2-1-.8.1-.5 1-1.5M221 143.4q1-.8 1.5-.8c.4 0 .6.6 1 .9l-1 .8q-.5 0-1.5-1M74.6 60.8q-1 .7-1.4.8c-.3 0-.8-.6-.8-.8q.3-.6 1-1 .3.1 1.2 1m57.7-23.2q-1.1.8-1.5.8-.5-.2-1-1l1-.7q.4 0 1.5.9M86 33.8q-.9.8-1.3.9-.6-.3-1-1 .4-.6 1-.8.4 0 1.3 1m83 132.4q.8.9.8 1.2-.3.7-1 .9c-.2 0-.8-.6-.8-.8q.1-.5 1-1.3m.7-67.4q-1 .8-1.4.8c-.4 0-.7-.6-1-.9q.4-.5 1-.7.4.1 1.4.8M54.3 168.2q-1 .9-1.4.9-.5-.3-.9-1c0-.2.6-.7.9-.7q.5.1 1.4.8m-28.1 20.4c-.4-.6-1-1-.8-1.3q.2-.6 1-.8c.2 0 .8.5.8.8q-.1.5-1 1.3M63 33.6q-.9.9-1.3.9-.5-.2-.8-1c0-.2.6-.8.8-.8q.5.1 1.4 1M188 96.2q-.7-1-.8-1.4.3-.5 1-.8c.3 0 .8.6.8.8q0 .5-1 1.4m-84.4-67.8c.4.6 1 1 .9 1.2q-.2.6-.9 1c-.2 0-.8-.5-.8-.7q.1-.5.8-1.5M19.2 122l-.9-1.3q.2-.5.8-.8.8.1 1 .7 0 .6-.9 1.4m-4 1q.9 1 1 1.4c-.1.3-.7.9-1 .8s-.8-.6-.9-.9q.1-.4 1-1.2M62 190.2q-1 .9-1.4 1c-.4 0-.7-.6-1-.9q.4-.6.9-.8.4 0 1.5.7m-41.8-54.9-1.5.8q-.5-.2-.8-.9.4-.5 1-.7.3 0 1.3.8M63 26q-1 .8-1.4.8-.6-.2-1-.8.4-.6 1-1 .4.1 1.3 1m25.4-2.4q-.8-1-.8-1.4.2-.6 1-.8c.2 0 .7.6.8.9q-.1.4-1 1.3m128 81.8q-.8.8-1.4 1l-1-1c.4-.2.6-.8 1-.8q.4 0 1.4.8m-195.3.8q-1.1.7-1.5.7-.6-.2-.7-1c0-.2.5-.8.8-.7q.5.1 1.3 1M8.8 131.9q-1 .8-1.4.9-.5-.2-1-.9.4-.6 1-.8.4 0 1.4.8m28.7 22.8-.7-1c0-.4.7-1 1-1q.6.4.9 1-.1.8-.5 1.4z"/><path fill="#000" d="M31.6 198c-.6.4-1 1-1.2.9-.4 0-.7-.5-1.1-.7q.4-.7.8-1 .5.1 1.5.8m164.2-2.7q-.9-.8-1-1.2c0-.3.5-1 .9-1 .3 0 .8.6.9.9q-.1.4-.8 1.3m26.4-22.2q.9 1 1 1.4c0 .3-.6.6-.9 1q-.6-.4-.8-.9 0-.5.7-1.5M185.3 160q-1 .7-1.4.8c-.3 0-.5-.6-.8-.8q.4-.6 1-.9zM12.5 173.1q-1.1.8-1.5.8-.6-.3-.8-1c0-.2.6-.7.9-.7q.4 0 1.4.9M84.4 19.8q-.7-1.1-.7-1.5.2-.5 1-.9.5.5.7 1zm93.4 86.4q-1 .7-1.5.8c-.3 0-.6-.6-1-.9l1-.8q.5 0 1.5.9m-47.7-46.9q.9 1 1 1.4-.2.6-.8 1c-.2 0-.9-.5-.9-.8q0-.5.7-1.6M22.7 140.1q-.9-.9-1-1.3.2-.6 1-.8c.2 0 .8.4.8.7q-.1.4-.8 1.4M91.9 40q-.9.8-1.5 1-.4-.2-.9-.8.6-.5 1.3-.8.3 0 1 .6M30.1 192q-.7-.9-.8-1.3.2-.6.7-.8c.4 0 .8.5 1.1.7zM20 157.6q-.9.9-1.3 1-.6-.2-1-1l.9-.7q.4 0 1.5.7M63.2 80q-.8.9-1.1 1-.6-.3-1-1c0-.1.6-.7.9-.7q.4.1 1.2.8m-46 22.2q-1 .7-1.4.8c-.3 0-.8-.6-.8-.8q.3-.5 1-.8.2 0 1.2.8m10.6 99.3c-.6.3-1 .8-1.3.7q-.5-.3-1-1c.4-.2.7-.7 1-.7q.5.2 1.3 1m81.4-179.4q-.9.8-1.2.8-.6-.2-1-.8.4-.6 1-.9zM41.7 210q-.9-.8-1-1.2c-.1-.2.5-.9.7-.8q.7.2 1 .8 0 .3-.7 1.1m-30.4-75.7q.6 1 .7 1.5c0 .3-.7.8-.9.7q-.6-.3-.9-1zm36.5-8.5q-.9.6-1.3.6-.5-.3-.8-1l.7-.9zM113 18.2q-.8.7-1.4.9c-.3 0-.9-.6-.8-.8q.1-.7.8-1 .4 0 1.4.9"/></svg>