<svg xmlns="http://www.w3.org/2000/svg" width="179" height="208" fill="none"><path fill="#000" d="M55.2 5.5c.2 1.7 3.2 4.7 4.7 6q-5.9.2-11.7 1.3C40 14.3 32.5 17.5 24.7 20c-2 .6-7.7-.6-7.2 2.6.5 3.5 5.3 6.2 8.4 7.4A51 51 0 0 0 1.6 53.8c-4.3 6.2.8 6.9 6 6.8a34 34 0 0 0-3.3 19.2c.8 7 2.3 7.7 7.7 3.3-.2 8.8.8 14.5 4.8 22.6 1 2.2 2.6 4.8 3.6 6.8-8.6 1.2-10.7 10-9.5 17.3a34 34 0 0 0 11.5 21c3.3 2.5 6.2 3.3 10.2 3.2 5.3 18.6 10.2 30 25.7 42.4l5.6 4c4.3 3 16.8 8.8 32 7.4 19-1.9 31.6-13.5 41.3-24.4l6.5-8.7c.4-1.5 2.5-4.8 3.3-6.6a73 73 0 0 0 5.2-17.2c19.5 5.1 31.2-24.8 22.8-39.3a12 12 0 0 0-7.7-5.7c1.8-5.8 3-11.2 3-17.2 2-1.5 2-2.9 2.5-5.1a37 37 0 0 0-1.7-21.5c2 .4 7.4 1.8 7.9-1 .3-1.9-3.3-4.8-4.3-6.4-5.7-8.7-8.8-16-17.8-22.1 1.3-.3 4.4-.8 5-2 1.3-2.8-2-5-4-6-5-2.5-10.2-2.9-15.7-2.5.3-2.6 1.1-9-.6-10.9-2.6-2.8-6.7 4.4-7.9 6.2-.5-1.2-1.3-3.2-2-4.3a26 26 0 0 0-11-9.7c-1-.5-2.8-.9-4-.4-1.6.6-1.6 2.4-1 3.8q1.1 2 1.8 4a61 61 0 0 0-35.6-9.2c-5.8 0-12.4.7-18.4-.5-3.3-.7-9.1-3.6-8.3 4.4"/><path fill="#beb5a8" d="M59.8 5c5.7 1.7 12 1.5 17.9 1.3a68 68 0 0 1 33.6 6.1A42 42 0 0 1 118 17l2.8 2.4c4.9 2 .7-9.1.1-10.9 4.5 3.2 7.6 7 9 12.3.5 1.7.3 6.2 2.2 6.3 1.9-.8 4.5-7.3 6.1-9.4 0 2.6-1 5.7-.8 8.1 0 .6 1.1 1.2 1.6 1.1a28 28 0 0 1 17.1 2.2c-1.6.4-4.3 1-5.7 1.8-3.3 2.3 2.9 4.6 4.4 5.6 7.8 5.6 11.2 14.3 16.6 21.8-1.8-.4-3.5-1.4-5.2-1.8-3.1-.6-2.2 2-1.3 3.6 4 6.9 4.8 14 3.7 21.9q-.7-1-1.5-1.4c-2.9-1.1-2.2 2.3-1.9 3.6 1.6 7.3-.6 15.1-2.8 22-4.6 1-6.8 3.5-9.3 7.3-.3-7-1.3-14.9-3.8-21.5-.7-1.7-2-5.5-4.3-4.1q-.5.6-.5 1.5 1.6 5.9 2.8 11.9c.8 5 1 10.2 1.5 15.2q.2 3.1 1 6.1.3.9 1 1.5.7.3 1.6.1c3.2-1 3.8-11.3 10.2-13.4a7 7 0 0 1 4.9.4c2.2 1 3.7 3 4.5 5.2a28 28 0 0 1-1.9 20 20 20 0 0 1-10.5 10.7q-3.2 1.2-6.5.1h-.4c-.2-1.5-.6-3-2.2-3-.4 0-1.3.6-1.4 1-1.2 2.7-1.6 6.2-2.3 9l-1.8 6.4a67 67 0 0 1-43.7 42 44 44 0 0 1-35-5.5c-21.8-13-27.4-34.4-32.8-57.6a115 115 0 0 1-3.3-40.2c0-1.1.3-3.3-.6-4-2-1.7-3.1 1.6-3.4 3q-1.4 6.9-1.2 14-1.6-3.8-3.6-7.4-5.6-10.2-5-21.8c.2-2.6.8-5.3.7-7.9 0-.5-.7-.8-1-1-1.4.1-3.2 2.5-4.1 3.5L8.5 81a32 32 0 0 1 4-20c.8-1.4 3.8-4.6 2.8-6.2-1-.8-2.9.1-4 .5A18 18 0 0 1 5 56.7c1.7-2.6 2.9-5.3 4.8-7.8 6-8.2 15.1-13.8 24.3-17.9 1.2-.5 3.1-.9 3.1-2.5-.7-1.4-2.8-1.1-4.4-1.3-3.4-.3-5.8-1.1-8.8-2.8 4.6-.8 9.5-2.6 14-4a98 98 0 0 1 12-3.1q9.2-1.7 18.6-1.7c1.4 0 4.3.2 5.2-1 .1-2-2.7-2-4.1-2.6-4-1.6-7.3-3.6-10-7"/><mask id="a" width="167" height="108" x="5" y="5" maskUnits="userSpaceOnUse" style="mask-type:alpha"><path fill="#beb5a8" d="M60 5a57 57 0 0 0 18 1.3c11.4-.2 23.5.6 33.8 6.1a42 42 0 0 1 6.6 4.5l2.7 2.4c5 2 .8-9.2.2-10.9q6.8 4.5 9 12.3c.5 1.6.3 6.1 2.2 6.2 1.9-.8 4.5-7.2 6.2-9.4-.1 2.7-1.1 5.7-.9 8.1.1.6 1.2 1.2 1.7 1.1 6.3-.6 11.1-.7 17.1 2.2-1.6.4-4.3 1-5.7 1.8-3.4 2.2 2.9 4.5 4.4 5.6 7.8 5.5 11.3 14.2 16.7 21.7-1.8-.4-3.6-1.5-5.3-1.8-3.1-.6-2.2 2-1.3 3.6 4.1 6.8 4.9 14 3.7 21.8q-.6-1-1.4-1.4c-3-1.1-2.2 2.3-2 3.6 1.7 7.2-.6 15-2.8 22-4.6 1-6.8 3.4-9.3 7.2-.3-7-1.3-14.8-3.8-21.4-.7-1.8-2-5.5-4.3-4.2q-.6.6-.6 1.5c-.1-2.7-2-5.2-2.7-7.8a43 43 0 0 1-13.6-19c-1.5-1-3.5-2.8-5.2-3.8l-4.9-2.8a69 69 0 0 1-41 9.8q-.6 0-.9-.7-.2-.9.3-1.6c-1-.5-10.9-.7-13.3-1.3A56 56 0 0 0 48 78.8c-.8 1.4-1.8 3.7-3.7 3.4-2.4-.5-2.7-4.9-2.8-6.8-.2-.4-.1-1.4-.1-2-6.8 9.2-7.9 15-11.2 25.4 0-1 .3-3.3-.6-4-2-1.6-3.2 1.6-3.5 3-1 4.5-1 9.3-1.1 14q-1.6-3.8-3.7-7.4a39 39 0 0 1-4.9-21.7c.2-2.6.7-5.3.6-7.9 0-.5-.7-.8-1-1-1.4.1-3.2 2.5-4.1 3.5l-3.4 3.4a31 31 0 0 1 4-19.8c.8-1.6 3.8-4.7 2.8-6.3-1-.8-2.9.1-4 .5C9 56 7.4 56.4 5 56.5c1.7-2.6 2.9-5.3 4.8-7.8A60 60 0 0 1 34.2 31c1.3-.5 3.2-.9 3.2-2.4-.8-1.5-2.9-1.2-4.5-1.4a21 21 0 0 1-8.8-2.7c4.6-.8 9.5-2.6 14-4a99 99 0 0 1 12.1-3.2q9.2-1.6 18.6-1.7c1.5 0 4.4.3 5.2-1 .2-2-2.6-2-4-2.6-4-1.5-7.4-3.5-10-6.9"/></mask><g fill="#000" mask="url(#a)"><path d="M7.7 4.5a1.2 1.2 0 1 1 0 2.5 1.2 1.2 0 0 1 0-2.5m6 0a1.2 1.2 0 1 1 0 2.5 1.2 1.2 0 0 1 0-2.5m6 0a1.2 1.2 0 1 1 0 2.5 1.2 1.2 0 0 1 0-2.5m6 0a1.2 1.2 0 1 1 0 2.5 1.2 1.2 0 0 1 0-2.5m6 0a1.2 1.2 0 1 1 0 2.5 1.2 1.2 0 0 1 0-2.5m6 0a1.2 1.2 0 1 1 0 2.5 1.2 1.2 0 0 1 0-2.5m6 0a1.2 1.2 0 1 1 0 2.5 1.2 1.2 0 0 1 0-2.5m6 0a1.2 1.2 0 1 1 0 2.5 1.2 1.2 0 0 1 0-2.5m6 0a1.2 1.2 0 1 1 0 2.5 1.2 1.2 0 0 1 0-2.5m6 0a1.2 1.2 0 1 1 0 2.5 1.2 1.2 0 0 1 0-2.5m6 0a1.2 1.2 0 1 1 0 2.5 1.2 1.2 0 0 1 0-2.5m6 0a1.2 1.2 0 1 1 0 2.5 1.2 1.2 0 0 1 0-2.5m6 0a1.2 1.2 0 1 1 0 2.5 1.2 1.2 0 0 1 0-2.5m6 0a1.2 1.2 0 1 1 0 2.5 1.2 1.2 0 0 1 0-2.5m6 0a1.2 1.2 0 1 1 0 2.5 1.2 1.2 0 0 1 0-2.5m6 0a1.2 1.2 0 1 1 0 2.5 1.2 1.2 0 0 1 0-2.5m6 0a1.2 1.2 0 1 1 0 2.5 1.2 1.2 0 0 1 0-2.5m6 0a1.2 1.2 0 1 1 0 2.5 1.2 1.2 0 0 1 0-2.5m6 0a1.2 1.2 0 1 1 0 2.5 1.2 1.2 0 0 1 0-2.5m6 0a1.2 1.2 0 1 1 0 2.5 1.2 1.2 0 0 1 0-2.5m6 0a1.2 1.2 0 1 1 0 2.5 1.2 1.2 0 0 1 0-2.5m6 0a1.2 1.2 0 1 1 0 2.5 1.2 1.2 0 0 1 0-2.5m6 0a1.2 1.2 0 1 1 0 2.5 1.2 1.2 0 0 1 0-2.5m6 0a1.2 1.2 0 1 1 0 2.5 1.2 1.2 0 0 1 0-2.5m6 0a1.2 1.2 0 1 1 0 2.5 1.2 1.2 0 0 1 0-2.5m6 0a1.2 1.2 0 1 1 0 2.5 1.2 1.2 0 0 1 0-2.5m6 0a1.2 1.2 0 1 1 0 2.5 1.2 1.2 0 0 1 0-2.5m6 0a1.2 1.2 0 1 1 0 2.5 1.2 1.2 0 0 1 0-2.5m-165 3a1.2 1.2 0 1 1 0 2.5 1.2 1.2 0 0 1 0-2.5m6 0a1.2 1.2 0 1 1 0 2.5 1.2 1.2 0 0 1 0-2.5m6 0a1.2 1.2 0 1 1 0 2.5 1.2 1.2 0 0 1 0-2.5m6 0a1.2 1.2 0 1 1 0 2.5 1.2 1.2 0 0 1 0-2.5m6 0a1.2 1.2 0 1 1 0 2.5 1.2 1.2 0 0 1 0-2.5m6 0a1.2 1.2 0 1 1 0 2.5 1.2 1.2 0 0 1 0-2.5m6 0a1.2 1.2 0 1 1 0 2.5 1.2 1.2 0 0 1 0-2.5m6 0a1.2 1.2 0 1 1 0 2.5 1.2 1.2 0 0 1 0-2.5m6 0a1.2 1.2 0 1 1 0 2.5 1.2 1.2 0 0 1 0-2.5m6 0a1.2 1.2 0 1 1 0 2.5 1.2 1.2 0 0 1 0-2.5m6 0a1.2 1.2 0 1 1 0 2.5 1.2 1.2 0 0 1 0-2.5m6 0a1.2 1.2 0 1 1 0 2.5 1.2 1.2 0 0 1 0-2.5m6 0a1.2 1.2 0 1 1 0 2.5 1.2 1.2 0 0 1 0-2.5m6 0a1.2 1.2 0 1 1 0 2.5 1.2 1.2 0 0 1 0-2.5m6 0a1.2 1.2 0 1 1 0 2.5 1.2 1.2 0 0 1 0-2.5m6 0a1.2 1.2 0 1 1 0 2.5 1.2 1.2 0 0 1 0-2.5m6 0a1.2 1.2 0 1 1 0 2.5 1.2 1.2 0 0 1 0-2.5m6 0a1.2 1.2 0 1 1 0 2.5 1.2 1.2 0 0 1 0-2.5m6 0a1.2 1.2 0 1 1 0 2.5 1.2 1.2 0 0 1 0-2.5m6 0a1.2 1.2 0 1 1 0 2.5 1.2 1.2 0 0 1 0-2.5m6 0a1.2 1.2 0 1 1 0 2.5 1.2 1.2 0 0 1 0-2.5m6 0a1.2 1.2 0 1 1 0 2.5 1.2 1.2 0 0 1 0-2.5m6 0a1.2 1.2 0 1 1 0 2.5 1.2 1.2 0 0 1 0-2.5m6 0a1.2 1.2 0 1 1 0 2.5 1.2 1.2 0 0 1 0-2.5m6 0a1.2 1.2 0 1 1 0 2.5 1.2 1.2 0 0 1 0-2.5m6 0a1.2 1.2 0 1 1 0 2.5 1.2 1.2 0 0 1 0-2.5m6 0a1.2 1.2 0 1 1 0 2.5 1.2 1.2 0 0 1 0-2.5m6 0a1.2 1.2 0 1 1 0 2.5 1.2 1.2 0 0 1 0-2.5m6 0a1.2 1.2 0 1 1 0 2.5 1.2 1.2 0 0 1 0-2.5m-165 3a1.2 1.2 0 1 1 0 2.5 1.2 1.2 0 0 1 0-2.5m6 0a1.2 1.2 0 1 1 0 2.5 1.2 1.2 0 0 1 0-2.5m6 0a1.2 1.2 0 1 1 0 2.5 1.2 1.2 0 0 1 0-2.5m6 0a1.2 1.2 0 1 1 0 2.5 1.2 1.2 0 0 1 0-2.5m6 0a1.2 1.2 0 1 1 0 2.5 1.2 1.2 0 0 1 0-2.5m6 0a1.2 1.2 0 1 1 0 2.5 1.2 1.2 0 0 1 0-2.5m6 0a1.2 1.2 0 1 1 0 2.5 1.2 1.2 0 0 1 0-2.5m6 0a1.2 1.2 0 1 1 0 2.5 1.2 1.2 0 0 1 0-2.5m6 0a1.2 1.2 0 1 1 0 2.5 1.2 1.2 0 0 1 0-2.5m6 0a1.2 1.2 0 1 1 0 2.5 1.2 1.2 0 0 1 0-2.5m6 0a1.2 1.2 0 1 1 0 2.5 1.2 1.2 0 0 1 0-2.5m6 0a1.2 1.2 0 1 1 0 2.5 1.2 1.2 0 0 1 0-2.5m6 0a1.2 1.2 0 1 1 0 2.5 1.2 1.2 0 0 1 0-2.5m6 0a1.2 1.2 0 1 1 0 2.5 1.2 1.2 0 0 1 0-2.5m6 0a1.2 1.2 0 1 1 0 2.5 1.2 1.2 0 0 1 0-2.5m6 0a1.2 1.2 0 1 1 0 2.5 1.2 1.2 0 0 1 0-2.5m6 0a1.2 1.2 0 1 1 0 2.5 1.2 1.2 0 0 1 0-2.5m6 0a1.2 1.2 0 1 1 0 2.5 1.2 1.2 0 0 1 0-2.5m6 0a1.2 1.2 0 1 1 0 2.5 1.2 1.2 0 0 1 0-2.5m6 0a1.2 1.2 0 1 1 0 2.5 1.2 1.2 0 0 1 0-2.5m6 0a1.2 1.2 0 1 1 0 2.5 1.2 1.2 0 0 1 0-2.5m6 0a1.2 1.2 0 1 1 0 2.5 1.2 1.2 0 0 1 0-2.5m6 0a1.2 1.2 0 1 1 0 2.5 1.2 1.2 0 0 1 0-2.5m6 0a1.2 1.2 0 1 1 0 2.5 1.2 1.2 0 0 1 0-2.5m6 0a1.2 1.2 0 1 1 0 2.5 1.2 1.2 0 0 1 0-2.5m6 0a1.2 1.2 0 1 1 0 2.5 1.2 1.2 0 0 1 0-2.5m6 0a1.2 1.2 0 1 1 0 2.5 1.2 1.2 0 0 1 0-2.5m6 0a1.2 1.2 0 1 1 0 2.5 1.2 1.2 0 0 1 0-2.5m-165 3a1.2 1.2 0 1 1 0 2.5 1.2 1.2 0 0 1 0-2.5m6 0a1.2 1.2 0 1 1 0 2.5 1.2 1.2 0 0 1 0-2.5m6 0a1.2 1.2 0 1 1 0 2.5 1.2 1.2 0 0 1 0-2.5m6 0a1.2 1.2 0 1 1 0 2.5 1.2 1.2 0 0 1 0-2.5m6 0a1.2 1.2 0 1 1 0 2.5 1.2 1.2 0 0 1 0-2.5m6 0a1.2 1.2 0 1 1 0 2.5 1.2 1.2 0 0 1 0-2.5m6 0a1.2 1.2 0 1 1 0 2.5 1.2 1.2 0 0 1 0-2.5m6 0a1.2 1.2 0 1 1 0 2.5 1.2 1.2 0 0 1 0-2.5m6 0a1.2 1.2 0 1 1 0 2.5 1.2 1.2 0 0 1 0-2.5m6 0a1.2 1.2 0 1 1 0 2.5 1.2 1.2 0 0 1 0-2.5m6 0a1.2 1.2 0 1 1 0 2.5 1.2 1.2 0 0 1 0-2.5m6 0a1.2 1.2 0 1 1 0 2.5 1.2 1.2 0 0 1 0-2.5m6 0a1.2 1.2 0 1 1 0 2.5 1.2 1.2 0 0 1 0-2.5m6 0a1.2 1.2 0 1 1 0 2.5 1.2 1.2 0 0 1 0-2.5m6 0a1.2 1.2 0 1 1 0 2.5 1.2 1.2 0 0 1 0-2.5m6 0a1.2 1.2 0 1 1 0 2.5 1.2 1.2 0 0 1 0-2.5m6 0a1.2 1.2 0 1 1 0 2.5 1.2 1.2 0 0 1 0-2.5m6 0a1.2 1.2 0 1 1 0 2.5 1.2 1.2 0 0 1 0-2.5m6 0a1.2 1.2 0 1 1 0 2.5 1.2 1.2 0 0 1 0-2.5m6 0a1.2 1.2 0 1 1 0 2.5 1.2 1.2 0 0 1 0-2.5m6 0a1.2 1.2 0 1 1 0 2.5 1.2 1.2 0 0 1 0-2.5m6 0a1.2 1.2 0 1 1 0 2.5 1.2 1.2 0 0 1 0-2.5m6 0a1.2 1.2 0 1 1 0 2.5 1.2 1.2 0 0 1 0-2.5m6 0a1.2 1.2 0 1 1 0 2.5 1.2 1.2 0 0 1 0-2.5m6 0a1.2 1.2 0 1 1 0 2.5 1.2 1.2 0 0 1 0-2.5m6 0a1.2 1.2 0 1 1 0 2.5 1.2 1.2 0 0 1 0-2.5m6 0a1.2 1.2 0 1 1 0 2.5 1.2 1.2 0 0 1 0-2.5m6 0a1.2 1.2 0 1 1 0 2.5 1.2 1.2 0 0 1 0-2.5m6 0a1.2 1.2 0 1 1 0 2.5 1.2 1.2 0 0 1 0-2.5m-165 3a1.2 1.2 0 1 1 0 2.5 1.2 1.2 0 0 1 0-2.5m6 0a1.2 1.2 0 1 1 0 2.5 1.2 1.2 0 0 1 0-2.5m6 0a1.2 1.2 0 1 1 0 2.5 1.2 1.2 0 0 1 0-2.5m6 0a1.2 1.2 0 1 1 0 2.5 1.2 1.2 0 0 1 0-2.5m6 0a1.2 1.2 0 1 1 0 2.5 1.2 1.2 0 0 1 0-2.5m6 0a1.2 1.2 0 1 1 0 2.5 1.2 1.2 0 0 1 0-2.5m6 0a1.2 1.2 0 1 1 0 2.5 1.2 1.2 0 0 1 0-2.5m6 0a1.2 1.2 0 1 1 0 2.5 1.2 1.2 0 0 1 0-2.5m6 0a1.2 1.2 0 1 1 0 2.5 1.2 1.2 0 0 1 0-2.5m6 0a1.2 1.2 0 1 1 0 2.5 1.2 1.2 0 0 1 0-2.5m6 0a1.2 1.2 0 1 1 0 2.5 1.2 1.2 0 0 1 0-2.5m6 0a1.2 1.2 0 1 1 0 2.5 1.2 1.2 0 0 1 0-2.5m6 0a1.2 1.2 0 1 1 0 2.5 1.2 1.2 0 0 1 0-2.5m6 0a1.2 1.2 0 1 1 0 2.5 1.2 1.2 0 0 1 0-2.5m6 0a1.2 1.2 0 1 1 0 2.5 1.2 1.2 0 0 1 0-2.5m6 0a1.2 1.2 0 1 1 0 2.5 1.2 1.2 0 0 1 0-2.5m6 0a1.2 1.2 0 1 1 0 2.5 1.2 1.2 0 0 1 0-2.5m6 0a1.2 1.2 0 1 1 0 2.5 1.2 1.2 0 0 1 0-2.5m6 0a1.2 1.2 0 1 1 0 2.5 1.2 1.2 0 0 1 0-2.5m6 0a1.2 1.2 0 1 1 0 2.5 1.2 1.2 0 0 1 0-2.5m6 0a1.2 1.2 0 1 1 0 2.5 1.2 1.2 0 0 1 0-2.5m6 0a1.2 1.2 0 1 1 0 2.5 1.2 1.2 0 0 1 0-2.5m6 0a1.2 1.2 0 1 1 0 2.5 1.2 1.2 0 0 1 0-2.5m6 0a1.2 1.2 0 1 1 0 2.5 1.2 1.2 0 0 1 0-2.5m6 0a1.2 1.2 0 1 1 0 2.5 1.2 1.2 0 0 1 0-2.5m6 0a1.2 1.2 0 1 1 0 2.5 1.2 1.2 0 0 1 0-2.5m6 0a1.2 1.2 0 1 1 0 2.5 1.2 1.2 0 0 1 0-2.5m6 0a1.2 1.2 0 1 1 0 2.5 1.2 1.2 0 0 1 0-2.5m-165 3a1.2 1.2 0 1 1 0 2.5 1.2 1.2 0 0 1 0-2.5m6 0a1.2 1.2 0 1 1 0 2.5 1.2 1.2 0 0 1 0-2.5m6 0a1.2 1.2 0 1 1 0 2.5 1.2 1.2 0 0 1 0-2.5m6 0a1.2 1.2 0 1 1 0 2.5 1.2 1.2 0 0 1 0-2.5m6 0a1.2 1.2 0 1 1 0 2.5 1.2 1.2 0 0 1 0-2.5m6 0a1.2 1.2 0 1 1 0 2.5 1.2 1.2 0 0 1 0-2.5m6 0a1.2 1.2 0 1 1 0 2.5 1.2 1.2 0 0 1 0-2.5m6 0a1.2 1.2 0 1 1 0 2.5 1.2 1.2 0 0 1 0-2.5m6 0a1.2 1.2 0 1 1 0 2.5 1.2 1.2 0 0 1 0-2.5m6 0a1.2 1.2 0 1 1 0 2.5 1.2 1.2 0 0 1 0-2.5m6 0a1.2 1.2 0 1 1 0 2.5 1.2 1.2 0 0 1 0-2.5m6 0a1.2 1.2 0 1 1 0 2.5 1.2 1.2 0 0 1 0-2.5m6 0a1.2 1.2 0 1 1 0 2.5 1.2 1.2 0 0 1 0-2.5m6 0a1.2 1.2 0 1 1 0 2.5 1.2 1.2 0 0 1 0-2.5m6 0a1.2 1.2 0 1 1 0 2.5 1.2 1.2 0 0 1 0-2.5m6 0a1.2 1.2 0 1 1 0 2.5 1.2 1.2 0 0 1 0-2.5m6 0a1.2 1.2 0 1 1 0 2.5 1.2 1.2 0 0 1 0-2.5m6 0a1.2 1.2 0 1 1 0 2.5 1.2 1.2 0 0 1 0-2.5m6 0a1.2 1.2 0 1 1 0 2.5 1.2 1.2 0 0 1 0-2.5m6 0a1.2 1.2 0 1 1 0 2.5 1.2 1.2 0 0 1 0-2.5m6 0a1.2 1.2 0 1 1 0 2.5 1.2 1.2 0 0 1 0-2.5m6 0a1.2 1.2 0 1 1 0 2.5 1.2 1.2 0 0 1 0-2.5m6 0a1.2 1.2 0 1 1 0 2.5 1.2 1.2 0 0 1 0-2.5m6 0a1.2 1.2 0 1 1 0 2.5 1.2 1.2 0 0 1 0-2.5m6 0a1.2 1.2 0 1 1 0 2.5 1.2 1.2 0 0 1 0-2.5m6 0a1.2 1.2 0 1 1 0 2.5 1.2 1.2 0 0 1 0-2.5m6 0a1.2 1.2 0 1 1 0 2.5 1.2 1.2 0 0 1 0-2.5m6 0a1.2 1.2 0 1 1 0 2.5 1.2 1.2 0 0 1 0-2.5m6 0a1.2 1.2 0 1 1 0 2.5 1.2 1.2 0 0 1 0-2.5m-165 3a1.2 1.2 0 1 1 0 2.5 1.2 1.2 0 0 1 0-2.5m6 0a1.2 1.2 0 1 1 0 2.5 1.2 1.2 0 0 1 0-2.5m6 0a1.2 1.2 0 1 1 0 2.5 1.2 1.2 0 0 1 0-2.5m6 0a1.2 1.2 0 1 1 0 2.5 1.2 1.2 0 0 1 0-2.5m6 0a1.2 1.2 0 1 1 0 2.5 1.2 1.2 0 0 1 0-2.5m6 0a1.2 1.2 0 1 1 0 2.5 1.2 1.2 0 0 1 0-2.5m6 0a1.2 1.2 0 1 1 0 2.5 1.2 1.2 0 0 1 0-2.5m6 0a1.2 1.2 0 1 1 0 2.5 1.2 1.2 0 0 1 0-2.5m6 0a1.2 1.2 0 1 1 0 2.5 1.2 1.2 0 0 1 0-2.5m6 0a1.2 1.2 0 1 1 0 2.5 1.2 1.2 0 0 1 0-2.5m6 0a1.2 1.2 0 1 1 0 2.5 1.2 1.2 0 0 1 0-2.5m6 0a1.2 1.2 0 1 1 0 2.5 1.2 1.2 0 0 1 0-2.5m6 0a1.2 1.2 0 1 1 0 2.5 1.2 1.2 0 0 1 0-2.5m6 0a1.2 1.2 0 1 1 0 2.5 1.2 1.2 0 0 1 0-2.5m6 0a1.2 1.2 0 1 1 0 2.5 1.2 1.2 0 0 1 0-2.5m6 0a1.2 1.2 0 1 1 0 2.5 1.2 1.2 0 0 1 0-2.5m6 0a1.2 1.2 0 1 1 0 2.5 1.2 1.2 0 0 1 0-2.5m6 0a1.2 1.2 0 1 1 0 2.5 1.2 1.2 0 0 1 0-2.5m6 0a1.2 1.2 0 1 1 0 2.5 1.2 1.2 0 0 1 0-2.5m6 0a1.2 1.2 0 1 1 0 2.5 1.2 1.2 0 0 1 0-2.5m6 0a1.2 1.2 0 1 1 0 2.5 1.2 1.2 0 0 1 0-2.5m6 0a1.2 1.2 0 1 1 0 2.5 1.2 1.2 0 0 1 0-2.5m6 0a1.2 1.2 0 1 1 0 2.5 1.2 1.2 0 0 1 0-2.5m6 0a1.2 1.2 0 1 1 0 2.5 1.2 1.2 0 0 1 0-2.5m6 0a1.2 1.2 0 1 1 0 2.5 1.2 1.2 0 0 1 0-2.5m6 0a1.2 1.2 0 1 1 0 2.5 1.2 1.2 0 0 1 0-2.5m6 0a1.2 1.2 0 1 1 0 2.5 1.2 1.2 0 0 1 0-2.5m6 0a1.2 1.2 0 1 1 0 2.5 1.2 1.2 0 0 1 0-2.5m-165 3a1.2 1.2 0 1 1 0 2.5 1.2 1.2 0 0 1 0-2.5m6 0a1.2 1.2 0 1 1 0 2.5 1.2 1.2 0 0 1 0-2.5m6 0a1.2 1.2 0 1 1 0 2.5 1.2 1.2 0 0 1 0-2.5m6 0a1.2 1.2 0 1 1 0 2.5 1.2 1.2 0 0 1 0-2.5m6 0a1.2 1.2 0 1 1 0 2.5 1.2 1.2 0 0 1 0-2.5m6 0a1.2 1.2 0 1 1 0 2.5 1.2 1.2 0 0 1 0-2.5m6 0a1.2 1.2 0 1 1 0 2.5 1.2 1.2 0 0 1 0-2.5m6 0a1.2 1.2 0 1 1 0 2.5 1.2 1.2 0 0 1 0-2.5m6 0a1.2 1.2 0 1 1 0 2.5 1.2 1.2 0 0 1 0-2.5m6 0a1.2 1.2 0 1 1 0 2.5 1.2 1.2 0 0 1 0-2.5m6 0a1.2 1.2 0 1 1 0 2.5 1.2 1.2 0 0 1 0-2.5m6 0a1.2 1.2 0 1 1 0 2.5 1.2 1.2 0 0 1 0-2.5m6 0a1.2 1.2 0 1 1 0 2.5 1.2 1.2 0 0 1 0-2.5m6 0a1.2 1.2 0 1 1 0 2.5 1.2 1.2 0 0 1 0-2.5m6 0a1.2 1.2 0 1 1 0 2.5 1.2 1.2 0 0 1 0-2.5m6 0a1.2 1.2 0 1 1 0 2.5 1.2 1.2 0 0 1 0-2.5m6 0a1.2 1.2 0 1 1 0 2.5 1.2 1.2 0 0 1 0-2.5m6 0a1.2 1.2 0 1 1 0 2.5 1.2 1.2 0 0 1 0-2.5m6 0a1.2 1.2 0 1 1 0 2.5 1.2 1.2 0 0 1 0-2.5m6 0a1.2 1.2 0 1 1 0 2.5 1.2 1.2 0 0 1 0-2.5m6 0a1.2 1.2 0 1 1 0 2.5 1.2 1.2 0 0 1 0-2.5m6 0a1.2 1.2 0 1 1 0 2.5 1.2 1.2 0 0 1 0-2.5m6 0a1.2 1.2 0 1 1 0 2.5 1.2 1.2 0 0 1 0-2.5m6 0a1.2 1.2 0 1 1 0 2.5 1.2 1.2 0 0 1 0-2.5m6 0a1.2 1.2 0 1 1 0 2.5 1.2 1.2 0 0 1 0-2.5m6 0a1.2 1.2 0 1 1 0 2.5 1.2 1.2 0 0 1 0-2.5m6 0a1.2 1.2 0 1 1 0 2.5 1.2 1.2 0 0 1 0-2.5m6 0a1.2 1.2 0 1 1 0 2.5 1.2 1.2 0 0 1 0-2.5m6 0a1.2 1.2 0 1 1 0 2.5 1.2 1.2 0 0 1 0-2.5m-165 3a1.2 1.2 0 1 1 0 2.5 1.2 1.2 0 0 1 0-2.5m6 0a1.2 1.2 0 1 1 0 2.5 1.2 1.2 0 0 1 0-2.5m6 0a1.2 1.2 0 1 1 0 2.5 1.2 1.2 0 0 1 0-2.5m6 0a1.2 1.2 0 1 1 0 2.5 1.2 1.2 0 0 1 0-2.5m6 0a1.2 1.2 0 1 1 0 2.5 1.2 1.2 0 0 1 0-2.5m6 0a1.2 1.2 0 1 1 0 2.5 1.2 1.2 0 0 1 0-2.5m6 0a1.2 1.2 0 1 1 0 2.5 1.2 1.2 0 0 1 0-2.5m6 0a1.2 1.2 0 1 1 0 2.5 1.2 1.2 0 0 1 0-2.5m6 0a1.2 1.2 0 1 1 0 2.5 1.2 1.2 0 0 1 0-2.5m6 0a1.2 1.2 0 1 1 0 2.5 1.2 1.2 0 0 1 0-2.5m6 0a1.2 1.2 0 1 1 0 2.5 1.2 1.2 0 0 1 0-2.5m6 0a1.2 1.2 0 1 1 0 2.5 1.2 1.2 0 0 1 0-2.5m6 0a1.2 1.2 0 1 1 0 2.5 1.2 1.2 0 0 1 0-2.5m6 0a1.2 1.2 0 1 1 0 2.5 1.2 1.2 0 0 1 0-2.5m6 0a1.2 1.2 0 1 1 0 2.5 1.2 1.2 0 0 1 0-2.5m6 0a1.2 1.2 0 1 1 0 2.5 1.2 1.2 0 0 1 0-2.5m6 0a1.2 1.2 0 1 1 0 2.5 1.2 1.2 0 0 1 0-2.5m6 0a1.2 1.2 0 1 1 0 2.5 1.2 1.2 0 0 1 0-2.5m6 0a1.2 1.2 0 1 1 0 2.5 1.2 1.2 0 0 1 0-2.5m6 0a1.2 1.2 0 1 1 0 2.5 1.2 1.2 0 0 1 0-2.5m6 0a1.2 1.2 0 1 1 0 2.5 1.2 1.2 0 0 1 0-2.5m6 0a1.2 1.2 0 1 1 0 2.5 1.2 1.2 0 0 1 0-2.5m6 0a1.2 1.2 0 1 1 0 2.5 1.2 1.2 0 0 1 0-2.5m6 0a1.2 1.2 0 1 1 0 2.5 1.2 1.2 0 0 1 0-2.5m6 0a1.2 1.2 0 1 1 0 2.5 1.2 1.2 0 0 1 0-2.5m6 0a1.2 1.2 0 1 1 0 2.5 1.2 1.2 0 0 1 0-2.5m6 0a1.2 1.2 0 1 1 0 2.5 1.2 1.2 0 0 1 0-2.5m6 0a1.2 1.2 0 1 1 0 2.5 1.2 1.2 0 0 1 0-2.5m-165 3a1.2 1.2 0 1 1 0 2.5 1.2 1.2 0 0 1 0-2.5m6 0a1.2 1.2 0 1 1 0 2.5 1.2 1.2 0 0 1 0-2.5m6 0a1.2 1.2 0 1 1 0 2.5 1.2 1.2 0 0 1 0-2.5m6 0a1.2 1.2 0 1 1 0 2.5 1.2 1.2 0 0 1 0-2.5m6 0a1.2 1.2 0 1 1 0 2.5 1.2 1.2 0 0 1 0-2.5m6 0a1.2 1.2 0 1 1 0 2.5 1.2 1.2 0 0 1 0-2.5m6 0a1.2 1.2 0 1 1 0 2.5 1.2 1.2 0 0 1 0-2.5m6 0a1.2 1.2 0 1 1 0 2.5 1.2 1.2 0 0 1 0-2.5m6 0a1.2 1.2 0 1 1 0 2.5 1.2 1.2 0 0 1 0-2.5m6 0a1.2 1.2 0 1 1 0 2.5 1.2 1.2 0 0 1 0-2.5m6 0a1.2 1.2 0 1 1 0 2.5 1.2 1.2 0 0 1 0-2.5m6 0a1.2 1.2 0 1 1 0 2.5 1.2 1.2 0 0 1 0-2.5m6 0a1.2 1.2 0 1 1 0 2.5 1.2 1.2 0 0 1 0-2.5m6 0a1.2 1.2 0 1 1 0 2.5 1.2 1.2 0 0 1 0-2.5m6 0a1.2 1.2 0 1 1 0 2.5 1.2 1.2 0 0 1 0-2.5m6 0a1.2 1.2 0 1 1 0 2.5 1.2 1.2 0 0 1 0-2.5m6 0a1.2 1.2 0 1 1 0 2.5 1.2 1.2 0 0 1 0-2.5m6 0a1.2 1.2 0 1 1 0 2.5 1.2 1.2 0 0 1 0-2.5m6 0a1.2 1.2 0 1 1 0 2.5 1.2 1.2 0 0 1 0-2.5m6 0a1.2 1.2 0 1 1 0 2.5 1.2 1.2 0 0 1 0-2.5m6 0a1.2 1.2 0 1 1 0 2.5 1.2 1.2 0 0 1 0-2.5m6 0a1.2 1.2 0 1 1 0 2.5 1.2 1.2 0 0 1 0-2.5m6 0a1.2 1.2 0 1 1 0 2.5 1.2 1.2 0 0 1 0-2.5m6 0a1.2 1.2 0 1 1 0 2.5 1.2 1.2 0 0 1 0-2.5m6 0a1.2 1.2 0 1 1 0 2.5 1.2 1.2 0 0 1 0-2.5m6 0a1.2 1.2 0 1 1 0 2.5 1.2 1.2 0 0 1 0-2.5m6 0a1.2 1.2 0 1 1 0 2.5 1.2 1.2 0 0 1 0-2.5m6 0a1.2 1.2 0 1 1 0 2.5 1.2 1.2 0 0 1 0-2.5m6 0a1.2 1.2 0 1 1 0 2.5 1.2 1.2 0 0 1 0-2.5m-165 3a1.2 1.2 0 1 1 0 2.5 1.2 1.2 0 0 1 0-2.5m6 0a1.2 1.2 0 1 1 0 2.5 1.2 1.2 0 0 1 0-2.5m6 0a1.2 1.2 0 1 1 0 2.5 1.2 1.2 0 0 1 0-2.5m6 0a1.2 1.2 0 1 1 0 2.5 1.2 1.2 0 0 1 0-2.5m6 0a1.2 1.2 0 1 1 0 2.5 1.2 1.2 0 0 1 0-2.5m6 0a1.2 1.2 0 1 1 0 2.5 1.2 1.2 0 0 1 0-2.5m6 0a1.2 1.2 0 1 1 0 2.5 1.2 1.2 0 0 1 0-2.5m6 0a1.2 1.2 0 1 1 0 2.5 1.2 1.2 0 0 1 0-2.5m6 0a1.2 1.2 0 1 1 0 2.5 1.2 1.2 0 0 1 0-2.5m6 0a1.2 1.2 0 1 1 0 2.5 1.2 1.2 0 0 1 0-2.5m6 0a1.2 1.2 0 1 1 0 2.5 1.2 1.2 0 0 1 0-2.5m6 0a1.2 1.2 0 1 1 0 2.5 1.2 1.2 0 0 1 0-2.5m6 0a1.2 1.2 0 1 1 0 2.5 1.2 1.2 0 0 1 0-2.5m6 0a1.2 1.2 0 1 1 0 2.5 1.2 1.2 0 0 1 0-2.5m6 0a1.2 1.2 0 1 1 0 2.5 1.2 1.2 0 0 1 0-2.5m6 0a1.2 1.2 0 1 1 0 2.5 1.2 1.2 0 0 1 0-2.5m6 0a1.2 1.2 0 1 1 0 2.5 1.2 1.2 0 0 1 0-2.5m6 0a1.2 1.2 0 1 1 0 2.5 1.2 1.2 0 0 1 0-2.5m6 0a1.2 1.2 0 1 1 0 2.5 1.2 1.2 0 0 1 0-2.5m6 0a1.2 1.2 0 1 1 0 2.5 1.2 1.2 0 0 1 0-2.5m6 0a1.2 1.2 0 1 1 0 2.5 1.2 1.2 0 0 1 0-2.5m6 0a1.2 1.2 0 1 1 0 2.5 1.2 1.2 0 0 1 0-2.5m6 0a1.2 1.2 0 1 1 0 2.5 1.2 1.2 0 0 1 0-2.5m6 0a1.2 1.2 0 1 1 0 2.5 1.2 1.2 0 0 1 0-2.5m6 0a1.2 1.2 0 1 1 0 2.5 1.2 1.2 0 0 1 0-2.5m6 0a1.2 1.2 0 1 1 0 2.5 1.2 1.2 0 0 1 0-2.5m6 0a1.2 1.2 0 1 1 0 2.5 1.2 1.2 0 0 1 0-2.5m6 0a1.2 1.2 0 1 1 0 2.5 1.2 1.2 0 0 1 0-2.5m-165 3a1.2 1.2 0 1 1 0 2.5 1.2 1.2 0 0 1 0-2.5m6 0a1.2 1.2 0 1 1 0 2.5 1.2 1.2 0 0 1 0-2.5m6 0a1.2 1.2 0 1 1 0 2.5 1.2 1.2 0 0 1 0-2.5m6 0a1.2 1.2 0 1 1 0 2.5 1.2 1.2 0 0 1 0-2.5m6 0a1.2 1.2 0 1 1 0 2.5 1.2 1.2 0 0 1 0-2.5m6 0a1.2 1.2 0 1 1 0 2.5 1.2 1.2 0 0 1 0-2.5m6 0a1.2 1.2 0 1 1 0 2.5 1.2 1.2 0 0 1 0-2.5m6 0a1.2 1.2 0 1 1 0 2.5 1.2 1.2 0 0 1 0-2.5m6 0a1.2 1.2 0 1 1 0 2.5 1.2 1.2 0 0 1 0-2.5m6 0a1.2 1.2 0 1 1 0 2.5 1.2 1.2 0 0 1 0-2.5m6 0a1.2 1.2 0 1 1 0 2.5 1.2 1.2 0 0 1 0-2.5m6 0a1.2 1.2 0 1 1 0 2.5 1.2 1.2 0 0 1 0-2.5m6 0a1.2 1.2 0 1 1 0 2.5 1.2 1.2 0 0 1 0-2.5m6 0a1.2 1.2 0 1 1 0 2.5 1.2 1.2 0 0 1 0-2.5m6 0a1.2 1.2 0 1 1 0 2.5 1.2 1.2 0 0 1 0-2.5m6 0a1.2 1.2 0 1 1 0 2.5 1.2 1.2 0 0 1 0-2.5m6 0a1.2 1.2 0 1 1 0 2.5 1.2 1.2 0 0 1 0-2.5m6 0a1.2 1.2 0 1 1 0 2.5 1.2 1.2 0 0 1 0-2.5m6 0a1.2 1.2 0 1 1 0 2.5 1.2 1.2 0 0 1 0-2.5m6 0a1.2 1.2 0 1 1 0 2.5 1.2 1.2 0 0 1 0-2.5m6 0a1.2 1.2 0 1 1 0 2.5 1.2 1.2 0 0 1 0-2.5m6 0a1.2 1.2 0 1 1 0 2.5 1.2 1.2 0 0 1 0-2.5m6 0a1.2 1.2 0 1 1 0 2.5 1.2 1.2 0 0 1 0-2.5m6 0a1.2 1.2 0 1 1 0 2.5 1.2 1.2 0 0 1 0-2.5m6 0a1.2 1.2 0 1 1 0 2.5 1.2 1.2 0 0 1 0-2.5m6 0a1.2 1.2 0 1 1 0 2.5 1.2 1.2 0 0 1 0-2.5m6 0a1.2 1.2 0 1 1 0 2.5 1.2 1.2 0 0 1 0-2.5m6 0a1.2 1.2 0 1 1 0 2.5 1.2 1.2 0 0 1 0-2.5m6 0a1.2 1.2 0 1 1 0 2.5 1.2 1.2 0 0 1 0-2.5m-165 3a1.2 1.2 0 1 1 0 2.5 1.2 1.2 0 0 1 0-2.5m6 0a1.2 1.2 0 1 1 0 2.5 1.2 1.2 0 0 1 0-2.5m6 0a1.2 1.2 0 1 1 0 2.5 1.2 1.2 0 0 1 0-2.5m6 0a1.2 1.2 0 1 1 0 2.5 1.2 1.2 0 0 1 0-2.5m6 0a1.2 1.2 0 1 1 0 2.5 1.2 1.2 0 0 1 0-2.5m6 0a1.2 1.2 0 1 1 0 2.5 1.2 1.2 0 0 1 0-2.5m6 0a1.2 1.2 0 1 1 0 2.5 1.2 1.2 0 0 1 0-2.5m6 0a1.2 1.2 0 1 1 0 2.5 1.2 1.2 0 0 1 0-2.5m6 0a1.2 1.2 0 1 1 0 2.5 1.2 1.2 0 0 1 0-2.5m6 0a1.2 1.2 0 1 1 0 2.5 1.2 1.2 0 0 1 0-2.5m6 0a1.2 1.2 0 1 1 0 2.5 1.2 1.2 0 0 1 0-2.5m6 0a1.2 1.2 0 1 1 0 2.5 1.2 1.2 0 0 1 0-2.5m6 0a1.2 1.2 0 1 1 0 2.5 1.2 1.2 0 0 1 0-2.5m6 0a1.2 1.2 0 1 1 0 2.5 1.2 1.2 0 0 1 0-2.5m6 0a1.2 1.2 0 1 1 0 2.5 1.2 1.2 0 0 1 0-2.5m6 0a1.2 1.2 0 1 1 0 2.5 1.2 1.2 0 0 1 0-2.5m6 0a1.2 1.2 0 1 1 0 2.5 1.2 1.2 0 0 1 0-2.5m6 0a1.2 1.2 0 1 1 0 2.5 1.2 1.2 0 0 1 0-2.5m6 0a1.2 1.2 0 1 1 0 2.5 1.2 1.2 0 0 1 0-2.5m6 0a1.2 1.2 0 1 1 0 2.5 1.2 1.2 0 0 1 0-2.5m6 0a1.2 1.2 0 1 1 0 2.5 1.2 1.2 0 0 1 0-2.5m6 0a1.2 1.2 0 1 1 0 2.5 1.2 1.2 0 0 1 0-2.5m6 0a1.2 1.2 0 1 1 0 2.5 1.2 1.2 0 0 1 0-2.5m6 0a1.2 1.2 0 1 1 0 2.5 1.2 1.2 0 0 1 0-2.5m6 0a1.2 1.2 0 1 1 0 2.5 1.2 1.2 0 0 1 0-2.5m6 0a1.2 1.2 0 1 1 0 2.5 1.2 1.2 0 0 1 0-2.5m6 0a1.2 1.2 0 1 1 0 2.5 1.2 1.2 0 0 1 0-2.5m6 0a1.2 1.2 0 1 1 0 2.5 1.2 1.2 0 0 1 0-2.5m-165 3a1.2 1.2 0 1 1 0 2.5 1.2 1.2 0 0 1 0-2.5m6 0a1.2 1.2 0 1 1 0 2.5 1.2 1.2 0 0 1 0-2.5m6 0a1.2 1.2 0 1 1 0 2.5 1.2 1.2 0 0 1 0-2.5m6 0a1.2 1.2 0 1 1 0 2.5 1.2 1.2 0 0 1 0-2.5m6 0a1.2 1.2 0 1 1 0 2.5 1.2 1.2 0 0 1 0-2.5m6 0a1.2 1.2 0 1 1 0 2.5 1.2 1.2 0 0 1 0-2.5m6 0a1.2 1.2 0 1 1 0 2.5 1.2 1.2 0 0 1 0-2.5m6 0a1.2 1.2 0 1 1 0 2.5 1.2 1.2 0 0 1 0-2.5m6 0a1.2 1.2 0 1 1 0 2.5 1.2 1.2 0 0 1 0-2.5m6 0a1.2 1.2 0 1 1 0 2.5 1.2 1.2 0 0 1 0-2.5m6 0a1.2 1.2 0 1 1 0 2.5 1.2 1.2 0 0 1 0-2.5m6 0a1.2 1.2 0 1 1 0 2.5 1.2 1.2 0 0 1 0-2.5m6 0a1.2 1.2 0 1 1 0 2.5 1.2 1.2 0 0 1 0-2.5m6 0a1.2 1.2 0 1 1 0 2.5 1.2 1.2 0 0 1 0-2.5m6 0a1.2 1.2 0 1 1 0 2.5 1.2 1.2 0 0 1 0-2.5m6 0a1.2 1.2 0 1 1 0 2.5 1.2 1.2 0 0 1 0-2.5m6 0a1.2 1.2 0 1 1 0 2.5 1.2 1.2 0 0 1 0-2.5m6 0a1.2 1.2 0 1 1 0 2.5 1.2 1.2 0 0 1 0-2.5m6 0a1.2 1.2 0 1 1 0 2.5 1.2 1.2 0 0 1 0-2.5m6 0a1.2 1.2 0 1 1 0 2.5 1.2 1.2 0 0 1 0-2.5m6 0a1.2 1.2 0 1 1 0 2.5 1.2 1.2 0 0 1 0-2.5m6 0a1.2 1.2 0 1 1 0 2.5 1.2 1.2 0 0 1 0-2.5m6 0a1.2 1.2 0 1 1 0 2.5 1.2 1.2 0 0 1 0-2.5m6 0a1.2 1.2 0 1 1 0 2.5 1.2 1.2 0 0 1 0-2.5m6 0a1.2 1.2 0 1 1 0 2.5 1.2 1.2 0 0 1 0-2.5m6 0a1.2 1.2 0 1 1 0 2.5 1.2 1.2 0 0 1 0-2.5m6 0a1.2 1.2 0 1 1 0 2.5 1.2 1.2 0 0 1 0-2.5m6 0a1.2 1.2 0 1 1 0 2.5 1.2 1.2 0 0 1 0-2.5m6 0a1.2 1.2 0 1 1 0 2.5 1.2 1.2 0 0 1 0-2.5m-165 3a1.2 1.2 0 1 1 0 2.5 1.2 1.2 0 0 1 0-2.5m6 0a1.2 1.2 0 1 1 0 2.5 1.2 1.2 0 0 1 0-2.5m6 0a1.2 1.2 0 1 1 0 2.5 1.2 1.2 0 0 1 0-2.5m6 0a1.2 1.2 0 1 1 0 2.5 1.2 1.2 0 0 1 0-2.5m6 0a1.2 1.2 0 1 1 0 2.5 1.2 1.2 0 0 1 0-2.5m6 0a1.2 1.2 0 1 1 0 2.5 1.2 1.2 0 0 1 0-2.5m6 0a1.2 1.2 0 1 1 0 2.5 1.2 1.2 0 0 1 0-2.5m6 0a1.2 1.2 0 1 1 0 2.5 1.2 1.2 0 0 1 0-2.5m6 0a1.2 1.2 0 1 1 0 2.5 1.2 1.2 0 0 1 0-2.5m6 0a1.2 1.2 0 1 1 0 2.5 1.2 1.2 0 0 1 0-2.5m6 0a1.2 1.2 0 1 1 0 2.5 1.2 1.2 0 0 1 0-2.5m6 0a1.2 1.2 0 1 1 0 2.5 1.2 1.2 0 0 1 0-2.5m6 0a1.2 1.2 0 1 1 0 2.5 1.2 1.2 0 0 1 0-2.5m6 0a1.2 1.2 0 1 1 0 2.5 1.2 1.2 0 0 1 0-2.5m6 0a1.2 1.2 0 1 1 0 2.5 1.2 1.2 0 0 1 0-2.5m6 0a1.2 1.2 0 1 1 0 2.5 1.2 1.2 0 0 1 0-2.5m6 0a1.2 1.2 0 1 1 0 2.5 1.2 1.2 0 0 1 0-2.5m6 0a1.2 1.2 0 1 1 0 2.5 1.2 1.2 0 0 1 0-2.5m6 0a1.2 1.2 0 1 1 0 2.5 1.2 1.2 0 0 1 0-2.5m6 0a1.2 1.2 0 1 1 0 2.5 1.2 1.2 0 0 1 0-2.5m6 0a1.2 1.2 0 1 1 0 2.5 1.2 1.2 0 0 1 0-2.5m6 0a1.2 1.2 0 1 1 0 2.5 1.2 1.2 0 0 1 0-2.5m6 0a1.2 1.2 0 1 1 0 2.5 1.2 1.2 0 0 1 0-2.5m6 0a1.2 1.2 0 1 1 0 2.5 1.2 1.2 0 0 1 0-2.5m6 0a1.2 1.2 0 1 1 0 2.5 1.2 1.2 0 0 1 0-2.5m6 0a1.2 1.2 0 1 1 0 2.5 1.2 1.2 0 0 1 0-2.5m6 0a1.2 1.2 0 1 1 0 2.5 1.2 1.2 0 0 1 0-2.5m6 0a1.2 1.2 0 1 1 0 2.5 1.2 1.2 0 0 1 0-2.5m-165 3a1.2 1.2 0 1 1 0 2.5 1.2 1.2 0 0 1 0-2.5m6 0a1.2 1.2 0 1 1 0 2.5 1.2 1.2 0 0 1 0-2.5m6 0a1.2 1.2 0 1 1 0 2.5 1.2 1.2 0 0 1 0-2.5m6 0a1.2 1.2 0 1 1 0 2.5 1.2 1.2 0 0 1 0-2.5m6 0a1.2 1.2 0 1 1 0 2.5 1.2 1.2 0 0 1 0-2.5m6 0a1.2 1.2 0 1 1 0 2.5 1.2 1.2 0 0 1 0-2.5m6 0a1.2 1.2 0 1 1 0 2.5 1.2 1.2 0 0 1 0-2.5m6 0a1.2 1.2 0 1 1 0 2.5 1.2 1.2 0 0 1 0-2.5m6 0a1.2 1.2 0 1 1 0 2.5 1.2 1.2 0 0 1 0-2.5m6 0a1.2 1.2 0 1 1 0 2.5 1.2 1.2 0 0 1 0-2.5m6 0a1.2 1.2 0 1 1 0 2.5 1.2 1.2 0 0 1 0-2.5m6 0a1.2 1.2 0 1 1 0 2.5 1.2 1.2 0 0 1 0-2.5m6 0a1.2 1.2 0 1 1 0 2.5 1.2 1.2 0 0 1 0-2.5m6 0a1.2 1.2 0 1 1 0 2.5 1.2 1.2 0 0 1 0-2.5m6 0a1.2 1.2 0 1 1 0 2.5 1.2 1.2 0 0 1 0-2.5m6 0a1.2 1.2 0 1 1 0 2.5 1.2 1.2 0 0 1 0-2.5m6 0a1.2 1.2 0 1 1 0 2.5 1.2 1.2 0 0 1 0-2.5m6 0a1.2 1.2 0 1 1 0 2.5 1.2 1.2 0 0 1 0-2.5m6 0a1.2 1.2 0 1 1 0 2.5 1.2 1.2 0 0 1 0-2.5m6 0a1.2 1.2 0 1 1 0 2.5 1.2 1.2 0 0 1 0-2.5m6 0a1.2 1.2 0 1 1 0 2.5 1.2 1.2 0 0 1 0-2.5m6 0a1.2 1.2 0 1 1 0 2.5 1.2 1.2 0 0 1 0-2.5m6 0a1.2 1.2 0 1 1 0 2.5 1.2 1.2 0 0 1 0-2.5m6 0a1.2 1.2 0 1 1 0 2.5 1.2 1.2 0 0 1 0-2.5m6 0a1.2 1.2 0 1 1 0 2.5 1.2 1.2 0 0 1 0-2.5m6 0a1.2 1.2 0 1 1 0 2.5 1.2 1.2 0 0 1 0-2.5m6 0a1.2 1.2 0 1 1 0 2.5 1.2 1.2 0 0 1 0-2.5m6 0a1.2 1.2 0 1 1 0 2.5 1.2 1.2 0 0 1 0-2.5m6 0a1.2 1.2 0 1 1 0 2.5 1.2 1.2 0 0 1 0-2.5m-165 3a1.2 1.2 0 1 1 0 2.5 1.2 1.2 0 0 1 0-2.5m6 0a1.2 1.2 0 1 1 0 2.5 1.2 1.2 0 0 1 0-2.5m6 0a1.2 1.2 0 1 1 0 2.5 1.2 1.2 0 0 1 0-2.5m6 0a1.2 1.2 0 1 1 0 2.5 1.2 1.2 0 0 1 0-2.5m6 0a1.2 1.2 0 1 1 0 2.5 1.2 1.2 0 0 1 0-2.5m6 0a1.2 1.2 0 1 1 0 2.5 1.2 1.2 0 0 1 0-2.5m6 0a1.2 1.2 0 1 1 0 2.5 1.2 1.2 0 0 1 0-2.5m6 0a1.2 1.2 0 1 1 0 2.5 1.2 1.2 0 0 1 0-2.5m6 0a1.2 1.2 0 1 1 0 2.5 1.2 1.2 0 0 1 0-2.5m6 0a1.2 1.2 0 1 1 0 2.5 1.2 1.2 0 0 1 0-2.5m6 0a1.2 1.2 0 1 1 0 2.5 1.2 1.2 0 0 1 0-2.5m6 0a1.2 1.2 0 1 1 0 2.5 1.2 1.2 0 0 1 0-2.5m6 0a1.2 1.2 0 1 1 0 2.5 1.2 1.2 0 0 1 0-2.5m6 0a1.2 1.2 0 1 1 0 2.5 1.2 1.2 0 0 1 0-2.5m6 0a1.2 1.2 0 1 1 0 2.5 1.2 1.2 0 0 1 0-2.5m6 0a1.2 1.2 0 1 1 0 2.5 1.2 1.2 0 0 1 0-2.5m6 0a1.2 1.2 0 1 1 0 2.5 1.2 1.2 0 0 1 0-2.5m6 0a1.2 1.2 0 1 1 0 2.5 1.2 1.2 0 0 1 0-2.5m6 0a1.2 1.2 0 1 1 0 2.5 1.2 1.2 0 0 1 0-2.5m6 0a1.2 1.2 0 1 1 0 2.5 1.2 1.2 0 0 1 0-2.5m6 0a1.2 1.2 0 1 1 0 2.5 1.2 1.2 0 0 1 0-2.5m6 0a1.2 1.2 0 1 1 0 2.5 1.2 1.2 0 0 1 0-2.5m6 0a1.2 1.2 0 1 1 0 2.5 1.2 1.2 0 0 1 0-2.5m6 0a1.2 1.2 0 1 1 0 2.5 1.2 1.2 0 0 1 0-2.5m6 0a1.2 1.2 0 1 1 0 2.5 1.2 1.2 0 0 1 0-2.5m6 0a1.2 1.2 0 1 1 0 2.5 1.2 1.2 0 0 1 0-2.5m6 0a1.2 1.2 0 1 1 0 2.5 1.2 1.2 0 0 1 0-2.5m6 0a1.2 1.2 0 1 1 0 2.5 1.2 1.2 0 0 1 0-2.5m-165 3a1.2 1.2 0 1 1 0 2.5 1.2 1.2 0 0 1 0-2.5m6 0a1.2 1.2 0 1 1 0 2.5 1.2 1.2 0 0 1 0-2.5m6 0a1.2 1.2 0 1 1 0 2.5 1.2 1.2 0 0 1 0-2.5m6 0a1.2 1.2 0 1 1 0 2.5 1.2 1.2 0 0 1 0-2.5m6 0a1.2 1.2 0 1 1 0 2.5 1.2 1.2 0 0 1 0-2.5m6 0a1.2 1.2 0 1 1 0 2.5 1.2 1.2 0 0 1 0-2.5m6 0a1.2 1.2 0 1 1 0 2.5 1.2 1.2 0 0 1 0-2.5m6 0a1.2 1.2 0 1 1 0 2.5 1.2 1.2 0 0 1 0-2.5m6 0a1.2 1.2 0 1 1 0 2.5 1.2 1.2 0 0 1 0-2.5m6 0a1.2 1.2 0 1 1 0 2.5 1.2 1.2 0 0 1 0-2.5m6 0a1.2 1.2 0 1 1 0 2.5 1.2 1.2 0 0 1 0-2.5m6 0a1.2 1.2 0 1 1 0 2.5 1.2 1.2 0 0 1 0-2.5m6 0a1.2 1.2 0 1 1 0 2.5 1.2 1.2 0 0 1 0-2.5m6 0a1.2 1.2 0 1 1 0 2.5 1.2 1.2 0 0 1 0-2.5m6 0a1.2 1.2 0 1 1 0 2.5 1.2 1.2 0 0 1 0-2.5m6 0a1.2 1.2 0 1 1 0 2.5 1.2 1.2 0 0 1 0-2.5m6 0a1.2 1.2 0 1 1 0 2.5 1.2 1.2 0 0 1 0-2.5m6 0a1.2 1.2 0 1 1 0 2.5 1.2 1.2 0 0 1 0-2.5m6 0a1.2 1.2 0 1 1 0 2.5 1.2 1.2 0 0 1 0-2.5m6 0a1.2 1.2 0 1 1 0 2.5 1.2 1.2 0 0 1 0-2.5m6 0a1.2 1.2 0 1 1 0 2.5 1.2 1.2 0 0 1 0-2.5m6 0a1.2 1.2 0 1 1 0 2.5 1.2 1.2 0 0 1 0-2.5m6 0a1.2 1.2 0 1 1 0 2.5 1.2 1.2 0 0 1 0-2.5m6 0a1.2 1.2 0 1 1 0 2.5 1.2 1.2 0 0 1 0-2.5m6 0a1.2 1.2 0 1 1 0 2.5 1.2 1.2 0 0 1 0-2.5m6 0a1.2 1.2 0 1 1 0 2.5 1.2 1.2 0 0 1 0-2.5m6 0a1.2 1.2 0 1 1 0 2.5 1.2 1.2 0 0 1 0-2.5m6 0a1.2 1.2 0 1 1 0 2.5 1.2 1.2 0 0 1 0-2.5m6 0a1.2 1.2 0 1 1 0 2.5 1.2 1.2 0 0 1 0-2.5m-165 3a1.2 1.2 0 1 1 0 2.5 1.2 1.2 0 0 1 0-2.5m6 0a1.2 1.2 0 1 1 0 2.5 1.2 1.2 0 0 1 0-2.5m6 0a1.2 1.2 0 1 1 0 2.5 1.2 1.2 0 0 1 0-2.5m6 0a1.2 1.2 0 1 1 0 2.5 1.2 1.2 0 0 1 0-2.5m6 0a1.2 1.2 0 1 1 0 2.5 1.2 1.2 0 0 1 0-2.5m6 0a1.2 1.2 0 1 1 0 2.5 1.2 1.2 0 0 1 0-2.5m6 0a1.2 1.2 0 1 1 0 2.5 1.2 1.2 0 0 1 0-2.5m6 0a1.2 1.2 0 1 1 0 2.5 1.2 1.2 0 0 1 0-2.5m6 0a1.2 1.2 0 1 1 0 2.5 1.2 1.2 0 0 1 0-2.5m6 0a1.2 1.2 0 1 1 0 2.5 1.2 1.2 0 0 1 0-2.5m6 0a1.2 1.2 0 1 1 0 2.5 1.2 1.2 0 0 1 0-2.5m6 0a1.2 1.2 0 1 1 0 2.5 1.2 1.2 0 0 1 0-2.5m6 0a1.2 1.2 0 1 1 0 2.5 1.2 1.2 0 0 1 0-2.5m6 0a1.2 1.2 0 1 1 0 2.5 1.2 1.2 0 0 1 0-2.5m6 0a1.2 1.2 0 1 1 0 2.5 1.2 1.2 0 0 1 0-2.5m6 0a1.2 1.2 0 1 1 0 2.5 1.2 1.2 0 0 1 0-2.5m6 0a1.2 1.2 0 1 1 0 2.5 1.2 1.2 0 0 1 0-2.5m6 0a1.2 1.2 0 1 1 0 2.5 1.2 1.2 0 0 1 0-2.5m6 0a1.2 1.2 0 1 1 0 2.5 1.2 1.2 0 0 1 0-2.5m6 0a1.2 1.2 0 1 1 0 2.5 1.2 1.2 0 0 1 0-2.5m6 0a1.2 1.2 0 1 1 0 2.5 1.2 1.2 0 0 1 0-2.5m6 0a1.2 1.2 0 1 1 0 2.5 1.2 1.2 0 0 1 0-2.5m6 0a1.2 1.2 0 1 1 0 2.5 1.2 1.2 0 0 1 0-2.5m6 0a1.2 1.2 0 1 1 0 2.5 1.2 1.2 0 0 1 0-2.5m6 0a1.2 1.2 0 1 1 0 2.5 1.2 1.2 0 0 1 0-2.5m6 0a1.2 1.2 0 1 1 0 2.5 1.2 1.2 0 0 1 0-2.5m6 0a1.2 1.2 0 1 1 0 2.5 1.2 1.2 0 0 1 0-2.5m6 0a1.2 1.2 0 1 1 0 2.5 1.2 1.2 0 0 1 0-2.5m-165 3a1.2 1.2 0 1 1 0 2.5 1.2 1.2 0 0 1 0-2.5m6 0a1.2 1.2 0 1 1 0 2.5 1.2 1.2 0 0 1 0-2.5m6 0a1.2 1.2 0 1 1 0 2.5 1.2 1.2 0 0 1 0-2.5m6 0a1.2 1.2 0 1 1 0 2.5 1.2 1.2 0 0 1 0-2.5m6 0a1.2 1.2 0 1 1 0 2.5 1.2 1.2 0 0 1 0-2.5m6 0a1.2 1.2 0 1 1 0 2.5 1.2 1.2 0 0 1 0-2.5m6 0a1.2 1.2 0 1 1 0 2.5 1.2 1.2 0 0 1 0-2.5m6 0a1.2 1.2 0 1 1 0 2.5 1.2 1.2 0 0 1 0-2.5m6 0a1.2 1.2 0 1 1 0 2.5 1.2 1.2 0 0 1 0-2.5m6 0a1.2 1.2 0 1 1 0 2.5 1.2 1.2 0 0 1 0-2.5m6 0a1.2 1.2 0 1 1 0 2.5 1.2 1.2 0 0 1 0-2.5m6 0a1.2 1.2 0 1 1 0 2.5 1.2 1.2 0 0 1 0-2.5m6 0a1.2 1.2 0 1 1 0 2.5 1.2 1.2 0 0 1 0-2.5m6 0a1.2 1.2 0 1 1 0 2.5 1.2 1.2 0 0 1 0-2.5m6 0a1.2 1.2 0 1 1 0 2.5 1.2 1.2 0 0 1 0-2.5m6 0a1.2 1.2 0 1 1 0 2.5 1.2 1.2 0 0 1 0-2.5m6 0a1.2 1.2 0 1 1 0 2.5 1.2 1.2 0 0 1 0-2.5m6 0a1.2 1.2 0 1 1 0 2.5 1.2 1.2 0 0 1 0-2.5m6 0a1.2 1.2 0 1 1 0 2.5 1.2 1.2 0 0 1 0-2.5m6 0a1.2 1.2 0 1 1 0 2.5 1.2 1.2 0 0 1 0-2.5m6 0a1.2 1.2 0 1 1 0 2.5 1.2 1.2 0 0 1 0-2.5m6 0a1.2 1.2 0 1 1 0 2.5 1.2 1.2 0 0 1 0-2.5m6 0a1.2 1.2 0 1 1 0 2.5 1.2 1.2 0 0 1 0-2.5m6 0a1.2 1.2 0 1 1 0 2.5 1.2 1.2 0 0 1 0-2.5m6 0a1.2 1.2 0 1 1 0 2.5 1.2 1.2 0 0 1 0-2.5m6 0a1.2 1.2 0 1 1 0 2.5 1.2 1.2 0 0 1 0-2.5m6 0a1.2 1.2 0 1 1 0 2.5 1.2 1.2 0 0 1 0-2.5m6 0a1.2 1.2 0 1 1 0 2.5 1.2 1.2 0 0 1 0-2.5m6 0a1.2 1.2 0 1 1 0 2.5 1.2 1.2 0 0 1 0-2.5m-165 3a1.2 1.2 0 1 1 0 2.5 1.2 1.2 0 0 1 0-2.5m6 0a1.2 1.2 0 1 1 0 2.5 1.2 1.2 0 0 1 0-2.5m6 0a1.2 1.2 0 1 1 0 2.5 1.2 1.2 0 0 1 0-2.5m6 0a1.2 1.2 0 1 1 0 2.5 1.2 1.2 0 0 1 0-2.5m6 0a1.2 1.2 0 1 1 0 2.5 1.2 1.2 0 0 1 0-2.5m6 0a1.2 1.2 0 1 1 0 2.5 1.2 1.2 0 0 1 0-2.5m6 0a1.2 1.2 0 1 1 0 2.5 1.2 1.2 0 0 1 0-2.5m6 0a1.2 1.2 0 1 1 0 2.5 1.2 1.2 0 0 1 0-2.5m6 0a1.2 1.2 0 1 1 0 2.5 1.2 1.2 0 0 1 0-2.5m6 0a1.2 1.2 0 1 1 0 2.5 1.2 1.2 0 0 1 0-2.5m6 0a1.2 1.2 0 1 1 0 2.5 1.2 1.2 0 0 1 0-2.5m6 0a1.2 1.2 0 1 1 0 2.5 1.2 1.2 0 0 1 0-2.5m6 0a1.2 1.2 0 1 1 0 2.5 1.2 1.2 0 0 1 0-2.5m6 0a1.2 1.2 0 1 1 0 2.5 1.2 1.2 0 0 1 0-2.5m6 0a1.2 1.2 0 1 1 0 2.5 1.2 1.2 0 0 1 0-2.5m6 0a1.2 1.2 0 1 1 0 2.5 1.2 1.2 0 0 1 0-2.5m6 0a1.2 1.2 0 1 1 0 2.5 1.2 1.2 0 0 1 0-2.5m6 0a1.2 1.2 0 1 1 0 2.5 1.2 1.2 0 0 1 0-2.5m6 0a1.2 1.2 0 1 1 0 2.5 1.2 1.2 0 0 1 0-2.5m6 0a1.2 1.2 0 1 1 0 2.5 1.2 1.2 0 0 1 0-2.5m6 0a1.2 1.2 0 1 1 0 2.5 1.2 1.2 0 0 1 0-2.5m6 0a1.2 1.2 0 1 1 0 2.5 1.2 1.2 0 0 1 0-2.5m6 0a1.2 1.2 0 1 1 0 2.5 1.2 1.2 0 0 1 0-2.5m6 0a1.2 1.2 0 1 1 0 2.5 1.2 1.2 0 0 1 0-2.5m6 0a1.2 1.2 0 1 1 0 2.5 1.2 1.2 0 0 1 0-2.5m6 0a1.2 1.2 0 1 1 0 2.5 1.2 1.2 0 0 1 0-2.5m6 0a1.2 1.2 0 1 1 0 2.5 1.2 1.2 0 0 1 0-2.5m6 0a1.2 1.2 0 1 1 0 2.5 1.2 1.2 0 0 1 0-2.5m-165 3a1.2 1.2 0 1 1 0 2.5 1.2 1.2 0 0 1 0-2.5m6 0a1.2 1.2 0 1 1 0 2.5 1.2 1.2 0 0 1 0-2.5m6 0a1.2 1.2 0 1 1 0 2.5 1.2 1.2 0 0 1 0-2.5m6 0a1.2 1.2 0 1 1 0 2.5 1.2 1.2 0 0 1 0-2.5m6 0a1.2 1.2 0 1 1 0 2.5 1.2 1.2 0 0 1 0-2.5m6 0a1.2 1.2 0 1 1 0 2.5 1.2 1.2 0 0 1 0-2.5m6 0a1.2 1.2 0 1 1 0 2.5 1.2 1.2 0 0 1 0-2.5m6 0a1.2 1.2 0 1 1 0 2.5 1.2 1.2 0 0 1 0-2.5m6 0a1.2 1.2 0 1 1 0 2.5 1.2 1.2 0 0 1 0-2.5m6 0a1.2 1.2 0 1 1 0 2.5 1.2 1.2 0 0 1 0-2.5m6 0a1.2 1.2 0 1 1 0 2.5 1.2 1.2 0 0 1 0-2.5m6 0a1.2 1.2 0 1 1 0 2.5 1.2 1.2 0 0 1 0-2.5m6 0a1.2 1.2 0 1 1 0 2.5 1.2 1.2 0 0 1 0-2.5m6 0a1.2 1.2 0 1 1 0 2.5 1.2 1.2 0 0 1 0-2.5m6 0a1.2 1.2 0 1 1 0 2.5 1.2 1.2 0 0 1 0-2.5m6 0a1.2 1.2 0 1 1 0 2.5 1.2 1.2 0 0 1 0-2.5m6 0a1.2 1.2 0 1 1 0 2.5 1.2 1.2 0 0 1 0-2.5m6 0a1.2 1.2 0 1 1 0 2.5 1.2 1.2 0 0 1 0-2.5m6 0a1.2 1.2 0 1 1 0 2.5 1.2 1.2 0 0 1 0-2.5m6 0a1.2 1.2 0 1 1 0 2.5 1.2 1.2 0 0 1 0-2.5m6 0a1.2 1.2 0 1 1 0 2.5 1.2 1.2 0 0 1 0-2.5m6 0a1.2 1.2 0 1 1 0 2.5 1.2 1.2 0 0 1 0-2.5m6 0a1.2 1.2 0 1 1 0 2.5 1.2 1.2 0 0 1 0-2.5m6 0a1.2 1.2 0 1 1 0 2.5 1.2 1.2 0 0 1 0-2.5m6 0a1.2 1.2 0 1 1 0 2.5 1.2 1.2 0 0 1 0-2.5m6 0a1.2 1.2 0 1 1 0 2.5 1.2 1.2 0 0 1 0-2.5m6 0a1.2 1.2 0 1 1 0 2.5 1.2 1.2 0 0 1 0-2.5m6 0a1.2 1.2 0 1 1 0 2.5 1.2 1.2 0 0 1 0-2.5m6 0a1.2 1.2 0 1 1 0 2.5 1.2 1.2 0 0 1 0-2.5m-165 3a1.2 1.2 0 1 1 0 2.5 1.2 1.2 0 0 1 0-2.5m6 0a1.2 1.2 0 1 1 0 2.5 1.2 1.2 0 0 1 0-2.5m6 0a1.2 1.2 0 1 1 0 2.5 1.2 1.2 0 0 1 0-2.5m6 0a1.2 1.2 0 1 1 0 2.5 1.2 1.2 0 0 1 0-2.5m6 0a1.2 1.2 0 1 1 0 2.5 1.2 1.2 0 0 1 0-2.5m6 0a1.2 1.2 0 1 1 0 2.5 1.2 1.2 0 0 1 0-2.5m6 0a1.2 1.2 0 1 1 0 2.5 1.2 1.2 0 0 1 0-2.5m6 0a1.2 1.2 0 1 1 0 2.5 1.2 1.2 0 0 1 0-2.5m6 0a1.2 1.2 0 1 1 0 2.5 1.2 1.2 0 0 1 0-2.5m6 0a1.2 1.2 0 1 1 0 2.5 1.2 1.2 0 0 1 0-2.5m6 0a1.2 1.2 0 1 1 0 2.5 1.2 1.2 0 0 1 0-2.5m6 0a1.2 1.2 0 1 1 0 2.5 1.2 1.2 0 0 1 0-2.5m6 0a1.2 1.2 0 1 1 0 2.5 1.2 1.2 0 0 1 0-2.5m6 0a1.2 1.2 0 1 1 0 2.5 1.2 1.2 0 0 1 0-2.5m6 0a1.2 1.2 0 1 1 0 2.5 1.2 1.2 0 0 1 0-2.5m6 0a1.2 1.2 0 1 1 0 2.5 1.2 1.2 0 0 1 0-2.5m6 0a1.2 1.2 0 1 1 0 2.5 1.2 1.2 0 0 1 0-2.5m6 0a1.2 1.2 0 1 1 0 2.5 1.2 1.2 0 0 1 0-2.5m6 0a1.2 1.2 0 1 1 0 2.5 1.2 1.2 0 0 1 0-2.5m6 0a1.2 1.2 0 1 1 0 2.5 1.2 1.2 0 0 1 0-2.5m6 0a1.2 1.2 0 1 1 0 2.5 1.2 1.2 0 0 1 0-2.5m6 0a1.2 1.2 0 1 1 0 2.5 1.2 1.2 0 0 1 0-2.5m6 0a1.2 1.2 0 1 1 0 2.5 1.2 1.2 0 0 1 0-2.5m6 0a1.2 1.2 0 1 1 0 2.5 1.2 1.2 0 0 1 0-2.5m6 0a1.2 1.2 0 1 1 0 2.5 1.2 1.2 0 0 1 0-2.5m6 0a1.2 1.2 0 1 1 0 2.5 1.2 1.2 0 0 1 0-2.5m6 0a1.2 1.2 0 1 1 0 2.5 1.2 1.2 0 0 1 0-2.5m6 0a1.2 1.2 0 1 1 0 2.5 1.2 1.2 0 0 1 0-2.5m-165 3a1.2 1.2 0 1 1 0 2.5 1.2 1.2 0 0 1 0-2.5m6 0a1.2 1.2 0 1 1 0 2.5 1.2 1.2 0 0 1 0-2.5m6 0a1.2 1.2 0 1 1 0 2.5 1.2 1.2 0 0 1 0-2.5m6 0a1.2 1.2 0 1 1 0 2.5 1.2 1.2 0 0 1 0-2.5m6 0a1.2 1.2 0 1 1 0 2.5 1.2 1.2 0 0 1 0-2.5m6 0a1.2 1.2 0 1 1 0 2.5 1.2 1.2 0 0 1 0-2.5m6 0a1.2 1.2 0 1 1 0 2.5 1.2 1.2 0 0 1 0-2.5m6 0a1.2 1.2 0 1 1 0 2.5 1.2 1.2 0 0 1 0-2.5m6 0a1.2 1.2 0 1 1 0 2.5 1.2 1.2 0 0 1 0-2.5m6 0a1.2 1.2 0 1 1 0 2.5 1.2 1.2 0 0 1 0-2.5m6 0a1.2 1.2 0 1 1 0 2.5 1.2 1.2 0 0 1 0-2.5m6 0a1.2 1.2 0 1 1 0 2.5 1.2 1.2 0 0 1 0-2.5m6 0a1.2 1.2 0 1 1 0 2.5 1.2 1.2 0 0 1 0-2.5m6 0a1.2 1.2 0 1 1 0 2.5 1.2 1.2 0 0 1 0-2.5m6 0a1.2 1.2 0 1 1 0 2.5 1.2 1.2 0 0 1 0-2.5m6 0a1.2 1.2 0 1 1 0 2.5 1.2 1.2 0 0 1 0-2.5m6 0a1.2 1.2 0 1 1 0 2.5 1.2 1.2 0 0 1 0-2.5m6 0a1.2 1.2 0 1 1 0 2.5 1.2 1.2 0 0 1 0-2.5m6 0a1.2 1.2 0 1 1 0 2.5 1.2 1.2 0 0 1 0-2.5m6 0a1.2 1.2 0 1 1 0 2.5 1.2 1.2 0 0 1 0-2.5m6 0a1.2 1.2 0 1 1 0 2.5 1.2 1.2 0 0 1 0-2.5m6 0a1.2 1.2 0 1 1 0 2.5 1.2 1.2 0 0 1 0-2.5m6 0a1.2 1.2 0 1 1 0 2.5 1.2 1.2 0 0 1 0-2.5m6 0a1.2 1.2 0 1 1 0 2.5 1.2 1.2 0 0 1 0-2.5m6 0a1.2 1.2 0 1 1 0 2.5 1.2 1.2 0 0 1 0-2.5m6 0a1.2 1.2 0 1 1 0 2.5 1.2 1.2 0 0 1 0-2.5m6 0a1.2 1.2 0 1 1 0 2.5 1.2 1.2 0 0 1 0-2.5m6 0a1.2 1.2 0 1 1 0 2.5 1.2 1.2 0 0 1 0-2.5m6 0a1.2 1.2 0 1 1 0 2.5 1.2 1.2 0 0 1 0-2.5m-165 3a1.2 1.2 0 1 1 0 2.5 1.2 1.2 0 0 1 0-2.5m6 0a1.2 1.2 0 1 1 0 2.5 1.2 1.2 0 0 1 0-2.5m6 0a1.2 1.2 0 1 1 0 2.5 1.2 1.2 0 0 1 0-2.5m6 0a1.2 1.2 0 1 1 0 2.5 1.2 1.2 0 0 1 0-2.5m6 0a1.2 1.2 0 1 1 0 2.5 1.2 1.2 0 0 1 0-2.5m6 0a1.2 1.2 0 1 1 0 2.5 1.2 1.2 0 0 1 0-2.5m6 0a1.2 1.2 0 1 1 0 2.5 1.2 1.2 0 0 1 0-2.5m6 0a1.2 1.2 0 1 1 0 2.5 1.2 1.2 0 0 1 0-2.5m6 0a1.2 1.2 0 1 1 0 2.5 1.2 1.2 0 0 1 0-2.5m6 0a1.2 1.2 0 1 1 0 2.5 1.2 1.2 0 0 1 0-2.5m6 0a1.2 1.2 0 1 1 0 2.5 1.2 1.2 0 0 1 0-2.5m6 0a1.2 1.2 0 1 1 0 2.5 1.2 1.2 0 0 1 0-2.5m6 0a1.2 1.2 0 1 1 0 2.5 1.2 1.2 0 0 1 0-2.5m6 0a1.2 1.2 0 1 1 0 2.5 1.2 1.2 0 0 1 0-2.5m6 0a1.2 1.2 0 1 1 0 2.5 1.2 1.2 0 0 1 0-2.5m6 0a1.2 1.2 0 1 1 0 2.5 1.2 1.2 0 0 1 0-2.5m6 0a1.2 1.2 0 1 1 0 2.5 1.2 1.2 0 0 1 0-2.5m6 0a1.2 1.2 0 1 1 0 2.5 1.2 1.2 0 0 1 0-2.5m6 0a1.2 1.2 0 1 1 0 2.5 1.2 1.2 0 0 1 0-2.5m6 0a1.2 1.2 0 1 1 0 2.5 1.2 1.2 0 0 1 0-2.5m6 0a1.2 1.2 0 1 1 0 2.5 1.2 1.2 0 0 1 0-2.5m6 0a1.2 1.2 0 1 1 0 2.5 1.2 1.2 0 0 1 0-2.5m6 0a1.2 1.2 0 1 1 0 2.5 1.2 1.2 0 0 1 0-2.5m6 0a1.2 1.2 0 1 1 0 2.5 1.2 1.2 0 0 1 0-2.5m6 0a1.2 1.2 0 1 1 0 2.5 1.2 1.2 0 0 1 0-2.5m6 0a1.2 1.2 0 1 1 0 2.5 1.2 1.2 0 0 1 0-2.5m6 0a1.2 1.2 0 1 1 0 2.5 1.2 1.2 0 0 1 0-2.5m6 0a1.2 1.2 0 1 1 0 2.5 1.2 1.2 0 0 1 0-2.5m-165 3a1.2 1.2 0 1 1 0 2.5 1.2 1.2 0 0 1 0-2.5m6 0a1.2 1.2 0 1 1 0 2.5 1.2 1.2 0 0 1 0-2.5m6 0a1.2 1.2 0 1 1 0 2.5 1.2 1.2 0 0 1 0-2.5m6 0a1.2 1.2 0 1 1 0 2.5 1.2 1.2 0 0 1 0-2.5m6 0a1.2 1.2 0 1 1 0 2.5 1.2 1.2 0 0 1 0-2.5m6 0a1.2 1.2 0 1 1 0 2.5 1.2 1.2 0 0 1 0-2.5m6 0a1.2 1.2 0 1 1 0 2.5 1.2 1.2 0 0 1 0-2.5m6 0a1.2 1.2 0 1 1 0 2.5 1.2 1.2 0 0 1 0-2.5m6 0a1.2 1.2 0 1 1 0 2.5 1.2 1.2 0 0 1 0-2.5m6 0a1.2 1.2 0 1 1 0 2.5 1.2 1.2 0 0 1 0-2.5m6 0a1.2 1.2 0 1 1 0 2.5 1.2 1.2 0 0 1 0-2.5m6 0a1.2 1.2 0 1 1 0 2.5 1.2 1.2 0 0 1 0-2.5m6 0a1.2 1.2 0 1 1 0 2.5 1.2 1.2 0 0 1 0-2.5m6 0a1.2 1.2 0 1 1 0 2.5 1.2 1.2 0 0 1 0-2.5m6 0a1.2 1.2 0 1 1 0 2.5 1.2 1.2 0 0 1 0-2.5m6 0a1.2 1.2 0 1 1 0 2.5 1.2 1.2 0 0 1 0-2.5m6 0a1.2 1.2 0 1 1 0 2.5 1.2 1.2 0 0 1 0-2.5m6 0a1.2 1.2 0 1 1 0 2.5 1.2 1.2 0 0 1 0-2.5m6 0a1.2 1.2 0 1 1 0 2.5 1.2 1.2 0 0 1 0-2.5m6 0a1.2 1.2 0 1 1 0 2.5 1.2 1.2 0 0 1 0-2.5m6 0a1.2 1.2 0 1 1 0 2.5 1.2 1.2 0 0 1 0-2.5m6 0a1.2 1.2 0 1 1 0 2.5 1.2 1.2 0 0 1 0-2.5m6 0a1.2 1.2 0 1 1 0 2.5 1.2 1.2 0 0 1 0-2.5m6 0a1.2 1.2 0 1 1 0 2.5 1.2 1.2 0 0 1 0-2.5m6 0a1.2 1.2 0 1 1 0 2.5 1.2 1.2 0 0 1 0-2.5m6 0a1.2 1.2 0 1 1 0 2.5 1.2 1.2 0 0 1 0-2.5m6 0a1.2 1.2 0 1 1 0 2.5 1.2 1.2 0 0 1 0-2.5m6 0a1.2 1.2 0 1 1 0 2.5 1.2 1.2 0 0 1 0-2.5m6 0a1.2 1.2 0 1 1 0 2.5 1.2 1.2 0 0 1 0-2.5m-165 3a1.2 1.2 0 1 1 0 2.5 1.2 1.2 0 0 1 0-2.5m6 0a1.2 1.2 0 1 1 0 2.5 1.2 1.2 0 0 1 0-2.5m6 0a1.2 1.2 0 1 1 0 2.5 1.2 1.2 0 0 1 0-2.5m6 0a1.2 1.2 0 1 1 0 2.5 1.2 1.2 0 0 1 0-2.5m6 0a1.2 1.2 0 1 1 0 2.5 1.2 1.2 0 0 1 0-2.5m6 0a1.2 1.2 0 1 1 0 2.5 1.2 1.2 0 0 1 0-2.5m6 0a1.2 1.2 0 1 1 0 2.5 1.2 1.2 0 0 1 0-2.5m6 0a1.2 1.2 0 1 1 0 2.5 1.2 1.2 0 0 1 0-2.5m6 0a1.2 1.2 0 1 1 0 2.5 1.2 1.2 0 0 1 0-2.5m6 0a1.2 1.2 0 1 1 0 2.5 1.2 1.2 0 0 1 0-2.5m6 0a1.2 1.2 0 1 1 0 2.5 1.2 1.2 0 0 1 0-2.5m6 0a1.2 1.2 0 1 1 0 2.5 1.2 1.2 0 0 1 0-2.5m6 0a1.2 1.2 0 1 1 0 2.5 1.2 1.2 0 0 1 0-2.5m6 0a1.2 1.2 0 1 1 0 2.5 1.2 1.2 0 0 1 0-2.5m6 0a1.2 1.2 0 1 1 0 2.5 1.2 1.2 0 0 1 0-2.5m6 0a1.2 1.2 0 1 1 0 2.5 1.2 1.2 0 0 1 0-2.5m6 0a1.2 1.2 0 1 1 0 2.5 1.2 1.2 0 0 1 0-2.5m6 0a1.2 1.2 0 1 1 0 2.5 1.2 1.2 0 0 1 0-2.5m6 0a1.2 1.2 0 1 1 0 2.5 1.2 1.2 0 0 1 0-2.5m6 0a1.2 1.2 0 1 1 0 2.5 1.2 1.2 0 0 1 0-2.5m6 0a1.2 1.2 0 1 1 0 2.5 1.2 1.2 0 0 1 0-2.5m6 0a1.2 1.2 0 1 1 0 2.5 1.2 1.2 0 0 1 0-2.5m6 0a1.2 1.2 0 1 1 0 2.5 1.2 1.2 0 0 1 0-2.5m6 0a1.2 1.2 0 1 1 0 2.5 1.2 1.2 0 0 1 0-2.5m6 0a1.2 1.2 0 1 1 0 2.5 1.2 1.2 0 0 1 0-2.5m6 0a1.2 1.2 0 1 1 0 2.5 1.2 1.2 0 0 1 0-2.5m6 0a1.2 1.2 0 1 1 0 2.5 1.2 1.2 0 0 1 0-2.5m6 0a1.2 1.2 0 1 1 0 2.5 1.2 1.2 0 0 1 0-2.5m-165 3a1.2 1.2 0 1 1 0 2.5 1.2 1.2 0 0 1 0-2.5m6 0a1.2 1.2 0 1 1 0 2.5 1.2 1.2 0 0 1 0-2.5m6 0a1.2 1.2 0 1 1 0 2.5 1.2 1.2 0 0 1 0-2.5m6 0a1.2 1.2 0 1 1 0 2.5 1.2 1.2 0 0 1 0-2.5m6 0a1.2 1.2 0 1 1 0 2.5 1.2 1.2 0 0 1 0-2.5m6 0a1.2 1.2 0 1 1 0 2.5 1.2 1.2 0 0 1 0-2.5m6 0a1.2 1.2 0 1 1 0 2.5 1.2 1.2 0 0 1 0-2.5m6 0a1.2 1.2 0 1 1 0 2.5 1.2 1.2 0 0 1 0-2.5m6 0a1.2 1.2 0 1 1 0 2.5 1.2 1.2 0 0 1 0-2.5m6 0a1.2 1.2 0 1 1 0 2.5 1.2 1.2 0 0 1 0-2.5m6 0a1.2 1.2 0 1 1 0 2.5 1.2 1.2 0 0 1 0-2.5m6 0a1.2 1.2 0 1 1 0 2.5 1.2 1.2 0 0 1 0-2.5m6 0a1.2 1.2 0 1 1 0 2.5 1.2 1.2 0 0 1 0-2.5m6 0a1.2 1.2 0 1 1 0 2.5 1.2 1.2 0 0 1 0-2.5m6 0a1.2 1.2 0 1 1 0 2.5 1.2 1.2 0 0 1 0-2.5m6 0a1.2 1.2 0 1 1 0 2.5 1.2 1.2 0 0 1 0-2.5m6 0a1.2 1.2 0 1 1 0 2.5 1.2 1.2 0 0 1 0-2.5m6 0a1.2 1.2 0 1 1 0 2.5 1.2 1.2 0 0 1 0-2.5m6 0a1.2 1.2 0 1 1 0 2.5 1.2 1.2 0 0 1 0-2.5m6 0a1.2 1.2 0 1 1 0 2.5 1.2 1.2 0 0 1 0-2.5m6 0a1.2 1.2 0 1 1 0 2.5 1.2 1.2 0 0 1 0-2.5m6 0a1.2 1.2 0 1 1 0 2.5 1.2 1.2 0 0 1 0-2.5m6 0a1.2 1.2 0 1 1 0 2.5 1.2 1.2 0 0 1 0-2.5m6 0a1.2 1.2 0 1 1 0 2.5 1.2 1.2 0 0 1 0-2.5m6 0a1.2 1.2 0 1 1 0 2.5 1.2 1.2 0 0 1 0-2.5m6 0a1.2 1.2 0 1 1 0 2.5 1.2 1.2 0 0 1 0-2.5m6 0a1.2 1.2 0 1 1 0 2.5 1.2 1.2 0 0 1 0-2.5m6 0a1.2 1.2 0 1 1 0 2.5 1.2 1.2 0 0 1 0-2.5m6 0a1.2 1.2 0 1 1 0 2.5 1.2 1.2 0 0 1 0-2.5m-165 3a1.2 1.2 0 1 1 0 2.5 1.2 1.2 0 0 1 0-2.5m6 0a1.2 1.2 0 1 1 0 2.5 1.2 1.2 0 0 1 0-2.5m6 0a1.2 1.2 0 1 1 0 2.5 1.2 1.2 0 0 1 0-2.5m6 0a1.2 1.2 0 1 1 0 2.5 1.2 1.2 0 0 1 0-2.5m6 0a1.2 1.2 0 1 1 0 2.5 1.2 1.2 0 0 1 0-2.5m6 0a1.2 1.2 0 1 1 0 2.5 1.2 1.2 0 0 1 0-2.5m6 0a1.2 1.2 0 1 1 0 2.5 1.2 1.2 0 0 1 0-2.5m6 0a1.2 1.2 0 1 1 0 2.5 1.2 1.2 0 0 1 0-2.5m6 0a1.2 1.2 0 1 1 0 2.5 1.2 1.2 0 0 1 0-2.5m6 0a1.2 1.2 0 1 1 0 2.5 1.2 1.2 0 0 1 0-2.5m6 0a1.2 1.2 0 1 1 0 2.5 1.2 1.2 0 0 1 0-2.5m6 0a1.2 1.2 0 1 1 0 2.5 1.2 1.2 0 0 1 0-2.5m6 0a1.2 1.2 0 1 1 0 2.5 1.2 1.2 0 0 1 0-2.5m6 0a1.2 1.2 0 1 1 0 2.5 1.2 1.2 0 0 1 0-2.5m6 0a1.2 1.2 0 1 1 0 2.5 1.2 1.2 0 0 1 0-2.5m6 0a1.2 1.2 0 1 1 0 2.5 1.2 1.2 0 0 1 0-2.5m6 0a1.2 1.2 0 1 1 0 2.5 1.2 1.2 0 0 1 0-2.5m6 0a1.2 1.2 0 1 1 0 2.5 1.2 1.2 0 0 1 0-2.5m6 0a1.2 1.2 0 1 1 0 2.5 1.2 1.2 0 0 1 0-2.5m6 0a1.2 1.2 0 1 1 0 2.5 1.2 1.2 0 0 1 0-2.5m6 0a1.2 1.2 0 1 1 0 2.5 1.2 1.2 0 0 1 0-2.5m6 0a1.2 1.2 0 1 1 0 2.5 1.2 1.2 0 0 1 0-2.5m6 0a1.2 1.2 0 1 1 0 2.5 1.2 1.2 0 0 1 0-2.5m6 0a1.2 1.2 0 1 1 0 2.5 1.2 1.2 0 0 1 0-2.5m6 0a1.2 1.2 0 1 1 0 2.5 1.2 1.2 0 0 1 0-2.5m6 0a1.2 1.2 0 1 1 0 2.5 1.2 1.2 0 0 1 0-2.5m6 0a1.2 1.2 0 1 1 0 2.5 1.2 1.2 0 0 1 0-2.5m6 0a1.2 1.2 0 1 1 0 2.5 1.2 1.2 0 0 1 0-2.5m-165 3a1.2 1.2 0 1 1 0 2.5 1.2 1.2 0 0 1 0-2.5m6 0a1.2 1.2 0 1 1 0 2.5 1.2 1.2 0 0 1 0-2.5m6 0a1.2 1.2 0 1 1 0 2.5 1.2 1.2 0 0 1 0-2.5m6 0a1.2 1.2 0 1 1 0 2.5 1.2 1.2 0 0 1 0-2.5m6 0a1.2 1.2 0 1 1 0 2.5 1.2 1.2 0 0 1 0-2.5m6 0a1.2 1.2 0 1 1 0 2.5 1.2 1.2 0 0 1 0-2.5m6 0a1.2 1.2 0 1 1 0 2.5 1.2 1.2 0 0 1 0-2.5m6 0a1.2 1.2 0 1 1 0 2.5 1.2 1.2 0 0 1 0-2.5m6 0a1.2 1.2 0 1 1 0 2.5 1.2 1.2 0 0 1 0-2.5m6 0a1.2 1.2 0 1 1 0 2.5 1.2 1.2 0 0 1 0-2.5m6 0a1.2 1.2 0 1 1 0 2.5 1.2 1.2 0 0 1 0-2.5m6 0a1.2 1.2 0 1 1 0 2.5 1.2 1.2 0 0 1 0-2.5m6 0a1.2 1.2 0 1 1 0 2.5 1.2 1.2 0 0 1 0-2.5m6 0a1.2 1.2 0 1 1 0 2.5 1.2 1.2 0 0 1 0-2.5m6 0a1.2 1.2 0 1 1 0 2.5 1.2 1.2 0 0 1 0-2.5m6 0a1.2 1.2 0 1 1 0 2.5 1.2 1.2 0 0 1 0-2.5m6 0a1.2 1.2 0 1 1 0 2.5 1.2 1.2 0 0 1 0-2.5m6 0a1.2 1.2 0 1 1 0 2.5 1.2 1.2 0 0 1 0-2.5m6 0a1.2 1.2 0 1 1 0 2.5 1.2 1.2 0 0 1 0-2.5m6 0a1.2 1.2 0 1 1 0 2.5 1.2 1.2 0 0 1 0-2.5m6 0a1.2 1.2 0 1 1 0 2.5 1.2 1.2 0 0 1 0-2.5m6 0a1.2 1.2 0 1 1 0 2.5 1.2 1.2 0 0 1 0-2.5m6 0a1.2 1.2 0 1 1 0 2.5 1.2 1.2 0 0 1 0-2.5m6 0a1.2 1.2 0 1 1 0 2.5 1.2 1.2 0 0 1 0-2.5m6 0a1.2 1.2 0 1 1 0 2.5 1.2 1.2 0 0 1 0-2.5m6 0a1.2 1.2 0 1 1 0 2.5 1.2 1.2 0 0 1 0-2.5m6 0a1.2 1.2 0 1 1 0 2.5 1.2 1.2 0 0 1 0-2.5m6 0a1.2 1.2 0 1 1 0 2.5 1.2 1.2 0 0 1 0-2.5m6 0a1.2 1.2 0 1 1 0 2.5 1.2 1.2 0 0 1 0-2.5m-165 3a1.2 1.2 0 1 1 0 2.5 1.2 1.2 0 0 1 0-2.5m6 0a1.2 1.2 0 1 1 0 2.5 1.2 1.2 0 0 1 0-2.5m6 0a1.2 1.2 0 1 1 0 2.5 1.2 1.2 0 0 1 0-2.5m6 0a1.2 1.2 0 1 1 0 2.5 1.2 1.2 0 0 1 0-2.5m6 0a1.2 1.2 0 1 1 0 2.5 1.2 1.2 0 0 1 0-2.5m6 0a1.2 1.2 0 1 1 0 2.5 1.2 1.2 0 0 1 0-2.5m6 0a1.2 1.2 0 1 1 0 2.5 1.2 1.2 0 0 1 0-2.5m6 0a1.2 1.2 0 1 1 0 2.5 1.2 1.2 0 0 1 0-2.5m6 0a1.2 1.2 0 1 1 0 2.5 1.2 1.2 0 0 1 0-2.5m6 0a1.2 1.2 0 1 1 0 2.5 1.2 1.2 0 0 1 0-2.5m6 0a1.2 1.2 0 1 1 0 2.5 1.2 1.2 0 0 1 0-2.5m6 0a1.2 1.2 0 1 1 0 2.5 1.2 1.2 0 0 1 0-2.5m6 0a1.2 1.2 0 1 1 0 2.5 1.2 1.2 0 0 1 0-2.5m6 0a1.2 1.2 0 1 1 0 2.5 1.2 1.2 0 0 1 0-2.5m6 0a1.2 1.2 0 1 1 0 2.5 1.2 1.2 0 0 1 0-2.5m6 0a1.2 1.2 0 1 1 0 2.5 1.2 1.2 0 0 1 0-2.5m6 0a1.2 1.2 0 1 1 0 2.5 1.2 1.2 0 0 1 0-2.5m6 0a1.2 1.2 0 1 1 0 2.5 1.2 1.2 0 0 1 0-2.5m6 0a1.2 1.2 0 1 1 0 2.5 1.2 1.2 0 0 1 0-2.5m6 0a1.2 1.2 0 1 1 0 2.5 1.2 1.2 0 0 1 0-2.5m6 0a1.2 1.2 0 1 1 0 2.5 1.2 1.2 0 0 1 0-2.5m6 0a1.2 1.2 0 1 1 0 2.5 1.2 1.2 0 0 1 0-2.5m6 0a1.2 1.2 0 1 1 0 2.5 1.2 1.2 0 0 1 0-2.5m6 0a1.2 1.2 0 1 1 0 2.5 1.2 1.2 0 0 1 0-2.5m6 0a1.2 1.2 0 1 1 0 2.5 1.2 1.2 0 0 1 0-2.5m6 0a1.2 1.2 0 1 1 0 2.5 1.2 1.2 0 0 1 0-2.5m6 0a1.2 1.2 0 1 1 0 2.5 1.2 1.2 0 0 1 0-2.5m6 0a1.2 1.2 0 1 1 0 2.5 1.2 1.2 0 0 1 0-2.5m-165 3a1.2 1.2 0 1 1 0 2.5 1.2 1.2 0 0 1 0-2.5m6 0a1.2 1.2 0 1 1 0 2.5 1.2 1.2 0 0 1 0-2.5m6 0a1.2 1.2 0 1 1 0 2.5 1.2 1.2 0 0 1 0-2.5m6 0a1.2 1.2 0 1 1 0 2.5 1.2 1.2 0 0 1 0-2.5m6 0a1.2 1.2 0 1 1 0 2.5 1.2 1.2 0 0 1 0-2.5m6 0a1.2 1.2 0 1 1 0 2.5 1.2 1.2 0 0 1 0-2.5m6 0a1.2 1.2 0 1 1 0 2.5 1.2 1.2 0 0 1 0-2.5m6 0a1.2 1.2 0 1 1 0 2.5 1.2 1.2 0 0 1 0-2.5m6 0a1.2 1.2 0 1 1 0 2.5 1.2 1.2 0 0 1 0-2.5m6 0a1.2 1.2 0 1 1 0 2.5 1.2 1.2 0 0 1 0-2.5m6 0a1.2 1.2 0 1 1 0 2.5 1.2 1.2 0 0 1 0-2.5m6 0a1.2 1.2 0 1 1 0 2.5 1.2 1.2 0 0 1 0-2.5m6 0a1.2 1.2 0 1 1 0 2.5 1.2 1.2 0 0 1 0-2.5m6 0a1.2 1.2 0 1 1 0 2.5 1.2 1.2 0 0 1 0-2.5m6 0a1.2 1.2 0 1 1 0 2.5 1.2 1.2 0 0 1 0-2.5m6 0a1.2 1.2 0 1 1 0 2.5 1.2 1.2 0 0 1 0-2.5m6 0a1.2 1.2 0 1 1 0 2.5 1.2 1.2 0 0 1 0-2.5m6 0a1.2 1.2 0 1 1 0 2.5 1.2 1.2 0 0 1 0-2.5m6 0a1.2 1.2 0 1 1 0 2.5 1.2 1.2 0 0 1 0-2.5m6 0a1.2 1.2 0 1 1 0 2.5 1.2 1.2 0 0 1 0-2.5m6 0a1.2 1.2 0 1 1 0 2.5 1.2 1.2 0 0 1 0-2.5m6 0a1.2 1.2 0 1 1 0 2.5 1.2 1.2 0 0 1 0-2.5m6 0a1.2 1.2 0 1 1 0 2.5 1.2 1.2 0 0 1 0-2.5m6 0a1.2 1.2 0 1 1 0 2.5 1.2 1.2 0 0 1 0-2.5m6 0a1.2 1.2 0 1 1 0 2.5 1.2 1.2 0 0 1 0-2.5m6 0a1.2 1.2 0 1 1 0 2.5 1.2 1.2 0 0 1 0-2.5m6 0a1.2 1.2 0 1 1 0 2.5 1.2 1.2 0 0 1 0-2.5m6 0a1.2 1.2 0 1 1 0 2.5 1.2 1.2 0 0 1 0-2.5m6 0a1.2 1.2 0 1 1 0 2.5 1.2 1.2 0 0 1 0-2.5m-165 3a1.2 1.2 0 1 1 0 2.5 1.2 1.2 0 0 1 0-2.5m6 0a1.2 1.2 0 1 1 0 2.5 1.2 1.2 0 0 1 0-2.5m6 0a1.2 1.2 0 1 1 0 2.5 1.2 1.2 0 0 1 0-2.5m6 0a1.2 1.2 0 1 1 0 2.5 1.2 1.2 0 0 1 0-2.5m6 0a1.2 1.2 0 1 1 0 2.5 1.2 1.2 0 0 1 0-2.5m6 0a1.2 1.2 0 1 1 0 2.5 1.2 1.2 0 0 1 0-2.5m6 0a1.2 1.2 0 1 1 0 2.5 1.2 1.2 0 0 1 0-2.5m6 0a1.2 1.2 0 1 1 0 2.5 1.2 1.2 0 0 1 0-2.5m6 0a1.2 1.2 0 1 1 0 2.5 1.2 1.2 0 0 1 0-2.5m6 0a1.2 1.2 0 1 1 0 2.5 1.2 1.2 0 0 1 0-2.5m6 0a1.2 1.2 0 1 1 0 2.5 1.2 1.2 0 0 1 0-2.5m6 0a1.2 1.2 0 1 1 0 2.5 1.2 1.2 0 0 1 0-2.5m6 0a1.2 1.2 0 1 1 0 2.5 1.2 1.2 0 0 1 0-2.5m6 0a1.2 1.2 0 1 1 0 2.5 1.2 1.2 0 0 1 0-2.5m6 0a1.2 1.2 0 1 1 0 2.5 1.2 1.2 0 0 1 0-2.5m6 0a1.2 1.2 0 1 1 0 2.5 1.2 1.2 0 0 1 0-2.5m6 0a1.2 1.2 0 1 1 0 2.5 1.2 1.2 0 0 1 0-2.5m6 0a1.2 1.2 0 1 1 0 2.5 1.2 1.2 0 0 1 0-2.5m6 0a1.2 1.2 0 1 1 0 2.5 1.2 1.2 0 0 1 0-2.5m6 0a1.2 1.2 0 1 1 0 2.5 1.2 1.2 0 0 1 0-2.5m6 0a1.2 1.2 0 1 1 0 2.5 1.2 1.2 0 0 1 0-2.5m6 0a1.2 1.2 0 1 1 0 2.5 1.2 1.2 0 0 1 0-2.5m6 0a1.2 1.2 0 1 1 0 2.5 1.2 1.2 0 0 1 0-2.5m6 0a1.2 1.2 0 1 1 0 2.5 1.2 1.2 0 0 1 0-2.5m6 0a1.2 1.2 0 1 1 0 2.5 1.2 1.2 0 0 1 0-2.5m6 0a1.2 1.2 0 1 1 0 2.5 1.2 1.2 0 0 1 0-2.5m6 0a1.2 1.2 0 1 1 0 2.5 1.2 1.2 0 0 1 0-2.5m6 0a1.2 1.2 0 1 1 0 2.5 1.2 1.2 0 0 1 0-2.5m-165 3a1.2 1.2 0 1 1 0 2.5 1.2 1.2 0 0 1 0-2.5m6 0a1.2 1.2 0 1 1 0 2.5 1.2 1.2 0 0 1 0-2.5m6 0a1.2 1.2 0 1 1 0 2.5 1.2 1.2 0 0 1 0-2.5m6 0a1.2 1.2 0 1 1 0 2.5 1.2 1.2 0 0 1 0-2.5m6 0a1.2 1.2 0 1 1 0 2.5 1.2 1.2 0 0 1 0-2.5m6 0a1.2 1.2 0 1 1 0 2.5 1.2 1.2 0 0 1 0-2.5m6 0a1.2 1.2 0 1 1 0 2.5 1.2 1.2 0 0 1 0-2.5m6 0a1.2 1.2 0 1 1 0 2.5 1.2 1.2 0 0 1 0-2.5m6 0a1.2 1.2 0 1 1 0 2.5 1.2 1.2 0 0 1 0-2.5m6 0a1.2 1.2 0 1 1 0 2.5 1.2 1.2 0 0 1 0-2.5m6 0a1.2 1.2 0 1 1 0 2.5 1.2 1.2 0 0 1 0-2.5m6 0a1.2 1.2 0 1 1 0 2.5 1.2 1.2 0 0 1 0-2.5m6 0a1.2 1.2 0 1 1 0 2.5 1.2 1.2 0 0 1 0-2.5m6 0a1.2 1.2 0 1 1 0 2.5 1.2 1.2 0 0 1 0-2.5m6 0a1.2 1.2 0 1 1 0 2.5 1.2 1.2 0 0 1 0-2.5m6 0a1.2 1.2 0 1 1 0 2.5 1.2 1.2 0 0 1 0-2.5m6 0a1.2 1.2 0 1 1 0 2.5 1.2 1.2 0 0 1 0-2.5m6 0a1.2 1.2 0 1 1 0 2.5 1.2 1.2 0 0 1 0-2.5m6 0a1.2 1.2 0 1 1 0 2.5 1.2 1.2 0 0 1 0-2.5m6 0a1.2 1.2 0 1 1 0 2.5 1.2 1.2 0 0 1 0-2.5m6 0a1.2 1.2 0 1 1 0 2.5 1.2 1.2 0 0 1 0-2.5m6 0a1.2 1.2 0 1 1 0 2.5 1.2 1.2 0 0 1 0-2.5m6 0a1.2 1.2 0 1 1 0 2.5 1.2 1.2 0 0 1 0-2.5m6 0a1.2 1.2 0 1 1 0 2.5 1.2 1.2 0 0 1 0-2.5m6 0a1.2 1.2 0 1 1 0 2.5 1.2 1.2 0 0 1 0-2.5m6 0a1.2 1.2 0 1 1 0 2.5 1.2 1.2 0 0 1 0-2.5m6 0a1.2 1.2 0 1 1 0 2.5 1.2 1.2 0 0 1 0-2.5m6 0a1.2 1.2 0 1 1 0 2.5 1.2 1.2 0 0 1 0-2.5m6 0a1.2 1.2 0 1 1 0 2.5 1.2 1.2 0 0 1 0-2.5m-165 3a1.2 1.2 0 1 1 0 2.5 1.2 1.2 0 0 1 0-2.5m6 0a1.2 1.2 0 1 1 0 2.5 1.2 1.2 0 0 1 0-2.5m6 0a1.2 1.2 0 1 1 0 2.5 1.2 1.2 0 0 1 0-2.5m6 0a1.2 1.2 0 1 1 0 2.5 1.2 1.2 0 0 1 0-2.5m6 0a1.2 1.2 0 1 1 0 2.5 1.2 1.2 0 0 1 0-2.5m6 0a1.2 1.2 0 1 1 0 2.5 1.2 1.2 0 0 1 0-2.5m6 0a1.2 1.2 0 1 1 0 2.5 1.2 1.2 0 0 1 0-2.5m6 0a1.2 1.2 0 1 1 0 2.5 1.2 1.2 0 0 1 0-2.5m6 0a1.2 1.2 0 1 1 0 2.5 1.2 1.2 0 0 1 0-2.5m6 0a1.2 1.2 0 1 1 0 2.5 1.2 1.2 0 0 1 0-2.5m6 0a1.2 1.2 0 1 1 0 2.5 1.2 1.2 0 0 1 0-2.5m6 0a1.2 1.2 0 1 1 0 2.5 1.2 1.2 0 0 1 0-2.5m6 0a1.2 1.2 0 1 1 0 2.5 1.2 1.2 0 0 1 0-2.5m6 0a1.2 1.2 0 1 1 0 2.5 1.2 1.2 0 0 1 0-2.5m6 0a1.2 1.2 0 1 1 0 2.5 1.2 1.2 0 0 1 0-2.5m6 0a1.2 1.2 0 1 1 0 2.5 1.2 1.2 0 0 1 0-2.5m6 0a1.2 1.2 0 1 1 0 2.5 1.2 1.2 0 0 1 0-2.5m6 0a1.2 1.2 0 1 1 0 2.5 1.2 1.2 0 0 1 0-2.5m6 0a1.2 1.2 0 1 1 0 2.5 1.2 1.2 0 0 1 0-2.5m6 0a1.2 1.2 0 1 1 0 2.5 1.2 1.2 0 0 1 0-2.5m6 0a1.2 1.2 0 1 1 0 2.5 1.2 1.2 0 0 1 0-2.5m6 0a1.2 1.2 0 1 1 0 2.5 1.2 1.2 0 0 1 0-2.5m6 0a1.2 1.2 0 1 1 0 2.5 1.2 1.2 0 0 1 0-2.5m6 0a1.2 1.2 0 1 1 0 2.5 1.2 1.2 0 0 1 0-2.5m6 0a1.2 1.2 0 1 1 0 2.5 1.2 1.2 0 0 1 0-2.5m6 0a1.2 1.2 0 1 1 0 2.5 1.2 1.2 0 0 1 0-2.5m6 0a1.2 1.2 0 1 1 0 2.5 1.2 1.2 0 0 1 0-2.5m6 0a1.2 1.2 0 1 1 0 2.5 1.2 1.2 0 0 1 0-2.5m-165 3a1.2 1.2 0 1 1 0 2.5 1.2 1.2 0 0 1 0-2.5m6 0a1.2 1.2 0 1 1 0 2.5 1.2 1.2 0 0 1 0-2.5m6 0a1.2 1.2 0 1 1 0 2.5 1.2 1.2 0 0 1 0-2.5m6 0a1.2 1.2 0 1 1 0 2.5 1.2 1.2 0 0 1 0-2.5m6 0a1.2 1.2 0 1 1 0 2.5 1.2 1.2 0 0 1 0-2.5m6 0a1.2 1.2 0 1 1 0 2.5 1.2 1.2 0 0 1 0-2.5m6 0a1.2 1.2 0 1 1 0 2.5 1.2 1.2 0 0 1 0-2.5m6 0a1.2 1.2 0 1 1 0 2.5 1.2 1.2 0 0 1 0-2.5m6 0a1.2 1.2 0 1 1 0 2.5 1.2 1.2 0 0 1 0-2.5m6 0a1.2 1.2 0 1 1 0 2.5 1.2 1.2 0 0 1 0-2.5m6 0a1.2 1.2 0 1 1 0 2.5 1.2 1.2 0 0 1 0-2.5m6 0a1.2 1.2 0 1 1 0 2.5 1.2 1.2 0 0 1 0-2.5m6 0a1.2 1.2 0 1 1 0 2.5 1.2 1.2 0 0 1 0-2.5m6 0a1.2 1.2 0 1 1 0 2.5 1.2 1.2 0 0 1 0-2.5m6 0a1.2 1.2 0 1 1 0 2.5 1.2 1.2 0 0 1 0-2.5m6 0a1.2 1.2 0 1 1 0 2.5 1.2 1.2 0 0 1 0-2.5m6 0a1.2 1.2 0 1 1 0 2.5 1.2 1.2 0 0 1 0-2.5m6 0a1.2 1.2 0 1 1 0 2.5 1.2 1.2 0 0 1 0-2.5m6 0a1.2 1.2 0 1 1 0 2.5 1.2 1.2 0 0 1 0-2.5m6 0a1.2 1.2 0 1 1 0 2.5 1.2 1.2 0 0 1 0-2.5m6 0a1.2 1.2 0 1 1 0 2.5 1.2 1.2 0 0 1 0-2.5m6 0a1.2 1.2 0 1 1 0 2.5 1.2 1.2 0 0 1 0-2.5m6 0a1.2 1.2 0 1 1 0 2.5 1.2 1.2 0 0 1 0-2.5m6 0a1.2 1.2 0 1 1 0 2.5 1.2 1.2 0 0 1 0-2.5m6 0a1.2 1.2 0 1 1 0 2.5 1.2 1.2 0 0 1 0-2.5m6 0a1.2 1.2 0 1 1 0 2.5 1.2 1.2 0 0 1 0-2.5m6 0a1.2 1.2 0 1 1 0 2.5 1.2 1.2 0 0 1 0-2.5m6 0a1.2 1.2 0 1 1 0 2.5 1.2 1.2 0 0 1 0-2.5m6 0a1.2 1.2 0 1 1 0 2.5 1.2 1.2 0 0 1 0-2.5m-165 3a1.2 1.2 0 1 1 0 2.5 1.2 1.2 0 0 1 0-2.5m6 0a1.2 1.2 0 1 1 0 2.5 1.2 1.2 0 0 1 0-2.5m6 0a1.2 1.2 0 1 1 0 2.5 1.2 1.2 0 0 1 0-2.5m6 0a1.2 1.2 0 1 1 0 2.5 1.2 1.2 0 0 1 0-2.5m6 0a1.2 1.2 0 1 1 0 2.5 1.2 1.2 0 0 1 0-2.5m6 0a1.2 1.2 0 1 1 0 2.5 1.2 1.2 0 0 1 0-2.5m6 0a1.2 1.2 0 1 1 0 2.5 1.2 1.2 0 0 1 0-2.5m6 0a1.2 1.2 0 1 1 0 2.5 1.2 1.2 0 0 1 0-2.5m6 0a1.2 1.2 0 1 1 0 2.5 1.2 1.2 0 0 1 0-2.5m6 0a1.2 1.2 0 1 1 0 2.5 1.2 1.2 0 0 1 0-2.5m6 0a1.2 1.2 0 1 1 0 2.5 1.2 1.2 0 0 1 0-2.5m6 0a1.2 1.2 0 1 1 0 2.5 1.2 1.2 0 0 1 0-2.5m6 0a1.2 1.2 0 1 1 0 2.5 1.2 1.2 0 0 1 0-2.5m6 0a1.2 1.2 0 1 1 0 2.5 1.2 1.2 0 0 1 0-2.5m6 0a1.2 1.2 0 1 1 0 2.5 1.2 1.2 0 0 1 0-2.5m6 0a1.2 1.2 0 1 1 0 2.5 1.2 1.2 0 0 1 0-2.5m6 0a1.2 1.2 0 1 1 0 2.5 1.2 1.2 0 0 1 0-2.5m6 0a1.2 1.2 0 1 1 0 2.5 1.2 1.2 0 0 1 0-2.5m6 0a1.2 1.2 0 1 1 0 2.5 1.2 1.2 0 0 1 0-2.5m6 0a1.2 1.2 0 1 1 0 2.5 1.2 1.2 0 0 1 0-2.5m6 0a1.2 1.2 0 1 1 0 2.5 1.2 1.2 0 0 1 0-2.5m6 0a1.2 1.2 0 1 1 0 2.5 1.2 1.2 0 0 1 0-2.5m6 0a1.2 1.2 0 1 1 0 2.5 1.2 1.2 0 0 1 0-2.5m6 0a1.2 1.2 0 1 1 0 2.5 1.2 1.2 0 0 1 0-2.5m6 0a1.2 1.2 0 1 1 0 2.5 1.2 1.2 0 0 1 0-2.5m6 0a1.2 1.2 0 1 1 0 2.5 1.2 1.2 0 0 1 0-2.5m6 0a1.2 1.2 0 1 1 0 2.5 1.2 1.2 0 0 1 0-2.5m6 0a1.2 1.2 0 1 1 0 2.5 1.2 1.2 0 0 1 0-2.5"/></g><path fill="#000" d="M42.5 66.9c-2.7 1-5.5 2.5-8.2 3.7-2.5 1.1-5.2-.2-4-2.8 3.6-8 10.9-15 17.9-20 1.3-1 4-3 4.9-.7q0 1-.7 1.6c-6.5 5-11.6 10-16.4 16.7 2.8-1.2 6.1-2.9 9-3.8q1.2-.4 2 .3.6.7.5 1.5a54 54 0 0 0-2 12.6 54 54 0 0 1 8-10.6 57 57 0 0 1 27-16c1.4-.3 7.2-1.8 8.2-.5q.3.5.3 1.1c-.3 1.4-2.5 1.6-3.7 2a61 61 0 0 0-21.6 10A57 57 0 0 0 48 79.5c-.8 1.4-1.8 3.8-3.8 3.5-2.3-.5-2.7-5-2.7-7 0-3.8.1-5.4 1-9.1m34-3.5c2.7-.5 5.9-.6 8.8-1 7.9-1.3 18.2-3.9 25.4-7.4a67 67 0 0 0 6.9-4c1.5-1 4.6-3.5 6-4 .7.2.8.2 1.3.6 1.1 2.6-5.4 7.1-7.2 8.3-12 7-26.6 11.3-40.7 9.8q-.6 0-1-.7-.2-.9.4-1.6m52.3-1.2c-.4-1-1.5-3.7.2-4.1 1.3-.4 2 1.2 2.6 2.2A55 55 0 0 0 142 75.8c0-2.1-1.2-10-.2-11.1q.4-.5 1-.5c3.3.7 3.5 13.4 3 16.5-.4 2.3-2.9 1-4 .3a43 43 0 0 1-13.1-18.8m-55-30.1c1.1-.2 3.1 0 4.3.1 6.6.7 13.3 2 19.3 5 1.8.8 5.3 2.6 3 4.8-1.7.2-4.7-1.5-6.4-2.2A68 68 0 0 0 80.8 36c-1.8-.3-10.3-.8-7.1-4M31.1 81c3.3.2 1.5 2.8.3 4-2.1 1.8-5.6 8-7.6 9-6-.5 4.7-11.8 7.3-13m83 29c5-.3 12.5 1.4 15.6 5.9.7.9.2 2.5-.9 2.7-1.6.3-4-1.6-5.5-2.3 2 6.5-2 13.4-8.6 9.6-3.7-2.8-3.5-7.5-1.6-11.3-4.9.4-6.9 2.2-11 4.3-1.1.7-3.3-1.4-1.3-3.5a19 19 0 0 1 13.3-5.4m-57 4c3.5-.3 11.4.7 13.4 4.3 1.5 2.5-.7 3.4-3.2 2.2q.8 2.8-.1 5.7c-1.6 4.6-7.7 5-10.4 1.2l-1-2a9 9 0 0 1 .9-7q-4.3.5-7.7 3c-1 .5-2.8 2.7-4 2.8-3 .1-2-2.7-.9-4 3.5-4 8-5.6 13-6.1m57.1-19.9c6.2-.8 14 .8 19.2 4.6.7.5 2.7 2 2.6 3-.2 3.3-4.4.5-6 .3-4.5-1.4-9-1.3-13.5-1-5.9.7-11.5 1.3-17.3 2.7-.7.2-2.9.4-3.4-.4-5.1-7.7 14.8-9 18.4-9.2M55.7 99q6.2-.1 12.2 1.2c.8.2 2 .7 2.7 1.1 2 1.3 1.9 5.1-.9 5.2q-3.8-.1-7.4-.5a56 56 0 0 0-11.3.2 31 31 0 0 0-7.4 1.8c-1.6.6-3.5 1.6-5.3 2l-.8-.4c-1.4-1.3.4-3.9 1.4-5 2.5-2.9 6.3-4.3 9.9-5q3.4-.6 6.9-.6m23.9 20c4.1-.5 2.7 5.1 2.4 7.8l-1.5 12.6-.8 6.8c-.3 5.4 8 2.3 10.8 2.8 1 .2 1.8.9 1.3 2-.5 1.4-1 1.7-2.3 2.2-6.7 1.8-15.6 1.3-14.4-8.3q1.5-10.7 2.8-21.5c.2-1.7.3-3.2 1.7-4.4m26.7 44c3.8-.3 3 3.4 1 4.7a44 44 0 0 1-29.6 4.6c-1.5-.2-3.8-.8-3.7-2.8 1.4-2.1 5.4-.9 7.9-.9 9.4 0 16-.6 24.4-5.6"/><path fill="#beb5a8" d="M19.4 117c2.6-.2 3.2.5 4.5 2.7 1.5 2.7 2 5.3 2.5 8.3 1.1 7.4 3 14.7 4.6 22-1.4-.2-2-.4-3.3-.8a23 23 0 0 1-10-11.6c-2.4-5.4-5.3-17.4 1.7-20.6"/></svg>