<svg xmlns="http://www.w3.org/2000/svg" width="200" height="200" fill="none" viewBox="0 0 209 223"><path fill="#beb5a8" d="M16.5 220.5c16.8 4 46.3 1.7 59 0L69 188c3.5 3.3 11 12.5 27 12.5s49.3-17.2 57.5-25c-2.8 14.8-3.2 39 0 45 10.4 3.2 35 1.3 46 0l3.5-17c11.5-37-4-49.5-11.5-96s-13-55-30.5-80.5C147 6.6 115.5 2.5 101.5 3c-76.8-2-90.7 89.8-88 136C-8.1 174.2 2 192.7 10 197.5c-5.2-21.2 2.1-33.2 6.5-36.5 6.8 30 2.8 52.2 0 59.5"/><path fill="#000" d="m39.2 121.8-.6-.2-3.8 8.1v.8a20 20 0 0 0 2 9.5q1.2 2 2.9 3.6c.4.4 1.3.2 2 .4l.3-2-1.4-10.8zm126 41.5c1.7 0 3-1.2 3-2.7a3 3 0 0 0-3-2.8 3 3 0 0 0-2.7 2.9q.1 2.4 2.7 2.6m-122-12.8q0-1.9-1.5-2-1.8 0-1.9 1.6c0 .9 1 2 2 2q1.4 0 1.5-1.6"/><path fill="#000" fill-rule="evenodd" d="M48.7 164c1 2.1 2.6 4.7 2.8 7.2l-5.3 50.5h5.3l3.5-46.4c1.2.7 8.2 9.1 11.5 13.2 5.5 14.2 4.6 28 3.5 33.2h4c3.6-5.4-.5-22.3-3-30 9.2 8 18.8 10.9 22.5 11.3 22 .5 37.5-6.5 56-22l-2.8 40.5h3.8c-.2-14.4 1-44.8 7-50.8l1.5-2.2 1.5.4c.2 0 .5-.6.5-.6l-1.3-1c.5-2.3.7-2.4 2.8-1.4a6 6 0 0 0 6.9-.9c1.7-1.5 2-3.5 1.8-5.5q0-1.4 1.3-1.8 1.9-.7 3.5-1.7l6.3-5.2 1.1-1 .4 2q.8 9.6 1.1 19.2 0 12.3-.6 24.4a67 67 0 0 1-2.9 16.1q-1.5 5.1-3.5 10.2h4.7c.5 0 .9-.9 1.3-1.3h.3l.1 1.2c2.2.5 2.4.4 2.7-1.7l.6-5.5c.7-6.8 1.7-13.7 2.2-20.5q1-14.4-.2-28.8v-.9q.7.5.8 1 5.3 14.1 7.8 28.8a74 74 0 0 1 0 27.6c2.3.5 2.8.3 3.1-1.7q1.2-6.1 1.7-12.3c.5-9.5-1.6-18.7-3.8-27.8-1.7-6.4-4-12.7-6-19l-5-13.8a14 14 0 0 1-1-7.2q.8-2.7 1-5.4c0-3.8.1-7.7-1-11.4q-1-4.3-4.9-6.6-1.3-.7-2.1-1.8-4.3-5.6-8.4-11.3c-.7-1-2-2.2-.8-3.9-1.1.6-1.6-.1-2-.9L162.2 85q-.6-1 .4-1.3l.2-.7-.7-.1-.7.4-3.5-7.4-1.4-2.5q-.3-.3-.7-.3-.3.2-.4.6v.4q-1.5.3-2.6.8c-.1 0 0 1 .2 1.2.9 1.1 1.7 0 2.8-.3q4.3 14.5 11.2 27.6l-1.8.8.3 1 2-.6.3.5c1.3 2 1.6 4.7 4 6q.2 0 .3.4l3 4.4q.4.3.6.8l-.1.3q-1.3-.2-2.5-.8a25 25 0 0 1-8.5-6.6c-5-6-8.9-13-12.3-20-5-10.1-9.7-20.6-15.7-30.3q-5.5-9.6-13.2-17.6A37 37 0 0 0 107 31.5q-3.4-.7-6.9-.7c-1.3 0-2.3 1.1-2.3 2q.2 1.9 2.4 2c3.7-.1 6.8 1.3 10 3a51 51 0 0 1 17.3 15.7c8 11 13.6 23.3 19.2 35.6 3.7 8 7.5 15.8 13 22.7 5.2 6.5 11.5 11 20.3 10.8 1.8 0 2.4.5 2.9 2.3q1.5 6 .4 12.2c-1.5 9.6-9.7 18-20.3 17-2.2-.1-3.2.7-4.1 2.8a67.5 67.5 0 0 1-65.4 41.7c-24-4.6-42-39.2-46.6-53.8q-2.4-15.7-4.4-31.5-.2-1.2.3-2.4l2.1-5.8 6.5-21.4c2.8-9.3 5.6-18.5 10.1-27 3.2-6.2 7-11.9 12.4-16.3 3.7-3 7.7-5.2 12.6-5.6q.8 0 1.6-.6 1.3-.7.9-2-.6-1.1-1.6-1.5a7 7 0 0 0-2.9 0A32 32 0 0 0 67.1 40a60 60 0 0 0-10.2 14.4c-4.2 8-6.9 16.4-9.6 24.9q-3.7 11.9-7.1 23.8-3.1 11-8.2 21.4-3.6 7.5-7.7 14.8c-6.3 10.1-12 20.4-15.7 31.9q-2.6 7.3-2 15 .2 3.2.8 6.8l-1-1.4q-3-5.5-3.2-11.7c-.3-6 1-12 2.8-17.6a90 90 0 0 1 4.7-11.6q6.6-13.4 13.5-26.7l1.7-3.8q-.9-.6-1.4-.7h-1.7q0 1 .3 1.7.9.8.2 1.6l-5 8.9-1.5 1.5-.1-2q.2-6.3.6-12.5c.5-6 .8-12 1.8-18q2-12 4.9-24A133 133 0 0 1 40.3 37a74 74 0 0 1 19.6-21.1A55 55 0 0 1 91.1 5.4h8.3l1.7-.3c1.7-.8 1.7-3.2-.1-4.1q-1.8-1-3.7-1-5.8-.1-11.6.4-11.5 1.1-21.9 6.9a73 73 0 0 0-22.2 19.2A115 115 0 0 0 26 54.8a187 187 0 0 0-10.2 38.7q-1.6 9.2-2.4 18.5c-.6 7.7-.6 15.4-1 23q-.3 3.4-1.5 6.4l-6.4 14.5a51 51 0 0 0-4.3 22.8q.7 12.4 9.7 21 1.7 1.4 3.9 2.3.9.3 1.7-.2l-.6-1.3q-1-1-1.7-2-4.5-7-3.7-15.5.6-7.5 3.5-14.5l1.5-3.2.4.1q.3.7.4 1.6.8 4 1.3 8.3c1.5 9.6 2.7 19.4 2.2 29.1q-.5 6-1.9 11.6-.8 2.8-2 5.5c2.2.7 2.9.4 3.8-1.5q2.7-5.4 3.2-11.3c1.2-11.5.1-23-1.2-34.4L19 159.4q-.1-2.2.8-4.2 2.1-4.3 4.7-8.4l2.2-2.4q-.1-.8.2-1.7 2-3.5 4.2-6.8l.2-.1 2.4 6.7.2.4q-.2.5 0 1 0 .6.6 1.1l2.7 2q.4.4.3 1c-.6 4.8 2.4 7.6 5.8 6.8.3 0 1 .3 1 .6.8 2.6 3 3.4 3.6 6l-.2.8q0 .7.4 1t.7.8m-10-42.4.5.2 1.4 9.4L42 142q0 1-.3 2c-.7-.2-1.6 0-2-.4q-1.8-1.7-2.9-3.6a20 20 0 0 1-2-9.5v-.8zm129.5 39c0 1.5-1.3 2.7-3 2.7q-2.6-.2-2.7-2.6c0-1.6 1.2-3 2.8-3a3 3 0 0 1 2.9 2.9M41.7 148.4q1.6.2 1.6 2.1 0 1.5-1.6 1.5c-.9 0-1.9-1-1.9-2q.1-1.5 2-1.6" clip-rule="evenodd"/><path fill="#000" d="M208.9 180.4c-.3 5.8-.7 11.5-2.3 17.1q-.6 1.7-1.6 3.3-.3.3-.9.4l-.2-1 1.3-6.2q1-8.3.1-16.5-.3-4.7-1.2-9.4-1.4-6.5-3.3-13c-2.7-8.6-5.8-17.1-8.2-25.9q-3.3-13-5.8-26.3L184 87.7q-1.7-9.5-3.9-18.8-1.6-6.6-4.2-12.9-3.2-7.9-7.4-15.3a70 70 0 0 0-21-22.7 60 60 0 0 0-18-8.6q-9.6-2.8-19.4-3-1.2 0-2.3-.3c-1.3-.3-1.7-1.7-.7-2.6q1.1-.9 2.4-1 9.6-.3 18.8 2.1a69 69 0 0 1 21.5 9.5A75 75 0 0 1 168.2 32c7.3 9.7 12.3 20.6 15.9 32.2 2.9 9.3 4.7 19 6.3 28.5 1.5 8.5 2.7 17 4.6 25.4 2 9.2 4.9 18.1 7.2 27.2q3 10.4 5.2 20.9c1 4.6 1 9.5 1.5 14.3M41 65l-1.1-2 2.3-.5 7.9-14-1.4-1c0-.1.2-.9.4-.9l2.1.3c.7-.8 1.8-1.7 1.7-3.4 0-.3.3-1 .6-1 1.6-.2 2.1-1.6 3-2.7q2.3-3 5-5.7 3.6-3.6 7.8-6.6a30 30 0 0 1 6.2-3C79 23 82.8 22 86.8 22.6q4.6.7 7 4.8.5.8.3 1.7-.2 1.4-1.7.9-.8-.4-1.3-1a9 9 0 0 0-7-2.7c-4.9-.2-9.2 1.6-13.2 4a42 42 0 0 0-13 13q-6 9-10.8 18.9A201 201 0 0 0 35 93.5q-1.3 5.3-2.2 10.5c-.9 3.8-1.5 7.8-3.3 11.4l-.1.2c-.1.7-.1 1.6-1 1.4-.5-.1-.9-1-1.1-1.6 0-.2.4-.9.6-.9 1 .1 1.1-.6 1.2-1.3l1.8-16.9L32 90l-.1-1.8q0-.8.2-1.3 1.3-.8 1.4-2.1l2.3-7.7Q38 71 41 65.2zm117.3 156.7q1.7-3.4 2.9-6.4 1.3-4.5 2.4-9.1l.1-1q-1-.1-1.7-.5s0-.8.2-.8h1.8l.5-1.6q.8-5.3 2-10.4.5-2.7 1.3-5.4c.2-.6.4-1.3-.6-1.5q-.4-.3-.5-1.3l1.2-.2q1 .5 1.2-.6l.8-2.7.7-1.3h.3l.2 1.4-1.3 11.8L168 206c-.5 4.6-2.2 8.8-4 13l-.3 1c.1 1.6-.8 1.8-2.1 1.8zM121.7 96.1c-5 0-8.5.2-11.7 1.6l-.6.2c-1 .3-2 .5-2.4-.7-.4-1 .3-1.9 1.2-2.2 2.6-.8 5.2-1.9 8-2.2q12.5-1.4 23.5 4.8l4.3 2.7q.7.4 1 1 .3.8 0 1.5c-.2.2-1 .3-1.4.2q-.6 0-1-.5-5.6-4-12.6-5c-3.2-.7-6.6-1-8.3-1.4m-57.3-5.9q7.2-.2 13.7 3 1 .5 1.6 1.1.5.7.3 1.4-.4.5-1.3.6l-1.2-.3a38 38 0 0 0-26-.3h-.2c-.8.4-1.9.7-2.2-.4-.1-.4.6-1.3 1-1.7q5.3-3 11.3-3.4zm-32 131.5c.5-1.7.5-3.4 1.3-4.6 1.3-1.9 1.7-4 2.2-6.1q1.4-6 2.4-12.3l-.4-1q0-.8.4-1.3c.2-.3 1-.2 1.2 0q.4.7.2 1.3c-.8 2.2-.4 4.3 0 6.5q.2.7.2 1.5-.6 2.8-1 5.8c0 .7.8 1.5.6 2.1-.1.6-1 1-1.3 1.8q-1 2.3-1.6 4.8-.5 1.8-2.3 1.6z"/><path fill="#000" d="m120.8 32.5-2.2.2c.3-1.7-1.3-3.5-3.2-3.9q-.7 0-1.2-.4c-1.8-2-4.2-2.5-6.6-3.2-3-.7-5.7 0-8.6.6l-1.3-.1q.1-.7.4-1.2 1.3-1.2 2.7-1.8a12 12 0 0 1 7.2-.1l2.4.5q.4 0 .7.2 4.5 3.7 8.7 7.6.5.5 1 1.6M64.6 203.7q1 1.2 1.1 1.7c0 .4-.8 1-1.2 1-.5 0-1.2-.6-1.2-1s.7-1 1.3-1.7M81.1 11.8q-.7.6-1.4.8c-.4-.1-.8-.8-1.2-1.2.4-.3.8-1 1.2-1q.8.2 1.4.8zM66 213.8c-.5.3-1 .9-1.5.8s-.9-.7-1.3-1q.6-.8 1.2-1c.5-.1 1 .4 1.5.6zm41.1-202q-.7.6-1.4.8-.6-.2-1.2-1c.4-.4.8-1 1.3-1 .3-.1.9.4 1.3.7zM56 203.8q.9 1 1 1.4 0 1.3-1.3 1.2c-.4-.1-1-.8-1-1.1s.7-.8 1.3-1.5M88.4 13.3c-.6-.7-1.3-1.2-1.2-1.6 0-.4.7-1 1.1-1.1.3 0 1.1.6 1.1 1q-.1.6-1 1.7m10.2 6.4q-1.1 1-1.6 1.1-.7-.2-1.3-1 .5-.8 1.2-1 .5 0 1.7.9M97 13.3q-1-1.1-1-1.6.2-.8 1-1c.3-.1 1 .5 1.1.8q-.1.7-1 1.8M55.8 212q1 1 1.2 1.5c0 .4-.7 1.1-1 1a2 2 0 0 1-1.3-1c-.1-.3.5-.8 1-1.5m58.6-201.9c.6.7 1.3 1.2 1.2 1.5q-.3.8-1.2 1.1c-.3 0-1-.6-1-1q.1-.6 1-1.6m-2.6 5.9c-.8.4-1.2 1-1.6.8q-.7-.2-1.2-1c.4-.3.8-1 1.2-1q.5.1 1.6 1.1M63.6 27.7c-.4.2-1 .7-1.3.6s-.8-.6-1.2-1l1.2-1c.4 0 1 .6 1.3.9zM48.8 188.8q-1.1 1-1.6 1.1c-.4 0-1-.7-1-1.1-.1-.3.6-1 1-1q.5.1 1.6 1m85.5-158.3q-.8.8-1.5 1.2c-.3 0-1-.7-1-1q.3-.8 1-1.4zm-2.6-11.8q.9.9 1.1 1.5c0 .2-.6 1-.8.9l-1.6-1zM60.3 199.8c.5.6 1.1 1 1 1.3-.1.5-.7 1-1 1q-.7-.2-1.3-1zm1.5 9.5q-1 1-1.6 1.1-.6-.2-1.2-1c.4-.3.7-1 1.2-1q.6 0 1.6.9m52.4-187.9q-.8-1-1-1.6c0-.4.8-1 1.1-1q.9.4 1.2 1-.2.7-1.3 1.6m8.7-7.9q-1-1.1-1-1.5.2-.9 1.1-1c.3-.1 1 .6 1 .7q-.2.7-1.1 1.8m-37.4 2.3c-.8.4-1.2 1-1.6.9q-.6-.4-1.1-1 .6-.8 1.2-1 .5.1 1.5 1m20.1 5.7q-.9-1.2-1-1.6.3-.8 1.1-1c.8-.2 1 .7 1 1q-.2.5-1.1 1.6M48.9 197q-1.1 1-1.7 1-.6-.2-1.1-1 .5-.8 1-1 .7.1 1.8 1m85.7-158.2q-1.2.9-1.7 1c-.4 0-.8-.7-1.2-1.1q.6-.6 1.2-.8.6 0 1.7.9m-31.6-23q-1.2.9-1.7.9-.6-.2-1.2-1c.4-.3.8-1 1.2-1q.6.2 1.6 1.1m17.4.2q-1 .9-1.7 1c-.3 0-.7-.7-1-1q.6-.9 1.2-1t1.5 1m43.9 157.6-1.2-1.5c.4-.3.8-.9 1.2-.9s1 .6 1 1q-.1.5-1 1.4M63.7 19.7l-1.4.7q-.6-.2-1.1-1 .6-.6 1.3-1c.3 0 .8.6 1.2.8zM57.6 197q-1 .9-1.5 1-.6-.2-1.2-.9.5-.8 1.2-1.1.4.1 1.5 1m4.1 20.6q-1.1.9-1.7 1c-.4 0-.7-.7-1-1q.6-.8 1.2-1 .5.1 1.5 1m7.1-1.6q.8 1.2.8 1.6c0 .4-.7 1-1 1s-1-.7-1-1q.1-.6 1.2-1.6M143 38.8q-1 .9-1.6 1-.6-.2-1.2-.8.5-.8 1.2-1.1.4 0 1.6 1M49 205.2q-1.1.9-1.7 1c-.3 0-1-.5-1-1 0-.3.6-1 .9-1q.5.1 1.7 1m30.7-184q-1-1-1.2-1.5c0-.4.8-1 1.1-1s1 .6 1.1 1q0 .5-1 1.5m43.4-2.5q1 .9 1 1.3c0 .4-.6 1-1 1s-1-.6-1-1c-.2-.3.5-.7 1-1.3m14 17.7q-.9-1.1-1-1.6.3-.7 1.1-.9c.3 0 1 .6 1 .8q-.2.7-1.1 1.7M47 179.3q1.2.8 1.3 1.4-.3.8-1.1 1c-.3 0-1-.6-1-1q0-.4.9-1.4m98.4-134.8q-.9-1-1-1.6.3-.6 1.1-.9c.3 0 1 .6 1 .9q-.2.6-1.1 1.6M66 197q-.8 1-1.4 1.1-.6-.2-1.1-1 .4-.7 1-1 .4.1 1.6 1m-19.1-23c-.4-.7-1-1-1-1.5s.7-1 1-1 1 .6 1 1q0 .5-1 1.5m10 15q-.6.6-1.3.7-.5-.2-1-.9c.4-.3.7-1 1.2-1q.5.1 1.2.7zm96.8-144.6c-.4-.7-1-1.2-.9-1.5q.3-.8 1-1c.4 0 1 .7 1 1q-.1.5-1 1.5M54 36.8q-1-1-1.1-1.5c0-.3.6-1 1-1 .3 0 1 .6 1 1q-.1.5-1 1.5m-4.4 1.1q1 .9 1.1 1.4-.2.8-1 1c-.4 0-1-.6-1-1q0-.4 1-1.4m100.1-.4c.5.7 1.2 1 1.1 1.4s-.6 1-1 1c-.3 0-1-.5-1-.9q0-.5.9-1.5M59.6 23.3q-1 .9-1.7 1c-.3.1-1-.6-.9-.9q.2-.8 1-1 .4 0 1.6.9m83.4 7.5q-1.3.9-1.8 1c-.4 0-.7-.7-1-1q.6-.8 1.1-1 .5 0 1.6 1M88.3 18.3q.9.9 1 1.4c0 .4-.7 1-1 1s-1-.6-1.1-1q.2-.5 1-1.4m-15.5 1.3q-1.1.9-1.6 1c-.4 0-.8-.6-1.2-1l1.1-1q.6.1 1.7 1m72.7 38.1q1 1 1 1.3-.3.9-1 1.1c-.3 0-1-.6-1-.8q.1-.6 1-1.6m-7.1-31.4-1.3 1.2c-.3-.3-1-.8-.9-1.1s.6-.9 1-1q.4 0 1.2 1m15.6 26.2q-.9-1-1-1.5.2-.6 1-.9c.3 0 1 .6 1 .9q-.1.5-1 1.5M149.4 73c-.4-.9-1-1.3-.9-1.7q.3-.7 1.1-.9c.3 0 1 .6 1 .9q-.2.5-1.2 1.6m-8.1-24.4c-.5-.7-1.1-1.1-1-1.5 0-.3.6-.9 1-1 .3 0 1 .7 1 1q-.1.5-1 1.5m14.1 18.6q-1 1-1.7 1.2c-.3 0-1-.7-1-1 .1-.3.6-.9 1-1q.5.1 1.7.8m-5.8-5.3q.9 1 1 1.3-.4.8-1.2 1c-.2.2-1-.5-.9-.8q.2-.6 1-1.5m-22.1-47.1q.9 1 1 1.5c-.1.3-.7.9-1.1.9-.3 0-1-.6-1-1q.2-.5 1.1-1.4M75.3 17q-.9-1-1-1.4.5-.7 1.2-1c.2 0 .9.6.9 1q-.1.5-1 1.4m83.8 165.8 1.1 1.4c-.4.4-.8 1-1.1.9s-1-.6-1-1c-.1-.3.5-.7 1-1.3m-9.6-137.1q1 .9 1.1 1.2-.3.9-1 1.1c-.3.1-1-.5-1-.8q.1-.6 1-1.5M55.4 27.4c-.8.4-1.3 1-1.7.8q-.6-.2-1-1 .5-.6 1.1-.8.5.1 1.6 1M160 208.7c-.6.4-1.1 1-1.4.8q-.6-.2-1.1-1c.4-.3.7-.9 1.1-.9q.5.2 1.5 1.1m-66-193q-1 .9-1.5 1-.6-.4-1.1-1 .6-.8 1.1-1 .5.1 1.5 1m74.1 159.1q1 .9 1.1 1.5c.1.2-.8 1-1 .8q-.7-.4-1-1.1.1-.3 1-1.2M66.7 22l1 1.3q-.5.7-1.2 1.2c-.3-.4-.9-.7-.9-1q.1-.6 1-1.5M158 40.3c-.3-.6-.9-1-.8-1.3q.4-.6 1.1-1c.3 0 .7.6 1 1zm2.6 136.2-1.2.6q-.6-.2-1-1c.3-.2.6-.8 1-.9q.7.2 1.2.8zm-.4 23.9q-1.2.9-1.6 1-.6-.5-1-1.1c.3-.3.7-.9 1-.9q.5.1 1.6 1m3.3-18.7q-.9-.9-1-1.5c0-.3.7-.9 1-.9q.8.2 1 1 0 .4-1 1.4M147 34.8q-1 .9-1.5 1c-.4 0-.7-.6-1-.9q.4-.6 1-1 .5 0 1.5.9m-17 0q-.8.8-1.2 1-.6-.3-1.1-1 .5-.6 1.1-1 .4.1 1.3 1M159.6 47q-1 .9-1.5 1c-.4 0-.8-.6-1.1-.9l1.1-1q.5.1 1.5.9M154 36.3q-1-1-1-1.4.3-.6 1-1c.2-.1 1 .6 1 .9q-.2.5-1 1.5m-7 14.8q-1.1.9-1.6 1c-.4 0-.7-.7-1-1q.6-.7 1.2-1 .4.1 1.4 1M42.6 47.3q-1 .9-1.7 1-.4-.2-1-1 .5-.5 1.1-.8.5.1 1.6.8m108.8-16.5q-1.2.9-1.7 1c-.3 0-1-.7-.8-1q.1-.8 1-1 .4.1 1.5 1m7.5 160.1q.9.9 1 1.5c0 .2-.6.9-1 .8q-.6-.1-1-1 .1-.3 1-1.3M46.9 43.4c-.7.4-1.2 1-1.5 1l-1.1-1 1-1q.5.1 1.6 1m72.1-21c.4.7 1 1.2.8 1.4a2 2 0 0 1-1.2 1c-.1 0-.8-.7-.7-1q.2-.5 1.1-1.4m-78.6 142q-1 .9-1.5 1-.6-.3-1-1c.2-.3.5-.9.8-.9zm115.4 40.2-1.5.8q-.6-.3-1.1-1c.3-.3.7-.9 1-.9q.7.2 1.6 1M145.4 28.2q-.9-1-1-1.4.5-.6 1.2-1c.2 0 1 .6.9.8zM158 53.8q.9 1 .9 1.4c0 .3-.6.9-1 .9-.3 0-1-.6-1-.9q.2-.5 1.1-1.4m16.4 118.5q-1.2.7-1.7.8c-.4 0-.6-.7-1-1q.7-.6 1.3-.8.4 0 1.4 1M44.3 193q-.6.6-1.3.8c-.3 0-.7-.6-1-.9.3-.3.6-.9 1-.9q.6.1 1.3.6zM56.5 31.3c.8-.4 1.2-1 1.5-.9q.7.4 1.1 1c-.3.3-.7.9-1 .9q-.6-.1-1.6-1m82 11.5q-1 1-1.6 1c-.3.1-.6-.5-1-.9l1.2-1q.4.1 1.4 1m23.7 9.8q-.8-1-.9-1.5.3-.7 1-.9c.3 0 1 .5 1 .8q-.1.5-1 1.6m-6.9 6.5q-1.1.9-1.6 1-.6-.2-1-1 .5-.6 1-.9.5 0 1.6.9m3.7 4.3q-.6.5-1.3.7c-.3 0-.6-.6-1-1l1.1-.8q.6.1 1.2.6zm-4.4 126.2q-.9-.9-1-1.3c0-.3.6-1 1-1q.7.3 1 1-.1.3-1 1.3M44.3 185q-.6.4-1.3.6-.4-.2-1-1l1.1-.7 1.2.6zm-19.1-73.4q-.9.9-1.4 1.1c-.3 0-.7-.6-1-1q.4-.5 1-.8.4 0 1.4.7m19.1 89.8-1.3.6q-.6-.2-1-1 .5-.5 1-.7.7.2 1.3.6zm-12.5-36.9c-.7.4-1.1 1-1.4.9-.4 0-1-.6-1-1 0-.3.6-.9 1-.9q.4.1 1.4 1m-1.6 39.2q.9 1 1 1.4-.2.6-.8 1.1-.6-.4-1-1 .1-.4.8-1.5M174.6 97.3c-.4-.6-1-1-.9-1.3q.3-.7 1-.9c.4 0 .9.6 1 1zM172 75.2q-.8.9-1.4 1c-.3 0-.7-.6-1-.9q.4-.6.9-.8.5 0 1.6.7m2 105q-.9 1-1.5 1.2c-.3 0-1-.6-1-1q.2-.7 1-1 .5.1 1.5.8M38.7 190.3l-.9-1.6c0-.2.7-.8.9-.8q.7.3 1 1-.1.4-1 1.4M153.7 82c.5.7 1.1 1 1 1.3 0 .5-.6.8-1 1.2l-.9-1q.1-.5 1-1.4m11 106.3q-1 .8-1.5.8-.6-.2-1-.8.4-.8 1-1 .4.1 1.5 1M30.4 214.9q-.9-.9-1-1.5c0-.3.6-.9.9-.9q.7.2 1 .9 0 .4-.9 1.5m133.8-18.2c-.4.2-.8.7-1.1.7s-.7-.6-1-.9q.4-.6.9-.9l1.2.6zm-2-98.2q.9 1 1 1.4c0 .3-.5 1-.8.9s-1-.5-1-.8q.1-.4.8-1.5m-21-74.5-1-1.3q.5-.7 1.2-1.2.5.5.7 1-.1.4-1 1.4m14.6 188.9q-1 .7-1.4.7-.6-.4-1-1c.3-.3.7-.8 1-.7q.5.1 1.4 1m12.1-133.3q-1 .8-1.5.9c-.3 0-1-.6-.9-.8q.3-.8.9-1 .5 0 1.5.9M166.4 62q.9.9 1 1.2-.4.6-1 1-.7-.5-.9-1 .1-.5 1-1.2M43.2 216.2l1.1 1.2c-.3.3-.6.9-1 .9q-.6-.2-1-.9.1-.3 1-1.2m128-13.2q.9.8 1 1.4c0 .3-.7 1-.9.9a2 2 0 0 1-1-1q0-.3 1-1.3M27.6 217.5c-.7.4-1.2 1-1.5.9q-.6-.3-1-1.1.5-.6 1-.7t1.5.9M32.5 70q.9.8 1 1.4c0 .3-.6 1-.9.9s-1-.5-1-1l1-1.4m4.8 110.8c.6-.4 1-1 1.3-.9q.6.3 1 1c-.2.2-.5.8-.8.8q-.5 0-1.5-.9m-5.6-8q-1 .8-1.5.8-.6-.2-1-1c.4-.2.7-.7 1-.7q.6 0 1.5 1m144.6 13.1q-.7-1-.8-1.5c0-.3.5-.9.7-.8q.9.1 1 .8c.2.3-.4.8-.9 1.4m-5.9-103.7q.9 1 1 1.4-.3.7-1 .9c-.2 0-.8-.5-.8-.8q.1-.5.8-1.5m-8.3-21.4c-.4-.7-1-1.1-.9-1.4 0-.4.6-1 1-1q.6.2.8 1 0 .4-1 1.4m-2.7 10.6q-1 .8-1.5 1-.5-.2-1-.8c.3-.3.6-.9 1-1q.4 0 1.5.8M43 208l1.2 1.3c0 .2-.6.9-.9.8q-.7-.2-1.1-.9zm133.8-30.4q-.8-1-.8-1.4c0-.3.6-.9.9-.8q.7.2 1 .9zm-132.3-.9q-1.1.7-1.6.8c-.3 0-.6-.6-1-.8l1.1-.8q.5.1 1.5.8M167.9 55.2q-.9.7-1.5.9l-1-.8 1-.9q.5.1 1.5.8M156.6 180q-1 .9-1.5 1-.5-.2-1-.8.4-.7 1-1zm7-112.8q-.9.9-1.5 1c-.3 0-.6-.7-.9-1l1-.8q.5.1 1.4.8m-129 126.9q-.9-.7-1-1.2c0-.3.5-.9.8-.8q.5.1 1.2.7zm35.3 15.3-1.4 1q-.6-.2-.8-1 .1-.6.9-.8.4.1 1.3.8m110.5-109.3q-1 .9-1.5.9-.5-.2-.8-1c0-.2.5-.8.9-.8q.4 0 1.4.9m-21.9 115.4q.9.9 1 1.2-.4.7-1 1c-.3 0-1-.6-1-.9zm-118.2-43q-1 1-1.4 1-.6-.2-1.1-.8.4-.7 1-1 .4.1 1.5.8M151 55.2q-1 .7-1.6.8-.4-.2-.8-.8.5-.6 1.1-1 .4.1 1.3 1M171.2 214q-.9-.9-1-1.3c0-.3.7-.8 1-.8q.6.1.9 1zm-.6-156c.4.5 1 1 .9 1.2q-.1.6-1 1c-.2 0-.8-.6-.8-.9q0-.5.9-1.4m-126 110.6q-1 .9-1.4 1-.6-.3-1-1l.7-.8zM40.9 54q.8 1 .8 1.5-.2.6-1 .8c-.2 0-.8-.6-.8-.8q.1-.6 1-1.5m-9.3 134.7q-.9.9-1.2 1-.7-.2-1-1c0-.1.5-.8.8-.8q.4.1 1.4.8M142.6 55q-.9.9-1.4 1l-1-.8 1-.9q.5 0 1.4.7m-10.8-27.3c-1.2.4-2 .7-3 0 .8-1 1.2-1 3 0m24.1 168.7q-1 .8-1.4.8-.6-.2-1-.8.4-.6 1-.8.4.1 1.4.8m21.4 4.2q-1.1.7-1.5.7-.5-.3-1-1c.4-.2.7-.7 1-.7q.5.1 1.5 1m-1.8 6.8q.9.8 1 1.4c0 .2-.6.8-.9.8q-.7-.3-1-1zM172 67.3q-.9.7-1.5.8-.5-.2-.8-.8.4-.6 1-.9.3 0 1.3.9M45.3 52.7q-.9-.8-1-1.3c0-.2.6-.8.8-.8q.6.3 1.2.9zM124.4 28q-1 .6-1.4.6c-.4 0-.7-.5-1-.7q.4-.6 1-.9.4 0 1.4 1M34.7 161.8q-.9-1-1-1.4c0-.2.6-.8.9-.8s1 .5 1 .7q0 .5-.9 1.5m-.2 13.6 1 1.3q-.4.6-1 .8c-.3 0-.8-.6-.8-.9q.1-.4.8-1.2m1.5 25.8q-1 .7-1.4.7-.6-.3-1-1c.3-.2.7-.7 1-.6q.5 0 1.4.9M166.6 45.9c.4.5 1 1 .9 1.2q-.3.7-1 .9c-.3 0-.9-.6-.8-.9q0-.5 1-1.2m-.3 26.7c-.4-.5-1-.9-.9-1.2q.2-.6.9-.9c.3 0 .9.5.9.8q0 .4-.9 1.3m12.2 95.4-1.2 1q-.6-.3-1-1c.2-.2.5-.8.8-.8q.4.1 1.4.8m-2.6 23.2q.9.8 1 1.3c0 .2-.6.8-.8.8q-.7-.1-1-.9zM31.7 197q-1 .8-1.4.8-.6-.3-.9-1c0-.2.6-.8.8-.8q.5.2 1.5 1m7.2-39.3q-.9-.9-1-1.3.2-.6 1-.7.6.2.8.8-.1.4-.8 1.2M163.8 43l-1.4 1c-.3 0-.6-.6-1-.9l1-1q.4 0 1.4.9m20.8 69.5q-.9.9-1.3 1c-.3 0-.9-.6-.9-.9q.2-.6.9-.8.4 0 1.3.7m-16.3 104.8q-.9.6-1.3.7l-.9-1q.5-.5 1.1-.8.4.2 1.1 1.1M162.1 74q.9.9 1 1.2-.2.7-.9 1c-.2 0-.8-.5-.8-.9zM158 86.3l.9 1q-.3.9-1 1c-.2.1-.9-.5-.9-.7q.2-.5 1-1.3m15.3 76.4q.8.9.8 1.2c0 .3-.6.8-.9.8q-.6-.2-.8-.9 0-.3.9-1.1M31.7 180.8l-1.4.8q-.6-.4-.9-1c0-.2.6-.8.8-.8q.5.1 1.5 1M128.6 24q-1 .8-1.3.8c-.4 0-.7-.5-1.1-.7q.4-.6 1-.8.4.1 1.4.8M36 184.8q-1.1.7-1.6.8-.4-.2-.8-1l1-.6q.4.1 1.4.8m142.8-25q-.8.8-1.3.8-.6-.2-.8-.9c0-.2.5-.8.8-.8q.6.1 1.3 1m-152.6 7.4.9 1.3c0 .2-.7.8-.8.7a2 2 0 0 1-1-1zm4-20.3q.9 1 1 1.4c0 .3-.6 1-.7.9q-.7-.3-1-1 0-.3.7-1.3m38-131.4-1.4.9-1-.8 1.2-1zm100.4 151.2q.9.9 1 1.2-.4.7-1 .9c-.3 0-1-.5-.9-.7q.1-.6 1-1.4M38.1 59.4q-1 .7-1.4.8-.5-.2-.9-1 .4-.5 1-.6.3 0 1.3.8M171.7 195q.7.9.8 1.3c0 .3-.6.8-.9.7q-.6-.2-.7-1zM31.6 156.4q-.9.7-1.3.8c-.4 0-.6-.6-.9-.9q.4-.6 1-.8.4.1 1.2 1M176 87.8q-.9.7-1.3.7-.4-.2-.8-.8c.3-.3.6-.8.8-.7q.6.1 1.4.8M34.6 169.7q-.8-.7-.9-1.2c0-.3.6-.8.8-.8s.9.5 1 .8q-.1.4-1 1.2M24 105q-.9-1-1-1.4.3-.6 1-.7c.2 0 .8.4.7.7q-.1.4-.8 1.3M61.5 193q-.9.7-1.3.8-.6-.3-1-1l1-.7q.4 0 1.3.9m76.8-142.2q-.9.9-1.3 1-.5-.2-.9-.8c0-.2.5-.8.8-.8q.4 0 1.4.6M44.4 160.4q-.9.9-1.3.8l-1-.8c.3-.2.6-.7.9-.7q.5.1 1.4.7m-18.3 50-1-1.3c0-.1.6-.7.8-.6q.6.2 1 .8zm155.2-14q-.8.7-1.2.7-.4-.2-.8-.8.5-.6.9-.7.4.1 1 .8M27.4 201q-1 .7-1.5.7-.4-.2-.8-.8c.3-.3.6-.8.8-.7q.5.1 1.5.8m6.4-121.6q-.8.7-1.2.8c-.4 0-.7-.5-1-.7q.5-.6.9-.8.4.1 1.3.7m-5.4 2.9c.4.5 1 .9.9 1.1q-.2.7-.9.9c-.2 0-.8-.5-.8-.8q.1-.4.8-1.2m37.1 139.3h-2.2l-.1-.3q.6-.6 1.2-.7.7.2 1.3.6zm-30.9-70.3 1 1q-.6.8-1 .9-.6-.2-1-.9zm-7.2 9.1-1.1.8q-.7-.2-.9-.9c0-.1.5-.8.7-.7q.5.1 1.3.8M137.4 16q-.7.7-1.1.8-.6-.1-1-.6.4-.6.9-.8.3 0 1.2.6M98 27.6q-.4.4-1 .5l-1-.7q.4-.5.8-.7.6.1 1.3.5z"/><path fill="#000" d="M106.2 29q-.8-.6-1-1c0-.3.6-.8.8-.8q.6.1 1 .7zM133 48q-.8-.7-.9-1.1l.8-1q.6.5.8 1 0 .3-.7 1.1M37.8 67.4q-.8.7-1.2.8-.5-.3-.9-.9c.3-.2.6-.7 1-.7zm-8.2 24.1q-.7.7-1.1.8l-1-.6q.4-.6.9-.9.4 0 1.2.7m129.7 4.3q-.9.7-1.2.7-.5-.3-.8-1s.6-.6.8-.6zm23.1 84.5q-1 .7-1.3.7l-1-.8 1-.7q.4.1 1.3.8m-10.5-129q-.9.7-1.3.8c-.2 0-.7-.6-.7-.9q.2-.5.8-.7.4.1 1.2.8m8.3 57.2q-.8.8-1.1.8-.6-.4-.8-1c0-.2.5-.7.7-.6q.5.1 1.2.8m-4.1-29q-.9.7-1.3.7-.4-.1-.8-.7.4-.6.8-.8.4.1 1.3.8M57 221.6h-2.3q1.1-2 2.4 0m-29.8-45q-.7.7-1 .8-.6-.2-1-.8.3-.4.8-.7.4 0 1.2.7M24 94.4l.8 1.1q-.2.6-.8.8-.5-.1-.8-.7l.7-1.2m147.7-2.7q-.7.7-1.2.8c-.3 0-.7-.6-.7-.9q.2-.5.8-.7.4.1 1.1.8m10.1 96.7q-.8.6-1.2.7l-.8-.9q.4-.4.9-.6.4.1 1 .8M50.8 31.2q-.7.8-1.2.9-.5-.2-.7-.7.2-.7.8-1zm124.1 41.3-.8-1.2q.1-.6.7-.7c.3 0 .9.4.9.6q-.1.4-.8 1.3M171 222l-.8-.9q.5-.6.9-.8l1 .8zm13.6-117.7-1.4.7c-.2 0-.7-.6-.6-.7q.3-.5.8-.8zM176.5 217q-.7.7-1 .8-.7-.2-.9-.8c0-.2.5-.7.8-.7q.3 0 1.1.7M32.5 64.5q-.7-.7-.8-1.2.1-.4.9-.7c.1 0 .6.5.6.7q0 .5-.7 1.2M34.3 208l1 1.3c0 .2-.6.7-.7.7q-.7-.2-1-.7.1-.4.7-1.3M179 93q-.7-.8-.7-1.1l.6-1q.6.4.8.9 0 .3-.7 1.2M26 183.7q.8.5.9.9c0 .3-.5.8-.7.8q-.6-.2-1-.8zm0-30.3q-.7-.8-.7-1.2.2-.4.8-.6.6.2.8.8-.1.3-1 1m2.7-46.9.4 1.2q-.2.6-.8.7-.5 0-.8-.6l.5-.9zm-1.3 86.2-1 .8-1-.7q.3-.6.7-.7t1.3.6M181.6 163l1 1c0 .2-.6.7-.8.7l-1-.6zm-9.4 24.3q.7.7.8 1.1-.1.5-.7.9l-.8-.8q.1-.4.7-1.2M153.8 25.7q.6.7.7 1.1c0 .3-.5.8-.7.7q-.7-.1-.8-.7.1-.4.8-1.1M92.6 7q.7.7.8 1.1c0 .2-.5.7-.7.7q-.5-.1-.8-.7 0-.4.7-1m87.6 76.3q-.7.8-1 .9-.4-.2-.9-.8l.8-.7q.3 0 1 .6M93.8 23.6l-1.2.6q-.4-.1-.8-.6l.7-.7q.5.1 1.3.7m-65.4 75 .6 1-.8.8-.6-.8q.1-.4.8-1m3 123H29q.7-.9 1-1 .8.2 1.4.6zm151.1-49.4q-.7.7-1 .7l-1-.7q.5-.6.8-.7.4.1 1.2.7M132.8 13l-1.2.5-.8-.7q.3-.4.7-.5.5 0 1.3.7m-30.4-5-1 .7q-.5-.2-.9-.6.4-.6.9-.7.3 0 1 .7M176 63.2l-1 .7q-.4-.1-.9-.6l.8-.8q.3 0 1.2.7m-8.7 24.5q-.7.5-1.1.6l-.7-.7q.4-.6.8-.7.3.1 1 .8m-138-12.5q-.6.8-.9.8-.5-.2-.9-.6l.8-.8zm145.5 29.9-.7-1c0-.2.5-.6.6-.6q.5.2.8.7zM146.5 67q-.6.7-1 .8c-.2 0-.7-.5-.7-.7q.1-.4.7-.7.3 0 1 .6m32.5 9.3q-.7-.7-.6-1 .1-.6.7-.7.4.2.6.8zm-50.2-34.6q.6.6.7 1-.1.4-.5.7-.6-.3-.8-.7 0-.4.6-1m-92 8.6q.7.7.7 1-.2.5-.8.7-.3-.1-.5-.6 0-.4.6-1.1m9.9-15q-.7.5-1.2.6-.3-.1-.6-.6.3-.4.8-.6.3 0 1 .6m133.9 169.1q-.6.6-.9.6a1 1 0 0 1-.6-.7q.2-.4.6-.6.4.1.9.7M23 156.3c-.4.3-.7.8-.8.7q-.5-.1-.7-.7.1-.4.6-.6.3 0 .9.6M191.5 146q.6.6.6 1-.1.3-.7.7l-.5-.8q0-.3.6-1"/><path fill="#beb5a8" d="m39.2 121.8 1.4 9.4L42 142q0 1-.3 2c-.7-.2-1.7 0-2-.4q-1.9-1.7-3-3.6a20 20 0 0 1-2-9.5v-.8l4-8.1zm126 41.5q-2.6-.2-2.7-2.6c0-1.6 1.2-3 2.8-3a3 3 0 0 1 2.9 2.9c0 1.5-1.3 2.7-3 2.7M43.3 150.5q0 1.5-1.6 1.5c-.9 0-1.9-1-1.9-2q.1-1.5 2-1.6 1.5.2 1.5 2.1"/><path fill="#000" d="M130.3 112.8c.2 2.9.3 5.6-1.5 8q-1.5 2-4 1-4.3-2-4.5-6.8l.4-4.3q-2-.1-4 .3-3.8 1.4-7.3 3.2-2.4 1.2-3.4-.2c-.9-1.2-.7-2.9.7-3.7q2.5-1.6 5.4-2.7c8.2-3 16-1.5 23.7 2l3.7 2c1.2.6 1.5 2.8.4 3.6-.5.4-1.5.6-2.1.4q-3.2-1.1-6.2-2.5zm-56.6 2.8-.5 3.8c-.3 2-1.8 3.7-3.2 4-1.6.2-3.7-1-4.7-2.7a10 10 0 0 1-1-8.6q-4.3-.6-8 1l-3.5 1.8c-1.2.6-2.5.4-3-.6s-.3-2.4.8-3.2a21 21 0 0 1 21-2.2q2.3 1.1 4.2 2.8c.6.5 1 1.6.8 2.2-.3.7-1.3 1.1-2 1.7zm5.8 25.1c.2-4.1 1.5-7.7 2.8-11.2q1.8-5.2 3-10.6.7-2 2.4-1.9 1.7.5 1.4 2.7c-.7 5.3-3.2 10-4.8 15.1a33 33 0 0 0-1 5.5q-.2 2.3 2 3.3 1.7.8 3.6 1.3 1.7.5 1.5 2.1-.1 1.4-1.7 1.4-4.1.1-7.2-2.6c-1.7-1.4-1.9-3.4-2-5m16.4 25.7a18 18 0 0 1-9.5-2.4c-.8-.7-1.6-1.4-.8-2.6q1.1-1.4 2.7-.5 4.2 2.2 9 1.7a19 19 0 0 0 11.4-5.6l1.2-1q1.6-1 2.7.2.8 1.1-.4 2.2a22 22 0 0 1-16.3 8"/></svg>