<svg xmlns="http://www.w3.org/2000/svg" width="200" height="200" fill="none" viewBox="0 0 172 207"><path fill="#000" d="M43.7 0c2.2-.1 4.7 1.8 6.8 2.7 6.4 3 12.9 1.7 19.6.9 6-.5 12.9-1 18.8 0 6.6 1.2 13.5 5.4 19.8 7.3a19 19 0 0 0-6-6.8c-.7-.4-3.7-.7-2-2.7.8 0 1-.1 1.5-.4 13.3 3.2 22.4 9 29.5 20.7 5-.6 10.9 5 13.5 8.7 3.9 5.6 4.3 10.2 3.4 16.6a13 13 0 0 1 3.6 3.1c7.8 10.5 8 23.9 7.4 36.3q-.2 7.8-1.2 15.2c25.9 8.2 8.1 50.2-13 46.5l-.4 1.6c-.5 2-1.7 4.6-2.4 6.6l-2.8 7.2q-1.2 2.6-2.7 4.7a78 78 0 0 1-20.8 24.8c-3.2 2.6-4.3 3.6-8 5.7a67 67 0 0 1-16 6.7q-10.6 2.6-21.5.8c-.8 0-2.4-.1-3-.6-.7-.7-1.5-.2-2.5-.5-25.5-7.4-42.4-29.2-48.5-53.7C6 146.3.8 135.6 0 124c-.4-6.9 2.6-16.2 10.8-16.6 0-2.3-.4-4.7-.4-6.8q.1-8-.4-15.9a59 59 0 0 1 3-22c-.8 1-1.4 2-2.8 1.7-1.6-1.2.1-1.8-.4-3-.4-1 0-1.8.3-2.7a38 38 0 0 1 7.4-12.6c-6-5-9-10-9.8-18 0-.7.2-2.9.8-3.3 1.9-1.3 2.9 1.5 3.9 2.5 2.3 2 6 3 9 3h.2c-3.1-4-6.3-10.8-4.8-16.1.5-1.7 2-2.5 3.4-3.1 2.6 1.2 4.8 2.4 7.5 3.2 5 1.5 10 .1 15.2-.1l-1.1-2.4c-1.6-4-3.4-10 1.9-11.8"/><path fill="#beb5a8" d="M43.9 18.6c1.2 0 2-.1 3 .6q.5.6.4 1.3 1 .7 2 0c1-1.2.2-2 .6-3 .7.3.9.8 1.7.4 1.3-.6.8-2.3-.4-2.4q-1.2.1-1.3 1.3v.4c-.4-.5-.3-.5-.4-1l-.6-.6v-.4c.6-.5.8-.6 1-1.2l-.7-1.1q-.7-.3-1.4.1l-.4.2c-.4-.3-.4-.2-.6-.7 0-1.7.3-1.7-1.3-2.6-.4-.7-.8-2.5-.8-3.3q.6.5 1.3.3c.5-.4.5-.4.8-.9l1.6 1v.2q-.7 0-1 .6c-.6 1.3.6 2.2 1.8 1.8.7-.9.3-1.6-.2-2.4l3.4 1.3c.5.2.5 1.8 2.1 1.4l.7-1c.9-.2 2.5.4 3.4.8q1 .8 1.7-.3h3.1c.6 0 .9.7 1.4.5 1.1-.4 3-1.5 4.3-1h.2q.3.7 1 .8c1 0 .9-.3 1.3-1.1.8-.3 2.1-.3 3-.4.3.2.8 2.3 2.1.9q0-.7.5-1c.7-.3 2.6-.5 3.2 0l.1 1q.7.9 1.7.3c.4-.5.4-.7.5-1.4 4.4-.4 2.8 1.6 4.8 1.6.4-.3.4-.2.7-.7v-.7c.7-.4 3.5 1.3 4.2 1.6.9.3 1.4-.5 2.2.5q-.5.9-.2 1.8.8.8 1.8.2l.5-1.3c.7 0 4.4 1.6 5.3 1.8.6.2.3 1.5.7 2 1.2.8 1.6.4 2.3-.6 2.2.2 3 1.5 6 1.5l.1.1c-.3.6-.4.7-.4 1.3q.6 1.1 1.9.8 1-.8.4-2l-.8-.2c-.4-.9 1.5-1 1.2-2.3-.1-.4-.6-1.2-.4-1.5q.8-1.6-.8-2.1c-.7-.2-1.7-2-2-2.7l5.6 3.4c1 .5.4 2 2.2 1.9q1.5.1 1.2 1.6c-.2.7.4 1 1 1.4.8-.3.6-.4 1.3-.2 1 1-.2 3 2.4 2.7 1.7 1.5 0 2 2 2.8l.7.4c1.4 2.4 3.8 5.8 5 8.2-.4.2-.3.2-.7.2q-.6.2-.7.8t.2 1.1c.5 1 2.3.6 2.3-.7-.1-.5-.1-.4-.4-.8.7-.7 2.8-.3 3.2-2-.2-.6-.2-.6-.6-1h-.7q-.4-.3-.4-.7l.1-.2c1.8.1 9.5 6.7 9 8.7-.8.3-1.6.4-2 1.2-.1.8.4 1.7 1.2 1.7s1.3-.7 2-.5c.4 1 1 5 .8 6.2-1.3 1.5-1.4 1.3-.2 2.9-.2.8-1.1 5-1.5 5.4-1.2.1-1.9 0-2 1.5q0 .5.6.8l.3.2.2.1c.1 1.8-2 3.4-.7 4.9q.8.4 1.7 0c3.5-.8 2.7-3.4 3.9-5.2h2c.7 1-1 1.9 1.6 2.8.8.8 2 4.1 2.3 5.3q-.9.7-1 1.7c1 2 1.8-.8 2.3 4v.2c-1-.3-2.1-.5-2.2.8-.2 2 1.4 1.3 2.5.9.4.7.4 5.4.3 6.5 0 2 .4 3.3.3 5.2-.3.4-1 1.4-.4 2s.4 2.7.3 3.5v.2c-1.3 1.8.2 1.6-.2 3.3-.3 1 0 4.8-.8 5.1l-1.6-.2c-.7 1-.2 2.4 1.2 2.2q.2-.4.6-.4l-.2 3.5c-1-.1-1.4-.3-2 .6-.4.1-2.7.7-2.8.6-.8-1-1.3-1.7-2.4-.7-.5.4 0 1.4.2 1.9-1.8 1.1-3.2-.9-3.3 1.8-1 1.4-1.3.5-2.4 1.4-.5.5-.7 1.6-1.2 2.1l-.9-.3c-.4.3-.3.2-.5.8 0 .8 1 1.6 1.2 3.1l.5.3c0 .7-.5.8-.5 1.6.3.5.1.3.7.5 1-.2 2.8-3 3.7-3.9 7.7-7.7 20.1-5.2 22.2 6.1 2 10.8-6.6 24.8-17.3 27.3-3.6.9-5.5-3-7.4-2.8q-.6.3-.8 1c-.9 3.2-1.3 6.5-2.2 9.7q-.7 1.8-1.6 3.5a73 73 0 0 1-9.9 18c-2 2.6-4.8 7-7.9 8.7-.2 0-.6 1.7-1.1 2-2.6.3-1.8 2-3 3-2.7 0-1.5 1-2.4 1.6q-3 2.3-6 4.2c.2-1 .4-1.8-.8-2.1-1.6.1-2.3 1.9 0 2.5l-2.2 1.4c-.8-1-1.2-1.4-2.5-.4q-.2.1-.3.5l.5 1.1c-1.1 1.4-2 .5-3 1-1.3.7-3.2 2.3-4.8 2.2l-.2-.2q.4-1 .2-1.7-1.2-.4-2 .5.2 1 1 1.8c-1 .7-2.5-.4-3.7.8-.8.8-2.3.9-3.4.8-.2-.4-.7-2.4-2-1.3-1 .8-.6 2.2-2.6 2-1.7 0-1-1.8-2.3-2q-1.3.2-1.6 1.5-.9.6-1.9.4c-1.2 0-1.3-.4-1.7-1.4-1.9-1.3-1 1.7-5 .5q-.4-.7-1-1c-1.3 0-1 .8-2.8 0l-1-.5c1.3-.7 1.9-2 .3-2.3-1.2.4-1 1.2-1 2.2-1-.3-3.3-.9-3.6-1.7-.8-2.2-1.9 0-3.6-1.4q.4-.8.4-1.5c-1-1.2-1.6-.4-2.1.5a63 63 0 0 1-23-21.5l.5-.3c-.3-.7-1.7-1-2.1-1.9-.6-1 .4-2-1.1-2.8a51 51 0 0 1-6.3-13.8 156 156 0 0 1-5.6-31c-2-17.3-3.7-33.3 1.2-50.3a64 64 0 0 1 11.4-22.9c1.8 0 15-1.8 16.8-2.5 1.8.6 9.7 2.9 11 .9-.2-.7-2-1.8-2.7-2.2-.6-.4-2.2.2-3-.6.8-.9 1.3-1.2.3-2.3-1.6-.7-1.8-.2-1.6 1.3l-.2.3c-1 .3-2.7-.8-3.4-1.4l-.5-.4c-.6 0-1.9 0-2.2-.6s.5-1.5-.8-2q-1-.1-1.5 1c-1.9-.4-8.1-5.2-9.7-6.8q-.6-.6-1.5-1v-.3q-.1-.7-.6-1.2l-1.1-.5q-3-3.6-5.7-7.5-.3-.4-.1-.7c.7-.9 1.7-.1 1.8-1.4-.6-1.7-1.1-1.7-2.6-.9-.8 0-.7-.8-.6-1.4.4-1.5-.8-1.8-.5-3.6l.2-.2c1 .5 1.1 1.6 2.5 1.6q.8 0 1.3.6c0 .7-.3 2.2.9 2.3q.5 0 1-.3c.6-1.2.4-1.3 1.8-1.3 1.2 0 2.4 1.8 3.2 1.4 1.6-.6 2.2-1.2 4-.8h.1q.6 1.2 1.7.9c1.2-1.2 1.8-2.1 3.7-1.5l.1 1c1.4 1.8 2.6.4 2.4-1.6"/><path fill="#000" d="M47 190.2c-.9-1.2-.7-2.6 1-2.2 1.4 1.3.4 2.5-1 2.2M76 28.6c2.7.1 8.3 8.9 10 7.5.3-.6.3-1.2 1-1.2.8.3 1.6.7 1.4 1.6q-.5.3-.8 1 .2.5.8.7l1.2-.4c1.6-.4 1.4 1 2 1.8.9.4 4.4 2 5.3 1.8 1.7-1.7 2-.8 2.7.5.2.5 2.2 1 2.8.9q.3-.6.3-1.8.8-1 1.9-.1.7 1.2-.4 2c1 .4 1.5.2 2.3.3 2.9.4 5.3.4 8.1 0V43c-2 0-1-3.4 1-2 .6.8 0 1.7-.5 2.3.8-.2 3.6-.4 4-.8 0-1 .2-2.3 1.7-1.7.6.5.3 1 .8 1.3 1 0 2.3.2 2.7 1.2.7 2.5-3 5.9-3.8 8.3l.8.5q.3.7.2 1.6l3-1c1-1.7 1.2-.8 2.6-1.4.8-.4.1-2 1.3-2.5q.9 0 1.4.7c.6 0 .7-.1 1.2-.4.5-.7-.8-.6-1-1.9.5-1.1 2.4-1.5 2.8.6v.2c1.1-.7 2.5-1.7 3.8-2q.9 0 1.4.5c1.5 3.2-6.7 8.8-9 10-.2.2-1.2.4-1.7.6-.4.5 0 .6 0 1.7l-.5.4c-1.8.5-.8-1.3-2-1-3.8 1-7.8 2.2-11.7 1-.9-.2-1.4-1.8-1-2.5 2-3 5.4-5.5 7-8.7-9.7 2-18 1.5-27.3-2-2.5-1-1.3 1.6-3.4-1.3l-5.8-3.4v.3c.3 1.6-1.5 2-2.3.4q.2-1.3 1.7-1.5c-1.3-.9-4-3.8-4.8-4.2-.3.6-.4.6-.8 1.1-1.2.5-2-.7-1.4-1.8.5-.5 1 0 1.5-.5l-1-1.8-1-2.3c.3-1.3.3-1.9 1.5-2.4m23 75.2c2.1-.2 5.2 0 7.4.6 2.6.8 7.5 2.3 8.8 5.1 1.9 4-1.9 3-3.9 2l.2.5a10 10 0 0 1-1.3 7.4c-2.3 3.3-7.3 3.2-9.2-.4a9 9 0 0 1-1-3.9c-.4-3.2-.2-3.8 1.2-6.6q-7-.4-13.1 3.1c-1.4.8-4.2 3-5.8 1.5-2.7-2.4 3.6-5.4 4.8-6q5.7-2.8 11.8-3.3M48 29.4q.8 0 1.4.5c.5 1.1-.3 1.2-.5 2.2l.8 1c.7-.4 1-1 2-.7q.6.4.7 1c.4 1.3-.7.6-1.1 1.5 0 .6.6 1 1 1.6l.5-.9c.7-1 2.6-.5 2.4.9-.1.8-.8.8-1.4 1.3.3.3 1 1 1.4 1 .6-.6.7-1 1.6-1.1 2.1.8.5 2.2.5 2.7q.5.5 1.1.6c1.8-1 2-.3 2.2 1.5.5.5 5 2.9 6 3.1-.3-1-.3-2 1-2.3 2.8.5.3 2.6.3 2.7 1.2 1 1.6 0 2.8.3l2.2 1.3c2.4.9 1.2-.7 2.8-1.4.6.1.6.1 1 .5.4.6.3.7.3 1.4l.1.2c1.1.2 2.7.4 3.8.3v-.1l-.5-.8.2-1q1-.9 2 .3v.7q-.6.7-1.7 1c2 .5 6.7.4 8 1v.3c-.7.8-3.2 1.2-4.1 1.4q-7.5 1.4-15-.3c-3-.6-7-2-10-3.1H59c-1.3-.4-.5-1.6-2.3-1.8-.8-.1-1.8-1.1-2.5-1.6a33 33 0 0 1-10-10.8l.1-.8c.3-5 1.8-2 3.6-3.6M37.5 105a20 20 0 0 1 14.3 4.4q1.4 1.1 1.6 3c-.4 1-1.3 1-2.3.9.4 2.3.6 3.8 0 6-.9 2.8-3.2 4.5-6.1 3.5-1.8-.7-3.6-3.2-4.3-4.9v-.1c-1-3.2-1.3-5.6.3-8.6-3.7 0-6.9.2-10.3 2q-1.6 1.1-3.4 2c-1.6.5-4.4-.5-3-2.5.4-.7 1.4-1.2 2.1-1.7q5.1-3.3 11.1-4m23.8 4.7c1.1-.1 2.8 0 2.5 1.6-.8 4.6-2.4 9.2-3.4 13.8-1 4-2 6.6-2.4 10.6-.8 7.3.8 10.3 8.5 10 1.7 0 4.4-.8 6-.2 1.2 1.3-1.4 3-2.4 3.5-6.6 2.9-16.2 0-16.8-7.8v-2.6c1.5-9.6 4.6-18.8 7.2-28.1q.2-.5.8-.8m36.4 38.9c2.2 0 5.5.7 6.7 2.6 2.7 4.4-2.5 2.7-4.3 2-7.1 9-22.5 11.4-33.3 12h-3c-2.2-.1-7.2 0-8.3-2.3q.2-1.2 1.4-1.3c12 .5 25.3-.6 36-6.6 1.9-1 3-1.9 4.3-3.6q-1-1.6.5-2.8m-2.9-63.8c5.9-.5 17.3 2.5 20.2 8.5q.1.4 0 .8l-.5.2c-2.2-.4-4-2-6.1-2.8A27 27 0 0 0 95.9 89h-.2q-6.6.5-11.7 5c-1.3 1-2 2.3-3.7 3-3 0-3-2.8-1.2-4.8 4.1-4.3 9.8-6.9 15.7-7.4m-58.1 2.9c5.5-.4 10.2 1.8 14.9 4.6.8.4 3.3 2.7 1.8 3.7-1.7 1-5.6-1.4-7-2a22 22 0 0 0-9.2-2 24 24 0 0 0-11 3.4c-.8.5-1.7 1.6-2.7 1.8-1 .3-2.8-.3-2.9-1.5 0-.8.7-1.7 1.2-2.3a23 23 0 0 1 14.9-5.7m102.5 15.5a1.4 1.4 0 1 1 1.1 2.6 1.4 1.4 0 0 1-1.1-2.6M84 26.6a1.4 1.4 0 1 1 .7 2.6 1.4 1.4 0 0 1-.7-2.6m58 73.9a1.4 1.4 0 1 1 .8 2.6 1.4 1.4 0 0 1-.8-2.6m-2.9-13.7a1.4 1.4 0 1 1 1 2.5 1.4 1.4 0 0 1-1-2.5m3.1-40.8c1.6.2 2.5 1.7.6 2.8-2 .1-2.3-1.7-.6-2.8m-3-8.3a1.4 1.4 0 1 1 1 2.5 1.4 1.4 0 0 1-1-2.5M50.9 21a1.4 1.4 0 1 1 .4 2.7 1.4 1.4 0 0 1-.4-2.7m47-8.4a1.4 1.4 0 1 1 .7 2.7 1.4 1.4 0 0 1-.7-2.7M56 21a1.3 1.3 0 1 1 1 2.5 1.3 1.3 0 0 1-1-2.5m44.5 0a1.3 1.3 0 1 1 .7 2.6 1.3 1.3 0 0 1-.7-2.6m35.9 74a1.3 1.3 0 1 1 1.2 2.4 1.3 1.3 0 0 1-1.2-2.4"/><path fill="#000" d="M100.5 37.7a1.3 1.3 0 1 1 .8 2.6 1.3 1.3 0 0 1-.8-2.6m33 43.6a1.3 1.3 0 1 1 1.3 2.4 1.3 1.3 0 0 1-1.3-2.4m6 10.9a1.3 1.3 0 1 1 .4 2.7 1.3 1.3 0 0 1-.4-2.7M81.2 18.3a1.3 1.3 0 1 1 .8 2.5 1.3 1.3 0 0 1-.8-2.5m52.5 13.9a1.3 1.3 0 1 1 .9 2.6 1.3 1.3 0 0 1-.9-2.6M45.3 21a1.3 1.3 0 1 1 .4 2.7 1.3 1.3 0 0 1-.4-2.7m13.5-2.8a1.3 1.3 0 1 1 1.1 2.5 1.3 1.3 0 0 1-1-2.5M42.6 29.5A1.3 1.3 0 1 1 43 32a1.3 1.3 0 0 1-.5-2.6m99.3 60.2A1.3 1.3 0 1 1 143 92a1.3 1.3 0 0 1-1-2.4m-8.2-2.8a1.3 1.3 0 1 1 .7 2.5 1.3 1.3 0 0 1-.7-2.5M78.1 26.7c2-.3 2.5 1.2 1.2 2.6-2 .1-2.5-1.4-1.2-2.6M53.5 12.8a1.3 1.3 0 1 1 1 2.5 1.3 1.3 0 0 1-1-2.5m74.7 46.8a1.3 1.3 0 1 1 .9 2.6 1.3 1.3 0 0 1-.9-2.6m11.1-27.4a1.3 1.3 0 1 1 1 2.5 1.3 1.3 0 0 1-1-2.5m-50.2-.1c2-.2 2.9 1 1.5 2.6-1.8.3-2.5-1.2-1.5-2.6m-2.5-19.3a1.3 1.3 0 1 1 1.1 2.4 1.3 1.3 0 0 1-1.1-2.4m10.9 5.5a1.3 1.3 0 1 1 1.3 2.3 1.3 1.3 0 0 1-1.3-2.3M98 35a1.3 1.3 0 1 1 .5 2.6 1.3 1.3 0 0 1-.6-2.6m-58.4-8.2a1.3 1.3 0 1 1 1 2.4 1.3 1.3 0 0 1-1-2.4m52.9-8.6a1.3 1.3 0 1 1 .6 2.6 1.3 1.3 0 0 1-.6-2.6M56 15.6a1.3 1.3 0 1 1 1.1 2.4 1.3 1.3 0 0 1-1-2.4m-2.6 8.1a1.3 1.3 0 1 1 .7 2.6 1.3 1.3 0 0 1-.7-2.6m49.6-5.4a1.3 1.3 0 1 1 1 2.4 1.3 1.3 0 0 1-1-2.4M73 26.6a1.3 1.3 0 1 1 .6 2.6 1.3 1.3 0 0 1-.6-2.6m66.3 16.8a1.3 1.3 0 1 1 .9 2.5 1.3 1.3 0 0 1-.9-2.5m-47-30.6a1.3 1.3 0 1 1 .8 2.5 1.3 1.3 0 0 1-.8-2.5m-5.5 5.5a1.3 1.3 0 1 1 .8 2.5 1.3 1.3 0 0 1-.8-2.5m-33.1-.1a1.3 1.3 0 1 1 .5 2.6 1.3 1.3 0 0 1-.5-2.6m30.1-2.7a1.3 1.3 0 1 1 1 2.5 1.3 1.3 0 0 1-1-2.5m41.6 30.7a1.3 1.3 0 1 1 1 2.4 1.3 1.3 0 0 1-1-2.4m-24.9-14a1.3 1.3 0 1 1 .9 2.5 1.3 1.3 0 0 1-1-2.5m27.9 5.6a1.3 1.3 0 1 1 .7 2.5 1.3 1.3 0 0 1-.7-2.5M59 29.4a1.3 1.3 0 1 1 .6 2.5 1.3 1.3 0 0 1-.5-2.5m22.6-16.7a1.3 1.3 0 1 1-.3 2.6 1.3 1.3 0 0 1 .3-2.6m57.5 85a1.3 1.3 0 1 1 .9 2.5 1.3 1.3 0 0 1-.9-2.5m-38.9-82.2a1.3 1.3 0 1 1 1.1 2.4 1.3 1.3 0 0 1-1.1-2.4m8.7 2.7a1.3 1.3 0 1 1 .6 2.6 1.3 1.3 0 0 1-.7-2.6m-47.3 8.3c2.1 0 2.2 1.6.8 2.8-1.9-.2-2-1.7-.8-2.8m-25.1 3.2a1.3 1.3 0 1 1 1.5 2.1 1.3 1.3 0 0 1-1.5-2.1m42-14.2a1.3 1.3 0 1 1 .6 2.6 1.3 1.3 0 0 1-.6-2.6m55.2 22.3a1.3 1.3 0 1 1 1 2.4 1.3 1.3 0 0 1-1-2.4m-30.5-13.9a1.3 1.3 0 1 1 1 2.4 1.3 1.3 0 0 1-1-2.4M59 23.7a1.3 1.3 0 1 1 .7 2.6 1.3 1.3 0 0 1-.6-2.6m58-8.2a1.3 1.3 0 1 1 .9 2.5 1.3 1.3 0 0 1-.9-2.5m-8.3 14a1.3 1.3 0 1 1 .8 2.5 1.3 1.3 0 0 1-.8-2.5m-27.6-.1c.8 0 1 0 1.6.6.3 1.1-.3 1.6-1 2.1-1.4-.2-2.2-1.7-.6-2.7M61.7 21a1.3 1.3 0 1 1 .8 2.5 1.3 1.3 0 0 1-.8-2.5M112 32.2a1.3 1.3 0 1 1 0 2.6 1.3 1.3 0 0 1 0-2.6m-8.7-2.7a1.3 1.3 0 1 1 .8 2.5 1.3 1.3 0 0 1-.8-2.5M106 21a1.3 1.3 0 1 1 .7 2.6 1.3 1.3 0 0 1-.6-2.6m30.5 8.4a1.3 1.3 0 1 1 .8 2.5 1.3 1.3 0 0 1-.8-2.5M89.5 15.5a1.3 1.3 0 1 1 .8 2.5 1.3 1.3 0 0 1-.8-2.5m.2-5.5a1.3 1.3 0 1 1 .4 2.5 1.3 1.3 0 0 1-.4-2.6M78.5 21.1a1.3 1.3 0 1 1 .4 2.6 1.3 1.3 0 0 1-.4-2.6m27.5-5.7a1.3 1.3 0 1 1 .8 2.5 1.3 1.3 0 0 1-.8-2.5m-63.5 8.5a1.3 1.3 0 1 1 .6 2.5 1.3 1.3 0 0 1-.6-2.5m80.1-2.7a1.3 1.3 0 1 1 1 2.4 1.3 1.3 0 0 1-1-2.4m13.8 63a1.3 1.3 0 1 1 1.1 2.4 1.3 1.3 0 0 1-1.1-2.4m14.2-2.9a1.3 1.3 0 1 1 .1 2.6 1.3 1.3 0 0 1 0-2.6M56 26.8a1.3 1.3 0 1 1 1.2 2.3 1.3 1.3 0 0 1-1.2-2.3m-30.3-2.9a1.3 1.3 0 1 1 .8 2.5 1.3 1.3 0 0 1-.8-2.5M150 65a1.3 1.3 0 1 1 1.2 2.3A1.3 1.3 0 0 1 150 65m3.1 24.5a1.3 1.3 0 1 1 .6 2.6 1.3 1.3 0 0 1-.6-2.6M94.9 37.8a1.3 1.3 0 1 1 1 2.4 1.3 1.3 0 0 1-1-2.4m25.3-8.4a1.3 1.3 0 1 1 .3 2.6 1.3 1.3 0 0 1-.3-2.6m-17.5 158c2 0 2.1 1.5.6 2.6-.8-.2-.9-.1-1.5-.5-.5-1 .2-1.5 1-2M131 35.1a1.3 1.3 0 1 1 .9 2.4 1.3 1.3 0 0 1-1-2.4m-58.1-14a1.3 1.3 0 1 1 .8 2.5 1.3 1.3 0 0 1-.8-2.5m33.4 5.5a1.3 1.3 0 1 1 .6 2.5 1.3 1.3 0 0 1-.6-2.5M153.3 84a1.3 1.3 0 1 1 .3 2.6 1.3 1.3 0 0 1-.3-2.5M78.4 10a1.3 1.3 0 1 1 .7 2.4 1.3 1.3 0 0 1-.7-2.5M131 73a1.3 1.3 0 1 1 .7 2.4 1.3 1.3 0 0 1-.8-2.4m-41-52a1.3 1.3 0 1 1 0 2.6 1.3 1.3 0 0 1 0-2.6m-58.4 8.5A1.3 1.3 0 1 1 32 32a1.3 1.3 0 0 1-.5-2.5m50-5.6a1.3 1.3 0 1 1 .2 2.5 1.3 1.3 0 0 1-.2-2.5M45 26.8a1.3 1.3 0 1 1 1 2.4 1.3 1.3 0 0 1-1-2.4m69.3 2.7a1.3 1.3 0 1 1 1 2.4 1.3 1.3 0 0 1-1-2.4m27.5 38.2A1.3 1.3 0 1 1 143 70a1.3 1.3 0 0 1-1.2-2.3m-27.4-49.5a1.3 1.3 0 1 1 .8 2.5 1.3 1.3 0 0 1-.8-2.5m11 16.9a1.3 1.3 0 1 1 1 2.4 1.3 1.3 0 0 1-1-2.4m5.6 43.4a1.3 1.3 0 1 1 .8 2.4 1.3 1.3 0 0 1-.8-2.4M70 18.4a1.3 1.3 0 1 1 .7 2.4 1.3 1.3 0 0 1-.8-2.4m47.3 13.8a1.3 1.3 0 1 1 .8 2.5 1.3 1.3 0 0 1-.8-2.5m8.1 8.5a1.3 1.3 0 1 1 1 2.4 1.3 1.3 0 0 1-1-2.4m16.6 0A1.3 1.3 0 1 1 143 43a1.3 1.3 0 0 1-1.2-2.3m-35.7-8.5a1.3 1.3 0 1 1 .6 2.6 1.3 1.3 0 0 1-.6-2.6m24.8 35.5a1.3 1.3 0 1 1 1 2.3 1.3 1.3 0 0 1-1-2.3m19.4 30.1a1.3 1.3 0 1 1 .7 2.5 1.3 1.3 0 0 1-.7-2.5m-3-30.1a1.3 1.3 0 1 1 1.1 2.3 1.3 1.3 0 0 1-1-2.3M28.7 21a1.3 1.3 0 1 1 .4 2.6 1.3 1.3 0 0 1-.4-2.6m55-11a1.3 1.3 0 1 1 1.2 2.3 1.3 1.3 0 0 1-1.2-2.2m61.1 87.6a1.3 1.3 0 0 1 1.6 1.6 1.3 1.3 0 1 1-1.6-1.6m0-32.8a1.3 1.3 0 1 1 .7 2.4 1.3 1.3 0 0 1-.7-2.4M42 35.3a1.3 1.3 0 1 1 1.4 2.2 1.3 1.3 0 0 1-1.3-2.2M56 32.4a1.3 1.3 0 1 1 1.1 2.3 1.3 1.3 0 0 1-1-2.3m5.7-.2a1.3 1.3 0 1 1 .6 2.5 1.3 1.3 0 0 1-.6-2.5m5.2-11a1.3 1.3 0 1 1 1.1 2.2 1.3 1.3 0 0 1-1.1-2.2m19.7 8.3a1.3 1.3 0 1 1 1 2.3 1.3 1.3 0 0 1-1-2.3M133.8 92c1.8 0 2.5 1.3 1 2.6q-1.5.2-1.7-1.3c0-.7.3-.8.7-1.3m-33.3-65.5c2.2 0 2 1.6.7 2.8q-2.7-.9-.7-2.8m-24.8-8.3a1.3 1.3 0 1 1 .6 2.5 1.3 1.3 0 0 1-.6-2.5m-8.5 19.6a1.3 1.3 0 1 1 .8 2.5 1.3 1.3 0 0 1-.8-2.5m69.4-2.8a1.3 1.3 0 1 1 .7 2.5 1.3 1.3 0 0 1-.7-2.4M36.7 24a1.3 1.3 0 1 1 1.2 2.3 1.3 1.3 0 0 1-1.2-2.3M59 35a1.3 1.3 0 1 1 .7 2.5 1.3 1.3 0 0 1-.6-2.4m85.7 51.7a1.3 1.3 0 1 1 .7 2.4 1.3 1.3 0 0 1-.7-2.4m-61-65.6a1.3 1.3 0 1 1 1 2.3 1.3 1.3 0 0 1-1-2.3m61 71.1a1.3 1.3 0 1 1 .6 2.4 1.3 1.3 0 0 1-.6-2.4M59.2 12.8a1.3 1.3 0 1 1 .5 2.5 1.3 1.3 0 0 1-.5-2.5m49.8 11a1.3 1.3 0 1 1 .5 2.5 1.3 1.3 0 0 1-.5-2.5m-41.9-8.2a1.3 1.3 0 1 1 1 2.3 1.3 1.3 0 0 1-1-2.3m-2.7 8.3a1.3 1.3 0 1 1 .9 2.4 1.3 1.3 0 0 1-.9-2.4M56 10.3a1.3 1.3 0 1 1 1.2 2.2 1.3 1.3 0 0 1-1.2-2.2m75.2 30.4a1.3 1.3 0 1 1 .5 2.5 1.3 1.3 0 0 1-.5-2.5M64.5 18.3a1.3 1.3 0 1 1 .6 2.4 1.3 1.3 0 0 1-.6-2.4m-2.8 19.5a1.3 1.3 0 1 1 .8 2.4 1.3 1.3 0 0 1-.8-2.4m33-11a1.3 1.3 0 1 1 1.4 2.1 1.3 1.3 0 0 1-1.4-2.1M67 10a1.3 1.3 0 1 1 1 2.4 1.3 1.3 0 0 1-1-2.3m83.5 76.7a1.3 1.3 0 1 1 .5 2.5 1.3 1.3 0 0 1-.5-2.5M86.8 23.9a1.3 1.3 0 1 1 .8 2.4 1.3 1.3 0 0 1-.8-2.4m-36.2 2.9a1.3 1.3 0 1 1 1 2.3 1.3 1.3 0 0 1-1-2.3m75 2.7a1.3 1.3 0 1 1 .6 2.4 1.3 1.3 0 0 1-.6-2.4M48 23.9a1.3 1.3 0 1 1 .6 2.5 1.3 1.3 0 0 1-.6-2.5M142.3 95a1.3 1.3 0 1 1 .3 2.5 1.3 1.3 0 0 1-.3-2.5m-25.2-68.2a1.3 1.3 0 1 1 1 2.3 1.3 1.3 0 0 1-1-2.3m2.9-8.5a1.3 1.3 0 1 1 .7 2.4 1.3 1.3 0 0 1-.7-2.4m5.6 5.6a1.3 1.3 0 1 1 .7 2.4 1.3 1.3 0 0 1-.7-2.4m13.6 57.5a1.3 1.3 0 1 1 1 2.3 1.3 1.3 0 0 1-1-2.3M69.9 29.6a1.3 1.3 0 1 1 1 2.3 1.3 1.3 0 0 1-1-2.3m25.1-14a1.3 1.3 0 1 1 .8 2.3 1.3 1.3 0 0 1-.9-2.3M72.7 32.3a1.3 1.3 0 1 1 1 2.4 1.3 1.3 0 0 1-1-2.4M67 26.8a1.3 1.3 0 1 1 1.2 2.2 1.3 1.3 0 0 1-1.2-2.2m47.5-14.1a1.3 1.3 0 1 1 .5 2.4 1.3 1.3 0 0 1-.5-2.4m5.3 22.4a1.3 1.3 0 1 1 1 2.4 1.3 1.3 0 0 1-1-2.4M106 37.8a1.3 1.3 0 1 1 .9 2.4 1.3 1.3 0 0 1-1-2.4M153 78.6a1.3 1.3 0 1 1 .9 2.4 1.3 1.3 0 0 1-1-2.4M133.8 65a1.3 1.3 0 1 1 .7 2.4 1.3 1.3 0 0 1-.7-2.4m5.3-5.3a1.3 1.3 0 1 1 1 2.3 1.3 1.3 0 0 1-1-2.3M69.8 24a1.3 1.3 0 1 1 1.1 2.3 1.3 1.3 0 0 1-1.1-2.3m63.9 30.2a1.3 1.3 0 1 1 .8 2.4 1.3 1.3 0 0 1-.8-2.4m-.2 21.8a1.3 1.3 0 1 1 1.3 2.1 1.3 1.3 0 0 1-1.3-2.2M70.2 35a1.3 1.3 0 1 1 .4 2.5 1.3 1.3 0 0 1-.4-2.5m49.7-11a1.3 1.3 0 1 1 1 2.4 1.3 1.3 0 0 1-1-2.4m-80.3-2.8a1.3 1.3 0 1 1 .8 2.4 1.3 1.3 0 0 1-.8-2.4M75.4 24a1.3 1.3 0 1 1 1.1 2.3 1.3 1.3 0 0 1-1-2.3m52.8 8.3a1.3 1.3 0 1 1 .8 2.4 1.3 1.3 0 0 1-.8-2.4M103.1 35a1.3 1.3 0 1 1 1.1 2.4 1.3 1.3 0 0 1-1-2.3m-49.8-5.6a1.3 1.3 0 1 1 1 2.3 1.3 1.3 0 0 1-1-2.3m60.6 5.8a1.3 1.3 0 1 1 1.4 2 1.3 1.3 0 0 1-1.4-2m36.2 57a1.3 1.3 0 1 1 .9 2.3 1.3 1.3 0 0 1-.9-2.3M45.3 37.8a1.3 1.3 0 1 1 .6 2.4 1.3 1.3 0 0 1-.6-2.4m96.5 24.4a1.3 1.3 0 1 1 1.1 2.3 1.3 1.3 0 0 1-1.1-2.3M97.6 29.5a1.3 1.3 0 1 1 1.1 2.3 1.3 1.3 0 0 1-1.1-2.3m49.9 32.7a1.3 1.3 0 1 1 .7 2.4 1.3 1.3 0 0 1-.7-2.4M64.7 29.5A1.3 1.3 0 1 1 65 32a1.3 1.3 0 0 1-.3-2.5m-.3 5.6a1.3 1.3 0 1 1 .9 2.4 1.3 1.3 0 0 1-.9-2.4m64.1 29.8c1.8.2 2 1.4.7 2.6q-1.6.2-1.6-1.5 0-.8.9-1.1m-5.7-16a1.3 1.3 0 1 1 .5 2.4 1.3 1.3 0 0 1-.5-2.4m.1-22.1a1.3 1.3 0 1 1 .3 2.4 1.3 1.3 0 0 1-.3-2.4m-55.8 5.6a1.3 1.3 0 1 1 .9 2.4 1.3 1.3 0 0 1-.9-2.4m-38.7-5.6a1.3 1.3 0 1 1 1 2.2 1.3 1.3 0 0 1-1-2.2m102.9 35.4a1.3 1.3 0 1 1 .3 2.5 1.3 1.3 0 0 1-.3-2.5M92.4 29.3a1.3 1.3 0 1 1 .7 2.4 1.3 1.3 0 0 1-.7-2.4M61.9 15.5a1.2 1.2 0 1 1 .4 2.5 1.2 1.2 0 0 1-.4-2.5M139.4 65a1.3 1.3 0 1 1 .5 2.4 1.3 1.3 0 0 1-.5-2.4M97.7 23.9a1.2 1.2 0 1 1 1 2.3 1.2 1.2 0 0 1-1-2.3M70 40.7a1.2 1.2 0 1 1 .6 2.4 1.2 1.2 0 0 1-.6-2.4m2.6-2.7a1.2 1.2 0 1 1 1.2 2.1 1.2 1.2 0 0 1-1.2-2.2M62 10a1.2 1.2 0 1 1 .3 2.6A1.2 1.2 0 0 1 62 10m8 2.8a1.2 1.2 0 1 1 .7 2.4 1.2 1.2 0 0 1-.6-2.4m13.7 19.5a1.2 1.2 0 1 1 1 2.4 1.2 1.2 0 0 1-1-2.4m63.6 51.9a1.2 1.2 0 1 1 1 2.3 1.2 1.2 0 0 1-1-2.3M111.3 38a1.2 1.2 0 1 1 1.4 2 1.2 1.2 0 0 1-1.4-2M64.4 12.8a1.2 1.2 0 1 1 .8 2.4 1.2 1.2 0 0 1-.8-2.4m-30.1 8.4a1.2 1.2 0 1 1 .3 2.4 1.2 1.2 0 0 1-.3-2.4m4.5 155.4.3.2c-.1 1.2-.4 2.3-1.9 2.3-.6-.5-.8-.7-.7-1.5.8-1 1.2-.8 2.3-1M89.3 26.8a1.2 1.2 0 1 1 1.3 2.1 1.2 1.2 0 0 1-1.3-2.1m27.9 11a1.2 1.2 0 1 1 .7 2.4 1.2 1.2 0 0 1-.7-2.4m-44.3 5.6a1.2 1.2 0 1 1 .7 2.4 1.2 1.2 0 0 1-.7-2.4m63.8 56.7c1.5.1 2.3 1.5 1 2.7-1.7.3-2.2-1.4-1-2.7M84.3 43.4a1.2 1.2 0 1 1 0 2.5 1.2 1.2 0 0 1 0-2.5m65.9 32.5a1.2 1.2 0 1 1 .9 2.3 1.2 1.2 0 0 1-.9-2.3M34 26.8a1.2 1.2 0 1 1 1 2.2 1.2 1.2 0 0 1-1-2.2m116.1 43.6a1.2 1.2 0 1 1 1 2.3 1.2 1.2 0 0 1-1-2.3M50.5 10.2a1.2 1.2 0 1 1 1.3 2.2 1.2 1.2 0 0 1-1.3-2.2m41.7 13.6a1.2 1.2 0 1 1 1 2.3 1.2 1.2 0 0 1-1-2.3m-19.3-8.3a1.2 1.2 0 1 1 .6 2.4 1.2 1.2 0 0 1-.6-2.4M95 32.3a1.2 1.2 0 1 1 .8 2.3 1.2 1.2 0 0 1-.8-2.3m33.1 11.3a1.2 1.2 0 1 1 1 2.2 1.2 1.2 0 0 1-1-2.2m22.1 16a1.2 1.2 0 1 1 .8 2.3 1.2 1.2 0 0 1-.8-2.3m-36-35.6a1.2 1.2 0 1 1 1.1 2.2 1.2 1.2 0 0 1-1-2.2M92.1 35.1a1.2 1.2 0 1 1 1.1 2.2 1.2 1.2 0 0 1-1-2.2M31.2 24a1.2 1.2 0 1 1 1.1 2.2 1.2 1.2 0 0 1-1.1-2.2m8.4 8.4a1.2 1.2 0 1 1 .8 2.3 1.2 1.2 0 0 1-.8-2.3m29.9 158.8c.7 0 .8 0 1.4.2.8 1 .1 1.4-.6 2.1q-2.7-.2-.8-2.3m9 2.5a1.2 1.2 0 1 1 .4 2.5 1.2 1.2 0 0 1-.4-2.5M145 59.3q2.5 1 .3 2.8c-2-.7-1.7-1.7-.3-2.8m-16.5-32.5a1.2 1.2 0 1 1 .5 2.4 1.2 1.2 0 0 1-.5-2.4m5.2 16.8a1.2 1.2 0 1 1 1 2.3 1.2 1.2 0 0 1-1-2.3m2.9 35a1.2 1.2 0 1 1 .6 2.4 1.2 1.2 0 0 1-.6-2.4M117 21.3a1.2 1.2 0 1 1 1.1 2.2 1.2 1.2 0 0 1-1-2.2m-5.7 0a1.2 1.2 0 1 1 1.2 2.1 1.2 1.2 0 0 1-1.2-2m41.7 51.8a1.2 1.2 0 1 1 .7 2.3 1.2 1.2 0 0 1-.7-2.3m-8.4 2.8a1.2 1.2 0 1 1 .8 2.2 1.2 1.2 0 0 1-.8-2.3m-7.8 13.6a1.2 1.2 0 1 1 0 2.5 1.2 1.2 0 0 1 0-2.5m-28.4-54.2a1.2 1.2 0 1 1 1.3 2 1.2 1.2 0 0 1-1.3-2m22.8 21.6a1.2 1.2 0 1 1 .2 2.4 1.2 1.2 0 0 1-.2-2.4m16.1 0a1.2 1.2 0 1 1 1 2.2 1.2 1.2 0 0 1-1-2.2m-5.1 27.3a1.2 1.2 0 1 1 .3 2.4 1.2 1.2 0 0 1-.3-2.4m-33.6-43.5a1.2 1.2 0 1 1 1 2.3 1.2 1.2 0 0 1-1-2.3m28 10.9a1.2 1.2 0 1 1 .6 2.3 1.2 1.2 0 0 1-.6-2.3m7.9 18.9a1.2 1.2 0 1 1 1 2.2 1.2 1.2 0 0 1-1-2.2M139 49.2a1.2 1.2 0 1 1 1.3 2 1.2 1.2 0 0 1-1.3-2M95 21.1a1.2 1.2 0 1 1 .6 2.4 1.2 1.2 0 0 1-.5-2.4M69.6 196.7c.7.1.8.1 1.2.6q.2 1.5-1.2 2c-1.5-.5-1.3-2 0-2.6M122.5 38a1.2 1.2 0 1 1 1 2.1 1.2 1.2 0 0 1-1-2.1m-11-11.2a1.2 1.2 0 1 1 1 2.1 1.2 1.2 0 0 1-1-2.1M34 32.4a1.2 1.2 0 1 1 1 2.2 1.2 1.2 0 0 1-1-2.2m102.5 35.3a1.2 1.2 0 1 1 .8 2.3 1.2 1.2 0 0 1-.8-2.3m-2.7-8a1.2 1.2 0 1 1 .6 2.3 1.2 1.2 0 0 1-.6-2.3m-58.1-19a1.2 1.2 0 1 1 .4 2.4 1.2 1.2 0 0 1-.4-2.4m47-8.3a1.2 1.2 0 1 1 .7 2.3 1.2 1.2 0 0 1-.7-2.3m19.6 46.2a1.2 1.2 0 1 1 .2 2.4 1.2 1.2 0 0 1-.2-2.4M75.3 13a1.2 1.2 0 1 1 1.3 2 1.2 1.2 0 0 1-1.3-2m63.8 41.4a1.2 1.2 0 1 1 1 2 1.2 1.2 0 0 1-1-2m-2.7 7.9a1.2 1.2 0 1 1 1 2.2 1.2 1.2 0 0 1-1-2.2m.4-21.6a1.2 1.2 0 1 1 .4 2.3 1.2 1.2 0 0 1-.4-2.3m2.4 35.3a1.2 1.2 0 1 1 .9 2.1 1.2 1.2 0 0 1-.9-2.2m8.5 13.7a1.2 1.2 0 1 1 .5 2.3 1.2 1.2 0 0 1-.5-2.3m0-16.4a1.2 1.2 0 1 1 .4 2.3 1.2 1.2 0 0 1-.4-2.3M75.1 196.9a1.2 1.2 0 0 1 1.6 1.3 1.2 1.2 0 1 1-1.6-1.3M47.8 40.7a1.2 1.2 0 1 1 1 2.1 1.2 1.2 0 0 1-1-2m97.1 40.7a1.2 1.2 0 1 1 .6 2.3 1.2 1.2 0 0 1-.6-2.3M58 190.4c1.5.4 2.2 1 1 2.4-2.1.4-1.8-1-1-2.4M147.4 79a1.2 1.2 0 1 1 1 2 1.2 1.2 0 0 1-1-2M81.2 196.6a1.2 1.2 0 1 1 .7 2.3 1.2 1.2 0 0 1-.7-2.3M72.8 10a1.2 1.2 0 1 1 .6 2.3 1.2 1.2 0 0 1-.6-2.2m74.9 85a1.2 1.2 0 1 1 .5 2.3 1.2 1.2 0 0 1-.5-2.3m-8.4-24.6a1.2 1.2 0 1 1 .6 2.2 1.2 1.2 0 0 1-.6-2.2M36.6 35.3a1.2 1.2 0 1 1 1.3 2 1.2 1.2 0 0 1-1.3-2m105.3 38a1.2 1.2 0 1 1 1 2 1.2 1.2 0 0 1-1-2m-7.9-2.9a1.2 1.2 0 1 1 .2 2.3 1.2 1.2 0 0 1-.2-2.3M96.2 193.7a1.2 1.2 0 1 1 .1 2.3 1.2 1.2 0 0 1-.1-2.3M78.4 43.6a1.2 1.2 0 1 1 .9 2.1 1.2 1.2 0 0 1-1-2.1m-5.9 150.2c2.1 0 1.8 1.2.6 2.3q-.6 0-1-.2c-.7-1-.3-1.4.4-2m-8.8-3.4c1.5.5 2.2 1.5.9 2.8q-2.4-.8-1-2.8m1.1-149.7a1.1 1.1 0 1 1 .5 2.2 1.1 1.1 0 0 1-.5-2.2M87 196.6a1.1 1.1 0 0 1 1.4 1.3 1.1 1.1 0 1 1-1.4-1.3M39.6 38a1.1 1.1 0 1 1 .9 2.1 1.1 1.1 0 0 1-1-2m97 18.9a1.1 1.1 0 1 1 1 2.1 1.1 1.1 0 0 1-1-2m.2 16.1a1.1 1.1 0 1 1 .3 2.2 1.1 1.1 0 0 1-.3-2.2M84.3 193.6a1 1 0 1 1 .3 2.1 1 1 0 0 1-.3-2.1M78 38.2a1 1 0 1 1 1.1 1.8 1 1 0 0 1-1-1.8M90 193.7a1 1 0 1 1 .8 2 1 1 0 0 1-.8-2m-9-2.7c.9 0 1.6 0 1.8.9q-.1.7-.8 1.2-1 0-1.4-1c0-.6 0-.4.5-1m27.5-3.7 1 .1q1 1-.1 2.1-2.6-.2-.9-2.2M34.8 174c1.3.6 1 1.7-.1 2.4q-.6 0-1-.5c-.5-1 .2-1.4 1.1-1.8m26.1 19.8a1 1 0 1 1 .8 2 1 1 0 0 1-.8-2m67.3-123.6c1.5 0 2.4.6 1.4 2.2l-.6.2-.3-.2q-.5-1-.5-2.2M44.5 185.1a1 1 0 1 1 .9 1.9 1 1 0 0 1-.9-1.9M86.7 46.2q1.3 0 1.6 1.1c-.1.5 0 .3-.5.7-.8 0-1.6.2-1.8-.7q.1-.7.7-1.1M107 184.9l.4.3c.3 1-.6 1.4-1.3 1.7-.5-.3-.5-.3-.8-.7-.2-1 .8-1.1 1.6-1.3M131.3 84q2.3.5.8 2.3h-.6c-.7-.5-.7-1.6-.2-2.4M52.5 191a1 1 0 1 1 .3 2 1 1 0 0 1-.3-2m60.2-7c1 1.4 0 2-1.1 2.4-.6-.5-.6-.5-.5-1.2q.7-.7 1.6-1.1m-12.8 6.6q.4 0 .8.5c.3 1-.5 1.3-1.3 1.7q-.7-.3-.7-.8.4-.8 1.2-1.4M66.7 194a1 1 0 1 1 .8 1.7 1 1 0 0 1-.8-1.8M42 182.4a1 1 0 1 1 .8 1.7 1 1 0 0 1-.8-1.7m52.3 9.6.1.3q-.5 1.4-1.9 1-.5-.5-.3-1.1c.4-.3 1.6-.2 2.1-.3m-33.8-3.3q.7 0 1.2.6c.1.5.1.3-.2 1q-1.5-.2-1-1.6M129 75.9c.5.1.5.2.9.5q.2.6 0 1.4c-.6 0-.6-1.2-.8-2m2.7 13.6q1.3.5 1 1.8h-.4z"/><path fill="#beb5a8" d="M9.9 112h.8c.6.4.7 4.4.8 5.4a475 475 0 0 0 2.6 20.4l1.3 8-3.2-2.8C6 137.2-.3 116 10 112m3.3-79.4c.7.1 2.3.9 3 1.2 1.3 2 2.1.3 3.4 1.4-.4 1.1-.8 2 1 2.3q.5 0 .8-.5c.3-.7.2-.8.1-1.6l3.2.3.1 1.2c1.8 1.8 1.8.3 2.7-.7.5.1 4.4 3.1 5.2 3.6s2.6 1.3 3 1.7c.2.3.3 1 .6 1.2 1.6.9 1.2-.6 2.9 1l-2.4.4c-.6.2-.4.2-1 .1q-.3-.5-.9-1c-2.2-.3-1.3 1.3-2.3 1.7a13 13 0 0 1-7.8 0c-1.5-2.8-2.5-.3-3.6-2q.4-.7.3-1.5-.3-.4-.9-.6c-1 0-.8.7-1.7.6-.4-.4-.5-.4-.9-1 .5-.6 1.1-1.2.8-2-1.1-.8-1.6-.4-2.4.4q-.6-.5-.8-1.2.7-1.3-.2-2.2l-.6-.1c-1.4-.3-1.4-1.5-1.6-2.7"/><path fill="#000" d="M28.7 37.8a1.3 1.3 0 1 1 .4 2.5 1.3 1.3 0 0 1-.4-2.5m-5.4 0a1.2 1.2 0 1 1 0 2.5 1.2 1.2 0 0 1 0-2.5m8 2.9A1.2 1.2 0 1 1 32 43a1.2 1.2 0 0 1-.8-2.3m-5.2 0a1.1 1.1 0 1 1 .4 2.3 1.1 1.1 0 0 1-.5-2.3m2.8 2.6q1.2.2 1.3 1.2c-.4.6-.2.4-.9.8-.7-.2-1-.1-1.3-1q.2-.6.9-1"/></svg>