<svg xmlns="http://www.w3.org/2000/svg" width="196" height="207" fill="none" viewBox="0 0 196 207"><path fill="#beb5a8" d="M17.526 41.349c1.815 2.342 4.207 3.584 6.84 4.76-2.107 1.963-4.288 3.91-6.075 6.173-4.377 5.545-7.8 14.528-5.402 21.513.863 2.745 3.144 5.726 2.603 8.712C14.106 90.152 5.33 88.658 0 87.934c1.126 2.637 3.54 6.135 5.553 8.19 5.106 5.213 10.823 5.64 17.544 5.754.738 1.794.95 2.887 1.308 4.735l.01.055c-6.599 7.27-7.916 14.54-5.817 24.204 1.222 5.622 4.613 11.307 9.474 14.494 1.047.687 2.837 2.081 3.545 3.218 1.84 4.353 2.581 9.005 4.385 13.491 7.002 17.414 17.752 29.438 33.648 39.052 8.362 2.907 28.85 7.41 43.907 2.172 15.059-5.238 28.098-16.913 32.736-22.097.424 1.467 1.272 4.521 1.266 5 1.309.368 5.006 1.06 6.316.6.836-.297-.739-3.053-.983-4.216-.587-2.807.354-5.178 1.144-7.854.338 1.28.771 2.492 1.533 3.581a10.27 10.27 0 0 0 6.849 4.294c3.499.567 6.175-.606 8.933-2.602a41 41 0 0 1-1.53-.335c-1.332-.323-2.946-1.31-3.568-2.529-2.767-5.426 5.577-12.614 8.098-17.276 2.013-3.723 2.492-4.734 3.508-8.662 1.052-1.04 3.648-2.858 5.029-4.047 5.559-4.788 9.907-11.055 11.642-18.237 1.115-4.026.914-14.195-2.341-17.19-6.813-6.269-4.943-6.168-.769-14.314a25.6 25.6 0 0 0 1.827-4.645c2.47-8.685-.325-21.665-5.917-28.665-4.573-5.728-5.479-4.387-7.378-12.266-2.125-8.826-8.986-17.176-18.082-19.622q-.055-.189-.114-.376c-2.664-8.208-11.423-17.152-19.24-20.835-4.129-1.945-12.492-5.336-17.281-4.318-.6.127-.887.806-1.144 1.33-.045.776.069.495-.362 1.12a27 27 0 0 0-1.472-1.35c-3.173-2.66-8.31-4.924-12.457-5.877-26.171-6.017-56.584 2.356-74.626 22.592-2.106 2.361-3.798 4.698-5.784 7.064a13.8 13.8 0 0 1-4.306 3.468c-5.655 2.96-7.494-1.606-10.39-1.352-.817 2.605 1.304 5.694 2.832 7.666"/><path fill="#000" d="M35.174 24.502C53.216 4.267 83.629-4.106 109.8 1.911c4.147.953 9.284 3.217 12.457 5.877q.76.648 1.472 1.35l.116.127c1.259 1.415 2.891 3.804 2.781 5.778-1.351 1.999-3.99-1.918-4.964-2.615-14.949-10.691-37.665-8.34-54.26-3.231-9.646 2.969-18.546 8.466-25.675 15.57-2.603 2.579-5.02 4.755-6.932 7.911 4.228-.907 13.863-4.317 17.385-3.641l.1.32c-2.13 3.398-21.381 9.127-25.578 10.004-.777.162-2.573.342-3.096.936 1.12 2.13 9.231 1.344 9.806 4.301-.34 1.087-1.987 2.261-2.914 2.912-7.156 5.023-14.243 14.372-13.418 23.495.042.469.18.507.51.712.86-.19 3.17-2.993 4.821-3.912 2.296-1.278 2.408-1.306 4.89-1.924l.151-.038c-1.192 1.809-2.47 3.482-3.663 5.363-3.141 4.954-3.34 9.065-4.198 14.646 4.709-2.032 7.354-6.269 11.646-9.299-.248 2.742-1.11 4.639-2.77 6.861-4.825 6.463-10.081 9.365-17.837 10.621 5.68 3.31 9.702 3.223 15.731.204 5.751-2.88 13.53-11.177 14.76-17.714.55-2.928-1.188-7.433.47-10.674 2.587-6.67 6.293-10.264 12.499-13.365-2.335 5.11-6.752 10.32-8.068 15.92-.224.95-.3 2.922-.352 3.965 2.901-4.384 3.772-6.957 7.864-11.07 7.197-7.234 17.61-10.684 27.69-10.633a41.06 41.06 0 0 1 18.203 4.309c1.15.57 3.587 1.563 3.434 3.022-.857.764-3.557.23-4.8.177a92 92 0 0 0-9.17-.02c-12.419.667-29.07 3.864-37.29 14.398-1.936 2.48-2.229 5.24-2.74 8.25-1.105-.284-1.633-.515-2.669-.968l-.045-.02c-2.44 4.778-4.663 8.203-8.492 12.04-1.848 1.854-3.702 3.45-5.5 5.379-.387 3.573-.286 8.486-.192 12.122a178.4 178.4 0 0 0 7.875 48.596c5.15 16.349 17.102 30.972 32.268 38.855 16.174 8.409 36.106 5.313 51.677-2.922 12.422-6.318 21.345-16.449 28.491-28.218l.336-.552c1.974-3.25 3.784-6.229 5.637-9.62 1.134-2.076 4.835-12.871 7.513-11.264 1.021 1.6.505 4.55.325 6.455 5.105-.975 10.711-4.12 14.418-7.71 4.906-4.748 9.469-12.293 9.643-19.226.178-3.636-.383-7.313-2.994-10.051-1.677-1.762-3.824-2.391-6.236-1.979-2.811.481-5.16 2.683-7.86 3.524-.561.175-2.036.108-2.648.093-.53-.623-1.344-1.683-1.53-2.466-.762-3.215-8.888-7.656-8.348-10.864 1.625-.727 13.11 8.694 15.257 5.554-2.001-4.229-14.496-1.07-14.352-15.984-16.149-8.193-12.323-21.9-18.678-36.285-.574-1.299-2.034-3.247-1.694-4.586 4.885-2.717 10.717 20.117 11.781 23.159a35 35 0 0 0 2.639 5.766c3.699 6.407 10.49 8.54 17.206 9.563.706.107 1.402.8 1.155 1.573-2.026 1.734-9.817-.618-7.759 4.468 3.206 7.915 11.167 2.878 14.578 11.18.667.457 2.287.47 2.469-.163 2.445-8.566-.912-15.907-6.074-22.61-.854-1.107-2.067-2.923-2.282-4.076l.288-.285c1.414-.278 2.642.233 3.845.917 5.058 2.871 7.693 7.657 9.258 13.038.55-1.519.909-3.1 1.066-4.708.841-8.167-1.991-17.054-7.368-23.333-1.223-1.53-4.115-3.59-4.817-5.423-2.216-5.788-2.19-11.067-6.399-16.176a19.88 19.88 0 0 0-13.247-7.172c-.131-2.6-1.293-5.05-2.539-7.384-5.111-9.575-14.933-14.997-24.614-18.972-2.145-.881-5.03.18-6.158-2.052.257-.524.545-1.203 1.144-1.33 4.79-1.018 13.152 2.374 17.282 4.32 7.817 3.682 16.575 12.626 19.239 20.834q.06.188.114.375c9.096 2.447 15.957 10.797 18.083 19.623 1.899 7.879 2.805 6.538 7.377 12.265 5.592 7 8.386 19.98 5.917 28.665a25.6 25.6 0 0 1-1.827 4.645c-4.174 8.147-6.043 8.046.769 14.315 3.256 2.995 3.456 13.163 2.341 17.189-1.735 7.182-6.083 13.449-11.641 18.238-1.381 1.188-3.978 3.007-5.03 4.047-1.016 3.928-1.495 4.939-3.508 8.662-2.521 4.662-10.864 11.85-8.098 17.276.622 1.219 2.236 2.206 3.568 2.529q.761.182 1.531.335c-2.758 1.996-5.435 3.168-8.933 2.602a10.27 10.27 0 0 1-6.85-4.294c-.761-1.089-1.195-2.302-1.533-3.582-.79 2.676-1.73 5.047-1.143 7.854.243 1.163 1.819 3.919.982 4.216-1.309.46-5.007-.231-6.316-.599-.115-4.839-3.62-1.617-5.358.599q-.677.738-1.446 1.499c-2.74 2.166-5.159 4.517-8.1 6.677-6.22 4.334-14.101 8.34-22.752 10.453q-3.768.901-7.638 1.315a50 50 0 0 1-3.847.236c-15.058.327-25.453-3.766-28.768-5.854-15.896-9.614-26.646-21.639-33.648-39.052-1.804-4.486-2.546-9.138-4.385-13.491-.707-1.137-2.497-2.532-3.545-3.218-4.86-3.188-8.252-8.873-9.473-14.494-2.1-9.664-.783-16.935 5.817-24.205l-.01-.054c-.36-1.848-.571-2.942-1.308-4.735-6.722-.114-12.438-.542-17.544-5.755C3.54 94.068 1.126 90.571 0 87.934c5.33.724 14.107 2.218 15.492-5.427.541-2.986-1.74-5.967-2.602-8.712-2.398-6.985 1.024-15.969 5.401-21.513 1.787-2.264 3.968-4.21 6.075-6.173-2.633-1.176-5.024-2.418-6.84-4.76-1.528-1.971-3.65-5.062-2.833-7.666 2.897-.254 4.736 4.311 10.391 1.352a13.8 13.8 0 0 0 4.307-3.468c1.985-2.366 3.677-4.703 5.783-7.065"/><path fill="#beb5a8" d="M26.349 111.536c.245.023.491.099.733.159.77 1.227 1.104 13.475 1.46 16.062.56 4.084 1.283 9.395 1.34 13.523-.796-.623-1.33-1.215-2.025-1.944-4.948-6.52-8.745-21.778-1.508-27.8M170.945 154.219l.432.121c.049.153.12.343.079.455-1.847 4.911-7.39 9.674-9.47 14.486a15.2 15.2 0 0 0-1.109 4.044c-.09.698-.07 2.321-.456 2.715l-.42-.27c-3.541-4.817-.661-12.154 1.927-16.802 2.153-3.867 4.976-3.631 9.017-4.749"/><path fill="#000" d="M118.999 109.465c5.73-.906 20.759 3.055 21.928 9.195-.214.738-.003.454-.672.868-2.344.273-6.248-1.843-8.323-3.024.342 3.783-.362 8.59-4.523 10.02-1.574.54-2.802.349-4.435.211l-1.678-1.115c-3.632-2.977-3.652-7.754-1.738-11.729-4.587-.07-8.395.512-12.127 3.359-1.221.931-3.449 2.822-4.882 1.7-1.144-.896-1.193-2.17-.228-3.191 4.118-4.361 10.95-5.639 16.678-6.294M53.913 110.464c1.47-.126 3.735-.078 5.197-.034 3.822.116 13.908 3.508 14.576 8.023-.575 2.042-3.257.924-4.712.523.05 3.131-.42 5.758-3.034 7.803-3.316 2.595-6.714.757-8.851-2.229-1.929-3.693-1.53-5.765.037-9.483-4.753.068-8.035.579-11.9 3.545-1.343 1.03-3.475 2.702-5.15 1.793-.701-1-.282-1.666.333-2.554 2.957-4.267 8.53-6.59 13.504-7.387M87.768 40.93c8.06-1.057 21.737 1.798 28.54 6.686 1.54 1.107 6.828 5.447 4.918 7.654-1.577.74-4.451-.844-6.186-1.158a19 19 0 0 0-2.522-.3c-4.701-.851-6.642-2.535-10.74-4.548-5.258-2.583-11.281-4.014-17.046-4.867-1.73-.256-6.82-.166-8.084-.895l.058-.35c1.754-1.393 8.597-1.948 11.062-2.222M115.864 92.898c6.44-.447 12.947.026 18.896 2.73 1.463.664 8.355 4.259 7.452 6.174-1.846.283-7.881-1.606-10.138-2.059-2.2-.43-4.428-.701-6.667-.813-4.59-.531-9.682.048-14.219.82-2.637.448-10.26 3.211-12.426 1.762-.424-.655-.508-.761-.645-1.523.062-.352.188-.863.45-1.095 4.189-3.707 12.118-5.53 17.297-5.996M53.256 94.135c4.658-.11 10.25 1.4 14.27 3.648 1.578.882 4.446 2.52 4.997 4.364-.463 2.037-4.53 1.018-5.982.647-4.144-1.058-8.114-1.862-12.384-2.173-4.08-.089-6.707.332-10.687 1.117-2.183.431-6.486 2.483-8.067 2.036-.927-.831.13-1.938.817-2.662 4.356-4.585 10.831-6.708 17.036-6.977M81.787 117.809c.295.069 1.135.329 1.28.564 2.035 3.298-1.38 12.969-2.191 16.57-.677 3.01-2.146 5.596-2.263 8.613-.032.842 1.077 1.676 1.274 1.921 2.39 2.96 7.478 1.769 9.057 3.055.566 1.711-1.456 2.768-2.772 3.325-2.275.317-3.83.308-6.015-.492-3.738-1.264-7.24-4.77-6.397-9.053 1.281-6.505 4.26-12.893 5.44-19.475.231-1.285.373-3.133.816-4.314.539-.492 1.05-.536 1.771-.714M97.983 30.076c1.486-.156 4.251.02 5.73.207a37.9 37.9 0 0 1 24.866 14.29c1.718 2.233 4.244 6.315 3.754 9.308-.194 1.186-.697 1.467-1.6 2.13-.413-.091-.821-.244-1.051-.614-1.303-2.092-2.311-4.278-3.792-6.285a46.4 46.4 0 0 0-8.849-9.039c-3.702-2.867-6.39-4.103-10.729-5.726-2.49-.932-7.822-.398-9.616-2.328-.257-.789-.239-.455-.075-1.265.364-.49.758-.513 1.362-.678M108.149 160.118c1.709.171 3.129 1.583 1.913 3.127-3.04 3.862-9.231 6.126-13.854 7.547-5.754 1.768-12.662 1.664-17.985-1.253-1.111-.687-2.15-1.345-2.215-2.742 1.228-1.846 6.095.391 8.205.861a21.6 21.6 0 0 0 4.767.489c5.12-.024 9.963-2.006 14.203-4.799 1.456-.959 3.246-2.436 4.762-3.138zM161.262 110.286c1.909.766 5.333 7.346 7.136 9.227 1.144 1.193 3.282 2.885 4.061 3.989.158.714-.002.956-.243 1.684-5.754 1.388-11.122-10.385-10.954-14.9M156.319 61.895c2.046 1.245 3.847 13.601 3.368 16.184-4.667.107-3.47-9.06-3.662-12.134-.06-.933.038-3.156.294-4.05"/></svg>