<svg xmlns="http://www.w3.org/2000/svg" width="227" height="247" fill="none"><path fill="#beb5a8" d="M.8 230.2q-.8-.7-.8-1.8c.9-2.7 6.3-1.4 9.3-3.2a15 15 0 0 0 6.8-9.3c3.4-12.3-4.8-19.4-10.2-29-3.4-6-4.2-10.7-4.4-17.4-.4-17.7 10.2-30.6 14-47 1.6-7.4 2.1-15.3 3.1-22.9a132 132 0 0 1 4.5-21.4C31.2 50.4 48.3 23 74 8.4c12.5-7 30.7-11.8 44.5-5.3q4.5 2.1 6.8 6.5c1.3.2 3.6 1.2 5.2 1.7.8-1.7 1.5-2.2 3.3-2.9 5.4-2 13.8-.5 18.9 2 20 9.9 31.7 34.4 39 54.3 2.8 8 5.2 15.8 8.1 23.8 5.2 14.1 12 28.7 14 43.7a50 50 0 0 1-.5 15.8c-1.4 5.4-4.2 11.1-6.4 16.3a43 43 0 0 0-1.7 33.2 24 24 0 0 0 13.1 13.8c3 1.4 6.7 0 8 2.2 0 2.2-1.6 2.6-3.4 2.9.1.5.5 1.4.5 1.9 0 1.3-1 3.3-1.9 4.2-4.8 5-10.3 6.7-17 7.1.5 1 1.3 2.9.2 3.5-13 7.4-31.8 3.6-42-7.1-10.6-11.3-10.6-24.4-10.5-38.8l-.6-.4c-23.1 23.4-40.1 26-67.6 7.5-.5 1 .7 6.8.9 8.4 1.9 15.5-1.2 32.2-16.7 39.8a61 61 0 0 1-41.9 1.5c-1.4-.4-3.4-1.1-3.1-2.8 1-1.5 2.1-1.5 3.8-2l-4.5-.1c-5.2.1-21-3-21.8-8.9"/><mask id="a" width="227" height="247" x="0" y="0" maskUnits="userSpaceOnUse" style="mask-type:alpha"><path fill="#cbbaa6" d="M.8 230.2q-.8-.7-.8-1.8c.9-2.7 6.3-1.4 9.3-3.2a15 15 0 0 0 6.8-9.3c3.4-12.3-4.8-19.4-10.2-29-3.4-6-4.2-10.7-4.4-17.4-.4-17.7 10.2-30.6 14-47 1.6-7.4 2.1-15.3 3.1-22.9a132 132 0 0 1 4.5-21.4C31.2 50.4 48.3 23 74 8.4c12.5-7 30.7-11.8 44.5-5.3q4.5 2.1 6.8 6.5c1.3.2 3.6 1.2 5.2 1.7.8-1.7 1.5-2.2 3.3-2.9 5.4-2 13.8-.5 18.9 2 20 9.9 31.7 34.4 39 54.3 2.8 8 5.2 15.8 8.1 23.8 5.2 14.1 12 28.7 14 43.7a50 50 0 0 1-.5 15.8c-1.4 5.4-4.2 11.1-6.4 16.3a43 43 0 0 0-1.7 33.2 24 24 0 0 0 13.1 13.8c3 1.4 6.7 0 8 2.2 0 2.2-1.6 2.6-3.4 2.9.1.5.5 1.4.5 1.9 0 1.3-1 3.3-1.9 4.2-4.8 5-10.3 6.7-17 7.1.5 1 1.3 2.9.2 3.5-13 7.4-31.8 3.6-42-7.1-10.6-11.3-10.6-24.4-10.5-38.8l-.6-.4c-23.1 23.4-40.1 26-67.6 7.5-.5 1 .7 6.8.9 8.4 1.9 15.5-1.2 32.2-16.7 39.8a61 61 0 0 1-41.9 1.5c-1.4-.4-3.4-1.1-3.1-2.8 1-1.5 2.1-1.5 3.8-2l-4.5-.1c-5.2.1-21-3-21.8-8.9"/></mask><g fill="#000" mask="url(#a)"><circle cx="2.9" cy="89.4" r=".8"/><circle cx="2.9" cy="99.4" r=".8"/><circle cx="2.9" cy="9.1" r=".8"/><circle cx="2.9" cy="109.4" r=".8"/><circle cx="2.9" cy="19.1" r=".8"/><circle cx="2.9" cy="119.5" r=".8"/><circle cx="2.9" cy="29.1" r=".8"/><circle cx="2.9" cy="129.5" r=".8"/><circle cx="2.9" cy="39.2" r=".8"/><circle cx="2.9" cy="49.2" r=".8"/><circle cx="2.9" cy="59.2" r=".8"/><circle cx="2.9" cy="69.3" r=".8"/><circle cx="2.9" cy="79.3" r=".8"/><circle cx=".4" cy="94.4" r=".8"/><circle cx=".4" cy="4" r=".8"/><circle cx=".4" cy="104.4" r=".8"/><circle cx=".4" cy="14.1" r=".8"/><circle cx=".4" cy="114.5" r=".8"/><circle cx=".4" cy="24.1" r=".8"/><circle cx=".4" cy="124.5" r=".8"/><circle cx=".4" cy="34.2" r=".8"/><circle cx=".4" cy="134.5" r=".8"/><circle cx=".4" cy="44.2" r=".8"/><circle cx=".4" cy="54.2" r=".8"/><circle cx=".4" cy="64.3" r=".8"/><circle cx=".4" cy="74.3" r=".8"/><circle cx=".4" cy="84.3" r=".8"/><circle cx="8.4" cy="89.4" r=".8"/><circle cx="8.4" cy="99.4" r=".8"/><circle cx="8.4" cy="9.1" r=".8"/><circle cx="8.4" cy="109.4" r=".8"/><circle cx="8.4" cy="19.1" r=".8"/><circle cx="8.4" cy="119.5" r=".8"/><circle cx="8.4" cy="29.1" r=".8"/><circle cx="8.4" cy="129.5" r=".8"/><circle cx="8.4" cy="39.2" r=".8"/><circle cx="8.4" cy="49.2" r=".8"/><circle cx="8.4" cy="59.2" r=".8"/><circle cx="8.4" cy="69.3" r=".8"/><circle cx="8.4" cy="79.3" r=".8"/><circle cx="5.9" cy="94.4" r=".8"/><circle cx="5.9" cy="4" r=".8"/><circle cx="5.9" cy="104.4" r=".8"/><circle cx="5.9" cy="14.1" r=".8"/><circle cx="5.9" cy="114.5" r=".8"/><circle cx="5.9" cy="24.1" r=".8"/><circle cx="5.9" cy="124.5" r=".8"/><circle cx="5.9" cy="34.2" r=".8"/><circle cx="5.9" cy="134.5" r=".8"/><circle cx="5.9" cy="44.2" r=".8"/><circle cx="5.9" cy="54.2" r=".8"/><circle cx="5.9" cy="64.3" r=".8"/><circle cx="5.9" cy="74.3" r=".8"/><circle cx="5.9" cy="84.3" r=".8"/><circle cx="13.9" cy="89.4" r=".8"/><circle cx="13.9" cy="99.4" r=".8"/><circle cx="13.9" cy="9.1" r=".8"/><circle cx="13.9" cy="109.4" r=".8"/><circle cx="13.9" cy="19.1" r=".8"/><circle cx="13.9" cy="119.5" r=".8"/><circle cx="13.9" cy="29.1" r=".8"/><circle cx="13.9" cy="129.5" r=".8"/><circle cx="13.9" cy="39.2" r=".8"/><circle cx="13.9" cy="49.2" r=".8"/><circle cx="13.9" cy="59.2" r=".8"/><circle cx="13.9" cy="69.3" r=".8"/><circle cx="13.9" cy="79.3" r=".8"/><circle cx="11.4" cy="94.4" r=".8"/><circle cx="11.4" cy="4" r=".8"/><circle cx="11.4" cy="104.4" r=".8"/><circle cx="11.4" cy="14.1" r=".8"/><circle cx="11.4" cy="114.5" r=".8"/><circle cx="11.4" cy="24.1" r=".8"/><circle cx="11.4" cy="124.5" r=".8"/><circle cx="11.4" cy="34.2" r=".8"/><circle cx="11.4" cy="134.5" r=".8"/><circle cx="11.4" cy="44.2" r=".8"/><circle cx="11.4" cy="54.2" r=".8"/><circle cx="11.4" cy="64.3" r=".8"/><circle cx="11.4" cy="74.3" r=".8"/><circle cx="11.4" cy="84.3" r=".8"/><circle cx="19.5" cy="89.4" r=".8"/><circle cx="19.5" cy="99.4" r=".8"/><circle cx="19.5" cy="9.1" r=".8"/><circle cx="19.5" cy="109.4" r=".8"/><circle cx="19.5" cy="19.1" r=".8"/><circle cx="19.5" cy="119.5" r=".8"/><circle cx="19.5" cy="29.1" r=".8"/><circle cx="19.5" cy="129.5" r=".8"/><circle cx="19.5" cy="39.2" r=".8"/><circle cx="19.5" cy="49.2" r=".8"/><circle cx="19.5" cy="59.2" r=".8"/><circle cx="19.5" cy="69.3" r=".8"/><circle cx="19.5" cy="79.3" r=".8"/><circle cx="17" cy="94.4" r=".8"/><circle cx="17" cy="4" r=".8"/><circle cx="17" cy="104.4" r=".8"/><circle cx="17" cy="14.1" r=".8"/><circle cx="17" cy="114.5" r=".8"/><circle cx="17" cy="24.1" r=".8"/><circle cx="17" cy="124.5" r=".8"/><circle cx="17" cy="34.2" r=".8"/><circle cx="17" cy="134.5" r=".8"/><circle cx="17" cy="44.2" r=".8"/><circle cx="17" cy="54.2" r=".8"/><circle cx="17" cy="64.3" r=".8"/><circle cx="17" cy="74.3" r=".8"/><circle cx="17" cy="84.3" r=".8"/><circle cx="25" cy="89.4" r=".8"/><circle cx="25" cy="99.4" r=".8"/><circle cx="25" cy="9.1" r=".8"/><circle cx="25" cy="109.4" r=".8"/><circle cx="25" cy="19.1" r=".8"/><circle cx="25" cy="119.5" r=".8"/><circle cx="25" cy="29.1" r=".8"/><circle cx="25" cy="129.5" r=".8"/><circle cx="25" cy="39.2" r=".8"/><circle cx="25" cy="49.2" r=".8"/><circle cx="25" cy="59.2" r=".8"/><circle cx="25" cy="69.3" r=".8"/><circle cx="25" cy="79.3" r=".8"/><circle cx="22.5" cy="94.4" r=".8"/><circle cx="22.5" cy="4" r=".8"/><circle cx="22.5" cy="104.4" r=".8"/><circle cx="22.5" cy="14.1" r=".8"/><circle cx="22.5" cy="114.5" r=".8"/><circle cx="22.5" cy="24.1" r=".8"/><circle cx="22.5" cy="124.5" r=".8"/><circle cx="22.5" cy="34.2" r=".8"/><circle cx="22.5" cy="134.5" r=".8"/><circle cx="22.5" cy="44.2" r=".8"/><circle cx="22.5" cy="54.2" r=".8"/><circle cx="22.5" cy="64.3" r=".8"/><circle cx="22.5" cy="74.3" r=".8"/><circle cx="22.5" cy="84.3" r=".8"/><circle cx="30.5" cy="89.4" r=".8"/><circle cx="30.5" cy="99.4" r=".8"/><circle cx="30.5" cy="9.1" r=".8"/><circle cx="30.5" cy="109.4" r=".8"/><circle cx="30.5" cy="19.1" r=".8"/><circle cx="30.5" cy="119.5" r=".8"/><circle cx="30.5" cy="29.1" r=".8"/><circle cx="30.5" cy="129.5" r=".8"/><circle cx="30.5" cy="39.2" r=".8"/><circle cx="30.5" cy="49.2" r=".8"/><circle cx="30.5" cy="59.2" r=".8"/><circle cx="30.5" cy="69.3" r=".8"/><circle cx="30.5" cy="79.3" r=".8"/><circle cx="28" cy="94.4" r=".8"/><circle cx="28" cy="4" r=".8"/><circle cx="28" cy="104.4" r=".8"/><circle cx="28" cy="14.1" r=".8"/><circle cx="28" cy="114.5" r=".8"/><circle cx="28" cy="24.1" r=".8"/><circle cx="28" cy="124.5" r=".8"/><circle cx="28" cy="34.2" r=".8"/><circle cx="28" cy="134.5" r=".8"/><circle cx="28" cy="44.2" r=".8"/><circle cx="28" cy="54.2" r=".8"/><circle cx="28" cy="64.3" r=".8"/><circle cx="28" cy="74.3" r=".8"/><circle cx="28" cy="84.3" r=".8"/><circle cx="36" cy="89.4" r=".8"/><circle cx="36" cy="99.4" r=".8"/><circle cx="36" cy="9.1" r=".8"/><circle cx="36" cy="109.4" r=".8"/><circle cx="36" cy="19.1" r=".8"/><circle cx="36" cy="119.5" r=".8"/><circle cx="36" cy="29.1" r=".8"/><circle cx="36" cy="129.5" r=".8"/><circle cx="36" cy="39.2" r=".8"/><circle cx="36" cy="49.2" r=".8"/><circle cx="36" cy="59.2" r=".8"/><circle cx="36" cy="69.3" r=".8"/><circle cx="36" cy="79.3" r=".8"/><circle cx="33.5" cy="94.4" r=".8"/><circle cx="33.5" cy="4" r=".8"/><circle cx="33.5" cy="104.4" r=".8"/><circle cx="33.5" cy="14.1" r=".8"/><circle cx="33.5" cy="114.5" r=".8"/><circle cx="33.5" cy="24.1" r=".8"/><circle cx="33.5" cy="124.5" r=".8"/><circle cx="33.5" cy="34.2" r=".8"/><circle cx="33.5" cy="134.5" r=".8"/><circle cx="33.5" cy="44.2" r=".8"/><circle cx="33.5" cy="54.2" r=".8"/><circle cx="33.5" cy="64.3" r=".8"/><circle cx="33.5" cy="74.3" r=".8"/><circle cx="33.5" cy="84.3" r=".8"/><circle cx="41.5" cy="89.4" r=".8"/><circle cx="41.5" cy="99.4" r=".8"/><circle cx="41.5" cy="9.1" r=".8"/><circle cx="41.5" cy="109.4" r=".8"/><circle cx="41.5" cy="19.1" r=".8"/><circle cx="41.5" cy="119.5" r=".8"/><circle cx="41.5" cy="29.1" r=".8"/><circle cx="41.5" cy="129.5" r=".8"/><circle cx="41.5" cy="39.2" r=".8"/><circle cx="41.5" cy="49.2" r=".8"/><circle cx="41.5" cy="59.2" r=".8"/><circle cx="41.5" cy="69.3" r=".8"/><circle cx="41.5" cy="79.3" r=".8"/><circle cx="39" cy="94.4" r=".8"/><circle cx="39" cy="4" r=".8"/><circle cx="39" cy="104.4" r=".8"/><circle cx="39" cy="14.1" r=".8"/><circle cx="39" cy="114.5" r=".8"/><circle cx="39" cy="24.1" r=".8"/><circle cx="39" cy="124.5" r=".8"/><circle cx="39" cy="34.2" r=".8"/><circle cx="39" cy="134.5" r=".8"/><circle cx="39" cy="44.2" r=".8"/><circle cx="39" cy="54.2" r=".8"/><circle cx="39" cy="64.3" r=".8"/><circle cx="39" cy="74.3" r=".8"/><circle cx="39" cy="84.3" r=".8"/><circle cx="47.1" cy="89.4" r=".8"/><circle cx="47.1" cy="99.4" r=".8"/><circle cx="47.1" cy="9.1" r=".8"/><circle cx="47.1" cy="109.4" r=".8"/><circle cx="47.1" cy="19.1" r=".8"/><circle cx="47.1" cy="119.5" r=".8"/><circle cx="47.1" cy="29.1" r=".8"/><circle cx="47.1" cy="129.5" r=".8"/><circle cx="47.1" cy="39.2" r=".8"/><circle cx="47.1" cy="49.2" r=".8"/><circle cx="47.1" cy="59.2" r=".8"/><circle cx="47.1" cy="69.3" r=".8"/><circle cx="47.1" cy="79.3" r=".8"/><circle cx="44.6" cy="94.4" r=".8"/><circle cx="44.6" cy="4" r=".8"/><circle cx="44.6" cy="104.4" r=".8"/><circle cx="44.6" cy="14.1" r=".8"/><circle cx="44.6" cy="114.5" r=".8"/><circle cx="44.6" cy="24.1" r=".8"/><circle cx="44.6" cy="124.5" r=".8"/><circle cx="44.6" cy="34.2" r=".8"/><circle cx="44.6" cy="134.5" r=".8"/><circle cx="44.6" cy="44.2" r=".8"/><circle cx="44.6" cy="54.2" r=".8"/><circle cx="44.6" cy="64.3" r=".8"/><circle cx="44.6" cy="74.3" r=".8"/><circle cx="44.6" cy="84.3" r=".8"/><circle cx="52.6" cy="89.4" r=".8"/><circle cx="52.6" cy="99.4" r=".8"/><circle cx="52.6" cy="9.1" r=".8"/><circle cx="52.6" cy="109.4" r=".8"/><circle cx="52.6" cy="19.1" r=".8"/><circle cx="52.6" cy="119.5" r=".8"/><circle cx="52.6" cy="29.1" r=".8"/><circle cx="52.6" cy="129.5" r=".8"/><circle cx="52.6" cy="39.2" r=".8"/><circle cx="52.6" cy="49.2" r=".8"/><circle cx="52.6" cy="59.2" r=".8"/><circle cx="52.6" cy="69.3" r=".8"/><circle cx="52.6" cy="79.3" r=".8"/><circle cx="50.1" cy="94.4" r=".8"/><circle cx="50.1" cy="4" r=".8"/><circle cx="50.1" cy="104.4" r=".8"/><circle cx="50.1" cy="14.1" r=".8"/><circle cx="50.1" cy="114.5" r=".8"/><circle cx="50.1" cy="24.1" r=".8"/><circle cx="50.1" cy="124.5" r=".8"/><circle cx="50.1" cy="34.2" r=".8"/><circle cx="50.1" cy="134.5" r=".8"/><circle cx="50.1" cy="44.2" r=".8"/><circle cx="50.1" cy="54.2" r=".8"/><circle cx="50.1" cy="64.3" r=".8"/><circle cx="50.1" cy="74.3" r=".8"/><circle cx="50.1" cy="84.3" r=".8"/><circle cx="58.1" cy="89.4" r=".8"/><circle cx="58.1" cy="99.4" r=".8"/><circle cx="58.1" cy="9.1" r=".8"/><circle cx="58.1" cy="109.4" r=".8"/><circle cx="58.1" cy="19.1" r=".8"/><circle cx="58.1" cy="119.5" r=".8"/><circle cx="58.1" cy="29.1" r=".8"/><circle cx="58.1" cy="129.5" r=".8"/><circle cx="58.1" cy="39.2" r=".8"/><circle cx="58.1" cy="49.2" r=".8"/><circle cx="58.1" cy="59.2" r=".8"/><circle cx="58.1" cy="69.3" r=".8"/><circle cx="58.1" cy="79.3" r=".8"/><circle cx="55.6" cy="94.4" r=".8"/><circle cx="55.6" cy="4" r=".8"/><circle cx="55.6" cy="104.4" r=".8"/><circle cx="55.6" cy="14.1" r=".8"/><circle cx="55.6" cy="114.5" r=".8"/><circle cx="55.6" cy="24.1" r=".8"/><circle cx="55.6" cy="124.5" r=".8"/><circle cx="55.6" cy="34.2" r=".8"/><circle cx="55.6" cy="134.5" r=".8"/><circle cx="55.6" cy="44.2" r=".8"/><circle cx="55.6" cy="54.2" r=".8"/><circle cx="55.6" cy="64.3" r=".8"/><circle cx="55.6" cy="74.3" r=".8"/><circle cx="55.6" cy="84.3" r=".8"/><circle cx="63.6" cy="89.4" r=".8"/><circle cx="63.6" cy="99.4" r=".8"/><circle cx="63.6" cy="9.1" r=".8"/><circle cx="63.6" cy="109.4" r=".8"/><circle cx="63.6" cy="19.1" r=".8"/><circle cx="63.6" cy="119.5" r=".8"/><circle cx="63.6" cy="29.1" r=".8"/><circle cx="63.6" cy="129.5" r=".8"/><circle cx="63.6" cy="39.2" r=".8"/><circle cx="63.6" cy="49.2" r=".8"/><circle cx="63.6" cy="59.2" r=".8"/><circle cx="63.6" cy="69.3" r=".8"/><circle cx="63.6" cy="79.3" r=".8"/><circle cx="61.1" cy="94.4" r=".8"/><circle cx="61.1" cy="4" r=".8"/><circle cx="61.1" cy="104.4" r=".8"/><circle cx="61.1" cy="14.1" r=".8"/><circle cx="61.1" cy="114.5" r=".8"/><circle cx="61.1" cy="24.1" r=".8"/><circle cx="61.1" cy="124.5" r=".8"/><circle cx="61.1" cy="34.2" r=".8"/><circle cx="61.1" cy="134.5" r=".8"/><circle cx="61.1" cy="44.2" r=".8"/><circle cx="61.1" cy="54.2" r=".8"/><circle cx="61.1" cy="64.3" r=".8"/><circle cx="61.1" cy="74.3" r=".8"/><circle cx="61.1" cy="84.3" r=".8"/><circle cx="69.1" cy="89.4" r=".8"/><circle cx="69.1" cy="99.4" r=".8"/><circle cx="69.1" cy="9.1" r=".8"/><circle cx="69.1" cy="109.4" r=".8"/><circle cx="69.1" cy="19.1" r=".8"/><circle cx="69.1" cy="119.5" r=".8"/><circle cx="69.1" cy="29.1" r=".8"/><circle cx="69.1" cy="129.5" r=".8"/><circle cx="69.1" cy="39.2" r=".8"/><circle cx="69.1" cy="49.2" r=".8"/><circle cx="69.1" cy="59.2" r=".8"/><circle cx="69.1" cy="69.3" r=".8"/><circle cx="69.1" cy="79.3" r=".8"/><circle cx="66.6" cy="94.4" r=".8"/><circle cx="66.6" cy="4" r=".8"/><circle cx="66.6" cy="104.4" r=".8"/><circle cx="66.6" cy="14.1" r=".8"/><circle cx="66.6" cy="114.5" r=".8"/><circle cx="66.6" cy="24.1" r=".8"/><circle cx="66.6" cy="124.5" r=".8"/><circle cx="66.6" cy="34.2" r=".8"/><circle cx="66.6" cy="134.5" r=".8"/><circle cx="66.6" cy="44.2" r=".8"/><circle cx="66.6" cy="54.2" r=".8"/><circle cx="66.6" cy="64.3" r=".8"/><circle cx="66.6" cy="74.3" r=".8"/><circle cx="66.6" cy="84.3" r=".8"/><circle cx="74.7" cy="89.4" r=".8"/><circle cx="74.7" cy="99.4" r=".8"/><circle cx="74.7" cy="9.1" r=".8"/><circle cx="74.7" cy="109.4" r=".8"/><circle cx="74.7" cy="19.1" r=".8"/><circle cx="74.7" cy="119.5" r=".8"/><circle cx="74.7" cy="29.1" r=".8"/><circle cx="74.7" cy="129.5" r=".8"/><circle cx="74.7" cy="39.2" r=".8"/><circle cx="74.7" cy="49.2" r=".8"/><circle cx="74.7" cy="59.2" r=".8"/><circle cx="74.7" cy="69.3" r=".8"/><circle cx="74.7" cy="79.3" r=".8"/><circle cx="72.2" cy="94.4" r=".8"/><circle cx="72.2" cy="4" r=".8"/><circle cx="72.2" cy="104.4" r=".8"/><circle cx="72.2" cy="14.1" r=".8"/><circle cx="72.2" cy="114.5" r=".8"/><circle cx="72.2" cy="24.1" r=".8"/><circle cx="72.2" cy="124.5" r=".8"/><circle cx="72.2" cy="34.2" r=".8"/><circle cx="72.2" cy="134.5" r=".8"/><circle cx="72.2" cy="44.2" r=".8"/><circle cx="72.2" cy="54.2" r=".8"/><circle cx="72.2" cy="64.3" r=".8"/><circle cx="72.2" cy="74.3" r=".8"/><circle cx="72.2" cy="84.3" r=".8"/><circle cx="80.2" cy="89.4" r=".8"/><circle cx="80.2" cy="99.4" r=".8"/><circle cx="80.2" cy="9.1" r=".8"/><circle cx="80.2" cy="109.4" r=".8"/><circle cx="80.2" cy="19.1" r=".8"/><circle cx="80.2" cy="119.5" r=".8"/><circle cx="80.2" cy="29.1" r=".8"/><circle cx="80.2" cy="129.5" r=".8"/><circle cx="80.2" cy="39.2" r=".8"/><circle cx="80.2" cy="49.2" r=".8"/><circle cx="80.2" cy="59.2" r=".8"/><circle cx="80.2" cy="69.3" r=".8"/><circle cx="80.2" cy="79.3" r=".8"/><circle cx="77.7" cy="94.4" r=".8"/><circle cx="77.7" cy="4" r=".8"/><circle cx="77.7" cy="104.4" r=".8"/><circle cx="77.7" cy="14.1" r=".8"/><circle cx="77.7" cy="114.5" r=".8"/><circle cx="77.7" cy="24.1" r=".8"/><circle cx="77.7" cy="124.5" r=".8"/><circle cx="77.7" cy="34.2" r=".8"/><circle cx="77.7" cy="134.5" r=".8"/><circle cx="77.7" cy="44.2" r=".8"/><circle cx="77.7" cy="54.2" r=".8"/><circle cx="77.7" cy="64.3" r=".8"/><circle cx="77.7" cy="74.3" r=".8"/><circle cx="77.7" cy="84.3" r=".8"/><circle cx="85.7" cy="89.4" r=".8"/><circle cx="85.7" cy="99.4" r=".8"/><circle cx="85.7" cy="9.1" r=".8"/><circle cx="85.7" cy="109.4" r=".8"/><circle cx="85.7" cy="19.1" r=".8"/><circle cx="85.7" cy="119.5" r=".8"/><circle cx="85.7" cy="29.1" r=".8"/><circle cx="85.7" cy="129.5" r=".8"/><circle cx="85.7" cy="39.2" r=".8"/><circle cx="85.7" cy="49.2" r=".8"/><circle cx="85.7" cy="59.2" r=".8"/><circle cx="85.7" cy="69.3" r=".8"/><circle cx="85.7" cy="79.3" r=".8"/><circle cx="83.2" cy="94.4" r=".8"/><circle cx="83.2" cy="4" r=".8"/><circle cx="83.2" cy="104.4" r=".8"/><circle cx="83.2" cy="14.1" r=".8"/><circle cx="83.2" cy="114.5" r=".8"/><circle cx="83.2" cy="24.1" r=".8"/><circle cx="83.2" cy="124.5" r=".8"/><circle cx="83.2" cy="34.2" r=".8"/><circle cx="83.2" cy="134.5" r=".8"/><circle cx="83.2" cy="44.2" r=".8"/><circle cx="83.2" cy="54.2" r=".8"/><circle cx="83.2" cy="64.3" r=".8"/><circle cx="83.2" cy="74.3" r=".8"/><circle cx="83.2" cy="84.3" r=".8"/><circle cx="91.2" cy="89.4" r=".8"/><circle cx="91.2" cy="99.4" r=".8"/><circle cx="91.2" cy="9.1" r=".8"/><circle cx="91.2" cy="109.4" r=".8"/><circle cx="91.2" cy="19.1" r=".8"/><circle cx="91.2" cy="119.5" r=".8"/><circle cx="91.2" cy="29.1" r=".8"/><circle cx="91.2" cy="129.5" r=".8"/><circle cx="91.2" cy="39.2" r=".8"/><circle cx="91.2" cy="49.2" r=".8"/><circle cx="91.2" cy="59.2" r=".8"/><circle cx="91.2" cy="69.3" r=".8"/><circle cx="91.2" cy="79.3" r=".8"/><circle cx="88.7" cy="94.4" r=".8"/><circle cx="88.7" cy="4" r=".8"/><circle cx="88.7" cy="104.4" r=".8"/><circle cx="88.7" cy="14.1" r=".8"/><circle cx="88.7" cy="114.5" r=".8"/><circle cx="88.7" cy="24.1" r=".8"/><circle cx="88.7" cy="124.5" r=".8"/><circle cx="88.7" cy="34.2" r=".8"/><circle cx="88.7" cy="134.5" r=".8"/><circle cx="88.7" cy="44.2" r=".8"/><circle cx="88.7" cy="54.2" r=".8"/><circle cx="88.7" cy="64.3" r=".8"/><circle cx="88.7" cy="74.3" r=".8"/><circle cx="88.7" cy="84.3" r=".8"/><circle cx="96.7" cy="89.4" r=".8"/><circle cx="96.7" cy="99.4" r=".8"/><circle cx="96.7" cy="9.1" r=".8"/><circle cx="96.7" cy="109.4" r=".8"/><circle cx="96.7" cy="19.1" r=".8"/><circle cx="96.7" cy="119.5" r=".8"/><circle cx="96.7" cy="29.1" r=".8"/><circle cx="96.7" cy="129.5" r=".8"/><circle cx="96.7" cy="39.2" r=".8"/><circle cx="96.7" cy="49.2" r=".8"/><circle cx="96.7" cy="59.2" r=".8"/><circle cx="96.7" cy="69.3" r=".8"/><circle cx="96.7" cy="79.3" r=".8"/><circle cx="94.2" cy="94.4" r=".8"/><circle cx="94.2" cy="4" r=".8"/><circle cx="94.2" cy="104.4" r=".8"/><circle cx="94.2" cy="14.1" r=".8"/><circle cx="94.2" cy="114.5" r=".8"/><circle cx="94.2" cy="24.1" r=".8"/><circle cx="94.2" cy="124.5" r=".8"/><circle cx="94.2" cy="34.2" r=".8"/><circle cx="94.2" cy="134.5" r=".8"/><circle cx="94.2" cy="44.2" r=".8"/><circle cx="94.2" cy="54.2" r=".8"/><circle cx="94.2" cy="64.3" r=".8"/><circle cx="94.2" cy="74.3" r=".8"/><circle cx="94.2" cy="84.3" r=".8"/><circle cx="102.3" cy="89.4" r=".8"/><circle cx="102.3" cy="99.4" r=".8"/><circle cx="102.3" cy="9.1" r=".8"/><circle cx="102.3" cy="109.4" r=".8"/><circle cx="102.3" cy="19.1" r=".8"/><circle cx="102.3" cy="119.5" r=".8"/><circle cx="102.3" cy="29.1" r=".8"/><circle cx="102.3" cy="129.5" r=".8"/><circle cx="102.3" cy="39.2" r=".8"/><circle cx="102.3" cy="49.2" r=".8"/><circle cx="102.3" cy="59.2" r=".8"/><circle cx="102.3" cy="69.3" r=".8"/><circle cx="102.3" cy="79.3" r=".8"/><circle cx="99.8" cy="94.4" r=".8"/><circle cx="99.8" cy="4" r=".8"/><circle cx="99.8" cy="104.4" r=".8"/><circle cx="99.8" cy="14.1" r=".8"/><circle cx="99.8" cy="114.5" r=".8"/><circle cx="99.8" cy="24.1" r=".8"/><circle cx="99.8" cy="124.5" r=".8"/><circle cx="99.8" cy="34.2" r=".8"/><circle cx="99.8" cy="134.5" r=".8"/><circle cx="99.8" cy="44.2" r=".8"/><circle cx="99.8" cy="54.2" r=".8"/><circle cx="99.8" cy="64.3" r=".8"/><circle cx="99.8" cy="74.3" r=".8"/><circle cx="99.8" cy="84.3" r=".8"/><circle cx="107.8" cy="89.4" r=".8"/><circle cx="107.8" cy="99.4" r=".8"/><circle cx="107.8" cy="9.1" r=".8"/><circle cx="107.8" cy="109.4" r=".8"/><circle cx="107.8" cy="19.1" r=".8"/><circle cx="107.8" cy="119.5" r=".8"/><circle cx="107.8" cy="29.1" r=".8"/><circle cx="107.8" cy="129.5" r=".8"/><circle cx="107.8" cy="39.2" r=".8"/><circle cx="107.8" cy="49.2" r=".8"/><circle cx="107.8" cy="59.2" r=".8"/><circle cx="107.8" cy="69.3" r=".8"/><circle cx="107.8" cy="79.3" r=".8"/><circle cx="105.3" cy="94.4" r=".8"/><circle cx="105.3" cy="4" r=".8"/><circle cx="105.3" cy="104.4" r=".8"/><circle cx="105.3" cy="14.1" r=".8"/><circle cx="105.3" cy="114.5" r=".8"/><circle cx="105.3" cy="24.1" r=".8"/><circle cx="105.3" cy="124.5" r=".8"/><circle cx="105.3" cy="34.2" r=".8"/><circle cx="105.3" cy="134.5" r=".8"/><circle cx="105.3" cy="44.2" r=".8"/><circle cx="105.3" cy="54.2" r=".8"/><circle cx="105.3" cy="64.3" r=".8"/><circle cx="105.3" cy="74.3" r=".8"/><circle cx="105.3" cy="84.3" r=".8"/><circle cx="113.3" cy="89.4" r=".8"/><circle cx="113.3" cy="99.4" r=".8"/><circle cx="113.3" cy="9.1" r=".8"/><circle cx="113.3" cy="109.4" r=".8"/><circle cx="113.3" cy="19.1" r=".8"/><circle cx="113.3" cy="119.5" r=".8"/><circle cx="113.3" cy="29.1" r=".8"/><circle cx="113.3" cy="129.5" r=".8"/><circle cx="113.3" cy="39.2" r=".8"/><circle cx="113.3" cy="49.2" r=".8"/><circle cx="113.3" cy="59.2" r=".8"/><circle cx="113.3" cy="69.3" r=".8"/><circle cx="113.3" cy="79.3" r=".8"/><circle cx="110.8" cy="94.4" r=".8"/><circle cx="110.8" cy="4" r=".8"/><circle cx="110.8" cy="104.4" r=".8"/><circle cx="110.8" cy="14.1" r=".8"/><circle cx="110.8" cy="114.5" r=".8"/><circle cx="110.8" cy="24.1" r=".8"/><circle cx="110.8" cy="124.5" r=".8"/><circle cx="110.8" cy="34.2" r=".8"/><circle cx="110.8" cy="134.5" r=".8"/><circle cx="110.8" cy="44.2" r=".8"/><circle cx="110.8" cy="54.2" r=".8"/><circle cx="110.8" cy="64.3" r=".8"/><circle cx="110.8" cy="74.3" r=".8"/><circle cx="110.8" cy="84.3" r=".8"/><circle cx="118.8" cy="89.4" r=".8"/><circle cx="118.8" cy="99.4" r=".8"/><circle cx="118.8" cy="9.1" r=".8"/><circle cx="118.8" cy="109.4" r=".8"/><circle cx="118.8" cy="19.1" r=".8"/><circle cx="118.8" cy="119.5" r=".8"/><circle cx="118.8" cy="29.1" r=".8"/><circle cx="118.8" cy="129.5" r=".8"/><circle cx="118.8" cy="39.2" r=".8"/><circle cx="118.8" cy="49.2" r=".8"/><circle cx="118.8" cy="59.2" r=".8"/><circle cx="118.8" cy="69.3" r=".8"/><circle cx="118.8" cy="79.3" r=".8"/><circle cx="116.3" cy="94.4" r=".8"/><circle cx="116.3" cy="4" r=".8"/><circle cx="116.3" cy="104.4" r=".8"/><circle cx="116.3" cy="14.1" r=".8"/><circle cx="116.3" cy="114.5" r=".8"/><circle cx="116.3" cy="24.1" r=".8"/><circle cx="116.3" cy="124.5" r=".8"/><circle cx="116.3" cy="34.2" r=".8"/><circle cx="116.3" cy="134.5" r=".8"/><circle cx="116.3" cy="44.2" r=".8"/><circle cx="116.3" cy="54.2" r=".8"/><circle cx="116.3" cy="64.3" r=".8"/><circle cx="116.3" cy="74.3" r=".8"/><circle cx="116.3" cy="84.3" r=".8"/><circle cx="2.9" cy="139" r=".8"/><circle cx="2.9" cy="239.3" r=".8"/><circle cx="2.9" cy="149" r=".8"/><circle cx="2.9" cy="159" r=".8"/><circle cx="2.9" cy="169.1" r=".8"/><circle cx="2.9" cy="179.1" r=".8"/><circle cx="2.9" cy="189.1" r=".8"/><circle cx="2.9" cy="199.2" r=".8"/><circle cx="2.9" cy="209.2" r=".8"/><circle cx="2.9" cy="219.3" r=".8"/><circle cx="2.9" cy="229.3" r=".8"/><circle cx=".4" cy="144" r=".8"/><circle cx=".4" cy="244.3" r=".8"/><circle cx=".4" cy="154" r=".8"/><circle cx=".4" cy="164" r=".8"/><circle cx=".4" cy="174.1" r=".8"/><circle cx=".4" cy="184.1" r=".8"/><circle cx=".4" cy="194.2" r=".8"/><circle cx=".4" cy="204.2" r=".8"/><circle cx=".4" cy="214.2" r=".8"/><circle cx=".4" cy="224.3" r=".8"/><circle cx=".4" cy="234.3" r=".8"/><circle cx="8.4" cy="139" r=".8"/><circle cx="8.4" cy="239.3" r=".8"/><circle cx="8.4" cy="149" r=".8"/><circle cx="8.4" cy="159" r=".8"/><circle cx="8.4" cy="169.1" r=".8"/><circle cx="8.4" cy="179.1" r=".8"/><circle cx="8.4" cy="189.1" r=".8"/><circle cx="8.4" cy="199.2" r=".8"/><circle cx="8.4" cy="209.2" r=".8"/><circle cx="8.4" cy="219.3" r=".8"/><circle cx="8.4" cy="229.3" r=".8"/><circle cx="5.9" cy="144" r=".8"/><circle cx="5.9" cy="244.3" r=".8"/><circle cx="5.9" cy="154" r=".8"/><circle cx="5.9" cy="164" r=".8"/><circle cx="5.9" cy="174.1" r=".8"/><circle cx="5.9" cy="184.1" r=".8"/><circle cx="5.9" cy="194.2" r=".8"/><circle cx="5.9" cy="204.2" r=".8"/><circle cx="5.9" cy="214.2" r=".8"/><circle cx="5.9" cy="224.3" r=".8"/><circle cx="5.9" cy="234.3" r=".8"/><circle cx="13.9" cy="139" r=".8"/><circle cx="13.9" cy="239.3" r=".8"/><circle cx="13.9" cy="149" r=".8"/><circle cx="13.9" cy="159" r=".8"/><circle cx="13.9" cy="169.1" r=".8"/><circle cx="13.9" cy="179.1" r=".8"/><circle cx="13.9" cy="189.1" r=".8"/><circle cx="13.9" cy="199.2" r=".8"/><circle cx="13.9" cy="209.2" r=".8"/><circle cx="13.9" cy="219.3" r=".8"/><circle cx="13.9" cy="229.3" r=".8"/><circle cx="11.4" cy="144" r=".8"/><circle cx="11.4" cy="244.3" r=".8"/><circle cx="11.4" cy="154" r=".8"/><circle cx="11.4" cy="164" r=".8"/><circle cx="11.4" cy="174.1" r=".8"/><circle cx="11.4" cy="184.1" r=".8"/><circle cx="11.4" cy="194.2" r=".8"/><circle cx="11.4" cy="204.2" r=".8"/><circle cx="11.4" cy="214.2" r=".8"/><circle cx="11.4" cy="224.3" r=".8"/><circle cx="11.4" cy="234.3" r=".8"/><circle cx="19.5" cy="139" r=".8"/><circle cx="19.5" cy="239.3" r=".8"/><circle cx="19.5" cy="149" r=".8"/><circle cx="19.5" cy="159" r=".8"/><circle cx="19.5" cy="169.1" r=".8"/><circle cx="19.5" cy="179.1" r=".8"/><circle cx="19.5" cy="189.1" r=".8"/><circle cx="19.5" cy="199.2" r=".8"/><circle cx="19.5" cy="209.2" r=".8"/><circle cx="19.5" cy="219.3" r=".8"/><circle cx="19.5" cy="229.3" r=".8"/><circle cx="17" cy="144" r=".8"/><circle cx="17" cy="244.3" r=".8"/><circle cx="17" cy="154" r=".8"/><circle cx="17" cy="164" r=".8"/><circle cx="17" cy="174.1" r=".8"/><circle cx="17" cy="184.1" r=".8"/><circle cx="17" cy="194.2" r=".8"/><circle cx="17" cy="204.2" r=".8"/><circle cx="17" cy="214.2" r=".8"/><circle cx="17" cy="224.3" r=".8"/><circle cx="17" cy="234.3" r=".8"/><circle cx="25" cy="139" r=".8"/><circle cx="25" cy="239.3" r=".8"/><circle cx="25" cy="149" r=".8"/><circle cx="25" cy="159" r=".8"/><circle cx="25" cy="169.1" r=".8"/><circle cx="25" cy="179.1" r=".8"/><circle cx="25" cy="189.1" r=".8"/><circle cx="25" cy="199.2" r=".8"/><circle cx="25" cy="209.2" r=".8"/><circle cx="25" cy="219.3" r=".8"/><circle cx="25" cy="229.3" r=".8"/><circle cx="22.5" cy="144" r=".8"/><circle cx="22.5" cy="244.3" r=".8"/><circle cx="22.5" cy="154" r=".8"/><circle cx="22.5" cy="164" r=".8"/><circle cx="22.5" cy="174.1" r=".8"/><circle cx="22.5" cy="184.1" r=".8"/><circle cx="22.5" cy="194.2" r=".8"/><circle cx="22.5" cy="204.2" r=".8"/><circle cx="22.5" cy="214.2" r=".8"/><circle cx="22.5" cy="224.3" r=".8"/><circle cx="22.5" cy="234.3" r=".8"/><circle cx="30.5" cy="139" r=".8"/><circle cx="30.5" cy="239.3" r=".8"/><circle cx="30.5" cy="149" r=".8"/><circle cx="30.5" cy="159" r=".8"/><circle cx="30.5" cy="169.1" r=".8"/><circle cx="30.5" cy="179.1" r=".8"/><circle cx="30.5" cy="189.1" r=".8"/><circle cx="30.5" cy="199.2" r=".8"/><circle cx="30.5" cy="209.2" r=".8"/><circle cx="30.5" cy="219.3" r=".8"/><circle cx="30.5" cy="229.3" r=".8"/><circle cx="28" cy="144" r=".8"/><circle cx="28" cy="244.3" r=".8"/><circle cx="28" cy="154" r=".8"/><circle cx="28" cy="164" r=".8"/><circle cx="28" cy="174.1" r=".8"/><circle cx="28" cy="184.1" r=".8"/><circle cx="28" cy="194.2" r=".8"/><circle cx="28" cy="204.2" r=".8"/><circle cx="28" cy="214.2" r=".8"/><circle cx="28" cy="224.3" r=".8"/><circle cx="28" cy="234.3" r=".8"/><circle cx="36" cy="139" r=".8"/><circle cx="36" cy="239.3" r=".8"/><circle cx="36" cy="149" r=".8"/><circle cx="36" cy="159" r=".8"/><circle cx="36" cy="169.1" r=".8"/><circle cx="36" cy="179.1" r=".8"/><circle cx="36" cy="189.1" r=".8"/><circle cx="36" cy="199.2" r=".8"/><circle cx="36" cy="209.2" r=".8"/><circle cx="36" cy="219.3" r=".8"/><circle cx="36" cy="229.3" r=".8"/><circle cx="33.5" cy="144" r=".8"/><circle cx="33.5" cy="244.3" r=".8"/><circle cx="33.5" cy="154" r=".8"/><circle cx="33.5" cy="164" r=".8"/><circle cx="33.5" cy="174.1" r=".8"/><circle cx="33.5" cy="184.1" r=".8"/><circle cx="33.5" cy="194.2" r=".8"/><circle cx="33.5" cy="204.2" r=".8"/><circle cx="33.5" cy="214.2" r=".8"/><circle cx="33.5" cy="224.3" r=".8"/><circle cx="33.5" cy="234.3" r=".8"/><circle cx="41.5" cy="139" r=".8"/><circle cx="41.5" cy="239.3" r=".8"/><circle cx="41.5" cy="149" r=".8"/><circle cx="41.5" cy="159" r=".8"/><circle cx="41.5" cy="169.1" r=".8"/><circle cx="41.5" cy="179.1" r=".8"/><circle cx="41.5" cy="189.1" r=".8"/><circle cx="41.5" cy="199.2" r=".8"/><circle cx="41.5" cy="209.2" r=".8"/><circle cx="41.5" cy="219.3" r=".8"/><circle cx="41.5" cy="229.3" r=".8"/><circle cx="39" cy="144" r=".8"/><circle cx="39" cy="244.3" r=".8"/><circle cx="39" cy="154" r=".8"/><circle cx="39" cy="164" r=".8"/><circle cx="39" cy="174.1" r=".8"/><circle cx="39" cy="184.1" r=".8"/><circle cx="39" cy="194.2" r=".8"/><circle cx="39" cy="204.2" r=".8"/><circle cx="39" cy="214.2" r=".8"/><circle cx="39" cy="224.3" r=".8"/><circle cx="39" cy="234.3" r=".8"/><circle cx="47.1" cy="139" r=".8"/><circle cx="47.1" cy="239.3" r=".8"/><circle cx="47.1" cy="149" r=".8"/><circle cx="47.1" cy="159" r=".8"/><circle cx="47.1" cy="169.1" r=".8"/><circle cx="47.1" cy="179.1" r=".8"/><circle cx="47.1" cy="189.1" r=".8"/><circle cx="47.1" cy="199.2" r=".8"/><circle cx="47.1" cy="209.2" r=".8"/><circle cx="47.1" cy="219.3" r=".8"/><circle cx="47.1" cy="229.3" r=".8"/><circle cx="44.6" cy="144" r=".8"/><circle cx="44.6" cy="244.3" r=".8"/><circle cx="44.6" cy="154" r=".8"/><circle cx="44.6" cy="164" r=".8"/><circle cx="44.6" cy="174.1" r=".8"/><circle cx="44.6" cy="184.1" r=".8"/><circle cx="44.6" cy="194.2" r=".8"/><circle cx="44.6" cy="204.2" r=".8"/><circle cx="44.6" cy="214.2" r=".8"/><circle cx="44.6" cy="224.3" r=".8"/><circle cx="44.6" cy="234.3" r=".8"/><circle cx="52.6" cy="139" r=".8"/><circle cx="52.6" cy="239.3" r=".8"/><circle cx="52.6" cy="149" r=".8"/><circle cx="52.6" cy="159" r=".8"/><circle cx="52.6" cy="169.1" r=".8"/><circle cx="52.6" cy="179.1" r=".8"/><circle cx="52.6" cy="189.1" r=".8"/><circle cx="52.6" cy="199.2" r=".8"/><circle cx="52.6" cy="209.2" r=".8"/><circle cx="52.6" cy="219.3" r=".8"/><circle cx="52.6" cy="229.3" r=".8"/><circle cx="50.1" cy="144" r=".8"/><circle cx="50.1" cy="244.3" r=".8"/><circle cx="50.1" cy="154" r=".8"/><circle cx="50.1" cy="164" r=".8"/><circle cx="50.1" cy="174.1" r=".8"/><circle cx="50.1" cy="184.1" r=".8"/><circle cx="50.1" cy="194.2" r=".8"/><circle cx="50.1" cy="204.2" r=".8"/><circle cx="50.1" cy="214.2" r=".8"/><circle cx="50.1" cy="224.3" r=".8"/><circle cx="50.1" cy="234.3" r=".8"/><circle cx="58.1" cy="139" r=".8"/><circle cx="58.1" cy="239.3" r=".8"/><circle cx="58.1" cy="149" r=".8"/><circle cx="58.1" cy="159" r=".8"/><circle cx="58.1" cy="169.1" r=".8"/><circle cx="58.1" cy="179.1" r=".8"/><circle cx="58.1" cy="189.1" r=".8"/><circle cx="58.1" cy="199.2" r=".8"/><circle cx="58.1" cy="209.2" r=".8"/><circle cx="58.1" cy="219.3" r=".8"/><circle cx="58.1" cy="229.3" r=".8"/><circle cx="55.6" cy="144" r=".8"/><circle cx="55.6" cy="244.3" r=".8"/><circle cx="55.6" cy="154" r=".8"/><circle cx="55.6" cy="164" r=".8"/><circle cx="55.6" cy="174.1" r=".8"/><circle cx="55.6" cy="184.1" r=".8"/><circle cx="55.6" cy="194.2" r=".8"/><circle cx="55.6" cy="204.2" r=".8"/><circle cx="55.6" cy="214.2" r=".8"/><circle cx="55.6" cy="224.3" r=".8"/><circle cx="55.6" cy="234.3" r=".8"/><circle cx="63.6" cy="139" r=".8"/><circle cx="63.6" cy="239.3" r=".8"/><circle cx="63.6" cy="149" r=".8"/><circle cx="63.6" cy="159" r=".8"/><circle cx="63.6" cy="169.1" r=".8"/><circle cx="63.6" cy="179.1" r=".8"/><circle cx="63.6" cy="189.1" r=".8"/><circle cx="63.6" cy="199.2" r=".8"/><circle cx="63.6" cy="209.2" r=".8"/><circle cx="63.6" cy="219.3" r=".8"/><circle cx="63.6" cy="229.3" r=".8"/><circle cx="61.1" cy="144" r=".8"/><circle cx="61.1" cy="244.3" r=".8"/><circle cx="61.1" cy="154" r=".8"/><circle cx="61.1" cy="164" r=".8"/><circle cx="61.1" cy="174.1" r=".8"/><circle cx="61.1" cy="184.1" r=".8"/><circle cx="61.1" cy="194.2" r=".8"/><circle cx="61.1" cy="204.2" r=".8"/><circle cx="61.1" cy="214.2" r=".8"/><circle cx="61.1" cy="224.3" r=".8"/><circle cx="61.1" cy="234.3" r=".8"/><circle cx="69.1" cy="139" r=".8"/><circle cx="69.1" cy="239.3" r=".8"/><circle cx="69.1" cy="149" r=".8"/><circle cx="69.1" cy="159" r=".8"/><circle cx="69.1" cy="169.1" r=".8"/><circle cx="69.1" cy="179.1" r=".8"/><circle cx="69.1" cy="189.1" r=".8"/><circle cx="69.1" cy="199.2" r=".8"/><circle cx="69.1" cy="209.2" r=".8"/><circle cx="69.1" cy="219.3" r=".8"/><circle cx="69.1" cy="229.3" r=".8"/><circle cx="66.6" cy="144" r=".8"/><circle cx="66.6" cy="244.3" r=".8"/><circle cx="66.6" cy="154" r=".8"/><circle cx="66.6" cy="164" r=".8"/><circle cx="66.6" cy="174.1" r=".8"/><circle cx="66.6" cy="184.1" r=".8"/><circle cx="66.6" cy="194.2" r=".8"/><circle cx="66.6" cy="204.2" r=".8"/><circle cx="66.6" cy="214.2" r=".8"/><circle cx="66.6" cy="224.3" r=".8"/><circle cx="66.6" cy="234.3" r=".8"/><circle cx="74.7" cy="139" r=".8"/><circle cx="74.7" cy="239.3" r=".8"/><circle cx="74.7" cy="149" r=".8"/><circle cx="74.7" cy="159" r=".8"/><circle cx="74.7" cy="169.1" r=".8"/><circle cx="74.7" cy="179.1" r=".8"/><circle cx="74.7" cy="189.1" r=".8"/><circle cx="74.7" cy="199.2" r=".8"/><circle cx="74.7" cy="209.2" r=".8"/><circle cx="74.7" cy="219.3" r=".8"/><circle cx="74.7" cy="229.3" r=".8"/><circle cx="72.2" cy="144" r=".8"/><circle cx="72.2" cy="244.3" r=".8"/><circle cx="72.2" cy="154" r=".8"/><circle cx="72.2" cy="164" r=".8"/><circle cx="72.2" cy="174.1" r=".8"/><circle cx="72.2" cy="184.1" r=".8"/><circle cx="72.2" cy="194.2" r=".8"/><circle cx="72.2" cy="204.2" r=".8"/><circle cx="72.2" cy="214.2" r=".8"/><circle cx="72.2" cy="224.3" r=".8"/><circle cx="72.2" cy="234.3" r=".8"/><circle cx="80.2" cy="139" r=".8"/><circle cx="80.2" cy="239.3" r=".8"/><circle cx="80.2" cy="149" r=".8"/><circle cx="80.2" cy="159" r=".8"/><circle cx="80.2" cy="169.1" r=".8"/><circle cx="80.2" cy="179.1" r=".8"/><circle cx="80.2" cy="189.1" r=".8"/><circle cx="80.2" cy="199.2" r=".8"/><circle cx="80.2" cy="209.2" r=".8"/><circle cx="80.2" cy="219.3" r=".8"/><circle cx="80.2" cy="229.3" r=".8"/><circle cx="77.7" cy="144" r=".8"/><circle cx="77.7" cy="244.3" r=".8"/><circle cx="77.7" cy="154" r=".8"/><circle cx="77.7" cy="164" r=".8"/><circle cx="77.7" cy="174.1" r=".8"/><circle cx="77.7" cy="184.1" r=".8"/><circle cx="77.7" cy="194.2" r=".8"/><circle cx="77.7" cy="204.2" r=".8"/><circle cx="77.7" cy="214.2" r=".8"/><circle cx="77.7" cy="224.3" r=".8"/><circle cx="77.7" cy="234.3" r=".8"/><circle cx="85.7" cy="139" r=".8"/><circle cx="85.7" cy="239.3" r=".8"/><circle cx="85.7" cy="149" r=".8"/><circle cx="85.7" cy="159" r=".8"/><circle cx="85.7" cy="169.1" r=".8"/><circle cx="85.7" cy="179.1" r=".8"/><circle cx="85.7" cy="189.1" r=".8"/><circle cx="85.7" cy="199.2" r=".8"/><circle cx="85.7" cy="209.2" r=".8"/><circle cx="85.7" cy="219.3" r=".8"/><circle cx="85.7" cy="229.3" r=".8"/><circle cx="83.2" cy="144" r=".8"/><circle cx="83.2" cy="244.3" r=".8"/><circle cx="83.2" cy="154" r=".8"/><circle cx="83.2" cy="164" r=".8"/><circle cx="83.2" cy="174.1" r=".8"/><circle cx="83.2" cy="184.1" r=".8"/><circle cx="83.2" cy="194.2" r=".8"/><circle cx="83.2" cy="204.2" r=".8"/><circle cx="83.2" cy="214.2" r=".8"/><circle cx="83.2" cy="224.3" r=".8"/><circle cx="83.2" cy="234.3" r=".8"/><circle cx="91.2" cy="139" r=".8"/><circle cx="91.2" cy="239.3" r=".8"/><circle cx="91.2" cy="149" r=".8"/><circle cx="91.2" cy="159" r=".8"/><circle cx="91.2" cy="169.1" r=".8"/><circle cx="91.2" cy="179.1" r=".8"/><circle cx="91.2" cy="189.1" r=".8"/><circle cx="91.2" cy="199.2" r=".8"/><circle cx="91.2" cy="209.2" r=".8"/><circle cx="91.2" cy="219.3" r=".8"/><circle cx="91.2" cy="229.3" r=".8"/><circle cx="88.7" cy="144" r=".8"/><circle cx="88.7" cy="244.3" r=".8"/><circle cx="88.7" cy="154" r=".8"/><circle cx="88.7" cy="164" r=".8"/><circle cx="88.7" cy="174.1" r=".8"/><circle cx="88.7" cy="184.1" r=".8"/><circle cx="88.7" cy="194.2" r=".8"/><circle cx="88.7" cy="204.2" r=".8"/><circle cx="88.7" cy="214.2" r=".8"/><circle cx="88.7" cy="224.3" r=".8"/><circle cx="88.7" cy="234.3" r=".8"/><circle cx="96.7" cy="139" r=".8"/><circle cx="96.7" cy="239.3" r=".8"/><circle cx="96.7" cy="149" r=".8"/><circle cx="96.7" cy="159" r=".8"/><circle cx="96.7" cy="169.1" r=".8"/><circle cx="96.7" cy="179.1" r=".8"/><circle cx="96.7" cy="189.1" r=".8"/><circle cx="96.7" cy="199.2" r=".8"/><circle cx="96.7" cy="209.2" r=".8"/><circle cx="96.7" cy="219.3" r=".8"/><circle cx="96.7" cy="229.3" r=".8"/><circle cx="94.2" cy="144" r=".8"/><circle cx="94.2" cy="244.3" r=".8"/><circle cx="94.2" cy="154" r=".8"/><circle cx="94.2" cy="164" r=".8"/><circle cx="94.2" cy="174.1" r=".8"/><circle cx="94.2" cy="184.1" r=".8"/><circle cx="94.2" cy="194.2" r=".8"/><circle cx="94.2" cy="204.2" r=".8"/><circle cx="94.2" cy="214.2" r=".8"/><circle cx="94.2" cy="224.3" r=".8"/><circle cx="94.2" cy="234.3" r=".8"/><circle cx="102.3" cy="139" r=".8"/><circle cx="102.3" cy="239.3" r=".8"/><circle cx="102.3" cy="149" r=".8"/><circle cx="102.3" cy="159" r=".8"/><circle cx="102.3" cy="169.1" r=".8"/><circle cx="102.3" cy="179.1" r=".8"/><circle cx="102.3" cy="189.1" r=".8"/><circle cx="102.3" cy="199.2" r=".8"/><circle cx="102.3" cy="209.2" r=".8"/><circle cx="102.3" cy="219.3" r=".8"/><circle cx="102.3" cy="229.3" r=".8"/><circle cx="99.8" cy="144" r=".8"/><circle cx="99.8" cy="244.3" r=".8"/><circle cx="99.8" cy="154" r=".8"/><circle cx="99.8" cy="164" r=".8"/><circle cx="99.8" cy="174.1" r=".8"/><circle cx="99.8" cy="184.1" r=".8"/><circle cx="99.8" cy="194.2" r=".8"/><circle cx="99.8" cy="204.2" r=".8"/><circle cx="99.8" cy="214.2" r=".8"/><circle cx="99.8" cy="224.3" r=".8"/><circle cx="99.8" cy="234.3" r=".8"/><circle cx="107.8" cy="139" r=".8"/><circle cx="107.8" cy="239.3" r=".8"/><circle cx="107.8" cy="149" r=".8"/><circle cx="107.8" cy="159" r=".8"/><circle cx="107.8" cy="169.1" r=".8"/><circle cx="107.8" cy="179.1" r=".8"/><circle cx="107.8" cy="189.1" r=".8"/><circle cx="107.8" cy="199.2" r=".8"/><circle cx="107.8" cy="209.2" r=".8"/><circle cx="107.8" cy="219.3" r=".8"/><circle cx="107.8" cy="229.3" r=".8"/><circle cx="105.3" cy="144" r=".8"/><circle cx="105.3" cy="244.3" r=".8"/><circle cx="105.3" cy="154" r=".8"/><circle cx="105.3" cy="164" r=".8"/><circle cx="105.3" cy="174.1" r=".8"/><circle cx="105.3" cy="184.1" r=".8"/><circle cx="105.3" cy="194.2" r=".8"/><circle cx="105.3" cy="204.2" r=".8"/><circle cx="105.3" cy="214.2" r=".8"/><circle cx="105.3" cy="224.3" r=".8"/><circle cx="105.3" cy="234.3" r=".8"/><circle cx="113.3" cy="139" r=".8"/><circle cx="113.3" cy="239.3" r=".8"/><circle cx="113.3" cy="149" r=".8"/><circle cx="113.3" cy="159" r=".8"/><circle cx="113.3" cy="169.1" r=".8"/><circle cx="113.3" cy="179.1" r=".8"/><circle cx="113.3" cy="189.1" r=".8"/><circle cx="113.3" cy="199.2" r=".8"/><circle cx="113.3" cy="209.2" r=".8"/><circle cx="113.3" cy="219.3" r=".8"/><circle cx="113.3" cy="229.3" r=".8"/><circle cx="110.8" cy="144" r=".8"/><circle cx="110.8" cy="244.3" r=".8"/><circle cx="110.8" cy="154" r=".8"/><circle cx="110.8" cy="164" r=".8"/><circle cx="110.8" cy="174.1" r=".8"/><circle cx="110.8" cy="184.1" r=".8"/><circle cx="110.8" cy="194.2" r=".8"/><circle cx="110.8" cy="204.2" r=".8"/><circle cx="110.8" cy="214.2" r=".8"/><circle cx="110.8" cy="224.3" r=".8"/><circle cx="110.8" cy="234.3" r=".8"/><circle cx="118.8" cy="139" r=".8"/><circle cx="118.8" cy="239.3" r=".8"/><circle cx="118.8" cy="149" r=".8"/><circle cx="118.8" cy="159" r=".8"/><circle cx="118.8" cy="169.1" r=".8"/><circle cx="118.8" cy="179.1" r=".8"/><circle cx="118.8" cy="189.1" r=".8"/><circle cx="118.8" cy="199.2" r=".8"/><circle cx="118.8" cy="209.2" r=".8"/><circle cx="118.8" cy="219.3" r=".8"/><circle cx="118.8" cy="229.3" r=".8"/><circle cx="116.3" cy="144" r=".8"/><circle cx="116.3" cy="244.3" r=".8"/><circle cx="116.3" cy="154" r=".8"/><circle cx="116.3" cy="164" r=".8"/><circle cx="116.3" cy="174.1" r=".8"/><circle cx="116.3" cy="184.1" r=".8"/><circle cx="116.3" cy="194.2" r=".8"/><circle cx="116.3" cy="204.2" r=".8"/><circle cx="116.3" cy="214.2" r=".8"/><circle cx="116.3" cy="224.3" r=".8"/><circle cx="116.3" cy="234.3" r=".8"/><circle cx="124.8" cy="89.4" r=".8"/><circle cx="124.8" cy="99.4" r=".8"/><circle cx="124.8" cy="9.1" r=".8"/><circle cx="124.8" cy="109.4" r=".8"/><circle cx="124.8" cy="19.1" r=".8"/><circle cx="124.8" cy="119.5" r=".8"/><circle cx="124.8" cy="29.1" r=".8"/><circle cx="124.8" cy="129.5" r=".8"/><circle cx="124.8" cy="39.2" r=".8"/><circle cx="124.8" cy="49.2" r=".8"/><circle cx="124.8" cy="59.2" r=".8"/><circle cx="124.8" cy="69.3" r=".8"/><circle cx="124.8" cy="79.3" r=".8"/><circle cx="122.3" cy="94.4" r=".8"/><circle cx="122.3" cy="4" r=".8"/><circle cx="122.3" cy="104.4" r=".8"/><circle cx="122.3" cy="14.1" r=".8"/><circle cx="122.3" cy="114.5" r=".8"/><circle cx="122.3" cy="24.1" r=".8"/><circle cx="122.3" cy="124.5" r=".8"/><circle cx="122.3" cy="34.2" r=".8"/><circle cx="122.3" cy="134.5" r=".8"/><circle cx="122.3" cy="44.2" r=".8"/><circle cx="122.3" cy="54.2" r=".8"/><circle cx="122.3" cy="64.3" r=".8"/><circle cx="122.3" cy="74.3" r=".8"/><circle cx="122.3" cy="84.3" r=".8"/><circle cx="130.3" cy="89.4" r=".8"/><circle cx="130.3" cy="99.4" r=".8"/><circle cx="130.3" cy="9.1" r=".8"/><circle cx="130.3" cy="109.4" r=".8"/><circle cx="130.3" cy="19.1" r=".8"/><circle cx="130.3" cy="119.5" r=".8"/><circle cx="130.3" cy="29.1" r=".8"/><circle cx="130.3" cy="129.5" r=".8"/><circle cx="130.3" cy="39.2" r=".8"/><circle cx="130.3" cy="49.2" r=".8"/><circle cx="130.3" cy="59.2" r=".8"/><circle cx="130.3" cy="69.3" r=".8"/><circle cx="130.3" cy="79.3" r=".8"/><circle cx="127.8" cy="94.4" r=".8"/><circle cx="127.8" cy="4" r=".8"/><circle cx="127.8" cy="104.4" r=".8"/><circle cx="127.8" cy="14.1" r=".8"/><circle cx="127.8" cy="114.5" r=".8"/><circle cx="127.8" cy="24.1" r=".8"/><circle cx="127.8" cy="124.5" r=".8"/><circle cx="127.8" cy="34.2" r=".8"/><circle cx="127.8" cy="134.5" r=".8"/><circle cx="127.8" cy="44.2" r=".8"/><circle cx="127.8" cy="54.2" r=".8"/><circle cx="127.8" cy="64.3" r=".8"/><circle cx="127.8" cy="74.3" r=".8"/><circle cx="127.8" cy="84.3" r=".8"/><circle cx="135.8" cy="89.4" r=".8"/><circle cx="135.8" cy="99.4" r=".8"/><circle cx="135.8" cy="9.1" r=".8"/><circle cx="135.8" cy="109.4" r=".8"/><circle cx="135.8" cy="19.1" r=".8"/><circle cx="135.8" cy="119.5" r=".8"/><circle cx="135.8" cy="29.1" r=".8"/><circle cx="135.8" cy="129.5" r=".8"/><circle cx="135.8" cy="39.2" r=".8"/><circle cx="135.8" cy="49.2" r=".8"/><circle cx="135.8" cy="59.2" r=".8"/><circle cx="135.8" cy="69.3" r=".8"/><circle cx="135.8" cy="79.3" r=".8"/><circle cx="133.3" cy="94.4" r=".8"/><circle cx="133.3" cy="4" r=".8"/><circle cx="133.3" cy="104.4" r=".8"/><circle cx="133.3" cy="14.1" r=".8"/><circle cx="133.3" cy="114.5" r=".8"/><circle cx="133.3" cy="24.1" r=".8"/><circle cx="133.3" cy="124.5" r=".8"/><circle cx="133.3" cy="34.2" r=".8"/><circle cx="133.3" cy="134.5" r=".8"/><circle cx="133.3" cy="44.2" r=".8"/><circle cx="133.3" cy="54.2" r=".8"/><circle cx="133.3" cy="64.3" r=".8"/><circle cx="133.3" cy="74.3" r=".8"/><circle cx="133.3" cy="84.3" r=".8"/><circle cx="141.4" cy="89.4" r=".8"/><circle cx="141.4" cy="99.4" r=".8"/><circle cx="141.4" cy="9.1" r=".8"/><circle cx="141.4" cy="109.4" r=".8"/><circle cx="141.4" cy="19.1" r=".8"/><circle cx="141.4" cy="119.5" r=".8"/><circle cx="141.4" cy="29.1" r=".8"/><circle cx="141.4" cy="129.5" r=".8"/><circle cx="141.4" cy="39.2" r=".8"/><circle cx="141.4" cy="49.2" r=".8"/><circle cx="141.4" cy="59.2" r=".8"/><circle cx="141.4" cy="69.3" r=".8"/><circle cx="141.4" cy="79.3" r=".8"/><circle cx="138.9" cy="94.4" r=".8"/><circle cx="138.9" cy="4" r=".8"/><circle cx="138.9" cy="104.4" r=".8"/><circle cx="138.9" cy="14.1" r=".8"/><circle cx="138.9" cy="114.5" r=".8"/><circle cx="138.9" cy="24.1" r=".8"/><circle cx="138.9" cy="124.5" r=".8"/><circle cx="138.9" cy="34.2" r=".8"/><circle cx="138.9" cy="134.5" r=".8"/><circle cx="138.9" cy="44.2" r=".8"/><circle cx="138.9" cy="54.2" r=".8"/><circle cx="138.9" cy="64.3" r=".8"/><circle cx="138.9" cy="74.3" r=".8"/><circle cx="138.9" cy="84.3" r=".8"/><circle cx="146.9" cy="89.4" r=".8"/><circle cx="146.9" cy="99.4" r=".8"/><circle cx="146.9" cy="9.1" r=".8"/><circle cx="146.9" cy="109.4" r=".8"/><circle cx="146.9" cy="19.1" r=".8"/><circle cx="146.9" cy="119.5" r=".8"/><circle cx="146.9" cy="29.1" r=".8"/><circle cx="146.9" cy="129.5" r=".8"/><circle cx="146.9" cy="39.2" r=".8"/><circle cx="146.9" cy="49.2" r=".8"/><circle cx="146.9" cy="59.2" r=".8"/><circle cx="146.9" cy="69.3" r=".8"/><circle cx="146.9" cy="79.3" r=".8"/><circle cx="144.4" cy="94.4" r=".8"/><circle cx="144.4" cy="4" r=".8"/><circle cx="144.4" cy="104.4" r=".8"/><circle cx="144.4" cy="14.1" r=".8"/><circle cx="144.4" cy="114.5" r=".8"/><circle cx="144.4" cy="24.1" r=".8"/><circle cx="144.4" cy="124.5" r=".8"/><circle cx="144.4" cy="34.2" r=".8"/><circle cx="144.4" cy="134.5" r=".8"/><circle cx="144.4" cy="44.2" r=".8"/><circle cx="144.4" cy="54.2" r=".8"/><circle cx="144.4" cy="64.3" r=".8"/><circle cx="144.4" cy="74.3" r=".8"/><circle cx="144.4" cy="84.3" r=".8"/><circle cx="152.4" cy="89.4" r=".8"/><circle cx="152.4" cy="99.4" r=".8"/><circle cx="152.4" cy="9.1" r=".8"/><circle cx="152.4" cy="109.4" r=".8"/><circle cx="152.4" cy="19.1" r=".8"/><circle cx="152.4" cy="119.5" r=".8"/><circle cx="152.4" cy="29.1" r=".8"/><circle cx="152.4" cy="129.5" r=".8"/><circle cx="152.4" cy="39.2" r=".8"/><circle cx="152.4" cy="49.2" r=".8"/><circle cx="152.4" cy="59.2" r=".8"/><circle cx="152.4" cy="69.3" r=".8"/><circle cx="152.4" cy="79.3" r=".8"/><circle cx="149.9" cy="94.4" r=".8"/><circle cx="149.9" cy="4" r=".8"/><circle cx="149.9" cy="104.4" r=".8"/><circle cx="149.9" cy="14.1" r=".8"/><circle cx="149.9" cy="114.5" r=".8"/><circle cx="149.9" cy="24.1" r=".8"/><circle cx="149.9" cy="124.5" r=".8"/><circle cx="149.9" cy="34.2" r=".8"/><circle cx="149.9" cy="134.5" r=".8"/><circle cx="149.9" cy="44.2" r=".8"/><circle cx="149.9" cy="54.2" r=".8"/><circle cx="149.9" cy="64.3" r=".8"/><circle cx="149.9" cy="74.3" r=".8"/><circle cx="149.9" cy="84.3" r=".8"/><circle cx="157.9" cy="89.4" r=".8"/><circle cx="157.9" cy="99.4" r=".8"/><circle cx="157.9" cy="9.1" r=".8"/><circle cx="157.9" cy="109.4" r=".8"/><circle cx="157.9" cy="19.1" r=".8"/><circle cx="157.9" cy="119.5" r=".8"/><circle cx="157.9" cy="29.1" r=".8"/><circle cx="157.9" cy="129.5" r=".8"/><circle cx="157.9" cy="39.2" r=".8"/><circle cx="157.9" cy="49.2" r=".8"/><circle cx="157.9" cy="59.2" r=".8"/><circle cx="157.9" cy="69.3" r=".8"/><circle cx="157.9" cy="79.3" r=".8"/><circle cx="155.4" cy="94.4" r=".8"/><circle cx="155.4" cy="4" r=".8"/><circle cx="155.4" cy="104.4" r=".8"/><circle cx="155.4" cy="14.1" r=".8"/><circle cx="155.4" cy="114.5" r=".8"/><circle cx="155.4" cy="24.1" r=".8"/><circle cx="155.4" cy="124.5" r=".8"/><circle cx="155.4" cy="34.2" r=".8"/><circle cx="155.4" cy="134.5" r=".8"/><circle cx="155.4" cy="44.2" r=".8"/><circle cx="155.4" cy="54.2" r=".8"/><circle cx="155.4" cy="64.3" r=".8"/><circle cx="155.4" cy="74.3" r=".8"/><circle cx="155.4" cy="84.3" r=".8"/><circle cx="163.4" cy="89.4" r=".8"/><circle cx="163.4" cy="99.4" r=".8"/><circle cx="163.4" cy="9.1" r=".8"/><circle cx="163.4" cy="109.4" r=".8"/><circle cx="163.4" cy="19.1" r=".8"/><circle cx="163.4" cy="119.5" r=".8"/><circle cx="163.4" cy="29.1" r=".8"/><circle cx="163.4" cy="129.5" r=".8"/><circle cx="163.4" cy="39.2" r=".8"/><circle cx="163.4" cy="49.2" r=".8"/><circle cx="163.4" cy="59.2" r=".8"/><circle cx="163.4" cy="69.3" r=".8"/><circle cx="163.4" cy="79.3" r=".8"/><circle cx="160.9" cy="94.4" r=".8"/><circle cx="160.9" cy="4" r=".8"/><circle cx="160.9" cy="104.4" r=".8"/><circle cx="160.9" cy="14.1" r=".8"/><circle cx="160.9" cy="114.5" r=".8"/><circle cx="160.9" cy="24.1" r=".8"/><circle cx="160.9" cy="124.5" r=".8"/><circle cx="160.9" cy="34.2" r=".8"/><circle cx="160.9" cy="134.5" r=".8"/><circle cx="160.9" cy="44.2" r=".8"/><circle cx="160.9" cy="54.2" r=".8"/><circle cx="160.9" cy="64.3" r=".8"/><circle cx="160.9" cy="74.3" r=".8"/><circle cx="160.9" cy="84.3" r=".8"/><circle cx="169" cy="89.4" r=".8"/><circle cx="169" cy="99.4" r=".8"/><circle cx="169" cy="9.1" r=".8"/><circle cx="169" cy="109.4" r=".8"/><circle cx="169" cy="19.1" r=".8"/><circle cx="169" cy="119.5" r=".8"/><circle cx="169" cy="29.1" r=".8"/><circle cx="169" cy="129.5" r=".8"/><circle cx="169" cy="39.2" r=".8"/><circle cx="169" cy="49.2" r=".8"/><circle cx="169" cy="59.2" r=".8"/><circle cx="169" cy="69.3" r=".8"/><circle cx="169" cy="79.3" r=".8"/><circle cx="166.5" cy="94.4" r=".8"/><circle cx="166.5" cy="4" r=".8"/><circle cx="166.5" cy="104.4" r=".8"/><circle cx="166.5" cy="14.1" r=".8"/><circle cx="166.5" cy="114.5" r=".8"/><circle cx="166.5" cy="24.1" r=".8"/><circle cx="166.5" cy="124.5" r=".8"/><circle cx="166.5" cy="34.2" r=".8"/><circle cx="166.5" cy="134.5" r=".8"/><circle cx="166.5" cy="44.2" r=".8"/><circle cx="166.5" cy="54.2" r=".8"/><circle cx="166.5" cy="64.3" r=".8"/><circle cx="166.5" cy="74.3" r=".8"/><circle cx="166.5" cy="84.3" r=".8"/><circle cx="174.5" cy="89.4" r=".8"/><circle cx="174.5" cy="99.4" r=".8"/><circle cx="174.5" cy="9.1" r=".8"/><circle cx="174.5" cy="109.4" r=".8"/><circle cx="174.5" cy="19.1" r=".8"/><circle cx="174.5" cy="119.5" r=".8"/><circle cx="174.5" cy="29.1" r=".8"/><circle cx="174.5" cy="129.5" r=".8"/><circle cx="174.5" cy="39.2" r=".8"/><circle cx="174.5" cy="49.2" r=".8"/><circle cx="174.5" cy="59.2" r=".8"/><circle cx="174.5" cy="69.3" r=".8"/><circle cx="174.5" cy="79.3" r=".8"/><circle cx="172" cy="94.4" r=".8"/><circle cx="172" cy="4" r=".8"/><circle cx="172" cy="104.4" r=".8"/><circle cx="172" cy="14.1" r=".8"/><circle cx="172" cy="114.5" r=".8"/><circle cx="172" cy="24.1" r=".8"/><circle cx="172" cy="124.5" r=".8"/><circle cx="172" cy="34.2" r=".8"/><circle cx="172" cy="134.5" r=".8"/><circle cx="172" cy="44.2" r=".8"/><circle cx="172" cy="54.2" r=".8"/><circle cx="172" cy="64.3" r=".8"/><circle cx="172" cy="74.3" r=".8"/><circle cx="172" cy="84.3" r=".8"/><circle cx="180" cy="89.4" r=".8"/><circle cx="180" cy="99.4" r=".8"/><circle cx="180" cy="9.1" r=".8"/><circle cx="180" cy="109.4" r=".8"/><circle cx="180" cy="19.1" r=".8"/><circle cx="180" cy="119.5" r=".8"/><circle cx="180" cy="29.1" r=".8"/><circle cx="180" cy="129.5" r=".8"/><circle cx="180" cy="39.2" r=".8"/><circle cx="180" cy="49.2" r=".8"/><circle cx="180" cy="59.2" r=".8"/><circle cx="180" cy="69.3" r=".8"/><circle cx="180" cy="79.3" r=".8"/><circle cx="177.5" cy="94.4" r=".8"/><circle cx="177.5" cy="4" r=".8"/><circle cx="177.5" cy="104.4" r=".8"/><circle cx="177.5" cy="14.1" r=".8"/><circle cx="177.5" cy="114.5" r=".8"/><circle cx="177.5" cy="24.1" r=".8"/><circle cx="177.5" cy="124.5" r=".8"/><circle cx="177.5" cy="34.2" r=".8"/><circle cx="177.5" cy="134.5" r=".8"/><circle cx="177.5" cy="44.2" r=".8"/><circle cx="177.5" cy="54.2" r=".8"/><circle cx="177.5" cy="64.3" r=".8"/><circle cx="177.5" cy="74.3" r=".8"/><circle cx="177.5" cy="84.3" r=".8"/><circle cx="185.5" cy="89.4" r=".8"/><circle cx="185.5" cy="99.4" r=".8"/><circle cx="185.5" cy="9.1" r=".8"/><circle cx="185.5" cy="109.4" r=".8"/><circle cx="185.5" cy="19.1" r=".8"/><circle cx="185.5" cy="119.5" r=".8"/><circle cx="185.5" cy="29.1" r=".8"/><circle cx="185.5" cy="129.5" r=".8"/><circle cx="185.5" cy="39.2" r=".8"/><circle cx="185.5" cy="49.2" r=".8"/><circle cx="185.5" cy="59.2" r=".8"/><circle cx="185.5" cy="69.3" r=".8"/><circle cx="185.5" cy="79.3" r=".8"/><circle cx="183" cy="94.4" r=".8"/><circle cx="183" cy="4" r=".8"/><circle cx="183" cy="104.4" r=".8"/><circle cx="183" cy="14.1" r=".8"/><circle cx="183" cy="114.5" r=".8"/><circle cx="183" cy="24.1" r=".8"/><circle cx="183" cy="124.5" r=".8"/><circle cx="183" cy="34.2" r=".8"/><circle cx="183" cy="134.5" r=".8"/><circle cx="183" cy="44.2" r=".8"/><circle cx="183" cy="54.2" r=".8"/><circle cx="183" cy="64.3" r=".8"/><circle cx="183" cy="74.3" r=".8"/><circle cx="183" cy="84.3" r=".8"/><circle cx="191" cy="89.4" r=".8"/><circle cx="191" cy="99.4" r=".8"/><circle cx="191" cy="9.1" r=".8"/><circle cx="191" cy="109.4" r=".8"/><circle cx="191" cy="19.1" r=".8"/><circle cx="191" cy="119.5" r=".8"/><circle cx="191" cy="29.1" r=".8"/><circle cx="191" cy="129.5" r=".8"/><circle cx="191" cy="39.2" r=".8"/><circle cx="191" cy="49.2" r=".8"/><circle cx="191" cy="59.2" r=".8"/><circle cx="191" cy="69.3" r=".8"/><circle cx="191" cy="79.3" r=".8"/><circle cx="188.5" cy="94.4" r=".8"/><circle cx="188.5" cy="4" r=".8"/><circle cx="188.5" cy="104.4" r=".8"/><circle cx="188.5" cy="14.1" r=".8"/><circle cx="188.5" cy="114.5" r=".8"/><circle cx="188.5" cy="24.1" r=".8"/><circle cx="188.5" cy="124.5" r=".8"/><circle cx="188.5" cy="34.2" r=".8"/><circle cx="188.5" cy="134.5" r=".8"/><circle cx="188.5" cy="44.2" r=".8"/><circle cx="188.5" cy="54.2" r=".8"/><circle cx="188.5" cy="64.3" r=".8"/><circle cx="188.5" cy="74.3" r=".8"/><circle cx="188.5" cy="84.3" r=".8"/><circle cx="196.6" cy="89.4" r=".8"/><circle cx="196.6" cy="99.4" r=".8"/><circle cx="196.6" cy="9.1" r=".8"/><circle cx="196.6" cy="109.4" r=".8"/><circle cx="196.6" cy="19.1" r=".8"/><circle cx="196.6" cy="119.5" r=".8"/><circle cx="196.6" cy="29.1" r=".8"/><circle cx="196.6" cy="129.5" r=".8"/><circle cx="196.6" cy="39.2" r=".8"/><circle cx="196.6" cy="49.2" r=".8"/><circle cx="196.6" cy="59.2" r=".8"/><circle cx="196.6" cy="69.3" r=".8"/><circle cx="196.6" cy="79.3" r=".8"/><circle cx="194.1" cy="94.4" r=".8"/><circle cx="194.1" cy="4" r=".8"/><circle cx="194.1" cy="104.4" r=".8"/><circle cx="194.1" cy="14.1" r=".8"/><circle cx="194.1" cy="114.5" r=".8"/><circle cx="194.1" cy="24.1" r=".8"/><circle cx="194.1" cy="124.5" r=".8"/><circle cx="194.1" cy="34.2" r=".8"/><circle cx="194.1" cy="134.5" r=".8"/><circle cx="194.1" cy="44.2" r=".8"/><circle cx="194.1" cy="54.2" r=".8"/><circle cx="194.1" cy="64.3" r=".8"/><circle cx="194.1" cy="74.3" r=".8"/><circle cx="194.1" cy="84.3" r=".8"/><circle cx="202.1" cy="89.4" r=".8"/><circle cx="202.1" cy="99.4" r=".8"/><circle cx="202.1" cy="9.1" r=".8"/><circle cx="202.1" cy="109.4" r=".8"/><circle cx="202.1" cy="19.1" r=".8"/><circle cx="202.1" cy="119.5" r=".8"/><circle cx="202.1" cy="29.1" r=".8"/><circle cx="202.1" cy="129.5" r=".8"/><circle cx="202.1" cy="39.2" r=".8"/><circle cx="202.1" cy="49.2" r=".8"/><circle cx="202.1" cy="59.2" r=".8"/><circle cx="202.1" cy="69.3" r=".8"/><circle cx="202.1" cy="79.3" r=".8"/><circle cx="199.6" cy="94.4" r=".8"/><circle cx="199.6" cy="4" r=".8"/><circle cx="199.6" cy="104.4" r=".8"/><circle cx="199.6" cy="14.1" r=".8"/><circle cx="199.6" cy="114.5" r=".8"/><circle cx="199.6" cy="24.1" r=".8"/><circle cx="199.6" cy="124.5" r=".8"/><circle cx="199.6" cy="34.2" r=".8"/><circle cx="199.6" cy="134.5" r=".8"/><circle cx="199.6" cy="44.2" r=".8"/><circle cx="199.6" cy="54.2" r=".8"/><circle cx="199.6" cy="64.3" r=".8"/><circle cx="199.6" cy="74.3" r=".8"/><circle cx="199.6" cy="84.3" r=".8"/><circle cx="207.6" cy="89.4" r=".8"/><circle cx="207.6" cy="99.4" r=".8"/><circle cx="207.6" cy="9.1" r=".8"/><circle cx="207.6" cy="109.4" r=".8"/><circle cx="207.6" cy="19.1" r=".8"/><circle cx="207.6" cy="119.5" r=".8"/><circle cx="207.6" cy="29.1" r=".8"/><circle cx="207.6" cy="129.5" r=".8"/><circle cx="207.6" cy="39.2" r=".8"/><circle cx="207.6" cy="49.2" r=".8"/><circle cx="207.6" cy="59.2" r=".8"/><circle cx="207.6" cy="69.3" r=".8"/><circle cx="207.6" cy="79.3" r=".8"/><circle cx="205.1" cy="94.4" r=".8"/><circle cx="205.1" cy="4" r=".8"/><circle cx="205.1" cy="104.4" r=".8"/><circle cx="205.1" cy="14.1" r=".8"/><circle cx="205.1" cy="114.5" r=".8"/><circle cx="205.1" cy="24.1" r=".8"/><circle cx="205.1" cy="124.5" r=".8"/><circle cx="205.1" cy="34.2" r=".8"/><circle cx="205.1" cy="134.5" r=".8"/><circle cx="205.1" cy="44.2" r=".8"/><circle cx="205.1" cy="54.2" r=".8"/><circle cx="205.1" cy="64.3" r=".8"/><circle cx="205.1" cy="74.3" r=".8"/><circle cx="205.1" cy="84.3" r=".8"/><circle cx="213.1" cy="89.4" r=".8"/><circle cx="213.1" cy="99.4" r=".8"/><circle cx="213.1" cy="9.1" r=".8"/><circle cx="213.1" cy="109.4" r=".8"/><circle cx="213.1" cy="19.1" r=".8"/><circle cx="213.1" cy="119.5" r=".8"/><circle cx="213.1" cy="29.1" r=".8"/><circle cx="213.1" cy="129.5" r=".8"/><circle cx="213.1" cy="39.2" r=".8"/><circle cx="213.1" cy="49.2" r=".8"/><circle cx="213.1" cy="59.2" r=".8"/><circle cx="213.1" cy="69.3" r=".8"/><circle cx="213.1" cy="79.3" r=".8"/><circle cx="210.6" cy="94.4" r=".8"/><circle cx="210.6" cy="4" r=".8"/><circle cx="210.6" cy="104.4" r=".8"/><circle cx="210.6" cy="14.1" r=".8"/><circle cx="210.6" cy="114.5" r=".8"/><circle cx="210.6" cy="24.1" r=".8"/><circle cx="210.6" cy="124.5" r=".8"/><circle cx="210.6" cy="34.2" r=".8"/><circle cx="210.6" cy="134.5" r=".8"/><circle cx="210.6" cy="44.2" r=".8"/><circle cx="210.6" cy="54.2" r=".8"/><circle cx="210.6" cy="64.3" r=".8"/><circle cx="210.6" cy="74.3" r=".8"/><circle cx="210.6" cy="84.3" r=".8"/><circle cx="218.6" cy="89.4" r=".8"/><circle cx="218.6" cy="99.4" r=".8"/><circle cx="218.6" cy="9.1" r=".8"/><circle cx="218.6" cy="109.4" r=".8"/><circle cx="218.6" cy="19.1" r=".8"/><circle cx="218.6" cy="119.5" r=".8"/><circle cx="218.6" cy="29.1" r=".8"/><circle cx="218.6" cy="129.5" r=".8"/><circle cx="218.6" cy="39.2" r=".8"/><circle cx="218.6" cy="49.2" r=".8"/><circle cx="218.6" cy="59.2" r=".8"/><circle cx="218.6" cy="69.3" r=".8"/><circle cx="218.6" cy="79.3" r=".8"/><circle cx="216.1" cy="94.4" r=".8"/><circle cx="216.1" cy="4" r=".8"/><circle cx="216.1" cy="104.4" r=".8"/><circle cx="216.1" cy="14.1" r=".8"/><circle cx="216.1" cy="114.5" r=".8"/><circle cx="216.1" cy="24.1" r=".8"/><circle cx="216.1" cy="124.5" r=".8"/><circle cx="216.1" cy="34.2" r=".8"/><circle cx="216.1" cy="134.5" r=".8"/><circle cx="216.1" cy="44.2" r=".8"/><circle cx="216.1" cy="54.2" r=".8"/><circle cx="216.1" cy="64.3" r=".8"/><circle cx="216.1" cy="74.3" r=".8"/><circle cx="216.1" cy="84.3" r=".8"/><circle cx="224.2" cy="89.4" r=".8"/><circle cx="224.2" cy="99.4" r=".8"/><circle cx="224.2" cy="9.1" r=".8"/><circle cx="224.2" cy="109.4" r=".8"/><circle cx="224.2" cy="19.1" r=".8"/><circle cx="224.2" cy="119.5" r=".8"/><circle cx="224.2" cy="29.1" r=".8"/><circle cx="224.2" cy="129.5" r=".8"/><circle cx="224.2" cy="39.2" r=".8"/><circle cx="224.2" cy="49.2" r=".8"/><circle cx="224.2" cy="59.2" r=".8"/><circle cx="224.2" cy="69.3" r=".8"/><circle cx="224.2" cy="79.3" r=".8"/><circle cx="221.7" cy="94.4" r=".8"/><circle cx="221.7" cy="4" r=".8"/><circle cx="221.7" cy="104.4" r=".8"/><circle cx="221.7" cy="14.1" r=".8"/><circle cx="221.7" cy="114.5" r=".8"/><circle cx="221.7" cy="24.1" r=".8"/><circle cx="221.7" cy="124.5" r=".8"/><circle cx="221.7" cy="34.2" r=".8"/><circle cx="221.7" cy="134.5" r=".8"/><circle cx="221.7" cy="44.2" r=".8"/><circle cx="221.7" cy="54.2" r=".8"/><circle cx="221.7" cy="64.3" r=".8"/><circle cx="221.7" cy="74.3" r=".8"/><circle cx="221.7" cy="84.3" r=".8"/><circle cx="124.8" cy="139" r=".8"/><circle cx="124.8" cy="239.3" r=".8"/><circle cx="124.8" cy="149" r=".8"/><circle cx="124.8" cy="159" r=".8"/><circle cx="124.8" cy="169.1" r=".8"/><circle cx="124.8" cy="179.1" r=".8"/><circle cx="124.8" cy="189.1" r=".8"/><circle cx="124.8" cy="199.2" r=".8"/><circle cx="124.8" cy="209.2" r=".8"/><circle cx="124.8" cy="219.3" r=".8"/><circle cx="124.8" cy="229.3" r=".8"/><circle cx="122.3" cy="144" r=".8"/><circle cx="122.3" cy="244.3" r=".8"/><circle cx="122.3" cy="154" r=".8"/><circle cx="122.3" cy="164" r=".8"/><circle cx="122.3" cy="174.1" r=".8"/><circle cx="122.3" cy="184.1" r=".8"/><circle cx="122.3" cy="194.2" r=".8"/><circle cx="122.3" cy="204.2" r=".8"/><circle cx="122.3" cy="214.2" r=".8"/><circle cx="122.3" cy="224.3" r=".8"/><circle cx="122.3" cy="234.3" r=".8"/><circle cx="130.3" cy="139" r=".8"/><circle cx="130.3" cy="239.3" r=".8"/><circle cx="130.3" cy="149" r=".8"/><circle cx="130.3" cy="159" r=".8"/><circle cx="130.3" cy="169.1" r=".8"/><circle cx="130.3" cy="179.1" r=".8"/><circle cx="130.3" cy="189.1" r=".8"/><circle cx="130.3" cy="199.2" r=".8"/><circle cx="130.3" cy="209.2" r=".8"/><circle cx="130.3" cy="219.3" r=".8"/><circle cx="130.3" cy="229.3" r=".8"/><circle cx="127.8" cy="144" r=".8"/><circle cx="127.8" cy="244.3" r=".8"/><circle cx="127.8" cy="154" r=".8"/><circle cx="127.8" cy="164" r=".8"/><circle cx="127.8" cy="174.1" r=".8"/><circle cx="127.8" cy="184.1" r=".8"/><circle cx="127.8" cy="194.2" r=".8"/><circle cx="127.8" cy="204.2" r=".8"/><circle cx="127.8" cy="214.2" r=".8"/><circle cx="127.8" cy="224.3" r=".8"/><circle cx="127.8" cy="234.3" r=".8"/><circle cx="135.8" cy="139" r=".8"/><circle cx="135.8" cy="239.3" r=".8"/><circle cx="135.8" cy="149" r=".8"/><circle cx="135.8" cy="159" r=".8"/><circle cx="135.8" cy="169.1" r=".8"/><circle cx="135.8" cy="179.1" r=".8"/><circle cx="135.8" cy="189.1" r=".8"/><circle cx="135.8" cy="199.2" r=".8"/><circle cx="135.8" cy="209.2" r=".8"/><circle cx="135.8" cy="219.3" r=".8"/><circle cx="135.8" cy="229.3" r=".8"/><circle cx="133.3" cy="144" r=".8"/><circle cx="133.3" cy="244.3" r=".8"/><circle cx="133.3" cy="154" r=".8"/><circle cx="133.3" cy="164" r=".8"/><circle cx="133.3" cy="174.1" r=".8"/><circle cx="133.3" cy="184.1" r=".8"/><circle cx="133.3" cy="194.2" r=".8"/><circle cx="133.3" cy="204.2" r=".8"/><circle cx="133.3" cy="214.2" r=".8"/><circle cx="133.3" cy="224.3" r=".8"/><circle cx="133.3" cy="234.3" r=".8"/><circle cx="141.4" cy="139" r=".8"/><circle cx="141.4" cy="239.3" r=".8"/><circle cx="141.4" cy="149" r=".8"/><circle cx="141.4" cy="159" r=".8"/><circle cx="141.4" cy="169.1" r=".8"/><circle cx="141.4" cy="179.1" r=".8"/><circle cx="141.4" cy="189.1" r=".8"/><circle cx="141.4" cy="199.2" r=".8"/><circle cx="141.4" cy="209.2" r=".8"/><circle cx="141.4" cy="219.3" r=".8"/><circle cx="141.4" cy="229.3" r=".8"/><circle cx="138.9" cy="144" r=".8"/><circle cx="138.9" cy="244.3" r=".8"/><circle cx="138.9" cy="154" r=".8"/><circle cx="138.9" cy="164" r=".8"/><circle cx="138.9" cy="174.1" r=".8"/><circle cx="138.9" cy="184.1" r=".8"/><circle cx="138.9" cy="194.2" r=".8"/><circle cx="138.9" cy="204.2" r=".8"/><circle cx="138.9" cy="214.2" r=".8"/><circle cx="138.9" cy="224.3" r=".8"/><circle cx="138.9" cy="234.3" r=".8"/><circle cx="146.9" cy="139" r=".8"/><circle cx="146.9" cy="239.3" r=".8"/><circle cx="146.9" cy="149" r=".8"/><circle cx="146.9" cy="159" r=".8"/><circle cx="146.9" cy="169.1" r=".8"/><circle cx="146.9" cy="179.1" r=".8"/><circle cx="146.9" cy="189.1" r=".8"/><circle cx="146.9" cy="199.2" r=".8"/><circle cx="146.9" cy="209.2" r=".8"/><circle cx="146.9" cy="219.3" r=".8"/><circle cx="146.9" cy="229.3" r=".8"/><circle cx="144.4" cy="144" r=".8"/><circle cx="144.4" cy="244.3" r=".8"/><circle cx="144.4" cy="154" r=".8"/><circle cx="144.4" cy="164" r=".8"/><circle cx="144.4" cy="174.1" r=".8"/><circle cx="144.4" cy="184.1" r=".8"/><circle cx="144.4" cy="194.2" r=".8"/><circle cx="144.4" cy="204.2" r=".8"/><circle cx="144.4" cy="214.2" r=".8"/><circle cx="144.4" cy="224.3" r=".8"/><circle cx="144.4" cy="234.3" r=".8"/><circle cx="152.4" cy="139" r=".8"/><circle cx="152.4" cy="239.3" r=".8"/><circle cx="152.4" cy="149" r=".8"/><circle cx="152.4" cy="159" r=".8"/><circle cx="152.4" cy="169.1" r=".8"/><circle cx="152.4" cy="179.1" r=".8"/><circle cx="152.4" cy="189.1" r=".8"/><circle cx="152.4" cy="199.2" r=".8"/><circle cx="152.4" cy="209.2" r=".8"/><circle cx="152.4" cy="219.3" r=".8"/><circle cx="152.4" cy="229.3" r=".8"/><circle cx="149.9" cy="144" r=".8"/><circle cx="149.9" cy="244.3" r=".8"/><circle cx="149.9" cy="154" r=".8"/><circle cx="149.9" cy="164" r=".8"/><circle cx="149.9" cy="174.1" r=".8"/><circle cx="149.9" cy="184.1" r=".8"/><circle cx="149.9" cy="194.2" r=".8"/><circle cx="149.9" cy="204.2" r=".8"/><circle cx="149.9" cy="214.2" r=".8"/><circle cx="149.9" cy="224.3" r=".8"/><circle cx="149.9" cy="234.3" r=".8"/><circle cx="157.9" cy="139" r=".8"/><circle cx="157.9" cy="239.3" r=".8"/><circle cx="157.9" cy="149" r=".8"/><circle cx="157.9" cy="159" r=".8"/><circle cx="157.9" cy="169.1" r=".8"/><circle cx="157.9" cy="179.1" r=".8"/><circle cx="157.9" cy="189.1" r=".8"/><circle cx="157.9" cy="199.2" r=".8"/><circle cx="157.9" cy="209.2" r=".8"/><circle cx="157.9" cy="219.3" r=".8"/><circle cx="157.9" cy="229.3" r=".8"/><circle cx="155.4" cy="144" r=".8"/><circle cx="155.4" cy="244.3" r=".8"/><circle cx="155.4" cy="154" r=".8"/><circle cx="155.4" cy="164" r=".8"/><circle cx="155.4" cy="174.1" r=".8"/><circle cx="155.4" cy="184.1" r=".8"/><circle cx="155.4" cy="194.2" r=".8"/><circle cx="155.4" cy="204.2" r=".8"/><circle cx="155.4" cy="214.2" r=".8"/><circle cx="155.4" cy="224.3" r=".8"/><circle cx="155.4" cy="234.3" r=".8"/><circle cx="163.4" cy="139" r=".8"/><circle cx="163.4" cy="239.3" r=".8"/><circle cx="163.4" cy="149" r=".8"/><circle cx="163.4" cy="159" r=".8"/><circle cx="163.4" cy="169.1" r=".8"/><circle cx="163.4" cy="179.1" r=".8"/><circle cx="163.4" cy="189.1" r=".8"/><circle cx="163.4" cy="199.2" r=".8"/><circle cx="163.4" cy="209.2" r=".8"/><circle cx="163.4" cy="219.3" r=".8"/><circle cx="163.4" cy="229.3" r=".8"/><circle cx="160.9" cy="144" r=".8"/><circle cx="160.9" cy="244.3" r=".8"/><circle cx="160.9" cy="154" r=".8"/><circle cx="160.9" cy="164" r=".8"/><circle cx="160.9" cy="174.1" r=".8"/><circle cx="160.9" cy="184.1" r=".8"/><circle cx="160.9" cy="194.2" r=".8"/><circle cx="160.9" cy="204.2" r=".8"/><circle cx="160.9" cy="214.2" r=".8"/><circle cx="160.9" cy="224.3" r=".8"/><circle cx="160.9" cy="234.3" r=".8"/><circle cx="169" cy="139" r=".8"/><circle cx="169" cy="239.3" r=".8"/><circle cx="169" cy="149" r=".8"/><circle cx="169" cy="159" r=".8"/><circle cx="169" cy="169.1" r=".8"/><circle cx="169" cy="179.1" r=".8"/><circle cx="169" cy="189.1" r=".8"/><circle cx="169" cy="199.2" r=".8"/><circle cx="169" cy="209.2" r=".8"/><circle cx="169" cy="219.3" r=".8"/><circle cx="169" cy="229.3" r=".8"/><circle cx="166.5" cy="144" r=".8"/><circle cx="166.5" cy="244.3" r=".8"/><circle cx="166.5" cy="154" r=".8"/><circle cx="166.5" cy="164" r=".8"/><circle cx="166.5" cy="174.1" r=".8"/><circle cx="166.5" cy="184.1" r=".8"/><circle cx="166.5" cy="194.2" r=".8"/><circle cx="166.5" cy="204.2" r=".8"/><circle cx="166.5" cy="214.2" r=".8"/><circle cx="166.5" cy="224.3" r=".8"/><circle cx="166.5" cy="234.3" r=".8"/><circle cx="174.5" cy="139" r=".8"/><circle cx="174.5" cy="239.3" r=".8"/><circle cx="174.5" cy="149" r=".8"/><circle cx="174.5" cy="159" r=".8"/><circle cx="174.5" cy="169.1" r=".8"/><circle cx="174.5" cy="179.1" r=".8"/><circle cx="174.5" cy="189.1" r=".8"/><circle cx="174.5" cy="199.2" r=".8"/><circle cx="174.5" cy="209.2" r=".8"/><circle cx="174.5" cy="219.3" r=".8"/><circle cx="174.5" cy="229.3" r=".8"/><circle cx="172" cy="144" r=".8"/><circle cx="172" cy="244.3" r=".8"/><circle cx="172" cy="154" r=".8"/><circle cx="172" cy="164" r=".8"/><circle cx="172" cy="174.1" r=".8"/><circle cx="172" cy="184.1" r=".8"/><circle cx="172" cy="194.2" r=".8"/><circle cx="172" cy="204.2" r=".8"/><circle cx="172" cy="214.2" r=".8"/><circle cx="172" cy="224.3" r=".8"/><circle cx="172" cy="234.3" r=".8"/><circle cx="180" cy="139" r=".8"/><circle cx="180" cy="239.3" r=".8"/><circle cx="180" cy="149" r=".8"/><circle cx="180" cy="159" r=".8"/><circle cx="180" cy="169.1" r=".8"/><circle cx="180" cy="179.1" r=".8"/><circle cx="180" cy="189.1" r=".8"/><circle cx="180" cy="199.2" r=".8"/><circle cx="180" cy="209.2" r=".8"/><circle cx="180" cy="219.3" r=".8"/><circle cx="180" cy="229.3" r=".8"/><circle cx="177.5" cy="144" r=".8"/><circle cx="177.5" cy="244.3" r=".8"/><circle cx="177.5" cy="154" r=".8"/><circle cx="177.5" cy="164" r=".8"/><circle cx="177.5" cy="174.1" r=".8"/><circle cx="177.5" cy="184.1" r=".8"/><circle cx="177.5" cy="194.2" r=".8"/><circle cx="177.5" cy="204.2" r=".8"/><circle cx="177.5" cy="214.2" r=".8"/><circle cx="177.5" cy="224.3" r=".8"/><circle cx="177.5" cy="234.3" r=".8"/><circle cx="185.5" cy="139" r=".8"/><circle cx="185.5" cy="239.3" r=".8"/><circle cx="185.5" cy="149" r=".8"/><circle cx="185.5" cy="159" r=".8"/><circle cx="185.5" cy="169.1" r=".8"/><circle cx="185.5" cy="179.1" r=".8"/><circle cx="185.5" cy="189.1" r=".8"/><circle cx="185.5" cy="199.2" r=".8"/><circle cx="185.5" cy="209.2" r=".8"/><circle cx="185.5" cy="219.3" r=".8"/><circle cx="185.5" cy="229.3" r=".8"/><circle cx="183" cy="144" r=".8"/><circle cx="183" cy="244.3" r=".8"/><circle cx="183" cy="154" r=".8"/><circle cx="183" cy="164" r=".8"/><circle cx="183" cy="174.1" r=".8"/><circle cx="183" cy="184.1" r=".8"/><circle cx="183" cy="194.2" r=".8"/><circle cx="183" cy="204.2" r=".8"/><circle cx="183" cy="214.2" r=".8"/><circle cx="183" cy="224.3" r=".8"/><circle cx="183" cy="234.3" r=".8"/><circle cx="191" cy="139" r=".8"/><circle cx="191" cy="239.3" r=".8"/><circle cx="191" cy="149" r=".8"/><circle cx="191" cy="159" r=".8"/><circle cx="191" cy="169.1" r=".8"/><circle cx="191" cy="179.1" r=".8"/><circle cx="191" cy="189.1" r=".8"/><circle cx="191" cy="199.2" r=".8"/><circle cx="191" cy="209.2" r=".8"/><circle cx="191" cy="219.3" r=".8"/><circle cx="191" cy="229.3" r=".8"/><circle cx="188.5" cy="144" r=".8"/><circle cx="188.5" cy="244.3" r=".8"/><circle cx="188.5" cy="154" r=".8"/><circle cx="188.5" cy="164" r=".8"/><circle cx="188.5" cy="174.1" r=".8"/><circle cx="188.5" cy="184.1" r=".8"/><circle cx="188.5" cy="194.2" r=".8"/><circle cx="188.5" cy="204.2" r=".8"/><circle cx="188.5" cy="214.2" r=".8"/><circle cx="188.5" cy="224.3" r=".8"/><circle cx="188.5" cy="234.3" r=".8"/><circle cx="196.6" cy="139" r=".8"/><circle cx="196.6" cy="239.3" r=".8"/><circle cx="196.6" cy="149" r=".8"/><circle cx="196.6" cy="159" r=".8"/><circle cx="196.6" cy="169.1" r=".8"/><circle cx="196.6" cy="179.1" r=".8"/><circle cx="196.6" cy="189.1" r=".8"/><circle cx="196.6" cy="199.2" r=".8"/><circle cx="196.6" cy="209.2" r=".8"/><circle cx="196.6" cy="219.3" r=".8"/><circle cx="196.6" cy="229.3" r=".8"/><circle cx="194.1" cy="144" r=".8"/><circle cx="194.1" cy="244.3" r=".8"/><circle cx="194.1" cy="154" r=".8"/><circle cx="194.1" cy="164" r=".8"/><circle cx="194.1" cy="174.1" r=".8"/><circle cx="194.1" cy="184.1" r=".8"/><circle cx="194.1" cy="194.2" r=".8"/><circle cx="194.1" cy="204.2" r=".8"/><circle cx="194.1" cy="214.2" r=".8"/><circle cx="194.1" cy="224.3" r=".8"/><circle cx="194.1" cy="234.3" r=".8"/><circle cx="202.1" cy="139" r=".8"/><circle cx="202.1" cy="239.3" r=".8"/><circle cx="202.1" cy="149" r=".8"/><circle cx="202.1" cy="159" r=".8"/><circle cx="202.1" cy="169.1" r=".8"/><circle cx="202.1" cy="179.1" r=".8"/><circle cx="202.1" cy="189.1" r=".8"/><circle cx="202.1" cy="199.2" r=".8"/><circle cx="202.1" cy="209.2" r=".8"/><circle cx="202.1" cy="219.3" r=".8"/><circle cx="202.1" cy="229.3" r=".8"/><circle cx="199.6" cy="144" r=".8"/><circle cx="199.6" cy="244.3" r=".8"/><circle cx="199.6" cy="154" r=".8"/><circle cx="199.6" cy="164" r=".8"/><circle cx="199.6" cy="174.1" r=".8"/><circle cx="199.6" cy="184.1" r=".8"/><circle cx="199.6" cy="194.2" r=".8"/><circle cx="199.6" cy="204.2" r=".8"/><circle cx="199.6" cy="214.2" r=".8"/><circle cx="199.6" cy="224.3" r=".8"/><circle cx="199.6" cy="234.3" r=".8"/><circle cx="207.6" cy="139" r=".8"/><circle cx="207.6" cy="239.3" r=".8"/><circle cx="207.6" cy="149" r=".8"/><circle cx="207.6" cy="159" r=".8"/><circle cx="207.6" cy="169.1" r=".8"/><circle cx="207.6" cy="179.1" r=".8"/><circle cx="207.6" cy="189.1" r=".8"/><circle cx="207.6" cy="199.2" r=".8"/><circle cx="207.6" cy="209.2" r=".8"/><circle cx="207.6" cy="219.3" r=".8"/><circle cx="207.6" cy="229.3" r=".8"/><circle cx="205.1" cy="144" r=".8"/><circle cx="205.1" cy="244.3" r=".8"/><circle cx="205.1" cy="154" r=".8"/><circle cx="205.1" cy="164" r=".8"/><circle cx="205.1" cy="174.1" r=".8"/><circle cx="205.1" cy="184.1" r=".8"/><circle cx="205.1" cy="194.2" r=".8"/><circle cx="205.1" cy="204.2" r=".8"/><circle cx="205.1" cy="214.2" r=".8"/><circle cx="205.1" cy="224.3" r=".8"/><circle cx="205.1" cy="234.3" r=".8"/><circle cx="213.1" cy="139" r=".8"/><circle cx="213.1" cy="239.3" r=".8"/><circle cx="213.1" cy="149" r=".8"/><circle cx="213.1" cy="159" r=".8"/><circle cx="213.1" cy="169.1" r=".8"/><circle cx="213.1" cy="179.1" r=".8"/><circle cx="213.1" cy="189.1" r=".8"/><circle cx="213.1" cy="199.2" r=".8"/><circle cx="213.1" cy="209.2" r=".8"/><circle cx="213.1" cy="219.3" r=".8"/><circle cx="213.1" cy="229.3" r=".8"/><circle cx="210.6" cy="144" r=".8"/><circle cx="210.6" cy="244.3" r=".8"/><circle cx="210.6" cy="154" r=".8"/><circle cx="210.6" cy="164" r=".8"/><circle cx="210.6" cy="174.1" r=".8"/><circle cx="210.6" cy="184.1" r=".8"/><circle cx="210.6" cy="194.2" r=".8"/><circle cx="210.6" cy="204.2" r=".8"/><circle cx="210.6" cy="214.2" r=".8"/><circle cx="210.6" cy="224.3" r=".8"/><circle cx="210.6" cy="234.3" r=".8"/><circle cx="218.6" cy="139" r=".8"/><circle cx="218.6" cy="239.3" r=".8"/><circle cx="218.6" cy="149" r=".8"/><circle cx="218.6" cy="159" r=".8"/><circle cx="218.6" cy="169.1" r=".8"/><circle cx="218.6" cy="179.1" r=".8"/><circle cx="218.6" cy="189.1" r=".8"/><circle cx="218.6" cy="199.2" r=".8"/><circle cx="218.6" cy="209.2" r=".8"/><circle cx="218.6" cy="219.3" r=".8"/><circle cx="218.6" cy="229.3" r=".8"/><circle cx="216.1" cy="144" r=".8"/><circle cx="216.1" cy="244.3" r=".8"/><circle cx="216.1" cy="154" r=".8"/><circle cx="216.1" cy="164" r=".8"/><circle cx="216.1" cy="174.1" r=".8"/><circle cx="216.1" cy="184.1" r=".8"/><circle cx="216.1" cy="194.2" r=".8"/><circle cx="216.1" cy="204.2" r=".8"/><circle cx="216.1" cy="214.2" r=".8"/><circle cx="216.1" cy="224.3" r=".8"/><circle cx="216.1" cy="234.3" r=".8"/><circle cx="224.2" cy="139" r=".8"/><circle cx="224.2" cy="239.3" r=".8"/><circle cx="224.2" cy="149" r=".8"/><circle cx="224.2" cy="159" r=".8"/><circle cx="224.2" cy="169.1" r=".8"/><circle cx="224.2" cy="179.1" r=".8"/><circle cx="224.2" cy="189.1" r=".8"/><circle cx="224.2" cy="199.2" r=".8"/><circle cx="224.2" cy="209.2" r=".8"/><circle cx="224.2" cy="219.3" r=".8"/><circle cx="224.2" cy="229.3" r=".8"/><circle cx="221.7" cy="144" r=".8"/><circle cx="221.7" cy="244.3" r=".8"/><circle cx="221.7" cy="154" r=".8"/><circle cx="221.7" cy="164" r=".8"/><circle cx="221.7" cy="174.1" r=".8"/><circle cx="221.7" cy="184.1" r=".8"/><circle cx="221.7" cy="194.2" r=".8"/><circle cx="221.7" cy="204.2" r=".8"/><circle cx="221.7" cy="214.2" r=".8"/><circle cx="221.7" cy="224.3" r=".8"/><circle cx="221.7" cy="234.3" r=".8"/></g><path fill="#beb5a8" d="M115.2 41.2c1 .3 1.3.3 2.4.2 1.2.3 4.4.5 5.7.3l.1.2c1.2 1.5 2 1.2 3.8 1.5 9.4 1.5 13.3 16.5 17 24 6.3 13 14.7 29.3 26.3 38.3 0 1.8-.3 7.9 2.3 7.8 1.7-.1 3.4-1.7 4.9-2.6l.2.1c4 2.2 8.4 3 9.7 8.3 2.1 8.6-1.4 21.7-10.7 24.6q-2.2.5-4.6.3c0-2.2.8-4.7-1.4-5.7-2 .1-2.6 3.1-2.8 4.8a65 65 0 0 1-3 13.6 66 66 0 0 1-7.3 15.1c-7.5 11.8-23 27.4-37.7 29.6-13.1 2-26-5.9-36-13.4-15.7-11.5-23.7-29-28.6-47.2-1.1-4-3.2-10.8-3.6-15q3.7-4.2 7-8.9c1-1.5 5-8 6.3-8.9a38 38 0 0 1 15.2-3.5c3.2-.2 7.7.3 11 .1l.4-.4c.8-2.7-2.6-3.3-4.6-3.7a44 44 0 0 0-19.2 1.6c4.2-7.3 8-17.3 11.2-25 4-9.2 7.6-23.2 14.2-30.4 1.3-.1 3-1 4.2-1.5 4-2 8-3 12.4-3.5 1.4-.2 4.1-.1 5.2-.7"/><path fill="#000" d="M128.6 160.7h.7c4.5 2 .3 4.8-1 5.8a37 37 0 0 1-18.3 6c-2.9.2-7-.7-9.8-1.3-1.5-.6-4-1.7-2.9-3.6 2-1.5 4.4-.2 6.9 0a30 30 0 0 0 24.4-6.9m11-68.6c2.2 0 14 .3 12.1 4.4-1.5 1-4.5-.2-7-.3-6.4-.3-10.3 0-16.6 1.2-2.5.6-8.3 2.8-10 2.5-1.4-1.6.7-3.2 2.2-4 6-3 12.6-3.6 19.2-3.8"/><path fill="#000" d="M48.4 130.3c-4.6 4.9-9.5 9.6-13.7 14.7a54 54 0 0 0-13 42.6c.2 1 1 3.2.9 4-1.3 2.2-3 1-3.8-.9-4.7-11.5-1-24.6 4-35.4 5.5-12 15.4-20.4 24-30a127 127 0 0 0 13.8-18.8A222 222 0 0 0 76 73.3c3.5-8.7 6.3-18 11.6-25.9 4.8-7.1 12.7-12.5 21.6-12 2.6 0 8.5 1.3 9 4.6q0 1-.8 1.8c-1.1.2-1.3.2-2.4-.2-1 .6-3.8.6-5.2.7-4.3.6-8.3 1.5-12.3 3.5-1.2.6-2.8 1.4-4.1 1.5-6.6 7.1-10.2 21-14.1 30.1-3.4 7.7-7 17.6-11.2 24.9a44 44 0 0 1 19.1-1.6c2 .4 5.4 1 4.6 3.7l-.5.4c-3.2.2-7.7-.3-10.9-.1-4.3.2-11.7 1.3-15.1 3.5-1.3.8-5.2 7.3-6.3 8.8q-3.2 4.7-6.8 9c.3 4 2.4 10.7 3.5 14.7 4.9 18.1 12.8 35.5 28.3 47 10 7.3 22.9 15.1 36 13.2 14.5-2.2 29.9-17.7 37.4-29.4a65 65 0 0 0 7.1-15c1.6-4.6 2.6-8.7 3.1-13.5.2-1.6.8-4.6 2.7-4.8 2.3 1 1.6 3.5 1.5 5.7q2.2.2 4.6-.4c9.2-2.8 12.7-15.8 10.6-24.3-1.3-5.3-5.7-6-9.7-8.2l-.2-.1c-1.4.9-3 2.4-4.9 2.5-2.5 0-2.3-6-2.2-7.7-11.6-9-19.9-25-26.2-38-3.6-7.4-7.5-22.4-16.9-24-1.8-.2-2.5.2-3.7-1.4l-.2-.2c1.3-3.5 5.1-3.2 7.9-2 8.6 3.8 12.9 16.5 16.4 24.4a207 207 0 0 0 5.7 11.9 85 85 0 0 0 23 28.4c5.1 3.7 12.2 5 14.7 11.5a27 27 0 0 1-1.2 20.3c-3.7 8.2-9.2 12-18 11.6a74 74 0 0 1-19.8 38c-23 23.4-40 25.8-67.3 7.5l-4.7-3.6a78 78 0 0 1-7.5-6.9C58.4 169 53 149.1 48.4 130.3"/><path fill="#beb5a8" d="M92.1 49c4.8-6.5 17.5-12.1 24.5-6.5-1.2.7-4.3.6-5.8.8q-7.4.7-14 4c-1.3.6-3.2 1.6-4.7 1.7"/><path fill="#000" d="M.8 230c-.6-.7-.7-1-.8-1.9.9-2.6 6.3-1.4 9.3-3.2a15 15 0 0 0 6.7-9.3c3.5-12.3-4.7-19.4-10.1-29a33 33 0 0 1-4.4-17.3c-.4-17.7 10.2-30.6 14-47 1.6-7.4 2.1-15.2 3-22.8q1.5-10.8 4.6-21.4C31 50.4 48.3 23 74 8.4c12.5-7 30.6-11.8 44.4-5.4q4.5 2.3 6.7 6.6c.4 1.4.5 2.6-1 3.6-2.3.3-3.4-3-5.1-4.4-4.7-3.7-11.4-4.5-17.2-4.3C83 5.6 65.7 17.2 53.3 31a132 132 0 0 0-30 66.5c-1.4 9.8-1.8 20.5-4.6 30-4.3 14.5-13.5 27-12.6 43.2a33 33 0 0 0 3.4 13.2c5.2 10.4 13.5 16.3 11.5 29.9-1.6 10-9.5 18.5-20.2 16.1M130.4 11.7c.7-1.7 1.5-2.2 3.3-2.9 5.4-2 13.8-.5 18.9 2 20 9.8 31.8 34.2 39 54 3 8 5.3 15.7 8.3 23.6 5.2 14.1 12 28.6 14 43.5.6 4.4.5 11.5-.6 15.7-1.4 5.4-4.1 11-6.4 16.3a42 42 0 0 0-1.7 33 24 24 0 0 0 13.2 13.7c3 1.3 6.7 0 8 2.2 0 2.2-1.6 2.5-3.4 2.8-8.9-.3-15.1-5.1-19.6-12.5a45 45 0 0 1-.8-40.5c2.2-5.1 5-10.3 6.4-15.7 1.2-4.7 1-14 0-18.7-2.8-12.7-8.4-25-13-37.3-6.5-17.6-11.2-35.7-21.2-52-7.7-12.3-20.5-27.5-36.9-26.6-1.9.2-4.5 1.3-6.4.9-.7-.5-.8-.7-1.1-1.5"/><path fill="#000" d="M70.7 53c.8 0 1 0 1.6.5.6 1.1 0 2.2-.6 3.3-7.4 17-16.8 33.3-29.1 47-2.7 3-5.2 5.8-8.5 8-1-.3-1.3-.5-1.8-1.4q0-.7.5-1.3 4.9-5.1 9.5-10.4a185 185 0 0 0 20-29.8c2.3-4.2 6.2-12.6 8.4-16M46.8 169.7c.9-.1 1.3-.3 2.1.1 1 1.4 1.5 4.3 2 6 4.8 16.4 5.5 42.7-10 54q-1.5 1.2-2.7-.2c-.1-1.6 1.4-2.6 2.4-3.8 10.4-12 10.7-28.9 8.2-43.8-.5-2.9-2.4-9.7-2-12.3m136-1.1c.7 0 .7.1 1.4.5.7 1.3-.5 9.8-.3 12.1.3 5 .7 9.6 2.4 14.5a35 35 0 0 0 12.2 18.2l6 3.5c.4.3.2.1.4.6-.3.8-1 1-1.6 1.6-15.7-4-22.4-22.4-23-37 0-3 .7-11.8 2.4-14M165.1 193c.6 0 2 .2 2.2.8.7 1.7.1 3.8.4 5.6 1.4 9 4.8 18.8 12.4 24.3.9.7 1.5.9 2.1 1.7q.2 1-.3 1.9h-1c-12.2-4.1-17.9-23.1-15.8-34.3m-95.8 17.6c3.4.7 2 5.3 1.8 7.8-.7 6.4-4.5 16.3-11.5 18.7-.8-.2-.9-.2-1.6-.6q-.3-.6 0-1 8.8-7.2 9.8-18.2c.2-2 .6-4.6 1.5-6.7M170.5 80.4c.2 0 .9.1 1 .3 4.4 4.7 8.4 10 13.8 13.8.7.5 1.7 1 2 2q-.4.9-1.2 1.5a37 37 0 0 1-16.5-16.4c.1-.8 0-.6.9-1.2"/><path stroke="#000" stroke-linecap="round" stroke-width="4" d="M106 120.5c.7 5.5.8 17.4-4 21-6 4.5-3.5 12 10.5 9"/><ellipse cx="83" cy="122" fill="#000" rx="7" ry="8"/><ellipse cx="139" cy="114" fill="#000" rx="7" ry="8"/><path stroke="#000" stroke-linecap="round" stroke-width="4" d="M123 112.5c3.7-4 14.5-10.3 28.5-3.5m-59 8c-3.8-2.8-14.8-6-28 4"/></svg>