<svg xmlns="http://www.w3.org/2000/svg" width="197" height="220" fill="none" viewBox="0 0 197 220"><path fill="#beb5a8" d="M53.2 16.2c12-7.9 39.2-9.5 51.2-9.3C128 5 161.4 52 175.2 75.7c5.2 15.5 15 48.6 13 56.4-2.6 9.9-19.2 22.8-22.3 24.9-3 2-22.2 10.3-26.3 15.5s-37.3 18.1-50.7 18.6-46-16-48-18.6c-2.1-2.6-37.3-42-36.8-58.5.5-16.6 7.8-32.6 9.8-38.3S38.2 26 53.2 16.2"/><path fill="#928f96" d="M12.1 195.6q0-.8.3-1.5c.2.8.1 1 .1 1.8q0-.3-.4-.3"/><path fill="#000" d="M103 141.5c2 .2 3.4 2 2.3 3.7-1.7 2.6-6.5 4.5-9.4 5.4-8.8 2.7-20 2-28.1-2.2-1.3-.8-2-1-2.6-2.6-.6-1.4.9-2.7 2.2-2.6q1.4.3 2.7 1c8.5 4 20.2 4.5 28.6-.1 1.7-1 2.3-2.2 4.3-2.6m14.3-50.1c6.4-.9 16 2.4 19.3 8.7q.4.9-.1 1.8c-1.8 3-5.2-1.2-7-2.2l-2-1.2c.3 4 .2 6.5-3 9.5-3.9 2.5-7.5 1-9-3.3q-1.4-4 .7-8a25 25 0 0 0-4.5 1.2c-1.5.5-4.3 2.4-5.7 1.3-1-.8-1.1-2.3-.2-3.3a19 19 0 0 1 11.5-4.5m-66.7-2.3c2.7-.4 6.1.2 9.1 1.1 2.3.7 10.6 6 5.5 8.2-1.1.5-4.5-1.9-5.7-2.5a10 10 0 0 1 0 7c-1.7 3.7-4.9 5-8.5 3.3A9 9 0 0 1 48.2 95c-4 1.1-6 3-9.5 4.8-1.3.6-3.6-1.5-2-3.5 3.6-4.4 8.4-6.3 13.9-7.2"/><path fill="#000" d="M67.6 2c6.2-1.6 15.7-3.4 21.6-.3q1.6.8 2 2.4c.2.5.3 1.6 0 2q-3.6 7-6.4 14.4c-.5 1.3-1 3.8-2.6 4.1s-3.5-.5-5-.6l-5 .2c-13.9 2-31.2 10-39.6 21.5a73 73 0 0 0-11 31.2c-.4 2.2-.9 5.2-1 7.3 2.7-.5 3.7-.6 6.5-.3 7.7-12.5 27.7-14.5 39.4-7.2q4.4 2.8 7.1 7c.7 1 1.3 2.4 1.9 3.3A32 32 0 0 1 94 89a25 25 0 0 1 6-8.5c11.2-9.9 32.4-9 42.4 2.3l2.3 3a28 28 0 0 1 13.4 3.9c1 .5 3.1 1.6 4.1 1.9 0-2.6-.4-6-.7-8.6v-.2c-1.5-13-5.6-28.2-15.2-37.5a78 78 0 0 0-47-19.6c-3-.2-7 0-9.8-.8-.7-.2-1.4-1.1-1.3-1.8a53 53 0 0 1 6.1-14.5c1-2 1.1-3.5 2.7-5 3-2.8 9.1-3 13-2.8 13.4.7 26.1 6.4 36.6 14.8a99 99 0 0 1 11 9.9c14.4 15.4 19 35.1 24.3 54.8 2.4 8.8 7.7 18.2 8.8 27.6q1.2 6.4 2 12.9l3.6 24.9c2.9 29.6-4.2 43.5-8 46.8q-1-1.7-1.7-3.5a73 73 0 0 1-5.3-16.2q0 6.7 1.7 13 1.4 5.7 3.3 11.4c-.2 18.6-30.6 24.3-28.2 10.5 2.4-13.7-7-24-7-10.5 0 10.8-5.9 14.7-8.8 15.3-2.7 2.4-4.1-38-7.2-36a83 83 0 0 1-50.3 16 90 90 0 0 1-36.3-14 508 508 0 0 1 7.7 22.8c2.6 7.9 3.4 22.2-14.4 16.7-8 .7-25-2.8-29.3-22q0-.4-.4-.4c-13.3-2-13-20-11.2-28.8.9-2.8 2.5-11.2 2-22.4-.4-14-2.2-21.2-1-40.9Q3.5 93 5.5 82.7c.5-2 1.4-4.1 1.7-6.2.7-3.5 1-7 1.7-10.5a75 75 0 0 1 35-53A74 74 0 0 1 67.6 2m-43 87-2 .1-2.4.6c-.3 6.4-.7 12.3-.5 18.7q.3 8.4 1.8 16.9a76 76 0 0 0 18.8 40.6 66 66 0 0 0 45.3 22.5 69 69 0 0 0 50.2-18.9 97 97 0 0 0 22-33.9c.7-1.5 2.2-4.4 4.2-4.4 2.5 0 1.5 4 1.3 5.6 10.8-4.7 19.2-19.7 18.3-31.6-.5-5.9-4.5-11-11-8q-1.2.5-2.2 1.5c0 1.1.8 14.7-5.3 9.2-1-1-.6-7.7-.8-10-2.5-1.5-12-5.7-14.9-6.4q.7 3.2.8 6.4c.4 12.5-6.6 23-18.8 26.6-14.6 4.2-29.1-1-34.8-15.7-2-5.1-2.3-9.5-2-14.8-3.9-2.6-9.9-3-14.5-2.5q-.7 0-1 .6l.3 3.6q.5 7-2.5 13.3l-1.6 4c-1.5 2.8-3.7 5-2.2 8.3 2.2 4.7 7.6 5.9 12.2 4.8 1.5-.4 3.8-.9 5.1.2.9.7.7 2.6-.2 3.2a16 16 0 0 1-19.3-2.7q-2.7-3.2-3-7.4c-16.4 8.2-34.9 4.5-41-14.6a28 28 0 0 1-.3-15.8m-13.2 3.8c-2 1.6-2.5 4.2-2.8 6.6-1 8.6.8 18.9 6.4 25.8l1.1 1.4-.9-9q-.3-6-.1-12 .3-5.4.8-10.6-1.6-2-4.1-2.2zm125-9.1c-4.9-3.8-12-5.3-18-4.8-6.4.3-12 1.9-16.6 6.8a18 18 0 0 0-4.2 13.7c.4 6.3 3 12.5 7.8 16.7a22 22 0 0 0 16.8 4.7c6.1-.5 12.2-2.8 16.1-7.7 6.8-8.4 7-22.4-2-29.4M65.8 82c-4.9-3.9-11.1-5-17.2-4.6-6.2.4-11.6 2.2-15.8 7-7.3 8.2-4.4 22.8 3.6 29.6a22 22 0 0 0 16.4 4.4 21 21 0 0 0 14.6-7c6.8-8.1 7.1-22.4-1.6-29.4"/></svg>