<svg width="200" height="200" viewBox="0 0 188 201" fill="none" xmlns="http://www.w3.org/2000/svg">
<path d="M180.391 73.3467C180.391 77.7372 180.507 81.3717 180.362 85.0062C180.217 87.7975 179.809 90.5597 179.315 93.2928C179.17 94.1942 179.199 94.6885 179.955 95.2118C184.2 98.2648 186.526 102.597 187.486 107.598C188.503 112.774 187.718 117.862 185.886 122.747C183.502 129.143 179.199 134.028 173.529 137.634C169.807 140.018 165.766 141.908 161.346 142.693C159.834 142.955 159.311 143.623 158.962 145.164C158.235 148.334 157.334 151.532 156.025 154.498C153.001 161.389 148.64 167.407 143.784 173.135C139.423 178.253 134.451 182.672 129.043 186.539C122.792 191.017 115.959 194.593 108.632 196.919C103.747 198.46 98.6585 199.449 93.5993 200.205C89.5869 200.816 85.429 200.99 81.3584 200.816C74.1766 200.525 67.1693 199.042 60.4528 196.338C55.0446 194.157 49.8982 191.453 45.4205 187.79C41.0882 184.242 37.0176 180.404 33.4412 176.014C29.894 171.623 26.9282 166.913 24.4277 161.883C21.869 156.766 19.8628 151.416 18.4671 145.862C18.3508 145.426 17.8856 144.932 17.4495 144.786C10.3259 142.199 5.15033 137.285 2.41719 130.452C-0.374099 123.532 -1.18822 116.176 2.35904 109.052C4.24898 105.243 7.2438 102.51 11.3144 101.172C12.1286 100.911 12.4193 100.533 12.4775 99.6604C12.7101 96.1132 13.059 92.595 13.2916 89.0477C13.3497 88.1755 13.1171 87.245 12.9136 86.3727C12.5356 84.7154 11.9832 83.0872 11.6343 81.4008C11.1691 79.191 10.6166 76.9812 10.5294 74.7424C10.384 71.1951 10.3549 67.5897 10.762 64.0715C11.14 60.9604 11.9541 57.8493 12.9427 54.8544C14.2802 50.7547 16.8389 47.3238 19.8337 44.2417C22.7703 41.1887 26.2304 38.8627 30.3301 37.6415C31.2896 37.3507 31.5513 36.9146 31.5222 36.0423C31.3478 30.2562 33.2958 25.0516 36.029 20.1378C37.948 16.6777 40.623 13.8283 43.7922 11.3278C47.136 8.71093 50.6251 6.50115 54.4922 4.90198C58.3884 3.3028 62.3427 1.79085 66.5878 1.32564C70.7747 0.889496 74.9907 0.278905 79.1777 0.0753737C82.9285 -0.0990819 86.7083 0.046296 90.4301 0.337055C94.0936 0.627815 97.7572 1.12211 101.392 1.7327C105.579 2.43052 109.766 3.21557 113.894 4.23323C117.471 5.10551 121.047 6.09409 124.478 7.40251C129.479 9.29244 134.538 11.2405 139.278 13.6829C143.639 15.9508 148.146 18.1315 151.868 21.5043C154.862 24.2084 158.119 26.6217 161.055 29.413C165.213 33.3964 168.615 37.9904 171.029 43.2531C172.424 46.277 173.994 49.1846 175.332 52.2376C177.193 56.4827 178.181 60.9895 178.937 65.5544C179.519 68.3747 180.013 71.2242 180.391 73.3467ZM163.585 69.4506L163.643 69.3924C163.265 69.7413 162.916 70.0902 162.538 70.4391C162.219 70.2065 161.841 69.9158 161.753 69.8576C161.375 70.5264 161.114 71.0207 160.823 71.5149C160.707 71.7185 160.59 71.922 160.503 72.0965L160.561 72.0383C160.067 72.2128 159.456 72.2418 159.107 72.5326C158.381 73.1432 157.799 73.8992 157.101 74.5679C156.781 74.8587 156.345 75.0041 155.938 75.2367C155.647 74.6551 155.24 74.1027 155.066 73.4921C154.95 73.1141 155.153 72.678 155.211 72.3291C154.484 72.3872 153.757 72.4744 153.031 72.5326C153.031 73.0269 153.031 73.5503 153.031 74.0736L153.06 74.0155C152.216 74.3353 151.402 74.6261 150.414 74.975C150.297 77.0394 149.803 77.3592 147.506 76.3997C147.477 76.3706 147.419 76.3706 147.361 76.3706L147.419 76.4288C147.361 75.8473 147.332 75.2948 147.274 74.597C146.576 74.5679 145.907 74.5098 145.209 74.4807C145.325 74.597 145.442 74.7133 145.558 74.8296C145.18 75.4983 144.918 76.5451 144.366 76.7195C142.796 77.272 142.563 75.9054 142.36 74.7424C141.691 74.9168 141.138 75.0622 140.557 75.2076C140.528 75.5856 140.499 75.9636 140.47 76.3706C141.575 76.138 142.563 76.138 142.767 77.4464C143.058 79.2782 141.458 78.9002 140.499 79.1619C140.615 79.8016 140.731 80.354 140.819 80.8192C141.255 80.9355 141.662 80.9646 142.011 81.1391C142.796 81.5461 143.057 82.3312 142.447 82.9418C142.098 83.2907 141.08 83.4361 140.702 83.1744C139.917 82.651 139.336 81.7787 138.696 81.0518C136.603 78.6385 135.44 75.731 134.393 72.7943C132.328 66.921 130.38 60.9895 128.461 55.058C128.171 54.1275 127.589 53.8077 126.746 53.8659C125.321 53.9531 123.867 54.1857 122.443 54.1566C118.576 54.0985 114.708 53.9822 110.841 53.7786C107.817 53.6332 104.765 53.4879 101.77 53.0517C96.7977 52.3539 91.8257 51.5398 86.8828 50.5512C82.1434 49.6208 77.375 48.6031 72.7519 47.2365C68.3905 45.9572 64.1454 44.3289 59.9294 42.6135C55.5098 40.8398 51.2066 38.8336 46.9034 36.7983C46.002 36.3621 45.3914 36.3621 44.6936 36.9437C42.6583 38.7173 40.4485 40.3455 38.5877 42.2936C35.9127 45.114 33.3249 48.0797 30.9988 51.1909C28.4111 54.7091 25.9396 58.3726 23.8462 62.2106C22.1888 65.2636 20.8513 68.5783 19.95 71.9511C18.7869 76.1962 18.1182 80.6157 17.4204 84.9771C17.0133 87.5939 16.9552 90.2689 16.8389 92.9148C16.6644 96.1132 16.4318 99.3406 16.4899 102.539C16.519 105.214 16.9261 107.889 17.1587 110.564C17.4495 114.053 17.5658 117.571 18.06 121.06C18.7869 126.09 19.7174 131.121 20.6478 136.122C21.9853 143.245 24.544 150.02 27.1899 156.737C27.5679 157.667 27.8586 158.975 28.5855 159.324C29.8649 159.935 29.9521 160.894 30.0684 161.97C32.1328 161.999 32.22 162.116 32.3363 164.064C33.1214 164.5 34.2263 164.791 34.3135 165.227C34.4298 165.954 33.9064 166.826 33.6447 167.64C33.5284 167.611 33.4121 167.582 33.2668 167.553C33.6157 168.047 33.9646 168.57 34.2263 168.948C34.4589 168.367 34.5461 167.553 34.9532 167.32C35.4475 167.029 36.2325 167.262 36.6105 167.262C37.1629 165.721 37.5991 164.267 38.1806 162.842C38.5586 161.912 39.2273 161.418 40.0996 162.435C40.2159 162.552 40.4194 162.639 40.5648 162.639C41.6697 162.726 41.786 163.511 41.5534 164.296C41.2626 165.256 40.7684 166.157 40.3904 167.029C41.4953 167.553 41.1173 168.512 40.8265 169.326C40.4776 170.315 40.0124 171.216 39.5181 172.292C40.6811 172.292 41.8151 172.06 41.8151 173.426C41.8151 173.833 40.8265 174.618 40.7393 174.589C40.0705 174.153 39.5181 173.542 38.9366 172.99C39.0238 172.874 39.111 172.757 39.2273 172.641C38.733 172.67 38.2097 172.699 37.3665 172.786C37.8026 173.281 38.0934 173.601 38.3841 173.891C38.8493 174.386 39.4599 174.764 39.7216 175.345C40.3904 176.886 42.7164 176.973 42.8037 179.009C42.8037 179.038 43.1817 179.038 43.3561 179.125C43.7632 179.299 44.1412 179.474 44.5482 179.648C44.6355 179.707 44.7227 179.794 44.8099 179.852C44.6645 180.695 44.8971 181.248 45.8566 181.364C46.2056 181.422 46.5254 181.713 46.8162 181.974C48.2409 183.283 49.6656 184.649 51.0903 185.987C51.2648 186.132 51.4683 186.22 51.7009 186.365C51.8172 185.434 51.9044 184.591 51.9626 184.184C51.2357 183.981 50.5379 183.893 49.9563 183.574C49.6947 183.428 49.5202 182.585 49.5784 182.527C50.189 182.149 50.8577 181.887 51.73 181.509C51.5555 180.811 51.3229 179.852 51.1194 178.921C51.1485 178.195 51.4392 177.351 51.9335 176.624C52.2533 176.13 52.8639 175.549 53.3873 175.52C53.9398 175.49 54.8411 175.956 54.9865 176.421C55.3354 177.439 55.3645 178.602 55.4517 179.707C55.5099 180.375 55.2191 181.248 55.5389 181.684C56.4112 182.789 56.4112 183.748 55.7425 184.853C55.6552 184.998 55.6843 185.231 55.7425 185.434C56.0041 186.597 56.2949 187.731 56.5275 188.749C57.2835 189.069 58.1558 189.36 58.9408 189.796C59.6386 190.232 60.2492 190.843 61.0052 191.482C61.2669 190.116 61.4123 189.243 61.5286 188.604C60.8598 188.836 60.2202 189.243 59.784 189.098C59.406 188.982 58.8827 187.935 58.9699 187.819C59.4642 187.295 60.162 186.917 60.9761 186.394C60.918 186.161 60.8889 185.464 60.5981 184.882C60.3074 184.271 59.7549 183.806 59.1443 183.05C60.9471 183.37 60.4237 182.527 60.1329 181.945C60.7726 181.538 61.2378 180.986 61.8193 180.87C63.3313 180.521 64.4943 181.974 64.3199 184.039C64.2326 185.318 64.2326 186.423 65.4538 187.295C65.8027 187.557 65.7737 188.458 65.8027 189.069C65.8318 189.621 65.6864 190.174 65.6574 190.406C66.2389 190.028 66.7913 189.447 67.4019 189.418C67.7508 189.389 68.4196 190.261 68.4486 190.755C68.5649 192.209 67.2856 191.802 66.4715 191.918C66.5006 193.111 66.5006 193.111 68.1579 193.198C68.6813 192.645 69.5245 191.773 69.8734 191.947C70.484 192.267 70.8329 193.169 71.269 193.837C71.1527 193.925 71.0364 193.983 70.9201 194.07C71.6761 194.128 72.403 194.186 73.1299 194.215C73.1299 193.518 73.1299 192.878 73.1299 192.267C71.0073 191.889 70.4549 190.872 71.6179 189.243C69.8152 187.731 70.9492 185.696 70.7166 183.603C71.4435 183.835 72.3448 183.864 72.6647 184.301C74.0894 186.278 76.241 187.964 75.5723 190.436C75.9502 190.203 76.5318 189.592 77.0261 189.65C77.4331 189.709 78.0146 190.581 77.9856 191.104C77.9856 192.325 76.8807 192.209 75.8339 192.413C76.2992 193.081 76.9679 193.518 77.404 194.157C78.6834 195.902 80.079 195.902 81.7073 194.652C81.8817 194.506 82.5796 194.739 82.6959 194.942C83.2483 196.018 84.0333 195.727 84.7893 195.582C82.6668 194.855 82.5796 192.209 80.7768 191.192C80.7187 191.162 80.7478 191.017 80.7478 190.901C80.7478 189.97 80.7478 189.04 80.7478 188.08C80.3407 188.691 80.0499 189.214 79.6429 189.592C79.5557 189.65 78.7125 189.214 78.6252 188.895C78.3054 187.557 79.5557 187.673 80.3407 187.383C80.079 186.83 79.8755 186.423 79.6429 185.929C79.9627 185.754 80.2244 185.609 80.7187 185.347C80.1953 185.26 79.9627 185.202 79.672 185.173C80.3698 183.719 81.969 183.486 82.7831 184.766C83.917 186.51 84.8475 188.371 85.9233 190.29C87.2899 190.436 88.0168 191.395 87.4352 192.558C86.7374 193.954 87.8423 195.64 89.3833 195.553C90.2847 195.495 91.157 195.349 92.0292 195.262C91.9711 194.681 91.8839 194.157 91.8257 193.576C89.4124 193.343 90.5173 191.424 90.4882 189.912C89.1798 191.133 88.7146 191.017 88.3657 189.767C88.9181 188.982 89.4124 188.313 89.8195 187.731C87.9004 186.336 88.4529 184.301 88.6564 182.701C88.9763 182.382 89.2961 182.033 89.7032 181.626C91.6222 181.626 91.6803 181.742 92.32 183.719C92.8724 185.405 93.483 187.092 94.1518 188.749C94.4425 189.505 94.8787 190.232 95.0531 190.61C95.8673 191.308 96.8559 191.773 96.8849 192.267C96.914 192.994 96.2453 193.75 95.8091 194.652C95.9254 194.652 96.5069 194.797 96.5942 194.622C97.3792 193.372 98.4841 193.605 99.6471 194.041C99.1819 192.587 99.4436 191.773 100.345 191.54C101.421 191.279 102.002 191.831 102.293 193.488C102.875 193.314 103.892 193.256 103.979 192.936C104.416 191.337 105.666 191.511 106.654 191.25C107.003 190.523 107.381 189.621 108.021 189.418C109.242 189.04 109.678 189.97 109.736 191.162C110.347 191.017 110.929 191.046 111.336 190.755C112.179 190.203 112.935 189.505 113.72 188.865C113.807 188.953 113.894 189.04 113.952 189.127C113.982 188.662 114.04 188.168 114.069 187.644C113.633 187.615 113.138 187.731 112.906 187.528C112.441 187.179 111.83 186.627 111.859 186.161C111.888 185.725 112.528 185.115 113.051 184.94C113.458 184.795 114.04 185.144 114.563 185.26L114.534 185.231C114.505 185.871 114.476 186.539 114.447 187.208C115.174 187.179 115.784 187.15 116.366 187.121C116.627 185.027 116.627 185.027 118.692 184.998C118.866 184.388 118.866 183.603 119.273 183.283C119.71 182.934 120.466 182.963 121.163 182.818C120.843 181.131 121.745 180.579 123.257 180.724C123.431 179.997 123.606 179.329 123.751 178.689L123.722 178.718C124.42 178.718 125.147 178.718 125.699 178.718C125.815 177.962 125.728 177.177 126.077 176.915C126.571 176.508 127.357 176.479 128.083 176.246C127.705 174.386 129.043 174.298 130.351 174.269C130.439 173.601 130.526 173.048 130.584 172.496C129.741 172.176 128.461 172.786 128.316 171.245C128.171 169.763 129.508 169.995 130.322 169.559C130.148 168.658 130.148 167.698 129.799 166.884C129.45 166.099 129.45 165.517 130.148 165.169C130.729 164.907 131.631 164.674 132.096 164.936C133.114 165.488 133.928 166.39 134.858 167.146C135.323 167.553 135.847 167.931 136.312 168.309C136.603 167.785 136.893 167.262 137.184 166.739C137.039 166.797 136.864 166.855 136.719 166.913C136.108 166.448 135.091 166.041 135.003 165.488C134.713 163.889 136.225 164.238 137.097 164.006C137.155 163.162 137.184 162.435 137.213 161.767C136.341 161.796 135.323 162.406 135.12 160.982C134.916 159.441 136.196 159.731 137.155 159.644C137.068 158.597 137.039 157.638 138.405 157.463C140.005 157.26 139.975 158.51 140.266 159.47C141.662 159.586 142.709 160.022 142.389 161.708C143.087 161.708 143.668 161.708 144.279 161.708C144.279 161.156 144.279 160.662 144.279 160.167C143.406 159.964 142.418 159.877 142.912 158.597C143.261 158.685 143.552 158.743 143.959 158.801C143.813 158.307 143.726 157.987 143.61 157.58C145.5 157.231 144.686 158.772 145.064 159.411C145.558 159.411 146.081 159.411 146.663 159.411C146.663 158.888 146.663 158.423 146.663 157.958C146.576 158.045 146.488 158.161 146.401 158.248C145.849 157.841 144.977 157.492 144.831 156.969C144.395 155.341 145.849 155.166 146.983 154.73C146.488 154.556 146.023 154.643 145.616 154.527C144.802 154.265 143.523 154.032 143.348 153.48C142.825 151.881 142.68 150.165 142.505 148.479C142.476 148.159 142.825 147.665 143.145 147.49C143.697 147.141 144.366 146.938 145.267 146.56C145.616 146.938 146.343 147.345 146.518 147.956C147.012 149.555 147.303 151.212 147.652 152.782C148.233 152.782 148.727 152.782 149.338 152.782C149.018 150.921 150.181 150.572 151.431 150.514C151.751 149.875 151.926 149.264 152.275 148.799C152.711 148.246 153.263 147.81 153.787 147.345C153.641 147.287 153.467 147.2 153.321 147.141C152.856 146.356 152.391 145.6 152.158 145.193C151.228 145.339 150.356 145.571 149.512 145.542C149.134 145.513 148.64 144.932 148.495 144.496C148.175 143.478 147.913 142.373 147.855 141.297C147.826 140.658 148.059 139.902 148.437 139.378C148.931 138.68 149.6 139.146 150.21 139.407C151.897 140.105 152.304 141.472 152.362 143.129C152.42 144.961 152.653 145.106 154.426 144.728C154.688 143.362 154.862 141.966 155.298 140.658C155.473 140.076 156.113 139.465 156.665 139.204C157.479 138.855 158.41 138.768 159.311 138.622C165.097 137.75 170.098 135.133 174.547 131.44C178.879 127.864 181.67 123.241 183.066 117.833C183.648 115.623 184.025 113.268 183.967 111C183.88 107.569 182.484 104.545 180.478 101.696C178.094 98.2648 174.808 96.7529 170.854 96.4912C167.045 96.2295 163.701 97.6833 160.532 99.6023C159.66 100.126 158.875 100.853 157.944 101.201C157.276 101.463 156.432 101.231 155.676 101.231C155.822 100.445 155.909 99.6314 156.171 98.9045C156.287 98.5556 156.81 98.323 156.839 98.2939C156.432 97.5088 155.996 96.8401 155.793 96.1132C155.735 95.9387 156.781 95.2409 156.869 95.3281C157.45 95.8224 157.915 96.4912 158.41 97.0436C160.91 95.6189 163.004 93.0602 166.144 92.7404C166.173 92.1007 166.115 91.4901 166.289 90.9377C166.347 90.7341 167.161 90.5306 167.249 90.6469C167.714 91.1703 168.063 91.839 168.412 92.3624C170.621 92.3624 172.977 92.3624 175.448 92.3624C175.535 91.9553 175.681 91.3447 175.768 90.9958C174.983 90.5888 174.285 90.3561 173.762 89.92C173.587 89.7456 173.733 88.757 173.965 88.6697C174.576 88.4081 175.303 88.4371 176.03 88.3499C176.03 84.57 176.03 80.6157 176.03 76.6032C175.012 76.5451 173.704 77.1266 173.529 75.5856C173.355 73.9864 174.692 74.1318 175.652 74.0155C175.768 73.2886 175.884 72.6489 176.001 71.9802C174.925 71.9511 173.587 72.5326 173.471 70.8753C173.355 69.3343 174.576 69.3924 175.652 69.3633C175.593 68.7818 175.535 68.2584 175.477 67.7351C173.471 67.4443 173.18 67.0663 173.529 65.1764C172.773 65.2345 172.017 65.3218 171.261 65.3799C171.494 67.4443 170.767 68.0258 168.79 67.4152C168.673 68.462 169.022 69.8576 167.191 69.6541C165.708 69.5087 165.766 68.5201 166.027 67.4152C165.301 67.4152 164.603 67.4152 163.963 67.4152C163.76 68.2003 163.672 68.84 163.585 69.4506ZM16.8098 139.756C14.222 128.184 13.0008 116.757 12.4193 105.127C10.9946 105.854 9.6571 106.493 8.66852 107.482C4.62696 111.553 3.90007 116.641 4.48159 122.078C4.88865 126.12 6.16799 129.87 8.63944 133.156C10.7038 135.947 13.1462 138.273 16.8098 139.756ZM157.595 71.8639C157.595 71.2533 157.595 70.759 157.595 70.2065C156.985 70.2065 156.374 70.2065 155.735 70.2065C155.706 70.7299 155.676 71.2242 155.676 71.7476C156.287 71.7766 156.839 71.8057 157.595 71.8639ZM158.991 67.5897C158.729 68.2584 158.526 68.8109 158.264 69.5087C158.991 69.3924 159.689 69.3052 160.3 69.1889C160.3 68.5492 160.3 68.0549 160.3 67.5606C159.805 67.5897 159.398 67.5897 158.991 67.5897ZM166.289 65.409C166.347 65.8742 166.435 66.3685 166.493 66.8046C167.074 66.8628 167.627 66.8919 168.063 66.95C168.237 66.3104 168.412 65.6707 168.528 65.1764C167.859 65.2345 167.132 65.3218 166.289 65.409ZM148.088 74.0736C148.756 74.0736 149.338 74.0736 149.949 74.0736C149.949 73.4921 149.949 72.9978 149.949 72.5326C149.28 72.5326 148.698 72.5326 148.088 72.5326C148.088 73.0269 148.088 73.5212 148.088 74.0736ZM126.223 181.044C127.647 181.277 128.229 180.811 127.793 179.445C127.269 179.416 126.775 179.358 126.223 179.329C126.223 179.939 126.223 180.433 126.223 181.044ZM150.704 71.7476C151.344 71.6894 151.838 71.6603 152.42 71.6022C152.391 71.0788 152.362 70.6717 152.333 70.2356C151.751 70.2356 151.257 70.2356 150.704 70.2356C150.704 70.7299 150.704 71.166 150.704 71.7476ZM123.955 181.451C123.867 182.091 123.809 182.672 123.722 183.283C124.798 183.225 125.845 183.254 125.379 181.713C124.943 181.655 124.507 181.567 123.955 181.451ZM171.407 60.7278C171.058 62.4433 172.511 61.949 173.238 62.5886C173.209 61.8327 173.18 61.3093 173.151 60.7278C172.541 60.7278 172.017 60.7278 171.407 60.7278ZM165.679 62.9085C164.981 62.9957 164.399 63.0538 163.76 63.1411C163.818 63.6354 163.847 64.0424 163.876 64.4495C164.457 64.4495 164.923 64.4495 165.417 64.4495C165.475 63.9261 165.562 63.4609 165.679 62.9085ZM128.432 178.747C129.043 178.747 129.479 178.747 130.061 178.747C130.119 178.253 130.148 177.817 130.177 177.38C129.566 177.293 129.101 177.235 128.578 177.148C128.52 177.671 128.49 178.136 128.432 178.747ZM169.139 59.8846C170.36 60.0881 171.116 59.9137 170.709 58.4017C170.127 58.518 169.604 58.6343 169.051 58.7506C169.08 59.2158 169.11 59.5357 169.139 59.8846ZM121.541 185.493C122.355 184.882 122.908 184.446 123.489 184.01C123.402 183.893 123.315 183.748 123.228 183.632C122.646 183.603 122.065 183.545 121.425 183.515C121.454 184.097 121.483 184.562 121.541 185.493ZM137.242 164.558C137.3 165.169 137.359 165.663 137.475 166.651C138.202 166.041 138.638 165.663 139.336 165.052C138.347 164.791 137.882 164.703 137.242 164.558ZM130.875 176.741C131.369 176.712 131.805 176.654 132.241 176.624C132.241 176.13 132.241 175.781 132.241 175.345C131.776 175.287 131.34 175.2 130.875 175.142C130.875 175.723 130.875 176.188 130.875 176.741ZM36.6396 169.704C35.9999 169.763 35.5347 169.821 34.7787 169.879C35.3893 170.577 35.8545 171.1 36.5233 171.885C36.5814 170.955 36.6105 170.402 36.6396 169.704ZM168.819 64.7693C169.429 63.9552 170.651 65.1182 170.68 63.8389C169.982 63.5481 169.429 63.3155 168.819 63.0539C168.819 63.4318 168.819 63.868 168.819 64.7693ZM148.844 155.893C147.593 155.719 147.099 156.097 147.506 157.26C148.727 157.551 148.96 156.969 148.844 155.893ZM162.858 66.6011C162.945 66.4557 163.062 66.3394 163.149 66.194C162.655 65.8742 162.16 65.5253 161.463 65.031C161.433 65.9033 161.404 66.3394 161.375 66.8628C161.957 66.7756 162.422 66.6883 162.858 66.6011Z" fill="black"/>
<path d="M44.4893 179.679C44.1113 179.504 43.7042 179.301 43.2971 179.156C43.1227 179.097 42.7447 179.097 42.7447 179.039C42.6866 177.033 40.3314 176.917 39.6627 175.376C39.43 174.794 38.7904 174.416 38.3252 173.922C38.0344 173.631 37.7727 173.311 37.3075 172.817C38.1507 172.759 38.6741 172.73 39.1684 172.672C39.0811 172.788 38.9939 172.904 38.8776 173.021C39.4591 173.573 40.0116 174.184 40.6803 174.62C40.7675 174.678 41.7561 173.864 41.7561 173.457C41.7561 172.09 40.6222 172.323 39.4591 172.323C39.9243 171.276 40.4186 170.346 40.7675 169.357C41.0583 168.543 41.4654 167.583 40.3314 167.06C40.7094 166.188 41.2037 165.286 41.4944 164.327C41.7561 163.542 41.6398 162.757 40.5059 162.67C40.3314 162.67 40.1279 162.582 40.0406 162.466C39.1393 161.419 38.4996 161.914 38.1216 162.873C37.5401 164.269 37.104 165.752 36.5515 167.293C36.1735 167.293 35.3885 167.06 34.8942 167.351C34.4871 167.583 34.3999 168.427 34.1673 168.979C33.9056 168.601 33.5567 168.107 33.2078 167.583C33.3241 167.612 33.4404 167.641 33.5858 167.671C33.8475 166.856 34.3708 166.013 34.2545 165.257C34.1673 164.821 33.0915 164.53 32.2774 164.094C32.1611 162.146 32.0738 162.059 30.0094 162.001C29.8931 160.925 29.8059 159.995 28.5266 159.355C27.7997 159.006 27.5089 157.698 27.1309 156.767C24.485 150.051 21.8973 143.305 20.5888 136.152C19.6584 131.151 18.6989 126.121 18.0011 121.091C17.5068 117.631 17.4196 114.113 17.0997 110.595C16.8671 107.92 16.4601 105.245 16.431 102.57C16.3728 99.3712 16.6054 96.1438 16.7799 92.9454C16.9253 90.2995 16.9543 87.6245 17.3614 85.0077C18.0302 80.6463 18.728 76.2558 19.891 71.9817C20.7924 68.6089 22.1299 65.2942 23.7872 62.2412C25.8807 58.4032 28.3521 54.7396 30.9399 51.2215C33.2369 48.0813 35.8537 45.1446 38.5287 42.3242C40.3896 40.3761 42.5993 38.7479 44.6346 36.9742C45.3325 36.3636 45.9431 36.3927 46.8444 36.8289C51.1476 38.8642 55.48 40.8704 59.8704 42.6441C64.0864 44.3595 68.3315 45.9878 72.6929 47.2671C77.3451 48.6337 82.0844 49.6223 86.8238 50.5818C91.7667 51.5704 96.7387 52.3554 101.711 53.0823C104.706 53.5184 107.758 53.6348 110.782 53.8092C114.649 54.0127 118.517 54.1 122.384 54.1872C123.808 54.2163 125.262 53.9546 126.687 53.8964C127.53 53.8383 128.083 54.1581 128.402 55.0885C130.351 61.02 132.299 66.9515 134.334 72.8249C135.352 75.7615 136.515 78.6982 138.637 81.0824C139.277 81.8093 139.858 82.6816 140.643 83.205C141.021 83.4667 142.039 83.3213 142.388 82.9724C142.969 82.3909 142.737 81.6058 141.952 81.1697C141.632 80.9952 141.225 80.9661 140.76 80.8498C140.672 80.3846 140.556 79.8322 140.44 79.1925C141.399 78.9308 142.999 79.3088 142.708 77.477C142.504 76.1686 141.516 76.1686 140.411 76.4012C140.44 75.9942 140.469 75.6162 140.498 75.2382C141.08 75.0928 141.632 74.9474 142.301 74.773C142.475 75.936 142.737 77.2735 144.307 76.7501C144.859 76.5466 145.121 75.4999 145.499 74.8602C145.383 74.7439 145.266 74.6276 145.15 74.5113C145.848 74.5404 146.517 74.5985 147.215 74.6276C147.273 75.3254 147.331 75.8778 147.36 76.4594C146.924 76.4594 146.517 76.4303 146.081 76.4303C145.208 76.4012 144.947 76.9246 144.947 77.7096C144.947 78.4656 145.15 79.0762 146.022 79.0471C146.517 79.0471 147.389 78.8727 147.418 78.6691C147.534 77.9422 147.389 77.1572 147.331 76.3721C147.389 76.3721 147.418 76.3721 147.476 76.4012C149.802 77.3316 150.297 77.0409 150.384 74.9765C151.372 74.6276 152.187 74.3077 153.03 74.017C152.884 74.5694 152.594 75.151 152.652 75.6743C152.681 76.0523 153.146 76.6629 153.437 76.692C153.989 76.7501 154.658 76.5466 155.181 76.2849C155.327 76.2268 155.181 75.5289 155.152 75.1509C154.978 73.7553 153.815 74.2205 153.001 74.0461C153.001 73.5227 153.001 72.9993 153.001 72.505C153.728 72.4469 154.454 72.3597 155.181 72.3015C155.123 72.6213 154.92 73.0866 155.036 73.4645C155.21 74.0751 155.588 74.6276 155.908 75.2091C156.286 74.9765 156.751 74.8311 157.071 74.5404C157.769 73.9007 158.351 73.1156 159.078 72.505C159.456 72.1852 160.037 72.1561 160.531 72.0107C160.648 72.7086 160.764 73.4355 160.851 74.1333C160.241 74.1333 159.572 73.9588 159.019 74.1333C158.583 74.2787 158.002 74.8602 158.031 75.18C158.089 75.6452 158.583 76.2849 159.019 76.4012C160.56 76.8083 160.997 76.1395 160.793 74.0461C161.084 74.0751 161.375 74.2205 161.636 74.1333C162.189 73.9879 162.974 73.9007 163.206 73.5227C163.439 73.1156 163.323 72.2143 163.003 71.8363C162.712 71.5165 161.927 71.6328 161.375 71.6618C161.055 71.6618 160.764 71.8654 160.473 71.9817C160.589 71.7781 160.706 71.5746 160.793 71.4002C161.084 70.9059 161.345 70.4116 161.723 69.7428C161.811 69.801 162.189 70.0917 162.508 70.3243C162.886 69.9754 163.264 69.6265 163.613 69.2776C163.497 69.4811 163.294 69.7137 163.323 69.9173C163.381 70.5279 163.41 71.5165 163.73 71.6037C164.311 71.8072 165.329 71.7491 165.707 71.3711C166.027 71.0512 165.998 69.7428 165.678 69.4811C165.213 69.1322 164.311 69.3358 163.584 69.3067C163.672 68.6961 163.73 68.0564 163.817 67.3877C164.457 67.3877 165.125 67.3877 165.881 67.3877C165.62 68.4926 165.561 69.4521 167.044 69.6265C168.847 69.83 168.527 68.4344 168.644 67.3877C170.65 67.9983 171.348 67.3877 171.115 65.3524C171.871 65.2942 172.627 65.207 173.383 65.1488C173.063 67.0678 173.325 67.4168 175.331 67.7075C175.389 68.2018 175.447 68.7252 175.505 69.3358C174.459 69.3648 173.208 69.2776 173.325 70.8477C173.47 72.505 174.808 71.9235 175.854 71.9526C175.738 72.6213 175.622 73.261 175.505 73.9879C174.575 74.1042 173.208 73.9879 173.383 75.558C173.557 77.099 174.866 76.5175 175.883 76.5757C175.883 80.5882 175.883 84.5134 175.883 88.3223C175.157 88.4096 174.43 88.3805 173.819 88.6422C173.586 88.7294 173.441 89.7471 173.615 89.8924C174.139 90.3577 174.837 90.5903 175.622 90.9683C175.535 91.3172 175.389 91.9278 175.302 92.3348C172.83 92.3348 170.475 92.3348 168.266 92.3348C167.917 91.7824 167.568 91.1427 167.102 90.6193C167.015 90.503 166.201 90.7066 166.143 90.9101C165.969 91.4625 166.027 92.0731 165.998 92.7128C162.857 93.0327 160.764 95.5913 158.263 97.0161C157.798 96.4636 157.333 95.7949 156.722 95.3006C156.635 95.2133 155.588 95.9112 155.647 96.0856C155.85 96.8125 156.286 97.4813 156.693 98.2663C156.635 98.3245 156.141 98.528 156.025 98.8769C155.763 99.6038 155.676 100.418 155.53 101.203C156.286 101.203 157.129 101.436 157.798 101.174C158.729 100.825 159.514 100.127 160.386 99.5747C163.555 97.6266 166.899 96.1728 170.708 96.4636C174.691 96.7544 177.948 98.2663 180.332 101.668C182.338 104.518 183.705 107.571 183.821 110.973C183.879 113.24 183.472 115.596 182.92 117.805C181.524 123.213 178.733 127.837 174.401 131.413C169.952 135.106 164.951 137.722 159.165 138.595C158.263 138.74 157.333 138.798 156.519 139.176C155.937 139.438 155.327 140.048 155.152 140.63C154.716 141.938 154.571 143.334 154.28 144.701C152.535 145.079 152.303 144.933 152.216 143.101C152.157 141.444 151.75 140.078 150.064 139.38C149.424 139.118 148.756 138.653 148.29 139.351C147.912 139.874 147.68 140.63 147.709 141.27C147.767 142.345 148.029 143.421 148.349 144.468C148.494 144.904 148.988 145.486 149.366 145.515C150.209 145.573 151.082 145.311 152.012 145.166C152.274 145.573 152.71 146.358 153.175 147.114C153.32 147.172 153.495 147.259 153.64 147.317C153.117 147.812 152.535 148.219 152.128 148.771C151.779 149.236 151.605 149.847 151.285 150.487C150.035 150.545 148.872 150.894 149.192 152.755C148.581 152.755 148.087 152.755 147.505 152.755C147.156 151.185 146.866 149.498 146.371 147.928C146.197 147.346 145.47 146.91 145.121 146.532C144.22 146.91 143.551 147.085 142.999 147.463C142.679 147.666 142.33 148.132 142.359 148.451C142.562 150.138 142.679 151.853 143.202 153.452C143.377 154.005 144.656 154.237 145.47 154.499C145.848 154.615 146.313 154.528 146.837 154.703C145.674 155.139 144.249 155.284 144.685 156.942C144.83 157.465 145.703 157.814 146.255 158.221C146.342 158.134 146.429 158.017 146.517 157.93C146.517 158.395 146.517 158.861 146.517 159.384C145.935 159.384 145.412 159.384 144.918 159.384C144.54 158.744 145.354 157.203 143.464 157.552C143.58 157.959 143.667 158.279 143.813 158.773C143.435 158.686 143.144 158.628 142.766 158.57C142.272 159.878 143.26 159.936 144.133 160.14C144.133 160.634 144.133 161.128 144.133 161.681C143.522 161.681 142.911 161.681 142.243 161.681C142.533 159.995 141.516 159.558 140.12 159.442C139.829 158.454 139.858 157.203 138.259 157.436C136.864 157.61 136.922 158.599 137.009 159.617C136.049 159.704 134.77 159.413 134.974 160.954C135.177 162.379 136.195 161.768 137.067 161.739C137.038 162.408 136.98 163.135 136.951 163.978C136.078 164.211 134.567 163.862 134.857 165.461C134.974 166.013 135.991 166.42 136.573 166.886C136.718 166.827 136.893 166.769 137.038 166.711C136.747 167.234 136.456 167.758 136.166 168.281C135.671 167.903 135.177 167.525 134.712 167.118C133.811 166.362 132.967 165.461 131.95 164.908C131.484 164.647 130.583 164.879 130.002 165.141C129.275 165.461 129.304 166.071 129.653 166.856C130.002 167.671 130.002 168.63 130.176 169.531C129.362 169.997 128.054 169.735 128.17 171.218C128.315 172.759 129.595 172.148 130.438 172.468C130.351 173.021 130.292 173.573 130.205 174.242C128.897 174.242 127.559 174.329 127.937 176.219C127.21 176.422 126.425 176.481 125.931 176.888C125.611 177.149 125.698 177.934 125.553 178.69C124.971 178.69 124.274 178.69 123.576 178.69C123.692 178.051 123.837 177.382 123.983 176.655C124.826 176.597 126.134 177.033 125.902 175.434C125.844 174.998 125.262 174.416 124.826 174.3C123.198 173.893 123.285 175.172 123.227 176.219C121.104 176.161 120.755 176.626 121.308 178.719C120.872 178.69 120.465 178.632 120.029 178.603C119.331 178.574 118.807 178.778 118.807 179.621C118.807 180.551 119.36 181.016 120.145 180.9C120.581 180.813 120.988 180.231 121.25 179.795C121.424 179.504 121.25 179.039 121.25 178.661C122.035 178.661 122.82 178.632 123.576 178.632C123.43 179.272 123.256 179.912 123.082 180.668C121.57 180.522 120.668 181.075 120.988 182.761C120.29 182.906 119.505 182.848 119.098 183.226C118.72 183.546 118.691 184.331 118.517 184.942C116.452 184.971 116.452 184.971 116.191 187.064C115.609 187.093 114.998 187.122 114.272 187.151C114.301 186.483 114.33 185.814 114.359 185.174C114.737 185.203 115.173 185.349 115.464 185.203C115.871 185.029 116.51 184.622 116.481 184.302C116.481 183.808 116.161 183.081 115.725 182.848C115.318 182.645 114.649 182.935 114.097 182.994C114.155 182.557 114.359 182.034 114.184 181.714C113.923 181.22 113.457 180.609 112.963 180.522C112.614 180.464 111.742 181.22 111.8 181.511C111.858 182.034 112.382 182.587 112.876 182.935C113.167 183.139 113.719 182.965 114.155 182.965C114.213 183.691 114.272 184.447 114.359 185.174C113.835 185.058 113.254 184.709 112.847 184.854C112.352 185.029 111.684 185.639 111.655 186.076C111.626 186.512 112.265 187.064 112.701 187.442C112.934 187.646 113.428 187.529 113.864 187.559C113.835 188.082 113.777 188.547 113.748 189.041C113.661 188.954 113.574 188.867 113.516 188.78C112.73 189.419 111.975 190.117 111.131 190.67C110.724 190.931 110.143 190.931 109.532 191.077C109.474 189.885 109.038 188.954 107.817 189.332C107.206 189.536 106.799 190.437 106.45 191.164C105.461 191.455 104.211 191.251 103.775 192.85C103.688 193.17 102.67 193.228 102.089 193.403C101.798 191.745 101.245 191.193 100.141 191.455C99.2392 191.687 98.9776 192.501 99.4428 193.955C98.2797 193.548 97.2039 193.286 96.3898 194.537C96.2735 194.711 95.692 194.566 95.6048 194.566C96.0409 193.694 96.7096 192.908 96.6806 192.182C96.6515 191.658 95.6629 191.193 94.8488 190.524C94.6743 190.175 94.2382 189.448 93.9474 188.663C93.3078 187.006 92.6681 185.349 92.1156 183.633C91.476 181.656 91.4178 181.54 89.4988 181.54C89.0918 181.947 88.7719 182.296 88.4521 182.616C88.2486 184.215 87.6961 186.25 89.6151 187.646C89.2081 188.227 88.7138 188.896 88.1613 189.681C88.5393 190.931 88.9754 191.048 90.2839 189.826C90.342 191.338 89.208 193.286 91.6213 193.49C91.6795 194.101 91.7667 194.595 91.8249 195.176C90.9526 195.264 90.0803 195.409 89.179 195.467C87.638 195.583 86.5331 193.868 87.2309 192.472C87.8124 191.309 87.0855 190.35 85.7189 190.204C84.6431 188.285 83.7127 186.425 82.5787 184.68C81.7646 183.43 80.1654 183.662 79.4676 185.087C79.7584 185.145 80.0201 185.174 80.5144 185.262C80.0201 185.523 79.7584 185.669 79.4385 185.843C79.6711 186.308 79.8747 186.744 80.1364 187.297C79.3513 187.559 78.101 187.471 78.4209 188.809C78.5081 189.129 79.3513 189.565 79.4385 189.507C79.8456 189.129 80.1073 188.605 80.5434 187.995C80.5434 188.954 80.5434 189.885 80.5434 190.815C80.5434 190.902 80.5434 191.077 80.5725 191.106C82.3752 192.123 82.4333 194.769 84.585 195.496C83.829 195.642 83.044 195.932 82.4915 194.857C82.3752 194.624 81.6483 194.42 81.5029 194.566C79.8747 195.816 78.5081 195.845 77.1997 194.072C76.7345 193.461 76.0657 192.996 75.6296 192.327C76.6763 192.094 77.7521 192.24 77.7812 191.019C77.7812 190.495 77.1997 189.623 76.8217 189.565C76.3274 189.507 75.7459 190.117 75.3679 190.35C76.0076 187.878 73.885 186.192 72.4603 184.215C72.1405 183.779 71.2391 183.75 70.5122 183.517C70.7448 185.61 69.6109 187.646 71.4136 189.158C70.2505 190.757 70.7739 191.804 72.9255 192.182C72.9255 192.792 72.9255 193.403 72.9255 194.13C72.1986 194.072 71.4717 194.013 70.7158 193.984C70.8321 193.897 70.9484 193.839 71.0647 193.752C70.6285 193.083 70.2796 192.182 69.669 191.862C69.3201 191.687 68.4769 192.56 67.9535 193.112C66.2962 193.025 66.2962 193.025 66.2671 191.833C67.0813 191.687 68.3606 192.094 68.2443 190.67C68.2152 190.175 67.5465 189.303 67.1976 189.332C66.616 189.361 66.0636 189.943 65.453 190.321C65.4821 190.088 65.6275 189.536 65.5984 188.983C65.5693 188.373 65.6275 187.471 65.2495 187.21C64.0283 186.337 64.0283 185.232 64.1155 183.953C64.2609 181.889 63.0979 180.435 61.615 180.784C61.0335 180.929 60.5392 181.453 59.9286 181.86C60.2193 182.441 60.7427 183.284 58.94 182.965C59.5506 183.691 60.103 184.186 60.3938 184.796C60.6846 185.378 60.7136 186.076 60.7718 186.308C59.9577 186.861 59.2889 187.21 58.7655 187.733C58.6783 187.849 59.2017 188.896 59.5797 189.012C60.0449 189.129 60.6555 188.722 61.3242 188.518C61.2079 189.158 61.0335 190.059 60.8009 191.397C60.0449 190.757 59.4343 190.117 58.7365 189.71C57.9805 189.245 57.1082 188.983 56.3232 188.663C56.0906 187.646 55.7998 186.512 55.5381 185.349C55.509 185.174 55.4509 184.913 55.5381 184.767C56.2069 183.662 56.2069 182.674 55.3346 181.598C55.0148 181.191 55.3055 180.29 55.2474 179.621C55.1311 178.516 55.1311 177.353 54.7821 176.335C54.6368 175.87 53.7063 175.405 53.183 175.434C52.6887 175.463 52.0781 176.044 51.7292 176.539C51.2349 177.266 50.9441 178.109 50.915 178.836C51.1476 179.766 51.3803 180.697 51.5256 181.423C50.6824 181.801 49.9846 182.063 49.374 182.441C49.2868 182.499 49.4903 183.343 49.752 183.488C50.3335 183.808 51.0023 183.895 51.7582 184.098C51.7001 184.535 51.6129 185.349 51.4966 186.279C51.264 186.134 51.0604 186.076 50.886 185.901C49.4613 184.564 48.0656 183.226 46.6118 181.889C46.3501 181.627 46.0012 181.336 45.6523 181.278C44.6928 181.133 44.4602 180.609 44.6056 179.766C45.4488 180.028 46.5536 180.319 46.8444 179.243C47.2224 177.731 47.1933 176.132 47.3678 174.562C47.4259 173.922 47.3969 173.166 47.6585 172.643C48.3854 171.247 47.6295 168.921 46.0884 168.601C45.6523 168.514 44.9545 168.805 44.6346 169.183C44.2567 169.619 44.0531 170.287 43.9659 170.869C43.8205 172.032 43.8496 173.224 43.7914 174.387C43.6751 174.3 43.5588 174.242 43.4716 174.155C43.0064 174.649 42.0469 175.288 42.1632 175.608C42.3667 176.248 43.1227 176.742 43.6461 177.295C43.7042 177.237 43.7624 177.149 43.8205 177.091C44.1403 177.993 44.3148 178.836 44.4893 179.679ZM118.953 174.736C119.156 175.288 119.214 176.015 119.592 176.364C119.825 176.568 120.726 176.335 121.046 176.015C121.279 175.783 121.104 174.678 120.959 174.649C120.348 174.533 119.68 174.649 119.04 174.678C119.011 174.678 118.982 174.736 118.924 174.765C117.964 171.509 117.063 168.223 116.016 164.967C115.725 164.094 115.202 163.164 114.533 162.582C114.126 162.233 112.876 162.204 112.556 162.524C112.033 163.106 111.597 164.181 111.771 164.879C112.207 166.624 113.138 168.252 113.69 169.968C114.126 171.334 114.359 172.759 114.533 174.184C114.649 175.318 115.144 175.87 116.249 176.132C117.586 176.481 118.342 175.783 118.953 174.736ZM100.053 108.181C100.17 108.734 100.257 108.879 100.228 109.024C100.17 109.315 100.053 109.577 99.9371 109.839C98.774 112.397 98.6287 115.072 99.5882 117.66C100.053 118.91 100.838 120.306 101.885 121.004C104.269 122.574 107.003 121.527 108.107 117.951C108.951 115.276 108.631 112.572 107.555 109.606C109.59 110.333 111.277 110.973 112.992 111.554C113.632 111.758 114.301 111.903 114.94 111.874C115.958 111.845 116.394 111.002 115.783 110.158C115.289 109.461 114.679 108.792 113.952 108.327C109.794 105.564 105.171 104.285 100.228 104.111C98.1634 104.023 96.099 104.198 94.0346 104.401C89.9349 104.837 86.1842 106.262 82.9277 108.85C82.1135 109.49 81.532 111.467 82.0554 111.961C82.9277 112.775 83.8872 112.339 84.8757 111.932C87.3181 110.914 89.7314 109.722 92.261 109.112C94.8197 108.472 97.4947 108.443 100.053 108.181ZM55.887 113.328C56.3232 113.357 56.6139 113.357 56.8756 113.444C57.6025 113.677 58.5329 114.142 58.8528 113.153C59.0272 112.601 58.7365 111.67 58.3294 111.205C56.5848 109.141 54.2879 107.861 51.7582 106.931C47.8911 105.535 43.8787 105.361 40.0406 106.582C36.8714 107.571 33.9347 109.315 30.9399 110.856C29.8059 111.438 29.5442 112.804 30.1548 113.735C30.7654 114.665 31.754 114.781 32.9461 114.055C36.1154 112.136 39.4882 110.769 43.1518 110.304C44.9254 110.071 46.8444 109.78 48.618 110.682C46.7572 114.491 46.4083 118.125 48.7343 121.76C50.3626 124.289 53.3283 124.347 55.0147 121.876C56.7884 119.201 56.6139 116.41 55.887 113.328ZM58.6783 135.047C58.7365 137.577 58.9109 139.961 60.9462 141.938C64.4063 145.311 68.7386 145.486 73.1 145.544C74.1467 145.573 74.9899 144.788 75.1353 143.625C75.2807 142.491 74.5538 141.822 73.5652 141.473C73.0418 141.299 72.4312 141.328 71.8788 141.241C70.0761 141.008 68.2443 140.892 66.4997 140.485C64.2318 139.932 62.9816 138.391 62.8362 136.036C62.7489 134.844 62.749 133.594 63.0397 132.431C64.0864 128.273 65.3949 124.173 66.3834 119.986C67.1976 116.526 67.6919 113.008 68.2443 109.519C68.4188 108.385 68.0117 107.367 66.616 107.28C65.2786 107.164 64.9006 107.978 64.6098 109.17C63.3595 114.345 62.022 119.492 60.6846 124.638C59.7832 128.069 58.5329 131.413 58.6783 135.047ZM97.6982 84.2517C92.7844 84.2226 88.2485 85.2403 83.7709 87.3919C81.8809 88.2933 79.8165 88.962 78.7116 90.9973C77.9266 92.4221 78.6244 93.7595 80.2527 93.6142C81.2122 93.5269 82.2008 93.0908 83.044 92.5965C86.0969 90.852 89.4407 89.8634 92.8425 89.34C95.5757 88.9039 98.4542 88.8457 101.216 89.0492C104.153 89.2819 107.061 89.9797 109.91 90.6484C111.742 91.0846 113.428 91.9568 115.231 92.4511C115.929 92.6256 116.801 92.2476 117.586 92.1313C117.354 91.4044 117.324 90.3867 116.83 90.0378C114.969 88.7003 113.05 87.3338 110.957 86.4906C106.741 84.7751 102.234 84.3389 97.6982 84.2517ZM69.1166 169.008C75.6296 168.834 81.3285 167.787 86.7075 165.461C89.1208 164.414 91.4469 163.135 93.773 161.855C94.9069 161.245 95.1395 160.111 94.6453 158.977C94.151 157.814 93.0751 158.046 92.1156 158.163C91.7086 158.221 91.3306 158.541 90.9526 158.715C88.5102 159.849 86.0969 161.099 83.5964 162.088C76.938 164.734 70.0179 165.286 62.9234 164.327C61.5568 164.152 60.3938 164.879 60.2193 165.955C60.074 166.944 60.9172 167.874 62.3419 168.107C64.8133 168.514 67.2848 168.775 69.1166 169.008ZM39.9825 87.2465C35.4176 87.5954 31.0271 88.4968 26.8983 90.474C25.8807 90.9683 24.8339 91.637 24.078 92.4802C23.6127 93.0326 23.6418 94.0212 23.4383 94.8063C24.2524 94.9807 25.0375 95.1552 25.8516 95.2715C25.9679 95.3006 26.1133 95.1843 26.2586 95.097C32.0157 92.3639 38.0926 91.4335 44.4311 91.8115C47.8911 92.015 51.293 92.6837 54.5205 94.0503C55.5381 94.4864 56.3522 94.69 57.0501 93.6723C57.6607 92.771 57.4862 91.3753 56.4395 90.9101C53.8226 89.7761 51.1767 88.4968 48.3854 87.8862C45.6814 87.3338 42.8029 87.4501 39.9825 87.2465ZM102.176 184.796C101.798 182.877 101.449 180.958 101.071 179.039C100.984 178.632 100.809 178.196 100.606 177.818C100.024 176.742 98.4542 175.986 97.5819 176.452C96.7096 176.917 96.1281 177.702 96.3317 178.778C96.477 179.679 96.6515 180.609 96.9713 181.453C97.3493 182.499 97.8436 183.488 98.3088 184.535C97.1167 185.465 97.2039 186.279 98.6287 186.948C98.8613 187.064 99.1229 187.355 99.1811 187.617C99.7045 189.507 99.8789 189.623 101.914 189.565C101.885 190.641 101.827 191.775 103.397 191.804C104.269 191.804 104.589 191.338 104.618 190.524C104.676 189.1 103.659 189.1 102.787 189.158C102.932 188.605 103.048 188.082 103.223 187.442C104.182 187.559 104.56 186.832 104.386 185.814C104.153 184.68 103.223 184.622 102.176 184.796ZM109.968 178.632C109.794 177.673 109.736 176.626 109.358 175.696C108.718 173.98 108.951 172.003 107.497 170.52C106.712 169.706 105.985 169.241 105.025 169.764C104.066 170.316 103.862 171.305 104.182 172.41C104.589 173.777 104.967 175.172 105.287 176.568C105.723 178.4 106.014 180.26 106.566 182.063C106.857 183.023 107.177 184.273 108.718 184.215C109.067 184.215 109.416 184.738 109.794 184.796C110.346 184.884 110.928 184.738 111.48 184.68C111.393 184.069 111.538 183.284 111.219 182.906C110.346 181.918 110.201 180.115 111.306 179.068C110.841 178.952 110.433 178.807 109.968 178.632ZM120.087 159.209C120.145 159.209 120.203 159.209 120.261 159.209C120.261 159.762 120.116 160.343 120.29 160.867C121.046 163.338 121.831 165.839 122.733 168.252C122.878 168.688 123.605 168.921 124.07 169.241C124.303 169.386 124.593 169.473 124.506 169.444C124.245 170.171 123.867 170.724 123.867 171.305C123.867 171.538 124.768 171.712 125.262 171.916C125.466 171.247 125.698 170.578 125.96 169.677C126.425 169.473 127.734 170.724 128.083 169.037C128.344 167.787 127.385 167.671 126.745 167.671C126.018 165.228 125.408 162.931 124.681 160.692C124.215 159.297 123.721 157.901 122.936 156.68C122.645 156.215 121.511 156.011 120.814 156.098C120.319 156.157 119.651 156.883 119.534 157.407C119.418 157.93 119.854 158.599 120.087 159.209ZM128.083 150.37C127.966 150.69 127.821 151.01 127.705 151.33C127.53 151.853 127.094 152.493 127.239 152.929C128.053 155.401 128.984 157.814 129.973 160.227C130.38 161.216 131.106 161.943 132.357 161.506C133.607 161.07 133.985 160.169 133.607 158.977C132.996 156.942 132.386 154.877 131.572 152.9C130.961 151.475 130.147 149.992 128.083 150.37ZM140.818 152.987C139.771 150.487 138.928 148.073 137.765 145.864C137.474 145.311 136.108 145.049 135.293 145.166C134.625 145.253 133.433 145.776 133.869 146.91C134.741 149.149 135.642 151.388 136.805 153.452C137.154 154.063 138.434 154.296 139.306 154.354C139.742 154.354 140.207 153.569 140.818 152.987ZM103.572 153.54C103.455 153.016 103.426 152.784 103.339 152.551C102.118 149.614 99.5882 148.132 96.9132 146.881C96.6224 146.736 95.9246 147.114 95.6338 147.434C95.4303 147.666 95.4012 148.364 95.5757 148.626C96.5352 150.021 97.5819 151.359 98.6577 152.696C99.2393 153.423 99.7917 154.267 100.548 154.761C101.042 155.081 101.972 155.081 102.554 154.848C103.019 154.645 103.31 153.889 103.572 153.54ZM57.6316 157.639C58.0677 157.174 58.5039 156.854 58.7074 156.418C59.0272 155.779 59.2017 155.052 59.3761 154.325C59.6378 153.394 60.0449 152.435 59.9867 151.533C59.9286 150.748 59.4343 149.76 58.3585 149.847C57.5153 149.905 56.4976 150.08 56.2941 151.243C56.265 151.475 55.9743 151.65 55.887 151.911C55.3055 153.772 54.6368 155.604 54.2878 157.494C54.2006 158.017 55.0729 158.861 55.7126 159.239C56.0615 159.442 56.9047 159.093 57.3117 158.773C57.6607 158.541 57.6025 157.872 57.6316 157.639ZM86.7366 154.645C87.2309 154.237 87.7833 153.976 88.045 153.54C88.6847 152.493 87.8996 150.603 86.7366 150.167C86.5912 150.109 86.3877 150.021 86.3877 149.905C86.2423 147.812 84.2361 147.143 83.1312 145.776C82.8986 145.486 81.6774 145.573 81.3866 145.893C80.9796 146.387 80.6307 147.463 80.8923 147.899C82.0554 149.847 83.3929 151.679 84.7885 153.452C85.1956 154.005 85.9806 154.208 86.7366 154.645ZM63.912 150.69C62.8653 150.021 62.2547 150.429 62.0221 151.33C61.4696 153.336 60.8881 155.371 60.6264 157.407C60.5683 157.959 61.5568 158.919 62.2547 159.18C62.6326 159.326 63.7375 158.541 63.9701 157.93C64.697 156.011 65.2204 154.005 65.6856 152.028C66.0345 150.487 65.453 149.876 63.5922 149.673C63.7085 150.051 63.7957 150.37 63.912 150.69ZM92.4064 153.452C94.3545 153.511 95.1105 152.028 94.18 150.458C93.017 148.48 91.7086 146.561 89.4697 145.631C88.9173 145.398 88.045 145.311 87.6089 145.602C86.8529 146.096 87.0855 146.939 87.5798 147.637C88.6556 149.149 89.6442 150.719 90.8072 152.173C91.3015 152.755 92.0284 153.162 92.4064 153.452ZM74.3212 149.12C74.8736 151.446 75.2225 153.423 75.8331 155.313C76.1239 156.273 77.1125 156.825 78.1301 156.564C78.6535 156.418 79.4095 155.604 79.3513 155.226C79.0024 153.162 78.5663 151.097 77.8975 149.12C77.6358 148.393 76.9089 147.259 75.7168 147.783C75.1062 148.044 74.6992 148.742 74.3212 149.12ZM68.3025 153.656C68.2152 153.685 68.1571 153.685 68.0698 153.714C68.3025 154.819 68.4188 155.953 68.7677 157.029C69.1457 158.134 70.0179 158.483 71.21 158.163C72.2277 157.901 72.4603 157.116 72.3731 156.302C72.1986 154.586 72.0823 152.813 71.6171 151.185C71.4136 150.458 70.425 149.585 69.669 149.469C68.7386 149.324 68.2443 150.225 68.3025 151.272C68.3315 152.028 68.3025 152.842 68.3025 153.656ZM49.8974 159.064C50.7406 159.355 51.2349 158.424 51.4675 157.581C51.7582 156.505 51.8164 155.342 51.8455 154.208C51.8745 153.045 51.0313 152.609 50.0137 153.074C48.1238 153.976 46.8153 156.796 46.8735 159.006C46.9026 160.547 48.0074 160.256 48.7634 160.431C48.967 160.489 49.4322 159.617 49.8974 159.064ZM141.254 139.031C141.487 141.211 142.33 142.811 144.133 143.247C145.47 143.567 146.284 142.927 146.052 141.589C145.906 140.601 145.703 139.583 145.296 138.711C144.83 137.722 143.987 137.257 142.795 137.577C141.923 137.81 141.08 138.042 141.254 139.031ZM149.744 132.256C149.773 130.424 149.192 129.785 147.389 129.814C146.4 129.814 145.063 129.494 144.888 131.006C144.656 132.867 146.052 134.291 147.912 134.35C149.512 134.408 149.715 134.175 149.744 132.256ZM70.8902 177.789C70.9193 177.673 70.9484 177.556 70.9484 177.44C71.4717 177.44 71.966 177.44 72.4894 177.44C72.8092 177.44 73.1291 177.382 73.4489 177.353C73.3035 176.422 73.4489 175.288 72.9546 174.62C72.3149 173.747 70.8902 174.329 70.1342 175.463C69.4073 176.597 69.8435 177.295 70.8902 177.789ZM83.7999 174.271C82.695 172.352 81.8809 172.381 80.5144 174.387C80.1945 174.881 80.1945 175.579 80.0491 176.19C80.6016 176.277 81.1831 176.335 81.91 176.422C81.91 176.422 82.0554 176.655 82.2008 176.888C82.5787 176.626 83.0149 176.422 83.3347 176.103C83.451 175.957 83.3929 175.492 83.2766 175.288C82.666 174.474 82.6369 174.474 83.7999 174.271ZM74.3793 177.295C75.3388 177.12 76.2983 177.062 77.1997 176.771C77.694 176.626 78.479 176.044 78.45 175.783C78.3337 175.056 77.9557 174.271 77.4323 173.777C77.0543 173.428 75.0481 175.23 74.9318 175.899C74.8736 176.219 74.6992 176.539 74.3793 177.295ZM155.734 79.3088C156.955 78.9017 158.758 79.0762 158.147 77.0409C158.031 76.6629 156.548 76.2849 156.054 76.5466C154.92 77.1863 155.327 78.3202 155.734 79.3088ZM173.79 68.1437C173.267 67.7366 172.772 67.0678 172.191 67.0097C171.144 66.8643 170.941 67.7657 170.853 68.6379C170.766 69.5974 171.348 69.7719 172.074 69.8591C173.063 69.9464 173.499 69.4521 173.79 68.1437ZM151.925 76.2558C150.646 76.4303 150.093 76.7792 150.035 77.7678C149.977 78.8436 150.616 79.1344 151.46 79.1634C152.303 79.1925 152.913 78.7564 152.768 77.855C152.652 77.3026 152.216 76.8083 151.925 76.2558ZM171.231 70.3243C170.737 69.9464 170.272 69.3648 169.719 69.2485C168.731 69.045 168.411 69.8301 168.324 70.6733C168.236 71.6328 168.818 71.9817 169.661 71.9817C170.592 71.9817 171.086 71.5746 171.231 70.3243ZM168.585 72.7376C168.091 72.3597 167.539 71.6328 167.102 71.6909C166.608 71.7491 165.969 72.4469 165.794 72.9993C165.532 73.7844 166.085 74.2787 166.928 74.2496C167.684 74.2205 168.411 74.1042 168.585 72.7376ZM153.03 82.7107C153.03 82.4781 153.03 82.2746 153.001 82.0419C152.477 81.7512 151.983 81.2569 151.401 81.1987C150.529 81.0824 150.122 81.7221 150.18 82.5653C150.209 83.5248 150.907 83.8447 151.663 83.6702C152.157 83.583 152.565 83.0596 153.03 82.7107ZM175.069 78.5819C174.866 78.5819 174.633 78.5819 174.43 78.5528C174.081 79.0762 173.47 79.5996 173.47 80.1229C173.47 80.53 174.226 81.1406 174.72 81.2569C175.505 81.4023 176.232 80.9952 175.942 80.0066C175.825 79.4833 175.36 79.0471 175.069 78.5819ZM146.081 83.8737C146.284 83.8737 146.488 83.8737 146.691 83.8737C147.04 83.4085 147.505 82.9724 147.651 82.449C147.883 81.6349 147.302 81.1987 146.517 81.1406C145.615 81.0534 145.034 81.5186 145.179 82.3909C145.237 82.9142 145.761 83.3794 146.081 83.8737ZM174.255 86.0544C175.564 86.0253 176.145 85.5892 175.913 84.6879C175.796 84.2226 175.244 83.6411 174.808 83.5539C173.993 83.3794 173.325 83.961 173.47 84.8042C173.499 85.3275 174.052 85.7637 174.255 86.0544ZM35.1268 161.128C34.2255 160.547 33.6149 159.907 33.2659 160.024C32.7426 160.198 32.3937 160.896 31.9575 161.39C32.4227 161.768 32.8589 162.437 33.3241 162.466C33.7893 162.466 34.2836 161.826 35.1268 161.128ZM158.234 82.6816C158.234 82.4781 158.205 82.2455 158.205 82.0419C157.653 81.7512 157.1 81.1987 156.606 81.2569C156.17 81.315 155.617 82.042 155.53 82.5362C155.356 83.4957 156.199 83.8156 156.926 83.6702C157.362 83.5539 157.769 83.0015 158.234 82.6816ZM172.016 71.8072C171.086 71.72 170.941 72.3887 170.911 73.2029C170.882 74.1333 171.493 74.3368 172.249 74.3077C172.976 74.3077 173.441 73.9879 173.383 73.1738C173.296 72.3597 173.092 71.72 172.016 71.8072ZM149.163 78.2911C148.436 79.0471 147.651 79.5705 147.738 79.8903C147.854 80.4428 148.436 81.0824 148.959 81.2569C149.25 81.3441 150.122 80.6172 150.209 80.152C150.297 79.774 149.715 79.1925 149.163 78.2911ZM155.647 80.5009C155.647 80.2974 155.676 80.1229 155.676 79.9194C155.094 79.5705 154.542 78.9599 153.96 78.9308C153.582 78.9017 153.175 79.7449 152.768 80.1811C153.233 80.5882 153.64 81.2278 154.135 81.315C154.571 81.3732 155.123 80.7917 155.647 80.5009ZM150.093 86.8104C150.093 87.043 150.093 87.2465 150.093 87.4791C150.616 87.7699 151.14 88.3223 151.663 88.3223C152.07 88.3223 152.855 87.4501 152.768 87.2756C152.535 86.7232 152.041 86.0835 151.489 85.909C151.169 85.7927 150.587 86.4615 150.093 86.8104ZM158.147 87.4501C158.147 87.2175 158.147 87.0139 158.147 86.7813C157.595 86.4906 157.042 85.909 156.548 85.9672C156.112 86.0253 155.763 86.8104 155.385 87.2465C155.85 87.6245 156.286 88.2642 156.781 88.2933C157.188 88.3805 157.682 87.7699 158.147 87.4501ZM151.605 89.8634C151.023 90.7356 150.384 91.259 150.442 91.7242C150.5 92.1894 151.198 92.5674 151.605 93.0036C152.041 92.5674 152.739 92.1894 152.797 91.7242C152.855 91.259 152.216 90.7356 151.605 89.8634ZM81.154 193.432C80.2527 192.821 79.7293 192.182 79.2932 192.24C78.8279 192.298 78.4209 193.025 78.0138 193.432C78.45 193.839 78.857 194.537 79.3513 194.624C79.7584 194.682 80.2817 194.042 81.154 193.432ZM105.462 190.059C106.188 189.216 106.886 188.751 106.886 188.344C106.857 187.878 106.276 187.181 105.781 187.006C104.996 186.744 104.298 187.239 104.415 188.169C104.473 188.692 104.938 189.158 105.462 190.059ZM159.804 78.5528C159.601 78.5528 159.368 78.5528 159.165 78.5528C158.816 79.018 158.292 79.4251 158.205 79.9485C158.06 80.7335 158.554 81.1697 159.426 81.1697C160.27 81.1697 160.822 80.7917 160.677 79.9776C160.619 79.4833 160.124 79.0471 159.804 78.5528ZM126.745 171.945C126.425 172.41 125.815 172.991 125.902 173.34C126.047 173.864 126.658 174.503 127.181 174.678C127.995 174.91 128.315 174.3 128.315 173.457C128.344 172.555 127.966 172.119 126.745 171.945ZM164.195 76.7211C164.428 76.7211 164.66 76.7211 164.893 76.692C165.183 76.2268 165.649 75.8197 165.765 75.3254C165.939 74.5694 165.561 73.8716 164.689 74.1042C164.137 74.2496 163.41 74.773 163.264 75.2673C163.148 75.6162 163.846 76.2268 164.195 76.7211ZM29.0209 158.89C29.8931 159.529 30.4747 160.198 30.7363 160.082C31.2888 159.878 31.8994 159.297 32.0448 158.773C32.132 158.483 31.3179 157.61 30.8817 157.61C30.4165 157.61 29.8931 158.25 29.0209 158.89ZM173.499 78.1458C173.528 77.9132 173.528 77.7096 173.557 77.477C173.092 77.1281 172.685 76.6047 172.191 76.4884C171.289 76.2849 170.766 76.8955 170.911 77.7096C170.999 78.1458 171.58 78.6982 172.016 78.7564C172.452 78.8436 173.005 78.3784 173.499 78.1458ZM99.6463 190.815C99.6463 190.611 99.6754 190.437 99.6754 190.233C99.2102 189.914 98.7159 189.303 98.2797 189.332C97.8145 189.361 97.3493 189.972 96.9132 190.35C97.3784 190.786 97.7855 191.397 98.3379 191.6C98.6577 191.687 99.2102 191.106 99.6463 190.815ZM163.41 77.9132C163.41 77.7096 163.41 77.5061 163.381 77.3026C162.886 77.0118 162.45 76.4884 161.927 76.4303C161.113 76.3431 160.619 76.8664 160.648 77.7678C160.677 78.6982 161.316 78.9599 161.985 78.8145C162.508 78.7273 162.945 78.233 163.41 77.9132ZM143.987 78.233C143.347 79.0762 142.708 79.5705 142.737 80.0357C142.766 80.5009 143.464 80.908 143.842 81.3732C144.278 80.9661 145.005 80.6172 145.092 80.152C145.15 79.6868 144.54 79.1343 143.987 78.233ZM164.05 81.315C164.253 81.315 164.457 81.3441 164.66 81.3441C165.009 80.908 165.532 80.5009 165.62 80.0066C165.736 79.3088 165.358 78.5819 164.486 78.8145C163.962 78.9599 163.323 79.4542 163.206 79.9194C163.148 80.2974 163.759 80.8498 164.05 81.315ZM109.096 188.111C109.096 188.314 109.096 188.518 109.096 188.751C109.561 189.07 110.085 189.681 110.492 189.623C110.986 189.536 111.393 188.896 111.829 188.489C111.393 188.082 111.015 187.413 110.521 187.326C110.114 187.21 109.561 187.791 109.096 188.111ZM149.046 83.0596C148.465 83.7865 147.738 84.3099 147.825 84.6297C147.941 85.124 148.61 85.502 149.046 85.9381C149.453 85.502 150.122 85.124 150.209 84.6297C150.268 84.2808 149.599 83.7865 149.046 83.0596ZM147.912 87.3919C147.912 87.1884 147.883 86.9849 147.883 86.7813C147.389 86.4906 146.807 85.909 146.4 85.9963C145.935 86.0835 145.383 86.7813 145.325 87.2756C145.266 87.5664 146.081 88.2642 146.488 88.2642C146.953 88.2933 147.447 87.7118 147.912 87.3919ZM158.205 92.1604C158.205 91.9568 158.205 91.7242 158.234 91.5207C157.711 91.2299 157.159 90.7066 156.635 90.6775C156.257 90.6775 155.53 91.4625 155.588 91.7533C155.705 92.2476 156.286 92.8873 156.751 92.9454C157.159 93.0326 157.711 92.4511 158.205 92.1604ZM117.412 183.401C117.615 183.401 117.848 183.401 118.051 183.401C118.342 182.935 118.807 182.499 118.924 182.005C119.127 181.22 118.72 180.755 117.848 180.726C116.976 180.726 116.365 181.104 116.51 181.976C116.598 182.499 117.121 182.935 117.412 183.401ZM172.016 85.2403C171.435 86.1707 170.882 86.6941 170.882 87.1884C170.882 87.5664 171.58 88.177 172.045 88.2642C172.743 88.4096 173.47 88.0025 173.238 87.1302C173.121 86.6069 172.627 86.1417 172.016 85.2403ZM154.193 83.0014C153.582 83.8156 152.913 84.3389 153.001 84.6588C153.146 85.1821 153.757 85.5601 154.193 86.0254C154.6 85.6474 155.327 85.2694 155.327 84.8623C155.356 84.368 154.774 83.8737 154.193 83.0014ZM170.97 75.6162C170.97 75.3836 170.941 75.18 170.941 74.9474C170.446 74.6567 169.923 74.1042 169.516 74.1914C169.051 74.2787 168.469 74.9183 168.353 75.3836C168.149 76.2268 168.818 76.6338 169.574 76.4594C170.097 76.3721 170.504 75.9069 170.97 75.6162ZM153.408 96.5218C152.535 95.9402 152.07 95.3878 151.547 95.3587C151.169 95.3296 150.762 96.0275 150.355 96.4055C150.762 96.8416 151.111 97.5103 151.605 97.6266C152.012 97.6848 152.535 97.0742 153.408 96.5218ZM172.162 84.1354C172.714 83.2341 173.296 82.6816 173.208 82.3327C173.063 81.8675 172.394 81.5186 171.958 81.1406C171.58 81.6058 170.999 82.0129 170.911 82.5072C170.882 82.827 171.493 83.2922 172.162 84.1354ZM169.254 81.4023C169.458 81.4023 169.661 81.4023 169.865 81.4313C170.155 80.9661 170.708 80.4718 170.679 80.0357C170.65 79.5996 170.068 78.9599 169.632 78.8727C168.789 78.6982 168.207 79.2507 168.382 80.152C168.44 80.5881 168.934 80.9661 169.254 81.4023ZM164.311 86.3743C164.951 85.6474 165.649 85.2112 165.591 84.8623C165.503 84.368 164.922 83.961 164.515 83.4957C164.079 83.8737 163.41 84.2226 163.294 84.6879C163.206 85.0368 163.788 85.5892 164.311 86.3743ZM159.688 83.3504C159.485 83.3504 159.252 83.3504 159.048 83.3504C158.758 83.8447 158.205 84.3389 158.234 84.8042C158.263 85.2112 158.932 85.8509 159.339 85.8509C159.746 85.8509 160.415 85.2112 160.473 84.8042C160.502 84.3389 159.979 83.8447 159.688 83.3504ZM166.928 79.4542C167.539 78.5819 168.178 78.0876 168.091 77.7096C168.004 77.2444 167.335 76.8955 166.928 76.4884C166.521 76.9246 165.91 77.2735 165.794 77.7678C165.707 78.0876 166.317 78.5819 166.928 79.4542ZM163.642 87.1012C162.799 86.5196 162.247 85.88 161.898 85.9963C161.433 86.1126 160.909 86.7813 160.793 87.2756C160.735 87.5664 161.52 88.2351 161.956 88.2642C162.392 88.2642 162.857 87.6827 163.642 87.1012ZM170.882 85.0949C170.882 84.8914 170.911 84.6879 170.911 84.4843C170.446 84.1354 169.952 83.4957 169.545 83.5539C169.08 83.612 168.498 84.2517 168.382 84.746C168.324 85.0368 168.992 85.7927 169.399 85.8509C169.894 85.88 170.388 85.3566 170.882 85.0949ZM154.484 92.771C154.28 92.771 154.106 92.771 153.902 92.771C153.582 93.2071 152.943 93.7014 153.03 94.0212C153.175 94.5155 153.728 95.0389 154.251 95.2424C154.454 95.3296 155.269 94.6027 155.298 94.2538C155.298 93.7595 154.774 93.2653 154.484 92.771ZM160.56 82.1001C160.56 82.3036 160.589 82.5072 160.589 82.6816C161.026 82.9724 161.433 83.4085 161.927 83.4667C162.712 83.583 163.323 83.0887 163.119 82.2745C163.003 81.8093 162.392 81.1697 161.985 81.1697C161.491 81.1987 161.026 81.7803 160.56 82.1001ZM166.899 84.0773C167.51 83.2922 168.149 82.7688 168.062 82.449C167.946 81.9547 167.335 81.5476 166.928 81.1115C166.521 81.5476 165.939 81.9256 165.794 82.449C165.736 82.7688 166.347 83.2922 166.899 84.0773ZM144.016 86.4324C144.54 85.6183 145.179 85.0949 145.092 84.746C144.947 84.2808 144.278 83.9319 143.842 83.5539C143.493 83.961 142.882 84.3971 142.853 84.8332C142.824 85.2112 143.435 85.6474 144.016 86.4324ZM159.252 87.7408C158.7 88.6131 158.176 89.1074 158.234 89.4854C158.292 89.9215 158.903 90.2995 159.281 90.7066C159.688 90.2704 160.328 89.9215 160.444 89.4272C160.502 89.0783 159.863 88.584 159.252 87.7408ZM168.266 87.4501C168.266 87.2465 168.295 87.0721 168.295 86.8686C167.829 86.5196 167.335 85.909 166.87 85.909C166.492 85.909 165.881 86.6359 165.823 87.1012C165.794 87.4501 166.463 88.1188 166.899 88.177C167.306 88.2351 167.8 87.7118 168.266 87.4501ZM56.2941 185.639C56.3232 185.843 56.3232 186.047 56.3522 186.25C56.7884 186.512 57.3118 187.064 57.6897 186.977C58.0968 186.89 58.7074 186.25 58.7074 185.872C58.6783 185.465 58.0677 184.767 57.6607 184.767C57.2245 184.738 56.7593 185.32 56.2941 185.639ZM124.186 173.369C123.343 172.759 122.907 172.177 122.5 172.206C122.064 172.235 121.686 172.875 121.279 173.224C121.657 173.631 121.977 174.3 122.442 174.387C122.791 174.503 123.314 173.922 124.186 173.369ZM109.852 186.192C109.125 185.581 108.631 184.942 108.369 185.029C107.846 185.174 107.468 185.756 107.003 186.134C107.381 186.512 107.729 187.151 108.166 187.21C108.602 187.268 109.067 186.715 109.852 186.192ZM159.426 95.9112C159.921 95.0389 160.473 94.4864 160.386 94.1085C160.299 93.6723 159.63 93.1199 159.194 93.0908C158.845 93.0908 158.234 93.8177 158.205 94.2248C158.205 94.6318 158.816 95.068 159.426 95.9112ZM154.338 87.7118C153.669 88.4968 153.03 88.9329 153.059 89.3109C153.117 89.7761 153.698 90.4449 154.135 90.503C154.513 90.5321 155.21 89.9215 155.298 89.4854C155.385 89.1074 154.832 88.584 154.338 87.7118ZM161.782 90.096C161.2 90.9392 160.677 91.3753 160.648 91.8115C160.648 92.1894 161.2 92.8291 161.578 92.9163C162.218 93.0617 163.032 92.8 162.857 91.8987C162.799 91.3753 162.334 90.9683 161.782 90.096ZM171.144 89.2528C170.33 88.7876 169.807 88.2642 169.429 88.3223C169.022 88.4096 168.411 89.1074 168.44 89.4854C168.498 89.8924 169.167 90.5321 169.574 90.5321C169.981 90.5612 170.388 89.8924 171.144 89.2528ZM89.179 192.792C89.0045 192.792 88.801 192.821 88.6265 192.821C88.3649 193.286 87.8996 193.81 87.9578 194.217C88.0159 194.624 88.6556 194.944 89.0336 195.293C89.3825 194.857 89.9059 194.45 89.9931 193.984C90.0222 193.635 89.4697 193.199 89.179 192.792ZM166.114 89.5435C165.329 88.9329 164.864 88.3514 164.486 88.3805C164.079 88.4096 163.701 89.0492 163.323 89.4272C163.701 89.8343 164.05 90.4158 164.515 90.5321C164.835 90.6194 165.329 90.0669 166.114 89.5435ZM154.193 100.476C154.687 99.691 155.21 99.2258 155.181 98.8478C155.123 98.4698 154.513 97.8593 154.164 97.8593C153.815 97.8593 153.175 98.4698 153.175 98.8478C153.117 99.2549 153.669 99.691 154.193 100.476ZM48.1528 178.894C47.6295 179.708 47.1352 180.144 47.1642 180.58C47.1642 180.929 47.833 181.598 48.0947 181.569C48.5017 181.511 49.0833 180.958 49.1414 180.58C49.1705 180.202 48.6471 179.737 48.1528 178.894ZM116.656 179.824C116.627 179.65 116.627 179.446 116.598 179.272C116.161 179.097 115.667 178.719 115.26 178.778C114.882 178.836 114.272 179.475 114.359 179.679C114.475 180.115 115.027 180.726 115.347 180.726C115.783 180.697 116.22 180.144 116.656 179.824ZM149.308 90.9392C149.715 90.1251 150.122 89.6598 150.093 89.2528C150.064 88.9039 149.337 88.2933 149.192 88.3514C148.726 88.584 148.174 89.0202 148.029 89.5145C147.971 89.7471 148.639 90.2123 149.308 90.9392ZM150.965 146.213C150.471 147.027 150.006 147.463 150.035 147.87C150.035 148.219 150.587 148.568 150.907 148.888C151.285 148.48 151.809 148.132 151.983 147.666C152.07 147.463 151.518 146.998 150.965 146.213ZM95.8083 189.448C96.2735 188.78 96.7969 188.344 96.7387 188.053C96.6224 187.646 96.099 187.122 95.692 187.093C95.3721 187.064 94.6452 187.704 94.6743 187.966C94.7325 188.402 95.2849 188.78 95.8083 189.448ZM31.8994 153.918C31.2888 153.801 30.7073 153.685 30.0676 153.569C29.9513 155.11 30.8817 155.43 32.0448 155.749C31.9866 155.11 31.9285 154.528 31.8994 153.918ZM117.819 179.068C118.284 178.254 118.633 177.847 118.72 177.382C118.749 177.12 118.313 176.771 118.08 176.452C117.673 176.829 117.179 177.149 116.947 177.615C116.83 177.789 117.324 178.283 117.819 179.068ZM151.082 102.104C151.518 101.348 151.867 100.709 152.245 100.098C151.779 100.04 151.14 99.7783 150.878 99.9818C150.122 100.476 150.093 101.174 151.082 102.104ZM29.835 155.255C29.079 156.069 28.4975 156.68 27.945 157.29C28.2358 157.436 28.5847 157.727 28.8464 157.668C30.0676 157.523 30.0385 156.622 29.835 155.255ZM149.308 95.475C149.802 94.7772 150.268 94.3992 150.297 93.9922C150.326 93.6723 149.802 93.3234 149.541 93.0036C149.221 93.2653 148.668 93.5269 148.639 93.8177C148.581 94.2248 148.93 94.69 149.308 95.475ZM148.697 151.126C149.046 150.661 149.424 150.341 149.395 150.138C149.308 149.789 148.93 149.527 148.697 149.207C148.436 149.469 147.971 149.731 147.941 149.992C147.912 150.312 148.319 150.632 148.697 151.126ZM32.7135 155.488C31.8412 157.378 31.9285 157.552 33.4113 157.436C33.1787 156.767 32.9461 156.127 32.7135 155.488Z" fill="#BEB5A8"/>
<path d="M16.8111 139.754C13.1475 138.272 10.7052 135.916 8.64076 133.154C6.19839 129.869 4.91905 126.118 4.48291 122.076C3.93047 116.668 4.65736 111.551 8.66984 107.48C9.65842 106.492 10.9959 105.852 12.4206 105.125C13.0022 116.755 14.2233 128.182 16.8111 139.754Z" fill="#BEB5A8"/>
<path d="M44.4911 179.677C44.3167 178.834 44.1422 178.02 43.9677 177.177C43.9096 177.235 43.8514 177.322 43.7933 177.38C43.2699 176.828 42.5139 176.362 42.3104 175.694C42.2232 175.374 43.1536 174.734 43.6188 174.24C43.7351 174.327 43.8514 174.385 43.9387 174.473C43.9968 173.309 43.9677 172.117 44.1131 170.954C44.1713 170.373 44.4039 169.704 44.7819 169.268C45.1017 168.919 45.7995 168.599 46.2357 168.686C47.7476 169.006 48.5327 171.332 47.8058 172.728C47.515 173.28 47.5732 174.007 47.515 174.647C47.3406 176.217 47.3987 177.816 46.9916 179.328C46.73 180.404 45.6251 180.113 44.7528 179.852C44.6656 179.822 44.5783 179.735 44.4911 179.677Z" fill="black"/>
<path d="M163.584 69.4513C164.311 69.4804 165.213 69.2768 165.678 69.6257C166.027 69.8874 166.056 71.1668 165.707 71.5157C165.329 71.8937 164.311 71.9518 163.73 71.7483C163.439 71.632 163.41 70.6434 163.323 70.0619C163.294 69.8583 163.526 69.6257 163.614 69.4222C163.643 69.3931 163.584 69.4513 163.584 69.4513Z" fill="black"/>
<path d="M157.597 71.8644C156.841 71.8062 156.288 71.7771 155.648 71.7481C155.678 71.2247 155.707 70.7013 155.707 70.207C156.346 70.207 156.957 70.207 157.567 70.207C157.597 70.7595 157.597 71.2538 157.597 71.8644Z" fill="#BEB5A8"/>
<path d="M158.993 67.5898C159.371 67.5898 159.807 67.5898 160.301 67.5898C160.301 68.0841 160.301 68.5784 160.301 69.2181C159.661 69.3053 158.993 69.4216 158.266 69.5379C158.527 68.811 158.76 68.2586 158.993 67.5898Z" fill="#BEB5A8"/>
<path d="M166.289 65.4084C167.161 65.3212 167.859 65.2339 168.528 65.1758C168.412 65.6701 168.237 66.2807 168.063 66.9494C167.627 66.9203 167.074 66.8622 166.493 66.804C166.434 66.3679 166.347 65.8736 166.289 65.4084Z" fill="#BEB5A8"/>
<path d="M148.086 74.0723C148.086 73.5489 148.086 73.0255 148.086 72.5312C148.697 72.5312 149.278 72.5312 149.947 72.5312C149.947 72.9965 149.947 73.5198 149.947 74.0723C149.336 74.0723 148.726 74.0723 148.086 74.0723Z" fill="#BEB5A8"/>
<path d="M126.227 181.044C126.227 180.433 126.227 179.939 126.227 179.328C126.75 179.357 127.244 179.415 127.797 179.444C128.204 180.811 127.651 181.276 126.227 181.044Z" fill="#BEB5A8"/>
<path d="M150.703 71.7463C150.703 71.1648 150.703 70.7287 150.703 70.2344C151.256 70.2344 151.75 70.2344 152.331 70.2344C152.36 70.6705 152.39 71.0776 152.419 71.6009C151.837 71.6591 151.343 71.6882 150.703 71.7463Z" fill="#BEB5A8"/>
<path d="M123.954 181.449C124.477 181.536 124.942 181.624 125.407 181.711C125.873 183.223 124.797 183.194 123.75 183.281C123.808 182.67 123.895 182.089 123.954 181.449Z" fill="#BEB5A8"/>
<path d="M171.404 60.7266C172.044 60.7266 172.567 60.7266 173.149 60.7266C173.178 61.279 173.207 61.8314 173.236 62.5874C172.509 61.9478 171.026 62.442 171.404 60.7266Z" fill="#BEB5A8"/>
<path d="M165.677 62.9102C165.59 63.4626 165.502 63.9278 165.415 64.4221C164.921 64.4221 164.456 64.4221 163.874 64.4221C163.845 64.0441 163.787 63.637 163.758 63.1137C164.397 63.0555 164.979 62.9683 165.677 62.9102Z" fill="#BEB5A8"/>
<path d="M128.43 178.748C128.488 178.137 128.517 177.672 128.575 177.148C129.098 177.236 129.564 177.294 130.174 177.381C130.145 177.846 130.087 178.282 130.058 178.748C129.505 178.748 129.04 178.748 128.43 178.748Z" fill="#BEB5A8"/>
<path d="M169.142 59.8852C169.113 59.5363 169.084 59.1874 169.055 58.7512C169.607 58.6349 170.131 58.5186 170.712 58.4023C171.119 59.9143 170.363 60.0887 169.142 59.8852Z" fill="#BEB5A8"/>
<path d="M121.546 185.493C121.488 184.562 121.459 184.097 121.43 183.516C122.04 183.545 122.651 183.603 123.232 183.632C123.32 183.748 123.407 183.894 123.494 184.01C122.913 184.446 122.36 184.882 121.546 185.493Z" fill="#BEB5A8"/>
<path d="M137.242 164.559C137.882 164.704 138.347 164.82 139.336 165.024C138.638 165.634 138.202 166.012 137.475 166.623C137.358 165.634 137.3 165.14 137.242 164.559Z" fill="#BEB5A8"/>
<path d="M130.875 176.742C130.875 176.19 130.875 175.724 130.875 175.172C131.34 175.23 131.776 175.317 132.242 175.375C132.242 175.782 132.242 176.16 132.242 176.655C131.805 176.655 131.369 176.684 130.875 176.742Z" fill="#BEB5A8"/>
<path d="M36.6421 169.703C36.613 170.401 36.584 170.953 36.5258 171.884C35.8571 171.128 35.3918 170.575 34.7812 169.878C35.5372 169.819 36.0315 169.761 36.6421 169.703Z" fill="#BEB5A8"/>
<path d="M168.82 64.7702C168.82 63.8688 168.82 63.4327 168.82 63.0547C169.431 63.3164 169.983 63.549 170.681 63.8397C170.652 65.1191 169.431 63.956 168.82 64.7702Z" fill="#BEB5A8"/>
<path d="M148.844 155.892C148.961 156.968 148.699 157.549 147.507 157.259C147.1 156.067 147.594 155.689 148.844 155.892Z" fill="#BEB5A8"/>
<path d="M162.858 66.6013C162.393 66.6886 161.957 66.7758 161.375 66.863C161.404 66.3397 161.433 65.9035 161.462 65.0312C162.189 65.5255 162.654 65.8454 163.149 66.1943C163.061 66.3397 162.974 66.485 162.858 66.6013Z" fill="#BEB5A8"/>
<path d="M100.051 108.18C97.4926 108.442 94.8176 108.471 92.288 109.081C89.7584 109.692 87.3451 110.913 84.9027 111.902C83.9432 112.309 82.9837 112.745 82.0824 111.931C81.559 111.466 82.1405 109.459 82.9546 108.82C86.2111 106.261 89.9619 104.836 94.0616 104.371C96.126 104.138 98.1904 103.993 100.255 104.08C105.198 104.255 109.821 105.534 113.979 108.296C114.676 108.761 115.287 109.459 115.81 110.128C116.421 110.971 116.014 111.814 114.967 111.844C114.328 111.873 113.63 111.727 113.019 111.524C111.304 110.942 109.617 110.303 107.582 109.576C108.658 112.541 108.978 115.245 108.134 117.92C107.029 121.468 104.296 122.544 101.912 120.973C100.865 120.276 100.08 118.88 99.6151 117.63C98.6556 115.042 98.801 112.367 99.9641 109.808C100.08 109.547 100.197 109.285 100.255 108.994C100.255 108.878 100.168 108.732 100.051 108.18Z" fill="black"/>
<path d="M55.8887 113.327C56.6447 116.409 56.7901 119.201 55.0164 121.817C53.3591 124.289 50.3643 124.231 48.736 121.701C46.4099 118.067 46.7589 114.432 48.6197 110.623C46.8461 109.693 44.9271 110.013 43.1534 110.245C39.4899 110.71 36.1171 112.106 32.9478 113.996C31.7557 114.723 30.7671 114.607 30.1565 113.676C29.5459 112.746 29.8076 111.379 30.9416 110.798C33.9073 109.257 36.873 107.541 40.0423 106.524C43.8803 105.331 47.8928 105.477 51.7599 106.872C54.2895 107.774 56.5865 109.082 58.3311 111.147C58.7381 111.641 59.058 112.571 58.8545 113.095C58.5055 114.083 57.6042 113.618 56.8773 113.385C56.6156 113.356 56.3248 113.385 55.8887 113.327Z" fill="black"/>
<path d="M58.6757 135.045C58.5303 131.41 59.7806 128.066 60.6819 124.635C62.0194 119.489 63.386 114.342 64.6072 109.167C64.8979 107.946 65.2759 107.161 66.6134 107.277C68.0091 107.393 68.4452 108.382 68.2417 109.516C67.6892 113.034 67.1659 116.552 66.3808 119.983C65.3922 124.17 64.0838 128.27 63.0371 132.428C62.7463 133.591 62.7463 134.841 62.8335 136.033C63.008 138.388 64.2292 139.929 66.4971 140.482C68.2417 140.889 70.0734 141.005 71.8762 141.238C72.4286 141.325 73.0392 141.296 73.5626 141.47C74.5511 141.79 75.249 142.459 75.1327 143.622C74.9873 144.785 74.1441 145.57 73.0973 145.541C68.736 145.454 64.4036 145.308 60.9436 141.936C58.9083 139.958 58.7048 137.574 58.6757 135.045Z" fill="black"/>
<path d="M97.6973 84.2506C102.233 84.3379 106.74 84.774 110.985 86.4604C113.079 87.3036 114.998 88.6992 116.858 90.0077C117.353 90.3566 117.382 91.4033 117.614 92.1011C116.829 92.2174 115.957 92.5954 115.259 92.421C113.456 91.9557 111.741 91.0544 109.938 90.6183C107.06 89.9495 104.152 89.2517 101.245 89.0191C98.4824 88.7865 95.6039 88.8737 92.8707 89.3098C89.4688 89.8332 86.1251 90.8509 83.0721 92.5663C82.2289 93.0606 81.2404 93.4968 80.2808 93.584C78.6817 93.7294 77.9548 92.3919 78.7398 90.9672C79.8447 88.9609 81.9382 88.2922 83.799 87.3617C88.2477 85.2101 92.7835 84.2215 97.6973 84.2506Z" fill="black"/>
<path d="M69.1187 169.007C67.287 168.775 64.8155 168.513 62.3731 168.135C60.9484 167.931 60.1052 166.972 60.2506 165.983C60.396 164.907 61.5881 164.181 62.9546 164.355C70.0201 165.315 76.9402 164.733 83.6276 162.116C86.1282 161.128 88.5415 159.877 90.9838 158.743C91.3618 158.569 91.7398 158.249 92.1469 158.191C93.0773 158.046 94.1822 157.813 94.6765 159.005C95.1708 160.168 94.9382 161.273 93.8042 161.884C91.4781 163.163 89.1521 164.442 86.7388 165.489C81.3306 167.786 75.6317 168.833 69.1187 169.007Z" fill="black"/>
<path d="M39.9817 87.2461C42.773 87.4496 45.6515 87.3043 48.3847 87.9148C51.1469 88.5254 53.7928 89.7757 56.4387 90.9387C57.4854 91.404 57.6599 92.7996 57.0493 93.701C56.3515 94.7186 55.5373 94.5151 54.5197 94.0789C51.3213 92.7124 47.9194 92.0727 44.4303 91.8401C38.1209 91.4621 32.0149 92.3635 26.2579 95.1257C26.1125 95.1838 25.9671 95.3001 25.8508 95.3001C25.0367 95.1548 24.2516 94.9803 23.4375 94.8349C23.641 94.0499 23.5829 93.0322 24.0772 92.5088C24.8331 91.6656 25.8508 90.9969 26.8975 90.5026C31.0263 88.4964 35.4168 87.6241 39.9817 87.2461Z" fill="black"/>
<path d="M102.172 184.795C103.219 184.621 104.149 184.65 104.382 185.842C104.556 186.831 104.178 187.587 103.219 187.47C103.044 188.11 102.928 188.634 102.783 189.186C103.655 189.128 104.644 189.157 104.615 190.553C104.585 191.338 104.266 191.832 103.393 191.832C101.823 191.803 101.881 190.698 101.91 189.593C99.8461 189.68 99.7007 189.535 99.1773 187.645C99.1192 187.383 98.8575 187.092 98.6249 186.976C97.2002 186.307 97.1129 185.493 98.305 184.563C97.8398 183.516 97.3455 182.528 96.9675 181.481C96.6768 180.609 96.4733 179.707 96.3279 178.806C96.1534 177.73 96.7349 176.945 97.5781 176.48C98.4504 176.015 100.05 176.771 100.602 177.846C100.806 178.224 100.98 178.631 101.067 179.068C101.445 180.957 101.794 182.876 102.172 184.795Z" fill="black"/>
<path d="M109.968 178.631C110.433 178.776 110.84 178.922 111.334 179.096C110.23 180.143 110.346 181.946 111.247 182.934C111.567 183.312 111.422 184.097 111.509 184.708C110.956 184.766 110.375 184.882 109.823 184.824C109.445 184.766 109.096 184.243 108.747 184.243C107.235 184.272 106.915 183.05 106.595 182.091C106.043 180.317 105.752 178.427 105.316 176.596C104.996 175.2 104.618 173.833 104.211 172.438C103.891 171.333 104.095 170.344 105.054 169.792C105.985 169.268 106.74 169.734 107.526 170.548C108.979 172.031 108.747 174.008 109.386 175.723C109.706 176.654 109.793 177.671 109.968 178.631Z" fill="black"/>
<path d="M120.086 159.209C119.883 158.598 119.418 157.929 119.534 157.377C119.65 156.853 120.319 156.156 120.813 156.068C121.511 155.981 122.616 156.156 122.936 156.65C123.721 157.871 124.215 159.296 124.68 160.662C125.407 162.901 126.047 165.198 126.745 167.641C127.385 167.641 128.344 167.786 128.082 169.007C127.733 170.694 126.396 169.443 125.96 169.647C125.669 170.519 125.466 171.217 125.262 171.886C124.768 171.682 123.866 171.479 123.866 171.275C123.837 170.723 124.215 170.141 124.506 169.414C124.593 169.472 124.332 169.356 124.07 169.211C123.605 168.92 122.878 168.658 122.732 168.222C121.831 165.78 121.046 163.308 120.29 160.837C120.145 160.343 120.261 159.732 120.261 159.18C120.203 159.209 120.145 159.209 120.086 159.209Z" fill="black"/>
<path d="M118.953 174.734C118.342 175.78 117.586 176.478 116.22 176.158C115.115 175.897 114.621 175.344 114.504 174.21C114.359 172.786 114.097 171.361 113.661 169.994C113.109 168.279 112.207 166.651 111.742 164.906C111.568 164.208 112.004 163.132 112.527 162.551C112.818 162.202 114.097 162.26 114.504 162.609C115.202 163.19 115.726 164.121 115.987 164.993C117.034 168.25 117.935 171.535 118.895 174.792L118.953 174.734Z" fill="black"/>
<path d="M128.083 150.368C130.148 149.99 130.962 151.473 131.572 152.927C132.416 154.875 132.997 156.939 133.608 159.004C133.957 160.167 133.579 161.097 132.357 161.533C131.107 161.97 130.38 161.243 129.973 160.254C128.985 157.841 128.054 155.428 127.24 152.956C127.095 152.52 127.531 151.88 127.705 151.357C127.822 151.008 127.967 150.688 128.083 150.368Z" fill="black"/>
<path d="M140.816 152.985C140.177 153.567 139.711 154.352 139.304 154.323C138.432 154.265 137.153 154.032 136.804 153.421C135.641 151.357 134.71 149.118 133.867 146.879C133.431 145.745 134.623 145.222 135.292 145.135C136.106 145.019 137.472 145.309 137.763 145.833C138.926 148.072 139.769 150.485 140.816 152.985Z" fill="black"/>
<path d="M103.575 153.536C103.313 153.914 103.023 154.67 102.528 154.874C101.947 155.106 101.016 155.106 100.522 154.787C99.7662 154.292 99.2137 153.449 98.6322 152.722C97.5855 151.385 96.5388 150.047 95.5502 148.652C95.3466 148.39 95.3757 147.692 95.6083 147.46C95.8991 147.14 96.5969 146.762 96.8877 146.907C99.5917 148.157 102.092 149.64 103.313 152.577C103.43 152.751 103.459 153.013 103.575 153.536Z" fill="black"/>
<path d="M57.6354 157.638C57.5772 157.87 57.6645 158.539 57.3737 158.772C56.9666 159.12 56.0944 159.44 55.7745 159.237C55.1349 158.859 54.2626 157.986 54.3498 157.492C54.6987 155.602 55.3675 153.77 55.949 151.91C56.0362 151.677 56.2979 151.503 56.3561 151.241C56.5596 150.049 57.5772 149.903 58.4204 149.845C59.4963 149.758 59.9905 150.747 60.0487 151.532C60.1069 152.462 59.6707 153.392 59.4381 154.323C59.2636 155.021 59.0892 155.748 58.7694 156.416C58.5367 156.853 58.0715 157.172 57.6354 157.638Z" fill="black"/>
<path d="M86.7395 154.645C85.9835 154.209 85.1985 154.005 84.7914 153.482C83.3958 151.708 82.0583 149.848 80.8952 147.929C80.6335 147.492 80.9825 146.417 81.3895 145.922C81.6803 145.602 82.9015 145.515 83.1341 145.806C84.239 147.143 86.2452 147.841 86.3906 149.935C86.3906 150.022 86.5941 150.138 86.7395 150.196C87.9025 150.633 88.6876 152.523 88.0479 153.569C87.8153 153.976 87.2629 154.238 86.7395 154.645Z" fill="black"/>
<path d="M63.908 150.69C63.8208 150.37 63.7045 150.05 63.5882 149.672C65.449 149.875 66.0306 150.486 65.6817 152.027C65.2164 154.033 64.6931 156.01 63.9662 157.929C63.7626 158.511 62.6287 159.325 62.2507 159.18C61.5529 158.918 60.5352 157.959 60.6224 157.406C60.8551 155.342 61.4656 153.335 62.0181 151.329C62.2507 150.428 62.8613 150.021 63.908 150.69Z" fill="black"/>
<path d="M92.4112 153.453C92.0332 153.162 91.3063 152.755 90.841 152.173C89.7071 150.719 88.6894 149.149 87.6136 147.637C87.1193 146.94 86.8867 146.096 87.6427 145.602C88.0788 145.311 88.9511 145.399 89.5036 145.631C91.7133 146.562 93.0508 148.481 94.2139 150.458C95.0861 152.028 94.3592 153.482 92.4112 153.453Z" fill="black"/>
<path d="M74.3203 149.117C74.6983 148.71 75.1054 148.012 75.6869 147.779C76.879 147.285 77.6059 148.39 77.8676 149.117C78.5654 151.094 79.0015 153.158 79.3214 155.223C79.3795 155.601 78.6236 156.415 78.1002 156.56C77.0825 156.822 76.123 156.27 75.8032 155.31C75.2217 153.42 74.8728 151.443 74.3203 149.117Z" fill="black"/>
<path d="M68.3029 153.655C68.3029 152.841 68.332 152.026 68.3029 151.212C68.2448 150.195 68.7391 149.264 69.6695 149.41C70.4255 149.526 71.414 150.398 71.6176 151.125C72.1119 152.753 72.2282 154.527 72.3736 156.242C72.4608 157.086 72.2282 157.842 71.2105 158.103C70.0184 158.423 69.1461 158.074 68.7681 156.969C68.4192 155.923 68.3029 154.76 68.0703 153.655C68.1285 153.684 68.2157 153.655 68.3029 153.655Z" fill="black"/>
<path d="M49.8972 159.06C49.432 159.642 48.9668 160.485 48.7342 160.427C47.9782 160.252 46.8733 160.543 46.8442 159.002C46.8152 156.792 48.0945 153.972 49.9844 153.071C51.0021 152.576 51.8453 153.042 51.8162 154.205C51.7871 155.339 51.7581 156.502 51.4382 157.577C51.2347 158.392 50.7404 159.351 49.8972 159.06Z" fill="black"/>
<path d="M141.257 139.028C141.083 138.04 141.926 137.778 142.798 137.545C143.962 137.226 144.834 137.691 145.299 138.679C145.706 139.581 145.91 140.598 146.055 141.558C146.259 142.866 145.444 143.535 144.136 143.215C142.333 142.808 141.49 141.209 141.257 139.028Z" fill="black"/>
<path d="M149.748 132.254C149.719 134.202 149.516 134.406 147.916 134.377C146.056 134.318 144.66 132.894 144.893 131.033C145.067 129.521 146.404 129.841 147.393 129.841C149.196 129.783 149.777 130.422 149.748 132.254Z" fill="black"/>
<path d="M123.607 178.775C122.822 178.775 122.037 178.804 121.281 178.804L121.339 178.862C120.787 176.769 121.107 176.304 123.258 176.362C123.317 175.344 123.229 174.065 124.858 174.443C125.294 174.559 125.875 175.141 125.933 175.577C126.137 177.147 124.858 176.74 124.014 176.798C123.869 177.525 123.724 178.194 123.607 178.833C123.578 178.804 123.607 178.775 123.607 178.775Z" fill="black"/>
<path d="M70.8879 177.786C69.8121 177.291 69.405 176.623 70.161 175.46C70.917 174.326 72.3417 173.744 72.9814 174.616C73.4757 175.285 73.3303 176.419 73.4756 177.35C73.1558 177.379 72.836 177.408 72.5161 177.437C71.9928 177.437 71.4985 177.437 70.9751 177.437C70.946 177.553 70.917 177.669 70.8879 177.786Z" fill="black"/>
<path d="M83.8033 174.27C82.6403 174.473 82.6693 174.473 83.2509 175.287C83.3962 175.491 83.4544 175.956 83.309 176.102C83.0183 176.421 82.5821 176.625 82.1751 176.887C82.0297 176.654 81.8843 176.45 81.8843 176.421C81.1574 176.334 80.605 176.247 80.0234 176.189C80.1688 175.578 80.1688 174.88 80.4887 174.386C81.8552 172.38 82.6693 172.351 83.8033 174.27Z" fill="black"/>
<path d="M74.3828 177.293C74.6736 176.537 74.8771 176.217 74.9062 175.897C74.9934 175.229 77.0287 173.426 77.4067 173.775C77.9301 174.269 78.3081 175.054 78.4244 175.781C78.4825 176.043 77.6684 176.624 77.1741 176.77C76.3018 177.031 75.3423 177.119 74.3828 177.293Z" fill="black"/>
<path d="M155.735 79.3065C155.328 78.2889 154.921 77.1549 156.084 76.5443C156.578 76.2826 158.061 76.6897 158.177 77.0386C158.759 79.0739 156.956 78.8994 155.735 79.3065Z" fill="black"/>
<path d="M160.878 74.1615C160.762 73.4637 160.645 72.7368 160.558 72.039L160.5 72.0971C160.791 71.9808 161.111 71.7773 161.401 71.7773C161.954 71.7482 162.768 71.661 163.03 71.9517C163.349 72.3007 163.466 73.202 163.233 73.6382C163.03 74.0161 162.215 74.1034 161.663 74.2487C161.401 74.3069 161.111 74.1906 160.82 74.1615H160.878Z" fill="black"/>
<path d="M173.787 68.1417C173.497 69.4501 173.061 69.9153 172.072 69.8572C171.316 69.799 170.734 69.6245 170.851 68.636C170.938 67.7637 171.142 66.8623 172.188 67.0077C172.77 67.0949 173.264 67.7637 173.787 68.1417Z" fill="black"/>
<path d="M151.925 76.2539C152.216 76.7773 152.652 77.3006 152.768 77.8531C152.943 78.7544 152.303 79.1906 151.46 79.1615C150.616 79.1324 149.977 78.8417 150.035 77.7658C150.093 76.7773 150.646 76.4574 151.925 76.2539Z" fill="black"/>
<path d="M147.361 76.3984C147.419 77.1544 147.564 77.9395 147.448 78.6954C147.419 78.899 146.547 79.0443 146.052 79.0734C145.18 79.1025 144.977 78.4919 144.977 77.7359C144.977 76.9509 145.209 76.4275 146.111 76.4566C146.547 76.4566 146.983 76.4857 147.39 76.4857C147.419 76.4566 147.361 76.3984 147.361 76.3984Z" fill="black"/>
<path d="M160.826 74.1016C161.029 76.195 160.593 76.8638 159.052 76.4567C158.616 76.3404 158.122 75.6717 158.064 75.2355C158.034 74.9157 158.616 74.3051 159.052 74.1888C159.605 74.0143 160.273 74.1597 160.884 74.1888C160.884 74.1597 160.826 74.1016 160.826 74.1016Z" fill="black"/>
<path d="M153.031 74.072C153.845 74.2465 155.008 73.7522 155.182 75.1769C155.241 75.5549 155.357 76.2527 155.212 76.3109C154.688 76.5726 154.048 76.7761 153.467 76.718C153.147 76.6889 152.711 76.0783 152.682 75.7003C152.653 75.1479 152.915 74.5954 153.06 74.043L153.031 74.072Z" fill="black"/>
<path d="M171.231 70.3232C171.056 71.5734 170.562 71.9805 169.69 71.9805C168.847 71.9805 168.265 71.6316 168.352 70.6721C168.411 69.8289 168.759 69.0438 169.748 69.2474C170.3 69.3637 170.737 69.9452 171.231 70.3232Z" fill="black"/>
<path d="M168.583 72.7375C168.438 74.1332 167.682 74.2204 166.926 74.2495C166.083 74.2786 165.53 73.7843 165.792 72.9992C165.966 72.4468 166.606 71.7489 167.1 71.6908C167.537 71.6326 168.06 72.3595 168.583 72.7375Z" fill="black"/>
<path d="M114.449 185.319C114.391 184.592 114.333 183.836 114.246 183.109L114.188 183.167C114.74 183.08 115.409 182.789 115.816 183.022C116.223 183.254 116.543 183.952 116.572 184.476C116.572 184.766 115.961 185.174 115.554 185.377C115.234 185.522 114.798 185.348 114.449 185.348C114.42 185.29 114.449 185.319 114.449 185.319Z" fill="black"/>
<path d="M153.031 82.7092C152.565 83.0581 152.158 83.5815 151.664 83.6687C150.908 83.8141 150.239 83.4943 150.181 82.5638C150.152 81.7206 150.559 81.081 151.402 81.1973C151.955 81.2554 152.449 81.7497 153.002 82.0405C153.002 82.2731 153.002 82.5057 153.031 82.7092Z" fill="black"/>
<path d="M175.068 78.5799C175.359 79.0451 175.824 79.4812 175.94 80.0046C176.202 80.9932 175.475 81.4002 174.719 81.2548C174.225 81.1385 173.469 80.5279 173.469 80.1209C173.469 79.5975 174.079 79.0741 174.428 78.5508C174.632 78.5508 174.835 78.5799 175.068 78.5799Z" fill="black"/>
<path d="M146.081 83.8746C145.761 83.3803 145.238 82.9442 145.179 82.4208C145.063 81.5485 145.616 81.0833 146.517 81.1706C147.302 81.2287 147.884 81.6358 147.651 82.479C147.506 83.0023 147.011 83.4385 146.691 83.9037C146.488 83.8746 146.284 83.8746 146.081 83.8746Z" fill="black"/>
<path d="M174.257 86.0544C174.053 85.7636 173.53 85.3275 173.443 84.8332C173.327 83.9609 173.995 83.4085 174.78 83.5829C175.217 83.6702 175.769 84.2517 175.885 84.7169C176.147 85.5601 175.565 86.0253 174.257 86.0544Z" fill="black"/>
<path d="M114.188 183.137L114.247 183.078C113.81 183.078 113.258 183.253 112.967 183.049C112.502 182.7 111.979 182.148 111.891 181.625C111.862 181.334 112.705 180.578 113.054 180.636C113.52 180.723 114.014 181.334 114.276 181.828C114.479 182.206 114.247 182.729 114.188 183.137Z" fill="black"/>
<path d="M35.1302 161.126C34.2579 161.795 33.7927 162.464 33.3275 162.434C32.8623 162.405 32.4262 161.737 31.9609 161.359C32.3971 160.893 32.746 160.167 33.2694 159.992C33.6473 159.905 34.2289 160.574 35.1302 161.126Z" fill="black"/>
<path d="M158.233 82.679C157.797 83.0279 157.39 83.5803 156.895 83.6676C156.169 83.8129 155.325 83.4931 155.5 82.5336C155.587 82.0393 156.139 81.3124 156.576 81.2543C157.07 81.1961 157.651 81.7485 158.175 82.0393C158.204 82.2428 158.204 82.4464 158.233 82.679Z" fill="black"/>
<path d="M172.019 71.8048C173.124 71.7176 173.327 72.3573 173.386 73.1714C173.444 74.0146 172.978 74.3054 172.252 74.3054C171.496 74.3054 170.914 74.1309 170.914 73.2005C170.914 72.3864 171.089 71.7176 172.019 71.8048Z" fill="black"/>
<path d="M149.162 78.2891C149.686 79.1904 150.296 79.7429 150.209 80.179C150.122 80.6442 149.249 81.3711 148.959 81.2839C148.435 81.1094 147.825 80.4407 147.737 79.9173C147.679 79.5684 148.464 79.0741 149.162 78.2891Z" fill="black"/>
<path d="M155.644 80.4983C155.121 80.7891 154.597 81.3706 154.132 81.2834C153.638 81.2252 153.202 80.5565 152.766 80.1494C153.173 79.7133 153.58 78.8701 153.958 78.8992C154.539 78.9282 155.121 79.5388 155.673 79.8878C155.644 80.1204 155.644 80.3239 155.644 80.4983Z" fill="black"/>
<path d="M150.094 86.8088C150.559 86.489 151.14 85.7912 151.489 85.9075C152.013 86.0819 152.536 86.7216 152.769 87.274C152.856 87.4776 152.071 88.3208 151.664 88.3208C151.14 88.3208 150.617 87.7974 150.094 87.4776C150.094 87.245 150.094 87.0414 150.094 86.8088Z" fill="black"/>
<path d="M158.151 87.4502C157.685 87.7701 157.191 88.3807 156.755 88.3225C156.261 88.2644 155.825 87.6538 155.359 87.2758C155.737 86.8106 156.086 86.0546 156.522 85.9964C157.017 85.9383 157.598 86.4907 158.122 86.8106C158.151 87.0141 158.151 87.2176 158.151 87.4502Z" fill="black"/>
<path d="M151.602 89.8633C152.212 90.7356 152.852 91.2589 152.794 91.6951C152.736 92.1603 152.038 92.5673 151.602 92.9744C151.194 92.5673 150.468 92.1603 150.438 91.6951C150.409 91.288 151.02 90.7646 151.602 89.8633Z" fill="black"/>
<path d="M81.1558 193.43C80.2835 194.041 79.7602 194.68 79.3531 194.622C78.8588 194.535 78.4518 193.866 78.0156 193.43C78.4518 192.994 78.8297 192.296 79.295 192.238C79.7602 192.18 80.2835 192.82 81.1558 193.43Z" fill="black"/>
<path d="M105.464 190.055C104.94 189.125 104.446 188.66 104.388 188.166C104.271 187.264 104.969 186.77 105.754 187.003C106.249 187.148 106.83 187.846 106.859 188.34C106.917 188.776 106.19 189.241 105.464 190.055Z" fill="black"/>
<path d="M159.804 78.5508C160.095 79.016 160.589 79.4521 160.676 79.9755C160.793 80.7896 160.24 81.1385 159.426 81.1676C158.554 81.1676 158.059 80.7315 158.205 79.9464C158.292 79.4521 158.845 79.016 159.164 78.5508C159.397 78.5508 159.601 78.5508 159.804 78.5508Z" fill="black"/>
<path d="M126.742 171.941C127.934 172.145 128.341 172.552 128.341 173.453C128.341 174.267 127.992 174.907 127.207 174.675C126.684 174.529 126.073 173.889 125.928 173.337C125.812 172.988 126.451 172.407 126.742 171.941Z" fill="black"/>
<path d="M164.193 76.7191C163.844 76.2248 163.147 75.6142 163.263 75.2653C163.408 74.771 164.106 74.2476 164.688 74.1022C165.531 73.8987 165.938 74.5965 165.763 75.3234C165.647 75.8177 165.211 76.2539 164.891 76.69C164.659 76.7191 164.426 76.7191 164.193 76.7191Z" fill="black"/>
<path d="M29.0234 158.89C29.8957 158.25 30.4191 157.581 30.8843 157.61C31.3204 157.639 32.1346 158.483 32.0473 158.773C31.902 159.326 31.2914 159.878 30.7389 160.082C30.4772 160.198 29.8957 159.529 29.0234 158.89Z" fill="black"/>
<path d="M173.502 78.1447C173.007 78.3773 172.484 78.8425 172.019 78.7553C171.583 78.6971 170.972 78.1447 170.914 77.7086C170.768 76.8654 171.321 76.2548 172.193 76.4874C172.687 76.6037 173.094 77.127 173.56 77.4759C173.531 77.7085 173.502 77.9121 173.502 78.1447Z" fill="black"/>
<path d="M99.6472 190.812C99.2111 191.103 98.6586 191.684 98.3388 191.597C97.7863 191.394 97.3793 190.783 96.9141 190.347C97.3793 189.998 97.8154 189.358 98.2806 189.329C98.7168 189.3 99.2111 189.911 99.6763 190.23C99.6763 190.434 99.6763 190.608 99.6472 190.812Z" fill="black"/>
<path d="M163.414 77.9103C162.949 78.2301 162.513 78.7244 162.018 78.8116C161.321 78.957 160.681 78.6953 160.681 77.7649C160.652 76.8635 161.146 76.3402 161.96 76.4274C162.455 76.4856 162.92 76.9798 163.414 77.2997C163.385 77.5032 163.385 77.7067 163.414 77.9103Z" fill="black"/>
<path d="M143.988 78.2305C144.541 79.1318 145.151 79.6843 145.093 80.1204C145.006 80.5856 144.279 80.9345 143.843 81.3416C143.436 80.9055 142.767 80.4693 142.738 80.0041C142.68 79.568 143.349 79.0737 143.988 78.2305Z" fill="black"/>
<path d="M164.049 81.3143C163.758 80.8491 163.148 80.2967 163.235 79.9187C163.351 79.4534 163.991 78.9592 164.514 78.8138C165.387 78.5812 165.765 79.3081 165.648 80.0059C165.561 80.5002 165.038 80.9072 164.689 81.3434C164.456 81.3434 164.253 81.3434 164.049 81.3143Z" fill="black"/>
<path d="M109.094 188.108C109.559 187.817 110.111 187.206 110.518 187.294C111.013 187.381 111.391 188.05 111.827 188.457C111.391 188.864 110.984 189.532 110.489 189.591C110.082 189.649 109.559 189.038 109.094 188.718C109.094 188.515 109.094 188.311 109.094 188.108Z" fill="black"/>
<path d="M149.049 83.0586C149.601 83.7564 150.27 84.2798 150.212 84.6287C150.124 85.123 149.456 85.501 149.049 85.9371C148.613 85.501 147.944 85.123 147.827 84.6287C147.74 84.3089 148.467 83.7855 149.049 83.0586Z" fill="black"/>
<path d="M147.911 87.391C147.446 87.7108 146.952 88.2924 146.486 88.2924C146.05 88.2924 145.265 87.5655 145.323 87.3038C145.411 86.8095 145.963 86.1117 146.399 86.0244C146.806 85.9372 147.388 86.5187 147.882 86.8095C147.882 86.9839 147.911 87.1875 147.911 87.391Z" fill="black"/>
<path d="M158.204 92.1586C157.71 92.4494 157.157 93.0309 156.721 92.9437C156.256 92.8565 155.674 92.2459 155.558 91.7516C155.5 91.4608 156.227 90.6758 156.605 90.6758C157.157 90.6758 157.681 91.1991 158.204 91.519C158.204 91.7225 158.204 91.9551 158.204 92.1586Z" fill="black"/>
<path d="M117.416 183.398C117.096 182.932 116.573 182.496 116.515 181.973C116.398 181.101 116.98 180.723 117.852 180.723C118.725 180.723 119.132 181.188 118.928 182.002C118.812 182.496 118.347 182.932 118.056 183.398C117.852 183.398 117.649 183.398 117.416 183.398Z" fill="black"/>
<path d="M172.017 85.2383C172.627 86.1396 173.122 86.5758 173.238 87.1282C173.441 88.0005 172.744 88.4076 172.046 88.2622C171.581 88.1749 170.912 87.5644 170.883 87.1864C170.883 86.6921 171.435 86.1978 172.017 85.2383Z" fill="black"/>
<path d="M121.278 178.807C121.278 179.185 121.453 179.65 121.278 179.941C121.017 180.377 120.61 180.988 120.173 181.046C119.388 181.191 118.836 180.697 118.836 179.766C118.836 178.923 119.33 178.72 120.057 178.749C120.493 178.778 120.9 178.836 121.336 178.865C121.336 178.836 121.278 178.807 121.278 178.807Z" fill="black"/>
<path d="M154.192 83C154.774 83.8723 155.355 84.3666 155.326 84.8318C155.297 85.2389 154.599 85.6168 154.192 85.9948C153.785 85.5587 153.145 85.1516 153 84.6283C152.913 84.3375 153.581 83.8141 154.192 83Z" fill="black"/>
<path d="M170.966 75.6154C170.501 75.9062 170.094 76.3714 169.571 76.4877C168.815 76.6621 168.146 76.226 168.349 75.4119C168.466 74.9176 169.047 74.307 169.513 74.2198C169.92 74.1325 170.472 74.7141 170.937 74.9757C170.937 75.1502 170.966 75.3828 170.966 75.6154Z" fill="black"/>
<path d="M153.412 96.5194C152.54 97.0718 152.017 97.7115 151.61 97.6243C151.115 97.508 150.766 96.8392 150.359 96.4031C150.766 96.0251 151.174 95.3273 151.551 95.3563C152.075 95.3854 152.569 95.9379 153.412 96.5194Z" fill="black"/>
<path d="M172.16 84.1355C171.491 83.2922 170.852 82.827 170.91 82.5072C170.997 82.0129 171.579 81.5768 171.957 81.1406C172.393 81.5186 173.062 81.8675 173.207 82.3327C173.323 82.6817 172.713 83.2341 172.16 84.1355Z" fill="black"/>
<path d="M169.254 81.4021C168.934 80.966 168.469 80.588 168.381 80.1228C168.207 79.2505 168.818 78.669 169.632 78.8434C170.068 78.9307 170.649 79.5703 170.678 80.0065C170.708 80.4426 170.155 80.9369 169.864 81.4021C169.661 81.4021 169.457 81.4021 169.254 81.4021Z" fill="black"/>
<path d="M164.315 86.3746C163.792 85.5896 163.211 85.0371 163.298 84.6882C163.443 84.223 164.083 83.8741 164.519 83.4961C164.897 83.9322 165.508 84.3684 165.595 84.8627C165.653 85.2116 164.955 85.6477 164.315 86.3746Z" fill="black"/>
<path d="M159.689 83.3477C159.98 83.8419 160.503 84.3653 160.474 84.8305C160.445 85.2376 159.747 85.8773 159.34 85.8773C158.933 85.8773 158.265 85.2376 158.235 84.8305C158.206 84.3653 158.759 83.8419 159.05 83.3767C159.253 83.3477 159.486 83.3477 159.689 83.3477Z" fill="black"/>
<path d="M166.931 79.4519C166.321 78.5796 165.71 78.0853 165.797 77.7364C165.914 77.2421 166.524 76.8641 166.931 76.457C167.338 76.8641 168.036 77.213 168.094 77.6782C168.182 78.0853 167.542 78.5796 166.931 79.4519Z" fill="black"/>
<path d="M163.639 87.0992C162.825 87.6807 162.389 88.2913 161.953 88.2622C161.517 88.2331 160.761 87.5353 160.79 87.2736C160.877 86.7793 161.4 86.1106 161.895 85.9943C162.273 85.878 162.825 86.5176 163.639 87.0992Z" fill="black"/>
<path d="M170.885 85.0955C170.391 85.3572 169.868 85.8806 169.431 85.8515C169.024 85.8224 168.326 85.0374 168.414 84.7466C168.53 84.2523 169.112 83.6126 169.577 83.5545C169.984 83.4963 170.478 84.136 170.943 84.4849C170.914 84.6594 170.914 84.892 170.885 85.0955Z" fill="black"/>
<path d="M154.483 92.7713C154.774 93.2656 155.268 93.7598 155.268 94.2251C155.268 94.574 154.425 95.3009 154.221 95.2136C153.727 95.0101 153.146 94.4867 153 93.9925C152.913 93.6726 153.553 93.1783 153.873 92.7422C154.105 92.7713 154.309 92.7713 154.483 92.7713Z" fill="black"/>
<path d="M160.562 82.0977C161.028 81.7778 161.522 81.1672 161.958 81.1963C162.365 81.1963 162.976 81.836 163.092 82.3012C163.296 83.1153 162.714 83.6096 161.9 83.4933C161.435 83.4061 160.999 82.9699 160.562 82.7083C160.563 82.5047 160.562 82.3012 160.562 82.0977Z" fill="black"/>
<path d="M166.898 84.0751C166.345 83.2901 165.735 82.7667 165.793 82.4469C165.909 81.9526 166.52 81.5455 166.927 81.1094C167.334 81.5455 167.945 81.9235 168.061 82.4469C168.148 82.7667 167.508 83.261 166.898 84.0751Z" fill="black"/>
<path d="M144.016 86.431C143.434 85.6751 142.823 85.2389 142.853 84.8028C142.882 84.3666 143.492 83.9596 143.841 83.5234C144.277 83.9014 144.946 84.2503 145.091 84.7156C145.15 85.0645 144.539 85.6169 144.016 86.431Z" fill="black"/>
<path d="M159.254 87.7383C159.865 88.5815 160.504 89.0758 160.417 89.3956C160.301 89.8899 159.661 90.2679 159.254 90.675C158.876 90.2679 158.265 89.919 158.207 89.4538C158.149 89.0758 158.702 88.6106 159.254 87.7383Z" fill="black"/>
<path d="M168.269 87.4473C167.804 87.709 167.31 88.2323 166.874 88.1742C166.437 88.116 165.769 87.4473 165.798 87.0984C165.827 86.6332 166.467 85.9062 166.845 85.9062C167.31 85.9062 167.804 86.5168 168.269 86.8658C168.298 87.0693 168.298 87.2437 168.269 87.4473Z" fill="black"/>
<path d="M56.2969 185.637C56.7621 185.317 57.2273 184.706 57.6344 184.735C58.0414 184.764 58.652 185.433 58.6811 185.84C58.7102 186.218 58.0996 186.887 57.6634 186.945C57.2855 187.003 56.7912 186.48 56.326 186.218C56.326 186.044 56.326 185.84 56.2969 185.637Z" fill="black"/>
<path d="M124.189 173.368C123.317 173.921 122.793 174.502 122.444 174.415C121.979 174.299 121.659 173.659 121.281 173.252C121.688 172.874 122.066 172.264 122.502 172.234C122.91 172.176 123.375 172.758 124.189 173.368Z" fill="black"/>
<path d="M118.922 174.765C118.951 174.736 118.98 174.677 119.038 174.677C119.678 174.648 120.347 174.532 120.957 174.648C121.073 174.677 121.248 175.753 121.044 176.015C120.725 176.335 119.823 176.567 119.591 176.364C119.213 176.015 119.154 175.288 118.951 174.736L118.922 174.765Z" fill="black"/>
<path d="M109.852 186.191C109.067 186.714 108.572 187.266 108.194 187.208C107.758 187.15 107.409 186.51 107.031 186.132C107.467 185.725 107.874 185.173 108.398 185.028C108.66 184.94 109.154 185.58 109.852 186.191Z" fill="black"/>
<path d="M159.427 95.911C158.817 95.0969 158.206 94.6608 158.235 94.2246C158.235 93.8176 158.875 93.0616 159.224 93.0907C159.66 93.0907 160.329 93.6722 160.416 94.1083C160.474 94.4863 159.922 95.0097 159.427 95.911Z" fill="black"/>
<path d="M154.338 87.7109C154.832 88.5541 155.384 89.0775 155.297 89.4555C155.181 89.8916 154.483 90.5313 154.134 90.4732C153.727 90.415 153.116 89.7463 153.058 89.281C153 88.9321 153.669 88.496 154.338 87.7109Z" fill="black"/>
<path d="M161.786 90.0938C162.338 90.966 162.803 91.4022 162.891 91.8674C163.036 92.7978 162.251 93.0304 161.611 92.885C161.204 92.7978 160.652 92.1581 160.681 91.7802C160.681 91.344 161.233 90.9079 161.786 90.0938Z" fill="black"/>
<path d="M171.148 89.2513C170.392 89.8909 169.985 90.5306 169.549 90.5306C169.142 90.5306 168.473 89.891 168.415 89.4839C168.386 89.1059 168.997 88.4081 169.404 88.3209C169.811 88.2627 170.334 88.7861 171.148 89.2513Z" fill="black"/>
<path d="M89.1769 192.789C89.4676 193.196 90.0201 193.632 89.9619 193.981C89.9038 194.446 89.3513 194.853 89.0024 195.29C88.6244 194.941 87.9847 194.621 87.9266 194.214C87.8684 193.778 88.3627 193.283 88.5954 192.818C88.7989 192.818 89.0024 192.789 89.1769 192.789Z" fill="black"/>
<path d="M166.112 89.5419C165.297 90.0653 164.803 90.6468 164.512 90.5305C164.047 90.3851 163.698 89.8036 163.32 89.4256C163.698 89.0476 164.076 88.4079 164.483 88.3788C164.861 88.3207 165.327 88.9313 166.112 89.5419Z" fill="black"/>
<path d="M154.196 100.476C153.673 99.6912 153.12 99.255 153.15 98.8479C153.179 98.47 153.789 97.8594 154.138 97.8594C154.516 97.8594 155.098 98.47 155.156 98.8479C155.214 99.2259 154.691 99.6621 154.196 100.476Z" fill="black"/>
<path d="M48.1539 178.891C48.6772 179.705 49.1715 180.17 49.1425 180.577C49.0843 180.984 48.5028 181.507 48.0957 181.566C47.834 181.595 47.1653 180.955 47.1653 180.577C47.1362 180.17 47.6305 179.734 48.1539 178.891Z" fill="black"/>
<path d="M116.652 179.823C116.216 180.143 115.78 180.695 115.344 180.724C115.024 180.753 114.472 180.113 114.355 179.677C114.297 179.474 114.908 178.834 115.257 178.776C115.664 178.718 116.158 179.067 116.594 179.27C116.623 179.445 116.623 179.619 116.652 179.823Z" fill="black"/>
<path d="M149.306 90.9393C148.638 90.2415 147.969 89.7472 148.027 89.5146C148.172 89.0494 148.696 88.6132 149.19 88.3515C149.335 88.2934 150.062 88.904 150.091 89.2529C150.12 89.6599 149.713 90.1252 149.306 90.9393Z" fill="black"/>
<path d="M150.969 146.211C151.522 146.967 152.074 147.461 151.987 147.694C151.813 148.159 151.289 148.508 150.911 148.915C150.592 148.566 150.039 148.246 150.039 147.897C150.039 147.461 150.475 147.025 150.969 146.211Z" fill="black"/>
<path d="M95.8089 189.446C95.2564 188.777 94.7331 188.399 94.704 187.963C94.6749 187.672 95.3728 187.062 95.7217 187.091C96.0997 187.12 96.6521 187.643 96.7684 188.05C96.7975 188.341 96.2741 188.777 95.8089 189.446Z" fill="black"/>
<path d="M31.9041 153.918C31.9623 154.528 31.9913 155.081 32.0495 155.778C30.8865 155.459 29.956 155.139 30.0723 153.598C30.712 153.714 31.2644 153.801 31.9041 153.918Z" fill="black"/>
<path d="M117.819 179.066C117.325 178.281 116.831 177.787 116.947 177.612C117.179 177.147 117.703 176.827 118.081 176.449C118.313 176.769 118.75 177.089 118.72 177.38C118.633 177.816 118.284 178.223 117.819 179.066Z" fill="black"/>
<path d="M151.085 102.103C150.067 101.172 150.125 100.475 150.852 99.9513C151.143 99.7478 151.753 100.009 152.219 100.068C151.87 100.707 151.521 101.347 151.085 102.103Z" fill="black"/>
<path d="M29.8352 155.254C30.0388 156.591 30.0679 157.493 28.8467 157.667C28.5559 157.696 28.2361 157.406 27.9453 157.289C28.4978 156.708 29.0793 156.097 29.8352 155.254Z" fill="black"/>
<path d="M149.309 95.4754C148.96 94.6903 148.582 94.2251 148.611 93.818C148.64 93.5273 149.192 93.2656 149.512 93.0039C149.774 93.3237 150.297 93.6727 150.268 93.9925C150.239 94.3995 149.803 94.7775 149.309 95.4754Z" fill="black"/>
<path d="M148.695 151.126C148.317 150.603 147.91 150.283 147.939 149.992C147.968 149.701 148.433 149.469 148.695 149.207C148.957 149.498 149.306 149.789 149.393 150.137C149.422 150.37 149.015 150.69 148.695 151.126Z" fill="black"/>
<path d="M32.7153 155.484C32.9479 156.124 33.1805 156.764 33.4131 157.432C31.9303 157.549 31.843 157.374 32.7153 155.484Z" fill="black"/>
</svg>
