<svg xmlns="http://www.w3.org/2000/svg" width="200" height="200" fill="none" viewBox="0 0 188 201"><path fill="#000" d="M180.4 73.3V85q-.3 4.2-1 8.3-.4 1.2.6 2a19 19 0 0 1 7.5 12.3q1.3 7.8-1.6 15.1a30 30 0 0 1-12.4 15 34 34 0 0 1-12.2 5c-1.5.3-2 1-2.3 2.5q-1.1 4.7-3 9.3a82 82 0 0 1-47.4 42.4q-7.4 2.3-15 3.3a64 64 0 0 1-48.2-12.4 77 77 0 0 1-27-42q-.1-.7-1-1a25 25 0 0 1-15-14.3 25 25 0 0 1 0-21.4 15 15 0 0 1 9-8q1-.2 1-1.4l.9-10.7q0-1.3-.4-2.6l-1.3-5c-.4-2.2-1-4.4-1-6.7q-.3-5.3.2-10.6.6-4.7 2.1-9.2c1.4-4.1 4-7.6 7-10.7q4.3-4.6 10.4-6.6 1.4-.3 1.2-1.6c-.2-5.7 1.8-11 4.5-15.9q3-5 7.8-8.8 4.9-4 10.7-6.4a45 45 0 0 1 12-3.6L79.3.1a91 91 0 0 1 22.2 1.6 167 167 0 0 1 23 5.7q7.6 2.7 14.9 6.3c4.3 2.3 8.8 4.4 12.6 7.8l9.2 8q6.2 5.8 10 13.8l4.2 9q2.7 6.4 3.6 13.3zm-16.8-3.8-1 1-.8-.5-1 1.6-.3.6q-.7 0-1.4.4l-2 2q-.5.5-1.2.7-.6-.8-.8-1.7-.2-.6.1-1.2l-2.2.2v1.6l-2.6.9c-.1 2-.6 2.4-2.9 1.4h-.1l-.1-1.8-2-.1.3.3c-.4.7-.7 1.7-1.2 2-1.6.5-1.8-.9-2-2l-1.8.4-.1 1.2c1-.3 2-.3 2.3 1 .3 1.9-1.3 1.5-2.3 1.8l.3 1.6 1.2.3q1.3.8.4 1.8c-.3.4-1.3.5-1.7.3q-1.2-.9-2-2.1a25 25 0 0 1-4.3-8.3l-6-17.7q-.3-1.4-1.7-1.2l-4.3.3-11.6-.4q-4.5-.2-9-.7a261 261 0 0 1-29-5.9q-6.6-2-12.9-4.6a237 237 0 0 1-13-5.8q-1.2-.6-2.2.1-3.2 2.5-6.1 5.4a101 101 0 0 0-14.8 20Q21.3 66.7 20 72q-1.6 6.3-2.5 13l-.6 8q-.3 4.7-.3 9.5.1 4 .7 8 .2 5.3.9 10.6 1.1 7.5 2.5 15a114 114 0 0 0 6.6 20.6c.4 1 .7 2.3 1.4 2.6 1.3.6 1.4 1.6 1.5 2.7 2 0 2.1.1 2.2 2 .8.5 2 .8 2 1.2q0 1.2-.7 2.4h-.3l1 1.3c.2-.5.2-1.3.7-1.6s1.2 0 1.6 0l1.6-4.5c.4-.9 1-1.4 1.9-.4q.2.3.5.2c1 .1 1.2 1 1 1.7q-.5 1.5-1.2 2.7c1.1.6.7 1.5.4 2.3q-.5 1.5-1.3 3c1.2 0 2.3-.2 2.3 1.1 0 .4-1 1.2-1 1.2q-1-.6-1.9-1.6l.3-.4-1.8.2 1 1 1.3 1.5c.7 1.6 3 1.7 3.1 3.7l.6.1 1.1.5.3.3q-.2 1.2 1 1.5.6 0 1 .6l4.3 4 .6.4.3-2.2q-1.2-.2-2-.6c-.3-.2-.5-1-.4-1q.9-.7 2.1-1l-.6-2.7q0-1 .8-2.3.7-.9 1.5-1c.5-.1 1.4.4 1.6.8q.4 1.6.5 3.3c0 .7-.3 1.5 0 2q1.4 1.5.2 3.2v.5l.8 3.3 2.4 1.1q1 .6 2.1 1.7l.5-2.9q-1 .5-1.7.5c-.4-.1-1-1.2-.8-1.3q.8-.7 2-1.4c0-.2-.1-1-.4-1.5q-.4-.7-1.5-1.8c1.8.3 1.3-.6 1-1.2q1-.8 1.7-1c1.5-.4 2.7 1 2.5 3.1 0 1.3 0 2.4 1.2 3.3.3.3.3 1.2.3 1.8l-.1 1.3q.7-.8 1.7-1c.4 0 1 .9 1 1.4.2 1.4-1.1 1-2 1.1.1 1.2.1 1.2 1.8 1.3.5-.6 1.3-1.4 1.7-1.3q.8.8 1.4 2l-.4.2 2.2.1v-2q-3-.5-1.5-3c-1.8-1.5-.7-3.5-.9-5.6q1.2.2 2 .7c1.4 2 3.5 3.7 2.9 6.1.4-.2 1-.8 1.4-.7.4 0 1 .9 1 1.4 0 1.2-1.1 1.1-2.2 1.3l1.6 1.8q2 2.4 4.3.5c.2-.2.9 0 1 .2.5 1.1 1.3.8 2 .7-2-.7-2.1-3.4-4-4.4V188l-1 1.5c-.1 0-1-.4-1-.7-.4-1.3.9-1.2 1.6-1.5l-.7-1.5 1.1-.6-1-.1c.7-1.5 2.3-1.7 3-.4q1.7 2.6 3.2 5.5 2.3.3 1.5 2.3a2 2 0 0 0 2 3l2.6-.3-.2-1.7c-2.4-.3-1.3-2.2-1.3-3.7q-1.8 1.8-2.1-.1l1.4-2c-1.9-1.5-1.3-3.5-1.1-5.1l1-1c2 0 2 0 2.6 2l1.9 5q.4 1.2.9 2c.8.6 1.8 1 1.8 1.6s-.7 1.4-1 2.4h.7c.8-1.3 1.9-1 3-.7q-.6-2 .7-2.5 1.6-.4 2 2c.6-.2 1.6-.2 1.7-.6.4-1.6 1.7-1.4 2.7-1.7.3-.7.7-1.6 1.3-1.8 1.2-.4 1.7.6 1.7 1.8l1.6-.4 2.4-2 .3.3v-1.5h-1q-1-.7-1.1-1.4.1-.8 1.2-1.3.7 0 1.5.4l-.2 2 2-.2c.2-2 .2-2 2.3-2.1q.2-1 .6-1.7.7-.4 1.9-.5-.4-2.4 2-2l.6-2.1h1.9q0-1.2.4-1.8.8-.4 2-.7c-.4-1.8 1-1.9 2.3-2l.2-1.7c-.9-.3-2.1.3-2.3-1.3-.1-1.4 1.2-1.2 2-1.6l-.5-2.7q-.7-1.2.3-1.7t2-.3l2.8 2.2 1.4 1.2.9-1.6-.5.2c-.6-.5-1.6-.9-1.7-1.4-.3-1.6 1.2-1.3 2.1-1.5l.1-2.2c-.9 0-1.9.6-2-.8-.3-1.6 1-1.3 2-1.4-.1-1-.2-2 1.2-2.1 1.6-.2 1.6 1 1.9 2 1.4 0 2.4.5 2 2.2h2v-1.5c-.9-.2-1.9-.3-1.4-1.6l1 .2q0-.7-.3-1.2c1.9-.4 1 1.2 1.5 1.8h1.6V158l-.3.2c-.6-.4-1.4-.7-1.6-1.2-.4-1.7 1-1.8 2.2-2.3q-.8 0-1.4-.2c-.8-.2-2-.5-2.3-1q-.6-2.4-.8-5 0-.6.6-1l2.2-1c.3.4 1 .8 1.2 1.5l1.2 4.8h1.6c-.3-1.9.9-2.2 2.1-2.3q.4-1 .9-1.7l1.5-1.5-.5-.2q-.8-1.1-1.1-2-1.4.4-2.7.4-.7-.2-1-1-.5-1.5-.6-3.2 0-1 .5-2c.5-.6 1.2-.2 1.8.1 1.7.7 2.1 2 2.2 3.7 0 1.9.3 2 2 1.6l.9-4q.4-1 1.4-1.5 1.2-.4 2.6-.6c5.8-.8 10.8-3.5 15.2-7.2q6.5-5.4 8.6-13.6.9-3.3.9-6.8-.3-5.1-3.5-9.3a12 12 0 0 0-9.6-5.2c-3.9-.3-7.2 1.2-10.4 3.1q-1.2 1-2.6 1.6c-.6.3-1.5 0-2.2 0q.1-1.2.5-2.3c0-.3.6-.6.6-.6q-.7-1.2-1-2.2c0-.2 1-.9 1-.8l1.6 1.7c2.5-1.4 4.6-4 7.7-4.3l.2-1.8c0-.2.9-.4 1-.3l1.1 1.8h7l.4-1.4-2-1c-.2-.3 0-1.2.2-1.3l2-.4V76.6c-1 0-2.3.5-2.5-1-.1-1.6 1.2-1.5 2.2-1.6q0-1 .3-2c-1 0-2.4.5-2.5-1.1s1-1.5 2.2-1.5l-.2-1.7c-2-.3-2.3-.6-2-2.5l-2.2.2q.4 3-2.5 2c-.1 1 .2 2.5-1.6 2.3-1.5-.2-1.4-1.2-1.2-2.3h-2zM16.8 139.8q-3.7-17.3-4.4-34.7-2.2 1-3.7 2.4c-4 4-4.8 9.1-4.2 14.6a22 22 0 0 0 12.3 17.7m140.8-68v-1.6h-1.9v1.5zm1.4-4.2-.7 2 2-.4v-1.6zm7.3-2.2.2 1.4q.9 0 1.6.2l.4-1.8zM148 74.1h1.8v-1.6H148zm-21.9 107q2.2.3 1.6-1.7h-1.6zm24.5-109.4 1.7-.1v-1.4h-1.7zM124 181.5l-.3 1.8c1.1 0 2.1 0 1.7-1.6zm47.4-120.8c-.3 1.7 1.1 1.2 1.8 1.9v-1.9zm-5.7 2.2-2 .2.2 1.3h1.5zm-37.3 115.8h1.7v-1.3l-1.5-.3zM169.1 60c1.3.2 2 0 1.6-1.5l-1.6.4zm-47.6 125.6 2-1.5-.3-.4h-1.8zm15.7-21 .3 2.2 1.8-1.6zm-6.3 12.2h1.3v-1.4l-1.3-.2zm-94.3-7-1.8.2 1.7 2zm132.2-105c.6-.7 1.9.4 1.9-.9l-1.9-.7zm-20 91.2q-1.8-.3-1.3 1.4 1.7.4 1.3-1.4m14-89.3.3-.4-1.6-1.2-.1 1.9z"/><path fill="#beb5a8" d="m44.5 179.7-1.2-.5-.6-.2c0-2-2.4-2-3-3.6q-.6-.8-1.4-1.5l-1-1 1.9-.2-.3.3q.8 1 1.8 1.6s1-.7 1-1.1c0-1.4-1-1.2-2.2-1.2l1.3-3c.3-.8.7-1.7-.5-2.2l1.2-2.8q.5-1.4-1-1.6l-.5-.2q-1.3-1.3-1.9.4l-1.5 4.4h-1.7q-.5.6-.7 1.7l-1-1.4h.4c.2-.7.8-1.6.7-2.3-.1-.5-1.2-.8-2-1.2-.1-2-.2-2-2.3-2.1-.1-1-.2-2-1.5-2.6-.7-.4-1-1.7-1.4-2.6a111 111 0 0 1-6.5-20.6Q19 128.7 18 121q-.6-5.3-.9-10.5l-.7-8q0-4.9.4-9.7 0-4 .6-7.9a117 117 0 0 1 2.5-13q1.4-5.1 3.9-9.8a98 98 0 0 1 14.7-19.9q3-2.9 6.1-5.3 1-.9 2.2-.2a247 247 0 0 0 25.9 10.5q7 1.9 14.1 3.3 7.5 1.5 15 2.5 4.5.5 9 .7l11.6.4 4.3-.3q1.2 0 1.7 1.2l6 17.7c1 3 2.1 5.9 4.2 8.3q1 1.2 2 2.1c.4.3 1.4.1 1.8-.2q.8-1-.4-1.8l-1.2-.4-.4-1.6c1-.3 2.6.1 2.3-1.7-.2-1.3-1.2-1.3-2.3-1.1l.1-1.2 1.8-.4c.2 1.1.4 2.5 2 2 .6-.3.8-1.3 1.2-2l-.3-.3 2 .1.2 1.9H146q-1.3 0-1.2 1.2 0 1.3 1.1 1.3c.5 0 1.4-.1 1.4-.3v-2.3c2.4 1 2.9.6 3-1.4l2.6-1q-.3 1-.3 1.7.1.8.7 1 1 0 1.8-.4v-1.1c-.2-1.4-1.4-1-2.2-1.2v-1.5l2.2-.2q-.2.5-.2 1.2.3.8 1 1.7l1-.7q1.2-1 2-2l1.5-.5.4 2.1H159c-.4.2-1 .8-1 1 0 .5.6 1.2 1 1.3q2.3.7 1.8-2.4l.8.1c.6-.1 1.4-.2 1.6-.6s.1-1.3-.2-1.7q-.6-.3-1.6-.1l-1 .3.4-.6 1-1.7.7.6 1.1-1-.3.6c0 .6.1 1.6.4 1.7.6.2 1.6.1 2-.2s.3-1.7 0-2c-.5-.3-1.4 0-2.1 0l.2-2h2c-.2 1-.2 2 1.2 2.2 1.8.2 1.5-1.2 1.6-2.2q2.9 1 2.5-2l2.3-.3c-.3 2 0 2.3 2 2.6l.1 1.6c-1 0-2.3 0-2.2 1.5.2 1.7 1.5 1.1 2.6 1.2l-.4 2c-1 .1-2.3 0-2.1 1.6.2 1.5 1.5 1 2.5 1v11.7q-1.2 0-2 .3c-.3.1-.5 1.1-.3 1.3q.8.6 2 1l-.3 1.4h-7l-1.2-1.7c0-.1-.9.1-1 .3l-.1 1.8c-3.1.3-5.2 2.9-7.7 4.3l-1.6-1.7s-1.1.6-1 .8q.3 1 1 2.2s-.6.2-.7.6l-.5 2.3q1.2.2 2.3 0 1.4-.7 2.6-1.6a17 17 0 0 1 10.3-3.1 12 12 0 0 1 9.6 5.2q3.2 4.2 3.5 9.3a26 26 0 0 1-.9 6.8q-2 8.2-8.5 13.6a31 31 0 0 1-15.2 7.2q-1.5 0-2.7.6-1 .4-1.3 1.4-.6 2-1 4.1c-1.7.4-1.9.2-2-1.6 0-1.7-.4-3-2.1-3.7-.7-.3-1.3-.7-1.8 0q-.6.8-.6 1.9 0 1.5.6 3.2.4.8 1 1 1.4 0 2.7-.3l1.2 2 .4.1-1.5 1.5q-.4.6-.8 1.7c-1.3 0-2.4.4-2.1 2.3h-1.7q-.4-2.4-1.1-4.9c-.2-.6-1-1-1.3-1.4q-1.3.5-2.1 1-.6.3-.6 1 .2 2.5.8 5c.2.5 1.5.7 2.3 1l1.3.2c-1.1.4-2.6.6-2.1 2.2.1.6 1 1 1.6 1.3l.2-.3v1.5H145c-.4-.7.5-2.2-1.4-1.8l.3 1.2-1-.2c-.5 1.3.5 1.3 1.3 1.5v1.6h-1.9c.3-1.7-.7-2.1-2-2.3-.4-1-.3-2.2-2-2-1.3.2-1.3 1.2-1.2 2.2-1 .1-2.2-.2-2 1.4.2 1.4 1.2.8 2 .7v2.3c-1 .2-2.4-.1-2.1 1.5 0 .5 1 1 1.7 1.4l.4-.2-.8 1.6-1.5-1.2q-1.3-1.2-2.7-2.2-1-.3-2 .2t-.3 1.8l.5 2.6c-.8.5-2.1.2-2 1.7.1 1.6 1.4 1 2.2 1.3l-.2 1.7c-1.3 0-2.6.1-2.3 2q-1.2.2-2 .7-.3.4-.3 1.8h-2q0-1 .4-2c.8-.1 2.1.3 1.9-1.3 0-.4-.6-1-1-1.1-1.7-.4-1.6.9-1.7 2-2.1-.1-2.4.3-1.9 2.4l-1.3-.1q-1.1-.1-1.2 1 .1 1.5 1.3 1.3c.5 0 .9-.7 1.2-1.1v-1.1h2.3l-.5 2q-2.4-.3-2.1 2-1.2.1-1.9.5-.5.6-.6 1.7c-2 0-2 0-2.3 2.2h-2l.2-2q.6.2 1 .1 1-.4 1-.9 0-.9-.7-1.5-.7-.1-1.6.2c0-.4.3-1 0-1.3q-.3-.8-1.1-1.2c-.4 0-1.3.7-1.2 1 0 .5.6 1 1 1.4q.7.2 1.4 0 0 1.2.2 2.3c-.6-.1-1.1-.5-1.6-.3-.4.1-1.1.7-1.1 1.2q.2.7 1 1.3.4.2 1.2.2l-.2 1.4-.2-.2-2.4 1.9-1.6.4c0-1.2-.5-2.1-1.7-1.8q-.9.5-1.3 1.9c-1 .3-2.3 0-2.7 1.7-.1.3-1.1.3-1.7.5q-.4-2.4-2-2-1.3.4-.7 2.6c-1.1-.5-2.2-.7-3 .5-.1.2-.7 0-.8 0 .4-.8 1.1-1.6 1-2.3 0-.5-1-1-1.8-1.7l-.9-1.8-1.8-5c-.6-2-.7-2.2-2.6-2.2l-1 1.1c-.3 1.6-.8 3.7 1.1 5l-1.4 2q.3 2 2 .2c.1 1.5-1 3.5 1.4 3.7l.2 1.7-2.6.3c-1.6 0-2.7-1.6-2-3q.8-2-1.5-2.3-1.5-3-3.1-5.5c-.8-1.3-2.4-1-3.1.4l1 .2-1 .5.6 1.5c-.7.3-2 .2-1.7 1.5.1.3 1 .8 1 .7l1.1-1.5v3.1c1.9 1 2 3.7 4 4.4-.7.1-1.5.4-2-.6-.1-.3-.9-.5-1-.3q-2.4 2-4.3-.5l-1.6-1.8c1-.2 2.2 0 2.2-1.3 0-.5-.6-1.4-1-1.4q-.8.2-1.4.8c.6-2.5-1.5-4.2-3-6.2-.3-.4-1.2-.4-1.9-.7.2 2.1-.9 4.1 1 5.7q-1.8 2.4 1.4 3v2l-2.2-.2.4-.2q-.6-1.2-1.4-2c-.4-.1-1.2.8-1.7 1.3-1.7 0-1.7 0-1.7-1.3.8-.1 2 .3 2-1.1 0-.5-.8-1.4-1.1-1.4q-.8.2-1.7 1l.1-1.3c0-.6 0-1.5-.4-1.8-1.2-.9-1.2-2-1-3.2 0-2.1-1.1-3.6-2.6-3.2q-.8.3-1.7 1c.3.6.8 1.5-1 1.2q1 1 1.5 1.8l.4 1.5-2 1.4c-.1.1.4 1.2.8 1.3q.6 0 1.7-.5l-.5 2.9-2-1.7q-1.2-.7-2.5-1l-.8-3.4v-.5q1.1-1.6-.2-3.2c-.3-.4 0-1.3 0-2l-.5-3.3q-.5-.7-1.6-.9-.8.2-1.5 1.1-.8 1.2-.8 2.3l.6 2.6-2.1 1c-.1.1 0 1 .4 1q.8.5 2 .7l-.3 2.2-.6-.4-4.3-4q-.4-.5-1-.6-1.3-.3-1-1.5c.8.2 2 .5 2.2-.6q.5-2.2.6-4.6 0-1 .3-2c.7-1.4 0-3.7-1.6-4q-.8 0-1.5.6-.4.6-.6 1.7-.2 1.7-.2 3.5l-.3-.2c-.5.4-1.5 1-1.3 1.4.2.6 1 1.1 1.4 1.7l.2-.2zm74.5-5q.2 1 .6 1.7c.2.2 1.1 0 1.4-.4.3-.2.1-1.3 0-1.4zl-3-9.8q-.5-1.5-1.5-2.4c-.4-.4-1.6-.4-2 0-.5.5-.9 1.6-.7 2.3q.8 2.6 1.9 5 .6 2.2.8 4.3.1 1.6 1.7 2 2 .3 2.8-1.5m-19-66.5q.3.7.2.8 0 .5-.3.8a10 10 0 0 0-.3 7.9 7 7 0 0 0 2.3 3.3c2.4 1.6 5.1.5 6.2-3q1.2-4-.5-8.4l5.4 2q1 .3 2 .3c1 0 1.4-.9.8-1.7a7 7 0 0 0-1.8-1.9q-6.3-4-13.8-4.2l-6.2.3a21 21 0 0 0-11 4.4c-.9.7-1.5 2.7-1 3.2 1 .8 1.9.3 2.9 0 2.4-1 4.8-2.3 7.4-2.9q3.8-.7 7.8-1M56 113.3l1 .1c.7.3 1.6.7 2-.2q0-1-.6-2-2.6-2.9-6.5-4.3a18 18 0 0 0-11.8-.3c-3.1 1-6 2.7-9 4.3a2 2 0 0 0-.8 2.8q1 1.4 2.7.4a26 26 0 0 1 10.3-3.8c1.7-.2 3.6-.5 5.4.4-1.8 3.8-2.2 7.4.1 11 1.7 2.6 4.6 2.6 6.3.2 1.8-2.7 1.6-5.5.9-8.6m2.8 21.7c0 2.6.2 5 2.2 7 3.5 3.3 7.8 3.5 12.2 3.5q1.7 0 2-1.9.2-1.7-1.5-2.1l-1.7-.3q-2.8-.2-5.4-.7-3.4-.9-3.7-4.5l.2-3.6 3.4-12.4q1.1-5.2 1.8-10.5c.2-1.1-.2-2.1-1.6-2.2q-1.7 0-2 1.9l-4 15.4c-.8 3.5-2 6.8-2 10.4m39-50.7q-7.4 0-14 3c-1.8 1-3.9 1.7-5 3.7-.8 1.4 0 2.8 1.6 2.6q1.5-.1 2.7-1 4.7-2.5 9.8-3.3 4.3-.6 8.4-.3 4.5.6 8.7 1.6l5.3 1.9q1.1 0 2.4-.4c-.2-.7-.3-1.7-.8-2a29 29 0 0 0-5.8-3.6 37 37 0 0 0-13.3-2.2M69.1 169a46 46 0 0 0 24.7-7.1q1.6-1.1.8-3c-.4-1-1.5-.9-2.5-.7q-.6.1-1.1.5l-7.4 3.4a40 40 0 0 1-20.7 2.2c-1.3-.1-2.5.6-2.7 1.7q0 1.7 2.1 2.1zM40 87.2q-7 .5-13.1 3.3-1.6.7-2.8 2-.6 1-.7 2.3l2.5.5.4-.2a37 37 0 0 1 28.2-1c1 .4 1.9.6 2.6-.4.6-1 .4-2.3-.7-2.8-2.6-1.1-5.2-2.4-8-3s-5.6-.4-8.4-.7m62.2 97.6L101 179l-.5-1.2c-.6-1-2.1-1.8-3-1.3q-1.5.6-1.3 2.3l.7 2.7q.5 1.5 1.3 3-1.8 1.5.3 2.4l.6.7c.5 2 .7 2 2.7 2 0 1 0 2.2 1.5 2.2q1.3 0 1.2-1.3c0-1.4-1-1.4-1.8-1.3l.4-1.8q1.5.1 1.2-1.6-.5-1.5-2.2-1m7.8-6.2q-.2-1.5-.6-2.9c-.7-1.7-.4-3.7-1.9-5.2q-1.1-1.4-2.5-.7-1.4.8-.8 2.6.7 2.1 1 4.2.6 2.8 1.4 5.5c.3 1 .6 2.2 2.1 2.1.4 0 .7.5 1 .6l1.8-.1q0-1-.3-1.8c-.9-1-1-2.8.1-3.8zm10-19.4h.3v1.7q1 3.7 2.4 7.4c.2.4 1 .6 1.4 1l.4.1q-.5 1-.6 2l1.4.5.7-2.2c.4-.2 1.7 1 2-.7.3-1.2-.6-1.3-1.3-1.3l-2-7q-.7-2.2-1.8-4c-.3-.5-1.4-.7-2-.6s-1.2.8-1.4 1.3l.6 1.8m8-8.8-.3 1q-.5.7-.5 1.5 1.3 3.8 2.8 7.3.5 1.7 2.4 1.3 1.8-.7 1.2-2.5-.8-3-2-6.1c-.6-1.4-1.5-3-3.5-2.5m12.8 2.6q-1.4-3.8-3-7.1c-.3-.6-1.7-.9-2.5-.7-.7 0-1.9.6-1.4 1.7q1.1 3.4 3 6.6c.3.6 1.5.8 2.4.9.4 0 1-.8 1.5-1.4m-37.2.5-.3-1c-1.2-2.9-3.7-4.4-6.4-5.6q-.7-.1-1.3.5c-.2.3-.2 1 0 1.2l3 4.1q.8 1.2 2 2c.4.4 1.4.4 2 .1.4-.2.7-1 1-1.3m-46 4.1q.8-.5 1.1-1.2l.7-2q.5-1.5.6-2.9c0-.8-.6-1.7-1.6-1.7-.9.1-1.9.3-2.1 1.4q-.1.4-.4.7-1 2.8-1.6 5.6c-.1.5.8 1.4 1.4 1.7.4.2 1.2-.1 1.6-.4s.3-1 .3-1.2m29.1-3 1.3-1c.7-1.1-.1-3-1.3-3.4l-.3-.3c-.2-2-2.2-2.8-3.3-4.1-.2-.3-1.4-.2-1.7 0-.4.6-.8 1.7-.5 2.1q1.8 3 3.9 5.6.7.6 2 1.1m-22.8-4q-1.5-.8-1.9.7-.9 3-1.4 6.1c0 .6 1 1.5 1.7 1.8.3.1 1.4-.7 1.7-1.3q1-2.9 1.7-5.9.6-2.1-2.1-2.3zm28.5 2.9c2 0 2.7-1.5 1.8-3-1.2-2-2.5-4-4.7-4.9-.6-.2-1.5-.3-1.9 0q-.9.9 0 2l3.2 4.6q.9.9 1.6 1.3m-18-4.4q.6 3.4 1.4 6.2.6 1.6 2.3 1.3c.6-.2 1.3-1 1.3-1.4q-.5-3-1.5-6c-.3-.8-1-2-2.2-1.4-.6.2-1 1-1.4 1.3m-6.1 4.6h-.2q.2 1.7.7 3.3t2.4 1.2q1.4-.5 1.2-1.9-.2-2.6-.8-5.1a3 3 0 0 0-2-1.7c-.9-.2-1.4.7-1.3 1.8zM49.9 159c.8.3 1.3-.7 1.6-1.5q.4-1.6.3-3.4T50 153c-1.9.9-3.2 3.7-3.1 6 0 1.4 1.1 1.2 1.9 1.3.2 0 .6-.8 1.1-1.3m91.4-20q.2 3.3 2.8 4.1 2.2.5 2-1.6-.2-1.5-.8-2.9-.7-1.5-2.5-1.1c-.9.2-1.7.4-1.5 1.4m8.4-6.8c0-1.9-.5-2.5-2.3-2.5-1 0-2.3-.3-2.5 1.2a3 3 0 0 0 3 3.3c1.6.1 1.8-.1 1.8-2M71 177.8v-.4h2.6c-.2-1 0-2.1-.5-2.8-.7-.9-2.1-.3-2.9.9q-1 1.6.8 2.3m12.9-3.5q-1.5-3-3.3 0l-.5 1.9 2 .2.2.5 1.1-.8q.2-.3 0-.8c-.6-.8-.7-.8.5-1m-9.4 3 2.8-.5c.5-.2 1.3-.8 1.3-1q-.3-1.2-1-2c-.4-.4-2.5 1.4-2.6 2.1q0 .3-.5 1.4m81.3-98c1.3-.4 3-.2 2.4-2.3 0-.3-1.6-.7-2-.5-1.2.7-.8 1.8-.4 2.8m18-11.2q-.7-.8-1.5-1c-1-.2-1.3.7-1.3 1.5q0 1.3 1.2 1.3 1.4.1 1.7-1.8M152 76.3q-1.9 0-1.9 1.5 0 1.4 1.5 1.4 1.3 0 1.3-1.3-.3-.8-.9-1.6m19.3-6q-.7-.8-1.5-1c-1-.3-1.3.5-1.4 1.4q0 1.4 1.4 1.3 1.3.1 1.5-1.7m-2.6 2.4c-.5-.3-1-1-1.5-1s-1.1.7-1.3 1.3q-.3 1.3 1.1 1.2c.8 0 1.5-.1 1.7-1.5m-15.6 10V82q-.7-.5-1.6-.8-1.4 0-1.2 1.4t1.5 1q.7-.2 1.3-.9m22-4.1h-.6c-.3.5-1 1-1 1.5s.8 1 1.3 1.2c.8.1 1.5-.3 1.2-1.3q-.2-.8-.8-1.4m-29 5.3h.7q.6-.7 1-1.5.1-1.2-1.2-1.3-1.5 0-1.3 1.3c0 .5.6 1 .9 1.5m28.3 2.2q2 0 1.6-1.4-.3-.9-1-1.1-1.6-.2-1.4 1.2c0 .5.6 1 .8 1.3M35 161q-1.3-1.1-1.8-1c-.6.1-1 .8-1.3 1.3q.7.8 1.3 1 .7-.1 1.8-1.3m123.1-78.4V82c-.5-.2-1.1-.8-1.6-.7-.4 0-1 .7-1 1.2-.2 1 .6 1.3 1.3 1.2.5-.1.9-.7 1.3-1M172 71.8c-1 0-1 .6-1 1.4-.1 1 .5 1.1 1.2 1.1q1.2 0 1.2-1.1 0-1.4-1.4-1.4m-22.8 6.5q-1.4 1.1-1.5 1.6.3 1 1.3 1.4c.3 0 1.1-.7 1.2-1.1s-.5-1-1-2m6.4 2.2v-.6c-.5-.3-1-1-1.6-1-.4 0-.8.8-1.2 1.3q.6.8 1.3 1.1.8-.2 1.5-.8m-5.5 6.3v.7q.7.6 1.6.8c.4 0 1.2-.8 1-1q-.4-1-1.2-1.4c-.3-.1-1 .6-1.4 1m8 .7v-.7c-.5-.3-1-.9-1.6-.8-.4 0-.7.8-1.1 1.2.4.4.9 1 1.4 1 .4.2.9-.4 1.3-.7m-6.5 2.4q-1 1.2-1.2 1.8c.1.5.8.9 1.2 1.3.4-.4 1.1-.8 1.2-1.3q-.2-.6-1.2-1.8M81.2 193.4q-1.4-1-2-1.2c-.4.1-.8.8-1.2 1.2.5.4.9 1.1 1.4 1.2q.5-.2 1.8-1.2m24.3-3.3q1.2-1.2 1.4-1.8c0-.4-.6-1.1-1.1-1.3q-1.4-.4-1.4 1.2.1.7 1 1.9m54.3-111.5h-.6q-.8.6-1 1.3 0 1.3 1.2 1.3 1.4 0 1.3-1.2c0-.5-.6-1-.9-1.4m-33 93.3c-.4.5-1 1-.9 1.4.1.6.8 1.2 1.3 1.4q1.2.1 1.1-1.2.2-1.4-1.6-1.6M164 76.7h.7l.9-1.4c.1-.7-.2-1.4-1.1-1.2q-1 .3-1.4 1.2c-.2.3.5 1 .9 1.4M29 159c.9.6 1.5 1.3 1.7 1.2q1-.4 1.3-1.3c.1-.3-.7-1.2-1.1-1.2q-.6.2-1.9 1.3m144.5-81v-.6q-.6-.7-1.3-1-1.5-.1-1.3 1.2.3.8 1.1 1 .8 0 1.5-.6M99.6 190.8v-.6c-.4-.3-.9-.9-1.3-.9s-1 .7-1.4 1q.7.9 1.4 1.3.7-.2 1.3-.8M163.4 78v-.6q-.7-.6-1.5-.9-1.2 0-1.3 1.4.2 1.3 1.4 1c.5 0 1-.6 1.4-.9m-19.4.3q-1.2 1.3-1.3 1.8c0 .5.8 1 1.1 1.4q1-.6 1.3-1.2-.2-.6-1.1-2m20 3.1h.7q.6-.6 1-1.3c0-.7-.3-1.4-1.2-1.2q-1 .4-1.3 1.1c0 .4.6 1 .9 1.4m-54.9 106.8v.7c.5.3 1 .9 1.4.8.5 0 .9-.7 1.3-1.1q-.6-.7-1.3-1.2-.7.2-1.4.8m40-105c-.6.7-1.4 1.2-1.3 1.5.1.5.8.9 1.2 1.3q.9-.6 1.2-1.3-.2-.5-1.2-1.5m-1.2 4.3v-.6c-.5-.3-1-.9-1.5-.8s-1 .8-1 1.3c-.1.3.7 1 1 1q.8-.2 1.5-1m10.3 4.8v-.7q-.7-.6-1.6-.8c-.3 0-1 .8-1 1 .1.5.7 1.2 1.2 1.2q.7 0 1.4-.7m-40.8 91.2h.7l.8-1.4q.3-1.2-1-1.3-1.5 0-1.4 1.3.3.8 1 1.4M172 85.2q-1 1.4-1.1 2c0 .4.7 1 1.1 1 .7.2 1.5-.2 1.2-1 0-.6-.6-1-1.2-2M154.2 83c-.6.8-1.3 1.3-1.2 1.7.1.5.8.9 1.2 1.3.4-.4 1.1-.7 1.1-1.1q-.1-.7-1.1-1.9m16.8-7.4V75c-.6-.2-1-.8-1.5-.7-.4 0-1 .7-1.1 1.2-.3.8.4 1.2 1.2 1q.7-.2 1.4-.8m-17.6 21q-1.2-1.1-1.9-1.2-.5.2-1.1 1c.4.4.7 1.1 1.2 1.2q.6-.1 1.8-1M172.2 84c.5-.9 1.1-1.4 1-1.8s-.8-.8-1.2-1.2q-.8.8-1 1.4 0 .4 1.2 1.6m-3-2.7h.7q.6-.7.8-1.4-.2-.8-1-1.1-1.6-.2-1.3 1.3.2.6.9 1.2m-4.9 5q1.2-1.1 1.3-1.5-.3-.8-1-1.4-1 .5-1.3 1.2.1.5 1 1.7m-4.6-3h-.7c-.2.4-.8 1-.8 1.4s.7 1 1.1 1 1.1-.6 1.2-1q-.2-.8-.8-1.4m7.2-4c.6-.8 1.3-1.3 1.2-1.7-.1-.5-.8-.8-1.2-1.2q-.8.6-1.1 1.3.1.4 1.1 1.7m-3.3 7.7q-1.2-1-1.7-1.1c-.5.1-1 .8-1.1 1.3 0 .3.7 1 1.2 1q.6-.1 1.6-1.2m7.3-2v-.6q-.8-.8-1.4-1c-.4.1-1 .8-1.1 1.2 0 .3.6 1 1 1.2q.8-.2 1.5-.8m-16.4 7.7h-.6c-.3.4-1 .9-.9 1.2q.3.8 1.3 1.2c.2.1 1-.6 1-1q-.2-.7-.8-1.4m6-10.7v.6l1.4.8q1.4 0 1.2-1.2-.3-1-1.1-1.1c-.5 0-1 .6-1.4.9m6.4 2q1-1.1 1.2-1.7-.4-.7-1.2-1.3-.8.6-1.1 1.3.1.6 1.1 1.7M144 86.4c.5-.8 1.2-1.3 1-1.7 0-.4-.7-.8-1.2-1.1-.3.4-1 .8-1 1.2q.2.5 1.2 1.6m15.3 1.3q-1 1.4-1 1.8c0 .4.6.8 1 1.2q.8-.6 1.1-1.3 0-.4-1.1-1.7m9-.2v-.6q-.8-.8-1.4-1c-.6-.2-1 .7-1 1.2-.1.4.6 1 1 1 .4.1.9-.4 1.4-.6m-112 98.1v.7c.5.2 1 .8 1.4.7q.8-.3 1-1.1c0-.4-.6-1.1-1-1.1q-.8.2-1.4.8m67.9-12.2q-1.2-1-1.7-1.2c-.4 0-.8.7-1.2 1 .4.4.7 1.1 1.1 1.2q.6 0 1.8-1m-14.3 12.8c-.8-.6-1.3-1.3-1.5-1.2q-.8.5-1.4 1.1.5.8 1.2 1.1.5-.1 1.7-1m49.5-90.3q.9-1.3 1-1.8c-.1-.4-.8-1-1.2-1s-1 .7-1 1.1q.1.6 1.2 1.7m-5-8.2c-.7.8-1.4 1.2-1.3 1.6q.2.9 1 1.2c.4 0 1.1-.6 1.2-1q-.1-.6-1-1.8m7.4 2.4q-1 1.1-1.2 1.7.2.8 1 1.1c.6.2 1.4-.1 1.3-1q-.2-.7-1.1-1.8m9.3-.8q-1.2-.9-1.7-1c-.4.1-1 .8-1 1.2.1.4.8 1 1.2 1q.5-.1 1.5-1.2M89 192.8h-.5c-.2.5-.7 1-.6 1.4s.7.7 1 1c.4-.3 1-.7 1-1.2q-.2-.6-.8-1.2m77-103.3q-1.1-1-1.6-1.1-.6.2-1.2 1 .6.8 1.2 1.1.4 0 1.6-1m-12 11q1-1.1 1-1.7c0-.3-.6-1-1-1-.3 0-1 .7-1 1q.2.6 1 1.7m-106 78.4q-.9 1-1 1.7c0 .3.7 1 1 1s1-.6 1-1q-.1-.6-1-1.7m68.6 1-.1-.6q-.7-.5-1.3-.5c-.4 0-1 .7-1 .9q.4.8 1 1c.5 0 1-.6 1.4-.9m32.6-89q.7-1.1.8-1.6c0-.4-.8-1-1-1q-.8.5-1 1.2 0 .3 1.2 1.4m1.7 55.3q-.9 1.2-1 1.7.2.5 1 1l1-1.2zm-55.2 43.2q.9-.9 1-1.3-.4-.9-1.1-1c-.3 0-1 .6-1 .9q.2.6 1.1 1.4M32 154l-1.8-.3c-.1 1.5.8 1.8 2 2.1zm86 25.2.8-1.7-.6-1q-.7.5-1.2 1.2 0 .3 1 1.5m33.2-77 1.1-2q-.7-.2-1.3-.1-1.2.8.2 2.1M29.8 155.3l-1.9 2 1 .4c1.2-.2 1.1-1 1-2.4m119.5-59.8q.9-1 1-1.5-.2-.5-.8-1l-.9.8q0 .5.7 1.7m-.6 55.6.7-1-.7-.9q-.6.4-.8.8.1.4.8 1.1m-116 4.4c-.9 1.9-.8 2 .7 2zm-16-15.7a19 19 0 0 1-8.2-6.6q-3.6-5-4.1-11.1c-.6-5.4.2-10.5 4.2-14.6q1.6-1.3 3.7-2.4a206 206 0 0 0 4.4 34.7"/><path fill="#000" d="m44.5 179.7-.5-2.5-.2.2c-.5-.6-1.3-1-1.5-1.7 0-.3.9-1 1.3-1.5l.3.3q0-1.8.2-3.5 0-1 .7-1.7t1.4-.6c1.5.3 2.3 2.6 1.6 4q-.3 1-.3 2c-.2 1.5-.1 3.1-.5 4.6-.3 1.1-1.4.8-2.2.6zM163.6 69.5q1.2-.2 2 .1c.4.3.5 1.6.1 2s-1.4.4-2 .1c-.3 0-.3-1-.4-1.6z"/><path fill="#beb5a8" d="m157.6 71.9-2-.2.1-1.5h1.9zm1.4-4.3h1.3v1.6l-2 .3zm7.3-2.2 2.2-.2-.4 1.7-1.6-.1zM148 74v-1.5h2v1.6zm-21.8 107v-1.7l1.6.1q.6 2-1.6 1.6m24.5-109.3v-1.5h1.6l.1 1.4zM124 181.4l1.4.3c.5 1.5-.6 1.5-1.7 1.6zm47.4-120.7h1.7l.1 1.9c-.7-.7-2.2-.2-1.8-1.9m-5.7 2.3-.3 1.4H164l-.1-1.3zm-37.3 115.7.2-1.6 1.6.3-.1 1.3zm40.7-118.8v-1.1l1.6-.4c.4 1.5-.3 1.7-1.6 1.5m-47.6 125.6v-2l1.7.1.3.4zm15.7-20.9 2.1.4-1.8 1.6zm-6.3 12.1v-1.5l1.3.2v1.3zm-94.3-7v2.2l-1.8-2zM168.8 64.8V63l1.9.7c0 1.3-1.3.2-1.9 1m-20 91.2q.4 1.6-1.3 1.4-.6-1.7 1.3-1.4m14.1-89.3-1.5.3V65l1.7 1.2z"/><path fill="#000" d="M100 108.2q-3.8.2-7.7.9c-2.5.6-5 1.8-7.4 2.8-1 .4-2 .8-2.8 0-.5-.4 0-2.4.9-3q4.9-3.8 11-4.5 3.1-.5 6.3-.3a26 26 0 0 1 13.7 4.2q1 .8 1.8 1.8.8 1.5-.8 1.7-1 0-2-.3l-5.4-2q1.7 4.4.5 8.4c-1 3.6-3.8 4.6-6.2 3a7 7 0 0 1-2.3-3.3 10 10 0 0 1 .4-7.8q0-.4.3-.8zm-44.1 5.1c.7 3.1.9 5.9-.9 8.5-1.6 2.5-4.6 2.4-6.3-.1-2.3-3.6-2-7.3 0-11-1.9-1-3.8-.7-5.5-.5q-5.5 1-10.3 3.8-1.7 1-2.7-.3a2 2 0 0 1 .7-2.9c3-1.5 6-3.3 9.1-4.3a18 18 0 0 1 18.3 4.6c.4.5.8 1.5.6 2-.4 1-1.3.5-2 .3zm2.8 21.7c-.2-3.6 1-7 2-10.4l4-15.4c.2-1.3.6-2 2-2q1.9.5 1.5 2.3-.7 5.2-1.8 10.5-1.6 6.3-3.4 12.4-.4 1.8-.2 3.6.3 3.7 3.7 4.5 2.6.5 5.4.7l1.7.3q1.6.5 1.5 2.1-.3 1.9-2 2c-4.4-.1-8.7-.3-12.2-3.7-2-2-2.2-4.3-2.2-6.9m39-50.7q6.8-.2 13.3 2.2 3 1.4 5.9 3.5c.5.4.5 1.4.7 2.1-.8.1-1.6.5-2.3.3-1.8-.4-3.6-1.3-5.4-1.8q-4.2-1.1-8.7-1.6a35 35 0 0 0-8.3.3q-5.2.7-9.8 3.3a7 7 0 0 1-2.8 1c-1.6.1-2.3-1.2-1.6-2.6 1.1-2 3.2-2.7 5.1-3.6q6.6-3.3 13.9-3.1M69.1 169l-6.7-.9q-2.3-.4-2.1-2.1c.1-1 1.3-1.8 2.7-1.6q10.6 1.6 20.6-2.3 3.8-1.5 7.4-3.4l1.1-.5c1-.2 2-.4 2.6.8q.8 1.9-.9 2.9-3.4 2-7 3.6A47 47 0 0 1 69 169M40 87.2c2.8.2 5.7.1 8.4.7s5.4 1.9 8 3c1 .5 1.3 1.9.6 2.8-.6 1-1.5.8-2.5.4q-4.9-2-10-2.3-9.6-.6-18.2 3.3l-.4.2-2.5-.5q.1-1.4.7-2.3 1.2-1.2 2.8-2 6.2-2.9 13-3.3m62.3 97.6c1-.2 2-.2 2.2 1q.3 1.7-1.2 1.7l-.4 1.7c.9 0 1.8 0 1.8 1.4q0 1.1-1.2 1.2c-1.6 0-1.5-1.1-1.5-2.2-2 0-2.2 0-2.7-2q0-.4-.6-.6-2.1-1-.3-2.4-.8-1.5-1.3-3.1l-.7-2.7q-.1-1.6 1.3-2.3c.9-.5 2.5.3 3 1.3l.5 1.3zm7.8-6.2 1.3.5c-1 1-1 2.8 0 3.8q.2.7.2 1.8l-1.7.1c-.4 0-.7-.6-1-.6-1.6 0-1.9-1.1-2.2-2.1l-1.3-5.5-1-4.2q-.6-1.6.8-2.6c.9-.5 1.6 0 2.4.7 1.5 1.5 1.2 3.5 1.9 5.2zm10-19.4c-.1-.6-.6-1.3-.5-1.8q.4-1 1.3-1.3c.7-.1 1.8 0 2.1.6q1.1 1.8 1.8 4l2 7c.7 0 1.6 0 1.4 1.3-.4 1.7-1.7.4-2.1.6l-.7 2.3c-.5-.2-1.4-.4-1.4-.6q0-.9.6-1.9l-.4-.2q-1-.4-1.4-1-1.3-3.6-2.4-7.4-.2-.7 0-1.6zm-1 15.5c-.7 1-1.4 1.8-2.8 1.5q-1.5-.4-1.7-2-.2-2.1-.8-4.2l-2-5c-.1-.8.3-1.9.8-2.4.3-.4 1.6-.3 2 0q1 1 1.5 2.4l2.9 9.8m9.1-24.4c2.1-.4 3 1 3.6 2.5q1.2 3 2 6.1.6 1.8-1.2 2.5c-1.3.5-2-.3-2.4-1.2q-1.6-3.7-2.8-7.3 0-.8.5-1.6zm12.8 2.6c-.6.6-1 1.4-1.5 1.3-.9 0-2.1-.3-2.5-.9q-1.6-3.1-3-6.5c-.4-1.2.8-1.7 1.5-1.8.8 0 2.2.2 2.5.7q1.6 3.4 3 7.2m-37.2.5c-.3.4-.6 1.2-1 1.4q-1.2.3-2-.1l-2-2-3-4.1c-.3-.3-.2-1 0-1.2q.7-.7 1.3-.6c2.7 1.3 5.2 2.7 6.4 5.7zm-46 4.1c0 .3 0 1-.2 1.2-.4.3-1.3.6-1.6.4-.7-.3-1.5-1.2-1.5-1.7q.6-2.8 1.6-5.6l.5-.7c.2-1.2 1.2-1.3 2-1.4 1.1 0 1.6 1 1.6 1.7q0 1.5-.6 2.8l-.6 2.1q-.5.7-1.2 1.2m29.1-3q-1.2-.5-2-1.1a56 56 0 0 1-3.8-5.6c-.3-.4 0-1.5.5-2 .3-.3 1.5-.4 1.7 0 1.1 1.2 3.1 2 3.3 4l.3.3c1.2.4 2 2.3 1.3 3.4q-.3.5-1.3 1M64 150.7l-.4-1q2.7.2 2 2.3l-1.6 6c-.2.5-1.4 1.3-1.7 1.2-.7-.3-1.8-1.2-1.7-1.8q.5-3 1.4-6 .4-1.6 2-.7m28.4 2.8-1.6-1.3-3.2-4.6q-.9-1.1 0-2 1-.4 1.9 0 3.2 1.7 4.7 4.9c.9 1.5.2 3-1.8 3m-18.1-4.4q.6-.7 1.4-1.3c1.2-.5 2 .6 2.2 1.3q1 3 1.4 6.1c0 .4-.7 1.2-1.2 1.4q-1.7.3-2.3-1.3-.8-2.8-1.5-6.2m-6 4.6v-2.5c0-1 .4-2 1.4-1.8.7.1 1.7 1 2 1.7q.5 2.6.7 5.1.1 1.4-1.2 1.9-1.8.5-2.4-1.1t-.7-3.3zM49.9 159c-.5.6-1 1.5-1.2 1.4-.7-.1-1.8.1-1.9-1.4 0-2.2 1.3-5 3.2-6q1.6-.6 1.8 1.2t-.4 3.4c-.2.8-.7 1.8-1.5 1.5m91.4-20.1c-.2-1 .6-1.2 1.5-1.5q1.8-.4 2.5 1.2.5 1.4.8 2.9.1 2-2 1.6-2.6-.7-2.8-4.2m8.4-6.7c0 1.9-.2 2.1-1.8 2a3 3 0 0 1-3-3.3c.2-1.5 1.5-1.2 2.5-1.2q2.6-.2 2.3 2.5m-26.1 46.5h-2.3c-.5-2-.2-2.5 2-2.4 0-1 0-2.3 1.6-2q.8.4 1 1.2c.2 1.5-1 1.1-1.9 1.2zm-52.7-1q-1.7-.7-.7-2.3c.7-1.2 2.1-1.8 2.8-.9.5.7.3 1.8.5 2.8H71zm12.9-3.5c-1.2.2-1.1.2-.5 1q.2.5 0 .8l-1.1.8-.3-.5-1.9-.2.5-1.8c1.4-2 2.2-2 3.3-.1m-9.4 3q.5-1 .5-1.4c0-.7 2.1-2.5 2.5-2.1q.9.9 1 2c0 .2-.7.8-1.2 1zm81.3-98c-.4-1-.8-2.1.4-2.8.5-.2 2 .2 2 .5.7 2-1.1 1.9-2.4 2.3m5.2-5.1-.3-2.2-.1.1.9-.3c.6 0 1.4-.1 1.6.2s.5 1.2.2 1.6-1 .5-1.5.6zm12.9-6.1q-.3 2-1.7 1.8-1.4 0-1.2-1.3c0-.8.2-1.7 1.3-1.6.6 0 1 .8 1.6 1.1M152 76.3q.5.7.8 1.6 0 1.3-1.3 1.3t-1.5-1.4q0-1.4 2-1.5m-4.6.1v2.3c0 .2-.9.3-1.3.4-1 0-1.1-.6-1.1-1.4q-.1-1.2 1.1-1.2z"/><path fill="#000" d="M160.8 74.1q.4 3-1.7 2.4-.9-.4-1-1.3c0-.3.5-.9 1-1q.8-.2 1.8 0zM153 74c.8.2 2-.2 2.2 1.2v1.1q-.8.5-1.7.4-.7-.2-.8-1 0-.8.4-1.7m18.1-3.7q-.1 1.8-1.5 1.7-1.4 0-1.3-1.3c0-.9.4-1.7 1.3-1.5q.8.4 1.5 1.1m-2.6 2.4c-.2 1.4-1 1.5-1.7 1.5q-1.4 0-1.1-1.2.4-1.1 1.3-1.3c.9-.2 1 .7 1.5 1m-54.2 112.6-.2-2.2c.5 0 1.2-.3 1.6 0q.6.5.8 1.4-.2.5-1 .9zM153 82.7q-.6.7-1.3 1-1.4.2-1.5-1.1 0-1.5 1.2-1.4.8.2 1.6.8zm22-4.1q.7.6 1 1.4.1 1.5-1.3 1.3c-.5-.2-1.2-.8-1.2-1.2q.2-.7 1-1.5zm-29 5.3c-.2-.5-.8-1-.8-1.5q-.1-1.4 1.3-1.2 1.4 0 1.2 1.3-.4.8-1 1.4zm28.3 2.1c-.2-.2-.8-.7-.9-1.2q.1-1.3 1.4-1.2c.4 0 1 .7 1 1.1q.5 1.3-1.5 1.4m-60.1 97q-.8.2-1.2 0-.8-.7-1.1-1.5c0-.3.8-1 1.2-1q.8.3 1.2 1.2.2.7-.1 1.3m-79.1-22c-.8.7-1.3 1.4-1.8 1.3s-.9-.7-1.3-1q.5-1 1.3-1.4zm123.1-78.4c-.4.3-.8.9-1.3 1-.7.1-1.6-.2-1.4-1.2 0-.5.6-1.2 1-1.2q1 0 1.7.7z"/><path fill="#000" d="M172 71.8q1.5.1 1.4 1.4 0 1.1-1.1 1.1-1.3.1-1.4-1.1-.1-1.4 1.1-1.4m-22.8 6.5c.5.9 1.1 1.4 1 1.9 0 .4-1 1.2-1.2 1-.6 0-1.2-.8-1.3-1.3 0-.3.8-.8 1.5-1.6m6.4 2.2c-.5.3-1 .9-1.5.8s-.9-.7-1.3-1.2c.4-.4.8-1.2 1.2-1.2q.8.2 1.7 1zm-5.6 6.3c.6-.3 1.1-1 1.5-.9q.8.4 1.3 1.4c0 .2-.7 1-1.1 1q-.8-.2-1.6-.8zm8.2.7c-.5.3-1 .9-1.4.8q-.8-.2-1.4-1c.3-.5.7-1.2 1.1-1.3q.8.2 1.6.8zm-6.6 2.4c.6.8 1.3 1.4 1.2 1.8 0 .5-.8.9-1.2 1.3-.4-.4-1.1-.8-1.2-1.3q.1-.6 1.2-1.8M81.2 193.4c-1 .6-1.4 1.3-1.8 1.2-.5 0-1-.7-1.4-1.2.5-.4.8-1.1 1.3-1.2q.6.1 1.9 1.2m24.3-3.4q-1-1.2-1.1-1.8 0-1.5 1.4-1.2c.4.1 1 .8 1 1.3q0 .7-1.3 1.8m54.3-111.5q.6.6.9 1.4 0 1.1-1.3 1.2t-1.2-1.3c0-.4.6-.9 1-1.3zM126.7 172q1.7.2 1.6 1.5t-1 1.2q-1-.4-1.4-1.4c0-.3.6-.9.8-1.4m37.5-95.2q-.8-.8-1-1.4c.2-.5 1-1 1.5-1.2.8-.2 1.2.5 1 1.2q-.2.8-.8 1.4zM29 158.9q1.2-1.2 1.9-1.3c.4 0 1.2.9 1.1 1.2q-.3.8-1.3 1.3c-.2.1-.8-.6-1.7-1.2m144.5-80.8q-.7.6-1.5.7c-.4-.1-1-.7-1-1q-.2-1.5 1.2-1.3.7.3 1.4 1zM99.6 190.8c-.4.3-1 .9-1.3.8q-.8-.4-1.4-1.3c.5-.3 1-1 1.4-1q.7.2 1.4 1zM163.4 78l-1.4.8q-1.2.3-1.3-1 0-1.5 1.3-1.4c.5 0 1 .6 1.4.9zm-19.4.2c.5 1 1.2 1.5 1 2 0 .4-.7.7-1.2 1.1q-.8-.6-1-1.3 0-.6 1.2-1.8m20 3.1c-.2-.5-.9-1-.8-1.4q.4-.8 1.3-1c.9-.3 1.3.4 1.1 1.1q-.2.8-1 1.3zm-55 106.8c.6-.3 1.1-.9 1.5-.8.5 0 .9.8 1.3 1.2q-.6.8-1.3 1c-.4.1-1-.5-1.4-.8zM149 83c.6.8 1.3 1.3 1.2 1.6 0 .5-.7.9-1.2 1.3q-.7-.6-1.2-1.3c0-.3.7-.8 1.2-1.5m-1 4.3c-.6.3-1 .9-1.5.9s-1.2-.7-1.2-1q.3-1 1.1-1.3.7.2 1.5.8zm10.2 4.8c-.5.2-1 .8-1.5.7-.4 0-1-.7-1.1-1.1-.1-.3.6-1.1 1-1.1q.8.2 1.6.8zm-40.8 91.2q-.6-.7-.9-1.4 0-1.3 1.4-1.3t1 1.3c0 .5-.6 1-.8 1.4zM172 85.2c.6 1 1.1 1.4 1.2 2 .2.8-.5 1.2-1.2 1q-.8-.2-1.1-1 .1-.6 1.1-2"/><path fill="#000" d="M121.3 178.8v1.1q-.5.8-1.1 1.1-1.3.2-1.4-1.2 0-1.2 1.3-1zM154.2 83q1 1.3 1.1 1.8c0 .4-.7.8-1.1 1.2q-.7-.5-1.2-1.4.1-.4 1.2-1.6m16.8-7.4-1.4.9q-1.4.2-1.3-1 .4-1 1.2-1.3.7.2 1.4.8zm-17.6 20.9q-1.3 1-1.8 1.1c-.5 0-.8-.8-1.2-1.2q.6-.8 1.2-1 .7.1 1.8 1.1m18.8-12.4q-1.2-1.2-1.3-1.6.3-.8 1-1.4 1 .6 1.3 1.2 0 .6-1 1.8m-2.9-2.7q-.7-.6-1-1.3 0-1.3 1.3-1.3c.5.1 1 .8 1 1.2.1.4-.4 1-.7 1.4zm-5 5q-.9-1.2-1-1.7c.1-.5.8-.8 1.2-1.2q.8.6 1 1.4c.2.3-.5.7-1.2 1.5m-4.6-3.1q.6.8.8 1.5c0 .4-.8 1-1.2 1s-1-.6-1-1q.2-.7.8-1.4zm7.3-3.8q-1.2-1.4-1.2-1.8.3-.7 1.1-1.2c.4.4 1.1.7 1.2 1.2q-.2.5-1.2 1.8m-3.3 7.6q-1.1 1-1.6 1.2c-.5 0-1.2-.8-1.2-1 0-.5.6-1.2 1-1.3q.7 0 1.8 1.1m7.3-2q-.7.6-1.5.8c-.4 0-1-.9-1-1.2q.3-.8 1.2-1.1c.4-.1.9.5 1.3.9zm-16.4 7.7q.6.8.8 1.4c0 .4-.9 1.1-1 1q-1-.4-1.3-1.2c0-.3.6-.8.9-1.3zm6.1-10.7c.4-.3 1-1 1.4-.9s1 .6 1 1.1q.3 1.3-1.1 1.2-.7-.2-1.3-.8zm6.3 1.9q-1-1-1.1-1.6.3-.7 1.1-1.3.8.6 1.2 1.3-.2.6-1.2 1.7M144 86.4q-1-1-1.1-1.6.2-.6 1-1.3.8.6 1.2 1.2-.2.6-1 1.7m15.2 1.3q1 1.3 1.1 1.7-.3.7-1.1 1.3-.8-.6-1-1.2t1-1.8m9-.3q-.8.6-1.4.8c-.5 0-1.1-.8-1.1-1.1 0-.5.7-1.2 1-1.2q.8.2 1.5 1zm-112 98.2c.5-.3 1-.9 1.3-.9s1 .7 1 1.1q0 .8-1 1.1c-.3.1-.8-.4-1.3-.7zm67.9-12.2q-1.3 1-1.8 1-.6-.3-1.1-1.1.6-.8 1.2-1 .6 0 1.7 1m-5.2 1.5q1-.2 2 0s.2 1 0 1.3-1.2.6-1.4.4q-.5-.7-.6-1.7m-9.1 11.5q-1.2.9-1.7 1c-.4 0-.8-.7-1.2-1q.7-.8 1.4-1.2.5.2 1.5 1.2M159.4 96q-1-1.2-1.2-1.8c0-.4.7-1.1 1-1.1q.9.2 1.2 1-.1.6-1 1.8m-5.1-8.2q.9 1.3 1 1.8c-.1.4-.8 1-1.2 1s-1-.8-1-1.2c-.1-.4.6-.8 1.2-1.6m7.5 2.3q.9 1.3 1 1.9c.2.9-.5 1.1-1.2 1q-.8-.3-1-1.1.1-.6 1.2-1.7m9.3-.8q-1 1-1.6 1.2-.8-.2-1-1c-.1-.4.5-1 .9-1.2q.6.1 1.7 1M89.2 192.8q.6.6.8 1.2-.3.7-1 1.3-.8-.6-1-1c-.1-.5.4-1 .6-1.5zm76.9-103.3q-1.2 1-1.6 1c-.5-.1-.8-.7-1.2-1q.6-.9 1.2-1.1.5.1 1.6 1.1m-11.9 11q-.9-1-1-1.7c0-.3.6-1 1-1 .3 0 .9.7 1 1q-.1.5-1 1.7m-106 78.4q.9 1.2 1 1.7-.3.8-1.1 1c-.3 0-1-.6-1-1q.1-.6 1-1.7m68.6.9q-.8.7-1.4 1c-.6.3-.8-.7-1-1.1 0-.2.6-.9 1-1q.6.1 1.3.6zM149.3 91q-1.2-1.2-1.3-1.5.4-.8 1.2-1.1c.1-.1.9.5.9.9q-.1.5-.8 1.6m1.7 55.3 1 1.5q-.4.7-1 1.2-.8-.5-1-1 .1-.6 1-1.7m-55.2 43.2q-.8-.8-1.1-1.4c0-.3.7-1 1-1q.8.3 1 1 0 .5-.9 1.4M31.9 154l.1 1.8c-1.1-.3-2-.7-2-2.2zm85.9 25q-.9-1-.9-1.4.5-.7 1.2-1.2c.2.4.7.7.6 1q0 .5-.9 1.7m33.2-77q-1.4-1.4-.1-2.1c.2-.3.9 0 1.3 0zM29.8 155.3c.2 1.3.3 2.2-1 2.4l-.9-.4zm119.5-59.8q-.6-1.1-.7-1.7.2-.4 1-.8c.2.3.7.7.7 1q-.1.5-1 1.5m-.6 55.6q-.7-.7-.8-1.1.2-.4.8-.8.5.4.7 1zm-116 4.3.7 2c-1.5 0-1.6-.1-.7-2"/></svg>