<svg viewBox="0 0 176 209" fill="none" xmlns="http://www.w3.org/2000/svg">
<path d="M75.1622 0.0465118C68.2272 0.254967 53.6661 4.91142 47.7952 8.62813C38.7268 14.6345 35.0296 20.617 34.3145 22.8575C21.8777 23.9058 8.34176 31.7418 11.4333 72.5202C12.0998 78.2032 12.8345 98.6547 13.4188 104.194C7.38743 102.316 2.44118 104.311 0.65371 110.654C-2.24435 120.938 4.98313 133.26 12.6948 139.627C15.1078 141.619 17.6961 142.822 20.4708 144.078C25.1506 166.26 33.6163 185.376 53.2728 198.194C66.6983 207.084 83.1265 210.227 98.8858 206.919C106.774 205.255 115.044 201.519 121.636 196.917C134.167 188.485 142.787 175.091 147.661 160.95C149.583 155.375 150.371 150.761 151.84 145.299C160.881 142.242 168.051 137.778 172.334 128.928C174.828 123.774 176.129 117.572 174.251 111.997C173.135 108.686 170.924 105.842 167.753 104.313C164.745 102.863 162.266 102.974 159.046 103.361C164.896 87.4116 172.283 50.9421 155.035 32.6593C135.199 10.7898 104.417 -0.833093 75.1622 0.0465118Z" fill="black"/>
<path d="M138.738 48.4828C139.942 51.2631 140.982 54.1197 137.007 59.125C103.089 76.7907 55.6481 52.8347 36.1676 38.6484C28.2052 45.1578 22.9086 58.6201 20.8598 68.4963C18.1499 81.7894 17.9661 95.4265 19.0825 108.908C19.5351 114.375 20.3273 119.785 20.8408 125.256C20.9833 126.775 21.5314 129.986 18.7739 129.082C18.1117 128.865 17.9318 127.677 17.7569 127.081C16.8666 122.765 16.0708 118.403 15.2309 114.073C14.9035 112.386 14.5887 110.355 14.1545 108.723C10.041 107.355 6.19621 107.047 4.77088 112.212C3.28269 117.608 5.60971 123.831 8.19538 128.522C11.3727 134.033 14.4563 137.248 19.9107 140.271C19.7797 138.422 19.0028 134.552 19.9518 133.296C22.0038 132.279 22.3265 135.619 22.5923 136.924C24.4065 145.813 26.7276 154.626 30.1999 163.025C31.1122 165.23 32.1234 167.787 33.426 169.766C34.2171 169.333 36.1668 168.353 36.7937 169.309C36.7184 170.648 35.556 171.179 34.6716 171.949C35.231 173.239 35.9313 174.238 36.7208 175.397C37.3453 174.408 38.4086 172.872 39.7873 173.208C41.0293 174.34 39.059 176.482 38.2127 177.367C39.0568 179.004 39.6258 179.735 40.8496 181.12C41.5017 180.116 43.2867 177.783 44.6927 178.575C45.5257 179.921 43.4049 182.152 42.6891 183.276C43.5021 184.396 44.4051 185.316 45.416 186.261C46.0174 185.204 47.5849 182.289 49.0997 183.471C50.2944 184.403 48.0678 187.208 47.5385 188.358C48.6973 189.513 49.937 190.585 51.2482 191.562L51.2582 191.538C51.5396 190.845 54.2387 184.199 55.8617 187.586C56.1554 188.199 54.0765 191.95 53.6102 193.177C54.6942 194.053 55.8404 194.914 57.0979 195.53C57.5119 194.031 58.4551 190.105 60.2548 189.936C61.8775 190.894 60.1318 195.424 59.6325 196.936C61.2356 197.943 62.3287 198.567 64.1043 199.226C64.2794 198.1 64.7202 194.549 66.4457 194.894C67.6601 196.061 66.9355 198.643 66.6689 200.174C68.0362 200.806 69.0848 201.148 70.5349 201.582C70.6013 200.476 70.5855 198.034 72.1379 198.007C73.4746 198.852 73.1674 200.856 73.1077 202.247L74.8823 202.711C74.9411 201.751 74.9168 199.087 76.4672 199.397C77.6201 200.366 77.3979 201.839 77.378 203.206L77.4928 203.228C79.0238 203.53 80.6681 203.853 82.2221 203.859C82.0086 202.851 81.4845 200.99 82.3339 200.167C83.993 200.102 84.5525 202.845 84.9588 204.055C86.1674 204.042 87.3598 204.036 88.567 203.971C88.2034 202.905 86.8681 199.731 88.4095 199.173C90.2703 199.552 91.0991 202.184 91.7674 203.738C93.0982 203.578 94.1773 203.434 95.489 203.176C94.7824 202.16 92.9083 200.166 93.721 198.966C95.5553 197.997 97.8592 201.117 98.6158 202.553C99.9305 202.244 100.783 201.998 102.061 201.56C101.195 199.783 98.8838 197.37 100.362 195.826C102.273 195.237 104.404 199.076 105.124 200.531C106.515 200.035 107.896 199.51 109.267 198.96C108.23 197.417 105.492 194.022 105.782 192.466C106.296 191.755 106.789 191.9 107.55 192.181C109.467 193.578 110.951 195.363 111.899 197.538C113.181 196.93 114.325 196.412 115.484 195.572C115.26 194.891 114.984 194.185 114.764 193.619L114.755 193.597C114.353 192.559 111.802 188.645 114.165 188.265C115.993 187.972 117.798 192.746 118.088 193.975C119.132 193.233 120.127 192.546 121.1 191.71C120.302 190.067 119.741 188.128 119.098 186.405C118.725 185.407 117.885 183.532 118.775 182.703C121.356 181.808 122.878 187.9 123.398 189.622L123.486 189.914C124.468 189.051 125.419 188.156 126.339 187.227C125.285 185.959 125.114 184.767 124.509 183.295C124.135 182.382 122.525 180.649 124.038 179.912C125.808 179.049 127.577 182.778 128.028 184.09C128.153 184.462 128.271 184.836 128.378 185.212C143.055 170.019 147.75 148.452 150.728 128.352C150.833 127.645 151.296 126.061 152.038 125.805C155.158 126.265 152.561 138.559 152.57 141.142C159.618 138.288 165.698 134.215 168.881 126.806C171.456 120.811 172.852 111.027 165.32 107.663C163.093 106.669 160.067 107.123 157.83 108.075C157.403 109.926 155.642 118.99 154.495 119.766C154.014 120.091 153.381 120.128 152.829 119.984C152.431 119.881 151.712 119.585 151.547 119.176C151.089 118.047 151.915 111.468 151.941 109.638L152.764 85.2116C152.748 80.7454 151.745 76.9051 150.728 72.6134C148.86 64.7346 145.574 55.2435 139.709 49.4147C139.39 49.0992 139.066 48.7886 138.738 48.4828Z" fill="#BEB5A8"/>
<path d="M54.0877 104.231C57.3756 103.979 60.3165 104.582 63.2056 106.093C67.0739 108.116 69.2214 112.069 62.6201 109.904C61.7255 109.611 60.4964 109.393 59.564 109.247C62.9622 116.938 53.7547 122.093 48.5604 116.673C47.2407 114.413 47.2646 113.397 47.6518 110.824C46.0381 111.36 44.9284 111.866 43.3936 112.707C41.6387 113.668 39.9409 115.329 38.0106 115.844C37.3143 116.029 36.6252 115.575 36.5828 114.802C36.5111 113.494 37.2782 112.392 38.1034 111.448C41.9253 107.05 48.4206 104.672 54.0877 104.231Z" fill="black"/>
<path d="M110.595 107.174C111.25 107.087 113.166 107.097 113.89 107.111C119.952 107.232 126.41 109.458 130.637 113.934C131.264 114.597 132.212 115.966 132.141 116.979C132.111 117.416 131.953 117.457 131.681 117.647C130.388 117.793 129.147 116.771 128.178 116.014C126.104 114.391 124.145 113.44 121.669 112.578C121.719 114.435 121.75 115.106 121.136 116.876C119.397 120.151 115.748 121.21 112.346 120.157C110.658 119.651 109.253 118.479 108.452 116.91C107.454 114.949 107.727 113.421 108.363 111.471C106.457 111.655 104.885 112.11 103.061 112.636C102.245 112.871 99.9943 113.447 99.7734 112.266C99.85 112.06 99.9339 111.854 100.083 111.686C102.783 108.666 106.819 107.561 110.595 107.174Z" fill="black"/>
<path d="M109.267 90.3944C116.909 89.4519 128.884 93.2056 133.932 99.2564C137.062 103.009 134.498 104.382 131.109 102.155C130.264 101.599 128.628 100.864 127.639 100.492C118.925 97.1443 109.898 96.8558 100.828 97.704C98.891 97.8852 97.9238 95.1618 99.0264 93.8433C99.8184 92.8973 102.199 92.1592 103.344 91.7252C105.165 91.0568 107.285 90.5735 109.267 90.3944Z" fill="black"/>
<path d="M75.4638 110.152C75.7072 110.163 75.9601 110.204 76.2022 110.235C78.4889 111.753 77.0611 125.295 76.6489 128.055C75.8659 133.3 72.4003 139.803 78.8241 142.968C81.1491 144.113 82.7684 144.371 85.3359 144.54C86.7521 144.634 88.9411 144.29 90.1056 144.976C90.7136 146.092 88.3214 146.977 87.494 147.346C87.2187 147.436 86.9434 147.52 86.6652 147.599C83.2881 148.55 78.6963 148.114 75.615 146.342C73.316 145.036 71.6513 142.847 71.0081 140.283C69.3979 133.97 74.5302 121.762 74.5084 114.787C74.505 113.705 74.9113 111.086 75.4638 110.152Z" fill="black"/>
<path d="M53.1807 89.5148C56.2076 89.4191 64.1798 90.2809 65.5212 94.0283C66.0045 95.3783 64.6717 96.8108 63.2094 96.8032C61.3923 96.7938 59.4666 96.2435 57.6501 96.0125C52.6755 95.4466 47.5314 95.6614 42.6765 96.7839C40.9379 97.2335 39.2339 97.8067 37.5772 98.4995C36.7401 98.8495 33.6467 100.562 33.2196 100.539C31.9219 99.6633 33.8471 97.4807 34.5867 96.6564C38.9031 91.8469 47.0236 89.8279 53.1807 89.5148Z" fill="black"/>
<path d="M98.8172 166.501C98.9482 166.494 99.0793 166.49 99.2103 166.485C100.26 166.465 101.055 166.83 101.048 168.01C100.441 169.282 98.4418 169.787 97.1714 170.279C90.9427 172.693 84.0369 173.59 77.4578 172.218C74.5821 171.619 71.77 170.824 68.8758 170.294C67.3731 169.965 65.685 170.171 65.0391 168.614C65.3227 165.191 78.1566 167.791 80.096 168.031C81.811 168.239 83.5393 168.306 85.2647 168.234C89.4559 168.071 94.5406 167.02 98.8172 166.501Z" fill="black"/>
<path d="M77.8118 176.48C79.3242 176.586 80.8701 176.927 82.4114 177.034C84.0514 177.149 87.8421 176.112 88.8976 177.454C88.9978 178.496 87.8966 178.806 87.1061 179.126C84.4945 180.034 81.509 179.937 78.8713 179.192C77.2175 178.724 74.7383 177.434 77.8118 176.48Z" fill="black"/>
<path d="M85.2619 156.587C86.9092 156.437 87.3582 156.992 88.7347 157.996C89.6003 158.627 91.5391 160.236 91.5686 161.364C91.5789 161.769 91.2594 161.99 90.9885 162.271C88.5124 162.231 82.4015 159.331 85.2619 156.587Z" fill="black"/>
<path d="M74.1284 156.852C76.0983 157.337 75.445 158.718 74.3232 159.694C72.657 161.143 70.9377 162.176 68.8801 162.946C68.2167 162.881 68.0379 162.851 67.7276 162.282C67.6461 160.476 72.5797 157.479 74.1284 156.852Z" fill="black"/>
<path d="M127.509 173.365C128.865 173.29 129.583 173.507 130.596 174.446C131.762 175.525 133.389 178.038 132.011 179.466C131.668 179.514 130.745 179.634 130.514 179.316C129.387 177.768 128.433 176.187 127.075 174.808C126.646 174.375 127.173 173.716 127.509 173.365Z" fill="black"/>
<path d="M66.4354 158.184C67.1364 158.228 67.5008 158.285 67.8609 158.933C67.8372 160.711 64.7815 162.266 63.3302 162.908C62.73 162.912 62.3816 162.865 61.975 162.389C61.6367 160.922 65.3238 158.787 66.4354 158.184Z" fill="black"/>
<path d="M97.6929 158.449C99.1414 158.563 101.805 159.949 102.152 161.48C102.005 162.158 102.067 161.935 101.563 162.511C100.109 162.47 95.4743 160.516 97.6929 158.449Z" fill="black"/>
<path d="M93.2536 158.164C94.7301 158.626 98.2574 161.104 96.161 162.772C94.5446 162.385 90.9968 159.863 93.2536 158.164Z" fill="black"/>
<path d="M133.853 168.615C136.1 168.459 138.068 171.57 136.603 173.149C134.653 173.286 133.909 171.21 133.347 169.603C133.234 169.28 133.658 168.856 133.853 168.615Z" fill="black"/>
<path d="M61.0331 158.599C61.4808 158.581 61.917 158.814 62.1961 159.155C62.4477 160.844 59.5741 162.199 58.2755 162.729C57.5291 162.693 57.269 162.597 57.1562 161.906C57.5134 160.691 59.9225 159.317 61.0331 158.599Z" fill="black"/>
<path d="M76.3721 158.636C77.004 158.617 77.1191 158.566 77.6313 158.878C78.4827 160.294 75.774 162.008 74.7531 162.624C74.0045 162.617 73.6953 162.569 73.4844 161.865C73.7576 160.74 75.4693 159.428 76.3721 158.636Z" fill="black"/>
<path d="M141.577 150.602C143.184 151.024 143.256 152.723 143.272 154.152C143.278 154.59 142.96 154.775 142.666 155.043C140.419 154.884 140.238 151.891 141.577 150.602Z" fill="black"/>
<path d="M102.519 158.633C103.558 159.076 105.472 160.629 105.307 161.925C105.084 162.388 104.895 162.446 104.455 162.714C102.955 162.132 100.742 160.174 102.519 158.633Z" fill="black"/>
<path d="M105.995 159.445C107.309 159.529 109.138 160.969 108.134 162.546C106.307 162.831 104.658 161.147 105.995 159.445Z" fill="black"/>
<path d="M138.718 157.133C139.99 157.488 140.498 158.758 140.421 160.012C140.398 160.402 139.934 160.603 139.637 160.798C138.171 160.112 137.059 158.358 138.718 157.133Z" fill="black"/>
<path d="M135.946 162.755C137.598 162.665 138.98 163.78 138.072 165.465C136.586 165.548 134.91 164.357 135.946 162.755Z" fill="black"/>
</svg>
