<svg width="209" height="223" viewBox="0 0 209 223" fill="none" xmlns="http://www.w3.org/2000/svg">
<path d="M16.4661 220.508C33.2661 224.508 62.7994 222.175 75.4661 220.508L69 188C72.5 191.331 80 200.5 96 200.5C112 200.5 145.302 183.333 153.469 175.5C150.669 190.3 150.302 214.505 153.469 220.508C163.869 223.714 188.469 221.844 199.469 220.508L202.969 203.5C214.469 166.5 198.969 154 191.469 107.5C183.969 61 178.469 52.507 160.969 27.007C146.969 6.60696 115.469 2.50755 101.469 3.00785C24.6687 1.00785 10.8007 92.8412 13.4666 139.008C-8.13336 174.208 2.13294 192.675 9.96609 197.508C4.76609 176.308 12.1328 164.341 16.4661 161.008C23.2661 191.008 19.2994 213.175 16.4661 220.508Z" fill="#BEB5A8"/>
<path d="M39.2141 121.765C39.0333 121.687 38.8268 121.636 38.646 121.558C37.3551 124.295 36.0383 127.006 34.7731 129.743C34.6699 129.949 34.7215 130.259 34.7215 130.517C34.6182 133.848 35.367 137.05 36.8129 139.993C37.4584 141.336 38.5686 142.498 39.653 143.556C40.0661 143.969 40.9956 143.84 41.6927 143.969C41.796 143.324 42.0284 142.653 41.9767 142.033C41.5895 138.392 41.1247 134.778 40.6341 131.163C40.1952 128.039 39.6788 124.889 39.2141 121.765ZM165.213 163.282C166.943 163.282 168.182 162.146 168.182 160.571C168.182 159.048 166.814 157.731 165.264 157.757C163.689 157.783 162.476 159.074 162.476 160.675C162.476 162.172 163.638 163.282 165.213 163.282ZM43.2935 150.527C43.3194 149.262 42.7255 148.462 41.7186 148.436C40.5825 148.384 39.8079 149.056 39.8337 150.063C39.8337 150.966 40.8149 152.025 41.7444 152.025C42.6997 152.025 43.2935 151.56 43.2935 150.527Z" fill="black"/>
<path fill-rule="evenodd" clip-rule="evenodd" d="M48.7229 163.954C49.6783 166.097 51.3193 168.679 51.5 171.157L46.2111 221.737H51.5L55 175.262C56.2 176.047 63.1667 184.415 66.5 188.5C71.9873 202.725 71.1197 216.586 70 221.737H74C77.6 216.327 73.5 199.396 71 191.606C80.2 199.691 89.8333 202.571 93.5 203C115.5 203.5 131 196.5 149.5 181L146.7 221.505H150.5C150.292 207.055 151.41 176.667 157.544 170.718L157.545 170.717C158.061 169.891 158.577 169.065 158.964 168.472C159.662 168.704 160.075 168.911 160.514 168.937C160.669 168.937 161.03 168.317 161.004 168.291C160.62 167.931 160.192 167.616 159.739 167.283L159.636 167.207C160.152 164.961 160.385 164.857 162.45 165.864C164.903 167.078 167.485 166.742 169.396 165.012C171.074 163.515 171.332 161.527 171.229 159.461C171.177 158.428 171.564 158.041 172.468 157.705C173.707 157.241 174.998 156.724 176.031 155.95C178.2 154.349 180.214 152.541 182.305 150.812C182.615 150.553 182.925 150.295 183.441 149.856C183.57 150.708 183.751 151.276 183.777 151.844C184.19 158.247 184.861 164.625 184.913 171.028C184.99 179.161 184.629 187.294 184.293 195.402C184.061 200.875 182.977 206.272 181.427 211.513C180.42 214.921 179.155 218.252 177.942 221.737C179.491 221.737 181.092 221.841 182.641 221.686C183.106 221.634 183.467 220.808 183.906 220.369C183.958 220.343 184.061 220.369 184.19 220.369C184.242 220.782 184.267 221.195 184.319 221.582C186.514 222.099 186.72 221.996 187.004 219.93C187.237 218.097 187.392 216.238 187.598 214.405C188.347 207.563 189.251 200.72 189.819 193.878C190.619 184.299 190.258 174.694 189.638 165.115C189.612 164.831 189.664 164.522 189.69 164.212C190.077 164.522 190.258 164.857 190.387 165.193C193.795 174.591 196.583 184.144 198.21 194.033C199.501 202.011 200.172 209.99 198.855 218.045C198.649 219.233 198.417 220.395 198.184 221.557C200.482 222.099 200.998 221.944 201.334 219.853C202.005 215.773 202.754 211.694 202.961 207.588C203.451 198.113 201.437 188.895 199.165 179.807C197.539 173.352 195.267 167.052 193.149 160.752C191.574 156.13 189.741 151.586 188.115 146.964C187.314 144.666 186.849 142.291 187.288 139.838C187.598 138.031 188.192 136.224 188.218 134.39C188.295 130.569 188.321 126.722 187.263 123.004C186.462 120.164 184.99 117.84 182.331 116.368C181.531 115.904 180.73 115.31 180.162 114.587C177.322 110.869 174.482 107.125 171.797 103.304C171.074 102.271 169.783 101.109 171.048 99.4309C169.86 99.9731 169.421 99.276 169.034 98.5272C166.736 94.0088 164.438 89.4904 162.166 84.972C161.908 84.4298 161.753 83.8876 162.605 83.6552C162.734 83.6294 162.734 83.2421 162.812 83.0356C162.579 82.9839 162.347 82.8548 162.14 82.8806C161.934 82.9065 161.753 83.113 161.392 83.3196C160.204 80.7635 159.068 78.3106 157.906 75.8836C157.493 75.0574 157.028 74.2312 156.512 73.4307C156.383 73.2242 156.021 73.1209 155.763 73.1209C155.634 73.1209 155.479 73.4824 155.401 73.7148C155.348 73.876 155.331 74.0497 155.335 74.1064C155.34 74.1049 155.345 74.1035 155.35 74.1021C155.342 74.1337 155.336 74.1314 155.335 74.1064C154.36 74.3876 153.539 74.5426 152.819 74.8508C152.69 74.9025 152.742 75.8061 152.974 76.0902C153.904 77.2004 154.704 76.0127 155.763 75.7545C158.81 85.3593 162.347 94.7318 166.994 103.433C166.168 103.769 165.626 103.949 165.161 104.233C165.109 104.259 165.445 105.163 165.497 105.163C166.116 105.06 166.736 104.827 167.459 104.621C167.459 104.646 167.64 104.853 167.769 105.06C169.111 107.073 169.421 109.784 171.848 111.05C171.977 111.127 172.029 111.334 172.132 111.463C173.139 112.934 174.172 114.406 175.179 115.878C175.36 116.136 175.541 116.42 175.721 116.678L175.566 116.988C174.74 116.756 173.862 116.601 173.088 116.239C169.757 114.664 166.917 112.341 164.619 109.578C159.584 103.536 155.711 96.694 152.251 89.6712C147.217 79.4725 142.569 69.0414 136.631 59.3075C132.809 53.0334 128.678 46.94 123.437 41.6987C118.764 36.9737 113.445 33.2557 106.964 31.5258C104.777 30.9339 102.409 30.8807 100.118 30.8292L100.096 30.8287C98.7536 30.8029 97.8241 31.9131 97.8499 32.8943C97.8758 33.9529 98.7794 34.8049 100.225 34.7791C103.866 34.7016 107.016 36.1475 110.114 37.7483C117.266 41.4663 122.791 47.0691 127.465 53.4723C135.495 64.4456 141.072 76.7873 146.7 89.0515C150.367 97.0297 154.162 104.93 159.713 111.824C164.929 118.305 171.203 122.797 179.981 122.591C181.815 122.539 182.408 123.107 182.899 124.863C184.035 128.917 183.983 132.97 183.338 137.127C181.84 146.706 173.552 155.149 163.044 154.168C160.823 153.961 159.791 154.762 158.861 156.853C149.5 179 125.5 200.593 93.5 198.552C69.5 194.033 51.4561 159.375 46.9341 144.847C45.3075 134.365 43.939 123.83 42.4931 113.296C42.3899 112.547 42.5448 111.695 42.803 110.946C43.4485 108.984 44.3263 107.099 44.9202 105.137C47.1148 97.985 49.2062 90.8072 51.375 83.6552C54.1635 74.4377 57.0295 65.246 61.4962 56.6481C64.6978 50.4773 68.4933 44.797 73.9154 40.3561C77.5817 37.361 81.6354 35.1922 86.4636 34.8049C87.0316 34.7533 87.6255 34.4951 88.1418 34.2111C88.9422 33.7721 89.3554 32.9717 88.9939 32.1455C88.7099 31.5258 88.0644 30.8545 87.4447 30.6996C86.5152 30.4414 85.4566 30.4673 84.5013 30.6222C77.6334 31.784 71.9014 35.1664 67.099 40.0463C62.9421 44.2548 59.6889 49.1863 56.9262 54.4277C52.7434 62.3284 50.0066 70.823 47.2955 79.2917C44.7652 87.1925 42.5448 95.1965 40.1952 103.149C38.0264 110.482 35.4703 117.634 32.0363 124.45C29.506 129.433 27.208 134.545 24.2905 139.296C18.0422 149.443 12.2586 159.745 8.61808 171.157C7.01727 176.089 6.13941 181.072 6.55253 186.262C6.70744 188.405 7.09474 190.496 7.43039 192.975C6.96564 192.355 6.60417 192.019 6.39761 191.606C4.43534 187.94 3.37674 184.041 3.17019 179.884C2.86035 173.817 4.1255 167.981 5.9845 162.275C7.27547 158.325 8.82464 154.426 10.6578 150.682C15.0471 141.723 19.6688 132.893 24.1872 124.011C24.8068 122.746 25.3749 121.481 25.9429 120.241C25.3491 119.906 24.9618 119.544 24.5487 119.467C24.0064 119.363 23.3868 119.467 22.8188 119.493C22.8962 120.061 22.7929 120.861 23.1286 121.171C23.7482 121.765 23.6966 122.229 23.3351 122.849C21.6311 125.767 19.9528 128.736 18.2229 131.654C17.9389 132.118 17.4483 132.506 16.8028 133.228C16.7254 132.273 16.6479 131.679 16.6737 131.111C16.8803 126.98 17.0094 122.849 17.345 118.744C17.8356 112.754 18.1196 106.712 19.0749 100.773C20.3917 92.7178 22.0184 84.688 23.9548 76.7615C27.363 62.6899 32.5527 49.3154 40.2985 36.9737C45.514 28.6599 51.9947 21.6112 59.9471 15.8793C69.2679 9.16625 79.6473 5.65481 91.1111 5.37079C93.8738 5.29334 96.6106 5.42243 99.3733 5.42243C99.9671 5.42243 100.638 5.39661 101.129 5.13842C102.833 4.26056 102.807 1.91099 101 0.981494C99.8897 0.413467 98.5471 0.000357423 97.3077 0.000357423C93.4348 0.000357423 89.5619 -0.0254636 85.7148 0.361828C77.969 1.11059 70.6879 3.53762 63.8458 7.28143C55.0672 12.1097 47.7861 18.642 41.6411 26.4652C34.9022 35.0373 29.9707 44.6679 25.8913 54.7633C22.5089 63.103 20.0561 71.675 18.1454 80.4278C17.1901 84.7396 16.3123 89.1031 15.6668 93.4666C14.7373 99.6116 13.8336 105.808 13.343 112.005C12.7492 119.699 12.6717 127.393 12.207 135.087C12.0779 137.23 11.5873 139.451 10.7869 141.439C8.773 146.319 6.39761 151.044 4.35788 155.924C1.31119 163.179 -0.444534 170.718 0.0976736 178.671C0.639881 186.907 3.71239 194.033 9.83159 199.662C10.94 200.669 12.3433 201.358 13.6819 202.014L13.782 202.063C14.1951 202.27 14.8664 201.934 15.4086 201.831C15.202 201.366 15.0471 200.875 14.7631 200.488C14.2467 199.817 13.5496 199.249 13.0848 198.552C9.96069 193.827 8.97955 188.611 9.36684 183.034C9.7025 177.999 10.9935 173.197 12.8525 168.549C13.2914 167.439 13.8852 166.381 14.4016 165.296C14.5307 165.348 14.634 165.374 14.7631 165.399C14.918 165.916 15.1504 166.432 15.2278 166.974C15.6926 169.737 16.1315 172.5 16.5446 175.262C18.0163 184.945 19.1782 194.653 18.6876 204.438C18.5069 208.311 17.6032 212.158 16.8028 215.98C16.4155 217.864 15.486 219.672 14.8147 221.505C16.9836 222.176 17.6549 221.918 18.5844 220.033C20.3659 216.444 21.4245 212.623 21.8376 208.673C23.0253 197.157 21.9409 185.719 20.6499 174.281C20.0819 169.324 19.359 164.367 18.92 159.409C18.7909 158.041 19.1008 156.44 19.6946 155.201C21.0889 152.309 22.7671 149.546 24.4196 146.784C24.9359 145.957 25.788 145.312 26.5884 144.434C26.64 144.047 26.4851 143.221 26.7949 142.678C28.1117 140.38 29.5576 138.134 30.9777 135.888C31.0293 135.81 31.1842 135.785 31.2359 135.759C32.0363 138.057 32.8367 140.303 33.6371 142.549C33.6887 142.678 33.7662 142.782 33.7662 142.911C33.7662 143.246 33.6113 143.608 33.7145 143.918C33.8436 144.305 34.076 144.744 34.3858 145.002C35.2637 145.699 36.2448 146.293 37.1227 147.016C37.3551 147.197 37.4584 147.687 37.4067 148.023C36.7612 152.774 39.7821 155.588 43.2161 154.839C43.5259 154.762 44.1714 155.123 44.2489 155.407C45.0234 157.989 47.148 158.764 47.8193 161.372C47.8709 161.63 47.6127 161.94 47.6385 162.224C47.6902 162.585 47.7934 162.972 48 163.282C48.1807 163.54 48.5938 163.67 48.7229 163.954ZM38.646 121.558C38.8268 121.636 39.0333 121.687 39.2141 121.765C39.6788 124.889 40.1952 128.039 40.6341 131.163C41.1247 134.778 41.5895 138.392 41.9767 142.033C42.0284 142.653 41.796 143.324 41.6927 143.969C40.9956 143.84 40.0661 143.969 39.653 143.556C38.5686 142.498 37.4584 141.336 36.8129 139.993C35.367 137.05 34.6182 133.848 34.7215 130.517C34.7215 130.259 34.6699 129.949 34.7731 129.743C36.0383 127.006 37.3551 124.295 38.646 121.558ZM168.182 160.571C168.182 162.146 166.943 163.282 165.213 163.282C163.638 163.282 162.476 162.172 162.476 160.675C162.476 159.074 163.689 157.783 165.264 157.757C166.814 157.731 168.182 159.048 168.182 160.571ZM41.7186 148.436C42.7255 148.462 43.3194 149.262 43.2935 150.527C43.2935 151.56 42.6997 152.025 41.7444 152.025C40.8149 152.025 39.8337 150.966 39.8337 150.063C39.8079 149.056 40.5825 148.384 41.7186 148.436Z" fill="black"/>
<path d="M208.874 180.401C208.616 186.21 208.177 191.942 206.55 197.545C206.215 198.681 205.595 199.74 205.027 200.798C204.898 201.031 204.407 201.082 204.098 201.211C204.046 200.902 203.891 200.566 203.943 200.282C204.33 198.165 204.846 196.073 205.182 193.956C206.034 188.482 205.802 182.957 205.311 177.483C205.027 174.359 204.795 171.209 204.149 168.137C203.22 163.773 202.084 159.436 200.767 155.175C198.107 146.5 194.957 137.98 192.608 129.227C190.284 120.552 188.632 111.696 186.799 102.917C185.74 97.8564 184.965 92.77 183.984 87.6835C182.771 81.3836 181.661 75.0837 180.111 68.8612C179.027 64.4977 177.607 60.16 175.851 56.0289C173.656 50.8134 171.281 45.6237 168.467 40.7439C163.225 31.6038 156.203 24.0129 147.501 17.9711C141.924 14.0982 135.909 11.2065 129.428 9.37329C123.128 7.59175 116.699 6.45569 110.089 6.42987C109.315 6.42987 108.514 6.35242 107.791 6.14586C106.5 5.75857 106.113 4.41596 107.146 3.5381C107.765 2.99589 108.721 2.58278 109.547 2.53114C115.924 2.16967 122.173 3.09917 128.318 4.5967C136.038 6.48151 143.138 9.7864 149.774 14.1499C157.003 18.9006 162.967 24.994 168.183 31.862C175.541 41.5959 180.524 52.4917 184.088 64.0846C186.953 73.4312 188.838 83.0102 190.439 92.6409C191.859 101.135 193.073 109.656 194.958 118.047C197.023 127.187 199.863 136.121 202.239 145.183C204.072 152.129 206.008 159.048 207.402 166.071C208.332 170.745 208.409 175.624 208.874 180.401Z" fill="black"/>
<path d="M41.0862 64.9104C40.5182 64.11 40.1567 63.5937 39.7952 63.1031C40.4407 62.974 41.112 62.8191 42.1448 62.6125C44.6235 58.1716 47.3345 53.2917 49.9939 48.5151C49.4517 48.1537 48.9611 47.8955 48.5738 47.5082C48.5222 47.4565 48.832 46.7336 48.9869 46.7078C49.5808 46.682 50.2004 46.8369 51.1299 46.966C51.8012 46.1656 52.8857 45.2619 52.7824 43.6353C52.7566 43.2738 53.118 42.5767 53.3762 42.5508C55.0287 42.3701 55.5192 40.9759 56.3971 39.9431C58.0495 38.0324 59.5212 35.9411 61.3286 34.2112C63.8073 31.8358 66.4408 29.5895 69.2035 27.6014C71.0625 26.2846 73.2572 25.3809 75.3744 24.5289C79.0407 23.083 82.8104 21.9728 86.8124 22.6957C89.8332 23.2379 92.2603 24.7613 93.8094 27.4723C94.0934 27.9629 94.2225 28.6342 94.1193 29.1764C93.9643 30.0801 93.3189 30.519 92.3894 30.0543C91.9246 29.8219 91.4599 29.5379 91.1242 29.1764C89.2394 27.1367 86.7865 26.4395 84.1271 26.3621C79.2473 26.2072 74.9096 27.9887 70.8818 30.4674C65.563 33.7206 61.3286 38.1357 57.8688 43.3254C53.841 49.393 50.2263 55.6671 47.1279 62.251C42.3255 72.3981 37.9104 82.7258 34.8637 93.5442C33.9084 96.9781 33.4437 100.541 32.6691 104.001C31.817 107.848 31.1974 111.798 29.3642 115.362C29.3125 115.439 29.3125 115.516 29.2867 115.62C29.1834 116.291 29.1835 117.246 28.2281 117.014C27.7634 116.885 27.4019 116.033 27.1954 115.439C27.1179 115.232 27.6343 114.51 27.815 114.535C28.8736 114.639 28.8994 113.941 28.9769 113.244C29.5966 107.616 30.1646 101.961 30.8359 96.3327C31.0941 94.1638 31.5847 92.0208 31.9203 89.852C31.9978 89.3098 31.7654 88.7159 31.7654 88.1479C31.7654 87.6832 31.7654 86.9602 31.9978 86.8311C32.9531 86.3664 33.1596 85.5143 33.4178 84.6623C34.1924 82.1062 34.9154 79.55 35.7416 77.0197C37.11 72.9403 38.9432 69.0674 40.8796 65.2461C41.0604 65.0395 41.1378 64.8072 41.0862 64.9104Z" fill="black"/>
<path d="M158.297 221.737C159.355 219.413 160.466 217.399 161.163 215.256C162.144 212.287 162.841 209.188 163.641 206.168C163.719 205.858 163.719 205.496 163.745 205.264C163.099 205.083 162.531 204.98 162.015 204.748C161.963 204.722 162.092 203.921 162.221 203.896C162.712 203.792 163.228 203.844 164.003 203.844C164.106 203.482 164.364 202.914 164.468 202.295C165.139 198.835 165.733 195.349 166.43 191.915C166.791 190.108 167.334 188.326 167.798 186.545C167.979 185.874 168.237 185.228 167.179 184.97C166.921 184.892 166.843 184.17 166.688 183.731C167.101 183.653 167.618 183.369 167.902 183.524C168.702 183.937 168.909 183.524 169.089 182.93C169.373 182.026 169.632 181.123 169.941 180.219C170.096 179.754 170.38 179.341 170.613 178.902C170.716 178.928 170.845 178.928 170.948 178.954C171 179.419 171.129 179.883 171.077 180.348C170.664 184.273 170.277 188.223 169.787 192.148C169.218 196.769 168.418 201.339 167.979 205.961C167.54 210.609 165.836 214.817 164.003 219C163.874 219.31 163.667 219.645 163.693 219.981C163.822 221.582 162.867 221.84 161.602 221.788C160.543 221.711 159.459 221.737 158.297 221.737Z" fill="black"/>
<path d="M121.709 96.1482C116.648 96.0708 113.214 96.3289 109.987 97.6974C109.78 97.7748 109.573 97.8265 109.367 97.9039C108.412 98.2138 107.405 98.4203 106.966 97.2326C106.553 96.1224 107.327 95.322 108.231 95.0122C110.839 94.1859 113.446 93.1273 116.132 92.8175C124.471 91.8364 132.372 93.5404 139.73 97.6457C141.176 98.472 142.596 99.4014 143.991 100.305C144.378 100.563 144.817 100.899 144.972 101.286C145.153 101.751 145.204 102.422 144.972 102.784C144.791 103.042 144.068 103.068 143.603 103.042C143.242 103.016 142.88 102.758 142.596 102.526C138.878 99.6597 134.541 98.317 130.048 97.4134C126.769 96.7679 123.438 96.4064 121.709 96.1482Z" fill="black"/>
<path d="M64.4446 90.1597C69.247 90.0822 73.8429 90.9859 78.1289 93.2322C78.6969 93.5162 79.2908 93.8777 79.6781 94.3424C79.9621 94.6781 80.1428 95.3494 79.9879 95.685C79.833 96.0207 79.1875 96.253 78.7486 96.3047C78.3613 96.3563 77.9223 96.0981 77.5351 95.969C68.8856 93.0256 60.236 92.5867 51.5349 95.7108C51.4575 95.7367 51.38 95.7625 51.3025 95.7883C50.4505 96.0981 49.4435 96.3821 49.1079 95.3494C48.953 94.9363 49.6501 93.9551 50.1923 93.6195C53.6005 91.4506 57.4217 90.4953 61.3979 90.1597C62.3791 90.108 63.4118 90.1597 64.4446 90.1597Z" fill="black"/>
<path d="M32.3984 221.736C32.8632 220.007 32.9148 218.302 33.741 217.115C35.032 215.204 35.4193 213.087 35.9099 210.97C36.8136 206.916 37.5365 202.811 38.2853 198.731C38.3369 198.422 37.9496 198.034 37.9496 197.699C37.9496 197.234 38.0012 196.64 38.2853 196.356C38.4918 196.149 39.2664 196.201 39.5246 196.433C39.757 196.666 39.7828 197.311 39.6537 197.699C38.8791 199.867 39.2664 202.036 39.6795 204.205C39.7828 204.696 39.9893 205.186 39.9119 205.651C39.602 207.587 39.1373 209.524 38.9307 211.46C38.8533 212.157 39.6537 212.958 39.5246 213.603C39.3955 214.249 38.466 214.688 38.182 215.359C37.5365 216.934 37.0459 218.586 36.5554 220.239C36.1939 221.401 35.5226 221.917 34.2833 221.762C33.6378 221.659 32.9923 221.736 32.3984 221.736Z" fill="black"/>
<path d="M120.829 32.4823C119.823 32.5597 119.203 32.6114 118.557 32.663C118.867 30.9847 117.318 29.1774 115.382 28.8417C114.994 28.7643 114.478 28.6868 114.246 28.4286C112.438 26.4922 110.037 25.8725 107.636 25.227C104.692 24.4524 101.852 25.2787 98.9863 25.7692C98.5732 25.8467 98.1342 25.7176 97.6953 25.6918C97.8244 25.2787 97.8502 24.6848 98.1342 24.4524C98.9605 23.7811 99.8125 23.0324 100.794 22.7225C103.143 21.948 105.596 21.8705 108.023 22.5934C108.798 22.8258 109.624 22.9033 110.398 23.0582C110.657 23.1098 110.941 23.1356 111.121 23.2647C114.039 25.7692 116.957 28.2995 119.823 30.8557C120.21 31.1913 120.416 31.7851 120.829 32.4823Z" fill="black"/>
<path d="M64.6246 203.691C65.1668 204.492 65.8122 205.008 65.7348 205.395C65.6315 205.834 64.9086 206.454 64.4696 206.454C64.0307 206.454 63.3078 205.757 63.2819 205.318C63.2561 204.905 63.9533 204.44 64.6246 203.691Z" fill="black"/>
<path d="M81.1462 11.7717C80.6556 12.0557 80.1392 12.6237 79.7261 12.5721C79.2613 12.4946 78.874 11.8233 78.4609 11.436C78.874 11.0745 79.2613 10.4291 79.7003 10.4032C80.165 10.3774 80.6556 10.9196 81.1462 11.2036C81.1462 11.3844 81.1462 11.5651 81.1462 11.7717Z" fill="black"/>
<path d="M65.9165 213.759C65.4518 214.069 64.9354 214.662 64.4965 214.611C64.0317 214.559 63.6186 213.939 63.1797 213.552C63.567 213.191 63.9543 212.571 64.3932 212.519C64.858 212.468 65.4002 212.958 65.8907 213.191C65.8907 213.371 65.8907 213.552 65.9165 213.759Z" fill="black"/>
<path d="M107.144 11.7998C106.653 12.0839 106.163 12.6261 105.672 12.6261C105.285 12.6261 104.897 11.9806 104.484 11.6191C104.897 11.2318 105.285 10.6121 105.75 10.5347C106.137 10.4831 106.653 11.0253 107.092 11.3093C107.118 11.49 107.118 11.6449 107.144 11.7998Z" fill="black"/>
<path d="M55.9712 203.77C56.4618 204.467 56.9523 204.828 57.004 205.241C57.0814 206.042 56.5134 206.584 55.7388 206.403C55.2999 206.3 54.6544 205.629 54.706 205.293C54.7319 204.854 55.3515 204.467 55.9712 203.77Z" fill="black"/>
<path d="M88.4062 13.299C87.7865 12.5503 87.1152 12.0597 87.1669 11.724C87.2443 11.2593 87.864 10.6913 88.3287 10.588C88.6386 10.5105 89.4132 11.2076 89.4132 11.5949C89.4648 12.0339 88.9226 12.5244 88.4062 13.299Z" fill="black"/>
<path d="M98.6027 19.6752C97.8023 20.2432 97.3634 20.8371 96.9503 20.8113C96.5372 20.7855 96.124 20.1916 95.7109 19.8301C96.0982 19.4428 96.4339 18.8232 96.8728 18.7457C97.2859 18.6683 97.7765 19.2105 98.6027 19.6752Z" fill="black"/>
<path d="M97.0767 13.2993C96.4829 12.5247 95.8891 12.0858 95.9149 11.6985C95.9407 11.2854 96.5604 10.6399 96.9477 10.6141C97.3349 10.5883 98.0837 11.1821 98.1095 11.5178C98.1353 11.9825 97.5931 12.4731 97.0767 13.2993Z" fill="black"/>
<path d="M55.7907 212C56.3587 212.671 57.0042 213.11 56.9784 213.472C56.9526 213.885 56.2813 214.608 55.9714 214.582C55.4809 214.504 54.887 213.988 54.7063 213.523C54.603 213.239 55.2485 212.697 55.7907 212Z" fill="black"/>
<path d="M114.294 10.1484C114.888 10.7939 115.585 11.3103 115.507 11.5685C115.378 12.0591 114.784 12.6013 114.294 12.7046C114.01 12.7562 113.287 12.0591 113.235 11.646C113.209 11.2845 113.803 10.8197 114.294 10.1484Z" fill="black"/>
<path d="M111.671 15.9063C110.923 16.3711 110.458 16.9133 110.096 16.8358C109.632 16.7584 109.27 16.1904 108.883 15.8289C109.27 15.4674 109.657 14.8478 110.096 14.7961C110.484 14.7445 110.948 15.3383 111.671 15.9063Z" fill="black"/>
<path d="M63.6193 27.6771C63.1545 27.9353 62.6898 28.4 62.2509 28.3484C61.8636 28.3226 61.5021 27.7287 61.1406 27.3931C61.5279 27.0316 61.9152 26.4119 62.3283 26.3861C62.7414 26.3345 63.2062 26.9025 63.6451 27.1865C63.6193 27.3672 63.6193 27.5222 63.6193 27.6771Z" fill="black"/>
<path d="M48.8207 188.819C48.0462 189.362 47.5814 189.956 47.1941 189.904C46.781 189.852 46.2646 189.233 46.1355 188.768C46.0839 188.535 46.781 187.838 47.1425 187.812C47.5814 187.838 48.0462 188.329 48.8207 188.819Z" fill="black"/>
<path d="M134.344 30.5206C133.699 31.037 133.286 31.5792 132.821 31.6566C132.537 31.7083 131.866 30.9595 131.891 30.6497C131.943 30.1591 132.459 29.746 132.795 29.2812C133.26 29.6427 133.673 29.9784 134.344 30.5206Z" fill="black"/>
<path d="M131.703 18.7188C132.245 19.3901 132.71 19.7773 132.813 20.2163C132.865 20.4487 132.193 21.1716 132.012 21.0941C131.444 20.9134 130.954 20.4745 130.438 20.1388C130.773 19.7773 131.135 19.3901 131.703 18.7188Z" fill="black"/>
<path d="M60.3144 199.766C60.805 200.385 61.4246 200.876 61.3472 201.134C61.1923 201.599 60.6242 202.167 60.2111 202.193C59.8238 202.193 59.4107 201.547 59.0234 201.186C59.3849 200.773 59.7464 200.385 60.3144 199.766Z" fill="black"/>
<path d="M61.8269 209.294C61.0781 209.862 60.6392 210.43 60.2003 210.404C59.7872 210.379 59.374 209.785 58.9609 209.423C59.374 209.062 59.7355 208.494 60.2003 208.39C60.5617 208.339 61.0523 208.829 61.8269 209.294Z" fill="black"/>
<path d="M114.241 21.3803C113.751 20.6574 113.234 20.2184 113.234 19.7795C113.234 19.4438 113.983 18.85 114.319 18.8758C114.758 18.9275 115.429 19.5213 115.455 19.8828C115.481 20.2959 114.835 20.709 114.241 21.3803Z" fill="black"/>
<path d="M122.893 13.4519C122.377 12.7289 121.757 12.2642 121.835 11.9544C121.964 11.5154 122.532 11.0507 122.997 10.9474C123.306 10.8699 124.081 11.5671 124.055 11.6962C123.874 12.2384 123.436 12.6773 122.893 13.4519Z" fill="black"/>
<path d="M85.4587 15.7735C84.7357 16.2125 84.271 16.7289 83.9353 16.6514C83.4964 16.5481 83.1607 15.9801 82.7734 15.6186C83.1865 15.283 83.5738 14.7408 84.0386 14.6633C84.3742 14.6117 84.7873 15.2055 85.4587 15.7735Z" fill="black"/>
<path d="M105.574 21.3552C105.084 20.6065 104.516 20.1159 104.593 19.8319C104.722 19.393 105.29 18.8766 105.729 18.8249C106.065 18.7991 106.736 19.4704 106.71 19.8319C106.736 20.2192 106.142 20.6323 105.574 21.3552Z" fill="black"/>
<path d="M48.8768 197.03C48.0764 197.547 47.6117 198.115 47.1986 198.063C46.7854 198.012 46.4498 197.366 46.0625 196.979C46.424 196.643 46.7854 196.023 47.1469 196.023C47.6117 196.023 48.0506 196.514 48.8768 197.03Z" fill="black"/>
<path d="M134.564 38.7821C133.764 39.3243 133.273 39.8923 132.886 39.8149C132.473 39.7374 132.137 39.0919 131.75 38.7046C132.137 38.3948 132.525 37.8784 132.938 37.8526C133.325 37.8268 133.764 38.2915 134.564 38.7821Z" fill="black"/>
<path d="M102.939 15.8275C102.165 16.2664 101.7 16.7311 101.287 16.6795C100.874 16.6279 100.512 16.0857 100.125 15.75C100.512 15.3627 100.9 14.7172 101.313 14.6914C101.726 14.6914 102.165 15.2853 102.939 15.8275Z" fill="black"/>
<path d="M120.295 16.0094C119.52 16.4742 119.055 16.9906 118.616 16.9648C118.255 16.9389 117.945 16.2934 117.609 15.9062C118.022 15.5447 118.384 14.9767 118.849 14.925C119.159 14.8734 119.597 15.4672 120.295 16.0094Z" fill="black"/>
<path d="M164.182 173.611C163.64 172.939 163.304 172.5 162.969 172.087C163.356 171.777 163.769 171.209 164.156 171.235C164.544 171.261 165.138 171.803 165.215 172.191C165.267 172.526 164.699 172.965 164.182 173.611Z" fill="black"/>
<path d="M63.6505 19.674C63.1858 19.9322 62.721 20.4227 62.2821 20.3969C61.8948 20.3711 61.5333 19.7773 61.1719 19.4416C61.585 19.0801 61.9723 18.5379 62.4628 18.4605C62.7985 18.4088 63.2632 18.951 63.6764 19.2092C63.6505 19.3642 63.6505 19.5191 63.6505 19.674Z" fill="black"/>
<path d="M57.5555 196.98C56.8842 197.497 56.471 198.065 56.0837 198.039C55.6965 198.013 55.3092 197.471 54.9219 197.135C55.3092 196.748 55.619 196.154 56.0579 195.999C56.3678 195.922 56.8583 196.49 57.5555 196.98Z" fill="black"/>
<path d="M61.7494 217.634C60.8974 218.124 60.4326 218.589 59.9937 218.563C59.6322 218.537 59.2966 217.944 58.9609 217.582C59.374 217.221 59.7613 216.678 60.2261 216.601C60.5617 216.549 61.0007 217.117 61.7494 217.634Z" fill="black"/>
<path d="M68.7509 216.035C69.1899 216.81 69.6804 217.274 69.603 217.636C69.5255 218.023 68.9317 218.565 68.5444 218.565C68.1829 218.565 67.5374 217.92 67.5633 217.61C67.6149 217.145 68.1571 216.758 68.7509 216.035Z" fill="black"/>
<path d="M143.01 38.806C142.261 39.3224 141.822 39.8646 141.409 39.8388C140.996 39.8388 140.583 39.2965 140.195 38.9867C140.583 38.5994 140.918 38.0056 141.383 37.9023C141.719 37.8248 142.209 38.3412 143.01 38.806Z" fill="black"/>
<path d="M48.9265 205.159C48.1778 205.727 47.7389 206.27 47.3257 206.27C46.9643 206.27 46.3704 205.65 46.3446 205.263C46.3188 204.927 46.8868 204.23 47.1966 204.204C47.6356 204.178 48.1003 204.669 48.9265 205.159Z" fill="black"/>
<path d="M79.5555 21.1745C79.0133 20.4774 78.4453 20.0643 78.4453 19.6512C78.4453 19.3155 79.1683 18.67 79.5297 18.7217C79.9428 18.7733 80.5109 19.3155 80.64 19.7544C80.7174 20.0643 80.0978 20.529 79.5555 21.1745Z" fill="black"/>
<path d="M122.997 18.668C123.514 19.2876 124.133 19.7266 124.056 20.0106C123.978 20.3979 123.359 20.9401 122.997 20.9659C122.61 20.9659 121.99 20.4237 121.913 20.0364C121.835 19.7266 122.455 19.2876 122.997 18.668Z" fill="black"/>
<path d="M137 36.4317C136.509 35.6313 135.993 35.1665 136.07 34.8309C136.148 34.4436 136.716 33.9788 137.129 33.9014C137.413 33.8497 138.11 34.4952 138.058 34.7276C138.007 35.1923 137.542 35.6054 137 36.4317Z" fill="black"/>
<path d="M47.0932 179.289C47.6612 179.909 48.3067 180.348 48.2551 180.657C48.1776 181.096 47.6354 181.639 47.1706 181.742C46.9125 181.794 46.2153 181.148 46.1637 180.761C46.0862 180.399 46.6284 179.96 47.0932 179.289Z" fill="black"/>
<path d="M145.461 44.5151C144.97 43.7664 144.454 43.2758 144.531 42.9401C144.609 42.5528 145.203 42.0623 145.641 42.0106C145.925 41.959 146.648 42.6303 146.597 42.8627C146.493 43.3532 146.029 43.7664 145.461 44.5151Z" fill="black"/>
<path d="M66.0507 197.029C65.3536 197.571 64.9405 198.139 64.579 198.113C64.1917 198.087 63.8302 197.519 63.4688 197.184C63.8044 196.822 64.0884 196.228 64.4499 196.177C64.8372 196.151 65.3019 196.616 66.0507 197.029Z" fill="black"/>
<path d="M47.0907 174.126C46.5743 173.428 46.0063 173.015 46.0321 172.628C46.0579 172.241 46.6776 171.621 47.0391 171.621C47.4005 171.621 47.9944 172.215 48.0718 172.602C48.1235 172.99 47.5813 173.428 47.0907 174.126Z" fill="black"/>
<path d="M57.0863 189.104C56.6474 189.362 56.1826 189.827 55.7437 189.827C55.4081 189.827 55.0466 189.259 54.7109 188.949C55.0982 188.562 55.4339 187.994 55.8986 187.891C56.2343 187.813 56.699 188.33 57.1121 188.588C57.1121 188.769 57.0863 188.923 57.0863 189.104Z" fill="black"/>
<path d="M153.826 44.4864C153.361 43.7634 152.844 43.2987 152.922 42.963C152.999 42.5757 153.593 42.0593 153.98 42.0593C154.29 42.0335 154.884 42.679 154.884 43.0405C154.91 43.4278 154.368 43.8151 153.826 44.4864Z" fill="black"/>
<path d="M53.9063 36.7903C53.3899 36.0932 52.8735 35.6801 52.8994 35.3186C52.9252 34.9571 53.5448 34.3633 53.8805 34.3633C54.242 34.3633 54.8616 34.9313 54.9133 35.2928C54.9391 35.6543 54.3969 36.0932 53.9063 36.7903Z" fill="black"/>
<path d="M49.5236 37.9023C50.04 38.5478 50.6339 38.9609 50.608 39.2966C50.5564 39.6839 49.9884 40.3035 49.6011 40.3035C49.2396 40.3035 48.6199 39.7355 48.5425 39.3482C48.4908 39.0126 49.0331 38.5736 49.5236 37.9023Z" fill="black"/>
<path d="M149.698 37.4922C150.241 38.1635 150.86 38.5766 150.809 38.9123C150.757 39.2995 150.189 39.8676 149.776 39.9192C149.466 39.9708 148.795 39.377 148.743 39.0155C148.717 38.6282 149.234 38.1893 149.698 37.4922Z" fill="black"/>
<path d="M59.5927 23.2881C58.7923 23.8303 58.3533 24.3209 57.8886 24.3725C57.6046 24.3983 56.9591 23.7012 57.0107 23.443C57.0882 23.0299 57.5788 22.4619 57.9661 22.3844C58.3275 22.2811 58.7923 22.7975 59.5927 23.2881Z" fill="black"/>
<path d="M142.909 30.7762C142.108 31.2667 141.644 31.7831 141.205 31.7573C140.843 31.7315 140.508 31.086 140.172 30.7245C140.559 30.3889 140.921 29.8208 141.334 29.7692C141.695 29.7176 142.134 30.2339 142.909 30.7762Z" fill="black"/>
<path d="M88.2828 18.2539C88.7733 18.9252 89.3414 19.3383 89.3155 19.6998C89.2639 20.0871 88.6184 20.7584 88.3086 20.7067C87.8696 20.6293 87.3016 20.1129 87.1983 19.674C87.1467 19.3641 87.7664 18.8994 88.2828 18.2539Z" fill="black"/>
<path d="M72.7002 19.5715C71.9256 20.0879 71.4867 20.6043 71.0994 20.5526C70.6863 20.5268 70.3248 19.9588 69.9375 19.6489C70.299 19.3133 70.6346 18.7453 71.0219 18.6678C71.4092 18.6162 71.874 19.1067 72.7002 19.5715Z" fill="black"/>
<path d="M145.419 57.707C145.935 58.3267 146.503 58.8173 146.426 58.998C146.245 59.4628 145.78 59.9275 145.341 60.1082C145.135 60.1857 144.334 59.5144 144.36 59.282C144.412 58.8431 144.902 58.43 145.419 57.707Z" fill="black"/>
<path d="M138.339 26.336C137.719 26.8782 137.332 27.2138 136.97 27.5495C136.66 27.1622 136.092 26.7491 136.118 26.3876C136.144 26.0003 136.686 25.5098 137.125 25.3548C137.332 25.3032 137.77 25.8712 138.339 26.336Z" fill="black"/>
<path d="M153.875 52.6449C153.385 51.922 152.842 51.483 152.894 51.1474C152.972 50.7601 153.54 50.2953 153.978 50.2179C154.237 50.1662 154.908 50.7859 154.882 51.0957C154.856 51.5089 154.392 51.922 153.875 52.6449Z" fill="black"/>
<path d="M149.443 72.9096C148.978 72.1351 148.462 71.6703 148.539 71.3347C148.642 70.9474 149.21 70.4826 149.623 70.4052C149.907 70.3535 150.605 71.0248 150.553 71.283C150.475 71.722 150.011 72.1092 149.443 72.9096Z" fill="black"/>
<path d="M141.252 48.4918C140.762 47.8205 140.194 47.3816 140.245 47.0459C140.297 46.6587 140.917 46.1164 141.304 46.0906C141.64 46.0648 142.259 46.6845 142.285 47.0459C142.311 47.4074 141.769 47.8205 141.252 48.4918Z" fill="black"/>
<path d="M155.374 67.1314C154.574 67.6994 154.161 68.2158 153.696 68.2674C153.412 68.2932 152.741 67.6478 152.766 67.3637C152.818 66.9765 153.309 66.4084 153.696 66.331C154.057 66.2277 154.522 66.6924 155.374 67.1314Z" fill="black"/>
<path d="M149.592 61.8086C150.083 62.4283 150.651 62.9446 150.574 63.1254C150.367 63.5901 149.876 64.0032 149.412 64.184C149.231 64.2614 148.482 63.5643 148.534 63.2545C148.56 62.8414 149.076 62.4799 149.592 61.8086Z" fill="black"/>
<path d="M127.415 14.7422C127.88 15.3877 128.422 15.8524 128.37 16.1623C128.293 16.5495 127.673 17.0659 127.286 17.0918C126.95 17.0918 126.305 16.4721 126.305 16.1364C126.305 15.7491 126.873 15.3619 127.415 14.7422Z" fill="black"/>
<path d="M75.3398 17.0158C74.8493 16.3445 74.2812 15.8539 74.3587 15.6473C74.5653 15.2084 75.0558 14.7953 75.5206 14.5888C75.6755 14.5371 76.3726 15.2084 76.3726 15.5441C76.3468 15.9572 75.8562 16.3445 75.3398 17.0158Z" fill="black"/>
<path d="M159.152 182.828C159.668 183.474 160.004 183.861 160.314 184.248C159.927 184.558 159.514 185.126 159.152 185.1C158.791 185.074 158.248 184.506 158.171 184.093C158.093 183.835 158.687 183.422 159.152 182.828Z" fill="black"/>
<path d="M149.617 45.6758C150.159 46.2696 150.805 46.7344 150.727 46.9151C150.546 47.3799 150.082 47.8188 149.617 48.0253C149.436 48.1028 148.688 47.4831 148.688 47.1733C148.713 46.7602 149.178 46.3471 149.617 45.6758Z" fill="black"/>
<path d="M55.4111 27.3931C54.5849 27.832 54.1201 28.3226 53.707 28.2451C53.3197 28.1935 52.9841 27.5996 52.6484 27.2382C53.0357 26.9283 53.423 26.3861 53.8361 26.3603C54.2234 26.3345 54.6365 26.8509 55.4111 27.3931Z" fill="black"/>
<path d="M160.056 208.724C159.359 209.137 158.894 209.627 158.61 209.524C158.171 209.421 157.861 208.878 157.5 208.543C157.861 208.207 158.223 207.613 158.61 207.613C158.972 207.613 159.359 208.181 160.056 208.724Z" fill="black"/>
<path d="M94.1078 15.7485C93.359 16.1874 92.9201 16.678 92.5586 16.6263C92.1713 16.5747 91.8357 16.0067 91.5 15.6452C91.8615 15.3095 92.2229 14.7157 92.6102 14.6641C92.9717 14.6641 93.3848 15.2063 94.1078 15.7485Z" fill="black"/>
<path d="M168.239 174.82C168.755 175.466 169.22 175.853 169.349 176.344C169.401 176.524 168.549 177.247 168.368 177.144C167.929 176.938 167.516 176.447 167.309 175.982C167.206 175.827 167.774 175.363 168.239 174.82Z" fill="black"/>
<path d="M66.6578 22.0234C67.1225 22.6431 67.7164 23.1337 67.6131 23.3144C67.4065 23.7792 66.8901 24.089 66.5029 24.4505C66.193 24.1148 65.625 23.7533 65.625 23.4177C65.625 23.0304 66.1414 22.6689 66.6578 22.0234Z" fill="black"/>
<path d="M158.066 40.2501C157.653 39.6821 157.137 39.2173 157.24 39.0366C157.446 38.6235 157.885 38.1587 158.299 38.0813C158.557 38.0296 158.97 38.6235 159.305 38.9591C158.944 39.2948 158.608 39.6821 158.066 40.2501Z" fill="black"/>
<path d="M160.649 176.453C160.211 176.685 159.772 177.098 159.359 177.072C158.997 177.047 158.687 176.504 158.352 176.195C158.713 175.859 159.049 175.265 159.436 175.239C159.823 175.213 160.262 175.73 160.649 175.988C160.675 176.117 160.649 176.272 160.649 176.453Z" fill="black"/>
<path d="M160.198 200.441C159.398 200.905 158.933 201.396 158.572 201.318C158.185 201.241 157.875 200.647 157.539 200.26C157.901 199.976 158.262 199.434 158.598 199.434C159.037 199.459 159.45 199.924 160.198 200.441Z" fill="black"/>
<path d="M163.538 181.69C163.048 181.045 162.531 180.657 162.531 180.244C162.531 179.909 163.177 179.315 163.461 179.341C163.874 179.366 164.519 179.857 164.571 180.219C164.648 180.554 164.055 181.019 163.538 181.69Z" fill="black"/>
<path d="M147.004 34.7558C146.281 35.298 145.868 35.7885 145.455 35.8144C145.119 35.8402 144.783 35.2463 144.422 34.9365C144.783 34.575 145.093 34.0586 145.532 33.9554C145.842 33.8521 146.281 34.3426 147.004 34.7558Z" fill="black"/>
<path d="M130.073 34.7527C129.479 35.2433 129.092 35.7855 128.782 35.7338C128.369 35.6822 128.033 35.1658 127.672 34.8302C128.059 34.4945 128.369 34.0298 128.808 33.8748C129.066 33.8232 129.479 34.3138 130.073 34.7527Z" fill="black"/>
<path d="M159.634 46.9891C158.885 47.4796 158.472 47.9702 158.059 47.9702C157.697 47.9702 157.336 47.428 157 47.1182C157.361 46.7567 157.697 46.2145 158.11 46.137C158.42 46.0596 158.885 46.5501 159.634 46.9891Z" fill="black"/>
<path d="M153.957 36.2746C153.466 35.6291 152.898 35.1643 152.976 34.932C153.157 34.493 153.647 34.0799 154.086 33.8734C154.241 33.7959 154.964 34.4672 154.938 34.777C154.938 35.216 154.448 35.6033 153.957 36.2746Z" fill="black"/>
<path d="M146.978 51.123C146.203 51.5877 145.764 52.0525 145.351 52.0266C145.016 52.0266 144.732 51.3812 144.422 51.0455C144.809 50.7357 145.196 50.2451 145.635 50.1676C145.919 50.116 146.307 50.6324 146.978 51.123Z" fill="black"/>
<path d="M42.5765 47.3265C41.8019 47.8429 41.3888 48.3334 40.9499 48.3334C40.6142 48.3334 40.3044 47.7138 39.9688 47.3781C40.3302 47.0683 40.6401 46.5519 41.0273 46.5002C41.3888 46.4486 41.8019 46.8875 42.5765 47.3265Z" fill="black"/>
<path d="M151.355 30.8285C150.58 31.2932 150.141 31.7321 149.728 31.7321C149.418 31.7321 148.773 31.0867 148.85 30.8543C148.953 30.4412 149.444 29.8731 149.805 29.8473C150.167 29.7957 150.606 30.3121 151.355 30.8285Z" fill="black"/>
<path d="M158.863 190.887C159.379 191.584 159.87 191.945 159.921 192.384C159.947 192.642 159.276 193.288 158.992 193.236C158.579 193.159 158.062 192.694 157.933 192.281C157.882 191.997 158.398 191.532 158.863 190.887Z" fill="black"/>
<path d="M46.8866 43.3516C46.1637 43.8422 45.7248 44.3586 45.4149 44.3069C45.0018 44.2295 44.6662 43.7131 44.3047 43.3774C44.6403 43.0676 44.9502 42.4996 45.2858 42.4737C45.6731 42.4479 46.112 42.8869 46.8866 43.3516Z" fill="black"/>
<path d="M118.998 22.4102C119.411 23.0815 119.928 23.5978 119.825 23.8044C119.618 24.2175 119.102 24.6048 118.637 24.7339C118.456 24.7855 117.811 24.0626 117.862 23.7786C117.94 23.3913 118.456 23.0556 118.998 22.4102Z" fill="black"/>
<path d="M40.3506 164.391C39.6535 164.933 39.2146 165.476 38.9306 165.398C38.5174 165.295 38.1818 164.778 37.8203 164.417C38.1043 164.107 38.4142 163.539 38.6982 163.539C39.1113 163.591 39.5502 163.978 40.3506 164.391Z" fill="black"/>
<path d="M155.787 204.592C155.039 205.005 154.6 205.444 154.264 205.367C153.851 205.264 153.541 204.747 153.18 204.386C153.541 204.076 153.928 203.508 154.29 203.508C154.677 203.508 155.09 204.05 155.787 204.592Z" fill="black"/>
<path d="M145.389 28.1995C144.899 27.5282 144.331 27.0118 144.434 26.8311C144.667 26.3922 145.157 26.0049 145.622 25.8499C145.803 25.7725 146.526 26.4438 146.474 26.6245C146.319 27.1151 145.906 27.5024 145.389 28.1995Z" fill="black"/>
<path d="M158.012 53.7578C158.476 54.4549 158.967 54.868 158.89 55.1779C158.812 55.5394 158.296 56.0816 157.934 56.0816C157.599 56.1074 156.953 55.5394 156.953 55.2295C156.979 54.8422 157.495 54.4549 158.012 53.7578Z" fill="black"/>
<path d="M174.381 172.291C173.555 172.704 173.09 173.143 172.703 173.091C172.341 173.039 172.083 172.446 171.773 172.084C172.161 171.8 172.548 171.309 172.961 171.258C173.297 171.258 173.684 171.748 174.381 172.291Z" fill="black"/>
<path d="M44.3057 193.075C43.8926 193.334 43.4537 193.798 43.0406 193.798C42.6791 193.798 42.3435 193.23 42.0078 192.92C42.3176 192.585 42.6275 192.017 42.9631 192.017C43.4021 191.991 43.8668 192.404 44.3057 192.636C44.3057 192.791 44.3057 192.946 44.3057 193.075Z" fill="black"/>
<path d="M56.5234 31.2938C57.2722 30.8548 57.7111 30.3643 58.0468 30.4417C58.4599 30.545 58.7697 31.0614 59.1312 31.397C58.7697 31.7069 58.4341 32.2749 58.0726 32.2749C57.6595 32.2749 57.2464 31.7843 56.5234 31.2938Z" fill="black"/>
<path d="M138.541 42.8367C137.792 43.3531 137.379 43.8437 136.94 43.8695C136.63 43.8953 136.294 43.2757 135.984 42.94C136.346 42.6044 136.656 42.088 137.069 41.9847C137.404 41.9072 137.843 42.3978 138.541 42.8367Z" fill="black"/>
<path d="M162.226 52.6723C161.761 51.9493 161.296 51.562 161.348 51.2264C161.399 50.8391 161.942 50.2969 162.251 50.2969C162.613 50.2969 163.258 50.8391 163.258 51.1489C163.258 51.5104 162.768 51.9235 162.226 52.6723Z" fill="black"/>
<path d="M155.381 59.2009C154.581 59.6914 154.168 60.1562 153.755 60.1304C153.419 60.1304 153.083 59.5623 152.773 59.2267C153.135 58.891 153.471 58.3746 153.884 58.2972C154.194 58.2197 154.632 58.7103 155.381 59.2009Z" fill="black"/>
<path d="M159.103 63.487C158.69 63.7452 158.251 64.1842 157.838 64.1842C157.502 64.1842 157.193 63.5903 156.883 63.2547C157.244 62.9448 157.554 62.4543 157.941 62.4026C158.303 62.351 158.716 62.7899 159.077 63.0223C159.103 63.1772 159.103 63.3321 159.103 63.487Z" fill="black"/>
<path d="M154.734 189.692C154.244 189.124 153.702 188.763 153.727 188.427C153.753 188.066 154.321 187.42 154.605 187.446C155.018 187.498 155.586 187.962 155.716 188.35C155.793 188.608 155.199 189.073 154.734 189.692Z" fill="black"/>
<path d="M44.337 184.968C43.8981 185.201 43.4591 185.64 43.0202 185.614C42.6845 185.588 42.3747 185.02 42.0391 184.684C42.4005 184.4 42.7362 183.91 43.1235 183.884C43.5108 183.858 43.9239 184.271 44.337 184.504C44.337 184.659 44.337 184.813 44.337 184.968Z" fill="black"/>
<path d="M25.2005 111.592C24.555 112.135 24.1935 112.651 23.7546 112.703C23.4706 112.728 23.1091 112.109 22.7734 111.773C23.1091 111.463 23.4189 110.999 23.8062 110.895C24.116 110.844 24.5292 111.231 25.2005 111.592Z" fill="black"/>
<path d="M44.3003 201.365C43.8614 201.597 43.3966 202.036 42.9835 201.984C42.622 201.958 42.3122 201.39 41.9766 201.055C42.338 200.796 42.6995 200.332 43.0868 200.306C43.4741 200.28 43.8872 200.667 44.2745 200.874C44.3003 201.029 44.3003 201.184 44.3003 201.365Z" fill="black"/>
<path d="M31.8035 164.494C31.1322 164.933 30.6933 165.424 30.3576 165.372C29.9961 165.321 29.4798 164.778 29.4539 164.417C29.4281 164.133 30.022 163.539 30.3576 163.539C30.7449 163.539 31.1322 164.03 31.8035 164.494Z" fill="black"/>
<path d="M30.2074 203.738C30.7238 204.41 31.2401 204.797 31.2401 205.133C31.2143 205.494 30.6979 205.855 30.3881 206.217C30.0525 205.907 29.5102 205.623 29.407 205.236C29.3295 204.926 29.7943 204.461 30.2074 203.738Z" fill="black"/>
<path d="M174.616 97.3425C174.177 96.6712 173.686 96.2581 173.738 95.9741C173.816 95.6126 174.384 95.0962 174.719 95.122C175.055 95.122 175.597 95.6901 175.649 96.0257C175.675 96.3355 175.132 96.697 174.616 97.3425Z" fill="black"/>
<path d="M172.09 75.1588C171.367 75.7268 170.98 76.2432 170.619 76.2174C170.257 76.1916 169.922 75.6494 169.586 75.3395C169.87 75.0297 170.128 74.5133 170.464 74.4617C170.851 74.41 171.29 74.7973 172.09 75.1588Z" fill="black"/>
<path d="M174.148 180.244C173.399 180.813 173.012 181.329 172.599 181.355C172.289 181.381 171.695 180.761 171.695 180.425C171.695 180.09 172.238 179.547 172.599 179.47C172.96 179.392 173.399 179.831 174.148 180.244Z" fill="black"/>
<path d="M38.6982 190.29C38.2592 189.541 37.8461 189.128 37.8203 188.715C37.8203 188.457 38.5174 187.863 38.6982 187.941C39.1113 188.121 39.6019 188.534 39.7051 188.947C39.7826 189.206 39.2146 189.645 38.6982 190.29Z" fill="black"/>
<path d="M153.725 82.0547C154.242 82.6744 154.81 83.0875 154.732 83.3457C154.629 83.7588 154.113 84.0944 153.777 84.4559C153.441 84.1202 152.925 83.8362 152.848 83.4489C152.796 83.1391 153.286 82.726 153.725 82.0547Z" fill="black"/>
<path d="M164.806 188.355C164.083 188.794 163.67 189.284 163.334 189.233C162.947 189.181 162.611 188.69 162.25 188.381C162.56 188.019 162.87 187.399 163.205 187.399C163.618 187.374 164.032 187.864 164.806 188.355Z" fill="black"/>
<path d="M30.4187 214.869C29.9023 214.172 29.4118 213.81 29.3601 213.372C29.3343 213.088 29.9798 212.52 30.2896 212.52C30.6511 212.52 31.1933 213.036 31.2449 213.397C31.3224 213.733 30.8577 214.146 30.4187 214.869Z" fill="black"/>
<path d="M164.188 196.666C163.826 196.925 163.439 197.389 163.103 197.364C162.742 197.338 162.406 196.821 162.07 196.511C162.38 196.202 162.638 195.685 162.974 195.634C163.335 195.582 163.774 195.969 164.162 196.176C164.162 196.331 164.188 196.486 164.188 196.666Z" fill="black"/>
<path d="M162.243 98.5273C162.734 99.1986 163.224 99.5601 163.224 99.9216C163.224 100.231 162.682 100.825 162.398 100.799C162.037 100.774 161.469 100.335 161.391 99.9991C161.314 99.6892 161.779 99.2503 162.243 98.5273Z" fill="black"/>
<path d="M141.177 23.9318C140.712 23.3121 140.196 22.8474 140.273 22.6666C140.48 22.2019 140.971 21.8404 141.358 21.4531C141.616 21.7888 142.132 22.1503 142.107 22.4601C142.081 22.8474 141.642 23.2347 141.177 23.9318Z" fill="black"/>
<path d="M155.688 212.781C155.017 213.169 154.552 213.608 154.319 213.504C153.906 213.324 153.622 212.833 153.312 212.472C153.648 212.213 154.035 211.749 154.345 211.774C154.707 211.826 155.042 212.291 155.688 212.781Z" fill="black"/>
<path d="M167.8 79.4732C167.077 79.9379 166.69 80.351 166.277 80.3769C165.993 80.3769 165.373 79.783 165.425 79.5765C165.528 79.1892 165.967 78.6728 166.303 78.6211C166.664 78.5695 167.077 79.0342 167.8 79.4732Z" fill="black"/>
<path d="M166.431 62.043C166.87 62.5852 167.412 63.0241 167.334 63.2307C167.205 63.618 166.689 63.8761 166.353 64.186C166.043 63.8503 165.579 63.5405 165.527 63.1532C165.475 62.895 165.992 62.5335 166.431 62.043Z" fill="black"/>
<path d="M43.2393 216.238C43.7298 216.755 44.0397 217.09 44.3495 217.426C43.988 217.736 43.6524 218.278 43.2909 218.278C42.9552 218.278 42.4647 217.787 42.3356 217.4C42.2581 217.194 42.8003 216.78 43.2393 216.238Z" fill="black"/>
<path d="M171.336 203.02C171.775 203.639 172.239 204.001 172.239 204.388C172.239 204.698 171.568 205.317 171.439 205.266C171.026 205.085 170.561 204.698 170.406 204.285C170.329 204.078 170.845 203.613 171.336 203.02Z" fill="black"/>
<path d="M27.606 217.454C26.8573 217.918 26.3925 218.435 26.0827 218.357C25.6954 218.254 25.4372 217.66 25.1016 217.273C25.4372 217.04 25.7729 216.602 26.1085 216.602C26.4958 216.627 26.8831 217.015 27.606 217.454Z" fill="black"/>
<path d="M32.5346 69.9453C33.0252 70.6424 33.49 71.0297 33.4641 71.3912C33.4383 71.7268 32.8703 72.3207 32.6121 72.2691C32.2248 72.2174 31.6826 71.7527 31.6051 71.3912C31.5535 71.0814 32.0699 70.6683 32.5346 69.9453Z" fill="black"/>
<path d="M37.3906 180.738C38.0103 180.273 38.4234 179.757 38.6558 179.808C39.0947 179.912 39.4045 180.402 39.7918 180.712C39.5078 181.022 39.198 181.616 38.9398 181.59C38.5267 181.564 38.1136 181.151 37.3906 180.738Z" fill="black"/>
<path d="M31.7888 172.736C31.0658 173.123 30.6269 173.562 30.2913 173.511C29.9298 173.433 29.6458 172.891 29.3359 172.555C29.6974 172.271 30.0331 171.755 30.3945 171.755C30.756 171.729 31.1175 172.22 31.7888 172.736Z" fill="black"/>
<path d="M176.448 185.85C176.009 185.178 175.596 184.791 175.57 184.429C175.57 184.12 176.138 183.526 176.345 183.552C176.758 183.655 177.326 184.042 177.378 184.404C177.455 184.713 176.939 185.152 176.448 185.85Z" fill="black"/>
<path d="M170.509 82.1055C171 82.8026 171.516 83.1899 171.465 83.4997C171.387 83.8612 170.897 84.3259 170.509 84.4034C170.277 84.455 169.683 83.887 169.657 83.5772C169.632 83.2415 170.07 82.8284 170.509 82.1055Z" fill="black"/>
<path d="M162.194 60.651C161.755 60.0055 161.265 59.5924 161.316 59.2826C161.368 58.9211 161.91 58.3789 162.22 58.3789C162.556 58.3789 163.124 58.9211 163.149 59.2568C163.175 59.5666 162.685 59.9797 162.194 60.651Z" fill="black"/>
<path d="M159.387 71.2624C158.639 71.753 158.277 72.1919 157.864 72.2177C157.554 72.2436 157.218 71.753 156.883 71.4948C157.193 71.1592 157.451 70.6169 157.812 70.5395C158.174 70.4362 158.613 70.8493 159.387 71.2624Z" fill="black"/>
<path d="M43.0355 208.031C43.5777 208.599 44.0166 208.909 44.1715 209.348C44.2232 209.503 43.5519 210.2 43.3195 210.148C42.8806 210.045 42.4416 209.632 42.1834 209.219C42.1318 209.116 42.6224 208.625 43.0355 208.031Z" fill="black"/>
<path d="M176.809 177.639C176.37 176.942 175.905 176.554 175.957 176.193C175.983 175.857 176.577 175.315 176.887 175.367C177.248 175.418 177.764 175.935 177.816 176.296C177.816 176.606 177.3 176.993 176.809 177.639Z" fill="black"/>
<path d="M44.567 176.734C43.7924 177.121 43.3793 177.508 42.9662 177.482C42.6563 177.457 42.3723 176.94 42.0625 176.656C42.424 176.398 42.7596 175.959 43.1469 175.907C43.4826 175.882 43.8699 176.295 44.567 176.734Z" fill="black"/>
<path d="M167.852 55.1996C167.206 55.6385 166.819 56.0774 166.432 56.1032C166.122 56.1291 165.812 55.6127 165.477 55.3287C165.812 54.993 166.07 54.4766 166.458 54.3992C166.742 54.3217 167.181 54.7864 167.852 55.1996Z" fill="black"/>
<path d="M156.588 180.043C155.839 180.534 155.452 180.947 155.091 180.973C154.781 180.973 154.445 180.482 154.109 180.224C154.419 179.888 154.677 179.32 155.039 179.243C155.349 179.165 155.813 179.63 156.588 180.043Z" fill="black"/>
<path d="M163.568 67.2344C162.923 67.6991 162.51 68.1897 162.148 68.1639C161.813 68.138 161.529 67.5442 161.219 67.1827C161.58 66.8987 161.89 66.434 162.277 66.3565C162.587 66.3307 162.949 66.7954 163.568 67.2344Z" fill="black"/>
<path d="M34.5545 194.137C34.1156 193.594 33.625 193.259 33.625 192.949C33.625 192.639 34.1414 192.045 34.3738 192.071C34.7869 192.123 35.1483 192.536 35.5615 192.794C35.3033 193.156 35.0192 193.543 34.5545 194.137Z" fill="black"/>
<path d="M69.8885 209.371C69.243 209.836 68.8815 210.3 68.52 210.326C68.236 210.326 67.6938 209.758 67.7196 209.448C67.7455 209.113 68.236 208.648 68.5717 208.57C68.8557 208.519 69.243 208.983 69.8885 209.371Z" fill="black"/>
<path d="M180.377 100.1C179.68 100.565 179.241 101.055 178.931 101.004C178.57 100.952 178.156 100.384 178.079 99.9967C178.053 99.7644 178.647 99.1963 178.957 99.1963C179.344 99.1705 179.706 99.6353 180.377 100.1Z" fill="black"/>
<path d="M158.508 215.488C158.972 216.082 159.463 216.469 159.411 216.702C159.308 217.089 158.843 217.554 158.482 217.605C158.224 217.657 157.578 217.115 157.578 216.831C157.604 216.469 158.069 216.108 158.508 215.488Z" fill="black"/>
<path d="M40.2779 172.549C39.5808 173.066 39.2193 173.582 38.8578 173.556C38.4706 173.53 38.1349 173.014 37.7734 172.704C38.0833 172.368 38.3673 171.826 38.7288 171.775C39.0902 171.697 39.5292 172.136 40.2779 172.549Z" fill="black"/>
<path d="M151.041 55.2023C150.292 55.6155 149.879 56.0286 149.415 56.0286C149.156 56.0544 148.847 55.4605 148.562 55.1507C148.95 54.8409 149.285 54.3503 149.724 54.247C150.008 54.2212 150.396 54.7376 151.041 55.2023Z" fill="black"/>
<path d="M171.209 214.042C170.744 213.448 170.202 213.087 170.227 212.726C170.227 212.416 170.873 211.874 171.183 211.899C171.518 211.925 172.009 212.442 172.086 212.829C172.164 213.087 171.648 213.474 171.209 214.042Z" fill="black"/>
<path d="M170.556 57.9102C171.021 58.5298 171.537 58.9171 171.486 59.1753C171.408 59.5626 170.969 60.0273 170.582 60.1306C170.35 60.1823 169.704 59.6142 169.704 59.3302C169.678 58.9429 170.117 58.5556 170.556 57.9102Z" fill="black"/>
<path d="M44.588 168.501C43.9167 168.992 43.5036 169.508 43.2454 169.431C42.8065 169.327 42.4708 168.863 42.1094 168.527C42.3676 168.243 42.6516 167.727 42.884 167.727C43.3229 167.804 43.7618 168.14 44.588 168.501Z" fill="black"/>
<path d="M40.8726 54.0391C41.3115 54.7104 41.8021 55.1493 41.7246 55.4591C41.6472 55.7948 41.105 56.2337 40.7177 56.2853C40.4595 56.3112 39.8656 55.7431 39.8914 55.4591C39.9173 55.046 40.382 54.7104 40.8726 54.0391Z" fill="black"/>
<path d="M31.6264 188.712C31.0067 189.202 30.6453 189.719 30.3871 189.667C29.9998 189.59 29.535 189.176 29.4059 188.789C29.3285 188.583 29.8707 187.911 30.1805 187.911C30.542 187.885 30.9293 188.299 31.6264 188.712Z" fill="black"/>
<path d="M142.623 55.0481C141.978 55.5386 141.616 56.0034 141.229 56.0292C140.919 56.0292 140.583 55.5128 140.273 55.2288C140.583 54.8932 140.867 54.4026 141.255 54.2993C141.513 54.1702 141.952 54.635 142.623 55.0481Z" fill="black"/>
<path d="M131.758 27.6792C130.622 28.0923 129.718 28.3505 128.711 27.7567C129.563 26.6464 130.002 26.6464 131.758 27.6792Z" fill="black"/>
<path d="M155.893 196.407C155.196 196.846 154.809 197.285 154.499 197.233C154.112 197.155 153.828 196.665 153.492 196.355C153.802 196.071 154.112 195.581 154.448 195.555C154.809 195.555 155.196 195.968 155.893 196.407Z" fill="black"/>
<path d="M177.253 200.619C176.53 201.006 176.091 201.419 175.833 201.316C175.445 201.187 175.161 200.696 174.852 200.361C175.187 200.102 175.523 199.612 175.833 199.638C176.194 199.664 176.556 200.128 177.253 200.619Z" fill="black"/>
<path d="M175.499 207.41C175.989 208.03 176.454 208.365 176.48 208.753C176.506 209.011 175.86 209.605 175.602 209.553C175.215 209.502 174.75 209.037 174.621 208.675C174.569 208.443 175.06 208.03 175.499 207.41Z" fill="black"/>
<path d="M171.98 67.2622C171.309 67.7012 170.921 68.1143 170.534 68.1143C170.224 68.1143 169.94 67.5721 169.656 67.2622C169.992 66.9524 170.302 66.4877 170.689 66.4102C170.947 66.3586 171.335 66.8233 171.98 67.2622Z" fill="black"/>
<path d="M45.3124 52.6739C44.8476 52.1317 44.3571 51.8219 44.3054 51.4346C44.2796 51.2022 44.9251 50.5568 45.1058 50.6084C45.5448 50.7375 45.8804 51.1764 46.2677 51.4863C46.0353 51.8477 45.7513 52.1576 45.3124 52.6739Z" fill="black"/>
<path d="M124.398 27.913C123.701 28.2745 123.314 28.6618 122.978 28.6102C122.591 28.5585 122.281 28.1196 121.945 27.8614C122.307 27.5516 122.642 27.0868 123.03 27.0352C123.34 26.9836 123.727 27.4483 124.398 27.913Z" fill="black"/>
<path d="M34.6984 161.762C34.2078 161.09 33.7689 160.755 33.743 160.393C33.7172 160.161 34.2852 159.645 34.5951 159.645C34.9307 159.645 35.5504 160.083 35.5504 160.342C35.5762 160.703 35.1631 161.09 34.6984 161.762Z" fill="black"/>
<path d="M34.5435 175.363C35.0082 175.983 35.2922 176.344 35.5763 176.732C35.2148 176.99 34.8791 177.455 34.5177 177.455C34.2337 177.455 33.7173 176.938 33.6914 176.603C33.6398 176.319 34.1046 175.957 34.5435 175.363Z" fill="black"/>
<path d="M35.9746 201.184C35.3033 201.572 34.8643 201.985 34.5803 201.907C34.2188 201.804 33.9348 201.288 33.625 200.978C33.9348 200.72 34.2705 200.229 34.5545 200.255C34.9676 200.307 35.3291 200.745 35.9746 201.184Z" fill="black"/>
<path d="M166.633 45.8555C167.046 46.4493 167.562 46.8882 167.485 47.0948C167.33 47.4821 166.865 47.8952 166.452 47.9727C166.22 48.0243 165.6 47.4046 165.651 47.1464C165.677 46.7591 166.142 46.4235 166.633 45.8555Z" fill="black"/>
<path d="M166.425 72.6286C165.961 72.0606 165.444 71.6991 165.496 71.4409C165.573 71.0794 166.012 70.5631 166.374 70.5114C166.658 70.4598 167.303 70.9762 167.303 71.2602C167.303 71.6216 166.864 72.0089 166.425 72.6286Z" fill="black"/>
<path d="M178.642 167.957C178.048 168.448 177.686 168.938 177.402 168.912C177.015 168.861 176.679 168.396 176.344 168.086C176.628 167.776 176.886 167.208 177.17 167.208C177.531 167.182 177.945 167.57 178.642 167.957Z" fill="black"/>
<path d="M175.986 191.168C176.503 191.762 176.967 192.097 177.019 192.485C177.045 192.717 176.425 193.337 176.193 193.285C175.806 193.208 175.341 192.795 175.212 192.407C175.134 192.201 175.599 191.788 175.986 191.168Z" fill="black"/>
<path d="M31.6533 197.001C30.9562 197.414 30.5173 197.879 30.2849 197.776C29.9234 197.647 29.5619 197.182 29.4329 196.769C29.3812 196.614 29.9751 195.994 30.2333 196.046C30.6205 196.098 30.9562 196.511 31.6533 197.001Z" fill="black"/>
<path d="M38.8578 157.678C38.4189 157.084 37.9283 156.723 37.9541 156.413C37.9799 156.129 38.5479 155.664 38.8578 155.664C39.1676 155.664 39.6582 156.155 39.7098 156.49C39.7615 156.774 39.2967 157.11 38.8578 157.678Z" fill="black"/>
<path d="M163.769 42.9613C163.149 43.426 162.788 43.8908 162.401 43.9166C162.117 43.9424 161.781 43.426 161.445 43.142C161.755 42.8064 162.013 42.29 162.401 42.1609C162.659 42.0834 163.098 42.5482 163.769 42.9613Z" fill="black"/>
<path d="M184.627 112.499C183.981 112.964 183.62 113.429 183.258 113.455C182.974 113.48 182.406 112.912 182.406 112.628C182.406 112.319 182.897 111.828 183.258 111.75C183.568 111.699 183.955 112.112 184.627 112.499Z" fill="black"/>
<path d="M168.343 217.296C167.723 217.632 167.31 218.019 167.026 217.967C166.691 217.89 166.432 217.374 166.148 217.064C166.51 216.754 166.846 216.289 167.233 216.238C167.491 216.186 167.827 216.78 168.343 217.296Z" fill="black"/>
<path d="M162.146 74.0039C162.611 74.5978 163.101 74.9592 163.05 75.2432C162.998 75.5789 162.559 76.0953 162.223 76.1469C161.965 76.1986 161.423 75.6822 161.371 75.3465C161.32 75.0625 161.759 74.6752 162.146 74.0039Z" fill="black"/>
<path d="M158.013 86.3438C158.452 86.8343 158.943 87.2216 158.865 87.3765C158.684 87.7896 158.323 88.2544 157.936 88.3577C157.703 88.4351 157.006 87.8413 157.032 87.6089C157.109 87.2216 157.548 86.886 158.013 86.3438Z" fill="black"/>
<path d="M173.275 162.664C173.688 163.258 174.152 163.619 174.101 163.903C174.049 164.213 173.507 164.704 173.223 164.678C172.887 164.652 172.423 164.162 172.371 163.826C172.319 163.594 172.81 163.232 173.275 162.664Z" fill="black"/>
<path d="M31.6533 180.762C30.9562 181.175 30.5173 181.64 30.2849 181.563C29.8976 181.434 29.5619 180.943 29.4329 180.556C29.3812 180.401 29.9751 179.807 30.2333 179.833C30.6205 179.859 30.9562 180.272 31.6533 180.762Z" fill="black"/>
<path d="M128.553 24.0609C127.933 24.474 127.572 24.8871 127.313 24.8355C126.9 24.7322 126.565 24.3191 126.203 24.0609C126.539 23.7769 126.849 23.3379 127.21 23.2863C127.546 23.2605 127.907 23.6736 128.553 24.0609Z" fill="black"/>
<path d="M35.9746 184.839C35.2258 185.226 34.8127 185.639 34.4254 185.588C34.1414 185.562 33.8832 184.994 33.625 184.658C33.9607 184.4 34.2705 183.961 34.6061 183.961C34.9418 183.961 35.3033 184.374 35.9746 184.839Z" fill="black"/>
<path d="M178.846 159.849C178.252 160.236 177.865 160.675 177.529 160.624C177.194 160.572 176.729 160.081 176.703 159.746C176.703 159.462 177.245 158.945 177.529 158.945C177.891 158.945 178.252 159.384 178.846 159.849Z" fill="black"/>
<path d="M26.2039 167.258C26.617 167.852 27.0043 168.213 27.056 168.6C27.0818 168.807 26.4105 169.375 26.2814 169.298C25.8941 169.117 25.5068 168.73 25.3519 168.342C25.2744 168.213 25.765 167.8 26.2039 167.258Z" fill="black"/>
<path d="M30.203 146.988C30.6936 147.685 31.1325 148.021 31.1842 148.434C31.21 148.692 30.6162 149.312 30.4871 149.26C30.0739 149.105 29.6092 148.77 29.4543 148.383C29.3768 148.15 29.8158 147.685 30.203 146.988Z" fill="black"/>
<path d="M68.1573 15.5965C67.5376 16.0096 67.1762 16.4485 66.7889 16.4743C66.5049 16.5001 66.1692 15.9837 65.8594 15.7256C66.2467 15.3899 66.5823 14.9768 67.0212 14.7702C67.202 14.6928 67.5893 15.1575 68.1573 15.5965Z" fill="black"/>
<path d="M168.633 166.793C169.098 167.387 169.64 167.852 169.563 168.006C169.382 168.394 168.943 168.755 168.53 168.884C168.323 168.936 167.678 168.368 167.729 168.161C167.781 167.774 168.194 167.438 168.633 166.793Z" fill="black"/>
<path d="M38.1026 59.359C37.4055 59.7721 37.0182 60.1852 36.7084 60.1594C36.3727 60.1078 36.1145 59.5914 35.8047 59.2815C36.1145 59.0233 36.4244 58.5844 36.7342 58.5586C37.0698 58.5586 37.4313 58.9459 38.1026 59.359Z" fill="black"/>
<path d="M171.715 195.039C172.102 195.581 172.541 195.943 172.516 196.278C172.516 196.562 171.896 197.053 171.638 197.001C171.302 196.924 170.915 196.433 170.863 196.072C170.811 195.865 171.302 195.53 171.715 195.039Z" fill="black"/>
<path d="M31.6267 156.44C30.9812 156.827 30.5681 157.24 30.2841 157.189C29.9485 157.111 29.6903 156.621 29.4062 156.311C29.7161 156.027 30.0259 155.536 30.3616 155.536C30.6714 155.51 31.0071 155.975 31.6267 156.44Z" fill="black"/>
<path d="M176.088 87.7843C175.442 88.1716 175.055 88.5847 174.719 88.533C174.409 88.4814 174.151 87.965 173.867 87.6552C174.151 87.397 174.461 86.9322 174.745 86.9581C175.107 86.9581 175.468 87.3712 176.088 87.7843Z" fill="black"/>
<path d="M34.5888 169.74C34.1499 169.172 33.7109 168.837 33.7109 168.527C33.7109 168.243 34.2531 167.727 34.5113 167.727C34.847 167.752 35.3634 168.191 35.4408 168.501C35.4925 168.811 35.0019 169.172 34.5888 169.74Z" fill="black"/>
<path d="M23.9083 104.929C23.4952 104.309 23.0304 103.947 23.0821 103.638C23.1079 103.328 23.6243 102.915 23.9599 102.863C24.1923 102.811 24.7603 103.328 24.7345 103.586C24.7087 103.947 24.3214 104.283 23.9083 104.929Z" fill="black"/>
<path d="M61.5293 192.976C60.858 193.389 60.4707 193.802 60.1866 193.75C59.7994 193.647 59.5153 193.182 59.1797 192.873C59.5153 192.614 59.8252 192.175 60.1866 192.15C60.5223 192.124 60.858 192.537 61.5293 192.976Z" fill="black"/>
<path d="M138.287 50.8364C137.694 51.327 137.358 51.8175 137.022 51.8175C136.712 51.7917 136.273 51.327 136.144 50.9655C136.093 50.7848 136.583 50.1909 136.867 50.1651C137.229 50.1135 137.616 50.4749 138.287 50.8364Z" fill="black"/>
<path d="M44.3845 160.447C43.7649 160.86 43.4034 161.273 43.1194 161.222C42.7579 161.17 42.4739 160.731 42.1641 160.447C42.4481 160.189 42.7063 159.75 42.9903 159.75C43.3518 159.75 43.7132 160.086 44.3845 160.447Z" fill="black"/>
<path d="M26.1304 210.43C25.6914 209.836 25.33 209.526 25.175 209.113C25.1234 208.984 25.7173 208.39 25.8722 208.468C26.2853 208.623 26.6984 208.933 26.9566 209.294C27.034 209.372 26.5435 209.862 26.1304 210.43Z" fill="black"/>
<path d="M181.28 196.436C180.763 196.771 180.35 197.21 180.118 197.133C179.782 197.029 179.55 196.565 179.266 196.255C179.575 196.022 179.885 195.609 180.169 195.609C180.505 195.635 180.789 196.048 181.28 196.436Z" fill="black"/>
<path d="M27.4199 201.031C26.6711 201.419 26.258 201.806 25.9482 201.728C25.6125 201.651 25.3543 201.16 25.0703 200.851C25.3543 200.592 25.6642 200.128 25.9224 200.153C26.3096 200.205 26.6969 200.566 27.4199 201.031Z" fill="black"/>
<path d="M33.8455 79.4195C33.2516 79.8326 32.8902 80.2199 32.6061 80.1941C32.2447 80.1424 31.9348 79.7293 31.625 79.4711C31.909 79.1871 32.1672 78.7224 32.4512 78.6965C32.8385 78.6707 33.2 79.058 33.8455 79.4195Z" fill="black"/>
<path d="M28.4278 82.2891C28.8409 82.8313 29.3315 83.1927 29.254 83.4251C29.1507 83.7866 28.7634 84.1997 28.402 84.2772C28.1954 84.3288 27.6274 83.7866 27.6016 83.5026C27.6274 83.1927 28.0405 82.8313 28.4278 82.2891Z" fill="black"/>
<path d="M65.5293 221.632C64.8063 221.632 64.0575 221.632 63.3346 221.632C63.283 221.528 63.2313 221.399 63.1797 221.296C63.5928 221.038 64.0059 220.625 64.419 220.599C64.8579 220.573 65.2969 220.96 65.7358 221.167C65.6583 221.322 65.6067 221.477 65.5293 221.632Z" fill="black"/>
<path d="M34.5689 151.25C34.9821 151.741 35.2661 152.05 35.5243 152.386C35.1886 152.67 34.853 153.161 34.5173 153.161C34.2075 153.161 33.7944 152.67 33.6911 152.309C33.6394 152.102 34.1558 151.741 34.5689 151.25Z" fill="black"/>
<path d="M27.4158 160.368C26.8736 160.781 26.4863 161.22 26.2539 161.168C25.8925 161.065 25.531 160.652 25.4019 160.316C25.3502 160.161 25.8925 159.541 26.1248 159.567C26.5121 159.567 26.8478 159.98 27.4158 160.368Z" fill="black"/>
<path d="M137.442 15.9812C136.9 16.3944 136.59 16.8075 136.28 16.8075C135.945 16.8075 135.609 16.446 135.273 16.2394C135.583 15.9296 135.816 15.4649 136.177 15.3616C136.435 15.2841 136.823 15.6714 137.442 15.9812Z" fill="black"/>
<path d="M98.0632 27.6055C97.7275 27.7862 97.366 28.1218 97.0562 28.0702C96.6947 28.0186 96.3591 27.6313 96.0234 27.3989C96.2816 27.1665 96.5398 26.7018 96.7722 26.7276C97.2111 26.7534 97.6242 27.0374 98.0632 27.2182C98.0632 27.3473 98.0632 27.4764 98.0632 27.6055Z" fill="black"/>
<path d="M106.165 29.0732C105.726 28.5826 105.313 28.2728 105.261 27.9371C105.209 27.7306 105.777 27.1625 105.984 27.1884C106.346 27.24 106.784 27.6015 106.914 27.9113C106.991 28.1178 106.526 28.531 106.165 29.0732Z" fill="black"/>
<path d="M132.995 48.0499C132.582 47.5335 132.117 47.2237 132.117 46.8881C132.117 46.5782 132.634 46.2942 132.892 45.9844C133.202 46.2684 133.641 46.5266 133.718 46.8881C133.795 47.1462 133.357 47.5335 132.995 48.0499Z" fill="black"/>
<path d="M37.8179 67.441C37.2757 67.8025 36.8884 68.2156 36.6302 68.164C36.2946 68.0865 36.0106 67.6218 35.7266 67.3119C36.0364 67.0796 36.3462 66.6406 36.6819 66.6406C36.9659 66.6406 37.3015 67.0537 37.8179 67.441Z" fill="black"/>
<path d="M29.6406 91.5026C29.0984 91.8899 28.7886 92.2771 28.4788 92.2771C28.1689 92.2771 27.8333 91.9157 27.5234 91.6833C27.8075 91.3735 28.0398 90.9087 28.3755 90.8054C28.6595 90.7538 29.0468 91.1411 29.6406 91.5026Z" fill="black"/>
<path d="M159.302 95.7655C158.733 96.127 158.346 96.5659 158.114 96.4884C157.778 96.3594 157.443 95.9462 157.339 95.5848C157.288 95.4299 157.856 94.8618 158.088 94.9135C158.449 94.9651 158.759 95.3524 159.302 95.7655Z" fill="black"/>
<path d="M182.364 180.321C181.719 180.709 181.357 181.096 181.099 181.044C180.763 180.967 180.505 180.528 180.195 180.244C180.479 179.986 180.763 179.547 181.047 179.547C181.409 179.547 181.744 179.908 182.364 180.321Z" fill="black"/>
<path d="M171.901 51.2797C171.281 51.667 170.945 52.0543 170.584 52.0543C170.377 52.0543 169.913 51.4863 169.939 51.2281C169.964 50.9441 170.429 50.5568 170.739 50.5051C171.023 50.4793 171.333 50.8666 171.901 51.2797Z" fill="black"/>
<path d="M180.216 108.542C179.674 108.903 179.235 109.368 179.054 109.29C178.719 109.135 178.435 108.697 178.331 108.309C178.28 108.129 178.848 107.612 179.029 107.664C179.416 107.767 179.7 108.129 180.216 108.542Z" fill="black"/>
<path d="M176.109 79.4957C175.49 79.883 175.128 80.2445 174.844 80.2187C174.534 80.1928 174.276 79.7539 173.992 79.4957C174.25 79.2117 174.534 78.6953 174.793 78.6953C175.128 78.6953 175.49 79.0826 176.109 79.4957Z" fill="black"/>
<path d="M57.0887 221.611C56.2108 221.611 55.4879 221.611 54.6875 221.611C55.4879 220.294 56.2108 220.268 57.0887 221.611Z" fill="black"/>
<path d="M27.3414 176.554C26.825 176.967 26.4635 177.432 26.2311 177.381C25.8697 177.303 25.5857 176.89 25.25 176.606C25.534 176.374 25.7922 175.96 26.102 175.935C26.4119 175.883 26.7475 176.244 27.3414 176.554Z" fill="black"/>
<path d="M23.9103 94.4492C24.3493 94.9398 24.7882 95.2238 24.7882 95.5078C24.7882 95.8176 24.3493 96.2824 24.0394 96.3082C23.7812 96.334 23.2907 95.8951 23.239 95.6111C23.1874 95.3529 23.5747 94.9914 23.9103 94.4492Z" fill="black"/>
<path d="M171.641 91.7375C171.073 92.0989 170.711 92.512 170.35 92.512C170.117 92.512 169.678 91.944 169.704 91.6342C169.73 91.3502 170.221 90.9371 170.53 90.9112C170.789 90.8854 171.098 91.3244 171.641 91.7375Z" fill="black"/>
<path d="M181.683 188.353C181.167 188.714 180.78 189.127 180.547 189.076C180.212 188.998 179.979 188.533 179.695 188.224C179.979 187.991 180.289 187.578 180.573 187.578C180.883 187.578 181.193 187.991 181.683 188.353Z" fill="black"/>
<path d="M50.8383 31.2402C50.2703 31.6533 49.9605 32.0147 49.5732 32.0922C49.3925 32.1438 48.8502 31.5758 48.9019 31.3951C49.031 31.0336 49.3408 30.5947 49.6765 30.4656C49.883 30.3881 50.2961 30.8529 50.8383 31.2402Z" fill="black"/>
<path d="M174.854 72.4523C174.467 71.91 174.053 71.5744 174.079 71.3162C174.131 71.0064 174.544 70.5674 174.828 70.5674C175.112 70.5416 175.68 71.0064 175.654 71.2129C175.654 71.5486 175.267 71.8842 174.854 72.4523Z" fill="black"/>
<path d="M171.076 222.001C170.688 221.614 170.43 221.356 170.172 221.097C170.456 220.839 170.792 220.323 171.05 220.349C171.411 220.4 171.721 220.839 172.031 221.123C171.747 221.356 171.489 221.614 171.076 222.001Z" fill="black"/>
<path d="M184.554 104.286C183.935 104.647 183.599 104.983 183.238 105.008C183.005 105.034 182.515 104.44 182.566 104.337C182.747 103.976 183.083 103.588 183.418 103.485C183.625 103.408 183.986 103.872 184.554 104.286Z" fill="black"/>
<path d="M176.501 217.011C176.01 217.398 175.674 217.811 175.416 217.786C175.106 217.734 174.693 217.321 174.642 217.011C174.616 216.779 175.081 216.262 175.365 216.262C175.649 216.211 175.984 216.624 176.501 217.011Z" fill="black"/>
<path d="M32.5281 64.4963C32.1408 63.9541 31.7018 63.6184 31.7276 63.3344C31.7535 63.0504 32.2182 62.6889 32.5539 62.5856C32.7088 62.534 33.1994 63.0504 33.1994 63.2828C33.2252 63.6184 32.8637 63.9541 32.5281 64.4963Z" fill="black"/>
<path d="M34.3413 208.031C34.7802 208.599 35.1417 208.909 35.2192 209.271C35.2708 209.477 34.7286 210.019 34.5737 209.994C34.2122 209.89 33.7475 209.58 33.6184 209.271C33.5409 209.038 33.9798 208.625 34.3413 208.031Z" fill="black"/>
<path d="M179.034 93.0007C178.646 92.4585 178.233 92.1486 178.259 91.8646C178.285 91.5548 178.698 91.2708 178.93 90.9609C179.214 91.2191 179.679 91.4515 179.731 91.7613C179.756 92.0454 179.369 92.4068 179.034 93.0007Z" fill="black"/>
<path d="M25.9459 183.68C26.359 184.067 26.8754 184.299 26.9013 184.583C26.9271 184.867 26.3849 185.435 26.2041 185.41C25.8427 185.306 25.4812 184.945 25.2746 184.583C25.1972 184.48 25.6361 184.093 25.9459 183.68Z" fill="black"/>
<path d="M25.9502 153.366C25.6403 152.849 25.3047 152.514 25.3047 152.178C25.3047 151.971 25.8469 151.558 26.0534 151.61C26.3891 151.687 26.8539 152.075 26.8539 152.359C26.8539 152.643 26.3891 152.927 25.9502 153.366Z" fill="black"/>
<path d="M28.5542 106.531C28.7092 106.919 29.019 107.332 28.9674 107.719C28.9415 108.003 28.4768 108.442 28.1928 108.442C27.9088 108.442 27.4957 108.055 27.3924 107.771C27.3149 107.564 27.728 107.228 27.9088 106.944C28.1411 106.789 28.3477 106.66 28.5542 106.531Z" fill="black"/>
<path d="M27.2921 192.746C26.7757 193.108 26.4401 193.521 26.2335 193.469C25.872 193.392 25.5622 193.004 25.2266 192.772C25.4848 192.54 25.743 192.126 26.0011 192.126C26.3368 192.101 26.6724 192.436 27.2921 192.746Z" fill="black"/>
<path d="M181.636 162.973C182.049 163.437 182.463 163.696 182.514 164.005C182.54 164.212 182.049 164.728 181.817 164.703C181.481 164.677 181.172 164.315 180.836 164.083C181.042 163.799 181.275 163.489 181.636 162.973Z" fill="black"/>
<path d="M172.188 187.293C172.601 187.809 173.04 188.119 173.014 188.403C173.014 188.687 172.55 188.971 172.292 189.255C172.008 188.997 171.569 188.79 171.517 188.506C171.491 188.197 171.853 187.861 172.188 187.293Z" fill="black"/>
<path d="M153.804 25.6875C154.139 26.2039 154.501 26.5137 154.475 26.8494C154.475 27.0817 153.959 27.5723 153.778 27.5207C153.442 27.4432 153.003 27.0817 152.978 26.7719C152.952 26.5137 153.417 26.1781 153.804 25.6875Z" fill="black"/>
<path d="M92.5843 7.07422C92.9974 7.53897 93.3847 7.79716 93.4364 8.10699C93.4622 8.28773 92.9458 8.80412 92.7134 8.7783C92.4036 8.72666 92.0163 8.39101 91.8872 8.08118C91.8356 7.92626 92.2487 7.53897 92.5843 7.07422Z" fill="black"/>
<path d="M180.171 83.425C179.707 83.8123 179.423 84.2512 179.139 84.2512C178.855 84.2512 178.597 83.7865 178.312 83.5283C178.597 83.2701 178.829 82.857 179.139 82.7795C179.345 82.7021 179.707 83.0894 180.171 83.425Z" fill="black"/>
<path d="M93.7748 23.6498C93.1809 23.9596 92.8711 24.2436 92.5871 24.2178C92.3031 24.192 92.0707 23.8047 91.8125 23.5981C92.0449 23.3657 92.3031 22.901 92.5354 22.9268C92.8711 22.9268 93.2067 23.2883 93.7748 23.6498Z" fill="black"/>
<path d="M28.3503 98.6016C28.6602 99.0921 29.0475 99.4536 28.9958 99.6343C28.8667 99.9442 28.4536 100.125 28.1696 100.357C27.963 100.099 27.6016 99.8151 27.6016 99.5569C27.6016 99.2987 27.963 99.0405 28.3503 98.6016Z" fill="black"/>
<path d="M31.3862 221.632C30.7408 221.632 30.1211 221.632 29.0625 221.632C29.6047 221.116 29.8887 220.651 30.1211 220.677C30.5858 220.703 31.0506 221.012 31.5153 221.193C31.4637 221.322 31.4379 221.477 31.3862 221.632Z" fill="black"/>
<path d="M182.515 172.191C181.972 172.552 181.663 172.914 181.43 172.862C181.12 172.785 180.862 172.397 180.578 172.165C180.836 171.933 181.069 171.52 181.327 171.52C181.637 171.52 181.947 171.855 182.515 172.191Z" fill="black"/>
<path d="M132.837 12.9618C132.165 13.2458 131.83 13.5298 131.571 13.4782C131.262 13.4007 131.055 13.0134 130.797 12.781C131.029 12.6003 131.313 12.2647 131.52 12.2905C131.855 12.3163 132.191 12.6003 132.837 12.9618Z" fill="black"/>
<path d="M102.416 8.05725C101.874 8.36708 101.59 8.70273 101.306 8.67691C101.022 8.65109 100.789 8.2638 100.531 8.05725C100.815 7.79905 101.073 7.41176 101.383 7.36012C101.616 7.30849 101.925 7.69578 102.416 8.05725Z" fill="black"/>
<path d="M176.087 63.1555C175.519 63.5428 175.235 63.8784 174.925 63.9043C174.667 63.9043 174.409 63.517 174.125 63.3104C174.357 63.0264 174.564 62.5616 174.874 62.51C175.132 62.4325 175.493 62.8198 176.087 63.1555Z" fill="black"/>
<path d="M167.383 87.6875C166.867 87.9715 166.557 88.2813 166.299 88.2555C166.04 88.2039 165.834 87.8166 165.602 87.5584C165.86 87.326 166.118 86.9387 166.376 86.9387C166.634 86.9129 166.893 87.3002 167.383 87.6875Z" fill="black"/>
<path d="M29.4324 75.2376C29.0192 75.6249 28.7352 76.0638 28.5287 76.038C28.193 76.0122 27.909 75.6249 27.625 75.3925C27.8832 75.1343 28.1156 74.7212 28.4254 74.618C28.632 74.5663 28.9676 74.9536 29.4324 75.2376Z" fill="black"/>
<path d="M174.893 105.11C174.558 104.646 174.248 104.387 174.196 104.103C174.17 103.923 174.661 103.484 174.79 103.535C175.1 103.639 175.436 103.923 175.565 104.233C175.591 104.336 175.203 104.672 174.893 105.11Z" fill="black"/>
<path d="M146.517 66.9778C146.026 67.365 145.768 67.7523 145.51 67.7523C145.251 67.7523 144.838 67.3392 144.812 67.1068C144.812 66.8745 145.2 66.4614 145.458 66.4097C145.716 66.3323 146.026 66.6679 146.517 66.9778Z" fill="black"/>
<path d="M178.951 76.3228C178.641 75.8322 178.305 75.4966 178.357 75.2642C178.408 75.006 178.847 74.6445 179.106 74.6445C179.338 74.6445 179.699 75.1093 179.725 75.3675C179.699 75.6257 179.312 75.8839 178.951 76.3228Z" fill="black"/>
<path d="M128.814 41.7539C129.175 42.2187 129.537 42.5027 129.537 42.7609C129.537 43.0191 129.175 43.2772 128.969 43.5354C128.71 43.3031 128.297 43.0965 128.246 42.8125C128.168 42.5801 128.504 42.2445 128.814 41.7539Z" fill="black"/>
<path d="M36.8432 50.375C37.1788 50.8914 37.5661 51.2012 37.5145 51.4594C37.4628 51.7176 37.0497 52.0016 36.7399 52.0791C36.585 52.1049 36.1719 51.666 36.1719 51.4594C36.1977 51.1754 36.5333 50.8914 36.8432 50.375Z" fill="black"/>
<path d="M46.7106 35.3727C46.1425 35.7083 45.8585 35.9924 45.5487 35.9924C45.3163 35.9924 45.0839 35.6309 44.8516 35.4243C45.1098 35.192 45.368 34.8563 45.652 34.7789C45.8843 34.753 46.1684 35.0629 46.7106 35.3727Z" fill="black"/>
<path d="M180.585 204.488C180.171 204.798 179.862 205.185 179.707 205.133C179.423 205.03 179.139 204.694 179.087 204.384C179.061 204.23 179.5 203.842 179.733 203.816C179.965 203.816 180.223 204.152 180.585 204.488Z" fill="black"/>
<path d="M22.9784 156.31C22.5911 156.645 22.2812 157.058 22.1521 157.007C21.8681 156.929 21.5841 156.568 21.5325 156.284C21.5067 156.103 21.894 155.69 22.1263 155.664C22.3329 155.664 22.5911 156 22.9784 156.31Z" fill="black"/>
<path d="M191.524 145.98C191.833 146.445 192.169 146.729 192.117 146.936C192.066 147.22 191.678 147.426 191.446 147.659C191.265 147.426 190.93 147.194 190.93 146.936C190.93 146.678 191.214 146.419 191.524 145.98Z" fill="black"/>
<path d="M39.2188 121.765C39.6836 124.889 40.1999 128.039 40.6131 131.163C41.1036 134.778 41.5425 138.419 41.9557 142.033C42.0331 142.653 41.7749 143.324 41.6717 143.97C40.9745 143.841 40.045 143.97 39.6319 143.557C38.5475 142.498 37.4373 141.336 36.7918 139.994C35.3459 137.024 34.5971 133.849 34.7004 130.518C34.7004 130.26 34.6488 129.976 34.752 129.743C36.043 127.006 37.334 124.295 38.625 121.559C38.8315 121.636 39.0381 121.688 39.2188 121.765Z" fill="#BEB5A8"/>
<path d="M165.213 163.28C163.638 163.28 162.477 162.195 162.477 160.672C162.477 159.071 163.69 157.78 165.265 157.754C166.788 157.728 168.157 159.045 168.183 160.569C168.183 162.144 166.918 163.28 165.213 163.28Z" fill="#BEB5A8"/>
<path d="M43.2957 150.528C43.2699 151.535 42.6761 151.999 41.7466 152.025C40.8171 152.025 39.8359 150.967 39.8359 150.063C39.8359 149.056 40.6105 148.385 41.7208 148.436C42.7277 148.488 43.3216 149.263 43.2957 150.528Z" fill="#BEB5A8"/>
<path d="M130.347 112.794C130.469 115.691 130.591 118.374 128.823 120.721C127.786 122.063 126.414 122.52 124.798 121.85C121.749 120.6 120.53 118.099 120.347 115.02C120.255 113.709 120.56 112.367 120.712 110.66C119.523 110.751 118.029 110.568 116.749 111.026C114.218 111.879 111.779 112.977 109.37 114.166C107.785 114.959 106.748 115.05 105.986 113.983C105.132 112.794 105.315 111.148 106.687 110.294C108.395 109.227 110.224 108.343 112.114 107.641C120.316 104.562 128.152 106.147 135.805 109.654C137.055 110.233 138.244 110.873 139.464 111.514C140.714 112.215 141.049 114.441 139.921 115.233C139.372 115.63 138.366 115.843 137.756 115.63C135.653 114.928 133.64 113.953 131.597 113.129C131.231 112.977 130.835 112.916 130.347 112.794Z" fill="black"/>
<path d="M73.6732 115.566C73.4903 116.938 73.3378 118.188 73.1549 119.438C72.8805 121.329 71.4474 123.097 70.0144 123.311C68.3985 123.554 66.2947 122.335 65.3495 120.749C63.6725 118.036 63.3676 115.2 64.3433 112.06C61.4163 111.602 58.7637 112.09 56.233 113.188C55.0744 113.676 53.9767 114.347 52.8486 114.895C51.568 115.536 50.318 115.292 49.7691 114.316C49.1593 113.249 49.4947 111.877 50.6229 111.145C57.1782 106.846 64.1299 105.565 71.5084 108.858C73.0634 109.56 74.4964 110.596 75.8075 111.694C76.3563 112.151 76.8137 113.31 76.5698 113.859C76.2649 114.59 75.2587 115.048 74.5269 115.566C74.344 115.658 74.0086 115.566 73.6732 115.566Z" fill="black"/>
<path d="M79.4688 140.726C79.6822 136.58 80.9932 133.043 82.3043 129.476C83.5544 126.03 84.4081 122.432 85.3838 118.865C85.7192 117.584 86.6034 116.822 87.7315 117.036C88.8291 117.249 89.256 118.316 89.1036 119.658C88.4328 124.993 85.9326 129.75 84.3471 134.811C83.7983 136.58 83.5239 138.44 83.28 140.299C83.097 141.793 83.8593 142.983 85.2313 143.592C86.4204 144.141 87.6705 144.568 88.9206 144.903C90.0792 145.208 90.4756 145.971 90.4451 147.007C90.4146 148.074 89.7133 148.41 88.7072 148.44C85.9021 148.562 83.5544 147.526 81.4506 145.788C79.8041 144.416 79.6212 142.403 79.4688 140.726Z" fill="black"/>
<path d="M95.8738 166.522C93.0077 166.613 90.2942 166.034 87.733 164.845C87.2757 164.631 86.8183 164.387 86.4219 164.082C85.5987 163.442 84.8365 162.68 85.5682 161.521C86.2695 160.424 87.3366 160.546 88.2513 161.033C91.0869 162.527 94.1054 162.924 97.2458 162.68C101.819 162.344 105.478 160.149 108.741 157.131C109.106 156.795 109.442 156.399 109.869 156.094C110.844 155.423 111.881 155.484 112.643 156.277C113.345 157.039 112.887 157.801 112.247 158.533C108.009 163.747 102.429 166.156 95.8738 166.522Z" fill="black"/>
</svg>
