<svg viewBox="0 0 172 207" fill="none" xmlns="http://www.w3.org/2000/svg">
<path d="M43.653 0.00550076C45.8868 -0.114765 48.3868 1.76687 50.4546 2.72642C56.9047 5.71926 63.3812 4.37829 70.1012 3.60331C76.0709 3.054 82.9914 2.61874 88.9319 3.63274C95.5215 4.75744 102.398 9.01193 108.726 10.8866C107.509 8.22164 104.996 5.7913 102.627 4.12093C102.034 3.70204 98.9915 3.38568 100.763 1.36376C101.457 1.358 101.618 1.30234 102.242 0.995687C115.454 4.228 124.636 10.0519 131.736 21.7066C136.658 21.1403 142.563 26.6874 145.182 30.4345C149.075 36.0047 149.505 40.5743 148.575 47.0167C149.92 47.8684 151.217 48.8187 152.18 50.1138C159.952 60.565 160.172 73.9788 159.601 86.4297C159.365 91.5542 159.092 96.5805 158.433 101.616C184.3 109.844 166.539 151.811 145.407 148.099C145.298 148.631 145.176 149.162 145.041 149.688C144.529 151.65 143.349 154.329 142.63 156.347C141.791 158.707 140.808 161.197 139.817 163.492C139.055 165.256 138.016 166.651 137.15 168.243C131.833 178.013 125.072 186.194 116.294 193.032C113.052 195.559 112.013 196.555 108.359 198.698C103.12 201.599 98.1573 203.933 92.3306 205.43C85.2951 207.205 77.9645 207.481 70.8159 206.236C70.0422 206.105 68.4146 206.075 67.8618 205.649C67.0783 204.915 66.2789 205.365 65.3253 205.089C39.8362 197.69 22.8927 175.881 16.8312 151.423C6.02503 146.28 0.842231 135.562 0.0475369 124.007C-0.427763 117.098 2.62604 107.761 10.793 107.444C10.7929 105.131 10.362 102.738 10.3789 100.607C10.4219 95.1665 10.3275 90.1333 9.95953 84.7164C9.46027 77.3679 10.6562 69.6686 12.9618 62.7031C12.2317 63.7136 11.5981 64.6231 10.2114 64.3992C8.63918 63.2223 10.3127 62.601 9.77708 61.3386C9.35608 60.4459 9.76949 59.6213 10.0802 58.7284C11.5465 54.515 14.5334 49.3242 17.5381 46.0529C11.5133 41.1437 8.47296 36.0253 7.72786 28.1947C7.64778 27.3527 7.85404 25.2105 8.50739 24.7598C10.3584 23.4826 11.4004 26.2862 12.3653 27.3372C14.6972 29.2314 18.4672 30.2868 21.3971 30.3102L21.6477 30.3111C18.4749 26.2735 15.3078 19.5145 16.8279 14.1636C17.2916 12.5309 18.7738 11.6983 20.2288 11.0733C22.7618 12.2832 24.9645 13.4891 27.6892 14.2862C32.7665 15.7715 37.7191 14.398 42.8595 14.2032C42.49 13.3941 42.1333 12.5791 41.7897 11.7585C40.1766 7.86038 38.4441 1.89275 43.653 0.00550076Z" fill="black"/>
<path d="M43.8871 18.649C45.1498 18.6449 45.9867 18.4701 46.9837 19.1953C47.3072 19.6897 47.2724 19.8731 47.3113 20.4576C47.8864 21.0422 48.7055 20.9112 49.3547 20.51C50.2709 19.3292 49.4636 18.4673 49.8893 17.5716C50.6467 17.8079 50.8028 18.3058 51.6393 17.9276C52.9178 17.3493 52.4431 15.6043 51.1813 15.5124C50.3426 15.4513 50.0393 16.1291 49.9172 16.8135L49.8704 17.063L49.8399 17.2403C49.5003 16.7468 49.6241 16.7249 49.473 16.1477C49.4729 16.1471 48.9797 15.6137 48.9371 15.5673C48.9457 15.4605 48.9542 15.3538 48.9627 15.247C49.4805 14.6616 49.6961 14.6499 49.8088 13.9919C49.6075 13.3504 49.6373 13.364 49.1915 12.8784C48.5528 12.6501 48.448 12.7134 47.7673 13.0367C47.6402 13.0972 47.5137 13.1591 47.3877 13.2222C46.9716 12.9375 47.004 12.9535 46.7777 12.4971C46.7511 10.8454 47.0829 10.7969 45.4518 9.86978C45.0863 9.24737 44.729 7.37696 44.6773 6.6135C45.1419 6.92911 45.5117 6.9652 46.0473 6.87678C46.4588 6.53692 46.4711 6.4667 46.7542 6.02734L48.3794 6.97506L48.4264 7.17586C47.8506 7.33844 47.7224 7.34921 47.3251 7.79448C46.7943 9.08965 48.0459 10.0045 49.2093 9.61363C49.8802 8.7058 49.5073 8.0115 48.9891 7.15007C50.0566 7.57472 51.3941 8.04259 52.4187 8.48392C52.8981 8.69048 52.9281 10.28 54.5013 9.88571C54.832 9.50716 54.927 9.38447 55.2029 8.96529C56.1039 8.66743 57.7472 9.27331 58.5673 9.66474C59.4278 10.0753 59.6983 10.1543 60.3065 9.35141C61.2967 9.29438 62.4435 9.26451 63.4293 9.30561C63.9862 9.32881 64.2721 10.0939 64.7947 9.91558C65.9456 9.52248 67.8303 8.42583 69.135 8.82849L69.2633 8.97863C69.6126 9.38007 69.7223 9.5927 70.2326 9.72222C71.2137 9.61075 71.1572 9.44998 71.6263 8.58553C72.3937 8.34591 73.7341 8.2816 74.5895 8.20911C74.8867 8.44206 75.4281 10.5403 76.7432 9.07448C76.8096 8.70367 76.79 8.2537 77.1933 8.09794C77.8701 7.83663 79.8438 7.64024 80.4019 8.0711C80.4762 8.48164 80.4869 8.64331 80.5051 9.06219C80.9737 9.71145 81.4681 9.79122 82.1581 9.42876C82.5509 8.89901 82.5995 8.69184 82.6738 8.00998C87.0916 7.62856 85.5341 9.64578 87.4632 9.58102C87.9364 9.34049 87.9136 9.37052 88.1563 8.89962L88.1411 8.22382C88.9252 7.81996 91.7036 9.50276 92.4452 9.81033C93.2596 10.147 93.8238 9.34276 94.6018 10.2735C94.3606 10.957 94.115 11.4059 94.3819 12.0678C94.9324 12.6289 95.5694 12.8446 96.2215 12.3201C96.4005 11.8629 96.5294 11.5057 96.681 11.0388C97.3953 10.9723 101.061 12.6104 101.989 12.8453C102.594 12.9988 102.261 14.2509 102.737 14.8924C103.944 15.6269 104.256 15.1977 105.05 14.2489C107.215 14.4394 108.015 15.7056 110.917 15.6806L111.139 15.845C110.848 16.3761 110.723 16.5135 110.728 17.1167C111.108 17.9179 111.744 18.0905 112.573 17.9051C113.333 17.3807 113.42 16.7413 112.968 15.9619C112.683 15.8724 112.464 15.8059 112.173 15.7388C111.85 14.8031 113.721 14.7019 113.391 13.4103C113.282 12.9856 112.845 12.2029 112.987 11.8589C113.417 10.8246 113.354 10.0945 112.162 9.75695C111.515 9.57405 110.517 7.7558 110.121 7.13415C112.018 8.22549 113.944 9.31729 115.801 10.466C116.744 11.0498 116.166 12.4258 118.016 12.3905C118.929 12.3731 119.419 13.1057 119.192 13.9637C119.008 14.6589 119.626 14.9893 120.126 15.3632C120.965 15.0864 120.764 15.0233 121.53 15.1663C122.454 16.2147 121.25 18.1216 123.925 17.9429C125.558 19.3529 123.995 19.8593 125.833 20.7377L126.593 21.1015C127.979 23.508 130.39 26.9425 131.551 29.3413C131.165 29.5007 131.3 29.4572 130.873 29.4911C130.525 29.7076 130.345 29.8306 130.219 30.2582C130.104 30.6469 130.152 31.0661 130.355 31.4171C130.921 32.3725 132.655 32.0094 132.749 30.6961C132.591 30.2274 132.603 30.2587 132.269 29.8912C132.972 29.1705 135.124 29.568 135.489 27.9134C135.321 27.316 135.312 27.3441 134.904 26.857C134.561 26.8354 134.494 26.8407 134.15 26.8802C133.839 26.6098 133.871 26.6137 133.763 26.2088L133.897 26.013C135.692 26.1373 143.383 32.6502 142.893 34.721C142.085 34.9807 141.311 35.1392 140.855 35.8852C140.768 36.7189 141.275 37.5541 142.142 37.632C142.761 37.6877 143.436 36.8747 144.047 37.0701C144.546 38.0198 145.129 42.0792 144.883 43.3346C143.597 44.7594 143.548 44.6052 144.71 46.18C144.539 47.0149 143.601 51.1591 143.24 51.558C142.047 51.7318 141.304 51.5563 141.158 53.0998C141.322 53.6271 141.393 53.5914 141.822 53.918L142.067 54.1074L142.25 54.2463C142.414 56.0195 140.38 57.613 141.61 59.0868C142.289 59.4305 142.573 59.2518 143.265 59.0995C146.771 58.3278 145.955 55.6886 147.202 53.8954C147.852 53.9333 148.771 53.6612 149.188 53.8073C149.939 54.9001 148.16 55.7966 150.828 56.6534C151.635 57.5399 152.722 60.808 153.098 62.0446C152.607 62.5308 152.064 62.9869 152.053 63.7127C153.195 65.6074 153.863 62.8777 154.422 67.7661L154.325 67.8888C153.468 67.5717 152.287 67.4449 152.167 68.7458C151.99 70.6622 153.609 69.9932 154.671 69.5862C155.115 70.3476 155.114 74.9972 155.038 76.124C154.911 78.0198 155.403 79.3976 155.335 81.3317C155.006 81.7439 154.29 82.6982 154.892 83.2485C155.569 83.8664 155.273 86.0124 155.24 86.8348L155.124 87.0092C153.941 88.8358 155.408 88.5706 154.977 90.2722C154.733 91.2393 154.938 95.1151 154.181 95.4473C153.562 95.291 153.133 95.0563 152.614 95.2035C151.92 96.1333 152.422 97.6289 153.764 97.4144C154.031 97.1818 154.13 96.9992 154.396 96.9993C154.527 98.053 154.266 99.388 154.207 100.496C153.198 100.355 152.752 100.213 152.138 101.146C151.812 101.22 149.498 101.829 149.372 101.666C148.63 100.709 148.087 100.018 146.953 101.038C146.548 101.403 147.064 102.407 147.164 102.89C145.433 104.027 143.977 102.036 143.88 104.718C142.983 106.145 142.562 105.243 141.522 106.132C140.999 106.578 140.814 107.742 140.333 108.214C140.04 108.1 139.754 108.007 139.446 107.938C138.995 108.224 139.135 108.14 138.873 108.71C138.82 109.549 139.908 110.317 140.069 111.848L140.583 112.146C140.574 112.849 140.125 112.905 140.139 113.691C140.445 114.164 140.241 113.973 140.846 114.198C141.848 113.994 143.557 111.231 144.467 110.321C152.181 102.57 164.632 105.123 166.691 116.445C168.648 127.196 160.125 141.173 149.37 143.715C145.806 144.557 143.935 140.764 142.042 140.935C141.595 141.143 141.284 141.389 141.151 141.898C140.318 145.104 139.872 148.41 138.98 151.623C138.695 152.856 137.853 153.885 137.392 155.07C134.892 161.488 131.707 167.566 127.501 173.073C125.492 175.706 122.659 180.163 119.598 181.775C119.383 181.889 118.996 183.509 118.49 183.73C115.87 184.119 116.686 185.869 115.411 186.756C112.751 186.851 114.008 187.707 113.112 188.371C111.208 189.782 109.167 191.436 107.133 192.627C107.268 191.62 107.459 190.842 106.272 190.478C104.716 190.617 104 192.358 106.255 192.953C105.589 193.42 104.827 193.982 104.143 194.401C103.309 193.435 102.861 193.019 101.633 193.975C101.407 194.149 101.437 194.249 101.343 194.519C101.484 195.1 101.525 195.123 101.818 195.623C100.695 196.999 99.7097 196.131 98.8164 196.606C97.4757 197.317 95.6422 198.913 93.9527 198.822L93.8025 198.59C93.9633 198.036 94.2242 197.433 94.0088 196.941C93.343 196.599 92.4391 196.782 91.9887 197.386C91.9887 198.071 92.5711 198.666 93.0079 199.218C91.9508 199.9 90.5024 198.801 89.3256 199.976C88.5445 200.757 87.0097 200.863 85.9178 200.84C85.6842 200.405 85.1989 198.405 83.9083 199.497C82.9832 200.279 83.3426 201.696 81.3468 201.5C79.5511 201.491 80.267 199.749 79.0021 199.591C78.0398 199.473 77.718 200.188 77.4118 200.985C76.8278 201.506 76.2345 201.376 75.5181 201.361C74.2931 201.333 74.19 201.006 73.7662 199.976C71.9362 198.664 72.8454 201.732 68.745 200.484C68.359 199.937 68.302 199.765 67.7296 199.474C66.5231 199.415 66.7964 200.279 65.0457 199.48C64.713 199.327 64.3819 199.171 64.0529 199.01C65.2653 198.346 65.8951 196.969 64.3238 196.687C63.0884 197.072 63.2487 197.88 63.2757 198.942C62.3907 198.628 60.0168 198.006 59.6971 197.179C58.8506 194.993 57.8044 197.225 56.1489 195.845C56.347 195.291 56.6325 194.87 56.4763 194.296C55.4998 193.083 54.8897 193.913 54.3775 194.842C53.2182 194.895 47.7961 191.099 46.9373 190.246C41.5365 186.527 34.6631 178.988 31.358 173.38L31.8871 172.955C31.6118 172.316 30.2109 171.918 29.7767 171.138C29.1763 170.061 30.2373 169.122 28.6608 168.328C26.9284 167.454 23.1715 157.005 22.3703 154.518C19.1347 144.473 17.8994 133.95 16.7535 123.503C14.8592 106.238 13.0647 90.2179 17.9511 73.1626C19.0725 69.2487 20.5081 65.2155 22.3741 61.5878C24.5151 57.4258 26.6257 54.0681 29.3997 50.3246C31.2442 50.2061 44.4916 48.5125 46.1638 47.784C48.0367 48.42 55.8603 50.6788 57.1919 48.6733C57.0134 48.0101 55.1452 46.918 54.4729 46.4636C53.8742 46.059 52.3025 46.6679 51.5639 45.875C52.3404 45.0212 52.8054 44.651 51.8236 43.5716C50.1933 42.861 50.0336 43.3983 50.1605 44.9193L49.9856 45.2367C49.0171 45.4536 47.3401 44.3607 46.6029 43.7929L46.0828 43.3905C45.5109 43.3369 44.2415 43.3231 43.9306 42.8214C43.4764 42.0884 44.3724 41.2704 43.08 40.8571C42.298 40.607 41.9782 41.2229 41.5871 41.7544C39.74 41.3545 33.4737 36.5686 31.9233 34.9718C31.6029 34.6415 30.9131 34.3251 30.4495 33.9208L30.3955 33.7129C30.2323 33.1044 30.236 32.8998 29.8166 32.4796C29.7805 32.4662 28.6928 32.0568 28.6806 32.0407C26.7778 29.5421 24.6393 27.1806 22.9691 24.5143C22.793 24.2331 22.8268 24.0322 22.8568 23.8185C23.6098 22.949 24.5538 23.6843 24.6994 22.3877C24.087 20.7078 23.5951 20.7428 22.1295 21.5377C21.3192 21.4218 21.4097 20.7498 21.5464 20.1357C21.8876 18.6032 20.6679 18.2746 20.9761 16.4512L21.2195 16.3355C22.2708 16.7914 22.2963 17.8998 23.6761 17.9141C24.2011 17.9195 24.63 18.1743 25.0453 18.4707C25.0005 19.1663 24.7254 20.7125 25.8668 20.765C26.2417 20.7821 26.5846 20.6999 26.891 20.4724C27.4738 19.3244 27.254 19.1716 28.7038 19.2366C29.8931 19.2899 31.0882 20.9732 31.9112 20.6305C33.4828 19.9759 34.0743 19.4146 35.9373 19.7746L36.0196 19.8885C36.4921 20.5322 36.858 20.9799 37.7413 20.6788C38.9356 19.5318 39.5004 18.5518 41.418 19.1874C41.5074 19.5961 41.5045 19.7059 41.5194 20.1286C42.89 21.9587 44.0821 20.6142 43.8871 18.649Z" fill="#BEB5A8"/>
<path d="M46.9325 190.246C46.1196 189.006 46.3338 187.568 48.0616 187.955C49.4379 189.267 48.4133 190.507 46.9325 190.246Z" fill="black"/>
<path d="M76.0255 28.6133C78.7455 28.7351 84.3419 37.4944 86.0526 36.1295C86.3028 35.4633 86.3316 34.907 87.0657 34.8503C87.783 35.1721 88.6293 35.607 88.3745 36.5C88.0166 36.8127 87.7572 36.9818 87.5585 37.4139C87.7254 37.8607 88.0166 37.965 88.4336 38.2212C88.9007 38.2427 89.1388 37.9217 89.5862 37.8015C91.2348 37.3595 90.9512 38.8471 91.5123 39.5767C92.4951 40.0114 95.9953 41.6446 96.8932 41.4338C98.5614 39.6665 98.839 40.6386 99.5821 41.9341C99.8247 42.3582 101.793 42.8392 102.362 42.7719C102.723 42.3547 102.614 41.774 102.697 41.0486C103.214 40.3491 103.932 40.4198 104.597 40.9015C105.184 41.773 104.816 42.3336 104.168 42.9602C105.13 43.2508 105.68 43.0882 106.549 43.2132C109.36 43.618 111.819 43.5867 114.645 43.1381L114.534 43.0289C112.651 43.0561 113.585 39.5559 115.62 40.9398C116.237 41.8242 115.623 42.6571 115.06 43.3248C115.914 43.1466 118.658 42.937 119.073 42.5157C119.184 41.4599 119.322 40.1862 120.819 40.7895C121.418 41.32 121.121 41.8049 121.58 42.1452C122.524 42.1149 123.943 42.334 124.252 43.3454C125.012 45.8298 121.363 49.1517 120.493 51.5736C120.804 51.817 120.961 51.8814 121.309 52.0618C121.614 52.5976 121.533 53.102 121.529 53.738C122.423 53.3533 123.573 52.9732 124.507 52.6381C125.419 50.9874 125.711 51.9377 127.063 51.2939C127.859 50.9146 127.216 49.3716 128.449 48.7738C129.001 48.75 129.395 49.1238 129.815 49.4526C130.386 49.4761 130.464 49.3923 130.957 49.1238C131.464 48.4134 130.187 48.4756 130.047 47.2156C130.477 46.0595 132.378 45.6504 132.758 47.8189L132.783 47.9818C133.909 47.2849 135.331 46.3105 136.608 46.0081C137.181 45.8724 137.524 46.1783 137.991 46.5034C139.5 49.6599 131.274 55.253 129.083 56.5813C128.849 56.7228 127.769 56.9418 127.327 57.1176C126.907 57.6199 127.31 57.7089 127.228 58.7658C127.043 59.024 127.025 59.1492 126.776 59.2223C125.009 59.7431 126.033 57.9065 124.811 58.205C121.048 59.1104 116.959 60.408 113.113 59.2179C112.206 59.0369 111.659 57.4206 112.135 56.6936C114.058 53.7576 117.479 51.2282 119.038 48.0429C109.429 49.9927 101.014 49.5068 91.7944 46.0424C89.2708 45.0947 90.5038 47.5939 88.4215 44.6911C88.3472 44.588 83.1999 41.624 82.6236 41.3011L82.6539 41.57C82.8586 43.2317 81.0706 43.5622 80.2789 42.0391C80.3062 40.9533 81.1085 40.7222 82.0291 40.5084C80.6975 39.6064 77.9782 36.6749 77.1517 36.3001C76.8623 36.8616 76.8246 36.936 76.416 37.4081C75.1851 37.8514 74.3953 36.6614 74.9674 35.5816C75.5121 35.0573 75.9681 35.5139 76.4862 35.0824C76.3167 34.5752 75.7623 33.7944 75.4936 33.2551C75.1111 32.4876 74.8489 31.7714 74.5547 30.9632C74.7537 29.7013 74.7588 29.1283 76.0255 28.6133Z" fill="black"/>
<path d="M98.9439 103.812C101.14 103.553 104.205 103.834 106.377 104.411C109.04 105.154 113.856 106.743 115.185 109.53C117.053 113.453 113.315 112.457 111.34 111.477L111.453 112.009C111.645 112.957 111.783 113.672 111.685 114.645C111.525 116.244 111.128 118.123 110.189 119.45C107.91 122.666 102.889 122.586 101.037 118.963C100.306 117.533 100.192 116.673 100.012 115.137C99.6324 111.923 99.825 111.337 101.181 108.474C96.5537 108.169 92.0995 109.345 88.079 111.624C86.7171 112.404 83.8553 114.551 82.2644 113.11C79.5512 110.654 85.8663 107.669 87.0932 107.07C90.9211 105.202 94.7899 104.039 98.9439 103.812Z" fill="black"/>
<path d="M47.9051 29.3672C48.5448 29.3783 48.9235 29.5305 49.4231 29.9204C49.8656 31.0295 49.099 31.0614 48.9128 32.0561C48.8852 32.2034 49.5247 32.9272 49.6789 33.1195C50.4438 32.6779 50.7741 32.0987 51.7464 32.3766C52.0876 32.6502 52.257 32.8996 52.3726 33.3208C52.7531 34.7079 51.7407 33.9841 51.2753 34.8973C51.3828 35.5329 51.9123 35.9759 52.3692 36.4839C52.4946 36.2102 52.633 35.8952 52.7933 35.6474C53.456 34.6229 55.3584 35.122 55.1657 36.4603C55.0515 37.253 54.3607 37.3071 53.7668 37.7667C54.1119 38.053 54.8645 38.7516 55.2278 38.8606C55.7532 38.1851 55.9182 37.7348 56.7807 37.6557C58.9335 38.5474 57.2671 39.88 57.2542 40.3845C57.6271 40.6717 57.9551 41.0137 58.3975 41.0455C60.2194 40.0314 60.4734 40.7272 60.6005 42.4713C61.0981 43.0274 65.6737 45.3552 66.543 45.6449L66.6812 45.5515C66.2529 44.5107 66.3038 43.6702 67.5227 43.3288C70.4109 43.7549 67.8949 45.9077 67.8688 45.9978C69.1048 46.9498 69.4553 46.0464 70.6766 46.3345C71.0479 46.4222 72.3893 47.4089 72.8893 47.5942C75.3133 48.4928 74.0871 46.8835 75.6754 46.2364C76.2906 46.3168 76.258 46.311 76.7807 46.6527C77.1156 47.2504 76.9993 47.3597 76.9641 48.1412L77.1478 48.3093C78.2376 48.5384 79.7789 48.74 80.8784 48.6303L80.9497 48.4781L80.4416 47.6896C80.387 47.1774 80.3946 47.2125 80.566 46.7229C81.4153 45.961 81.9188 46.3407 82.6195 46.9822C82.6331 47.328 82.6179 47.3421 82.5694 47.6893C82.1675 48.2448 81.5806 48.4497 80.9497 48.7702C82.9091 49.1677 87.5848 49.093 88.8739 49.7326L88.8693 50.0392C88.199 50.7796 85.7452 51.2052 84.7563 51.3976C79.8062 52.3246 74.7182 52.2322 69.8044 51.126C66.8013 50.474 62.7993 49.1178 59.8331 47.9811C59.6789 48.0261 59.0868 48.0898 58.9517 48.0384C57.7111 47.5664 58.4591 46.3518 56.7026 46.234C55.8756 46.0756 54.8708 45.0718 54.1891 44.627C49.6007 41.6331 47.2794 38.3533 44.2812 33.8472C44.2866 33.5598 44.2979 33.2726 44.3154 32.9856C44.6298 27.9989 46.1128 30.9614 47.9051 29.3672Z" fill="black"/>
<path d="M37.5277 104.989C42.0214 104.365 48.5116 106.272 51.8272 109.384C52.5738 110.085 53.4386 111.236 53.4363 112.307C53.0038 113.455 52.1123 113.385 51.0828 113.271C51.482 115.557 51.7251 117.066 51.0531 119.3C50.2125 122.095 47.8534 123.81 44.9811 122.755C43.2084 122.103 41.395 119.587 40.6616 117.94L40.6187 117.798C39.6703 114.635 39.4275 112.21 41.0269 109.209C37.2699 109.146 34.1267 109.363 30.7472 111.242C29.5729 111.894 28.5217 112.7 27.2608 113.168C25.7241 113.74 22.8668 112.686 24.2361 110.692C24.7386 109.958 25.7115 109.485 26.4467 108.986C29.7479 106.746 33.5981 105.528 37.5277 104.989Z" fill="black"/>
<path d="M61.2657 109.653C62.4382 109.559 64.1201 109.743 63.845 111.297C63.0344 115.877 61.4345 120.536 60.3553 125.096C59.4243 129.032 58.4672 131.703 58.0319 135.708C57.2425 142.976 58.7902 145.975 66.5093 145.698C68.1918 145.619 70.9451 144.894 72.5373 145.533C73.7095 146.816 71.0895 148.488 70.0961 149.046C63.4972 151.869 53.9081 149.09 53.3447 141.191C53.2882 140.397 53.1741 139.359 53.2971 138.577C54.8043 129.005 57.8977 119.801 60.5097 110.496C60.591 110.207 61.0375 109.84 61.2657 109.653Z" fill="black"/>
<path d="M97.7365 148.638C99.9401 148.602 103.233 149.325 104.37 151.154C107.138 155.604 101.865 153.935 100.113 153.255C93.0002 162.221 77.6137 164.605 66.815 165.176C65.852 165.227 64.7274 165.321 63.7768 165.166C61.601 165.098 56.6099 165.193 55.4532 162.912C55.4478 162.145 56.1606 161.552 56.8809 161.581C68.9769 162.058 82.1823 160.989 92.9334 154.962C94.7988 153.917 95.8817 153.109 97.1829 151.419C96.6885 150.274 96.6066 149.371 97.7365 148.638Z" fill="black"/>
<path d="M94.7844 84.8266C100.679 84.2927 112.069 87.2799 114.994 93.2685C115.16 93.6079 115.066 93.8339 114.91 94.1293C114.772 94.1944 114.634 94.2595 114.496 94.3245C112.301 93.8735 110.423 92.364 108.39 91.4838C104.657 89.8685 100.048 88.5792 95.9385 88.9846L95.6989 89.0092C91.4342 89.4161 87.2803 91.0469 84.0135 93.9055C82.726 95.0326 81.9677 96.2557 80.3207 97.0679C77.3216 96.9364 77.3037 94.1601 79.1059 92.2309C83.1976 87.854 88.8651 85.3035 94.7844 84.8266Z" fill="black"/>
<path d="M36.6681 87.7066C42.1807 87.3091 46.9465 89.5162 51.5912 92.2608C52.3939 92.7403 54.876 95.0239 53.4211 95.9611C51.7171 97.059 47.8435 94.5838 46.3329 93.9289C43.2539 92.594 40.484 92.0145 37.2054 91.9984C33.5055 92.1648 29.4342 93.4089 26.28 95.3865C25.4071 95.9454 24.4964 96.9997 23.4727 97.2369C22.5204 97.4575 20.7169 96.8978 20.6362 95.7447C20.5784 94.9121 21.2729 93.9794 21.8122 93.426C24.1304 91.0466 27.6442 89.6316 30.7441 88.5744C32.6138 87.9368 34.6766 87.784 36.6681 87.7066Z" fill="black"/>
<path d="M139.166 103.219C139.635 103.011 140.18 103.074 140.589 103.383C140.997 103.693 141.206 104.2 141.132 104.708C141.059 105.216 140.716 105.643 140.236 105.825C139.523 106.094 138.724 105.747 138.434 105.042C138.144 104.336 138.469 103.528 139.166 103.219Z" fill="black"/>
<path d="M83.9639 26.564C84.6889 26.3517 85.4502 26.7589 85.6746 27.4795C85.9006 28.2 85.5063 28.968 84.7905 29.2061C84.3158 29.3638 83.7926 29.2531 83.4225 28.9163C83.0525 28.5794 82.8917 28.0691 83.0039 27.5815C83.1177 27.0938 83.4832 26.7048 83.9639 26.564Z" fill="black"/>
<path d="M141.979 100.469C142.675 100.237 143.432 100.596 143.693 101.282C143.954 101.968 143.629 102.738 142.956 103.03C142.493 103.23 141.956 103.16 141.561 102.847C141.165 102.535 140.972 102.03 141.06 101.533C141.146 101.036 141.5 100.627 141.979 100.469Z" fill="black"/>
<path d="M139.14 86.7831C139.603 86.5965 140.131 86.676 140.518 86.9907C140.906 87.3054 141.091 87.8054 141.003 88.2966C140.915 88.7879 140.568 89.1925 140.096 89.3534C139.392 89.5927 138.626 89.229 138.367 88.5328C138.109 87.8365 138.452 87.0608 139.14 86.7831Z" fill="black"/>
<path d="M142.153 46.0234C143.769 46.2483 144.714 47.7297 142.767 48.8137C140.838 48.9097 140.465 47.0961 142.153 46.0234Z" fill="black"/>
<path d="M139.208 37.7119C139.663 37.5166 140.188 37.5839 140.581 37.8875C140.972 38.1912 141.168 38.6834 141.09 39.1728C141.015 39.6622 140.679 40.0719 140.214 40.2423C139.521 40.4962 138.752 40.1523 138.479 39.4666C138.207 38.7808 138.53 38.0028 139.208 37.7119Z" fill="black"/>
<path d="M50.8668 21.0094C51.5611 20.8982 52.2249 21.337 52.3948 22.0193C52.5646 22.7016 52.1839 23.4003 51.5188 23.6278C51.0348 23.7931 50.499 23.6718 50.1335 23.314C49.768 22.9564 49.6353 22.4231 49.7903 21.9359C49.9455 21.4486 50.3619 21.0901 50.8668 21.0094Z" fill="black"/>
<path d="M97.9045 12.6345C98.6127 12.4572 99.3331 12.8748 99.5318 13.5773C99.7305 14.2798 99.3346 15.0126 98.637 15.2315C98.1684 15.3789 97.6558 15.2595 97.3009 14.92C96.9445 14.5802 96.8019 14.0742 96.9278 13.5987C97.0537 13.1234 97.4283 12.754 97.9045 12.6345Z" fill="black"/>
<path d="M56.0623 21.0123C56.7609 20.7498 57.5399 21.1046 57.8006 21.804C58.0613 22.5033 57.7045 23.2815 57.0044 23.5402C56.307 23.798 55.5326 23.4428 55.2728 22.7461C55.0131 22.0494 55.3662 21.274 56.0623 21.0123Z" fill="black"/>
<path d="M100.498 21.019C101.179 20.8276 101.894 21.1981 102.13 21.8664C102.367 22.5346 102.044 23.2713 101.392 23.5508C100.931 23.7489 100.398 23.6738 100.01 23.356C99.6202 23.0382 99.4412 22.5306 99.5444 22.0394C99.6475 21.548 100.015 21.1548 100.498 21.019Z" fill="black"/>
<path d="M136.44 95.005C137.11 94.6876 137.909 94.9715 138.228 95.6397C138.548 96.308 138.266 97.1085 137.598 97.4295C136.928 97.7518 136.124 97.4688 135.804 96.798C135.483 96.1273 135.768 95.3238 136.44 95.005Z" fill="black"/>
<path d="M100.525 37.7072C100.988 37.5704 101.49 37.6936 101.837 38.0295C102.184 38.3654 102.324 38.8621 102.202 39.3298C102.081 39.7975 101.719 40.164 101.251 40.2891C100.542 40.4791 99.8122 40.0637 99.6135 39.357C99.4133 38.6502 99.8198 37.915 100.525 37.7072Z" fill="black"/>
<path d="M133.534 81.3394C133.972 81.1071 134.503 81.1363 134.914 81.4154C135.325 81.6946 135.547 82.1778 135.494 82.6711C135.439 83.1646 135.116 83.5874 134.653 83.77C133.992 84.0317 133.241 83.7308 132.944 83.0847C132.645 82.4386 132.905 81.6725 133.534 81.3394Z" fill="black"/>
<path d="M139.481 92.2225C140.211 92.0977 140.904 92.5882 141.028 93.3178C141.154 94.0474 140.663 94.7402 139.933 94.865C139.204 94.9899 138.511 94.4995 138.386 93.7697C138.262 93.0401 138.752 92.3473 139.481 92.2225Z" fill="black"/>
<path d="M81.1715 18.2519C81.628 18.0957 82.1331 18.1969 82.494 18.517C82.855 18.8372 83.0157 19.3267 82.9141 19.7984C82.814 20.2702 82.4667 20.6513 82.0072 20.796C81.308 21.016 80.5619 20.633 80.3329 19.9365C80.1039 19.2403 80.4785 18.4894 81.1715 18.2519Z" fill="black"/>
<path d="M133.737 32.2368C134.202 32.0813 134.716 32.1936 135.074 32.5295C135.434 32.8653 135.579 33.3706 135.455 33.846C135.33 34.3213 134.956 34.6905 134.478 34.8074C133.78 34.9785 133.072 34.5686 132.874 33.8785C132.673 33.1885 133.054 32.4641 133.737 32.2368Z" fill="black"/>
<path d="M45.2662 21.0356C45.9804 20.9246 46.6538 21.4 46.788 22.1103C46.9222 22.8203 46.4687 23.5089 45.7634 23.666C45.2862 23.7724 44.7891 23.6103 44.4664 23.2432C44.1435 22.8761 44.0464 22.3623 44.2129 21.9026C44.3795 21.4431 44.7832 21.1107 45.2662 21.0356Z" fill="black"/>
<path d="M58.8323 18.248C59.2791 18.0493 59.7988 18.1108 60.1871 18.4083C60.5752 18.7057 60.7697 19.1916 60.6941 19.6748C60.6184 20.158 60.2847 20.5611 59.8241 20.7257C59.1481 20.9674 58.4019 20.6312 58.135 19.9646C57.8682 19.2979 58.1762 18.5396 58.8323 18.248Z" fill="black"/>
<path d="M42.5828 29.4575C43.0573 29.3665 43.5439 29.539 43.8551 29.9086C44.1663 30.278 44.2533 30.787 44.0829 31.2389C43.9124 31.6909 43.5108 32.0154 43.0331 32.0873C42.3148 32.1956 41.6419 31.7091 41.5194 30.9931C41.3967 30.2771 41.8694 29.5945 42.5828 29.4575Z" fill="black"/>
<path d="M141.84 89.5512C142.286 89.3501 142.807 89.4099 143.196 89.7071C143.585 90.0042 143.78 90.4908 143.702 90.9743C143.626 91.4576 143.291 91.8601 142.829 92.0224C142.155 92.2591 141.415 91.9232 141.15 91.2606C140.886 90.5981 141.189 89.8444 141.84 89.5512Z" fill="black"/>
<path d="M133.806 86.7537C134.269 86.6224 134.767 86.751 135.109 87.0902C135.45 87.4294 135.582 87.9263 135.455 88.3904C135.326 88.8543 134.957 89.2133 134.49 89.3293C133.785 89.5047 133.069 89.0814 132.881 88.3783C132.694 87.6753 133.105 86.9522 133.806 86.7537Z" fill="black"/>
<path d="M78.1097 26.6562C80.1144 26.4268 80.5951 27.9304 79.3439 29.2709C77.3557 29.4358 76.8317 27.9378 78.1097 26.6562Z" fill="black"/>
<path d="M53.5328 12.7894C53.9851 12.6314 54.4874 12.7284 54.8482 13.0436C55.2088 13.3589 55.3725 13.8436 55.2763 14.3128C55.1803 14.7822 54.8395 15.1638 54.3841 15.312C53.6903 15.5376 52.9441 15.1629 52.7108 14.4716C52.4776 13.7805 52.8442 13.0302 53.5328 12.7894Z" fill="black"/>
<path d="M128.237 59.6341C128.918 59.402 129.66 59.7521 129.913 60.425C130.166 61.0977 129.839 61.8501 129.174 62.1243C128.725 62.3094 128.211 62.2355 127.834 61.9314C127.454 61.6275 127.272 61.1416 127.356 60.6634C127.439 60.1854 127.777 59.7909 128.237 59.6341Z" fill="black"/>
<path d="M139.293 32.2337C139.74 32.0531 140.25 32.1283 140.626 32.4301C141.001 32.732 141.184 33.2134 141.104 33.6887C141.024 34.164 140.693 34.5589 140.239 34.721C139.557 34.9648 138.806 34.6181 138.548 33.9409C138.291 33.2639 138.621 32.5052 139.293 32.2337Z" fill="black"/>
<path d="M89.1001 32.1343C91.0671 31.9254 91.9801 33.0501 90.6121 34.6819C88.7998 34.952 88.0779 33.5035 89.1001 32.1343Z" fill="black"/>
<path d="M86.5871 12.8036C87.0284 12.5916 87.5486 12.638 87.9444 12.9244C88.3402 13.2105 88.5465 13.6908 88.4828 14.1749C88.4176 14.659 88.093 15.069 87.6381 15.2426C86.9723 15.4959 86.2261 15.1798 85.944 14.526C85.6635 13.8722 85.9471 13.1127 86.5871 12.8036Z" fill="black"/>
<path d="M97.5195 18.2762C97.9472 18.0491 98.4644 18.0728 98.8693 18.3379C99.2742 18.603 99.5032 19.0677 99.4668 19.5506C99.4304 20.0333 99.1332 20.4579 98.6919 20.6586C98.0397 20.9563 97.2678 20.6809 96.9493 20.0368C96.6323 19.3925 96.8841 18.6129 97.5195 18.2762Z" fill="black"/>
<path d="M97.9163 34.9613C98.5896 34.8221 99.2569 35.2197 99.4556 35.8776C99.6543 36.5355 99.3176 37.2357 98.6791 37.4913C98.2135 37.678 97.6812 37.5856 97.3066 37.2527C96.9305 36.92 96.7743 36.4036 96.9047 35.9186C97.0336 35.4336 97.4249 35.0631 97.9163 34.9613Z" fill="black"/>
<path d="M39.5174 26.7582C39.9654 26.5676 40.4816 26.6378 40.8623 26.9413C41.243 27.2447 41.4266 27.7323 41.3406 28.2116C41.2548 28.6907 40.913 29.0841 40.4505 29.2363C39.7761 29.4582 39.0465 29.1091 38.7963 28.4445C38.546 27.7799 38.864 27.0364 39.5174 26.7582Z" fill="black"/>
<path d="M92.3934 18.2082C93.0865 18.0527 93.778 18.4711 93.9615 19.1566C94.145 19.8421 93.7553 20.5505 93.0774 20.7623C92.6148 20.9072 92.1083 20.7865 91.761 20.4479C91.4122 20.1091 91.2772 19.6069 91.4091 19.1395C91.5411 18.6721 91.9187 18.3145 92.3934 18.2082Z" fill="black"/>
<path d="M56.0363 15.5582C56.6855 15.2603 57.454 15.5321 57.7717 16.1718C58.0894 16.8115 57.8416 17.5878 57.2119 17.9251C56.787 18.1528 56.2719 18.1311 55.8676 17.8686C55.4634 17.606 55.234 17.1442 55.2692 16.6635C55.3042 16.1829 55.5983 15.7593 56.0363 15.5582Z" fill="black"/>
<path d="M53.5295 23.7227C54.2311 23.5313 54.9554 23.9423 55.151 24.6427C55.3467 25.3431 54.9401 26.07 54.2409 26.2698C53.5357 26.4716 52.8011 26.0607 52.6038 25.3541C52.4065 24.6477 52.8219 23.9156 53.5295 23.7227Z" fill="black"/>
<path d="M103.147 18.2626C103.803 17.9821 104.565 18.275 104.863 18.9235C105.164 19.5721 104.892 20.3413 104.254 20.6598C103.823 20.8743 103.309 20.8377 102.913 20.5641C102.517 20.2905 102.302 19.8234 102.351 19.3446C102.399 18.8659 102.704 18.4514 103.147 18.2626Z" fill="black"/>
<path d="M73.0217 26.5738C73.4882 26.4713 73.9737 26.6287 74.2912 26.9854C74.609 27.3421 74.7091 27.8426 74.5533 28.294C74.3976 28.7455 74.0101 29.0778 73.5401 29.1628C72.8318 29.2909 72.1516 28.8283 72.0103 28.1227C71.8691 27.417 72.3188 26.7282 73.0217 26.5738Z" fill="black"/>
<path d="M139.316 43.4256C139.992 43.1895 140.734 43.5365 140.987 44.2074C141.239 44.8785 140.91 45.6283 140.245 45.8972C139.801 46.077 139.294 46.0017 138.921 45.7005C138.548 45.3993 138.366 44.9196 138.45 44.447C138.532 43.9744 138.862 43.5835 139.316 43.4256Z" fill="black"/>
<path d="M92.2649 12.7678C92.9352 12.5365 93.6677 12.8762 93.9255 13.537C94.1818 14.1979 93.8709 14.9438 93.2203 15.2262C92.7774 15.4188 92.2633 15.3533 91.8827 15.0554C91.5005 14.7574 91.3139 14.275 91.3928 13.798C91.4732 13.3209 91.8068 12.9257 92.2649 12.7678Z" fill="black"/>
<path d="M86.8364 18.2668C87.2989 18.1329 87.7979 18.2622 88.1376 18.6042C88.4773 18.9462 88.6032 19.4464 88.4667 19.9087C88.3302 20.3709 87.9526 20.7216 87.4809 20.8235C86.7863 20.9736 86.0963 20.5461 85.9234 19.8566C85.749 19.1673 86.1524 18.4643 86.8364 18.2668Z" fill="black"/>
<path d="M53.6576 18.2464C54.3595 18.1009 55.0486 18.5441 55.2074 19.2429C55.3662 19.9419 54.9363 20.6394 54.2403 20.8114C53.7784 20.9256 53.2908 20.7813 52.9653 20.4342C52.6398 20.0871 52.5272 19.5913 52.6706 19.1375C52.8143 18.6839 53.1917 18.3431 53.6576 18.2464Z" fill="black"/>
<path d="M83.8482 15.5376C84.2926 15.3656 84.7961 15.4483 85.1631 15.7536C85.5301 16.0589 85.7015 16.5387 85.6135 17.0075C85.524 17.4761 85.1889 17.8598 84.7354 18.01C84.059 18.2346 83.3265 17.8782 83.0854 17.2069C82.8442 16.5357 83.1839 15.7948 83.8482 15.5376Z" fill="black"/>
<path d="M125.35 46.1817C126.002 45.9066 126.754 46.1976 127.051 46.8398C127.35 47.482 127.085 48.2444 126.454 48.564C126.025 48.7808 125.512 48.7466 125.116 48.4748C124.72 48.2029 124.505 47.7368 124.554 47.2591C124.602 46.7814 124.907 46.3683 125.35 46.1817Z" fill="black"/>
<path d="M100.451 32.2303C100.903 32.0627 101.411 32.1565 101.774 32.475C102.136 32.7935 102.295 33.2852 102.188 33.7555C102.08 34.2259 101.722 34.5992 101.258 34.7278C100.578 34.9152 99.8732 34.535 99.6579 33.8653C99.441 33.1957 99.7913 32.4747 100.451 32.2303Z" fill="black"/>
<path d="M128.301 37.7752C128.99 37.5912 129.699 37.9916 129.9 38.6763C130.098 39.3612 129.713 40.0795 129.032 40.2932C128.579 40.4356 128.084 40.3215 127.738 39.995C127.393 39.6685 127.252 39.1807 127.368 38.72C127.485 38.2592 127.842 37.8978 128.301 37.7752Z" fill="black"/>
<path d="M59.0804 29.3721C59.546 29.2738 60.0283 29.4354 60.3407 29.7943C60.6531 30.1533 60.7468 30.6531 60.5853 31.1007C60.4239 31.5484 60.0328 31.8735 59.5633 31.9504C58.8597 32.0655 58.193 31.598 58.0617 30.8971C57.9305 30.1965 58.3829 29.5192 59.0804 29.3721Z" fill="black"/>
<path d="M81.686 12.678C82.3836 12.7455 82.9038 13.3492 82.8689 14.0487C82.8341 14.7481 82.2547 15.2961 81.5541 15.293C81.0718 15.2908 80.6289 15.0235 80.403 14.5974C80.177 14.1712 80.2028 13.6551 80.4712 13.254C80.7396 12.8527 81.2068 12.6316 81.686 12.678Z" fill="black"/>
<path d="M139.219 97.7C139.892 97.4622 140.632 97.8084 140.882 98.4783C141.131 99.1482 140.798 99.8943 140.133 100.155C139.692 100.328 139.191 100.25 138.826 99.9501C138.459 99.6506 138.282 99.1765 138.363 98.7102C138.445 98.2437 138.771 97.8576 139.219 97.7Z" fill="black"/>
<path d="M100.283 15.5311C100.711 15.3186 101.221 15.3562 101.613 15.6291C102.005 15.9019 102.217 16.3667 102.167 16.842C102.117 17.3172 101.812 17.7274 101.372 17.9123C100.72 18.1859 99.9678 17.8924 99.6736 17.2492C99.3794 16.606 99.6493 15.8455 100.283 15.5311Z" fill="black"/>
<path d="M108.944 18.2309C109.64 18.0565 110.347 18.4753 110.527 19.1696C110.709 19.8639 110.298 20.5747 109.605 20.763C109.152 20.8865 108.667 20.7567 108.334 20.4229C108.002 20.0892 107.875 19.6029 108.001 19.1495C108.128 18.6961 108.488 18.3454 108.944 18.2309Z" fill="black"/>
<path d="M61.6201 26.4531C63.7169 26.4832 63.7545 28.0634 62.366 29.3026C60.5063 29.1282 60.4293 27.6133 61.6201 26.4531Z" fill="black"/>
<path d="M36.5378 29.6547C36.9443 29.3888 37.4646 29.3702 37.8892 29.6062C38.3139 29.842 38.5728 30.2938 38.5617 30.7794C38.5506 31.2652 38.2714 31.7047 37.8365 31.9209C37.2163 32.2296 36.463 32.0012 36.1186 31.4002C35.7742 30.7991 35.958 30.0339 36.5378 29.6547Z" fill="black"/>
<path d="M78.4632 15.5113C79.1515 15.35 79.8446 15.7654 80.0265 16.449C80.207 17.1327 79.8127 17.837 79.1348 18.039C78.6783 18.1752 78.1836 18.052 77.8439 17.7176C77.504 17.3833 77.373 16.8906 77.5019 16.4315C77.6308 15.9726 77.999 15.62 78.4632 15.5113Z" fill="black"/>
<path d="M133.734 37.8171C134.175 37.6392 134.68 37.7162 135.049 38.0182C135.419 38.3201 135.593 38.7992 135.507 39.2681C135.421 39.7372 135.085 40.1217 134.632 40.2715C133.962 40.4934 133.237 40.1429 132.994 39.4799C132.751 38.8168 133.079 38.0807 133.734 37.8171Z" fill="black"/>
<path d="M103.202 23.8719C103.861 23.626 104.595 23.9454 104.867 24.5947C105.137 25.2439 104.844 25.9905 104.206 26.2843C103.77 26.4843 103.261 26.4306 102.877 26.1446C102.493 25.8586 102.298 25.3857 102.364 24.9119C102.433 24.4382 102.754 24.0393 103.202 23.8719Z" fill="black"/>
<path d="M59.0869 23.7496C59.7827 23.5865 60.4807 24.0127 60.6533 24.7064C60.8258 25.4001 60.4092 26.1036 59.7181 26.2858C59.2624 26.4059 58.7775 26.2714 58.4487 25.9338C58.1201 25.5962 57.9985 25.1078 58.1306 24.6556C58.2628 24.2032 58.6282 23.8571 59.0869 23.7496Z" fill="black"/>
<path d="M117.127 15.5209C117.573 15.362 118.072 15.4575 118.428 15.7706C118.783 16.0836 118.943 16.565 118.843 17.0284C118.742 17.4919 118.398 17.8647 117.945 18.0024C117.265 18.2086 116.546 17.8351 116.323 17.1611C116.102 16.487 116.458 15.7589 117.127 15.5209Z" fill="black"/>
<path d="M108.822 29.4693C109.477 29.2726 110.173 29.6164 110.417 30.2567C110.66 30.8972 110.366 31.6165 109.745 31.9044C109.301 32.1099 108.781 32.0506 108.394 31.7506C108.009 31.4506 107.822 30.9604 107.913 30.48C108.003 29.9997 108.353 29.6096 108.822 29.4693Z" fill="black"/>
<path d="M81.1902 29.3969C81.9894 29.3579 82.1881 29.3565 82.7538 29.9958C83.136 31.0961 82.5339 31.565 81.7255 32.1178C80.3606 31.8998 79.5962 30.4369 81.1902 29.3969Z" fill="black"/>
<path d="M61.6838 21.0131C62.1325 20.8673 62.6251 20.9752 62.9721 21.2952C63.3189 21.6152 63.466 22.0974 63.3569 22.5567C63.2477 23.0157 62.8992 23.3802 62.4454 23.5098C61.761 23.7053 61.046 23.3163 60.8384 22.6355C60.6306 21.9547 61.0067 21.233 61.6838 21.0131Z" fill="black"/>
<path d="M112.029 32.2188C112.745 32.2221 113.326 32.8023 113.329 33.5186C113.332 34.2351 112.756 34.8199 112.04 34.829C111.315 34.8382 110.72 34.2545 110.719 33.5292C110.716 32.804 111.304 32.2154 112.029 32.2188Z" fill="black"/>
<path d="M103.348 29.4673C104.023 29.2767 104.728 29.6543 104.943 30.3219C105.159 30.9897 104.807 31.7078 104.147 31.9473C103.698 32.1103 103.198 32.0151 102.84 31.6993C102.482 31.3835 102.326 30.8976 102.43 30.4323C102.537 29.9671 102.888 29.597 103.348 29.4673Z" fill="black"/>
<path d="M106.067 21.041C106.739 20.8603 107.435 21.2402 107.646 21.9035C107.858 22.5669 107.511 23.2795 106.859 23.5217C106.408 23.6887 105.902 23.5947 105.542 23.2771C105.183 22.9595 105.027 22.4697 105.136 22.0023C105.245 21.5348 105.603 21.1656 106.067 21.041Z" fill="black"/>
<path d="M136.623 29.438C137.088 29.2983 137.592 29.4283 137.93 29.7755C138.27 30.1225 138.388 30.629 138.237 31.0902C138.086 31.5512 137.692 31.8907 137.214 31.9707C136.535 32.0845 135.886 31.6513 135.73 30.9816C135.573 30.3117 135.965 29.6359 136.623 29.438Z" fill="black"/>
<path d="M89.4724 15.5047C90.1473 15.2725 90.8828 15.6274 91.1224 16.3002C91.3606 16.9728 91.0117 17.7121 90.3414 17.957C89.662 18.2051 88.9112 17.8515 88.6686 17.1698C88.4275 16.4881 88.7884 15.7399 89.4724 15.5047Z" fill="black"/>
<path d="M89.7267 9.91431C90.4425 9.8171 91.1007 10.323 91.1902 11.0404C91.2812 11.7576 90.7686 12.4106 90.0497 12.4936C89.3414 12.5755 88.6999 12.0717 88.612 11.3643C88.5225 10.657 89.0199 10.0102 89.7267 9.91431Z" fill="black"/>
<path d="M78.5446 21.1236C79.016 21.0534 79.4876 21.2469 79.7743 21.6277C80.0594 22.0084 80.1155 22.5154 79.9168 22.9485C79.7182 23.3816 79.2981 23.6713 78.8231 23.7033C78.128 23.75 77.5199 23.2398 77.4451 22.5472C77.3703 21.8546 77.8555 21.2264 78.5446 21.1236Z" fill="black"/>
<path d="M106.012 15.4261C106.464 15.2754 106.963 15.3841 107.311 15.7097C107.659 16.0354 107.8 16.5254 107.681 16.9864C107.559 17.4475 107.197 17.8055 106.734 17.9191C106.056 18.0853 105.369 17.688 105.177 17.0189C104.983 16.3496 105.351 15.6468 106.012 15.4261Z" fill="black"/>
<path d="M42.4978 23.8776C42.955 23.7777 43.4308 23.9319 43.7426 24.281C44.0544 24.6301 44.1542 25.1201 44.0034 25.5633C43.8528 26.0064 43.475 26.3342 43.0151 26.4209C42.3179 26.5524 41.6444 26.0996 41.5029 25.4043C41.3614 24.709 41.8045 24.029 42.4978 23.8776Z" fill="black"/>
<path d="M122.615 21.172C123.262 20.8939 124.013 21.1837 124.306 21.8247C124.6 22.4656 124.327 23.2235 123.693 23.5317C123.27 23.7375 122.768 23.6976 122.383 23.4278C121.996 23.1578 121.787 22.7001 121.835 22.2316C121.884 21.7633 122.181 21.3578 122.615 21.172Z" fill="black"/>
<path d="M136.376 84.2407C136.81 84.029 137.325 84.0759 137.714 84.3623C138.103 84.6488 138.3 85.1275 138.226 85.6046C138.152 86.0816 137.82 86.478 137.362 86.6333C136.714 86.8533 136.007 86.5321 135.747 85.8996C135.486 85.267 135.762 84.5408 136.376 84.2407Z" fill="black"/>
<path d="M150.606 81.2822C151.32 81.2545 151.922 81.8103 151.952 82.5246C151.981 83.2391 151.428 83.8426 150.713 83.8736C149.996 83.905 149.389 83.3484 149.361 82.6316C149.33 81.9147 149.888 81.3102 150.606 81.2822Z" fill="black"/>
<path d="M55.9921 26.7928C56.411 26.5662 56.9206 26.5876 57.319 26.8486C57.7174 27.1096 57.9407 27.5682 57.9002 28.0428C57.8598 28.5175 57.5623 28.9317 57.1253 29.1215C56.4888 29.3982 55.7472 29.1241 55.4434 28.4999C55.1397 27.8758 55.3816 27.1231 55.9921 26.7928Z" fill="black"/>
<path d="M25.7287 23.8689C26.3957 23.6737 27.0979 24.0393 27.3204 24.6977C27.5429 25.3559 27.2063 26.0726 26.5579 26.322C26.1138 26.4927 25.612 26.4064 25.2505 26.0972C24.889 25.7881 24.726 25.3057 24.8257 24.8405C24.9255 24.3756 25.2722 24.0025 25.7287 23.8689Z" fill="black"/>
<path d="M150.045 64.9601C150.678 64.6457 151.445 64.895 151.771 65.5209C152.097 66.1468 151.862 66.9186 151.242 67.2562C150.831 67.4804 150.331 67.4649 149.935 67.2159C149.537 66.9668 149.307 66.5231 149.33 66.0554C149.352 65.5877 149.627 65.1688 150.045 64.9601Z" fill="black"/>
<path d="M153.144 89.5432C153.834 89.3887 154.521 89.8176 154.685 90.506C154.849 91.1943 154.43 91.8867 153.743 92.0602C153.292 92.1745 152.812 92.0366 152.491 91.6991C152.169 91.3616 152.052 90.8769 152.189 90.4304C152.324 89.9841 152.689 89.645 153.144 89.5432Z" fill="black"/>
<path d="M94.8995 37.843C95.5486 37.5474 96.3145 37.8339 96.6118 38.4832C96.909 39.1324 96.6239 39.8994 95.9748 40.1972C95.3242 40.4958 94.5553 40.21 94.258 39.559C93.9608 38.9081 94.2474 38.1394 94.8995 37.843Z" fill="black"/>
<path d="M120.237 29.4445C120.944 29.3715 121.577 29.8806 121.655 30.5852C121.736 31.29 121.232 31.9273 120.529 32.0139C119.814 32.1015 119.167 31.5903 119.086 30.8758C119.006 30.1613 119.523 29.5182 120.237 29.4445Z" fill="black"/>
<path d="M102.749 187.43C104.698 187.406 104.842 188.947 103.28 189.958C102.543 189.846 102.422 189.894 101.832 189.474C101.254 188.461 101.994 188.049 102.749 187.43Z" fill="black"/>
<path d="M130.959 35.1142C131.617 34.8602 132.357 35.1817 132.62 35.836C132.884 36.4903 132.573 37.2349 131.924 37.508C131.493 37.6884 131 37.6233 130.633 37.3382C130.265 37.0529 130.08 36.5916 130.146 36.131C130.214 35.6704 130.524 35.2818 130.959 35.1142Z" fill="black"/>
<path d="M72.7689 21.1331C73.4345 20.904 74.1609 21.2505 74.4016 21.912C74.6423 22.5734 74.3085 23.3058 73.6514 23.558C73.216 23.7251 72.7241 23.6443 72.3651 23.3466C72.0062 23.0489 71.8357 22.5806 71.9194 22.1216C72.0031 21.6629 72.328 21.2849 72.7689 21.1331Z" fill="black"/>
<path d="M106.162 26.6314C106.834 26.466 107.516 26.8603 107.709 27.5251C107.901 28.1899 107.536 28.8884 106.879 29.1082C106.43 29.2585 105.934 29.1508 105.589 28.8274C105.243 28.5041 105.102 28.0171 105.222 27.5588C105.34 27.1005 105.701 26.7446 106.162 26.6314Z" fill="black"/>
<path d="M153.264 84.0835C153.723 84.0173 154.185 84.2037 154.468 84.5713C154.753 84.9391 154.817 85.4313 154.638 85.86C154.459 86.2886 154.062 86.5877 153.601 86.6429C152.898 86.7267 152.26 86.2305 152.167 85.5295C152.075 84.8286 152.565 84.1839 153.264 84.0835Z" fill="black"/>
<path d="M78.3848 9.94468C79.041 9.74146 79.7417 10.0888 79.9768 10.7344C80.2134 11.3798 79.901 12.0967 79.2685 12.3643C78.8295 12.5494 78.3246 12.4781 77.9546 12.1785C77.5847 11.8789 77.4098 11.4 77.4999 10.9326C77.59 10.4652 77.9301 10.0854 78.3848 9.94468Z" fill="black"/>
<path d="M130.936 72.9625C131.606 72.7433 132.329 73.1044 132.557 73.7727C132.783 74.441 132.431 75.1678 131.765 75.403C131.328 75.5578 130.842 75.4653 130.49 75.1608C130.139 74.8564 129.98 74.387 130.073 73.932C130.165 73.4771 130.494 73.1067 130.936 72.9625Z" fill="black"/>
<path d="M89.8957 21.0157C90.6115 21.0102 91.1954 21.5894 91.1939 22.3055C91.1939 23.0215 90.61 23.5999 89.8942 23.5934C89.1859 23.5872 88.6157 23.0113 88.6172 22.3037C88.6172 21.5959 89.1874 21.021 89.8957 21.0157Z" fill="black"/>
<path d="M31.4882 29.4784C32.1315 29.3495 32.7689 29.725 32.968 30.3501C33.1673 30.9754 32.8646 31.6505 32.2653 31.9175C31.8138 32.1188 31.2871 32.0437 30.9096 31.7246C30.5321 31.4055 30.3706 30.8985 30.4939 30.4199C30.6172 29.9413 31.0035 29.5755 31.4882 29.4784Z" fill="black"/>
<path d="M81.531 23.8622C82.2089 23.8172 82.8049 24.3066 82.8929 24.9803C82.9823 25.6541 82.5319 26.2805 81.8646 26.4115C81.3945 26.504 80.9107 26.3272 80.6104 25.9526C80.3116 25.578 80.2434 25.0678 80.4375 24.6286C80.6301 24.1894 81.0517 23.8941 81.531 23.8622Z" fill="black"/>
<path d="M45.0199 26.7619C45.4527 26.595 45.942 26.6742 46.3004 26.9689C46.6586 27.2637 46.8306 27.7284 46.7503 28.1855C46.6701 28.6424 46.3501 29.0208 45.9127 29.1758C45.2492 29.4112 44.5199 29.0697 44.2756 28.4093C44.0314 27.749 44.3629 27.0151 45.0199 26.7619Z" fill="black"/>
<path d="M114.309 29.5278C114.95 29.2558 115.694 29.5459 115.982 30.1818C116.27 30.8177 115.998 31.5672 115.369 31.871C114.949 32.0743 114.451 32.0335 114.069 31.7645C113.687 31.4955 113.481 31.0403 113.531 30.5757C113.581 30.1111 113.878 29.71 114.309 29.5278Z" fill="black"/>
<path d="M141.774 67.7341C142.181 67.5096 142.677 67.5223 143.073 67.7673C143.467 68.0122 143.699 68.4514 143.679 68.9156C143.659 69.38 143.389 69.7974 142.975 70.0073C142.349 70.3236 141.586 70.0805 141.259 69.4607C140.931 68.8407 141.16 68.0727 141.774 67.7341Z" fill="black"/>
<path d="M114.429 18.2481C115.099 18.0505 115.805 18.4241 116.017 19.0895C116.231 19.7549 115.873 20.4683 115.212 20.6961C114.772 20.8479 114.284 20.7495 113.936 20.4385C113.589 20.1276 113.437 19.6531 113.539 19.1984C113.642 18.7438 113.983 18.3801 114.429 18.2481Z" fill="black"/>
<path d="M125.356 35.1425C125.999 34.8862 126.73 35.1849 127.009 35.8183C127.288 36.4516 127.015 37.1921 126.393 37.4938C125.97 37.6988 125.468 37.6562 125.086 37.3829C124.702 37.1096 124.499 36.6492 124.557 36.1822C124.613 35.7154 124.919 35.3166 125.356 35.1425Z" fill="black"/>
<path d="M130.985 78.4936C131.617 78.2801 132.307 78.5857 132.574 79.1972C132.841 79.8087 132.597 80.523 132.01 80.8418C131.584 81.074 131.062 81.0456 130.663 80.7687C130.263 80.4918 130.055 80.0133 130.122 79.5322C130.19 79.051 130.524 78.6492 130.985 78.4936Z" fill="black"/>
<path d="M69.9358 18.3634C70.3822 18.2187 70.8717 18.329 71.2131 18.6506C71.5545 18.9725 71.6934 19.4547 71.5753 19.9088C71.4573 20.3629 71.1012 20.7164 70.6462 20.8312C69.9744 21.0007 69.289 20.6069 69.0973 19.941C68.9056 19.275 69.2766 18.5771 69.9358 18.3634Z" fill="black"/>
<path d="M117.192 32.243C117.849 32.0152 118.569 32.3522 118.815 33.0031C119.059 33.654 118.742 34.3823 118.099 34.6454C117.665 34.8223 117.171 34.7502 116.807 34.4574C116.443 34.1647 116.267 33.6972 116.347 33.237C116.426 32.7765 116.751 32.396 117.192 32.243Z" fill="black"/>
<path d="M125.326 40.7121C125.98 40.4588 126.716 40.7764 126.98 41.4256C127.243 42.0749 126.937 42.8156 126.293 43.0897C125.866 43.2709 125.375 43.2081 125.008 42.9256C124.641 42.6429 124.454 42.1843 124.521 41.7256C124.586 41.267 124.894 40.8797 125.326 40.7121Z" fill="black"/>
<path d="M141.864 40.7299C142.482 40.4001 143.249 40.6253 143.589 41.2362C143.93 41.847 143.718 42.6182 143.112 42.9693C142.712 43.2018 142.216 43.2001 141.817 42.9648C141.418 42.7294 141.177 42.297 141.188 41.8337C141.197 41.3705 141.456 40.9485 141.864 40.7299Z" fill="black"/>
<path d="M106.128 32.2424C106.586 32.1459 107.061 32.307 107.366 32.6626C107.671 33.0183 107.757 33.5118 107.592 33.9501C107.427 34.3882 107.035 34.7014 106.571 34.7669C105.887 34.8635 105.249 34.4 105.129 33.7191C105.009 33.0381 105.45 32.3849 106.128 32.2424Z" fill="black"/>
<path d="M130.876 67.6731C131.518 67.3657 132.287 67.6391 132.59 68.2826C132.893 68.926 132.616 69.6932 131.97 69.9923C131.331 70.2885 130.571 70.0131 130.271 69.3756C129.971 68.7381 130.241 67.9776 130.876 67.6731Z" fill="black"/>
<path d="M150.344 97.7876C151.004 97.5998 151.694 97.9638 151.911 98.6137C152.128 99.2637 151.796 99.9697 151.157 100.216C150.716 100.386 150.218 100.3 149.861 99.9926C149.503 99.6853 149.343 99.2064 149.443 98.7456C149.545 98.2849 149.891 97.9168 150.344 97.7876Z" fill="black"/>
<path d="M147.332 67.7068C147.761 67.5095 148.265 67.5648 148.641 67.8507C149.019 68.1366 149.207 68.6065 149.131 69.0732C149.057 69.5399 148.73 69.9273 148.283 70.0813C147.639 70.3035 146.932 69.9803 146.679 69.3466C146.424 68.713 146.712 67.9917 147.332 67.7068Z" fill="black"/>
<path d="M28.6875 21.0411C29.3627 20.9283 30.0074 21.3663 30.1512 22.0357C30.295 22.7051 29.8871 23.3692 29.2252 23.5438C28.7688 23.6641 28.2833 23.5238 27.9615 23.1788C27.6397 22.8336 27.5336 22.3396 27.6852 21.8928C27.837 21.4461 28.2221 21.1188 28.6875 21.0411Z" fill="black"/>
<path d="M83.7476 10.0573C84.157 9.84237 84.6499 9.8642 85.0382 10.1143C85.4264 10.3645 85.6494 10.8043 85.6221 11.2654C85.5963 11.7266 85.3233 12.1374 84.9078 12.341C84.2799 12.6497 83.5186 12.3959 83.2016 11.7713C82.8846 11.1468 83.1273 10.3832 83.7476 10.0573Z" fill="black"/>
<path d="M144.814 97.7141C145.266 97.5893 145.751 97.722 146.078 98.06C146.402 98.3981 146.517 98.8873 146.375 99.3347C146.234 99.7821 145.858 100.116 145.397 100.205C144.722 100.335 144.065 99.9088 143.909 99.2397C143.753 98.5704 144.151 97.897 144.814 97.7141Z" fill="black"/>
<path d="M144.783 64.8688C145.451 64.6802 146.148 65.0581 146.353 65.7208C146.559 66.3836 146.2 67.0897 145.543 67.3128C145.102 67.4625 144.615 67.3612 144.271 67.0483C143.926 66.7356 143.779 66.2604 143.885 65.8076C143.992 65.3547 144.336 64.9951 144.783 64.8688Z" fill="black"/>
<path d="M42.0867 35.2749C42.4822 35.0321 42.978 35.0227 43.3825 35.2499C43.787 35.4772 44.0366 35.9058 44.0349 36.3698C44.0331 36.8337 43.7803 37.2604 43.3741 37.4848C42.7658 37.8207 42.0004 37.6094 41.6505 37.0088C41.3008 36.4084 41.4945 35.6385 42.0867 35.2749Z" fill="black"/>
<path d="M56.0087 32.3752C56.6435 32.0609 57.4131 32.3227 57.7244 32.9589C58.0359 33.5953 57.7708 34.3636 57.1331 34.6722C56.4995 34.979 55.7369 34.7157 55.4274 34.0835C55.1178 33.451 55.3776 32.6874 56.0087 32.3752Z" fill="black"/>
<path d="M61.7746 32.2158C62.2279 32.1057 62.7052 32.2513 63.0201 32.5956C63.3351 32.9399 63.4374 33.4282 63.2876 33.87C63.1376 34.3118 62.7591 34.6368 62.2997 34.7184C61.6195 34.8389 60.9663 34.3976 60.8243 33.7215C60.6825 33.0454 61.1032 32.3787 61.7746 32.2158Z" fill="black"/>
<path d="M66.9853 21.152C67.6056 20.8402 68.3615 21.0806 68.6876 21.6935C69.0138 22.3065 68.791 23.0676 68.1857 23.408C67.7815 23.6351 67.2861 23.6257 66.8909 23.3832C66.4956 23.1406 66.2628 22.703 66.2824 22.2399C66.3021 21.7766 66.571 21.3603 66.9853 21.152Z" fill="black"/>
<path d="M86.6776 29.4544C87.3161 29.1481 88.0804 29.4182 88.3853 30.057C88.6901 30.6956 88.4171 31.4601 87.7771 31.7621C87.1401 32.0628 86.3803 31.7917 86.077 31.1561C85.7752 30.5203 86.0436 29.7594 86.6776 29.4544Z" fill="black"/>
<path d="M133.849 91.9961C135.617 92.0536 136.333 93.3169 134.78 94.6093C133.87 94.6642 133.212 94.4219 133.145 93.3427C133.101 92.6343 133.395 92.48 133.849 91.9961Z" fill="black"/>
<path d="M100.485 26.5474C102.657 26.5142 102.445 28.0954 101.16 29.3162C99.4979 28.7954 99.0353 27.735 100.485 26.5474Z" fill="black"/>
<path d="M75.6758 18.2399C76.1248 18.1237 76.6015 18.2605 76.9207 18.5969C77.24 18.9334 77.3516 19.4166 77.2122 19.859C77.0729 20.3013 76.7043 20.6332 76.2498 20.7257C75.5719 20.8639 74.9075 20.4367 74.7517 19.7626C74.5961 19.0884 75.0059 18.4131 75.6758 18.2399Z" fill="black"/>
<path d="M67.2062 37.826C67.869 37.6225 68.573 37.9856 68.7914 38.6436C69.0099 39.3015 68.6631 40.0136 68.0102 40.2471C67.5745 40.4029 67.0886 40.3107 66.7404 40.0059C66.3921 39.701 66.2362 39.2316 66.3328 38.7791C66.4296 38.3265 66.7639 37.9618 67.2062 37.826Z" fill="black"/>
<path d="M136.628 35.0916C137.078 34.9694 137.557 35.1019 137.88 35.4371C138.205 35.7724 138.319 36.2573 138.181 36.7018C138.043 37.1464 137.673 37.4802 137.216 37.5726C136.541 37.7091 135.88 37.286 135.722 36.6164C135.563 35.9468 135.965 35.2722 136.628 35.0916Z" fill="black"/>
<path d="M36.6681 24.0451C37.2853 23.7053 38.0614 23.9303 38.4008 24.5479C38.7402 25.1653 38.5145 25.9412 37.8968 26.2801C37.2797 26.6188 36.5049 26.3934 36.1658 25.7765C35.8267 25.1597 36.0516 24.3847 36.6681 24.0451Z" fill="black"/>
<path d="M59.0528 35.0677C59.7334 34.8842 60.4338 35.2875 60.6167 35.9683C60.7995 36.6489 60.3954 37.349 59.7145 37.5311C59.0346 37.713 58.3359 37.3097 58.1533 36.63C57.9709 35.9503 58.3734 35.2511 59.0528 35.0677Z" fill="black"/>
<path d="M144.846 86.7915C145.521 86.5989 146.225 86.9876 146.421 87.6614C146.618 88.3351 146.233 89.0406 145.559 89.2399C144.881 89.4405 144.17 89.0518 143.973 88.3735C143.776 87.6949 144.167 86.9855 144.846 86.7915Z" fill="black"/>
<path d="M83.8302 21.1791C84.4717 20.8897 85.2285 21.177 85.5167 21.8201C85.8048 22.4633 85.5167 23.2184 84.8721 23.5057C84.2306 23.7922 83.4768 23.5046 83.1902 22.8628C82.9021 22.2211 83.1887 21.4677 83.8302 21.1791Z" fill="black"/>
<path d="M144.799 92.2596C145.48 92.1023 146.16 92.5218 146.325 93.2003C146.49 93.8788 146.078 94.5636 145.402 94.736C144.957 94.8495 144.486 94.7151 144.169 94.3845C143.85 94.0537 143.735 93.5778 143.865 93.1381C143.996 92.6985 144.352 92.3629 144.799 92.2596Z" fill="black"/>
<path d="M59.1568 12.7889C59.6033 12.6821 60.0728 12.8238 60.3855 13.1598C60.6983 13.4958 60.8059 13.9742 60.6673 14.4118C60.5287 14.8495 60.1653 15.1787 59.7161 15.2734C59.0346 15.4171 58.3639 14.9866 58.2111 14.307C58.058 13.6276 58.4795 12.9512 59.1568 12.7889Z" fill="black"/>
<path d="M108.959 23.8485C109.63 23.6957 110.3 24.1027 110.475 24.7679C110.649 25.4332 110.262 26.1164 109.602 26.3115C109.158 26.4431 108.676 26.3218 108.345 25.9948C108.016 25.6677 107.89 25.1871 108.018 24.7403C108.145 24.2936 108.506 23.952 108.959 23.8485Z" fill="black"/>
<path d="M67.0952 15.5578C67.5235 15.3887 68.0095 15.4639 68.3667 15.7546C68.7237 16.0452 68.896 16.5059 68.8174 16.9597C68.7387 17.4133 68.4213 17.7891 67.9872 17.9426C67.3327 18.174 66.6134 17.8384 66.3701 17.1882C66.1268 16.5379 66.4494 15.8127 67.0952 15.5578Z" fill="black"/>
<path d="M64.3966 23.8675C65.0464 23.6286 65.768 23.9532 66.0208 24.5977C66.2735 25.2424 65.9646 25.9709 65.3256 26.2373C64.8998 26.4149 64.4113 26.3482 64.0487 26.0631C63.6859 25.7778 63.506 25.3187 63.5782 24.8631C63.6504 24.4074 63.9636 24.0266 64.3966 23.8675Z" fill="black"/>
<path d="M56.0324 10.2514C56.4442 10.0421 56.9372 10.0724 57.3203 10.3305C57.7034 10.5885 57.9166 11.0339 57.8775 11.4944C57.8382 11.9547 57.5527 12.3575 57.1313 12.547C56.501 12.8306 55.7594 12.5593 55.461 11.9359C55.1625 11.3124 55.4162 10.5647 56.0324 10.2514Z" fill="black"/>
<path d="M131.177 40.6762C131.851 40.5447 132.507 40.9705 132.662 41.639C132.817 42.3076 132.413 42.9782 131.751 43.1553C131.3 43.2754 130.821 43.1409 130.501 42.8044C130.18 42.4678 130.067 41.983 130.208 41.5397C130.349 41.0964 130.721 40.7653 131.177 40.6762Z" fill="black"/>
<path d="M64.463 18.2713C65.1352 18.089 65.8292 18.4805 66.0204 19.1503C66.2116 19.8198 65.8292 20.519 65.1622 20.719C64.7227 20.8508 64.2463 20.736 63.9152 20.4184C63.5841 20.1009 63.4496 19.6297 63.5629 19.1852C63.6764 18.7405 64.0203 18.3914 64.463 18.2713Z" fill="black"/>
<path d="M61.6504 37.8336C62.3012 37.5923 63.0252 37.9172 63.2777 38.5635C63.5304 39.21 63.2182 39.9395 62.5763 40.2034C62.1509 40.3781 61.6644 40.3099 61.3037 40.0248C60.9429 39.7395 60.7641 39.2819 60.836 38.8277C60.9079 38.3735 61.2192 37.9934 61.6504 37.8336Z" fill="black"/>
<path d="M94.7425 26.7848C95.337 26.4166 96.1165 26.5966 96.4881 27.1879C96.8612 27.7792 96.6868 28.5601 96.0983 28.9367C95.5038 29.3169 94.7122 29.1402 94.3361 28.5431C93.96 27.9459 94.1435 27.1567 94.7425 26.7848Z" fill="black"/>
<path d="M67.0138 10.0579C67.4293 9.86662 67.9156 9.91333 68.2871 10.1802C68.6587 10.447 68.8583 10.8929 68.8097 11.3479C68.7614 11.8027 68.4723 12.1964 68.0528 12.379C67.4136 12.6573 66.6695 12.3688 66.3847 11.7326C66.0999 11.0963 66.3805 10.3493 67.0138 10.0579Z" fill="black"/>
<path d="M150.454 86.7552C151.129 86.6208 151.789 87.0477 151.944 87.7188C152.097 88.3898 151.689 89.0616 151.023 89.2348C150.574 89.3516 150.098 89.2151 149.78 88.8788C149.46 88.5425 149.349 88.0593 149.49 87.6177C149.631 87.1759 149.999 86.8456 150.454 86.7552Z" fill="black"/>
<path d="M86.7635 23.879C87.2048 23.7301 87.6932 23.8354 88.0344 24.1531C88.3757 24.4707 88.5152 24.9497 88.3984 25.4011C88.2816 25.8523 87.9267 26.2032 87.4733 26.3151C86.8121 26.4786 86.1402 26.0916 85.9491 25.4378C85.7595 24.7841 86.1174 24.0964 86.7635 23.879Z" fill="black"/>
<path d="M50.6085 26.784C51.2467 26.4969 51.997 26.7801 52.2862 27.4173C52.5754 28.0544 52.2947 28.8056 51.6585 29.097C51.0192 29.3897 50.2638 29.1074 49.9732 28.4671C49.6827 27.827 49.9675 27.0725 50.6085 26.784Z" fill="black"/>
<path d="M125.602 29.4646C126.287 29.3108 126.968 29.7445 127.118 30.4317C127.269 31.1189 126.832 31.7972 126.143 31.9439C125.461 32.0896 124.787 31.6562 124.639 30.9739C124.49 30.2917 124.919 29.6173 125.602 29.4646Z" fill="black"/>
<path d="M48.0284 23.8772C48.6874 23.733 49.3439 24.1297 49.5226 24.7802C49.7012 25.4308 49.3395 26.1072 48.6994 26.3198C48.2541 26.4677 47.7638 26.3577 47.4244 26.0341C47.0848 25.7103 46.9518 25.2258 47.0783 24.7741C47.2048 24.3225 47.5703 23.9775 48.0284 23.8772Z" fill="black"/>
<path d="M142.284 94.9922C142.959 94.9173 143.575 95.3879 143.678 96.0593C143.781 96.7308 143.337 97.3648 142.671 97.4969C142.215 97.5874 141.745 97.4201 141.447 97.061C141.15 96.7019 141.074 96.2088 141.249 95.7769C141.425 95.345 141.822 95.0436 142.284 94.9922Z" fill="black"/>
<path d="M117.1 26.759C117.528 26.5831 118.02 26.655 118.379 26.9466C118.74 27.2381 118.913 27.7029 118.829 28.159C118.748 28.615 118.423 28.9898 117.983 29.1363C117.334 29.3527 116.63 29.0157 116.392 28.3745C116.154 27.7333 116.467 27.0187 117.1 26.759Z" fill="black"/>
<path d="M120.023 18.2687C120.699 18.0904 121.392 18.4941 121.571 19.1705C121.75 19.8469 121.347 20.5403 120.671 20.7195C119.994 20.8988 119.3 20.4952 119.121 19.8181C118.942 19.1409 119.345 18.4471 120.023 18.2687Z" fill="black"/>
<path d="M125.584 23.8786C126.245 23.6948 126.932 24.0706 127.134 24.7264C127.337 25.3823 126.981 26.0798 126.33 26.3C125.893 26.448 125.411 26.347 125.07 26.0364C124.728 25.7258 124.584 25.2546 124.691 24.806C124.797 24.3574 125.139 24.0022 125.584 23.8786Z" fill="black"/>
<path d="M139.178 81.3639C139.603 81.1901 140.088 81.2596 140.446 81.5455C140.806 81.8312 140.981 82.2887 140.907 82.7414C140.833 83.1941 140.52 83.5712 140.088 83.7272C139.441 83.9618 138.723 83.6349 138.476 82.9915C138.227 82.3483 138.54 81.6249 139.178 81.3639Z" fill="black"/>
<path d="M69.8818 29.6065C70.2972 29.4169 70.7823 29.4656 71.1519 29.7339C71.5214 30.002 71.7179 30.4484 71.6664 30.902C71.6148 31.3556 71.3231 31.7464 70.9029 31.9249C70.265 32.196 69.5278 31.9039 69.2485 31.2696C68.9689 30.6352 69.2513 29.8942 69.8818 29.6065Z" fill="black"/>
<path d="M94.9367 15.5567C95.5873 15.3202 96.3092 15.6521 96.5534 16.3014C96.796 16.9506 96.473 17.6753 95.8254 17.9264C95.4008 18.0913 94.9215 18.0154 94.5682 17.7274C94.2148 17.4396 94.0434 16.9842 94.1193 16.5349C94.1966 16.0859 94.5075 15.7122 94.9367 15.5567Z" fill="black"/>
<path d="M72.7455 32.3329C73.381 32.0668 74.1127 32.3578 74.3918 32.9878C74.6708 33.6178 74.3947 34.3553 73.7704 34.6471C73.3552 34.8411 72.8676 34.7956 72.4954 34.528C72.1234 34.2604 71.925 33.8125 71.9769 33.3571C72.0288 32.9018 72.3227 32.5101 72.7455 32.3329Z" fill="black"/>
<path d="M66.9941 26.7843C67.6087 26.448 68.3795 26.6757 68.713 27.2919C69.0463 27.9081 68.8153 28.6779 68.1976 29.0085C67.5839 29.3372 66.82 29.1078 66.4886 28.4956C66.1572 27.8832 66.3832 27.1182 66.9941 26.7843Z" fill="black"/>
<path d="M114.541 12.6502C115.216 12.5253 115.868 12.962 116.009 13.634C116.15 14.3059 115.729 14.9674 115.06 15.1239C114.614 15.2284 114.145 15.0828 113.836 14.7436C113.528 14.4042 113.428 13.9243 113.574 13.4897C113.721 13.055 114.091 12.7338 114.541 12.6502Z" fill="black"/>
<path d="M119.83 35.1267C120.467 34.8892 121.179 35.199 121.44 35.8278C121.699 36.4564 121.415 37.1782 120.796 37.4604C120.375 37.6521 119.884 37.599 119.513 37.3218C119.143 37.0447 118.955 36.5878 119.021 36.1304C119.087 35.6729 119.397 35.288 119.83 35.1267Z" fill="black"/>
<path d="M105.97 37.8309C106.621 37.5739 107.356 37.8943 107.611 38.5456C107.866 39.1969 107.543 39.9311 106.891 40.1833C106.242 40.4343 105.512 40.1133 105.259 39.4654C105.006 38.8173 105.324 38.0866 105.97 37.8309Z" fill="black"/>
<path d="M152.949 78.6345C153.595 78.3811 154.325 78.6958 154.583 79.3393C154.841 79.9828 154.531 80.7141 153.89 80.9772C153.242 81.2431 152.5 80.9299 152.24 80.2796C151.979 79.6293 152.297 78.8907 152.949 78.6345Z" fill="black"/>
<path d="M133.844 64.9785C134.516 64.8035 135.203 65.2042 135.382 65.8753C135.561 66.5462 135.163 67.2357 134.493 67.4184C133.818 67.6025 133.122 67.2019 132.941 66.5255C132.761 65.8489 133.166 65.1551 133.844 64.9785Z" fill="black"/>
<path d="M139.098 59.68C139.718 59.3865 140.46 59.643 140.766 60.2572C141.073 60.8716 140.832 61.618 140.223 61.9373C139.819 62.1497 139.332 62.1268 138.948 61.8774C138.566 61.6279 138.347 61.1908 138.378 60.7348C138.41 60.2789 138.684 59.8753 139.098 59.68Z" fill="black"/>
<path d="M69.7937 24.0109C70.4123 23.6928 71.1717 23.9358 71.4906 24.554C71.8095 25.1721 71.5675 25.9318 70.9498 26.2515C70.3309 26.5718 69.5695 26.3293 69.25 25.7099C68.9304 25.0907 69.174 24.3297 69.7937 24.0109Z" fill="black"/>
<path d="M133.704 54.1986C134.366 53.9761 135.084 54.3367 135.302 55.0019C135.519 55.6671 135.152 56.3818 134.486 56.5939C133.827 56.8034 133.121 56.442 132.906 55.7843C132.692 55.1266 133.047 54.4186 133.704 54.1986Z" fill="black"/>
<path d="M133.513 75.9062C134.113 75.5669 134.872 75.7707 135.221 76.364C135.568 76.9575 135.377 77.7206 134.789 78.0784C134.401 78.3148 133.915 78.3236 133.518 78.1013C133.122 77.8788 132.875 77.4599 132.875 77.0052C132.873 76.5504 133.118 76.1303 133.513 75.9062Z" fill="black"/>
<path d="M70.1941 35.042C70.6496 34.972 71.1068 35.1561 71.3868 35.5219C71.6667 35.8878 71.7248 36.3772 71.5381 36.7984C71.3516 37.2197 70.95 37.5056 70.4909 37.5439C69.8141 37.6007 69.2139 37.1108 69.1339 36.4364C69.0539 35.7618 69.5227 35.1452 70.1941 35.042Z" fill="black"/>
<path d="M119.871 24.0186C120.514 23.7579 121.247 24.065 121.51 24.7059C121.774 25.3467 121.471 26.0807 120.831 26.3481C120.188 26.6176 119.446 26.3115 119.181 25.6659C118.916 25.0203 119.225 24.2814 119.871 24.0186Z" fill="black"/>
<path d="M39.6186 21.155C40.0569 21.0181 40.5349 21.1303 40.8663 21.4481C41.1976 21.7658 41.33 22.2386 41.2116 22.6823C41.0933 23.1259 40.743 23.4698 40.2972 23.5802C39.6363 23.744 38.9648 23.3527 38.7813 22.697C38.5978 22.041 38.9687 21.3581 39.6186 21.155Z" fill="black"/>
<path d="M75.4167 24.0114C75.8303 23.8051 76.3235 23.8418 76.702 24.1071C77.0804 24.3722 77.2833 24.8232 77.2307 25.2823C77.1781 25.7413 76.8784 26.1349 76.4498 26.3075C75.8224 26.5603 75.1075 26.2726 74.83 25.6558C74.5524 25.039 74.8114 24.3132 75.4167 24.0114Z" fill="black"/>
<path d="M128.266 32.3392C128.909 32.1094 129.618 32.4352 129.863 33.0731C130.108 33.7108 129.8 34.4279 129.168 34.6884C128.746 34.8627 128.262 34.7943 127.905 34.5098C127.547 34.2252 127.372 33.7692 127.447 33.3185C127.521 32.8677 127.835 32.4928 128.266 32.3392Z" fill="black"/>
<path d="M103.147 35.0875C103.764 34.7987 104.5 35.0543 104.804 35.6638C105.111 36.2733 104.876 37.0152 104.274 37.3372C103.87 37.5533 103.382 37.5333 102.997 37.2849C102.613 37.0364 102.393 36.5988 102.425 36.142C102.455 35.6852 102.733 35.2814 103.147 35.0875Z" fill="black"/>
<path d="M53.4033 29.5085C53.8328 29.3279 54.3269 29.3995 54.6876 29.6943C55.0481 29.9893 55.2163 30.4593 55.1245 30.9159C55.0327 31.3727 54.6961 31.7414 54.2496 31.8741C53.6091 32.0645 52.9317 31.721 52.7066 31.0919C52.4815 30.4628 52.7876 29.7676 53.4033 29.5085Z" fill="black"/>
<path d="M114.019 35.2589C114.416 35.0096 114.918 35.0019 115.323 35.2391C115.728 35.4761 115.966 35.9185 115.943 36.3868C115.919 36.8551 115.637 37.2715 115.211 37.4669C114.609 37.743 113.896 37.5044 113.58 36.9214C113.266 36.3384 113.458 35.6112 114.019 35.2589Z" fill="black"/>
<path d="M150.235 92.269C150.681 92.1136 151.179 92.2223 151.52 92.5503C151.86 92.8782 151.988 93.3699 151.85 93.8226C151.712 94.2753 151.332 94.6121 150.866 94.6945C150.222 94.8084 149.597 94.4074 149.431 93.7732C149.266 93.1389 149.616 92.4844 150.235 92.269Z" fill="black"/>
<path d="M45.2662 37.7933C45.9295 37.6329 46.5999 38.031 46.7762 38.6902C46.9526 39.3495 46.5707 40.0292 45.9157 40.2214C45.4779 40.3498 45.0049 40.2309 44.6797 39.9108C44.3547 39.5906 44.2285 39.1193 44.3503 38.6796C44.4722 38.2398 44.8227 37.9007 45.2662 37.7933Z" fill="black"/>
<path d="M141.779 62.2397C142.395 61.9194 143.153 62.1591 143.473 62.775C143.793 63.3911 143.553 64.1498 142.937 64.4698C142.322 64.7895 141.563 64.5497 141.243 63.934C140.923 63.3183 141.163 62.5598 141.779 62.2397Z" fill="black"/>
<path d="M97.5983 29.498C98.2216 29.1946 98.9723 29.4538 99.2771 30.077C99.5805 30.7003 99.3227 31.4519 98.6993 31.7565C98.076 32.0616 97.3223 31.8029 97.0174 31.1786C96.7141 30.5544 96.9735 29.8017 97.5983 29.498Z" fill="black"/>
<path d="M147.489 62.2079C147.927 62.0726 148.406 62.1886 148.734 62.5101C149.063 62.8315 149.19 63.3071 149.064 63.7495C148.94 64.1919 148.582 64.5302 148.133 64.6316C147.475 64.7802 146.818 64.3822 146.644 63.7304C146.471 63.0787 146.843 62.4063 147.489 62.2079Z" fill="black"/>
<path d="M64.6574 29.4851C65.3095 29.393 65.9221 29.821 66.0598 30.4651C66.1976 31.1092 65.8138 31.7503 65.1811 31.933C64.73 32.0631 64.2441 31.9309 63.9215 31.59C63.599 31.249 63.4936 30.7566 63.6484 30.3135C63.8034 29.8703 64.1926 29.5508 64.6574 29.4851Z" fill="black"/>
<path d="M64.4073 35.1077C65.0545 34.8648 65.776 35.191 66.0211 35.8374C66.2661 36.4836 65.9421 37.2062 65.2967 37.4535C64.6483 37.7016 63.9217 37.3758 63.6756 36.7267C63.4294 36.0774 63.7575 35.3519 64.4073 35.1077Z" fill="black"/>
<path d="M128.452 64.8789C130.29 65.0771 130.448 66.2511 129.204 67.499C128.196 67.5252 127.594 67.2363 127.618 66.037C127.632 65.403 128.003 65.2383 128.452 64.8789Z" fill="black"/>
<path d="M122.818 48.8616C123.502 48.7332 124.16 49.1866 124.283 49.8715C124.406 50.5565 123.948 51.2107 123.262 51.3283C122.583 51.4447 121.938 50.9923 121.817 50.3148C121.694 49.6375 122.142 48.9887 122.818 48.8616Z" fill="black"/>
<path d="M122.9 26.7533C123.352 26.7046 123.797 26.9051 124.059 27.2771C124.321 27.649 124.361 28.1339 124.164 28.5438C123.965 28.9536 123.56 29.2241 123.107 29.2502C122.427 29.2893 121.842 28.7799 121.786 28.1023C121.729 27.4245 122.224 26.8259 122.9 26.7533Z" fill="black"/>
<path d="M67.1472 32.3975C67.7834 32.177 68.4802 32.4988 68.7246 33.1262C68.9693 33.7535 68.6741 34.462 68.0566 34.7302C67.6356 34.9131 67.1483 34.851 66.7866 34.5687C66.4249 34.2863 66.2465 33.8286 66.3216 33.3759C66.3968 32.9232 66.7136 32.5478 67.1472 32.3975Z" fill="black"/>
<path d="M28.4285 26.75C29.0473 26.4733 29.7741 26.7391 30.0683 27.35C30.3623 27.9607 30.117 28.6948 29.5146 29.0058C29.1096 29.2151 28.623 29.1877 28.2441 28.9344C27.8651 28.6813 27.6537 28.2421 27.6919 27.7878C27.7303 27.3336 28.0124 26.9363 28.4285 26.75Z" fill="black"/>
<path d="M131.336 62.2017C132.02 62.1327 132.631 62.6286 132.705 63.3122C132.778 63.9959 132.287 64.6108 131.604 64.6892C130.914 64.7686 130.293 64.2708 130.218 63.5806C130.144 62.8903 130.644 62.2713 131.336 62.2017Z" fill="black"/>
<path d="M92.3828 29.3297C92.8166 29.2053 93.2837 29.3244 93.6052 29.6413C93.9252 29.9583 94.0511 30.4238 93.9328 30.8592C93.8145 31.2946 93.4702 31.6323 93.0319 31.7427C92.3707 31.9099 91.6973 31.5151 91.5199 30.8561C91.3424 30.1973 91.7261 29.5177 92.3828 29.3297Z" fill="black"/>
<path d="M61.8572 15.5211C62.2992 15.4389 62.7511 15.6004 63.0409 15.9439C63.3307 16.2876 63.4137 16.7603 63.2582 17.1821C63.1026 17.6038 62.7326 17.9094 62.2891 17.9827C61.613 18.094 60.9734 17.6404 60.8549 16.9657C60.7366 16.2908 61.1837 15.6464 61.8572 15.5211Z" fill="black"/>
<path d="M139.352 64.9969C140.025 64.8325 140.703 65.2476 140.864 65.9219C141.023 66.5961 140.604 67.2719 139.93 67.4281C139.259 67.5831 138.59 67.1683 138.433 66.4998C138.273 65.8313 138.684 65.1599 139.352 64.9969Z" fill="black"/>
<path d="M97.6909 23.866C98.3309 23.6055 99.0604 23.9137 99.3198 24.554C99.5791 25.1941 99.2682 25.9228 98.6267 26.18C97.9882 26.4363 97.2633 26.1276 97.0054 25.4897C96.7476 24.852 97.054 24.1257 97.6909 23.866Z" fill="black"/>
<path d="M70.0378 40.6904C70.7074 40.5219 71.3865 40.9291 71.5535 41.599C71.7205 42.269 71.3119 42.9472 70.6416 43.1127C69.9734 43.2778 69.2976 42.8706 69.1311 42.2027C68.9647 41.5348 69.3702 40.8583 70.0378 40.6904Z" fill="black"/>
<path d="M72.6312 37.9469C73.04 37.726 73.5378 37.7505 73.9228 38.0106C74.3079 38.2709 74.5164 38.7234 74.4639 39.1852C74.4115 39.6469 74.1068 40.0412 73.6732 40.2085C73.0591 40.4452 72.3667 40.1642 72.0912 39.5665C71.8158 38.9687 72.0523 38.2598 72.6312 37.9469Z" fill="black"/>
<path d="M61.962 10.0925C62.6135 10.008 63.2189 10.4431 63.3463 11.0875C63.4739 11.7319 63.0799 12.365 62.4453 12.5348C61.9957 12.6552 61.5164 12.5153 61.2022 12.1719C60.8879 11.8285 60.791 11.3387 60.9509 10.9016C61.1106 10.4644 61.5003 10.1524 61.962 10.0925Z" fill="black"/>
<path d="M70.0522 12.7665C70.4899 12.6473 70.958 12.7752 71.2742 13.1005C71.5905 13.4258 71.705 13.8973 71.5734 14.3315C71.4417 14.7657 71.0846 15.0942 70.641 15.1891C69.9807 15.3303 69.3278 14.9204 69.1684 14.2642C69.0088 13.6081 69.4007 12.9441 70.0522 12.7665Z" fill="black"/>
<path d="M83.8461 32.3477C84.2738 32.1757 84.7621 32.2542 85.114 32.5514C85.4673 32.8487 85.6281 33.3164 85.531 33.7674C85.434 34.2186 85.0958 34.5795 84.6529 34.706C84.0144 34.888 83.3441 34.5381 83.1303 33.91C82.9149 33.2818 83.2288 32.5952 83.8461 32.3477Z" fill="black"/>
<path d="M147.384 84.2082C147.803 84.0268 148.287 84.0887 148.648 84.3697C149.007 84.6507 149.185 85.1059 149.11 85.5561C149.034 86.0064 148.721 86.3799 148.29 86.5298C147.656 86.75 146.961 86.4297 146.719 85.805C146.474 85.1802 146.769 84.4747 147.384 84.2082Z" fill="black"/>
<path d="M111.267 38.0075C111.642 37.7536 112.124 37.7229 112.529 37.927C112.932 38.1311 113.193 38.5383 113.211 38.9906C113.229 39.443 113 39.8693 112.614 40.1044C112.036 40.4559 111.282 40.2823 110.917 39.7131C110.551 39.1439 110.706 38.387 111.267 38.0075Z" fill="black"/>
<path d="M64.4262 12.7921C64.8533 12.6479 65.3248 12.7455 65.6595 13.0475C65.994 13.3493 66.1396 13.8084 66.0403 14.2479C65.9408 14.6875 65.6117 15.0391 65.1796 15.1675C64.5284 15.361 63.8422 14.9974 63.6368 14.3496C63.4313 13.702 63.7824 13.0093 64.4262 12.7921Z" fill="black"/>
<path d="M34.286 21.1524C34.9556 21.0603 35.5763 21.5194 35.6843 22.1867C35.7922 22.8538 35.3479 23.4853 34.6834 23.6091C34.2393 23.6917 33.7854 23.5273 33.4971 23.1794C33.2089 22.8317 33.1319 22.355 33.2957 21.934C33.4595 21.513 33.8385 21.2139 34.286 21.1524Z" fill="black"/>
<path d="M38.7607 176.647L38.8795 176.602L39.0612 176.753C38.981 178.035 38.7477 179.099 37.2299 179.096C36.5878 178.635 36.3518 178.35 36.4922 177.569C37.251 176.67 37.6806 176.825 38.7607 176.647Z" fill="black"/>
<path d="M89.3377 26.7774C89.7335 26.548 90.2218 26.5539 90.6116 26.7926C91.0014 27.0313 91.2289 27.4646 91.2031 27.9208C91.1788 28.377 90.9058 28.7828 90.4918 28.9776C89.8897 29.2613 89.1709 29.02 88.8615 28.4302C88.5521 27.8404 88.7614 27.1117 89.3377 26.7774Z" fill="black"/>
<path d="M117.229 37.8467C117.667 37.7243 118.138 37.8509 118.454 38.177C118.773 38.503 118.887 38.9765 118.752 39.4112C118.618 39.8458 118.256 40.1725 117.81 40.2629C117.155 40.3957 116.512 39.9857 116.356 39.335C116.198 38.6844 116.585 38.0267 117.229 37.8467Z" fill="black"/>
<path d="M72.8631 43.4188C73.4816 43.2207 74.1481 43.5327 74.3925 44.1343C74.6368 44.7361 74.3761 45.4243 73.7946 45.7134C73.3773 45.921 72.8788 45.8772 72.5039 45.6003C72.129 45.3232 71.9407 44.8596 72.0166 44.3997C72.0922 43.9397 72.4192 43.5609 72.8631 43.4188Z" fill="black"/>
<path d="M136.702 100.148C138.213 100.222 139.009 101.6 137.69 102.759C135.967 103.074 135.498 101.373 136.702 100.148Z" fill="black"/>
<path d="M84.2837 43.38C84.9571 43.3522 85.5303 43.8695 85.5713 44.5435C85.6122 45.2175 85.1072 45.8006 84.4338 45.8551C83.9864 45.8913 83.5542 45.6828 83.304 45.3101C83.0537 44.9374 83.0249 44.4586 83.2281 44.0582C83.4314 43.6578 83.8348 43.3985 84.2837 43.38Z" fill="black"/>
<path d="M150.235 75.8765C150.863 75.6469 151.559 75.9563 151.809 76.5758C152.06 77.1953 151.775 77.9019 151.163 78.1728C150.749 78.3563 150.269 78.2996 149.909 78.0251C149.55 77.7504 149.368 77.3017 149.436 76.8543C149.504 76.4069 149.811 76.032 150.235 75.8765Z" fill="black"/>
<path d="M34.0168 26.7794C34.4431 26.5931 34.9377 26.6615 35.2976 26.9562C35.6575 27.2509 35.8219 27.7224 35.7234 28.1769C35.625 28.6316 35.2801 28.9927 34.8306 29.112C34.2046 29.2784 33.5562 28.9344 33.3428 28.3228C33.1295 27.7112 33.4232 27.0386 34.0168 26.7794Z" fill="black"/>
<path d="M150.109 70.4266C150.526 70.2302 151.018 70.2817 151.386 70.5606C151.753 70.8394 151.935 71.2992 151.858 71.7539C151.781 72.2086 151.458 72.5829 151.019 72.7251C150.397 72.9267 149.726 72.6105 149.486 72.0028C149.245 71.3951 149.518 70.705 150.109 70.4266Z" fill="black"/>
<path d="M50.5429 10.2117C51.125 9.87713 51.8676 10.0676 52.2169 10.6409C52.5662 11.2143 52.3948 11.9615 51.8305 12.3254C51.4526 12.5691 50.9719 12.5886 50.5755 12.3763C50.1789 12.164 49.9287 11.7533 49.922 11.3035C49.9152 10.8538 50.153 10.4357 50.5429 10.2117Z" fill="black"/>
<path d="M92.2256 23.8346C92.6412 23.6724 93.1129 23.7467 93.4586 24.0291C93.8044 24.3117 93.9712 24.7583 93.8939 25.1981C93.8181 25.6379 93.5117 26.0027 93.0916 26.1527C92.4546 26.38 91.7525 26.0536 91.5159 25.42C91.2793 24.7864 91.5963 24.0802 92.2256 23.8346Z" fill="black"/>
<path d="M72.8792 15.5275C73.5315 15.3686 74.1912 15.76 74.364 16.4088C74.5369 17.0575 74.1594 17.7254 73.5145 17.9119C73.085 18.0361 72.6219 17.9183 72.304 17.6039C71.986 17.2897 71.863 16.8279 71.9823 16.397C72.1018 15.9661 72.4449 15.6336 72.8792 15.5275Z" fill="black"/>
<path d="M95.0353 32.2565C95.6798 32.0537 96.3668 32.4065 96.5792 33.0481C96.79 33.6898 96.4457 34.3818 95.8072 34.6011C95.3856 34.7455 94.92 34.6524 94.5879 34.3576C94.2542 34.0626 94.1056 33.6114 94.1996 33.1764C94.2921 32.7415 94.6106 32.3901 95.0353 32.2565Z" fill="black"/>
<path d="M128.125 43.5619C128.538 43.3755 129.022 43.4315 129.381 43.7077C129.741 43.9838 129.919 44.4353 129.847 44.883C129.774 45.3309 129.461 45.7023 129.032 45.85C128.409 46.0643 127.728 45.7513 127.485 45.1392C127.243 44.5271 127.525 43.8323 128.125 43.5619Z" fill="black"/>
<path d="M150.165 59.5539C150.591 59.4088 151.064 59.5083 151.395 59.8133C151.727 60.1184 151.866 60.5805 151.757 61.018C151.649 61.4556 151.31 61.7989 150.874 61.9133C150.231 62.0813 149.572 61.7113 149.381 61.0758C149.189 60.4404 149.537 59.7678 150.165 59.5539Z" fill="black"/>
<path d="M114.228 24.0132C114.632 23.8138 115.115 23.8523 115.483 24.1136C115.852 24.3749 116.047 24.817 115.993 25.2655C115.938 25.7139 115.644 26.0969 115.224 26.2629C114.608 26.506 113.912 26.2208 113.645 25.6166C113.377 25.0125 113.635 24.3049 114.228 24.0132Z" fill="black"/>
<path d="M92.1191 35.1297C92.7257 34.8161 93.4719 35.0571 93.7798 35.6665C94.0891 36.2757 93.8419 37.0197 93.2292 37.3235C92.6256 37.6238 91.8916 37.3801 91.5868 36.7777C91.2804 36.1754 91.5185 35.4397 92.1191 35.1297Z" fill="black"/>
<path d="M31.1619 24.0295C31.5551 23.8214 32.0297 23.842 32.4034 24.0832C32.777 24.3245 32.991 24.7487 32.9632 25.1926C32.9353 25.6363 32.6697 26.0305 32.2689 26.2231C31.6656 26.5129 30.9414 26.2666 30.6398 25.6691C30.3383 25.0715 30.5705 24.3425 31.1619 24.0295Z" fill="black"/>
<path d="M39.606 32.377C40.0337 32.2279 40.5088 32.3265 40.842 32.6333C41.1754 32.9401 41.3126 33.4054 41.1995 33.8442C41.0864 34.2828 40.7409 34.6234 40.3008 34.7306C39.6638 34.8858 39.0174 34.5136 38.8318 33.8848C38.6462 33.2562 38.9869 32.5925 39.606 32.377Z" fill="black"/>
<path d="M69.53 191.16C70.2049 191.168 70.2883 191.139 70.8869 191.404C71.6855 192.316 71.022 192.845 70.3207 193.54C68.5375 193.512 68.1612 192.41 69.53 191.16Z" fill="black"/>
<path d="M78.4817 193.731C78.9201 193.66 79.363 193.829 79.6405 194.177C79.9165 194.524 79.9848 194.994 79.818 195.405C79.6496 195.816 79.2735 196.106 78.8325 196.16C78.169 196.242 77.5614 195.78 77.4659 195.117C77.3703 194.456 77.822 193.84 78.4817 193.731Z" fill="black"/>
<path d="M145.016 59.2578C146.601 60.0281 146.832 60.945 145.291 62.059C143.369 61.3621 143.591 60.3522 145.016 59.2578Z" fill="black"/>
<path d="M128.478 26.7605C129.1 26.6299 129.719 27.0004 129.899 27.6113C130.078 28.222 129.757 28.868 129.162 29.0947C128.733 29.258 128.249 29.167 127.91 28.8592C127.568 28.5511 127.43 28.0784 127.55 27.6356C127.67 27.1926 128.03 26.8545 128.478 26.7605Z" fill="black"/>
<path d="M133.742 43.6127C134.344 43.3625 135.037 43.6329 135.311 44.2253C135.584 44.8176 135.342 45.5204 134.761 45.8174C134.364 46.0203 133.887 45.9897 133.52 45.7376C133.153 45.4855 132.953 45.0526 132.999 44.6093C133.044 44.166 133.329 43.7835 133.742 43.6127Z" fill="black"/>
<path d="M136.588 78.6195C137.23 78.4662 137.876 78.8517 138.044 79.4884C138.214 80.1252 137.844 80.7808 137.213 80.9662C136.788 81.0902 136.332 80.975 136.018 80.6651C135.704 80.3551 135.582 79.8994 135.701 79.4744C135.819 79.0493 136.159 78.7221 136.588 78.6195Z" fill="black"/>
<path d="M117.005 21.3258C117.393 21.1189 117.863 21.1389 118.234 21.3781C118.604 21.6173 118.816 22.038 118.787 22.4776C118.758 22.9175 118.494 23.3071 118.096 23.4962C117.499 23.7796 116.787 23.5346 116.489 22.9446C116.192 22.3547 116.421 21.6358 117.005 21.3258Z" fill="black"/>
<path d="M111.35 21.3166C111.735 21.0828 112.219 21.0819 112.606 21.3141C112.991 21.5463 113.217 21.9734 113.191 22.4234C113.167 22.8733 112.894 23.272 112.483 23.4592C111.899 23.726 111.208 23.4904 110.907 22.9222C110.605 22.3539 110.801 21.6499 111.35 21.3166Z" fill="black"/>
<path d="M153.098 73.1825C153.722 72.9907 154.387 73.3293 154.598 73.9476C154.81 74.5658 154.493 75.2405 153.882 75.4718C153.468 75.6282 153.002 75.547 152.667 75.2603C152.33 74.9735 152.177 74.5265 152.268 74.094C152.358 73.6615 152.674 73.3122 153.098 73.1825Z" fill="black"/>
<path d="M144.697 75.9119C145.316 75.7023 145.99 76.0218 146.219 76.6336C146.448 77.2454 146.149 77.9285 145.545 78.1766C145.137 78.3444 144.67 78.2764 144.326 77.9995C143.983 77.7224 143.816 77.2803 143.894 76.8458C143.971 76.4113 144.279 76.0534 144.697 75.9119Z" fill="black"/>
<path d="M136.875 89.5392C137.52 89.5314 138.057 90.0301 138.096 90.6731C138.137 91.3161 137.665 91.8777 137.025 91.9504C136.581 92.0006 136.146 91.8022 135.892 91.4343C135.639 91.0664 135.61 90.5888 135.815 90.1922C136.021 89.7955 136.428 89.5445 136.875 89.5392Z" fill="black"/>
<path d="M108.524 35.2904C109.072 34.9321 109.807 35.0767 110.179 35.6161C110.55 36.1554 110.424 36.8929 109.894 37.2782C109.539 37.5361 109.073 37.5813 108.674 37.3963C108.277 37.2114 108.012 36.8253 107.98 36.3878C107.948 35.9504 108.157 35.5303 108.524 35.2904Z" fill="black"/>
<path d="M131.282 56.8632C131.92 56.8127 132.487 57.2702 132.572 57.9051C132.657 58.5401 132.231 59.1306 131.602 59.2497C131.163 59.3327 130.714 59.1666 130.435 58.8181C130.156 58.4696 130.094 57.9956 130.272 57.5861C130.448 57.1767 130.837 56.8985 131.282 56.8632Z" fill="black"/>
<path d="M147.355 56.8895C147.961 56.6079 148.682 56.875 148.959 57.4845C149.237 58.0938 148.964 58.8123 148.353 59.0845C147.748 59.354 147.038 59.0849 146.765 58.4821C146.49 57.8792 146.754 57.1681 147.355 56.8895Z" fill="black"/>
<path d="M142.272 84.2188C142.917 84.1283 143.517 84.5675 143.627 85.2101C143.736 85.8527 143.314 86.4655 142.676 86.5934C142.245 86.6794 141.802 86.5247 141.519 86.1895C141.235 85.8543 141.158 85.3918 141.314 84.9818C141.47 84.5721 141.837 84.2797 142.272 84.2188Z" fill="black"/>
<path d="M108.719 40.7306C109.335 40.4848 110.034 40.7834 110.283 41.3985C110.532 42.0136 110.236 42.7139 109.622 42.9645C109.003 43.2166 108.299 42.9188 108.049 42.3001C107.799 41.6815 108.101 40.978 108.719 40.7306Z" fill="black"/>
<path d="M136.675 51.6059C137.308 51.4319 137.963 51.7964 138.149 52.4256C138.334 53.0548 137.982 53.7171 137.356 53.9149C136.942 54.0462 136.487 53.943 136.17 53.6449C135.852 53.3469 135.72 52.9004 135.824 52.4776C135.929 52.0548 136.255 51.7214 136.675 51.6059Z" fill="black"/>
<path d="M144.626 70.4569C145.022 70.283 145.481 70.3353 145.828 70.594C146.176 70.8528 146.358 71.278 146.303 71.7075C146.25 72.1372 145.97 72.5049 145.571 72.6705C144.961 72.9229 144.262 72.6376 144.003 72.0308C143.745 71.4242 144.022 70.7222 144.626 70.4569Z" fill="black"/>
<path d="M139.045 49.1667C139.433 48.9374 139.919 48.9451 140.299 49.1869C140.682 49.4286 140.895 49.8636 140.855 50.3133C140.812 50.7629 140.522 51.1515 140.104 51.3195C139.52 51.5535 138.854 51.2983 138.577 50.7338C138.299 50.1693 138.504 49.4863 139.045 49.1667Z" fill="black"/>
<path d="M95.0756 21.1477C95.714 21.0014 96.354 21.3948 96.5102 22.0321C96.668 22.6692 96.2858 23.3148 95.6503 23.4828C95.2302 23.594 94.7828 23.4699 94.481 23.1584C94.1777 22.8468 94.067 22.396 94.1899 21.9793C94.3127 21.5627 94.6509 21.2446 95.0756 21.1477Z" fill="black"/>
<path d="M69.6227 196.652C70.2552 196.828 70.3568 196.821 70.764 197.318C71.0245 198.443 70.5002 198.841 69.5662 199.362C68.0678 198.83 68.271 197.392 69.6227 196.652Z" fill="black"/>
<path d="M122.459 37.9873C123.051 37.6911 123.768 37.9268 124.068 38.5146C124.369 39.1026 124.138 39.8225 123.553 40.1267C122.96 40.4338 122.232 40.2004 121.928 39.6068C121.625 39.0131 121.865 38.2862 122.459 37.9873Z" fill="black"/>
<path d="M111.535 26.7738C112.12 26.494 112.822 26.7301 113.119 27.3069C113.417 27.8837 113.201 28.5924 112.634 28.9072C112.252 29.1195 111.783 29.1068 111.413 28.8739C111.043 28.6411 110.828 28.225 110.854 27.7881C110.878 27.351 111.139 26.9625 111.535 26.7738Z" fill="black"/>
<path d="M34.0462 32.3574C34.4552 32.1916 34.922 32.2638 35.2619 32.5454C35.6016 32.8269 35.7593 33.2723 35.6726 33.7049C35.5858 34.1376 35.2684 34.4876 34.8464 34.6163C34.2326 34.8035 33.5802 34.4744 33.366 33.8696C33.1517 33.2646 33.4514 32.5982 34.0462 32.3574Z" fill="black"/>
<path d="M136.539 67.6893C137.154 67.4799 137.825 67.7981 138.051 68.407C138.277 69.0159 137.976 69.6944 137.374 69.9374C136.969 70.1006 136.508 70.0311 136.17 69.756C135.83 69.4807 135.668 69.0432 135.746 68.6136C135.821 68.1839 136.126 67.8299 136.539 67.6893Z" fill="black"/>
<path d="M133.837 59.6655C134.459 59.5272 135.081 59.9001 135.252 60.514C135.422 61.1281 135.082 61.7685 134.479 61.9716C134.059 62.1128 133.595 62.0106 133.273 61.7058C132.952 61.4009 132.824 60.9434 132.941 60.5161C133.059 60.0889 133.404 59.7616 133.837 59.6655Z" fill="black"/>
<path d="M75.7331 40.7018C76.388 40.6003 77.0007 41.0497 77.1006 41.7047C77.2006 42.3597 76.7497 42.9714 76.0945 43.0698C75.4413 43.1678 74.8321 42.7189 74.7326 42.066C74.633 41.4131 75.0805 40.8028 75.7331 40.7018Z" fill="black"/>
<path d="M122.705 32.3921C123.336 32.1998 124.002 32.5548 124.194 33.1853C124.387 33.8157 124.032 34.4826 123.401 34.6749C122.77 34.867 122.104 34.5118 121.912 33.8815C121.719 33.2512 122.074 32.5844 122.705 32.3921Z" fill="black"/>
<path d="M142.31 78.6315C142.926 78.5909 143.469 79.0277 143.562 79.6367C143.654 80.2459 143.264 80.8245 142.665 80.9683C142.23 81.0728 141.773 80.9231 141.484 80.5814C141.194 80.2399 141.123 79.7643 141.297 79.3521C141.472 78.9399 141.864 78.6611 142.31 78.6315Z" fill="black"/>
<path d="M75.3053 12.9673C75.8516 12.6189 76.5764 12.7738 76.9323 13.315C77.2883 13.8565 77.1433 14.5832 76.607 14.9467C76.2535 15.1864 75.7982 15.217 75.4156 15.027C75.0331 14.8371 74.7824 14.4558 74.7595 14.0294C74.7368 13.6027 74.9453 13.1969 75.3053 12.9673Z" fill="black"/>
<path d="M139.133 54.367C139.719 54.0804 140.426 54.3207 140.715 54.9048C141.005 55.4887 140.767 56.1968 140.184 56.4892C139.599 56.7837 138.885 56.5448 138.592 55.9567C138.301 55.3685 138.543 54.6556 139.133 54.367Z" fill="black"/>
<path d="M136.419 62.3311C136.823 62.1576 137.288 62.2207 137.629 62.495C137.972 62.7694 138.134 63.21 138.052 63.6407C137.971 64.0712 137.658 64.4216 137.24 64.5512C136.637 64.7376 135.994 64.4205 135.776 63.8295C135.559 63.2385 135.841 62.5801 136.419 62.3311Z" fill="black"/>
<path d="M136.772 40.7113C137.406 40.6064 138.008 41.0277 138.128 41.66C138.246 42.2921 137.838 42.9034 137.209 43.0361C136.789 43.1247 136.355 42.9791 136.073 42.6558C135.791 42.3324 135.706 41.882 135.851 41.4783C135.995 41.0747 136.349 40.7813 136.772 40.7113Z" fill="black"/>
<path d="M139.214 75.9297C139.822 75.6975 140.505 76.0003 140.74 76.6076C140.975 77.2148 140.676 77.8982 140.07 78.1368C139.46 78.3771 138.77 78.075 138.533 77.4632C138.297 76.8516 138.602 76.1637 139.214 75.9297Z" fill="black"/>
<path d="M147.729 89.5513C148.148 89.4732 148.575 89.6265 148.848 89.9525C149.123 90.2784 149.199 90.7262 149.05 91.1246C148.9 91.523 148.548 91.8103 148.128 91.8761C147.491 91.9759 146.892 91.5456 146.783 90.9102C146.674 90.2747 147.095 89.6695 147.729 89.5513Z" fill="black"/>
<path d="M147.709 73.1508C148.347 73.0386 148.957 73.4628 149.074 74.1005C149.189 74.7382 148.769 75.3502 148.132 75.4704C147.491 75.5919 146.872 75.167 146.754 74.5235C146.637 73.88 147.066 73.2641 147.709 73.1508Z" fill="black"/>
<path d="M75.0997 196.879C75.4957 196.706 75.954 196.765 76.2946 197.031C76.6351 197.296 76.8034 197.726 76.7331 198.152C76.6629 198.578 76.3653 198.931 75.9575 199.074C75.3589 199.282 74.7025 198.98 74.4718 198.39C74.241 197.798 74.5184 197.133 75.0997 196.879Z" fill="black"/>
<path d="M47.8133 40.7149C48.1979 40.529 48.6532 40.5662 49.0026 40.8121C49.3519 41.058 49.5406 41.474 49.4954 41.8988C49.45 42.3236 49.1781 42.6906 48.7849 42.8574C48.1969 43.1068 47.5174 42.8417 47.2537 42.2602C46.99 41.6786 47.2384 40.9928 47.8133 40.7149Z" fill="black"/>
<path d="M144.896 81.4985C145.313 81.3848 145.759 81.509 146.056 81.822C146.355 82.1352 146.456 82.5865 146.321 82.9972C146.188 83.4077 145.838 83.7115 145.413 83.7878C144.794 83.8987 144.198 83.5031 144.06 82.8903C143.922 82.2774 144.291 81.6641 144.896 81.4985Z" fill="black"/>
<path d="M57.9713 190.387C59.4682 190.787 60.2027 191.386 59.0352 192.845C56.8535 193.197 57.1903 191.712 57.9713 190.387Z" fill="black"/>
<path d="M147.378 78.9277C147.765 78.7207 148.235 78.7471 148.598 78.9963C148.958 79.2453 149.151 79.6754 149.095 80.111C149.04 80.5465 148.746 80.9146 148.334 81.065C147.754 81.276 147.111 81.0036 146.86 80.4414C146.609 79.8791 146.835 79.2181 147.378 78.9277Z" fill="black"/>
<path d="M81.2105 196.615C81.8353 196.43 82.492 196.791 82.671 197.417C82.8499 198.045 82.4844 198.697 81.855 198.872C81.2347 199.044 80.5902 198.684 80.4128 198.063C80.2353 197.443 80.5917 196.797 81.2105 196.615Z" fill="black"/>
<path d="M72.8494 10.0521C73.2612 9.94682 73.6978 10.0733 73.9896 10.3824C74.2814 10.6916 74.3826 11.1346 74.2538 11.5399C74.1252 11.9449 73.7867 12.2484 73.3701 12.3324C72.7481 12.4577 72.1397 12.0644 71.9983 11.446C71.8571 10.8275 72.2346 10.209 72.8494 10.0521Z" fill="black"/>
<path d="M147.682 95.1443C148.093 95.054 148.522 95.1928 148.803 95.5073C149.083 95.822 149.171 96.2634 149.035 96.6619C148.898 97.0605 148.557 97.3543 148.143 97.4304C147.517 97.5454 146.915 97.1374 146.789 96.5138C146.663 95.89 147.06 95.2806 147.682 95.1443Z" fill="black"/>
<path d="M139.287 70.4572C139.897 70.2956 140.523 70.6476 140.702 71.2514C140.881 71.8553 140.547 72.492 139.95 72.6885C139.546 72.8208 139.104 72.7237 138.793 72.4349C138.483 72.146 138.354 71.7114 138.456 71.3001C138.559 70.8888 138.878 70.5657 139.287 70.4572Z" fill="black"/>
<path d="M36.5968 35.2869C37.134 34.9411 37.8495 35.0931 38.1999 35.6272C38.5503 36.1615 38.4047 36.8782 37.8736 37.2333C37.3359 37.5929 36.6082 37.445 36.2533 36.9042C35.8986 36.3632 36.0528 35.6369 36.5968 35.2869Z" fill="black"/>
<path d="M141.866 73.3202C142.429 73.0265 143.122 73.2362 143.427 73.7921C143.73 74.3479 143.534 75.0452 142.985 75.3607C142.62 75.5701 142.169 75.566 141.808 75.3498C141.447 75.1335 141.231 74.7389 141.243 74.3179C141.255 73.897 141.493 73.5154 141.866 73.3202Z" fill="black"/>
<path d="M133.963 70.4374C134.581 70.3662 135.143 70.7938 135.242 71.4073C135.339 72.0206 134.936 72.6018 134.326 72.7249C133.909 72.8094 133.48 72.6583 133.207 72.3312C132.934 72.0042 132.862 71.5541 133.02 71.1587C133.178 70.7634 133.54 70.4864 133.963 70.4374Z" fill="black"/>
<path d="M96.1925 193.729C96.7855 193.694 97.3087 194.112 97.4042 194.698C97.5013 195.285 97.1388 195.847 96.5656 196.003C96.1379 196.12 95.6814 195.982 95.3902 195.65C95.0975 195.316 95.0202 194.848 95.1915 194.438C95.3629 194.03 95.7512 193.754 96.1925 193.729Z" fill="black"/>
<path d="M78.3532 43.5916C78.9354 43.3339 79.6164 43.5943 79.8772 44.1747C80.1381 44.7551 79.8818 45.4376 79.304 45.7025C78.7199 45.9698 78.03 45.7109 77.7665 45.1253C77.5027 44.5398 77.7662 43.8515 78.3532 43.5916Z" fill="black"/>
<path d="M72.4377 193.811C74.5409 193.747 74.2258 195.024 73.0055 196.143C72.4632 196.156 72.4467 196.102 71.9742 195.858C71.338 194.93 71.7091 194.499 72.4377 193.811Z" fill="black"/>
<path d="M63.5664 190.5C65.1111 191.041 65.7604 191.965 64.4781 193.297C63.0458 192.798 62.4474 191.777 63.5664 190.5Z" fill="black"/>
<path d="M64.6091 40.7694C65.2127 40.636 65.8134 41.0058 65.9661 41.6049C66.1189 42.2039 65.7685 42.8162 65.1746 42.988C64.7732 43.1042 64.3404 42.9924 64.0452 42.6963C63.7501 42.4004 63.6397 41.9672 63.7571 41.566C63.8745 41.1649 64.201 40.8596 64.6091 40.7694Z" fill="black"/>
<path d="M86.9533 196.564C87.3491 196.426 87.7889 196.514 88.1013 196.796C88.4122 197.077 88.5442 197.507 88.4456 197.915C88.3455 198.323 88.0316 198.643 87.6266 198.751C87.0321 198.909 86.4194 198.569 86.239 197.982C86.057 197.394 86.3724 196.769 86.9533 196.564Z" fill="black"/>
<path d="M39.5895 38.005C39.9665 37.8444 40.4007 37.8992 40.726 38.1483C41.0513 38.3974 41.2174 38.8024 41.1605 39.2081C41.1037 39.614 40.8326 39.9578 40.4514 40.1078C39.8731 40.3356 39.2193 40.0565 38.9836 39.4814C38.7479 38.9063 39.0179 38.2487 39.5895 38.005Z" fill="black"/>
<path d="M136.491 57.0789C136.867 56.8959 137.315 56.9353 137.653 57.1816C137.993 57.428 138.167 57.841 138.109 58.2559C138.052 58.6707 137.77 59.02 137.377 59.1641C136.81 59.3719 136.179 59.0986 135.942 58.5426C135.706 57.9864 135.947 57.3428 136.491 57.0789Z" fill="black"/>
<path d="M136.717 73.1681C137.307 73.0975 137.847 73.5067 137.94 74.0941C138.032 74.6815 137.644 75.2367 137.06 75.3506C136.663 75.4282 136.255 75.2825 135.997 74.9708C135.739 74.6592 135.671 74.2315 135.821 73.8557C135.971 73.4799 136.315 73.2161 136.717 73.1681Z" fill="black"/>
<path d="M84.2631 193.585C84.8561 193.5 85.4066 193.913 85.4916 194.506C85.578 195.099 85.167 195.649 84.574 195.737C83.978 195.825 83.426 195.413 83.3395 194.817C83.2531 194.222 83.6671 193.669 84.2631 193.585Z" fill="black"/>
<path d="M78.0666 38.1513C78.5851 37.8678 79.2352 38.0568 79.5203 38.5741C79.8069 39.0914 79.6204 39.7423 79.1047 40.0303C78.5852 40.3201 77.9294 40.1325 77.6418 39.612C77.3543 39.0916 77.5448 38.4364 78.0666 38.1513Z" fill="black"/>
<path d="M89.9666 193.727C90.5171 193.517 91.1343 193.79 91.3482 194.337C91.562 194.886 91.2921 195.505 90.7431 195.72C90.1925 195.939 89.5692 195.666 89.3539 195.114C89.14 194.562 89.4145 193.941 89.9666 193.727Z" fill="black"/>
<path d="M81.0574 191.047C81.89 191.015 82.5649 190.944 82.8151 191.876C82.7347 192.438 82.4344 192.665 82.0477 193.093C81.3228 193.069 80.8905 192.762 80.5781 192.139C80.6069 191.487 80.613 191.675 81.0574 191.047Z" fill="black"/>
<path d="M108.627 187.413C109.135 187.367 109.117 187.345 109.595 187.496C110.314 188.246 110.052 188.857 109.487 189.606C107.736 189.548 107.57 188.652 108.627 187.413Z" fill="black"/>
<path d="M34.799 174.051C36.1233 174.589 35.7343 175.749 34.6864 176.391C34.1948 176.268 34.0201 176.268 33.6533 175.913C33.2466 174.817 33.9142 174.486 34.799 174.051Z" fill="black"/>
<path d="M60.8934 193.879C61.2467 193.727 61.6545 193.779 61.9589 194.014C62.2633 194.249 62.4168 194.63 62.36 195.01C62.3033 195.391 62.0452 195.711 61.6855 195.846C61.1459 196.049 60.5424 195.785 60.3271 195.25C60.1116 194.715 60.3632 194.106 60.8934 193.879Z" fill="black"/>
<path d="M128.156 70.3341C129.747 70.2084 130.601 70.9435 129.636 72.4795C129.389 72.6076 129.277 72.6377 129.015 72.7311L128.695 72.5397C128.315 71.8889 128.272 71.0989 128.156 70.3341Z" fill="black"/>
<path d="M44.5171 185.103C44.862 184.944 45.2662 184.986 45.5707 185.212C45.8754 185.438 46.0319 185.815 45.9788 186.191C45.9256 186.567 45.6713 186.882 45.3158 187.016C44.7932 187.213 44.2093 186.96 43.9944 186.444C43.7793 185.93 44.0105 185.337 44.5171 185.103Z" fill="black"/>
<path d="M86.7429 46.1953C87.486 46.2096 88.0881 46.5692 88.2974 47.305C88.167 47.8197 88.2929 47.5871 87.8136 47.9685C86.9931 48.0603 86.2121 48.2476 85.9922 47.2654C86.1454 46.687 86.3091 46.6024 86.7429 46.1953Z" fill="black"/>
<path d="M106.937 184.867L107.391 185.246C107.747 186.208 106.836 186.572 106.082 186.945C105.612 186.617 105.612 186.599 105.26 186.185C105.096 185.157 106.097 185.084 106.937 184.867Z" fill="black"/>
<path d="M131.271 83.9492C132.855 84.1694 133.135 85.1769 132.069 86.3037L131.529 86.3639C130.838 85.809 130.847 84.66 131.271 83.9492Z" fill="black"/>
<path d="M52.5362 190.947C53.0582 190.891 53.5355 191.246 53.6306 191.763C53.7257 192.28 53.4063 192.782 52.8984 192.916C52.5344 193.011 52.1477 192.895 51.8967 192.614C51.6455 192.333 51.5724 191.936 51.7073 191.586C51.8421 191.234 52.1621 190.988 52.5362 190.947Z" fill="black"/>
<path d="M112.653 184.094C113.771 185.38 112.709 186.012 111.561 186.438C111.033 185.915 110.959 185.888 111.084 185.204C111.513 184.652 112.034 184.438 112.653 184.094Z" fill="black"/>
<path d="M99.8516 190.719C100.278 190.77 100.349 190.896 100.686 191.174C101.006 192.237 100.222 192.53 99.3966 192.881C98.8703 192.636 98.7626 192.598 98.6641 192.081C98.8749 191.55 99.4224 191.124 99.8516 190.719Z" fill="black"/>
<path d="M66.6765 193.907C67.1434 193.685 67.7015 193.867 67.9498 194.319C68.1982 194.773 68.051 195.34 67.6139 195.616C67.3068 195.808 66.9178 195.816 66.6038 195.634C66.2899 195.452 66.1027 195.111 66.1181 194.748C66.1334 194.386 66.3484 194.061 66.6765 193.907Z" fill="black"/>
<path d="M41.9619 182.393C42.2745 182.237 42.6476 182.265 42.933 182.467C43.2184 182.669 43.3698 183.01 43.327 183.357C43.2842 183.705 43.0542 183.999 42.7284 184.126C42.2561 184.308 41.7237 184.088 41.5188 183.624C41.3139 183.162 41.5091 182.62 41.9619 182.393Z" fill="black"/>
<path d="M94.3496 191.914L94.4164 192.284C94.1434 193.288 93.4306 193.467 92.5388 193.261C92.2143 192.892 92.0444 192.653 92.1794 192.184C92.5919 191.937 93.7764 191.96 94.3496 191.914Z" fill="black"/>
<path d="M60.4837 188.574C60.9073 188.694 61.37 188.888 61.6901 189.191C61.847 189.707 61.8279 189.504 61.5253 190.124C60.5803 190.13 60.1971 189.448 60.4837 188.574Z" fill="black"/>
<path d="M129.086 75.8945C129.511 76.0092 129.512 76.0618 129.856 76.3536C130.123 76.9293 130.032 77.1703 129.966 77.833C129.26 77.7552 129.269 76.6129 129.086 75.8945Z" fill="black"/>
<path d="M131.766 89.375C132.735 89.614 132.926 90.3303 132.795 91.2131L132.448 91.1817C132.083 90.6474 131.952 90.0071 131.766 89.375Z" fill="black"/>
<path d="M9.85892 111.906L10.7445 111.929C11.2554 112.358 11.3958 116.395 11.4912 117.367C12.2168 124.209 13.0908 131.032 14.1127 137.835C14.5209 140.48 15.0693 143.115 15.448 145.735C14.2704 144.932 13.2711 143.937 12.2451 142.954C5.90608 137.235 -0.281009 116.063 9.85892 111.906Z" fill="#BEB5A8"/>
<path d="M13.2578 32.5742C13.9538 32.7464 15.5665 33.5046 16.3002 33.8278C17.5501 35.8557 18.4486 34.0922 19.6584 35.2169C19.2606 36.3311 18.8827 37.291 20.7361 37.4956C21.1189 37.5377 21.3132 37.2958 21.549 37.0471C21.7836 36.3111 21.7353 36.226 21.6248 35.4335C22.6651 35.4732 23.7886 35.5986 24.8324 35.6955C24.8118 36.251 24.7778 36.3989 24.9477 36.9415C26.7261 38.7287 26.6634 37.1696 27.5514 36.1732C28.0732 36.3314 32.0203 39.3099 32.8435 39.8481C33.6388 40.368 35.4178 41.0605 35.8931 41.4616C35.9768 41.8086 36.123 42.5563 36.3814 42.6976C38.0065 43.5863 37.6317 42.148 39.2818 43.6704L36.9495 44.051C36.3443 44.2958 36.5005 44.3421 35.9926 44.2031C35.6494 43.7773 35.527 43.5654 35.0488 43.2873C32.8003 42.9297 33.6679 44.4707 32.7266 44.8504C30.2203 45.8618 27.2778 45.4525 24.8884 44.8704C23.3923 42.0981 22.3568 44.5539 21.3481 42.9765C21.5196 42.3684 21.6796 42.0394 21.571 41.4398C21.2794 40.9918 21.2336 41.0216 20.7423 40.833C19.7379 40.7697 19.9255 41.4592 19.0369 41.3594C18.5851 41.0093 18.4787 40.951 18.1311 40.4749C18.6193 39.804 19.2177 39.1932 18.8704 38.3674C17.7845 37.5502 17.2663 38.0211 16.4631 38.7947C16.104 38.3712 15.7902 38.1137 15.7288 37.5779C16.0703 36.7357 16.2431 36.0439 15.454 35.3755L14.9038 35.2556C13.4712 34.9519 13.5088 33.8269 13.2578 32.5742Z" fill="#BEB5A8"/>
<path d="M28.6922 37.8157C29.3744 37.71 30.0132 38.177 30.1193 38.859C30.2256 39.5411 29.7591 40.1802 29.0771 40.2871C28.3943 40.3941 27.7543 39.927 27.6479 39.244C27.5416 38.5613 28.0091 37.9216 28.6922 37.8157Z" fill="black"/>
<path d="M23.2949 37.8049C23.9564 37.7932 24.5118 38.3007 24.5599 38.9605C24.608 39.6204 24.1321 40.2029 23.4758 40.2874C23.0178 40.3462 22.5648 40.1471 22.2985 39.7699C22.0322 39.3928 21.9962 38.8993 22.2051 38.4874C22.4139 38.0756 22.8332 37.8129 23.2949 37.8049Z" fill="black"/>
<path d="M31.29 40.6719C31.9162 40.4491 32.6049 40.7729 32.8331 41.3971C33.0612 42.0214 32.7436 42.7128 32.1215 42.9465C31.4915 43.1831 30.7893 42.8607 30.5584 42.2285C30.3272 41.5964 30.6559 40.8973 31.29 40.6719Z" fill="black"/>
<path d="M25.9228 40.7249C26.5448 40.6025 27.1476 41.0092 27.267 41.6318C27.3862 42.2542 26.9762 42.8551 26.3532 42.9711C25.7345 43.0863 25.139 42.6801 25.0206 42.062C24.9023 41.444 25.3054 40.8465 25.9228 40.7249Z" fill="black"/>
<path d="M28.7037 43.3125C29.5169 43.4683 29.8848 43.6586 29.9548 44.4813C29.6269 45.0734 29.7585 44.879 29.1206 45.2672C28.3525 45.1277 28.0252 45.1702 27.8203 44.3691C28.0106 43.7804 28.1884 43.7176 28.7037 43.3125Z" fill="black"/>
</svg>
